<svg width="50" height="50" viewBox="0 0 50 50" fill="none" xmlns="http://www.w3.org/2000/svg">
<g clip-path="url(#clip0_378_1021)">
<path d="M33.3337 16.6667H20.8337C19.7286 16.6667 18.6688 17.1057 17.8874 17.8871C17.106 18.6685 16.667 19.7283 16.667 20.8334C16.667 21.9385 17.106 22.9983 17.8874 23.7797C18.6688 24.5611 19.7286 25.0001 20.8337 25.0001H29.167C30.2721 25.0001 31.3319 25.4391 32.1133 26.2205C32.8947 27.0019 33.3337 28.0617 33.3337 29.1667C33.3337 30.2718 32.8947 31.3316 32.1133 32.113C31.3319 32.8944 30.2721 33.3334 29.167 33.3334H16.667M25.0003 37.5001V12.5001M45.8337 25.0001C45.8337 36.506 36.5063 45.8334 25.0003 45.8334C13.4944 45.8334 4.16699 36.506 4.16699 25.0001C4.16699 13.4941 13.4944 4.16675 25.0003 4.16675C36.5063 4.16675 45.8337 13.4941 45.8337 25.0001Z" stroke="white" stroke-width="2" stroke-linecap="round" stroke-linejoin="round"/>
</g>
<defs>
<clipPath id="clip0_378_1021">
<rect width="50" height="50" fill="white"/>
</clipPath>
</defs>
</svg>
