<svg width="208" height="71" viewBox="0 0 208 71" fill="none" xmlns="http://www.w3.org/2000/svg">
<g clip-path="url(#clip0_247_354)">
<path d="M78.2992 5.88433H85.0902V8.4171H80.8857V10.8949H85.0902V13.3879H80.8857V19.5289H78.2992V5.88433Z" fill="white"/>
<path d="M91.5809 5.88433H94.2226L99.4844 19.5289H96.7753L95.7058 16.7181H90.1222L89.0098 19.5289H86.3007L91.5779 5.88433H91.5809ZM92.9201 9.5017L91.0845 14.1853H94.7466L92.9201 9.5017Z" fill="white"/>
<path d="M108.684 7.73884L106.754 9.43754C106.076 8.49654 105.387 8.02909 104.685 8.02909C104.342 8.02909 104.063 8.11769 103.845 8.301C103.628 8.48432 103.52 8.68901 103.52 8.9151C103.52 9.14119 103.597 9.36116 103.753 9.5628C103.965 9.83777 104.602 10.4213 105.663 11.3165C106.659 12.1475 107.259 12.6669 107.471 12.8838C108.001 13.4154 108.375 13.9256 108.592 14.4114C108.813 14.8941 108.923 15.4258 108.923 16.0001C108.923 17.1183 108.534 18.0441 107.762 18.7773C106.983 19.5075 105.972 19.8711 104.725 19.8711C103.75 19.8711 102.901 19.6328 102.178 19.1562C101.455 18.6795 100.833 17.931 100.321 16.9106L102.512 15.5907C103.171 16.8006 103.928 17.3994 104.783 17.3994C105.23 17.3994 105.607 17.2711 105.911 17.0114C106.214 16.7517 106.367 16.4523 106.367 16.1132C106.367 15.8015 106.251 15.493 106.021 15.1844C105.791 14.8758 105.286 14.4023 104.504 13.7668C103.012 12.5569 102.049 11.619 101.614 10.959C101.179 10.3022 100.962 9.64224 100.962 8.98537C100.962 8.04131 101.323 7.22863 102.049 6.55342C102.773 5.87517 103.664 5.53604 104.728 5.53604C105.411 5.53604 106.061 5.69491 106.68 6.0096C107.296 6.32428 107.964 6.89866 108.687 7.73579L108.684 7.73884Z" fill="white"/>
<path d="M111.399 5.88433H114.041V11.0324H118.61V5.88433H121.243V19.5289H118.61V13.5437H114.041V19.5289H111.399V5.88433Z" fill="white"/>
<path d="M124.185 5.88433H126.771V19.5289H124.185V5.88433Z" fill="white"/>
<path d="M136.158 5.53909C138.095 5.53909 139.759 6.23874 141.153 7.63497C142.544 9.03425 143.243 10.736 143.243 12.7463C143.243 14.7567 142.557 16.4217 141.181 17.7996C139.805 19.1775 138.138 19.868 136.176 19.868C134.215 19.868 132.416 19.1592 131.055 17.7447C129.698 16.327 129.017 14.6467 129.017 12.6974C129.017 11.3929 129.333 10.1952 129.967 9.09841C130.599 8.00465 131.469 7.13697 132.575 6.49843C133.685 5.85989 134.877 5.53604 136.155 5.53604L136.158 5.53909ZM136.133 8.08408C134.865 8.08408 133.801 8.52098 132.94 9.40088C132.076 10.2777 131.644 11.3929 131.644 12.7494C131.644 14.2587 132.189 15.4502 133.274 16.327C134.117 17.0145 135.085 17.3566 136.179 17.3566C137.414 17.3566 138.469 16.9136 139.333 16.0246C140.206 15.1325 140.638 14.0356 140.638 12.728C140.638 11.4204 140.2 10.3297 139.324 9.43143C138.45 8.5332 137.384 8.08408 136.13 8.08408H136.133Z" fill="white"/>
<path d="M145.71 5.88433H148.211L154.067 14.8636V5.88433H156.672V19.5289H154.165L148.318 10.5802V19.5289H145.713V5.88433H145.71Z" fill="white"/>
<path d="M78.2716 28.6792H85.743V31.2212H80.8581V33.6837H85.743V36.1828H80.8581V39.7727H85.743V42.3208H78.2716V28.6792Z" fill="white"/>
<path d="M88.1793 28.6792H90.6769L96.5332 37.6555V28.6792H99.1381V42.3208H96.6313L90.7842 33.372V42.3208H88.1793V28.6792Z" fill="white"/>
<path d="M100.916 28.6792H108.479V31.2395H105.984V42.3208H103.343V31.2395H100.916V28.6792Z" fill="white"/>
<path d="M110.44 28.6792H113.201C114.712 28.6792 115.788 28.8106 116.431 29.0795C117.072 29.3483 117.59 29.7975 117.979 30.4207C118.368 31.047 118.564 31.7864 118.564 32.6357C118.564 33.534 118.35 34.2856 117.918 34.8874C117.486 35.4893 116.836 35.9445 115.969 36.2562L119.211 42.3208H116.364L113.287 36.5434H113.051V42.3208H110.443V28.6792H110.44ZM113.048 34.0136H113.863C114.691 34.0136 115.261 33.9037 115.573 33.6867C115.886 33.4729 116.042 33.1124 116.042 32.6082C116.042 32.3088 115.966 32.0491 115.812 31.8322C115.659 31.6122 115.451 31.4534 115.19 31.3587C114.93 31.2609 114.455 31.2151 113.762 31.2151H113.048V34.0167V34.0136Z" fill="white"/>
<path d="M121.325 28.6792H128.797V31.2212H123.915V33.6837H128.797V36.1828H123.915V39.7727H128.797V42.3208H121.325V28.6792Z" fill="white"/>
<path d="M131.215 28.6792H133.979C135.474 28.6792 136.55 28.8167 137.212 29.0917C137.874 29.3667 138.395 29.8127 138.775 30.4268C139.158 31.0409 139.348 31.7803 139.348 32.6388C139.348 33.592 139.097 34.3833 138.6 35.0158C138.101 35.6451 137.42 36.0851 136.565 36.3325C136.066 36.4731 135.15 36.5464 133.823 36.5464V42.3238H131.218V28.6823L131.215 28.6792ZM133.82 34.0136H134.647C135.297 34.0136 135.75 33.9648 136.005 33.8731C136.259 33.7814 136.458 33.6256 136.605 33.4118C136.752 33.1948 136.826 32.9382 136.826 32.6327C136.826 32.1041 136.621 31.7222 136.21 31.4778C135.91 31.3006 135.361 31.209 134.555 31.209H133.82V34.0106V34.0136Z" fill="white"/>
<path d="M142.072 28.6792H144.831C146.344 28.6792 147.42 28.8106 148.061 29.0795C148.701 29.3483 149.216 29.7975 149.608 30.4207C149.997 31.047 150.193 31.7864 150.193 32.6357C150.193 33.534 149.979 34.2856 149.547 34.8874C149.115 35.4893 148.465 35.9445 147.598 36.2562L150.84 42.3208H147.993L144.916 36.5434H144.677V42.3208H142.072V28.6792ZM144.677 34.0136H145.496C146.323 34.0136 146.893 33.9037 147.206 33.6867C147.518 33.4729 147.674 33.1124 147.674 32.6082C147.674 32.3088 147.598 32.0491 147.442 31.8322C147.288 31.6122 147.08 31.4534 146.819 31.3587C146.559 31.2609 146.084 31.2151 145.391 31.2151H144.677V34.0167V34.0136Z" fill="white"/>
<path d="M152.958 28.6792H160.429V31.2212H155.547V33.6837H160.429V36.1828H155.547V39.7727H160.429V42.3208H152.958V28.6792Z" fill="white"/>
<path d="M162.865 28.6792H165.363L171.219 37.6555V28.6792H173.824V42.3208H171.317L165.47 33.372V42.3208H162.865V28.6792Z" fill="white"/>
<path d="M176.959 28.6792H184.431V31.2212H179.549V33.6837H184.431V36.1828H179.549V39.7727H184.431V42.3208H176.959V28.6792Z" fill="white"/>
<path d="M186.766 28.6792H189.38V37.5027C189.38 38.2604 189.447 38.8012 189.579 39.1128C189.711 39.4305 189.931 39.6811 190.238 39.8674C190.544 40.0568 190.915 40.1485 191.35 40.1485C191.81 40.1485 192.205 40.0446 192.536 39.8338C192.867 39.6261 193.097 39.3572 193.223 39.0334C193.351 38.7095 193.413 38.0923 193.413 37.1758V28.6792H196.027V36.8122C196.027 38.184 195.947 39.1372 195.794 39.6688C195.641 40.2004 195.343 40.7137 194.905 41.2087C194.467 41.7067 193.964 42.0702 193.391 42.3085C192.821 42.5438 192.156 42.666 191.402 42.666C190.41 42.666 189.545 42.4369 188.81 41.9816C188.074 41.5264 187.55 40.9581 187.232 40.2768C186.916 39.5925 186.76 38.4376 186.76 36.8122V28.6792H186.766Z" fill="white"/>
<path d="M199.232 28.6792H201.99C203.504 28.6792 204.58 28.8106 205.22 29.0795C205.861 29.3483 206.379 29.7975 206.768 30.4207C207.16 31.047 207.353 31.7864 207.353 32.6357C207.353 33.534 207.139 34.2856 206.707 34.8874C206.275 35.4893 205.625 35.9445 204.758 36.2562L208 42.3208H205.153L202.076 36.5434H201.837V42.3208H199.232V28.6792ZM201.837 34.0136H202.655C203.483 34.0136 204.053 33.9037 204.365 33.6867C204.678 33.4729 204.834 33.1124 204.834 32.6082C204.834 32.3088 204.755 32.0491 204.598 31.8322C204.445 31.6122 204.24 31.4534 203.979 31.3587C203.719 31.2609 203.244 31.2151 202.551 31.2151H201.837V34.0167V34.0136Z" fill="white"/>
<path d="M78.2992 51.4742H85.0902V54.0069H80.8857V56.4816H85.0902V58.9747H80.8857V65.1157H78.2992V51.4711V51.4742Z" fill="white"/>
<path d="M87.312 51.4742H89.9261V60.2946C89.9261 61.0584 89.9935 61.5961 90.1253 61.9108C90.2601 62.2224 90.4777 62.479 90.7872 62.6654C91.0937 62.8518 91.4645 62.9465 91.8997 62.9465C92.3593 62.9465 92.7547 62.8395 93.0856 62.6318C93.4166 62.421 93.6464 62.1552 93.7752 61.8313C93.9008 61.5044 93.9652 60.8873 93.9652 59.9707V51.4742H96.5792V59.6102C96.5792 60.982 96.5026 61.9352 96.3463 62.4668C96.1931 62.9984 95.8958 63.5147 95.4576 64.0066C95.0194 64.5016 94.5168 64.8682 93.9437 65.1065C93.3737 65.3418 92.7087 65.4609 91.9517 65.4609C90.9619 65.4609 90.0977 65.2348 89.3622 64.7796C88.6267 64.3244 88.1027 63.7561 87.784 63.0748C87.4683 62.3904 87.309 61.2356 87.309 59.6102V51.4742H87.312Z" fill="white"/>
<path d="M99.6131 51.4742H102.114L107.97 60.4534V51.4742H110.575V65.1187H108.068L102.221 56.17V65.1187H99.6131V51.4742Z" fill="white"/>
<path d="M113.707 51.4742H116.796C118.785 51.4742 120.262 51.7186 121.227 52.2135C122.196 52.7024 122.989 53.5028 123.618 54.6088C124.243 55.7178 124.559 57.0102 124.559 58.4859C124.559 59.5399 124.384 60.5054 124.034 61.3853C123.682 62.2682 123.201 62.9954 122.585 63.5789C121.969 64.1594 121.301 64.5627 120.581 64.7826C119.861 65.0057 118.616 65.1187 116.845 65.1187H113.71V51.4742H113.707ZM116.293 53.9794V62.586H117.504C118.696 62.586 119.56 62.4485 120.097 62.1796C120.633 61.9046 121.071 61.4494 121.411 60.8017C121.754 60.1571 121.923 59.3658 121.923 58.4248C121.923 56.9766 121.515 55.8523 120.703 55.0518C119.971 54.3338 118.797 53.9764 117.179 53.9764H116.293V53.9794Z" fill="white"/>
<path d="M69.8288 0H68.6612V71H69.8288V0Z" fill="white"/>
<path d="M12.3808 21.5728V26.1984C12.3808 26.9867 12.4237 27.5672 12.5095 27.9429C12.5953 28.3157 12.7577 28.6334 12.9998 28.887C13.2113 29.11 13.4564 29.275 13.7384 29.3789C14.0203 29.4828 14.385 29.5439 14.8263 29.5683V29.8341H7.39476V29.5683C7.76863 29.5683 8.12106 29.5103 8.45203 29.3881C8.78606 29.2689 9.04655 29.107 9.23042 28.9053C9.448 28.664 9.60123 28.3371 9.69623 27.9185C9.78817 27.503 9.83414 26.9256 9.83414 26.1923V17.6469C9.83414 17.1519 9.80656 16.6387 9.75139 16.104C9.67478 15.4258 9.34074 14.9186 8.75235 14.5856C8.42445 14.4084 7.97396 14.3045 7.39169 14.2739V14.0081H19.5457L19.8828 17.7752L19.6162 17.8333C19.4231 17.2467 19.2454 16.8036 19.0829 16.5103C18.7183 15.8351 18.2065 15.3158 17.5476 14.9461C17.1676 14.7292 16.7294 14.5795 16.2329 14.4939C15.7365 14.4114 15.0561 14.3686 14.1858 14.3686H12.3838V21.2062H12.8497C14.2226 21.2062 15.2185 20.9037 15.8376 20.2927C16.1073 20.0299 16.3157 19.7183 16.4536 19.3578C16.5945 18.9973 16.6865 18.5268 16.7324 17.9494L16.999 17.9616L16.9316 24.9855H16.6497C16.5669 24.1973 16.4198 23.5893 16.2145 23.1585C16.0092 22.7308 15.6966 22.3855 15.2798 22.1197C14.9673 21.9272 14.5872 21.7867 14.1337 21.6981C13.6801 21.6095 13.0979 21.5637 12.3838 21.5637L12.3808 21.5728Z" fill="white"/>
<path d="M44.7669 14.0142L44.9661 17.8394L44.6995 17.8516C44.5984 17.2039 44.4329 16.6662 44.2 16.2415C43.9671 15.8138 43.63 15.441 43.1856 15.1172C42.824 14.8483 42.3919 14.6558 41.8954 14.5428C41.399 14.4328 40.7401 14.3778 39.9188 14.3778H37.2557V21.3315H37.9544C38.6593 21.3315 39.1894 21.2826 39.548 21.194C39.9065 21.0993 40.1946 20.9343 40.4183 20.696C40.639 20.4699 40.7983 20.2041 40.9025 19.9016C41.0067 19.5992 41.0956 19.147 41.163 18.5512L41.4296 18.5634L41.3836 24.7777H41.117C41.0465 24.185 40.9454 23.7054 40.8106 23.3387C40.6757 22.9782 40.4857 22.6697 40.2467 22.413C40.0138 22.1655 39.7104 21.9822 39.3396 21.8661C38.9688 21.75 38.4968 21.692 37.9207 21.692H37.2588V24.347C37.2588 25.4071 37.2864 26.177 37.3415 26.6628C37.3936 27.1455 37.5009 27.5488 37.6541 27.8727C37.9176 28.4287 38.3191 28.8351 38.8585 29.0948C39.3978 29.3544 40.1088 29.4828 40.9914 29.4828C41.923 29.4828 42.6983 29.3636 43.3296 29.1284C43.9579 28.8931 44.4696 28.5295 44.865 28.0346C45.1438 27.7016 45.3706 27.3258 45.5453 26.8981C45.72 26.4734 45.8824 25.9143 46.0295 25.2177L46.2961 25.2299L46.146 29.8463H32.2728V29.5805C32.714 29.5561 33.0726 29.495 33.3484 29.3942C33.6242 29.2964 33.8694 29.1314 34.087 28.9053C34.3291 28.6609 34.4915 28.3462 34.5804 27.9613C34.6692 27.5794 34.7152 26.9928 34.7152 26.2045V17.6591C34.7152 16.8709 34.6692 16.2843 34.5804 15.9024C34.4915 15.5205 34.326 15.2058 34.087 14.9583C33.8755 14.7322 33.6334 14.5703 33.3607 14.4695C33.0849 14.3717 32.7232 14.3075 32.2758 14.2862V14.0204H44.7761L44.7669 14.0142Z" fill="white"/>
<path d="M25.7544 50.0657V54.6913C25.7544 55.4826 25.7973 56.0631 25.8832 56.4358C25.9659 56.8116 26.1283 57.1263 26.3704 57.3799C26.5819 57.606 26.827 57.7679 27.109 57.8748C27.3909 57.9787 27.7556 58.0398 28.1938 58.0642V58.33H20.7654V58.0642C21.1362 58.0642 21.4917 58.0062 21.8226 57.884C22.1567 57.7618 22.4172 57.6029 22.601 57.4013C22.8186 57.163 22.9749 56.833 23.0668 56.4175C23.1588 56.002 23.2047 55.4245 23.2047 54.6882V46.1459C23.2047 45.6479 23.1772 45.1346 23.122 44.603C23.0454 43.9217 22.7114 43.4145 22.123 43.0846C21.7951 42.9074 21.3446 42.8035 20.7623 42.7729V42.5041H32.9163L33.2534 46.2742L32.9868 46.3322C32.7937 45.7456 32.616 45.3026 32.4505 45.0124C32.0858 44.3402 31.571 43.8178 30.9151 43.4481C30.5351 43.2312 30.0969 43.0815 29.6005 42.996C29.104 42.9135 28.4206 42.8676 27.5564 42.8676H25.7544V49.7113H26.2172C27.5901 49.7113 28.5861 49.4058 29.2051 48.7947C29.4748 48.535 29.6832 48.2204 29.8211 47.8629C29.9621 47.5024 30.0571 47.0349 30.103 46.4545L30.3697 46.4667L30.3022 53.4936H30.0234C29.9376 52.7024 29.7935 52.0974 29.5851 51.6666C29.3798 51.2359 29.0672 50.8906 28.6504 50.6279C28.3379 50.4354 27.9579 50.2948 27.5043 50.2062C27.0507 50.1176 26.4685 50.0718 25.7544 50.0718V50.0657Z" fill="white"/>
<path d="M50.231 34.918H3.12891V36.082H50.231V34.918Z" fill="white"/>
<path d="M53.3599 63.8172H0V7.1828H53.3599V63.8172ZM1.16759 62.6532H52.1892V8.34683H1.16759V62.6532Z" fill="white"/>
</g>
<defs>
<clipPath id="clip0_247_354">
<rect width="208" height="71" fill="white"/>
</clipPath>
</defs>
</svg>
