<svg width="428" height="329" viewBox="0 0 428 329" fill="none" xmlns="http://www.w3.org/2000/svg">
<g filter="url(#filter0_d_36_1619)">
<rect x="14" y="10" width="400" height="301" rx="26" fill="#0E0E0E"/>
<rect x="14.5" y="10.5" width="399" height="300" rx="25.5" stroke="url(#paint0_linear_36_1619)" stroke-opacity="0.56"/>
</g>
<path d="M76.9275 161V146.455H86.5582V148.99H80.0028V152.456H85.919V154.991H80.0028V161H76.9275ZM90.2267 161V146.455H100.028V148.99H93.302V152.456H99.5236V154.991H93.302V158.464H100.056V161H90.2267ZM106.58 161H103.284L108.306 146.455H112.269L117.283 161H113.988L110.344 149.778H110.23L106.58 161ZM106.374 155.283H114.158V157.683H106.374V155.283ZM118.302 148.99V146.455H130.248V148.99H125.795V161H122.756V148.99H118.302ZM142.8 146.455H145.875V155.901C145.875 156.961 145.622 157.889 145.115 158.685C144.614 159.48 143.91 160.1 143.006 160.545C142.102 160.986 141.048 161.206 139.846 161.206C138.638 161.206 137.582 160.986 136.678 160.545C135.774 160.1 135.071 159.48 134.569 158.685C134.067 157.889 133.816 156.961 133.816 155.901V146.455H136.891V155.638C136.891 156.192 137.012 156.684 137.253 157.115C137.499 157.546 137.845 157.884 138.29 158.131C138.735 158.377 139.254 158.5 139.846 158.5C140.442 158.5 140.961 158.377 141.401 158.131C141.846 157.884 142.189 157.546 142.431 157.115C142.677 156.684 142.8 156.192 142.8 155.638V146.455ZM150.006 161V146.455H155.744C156.843 146.455 157.78 146.651 158.557 147.044C159.338 147.432 159.932 147.984 160.339 148.699C160.751 149.409 160.957 150.245 160.957 151.206C160.957 152.172 160.749 153.003 160.332 153.699C159.916 154.39 159.312 154.92 158.521 155.29C157.735 155.659 156.784 155.844 155.666 155.844H151.824V153.372H155.169C155.756 153.372 156.244 153.292 156.632 153.131C157.02 152.97 157.309 152.728 157.499 152.406C157.693 152.084 157.79 151.684 157.79 151.206C157.79 150.723 157.693 150.316 157.499 149.984C157.309 149.653 157.018 149.402 156.625 149.232C156.237 149.056 155.747 148.969 155.155 148.969H153.081V161H150.006ZM157.861 154.381L161.476 161H158.081L154.544 154.381H157.861ZM164.731 161V146.455H174.532V148.99H167.806V152.456H174.027V154.991H167.806V158.464H174.56V161H164.731ZM183.733 161H178.577V146.455H183.776C185.239 146.455 186.498 146.746 187.554 147.328C188.61 147.906 189.422 148.737 189.99 149.821C190.563 150.905 190.849 152.203 190.849 153.713C190.849 155.228 190.563 156.53 189.99 157.619C189.422 158.708 188.605 159.544 187.54 160.126C186.479 160.709 185.21 161 183.733 161ZM181.652 158.365H183.605C184.514 158.365 185.279 158.204 185.899 157.882C186.524 157.555 186.993 157.051 187.305 156.369C187.623 155.683 187.781 154.797 187.781 153.713C187.781 152.638 187.623 151.76 187.305 151.078C186.993 150.396 186.527 149.894 185.906 149.572C185.286 149.25 184.521 149.089 183.612 149.089H181.652V158.365ZM214.323 153.727C214.323 155.313 214.022 156.663 213.421 157.776C212.824 158.888 212.01 159.738 210.978 160.325C209.95 160.908 208.795 161.199 207.512 161.199C206.219 161.199 205.059 160.905 204.032 160.318C203.004 159.731 202.192 158.881 201.596 157.768C200.999 156.656 200.701 155.309 200.701 153.727C200.701 152.141 200.999 150.792 201.596 149.679C202.192 148.566 203.004 147.719 204.032 147.136C205.059 146.549 206.219 146.256 207.512 146.256C208.795 146.256 209.95 146.549 210.978 147.136C212.01 147.719 212.824 148.566 213.421 149.679C214.022 150.792 214.323 152.141 214.323 153.727ZM211.205 153.727C211.205 152.7 211.051 151.833 210.743 151.128C210.44 150.422 210.012 149.887 209.458 149.523C208.904 149.158 208.255 148.976 207.512 148.976C206.768 148.976 206.12 149.158 205.566 149.523C205.012 149.887 204.581 150.422 204.273 151.128C203.97 151.833 203.819 152.7 203.819 153.727C203.819 154.755 203.97 155.621 204.273 156.327C204.581 157.032 205.012 157.567 205.566 157.932C206.12 158.296 206.768 158.479 207.512 158.479C208.255 158.479 208.904 158.296 209.458 157.932C210.012 157.567 210.44 157.032 210.743 156.327C211.051 155.621 211.205 154.755 211.205 153.727ZM230.367 146.455V161H227.711L221.383 151.845H221.276V161H218.201V146.455H220.9L227.178 155.602H227.306V146.455H230.367ZM248.627 150.638C248.571 150.065 248.327 149.62 247.896 149.303C247.465 148.985 246.88 148.827 246.142 148.827C245.64 148.827 245.216 148.898 244.87 149.04C244.525 149.177 244.26 149.369 244.075 149.615C243.895 149.861 243.805 150.141 243.805 150.453C243.796 150.714 243.85 150.941 243.968 151.135C244.092 151.329 244.26 151.497 244.473 151.639C244.686 151.777 244.932 151.897 245.211 152.001C245.491 152.101 245.789 152.186 246.106 152.257L247.413 152.57C248.047 152.712 248.63 152.901 249.16 153.138C249.69 153.375 250.15 153.666 250.538 154.011C250.926 154.357 251.227 154.764 251.44 155.233C251.658 155.702 251.769 156.239 251.774 156.845C251.769 157.735 251.542 158.507 251.092 159.161C250.647 159.809 250.003 160.313 249.16 160.673C248.322 161.028 247.311 161.206 246.127 161.206C244.953 161.206 243.931 161.026 243.059 160.666C242.193 160.306 241.516 159.774 241.028 159.068C240.545 158.358 240.292 157.48 240.268 156.433H243.244C243.277 156.921 243.417 157.328 243.663 157.655C243.914 157.977 244.248 158.221 244.664 158.386C245.086 158.547 245.562 158.628 246.092 158.628C246.613 158.628 247.065 158.552 247.449 158.401C247.837 158.249 248.137 158.038 248.35 157.768C248.564 157.499 248.67 157.188 248.67 156.838C248.67 156.511 248.573 156.237 248.379 156.014C248.19 155.792 247.91 155.602 247.541 155.446C247.176 155.29 246.729 155.148 246.199 155.02L244.615 154.622C243.388 154.324 242.42 153.857 241.71 153.223C241 152.589 240.647 151.734 240.652 150.659C240.647 149.778 240.881 149.009 241.355 148.351C241.833 147.693 242.489 147.179 243.322 146.81C244.155 146.44 245.102 146.256 246.163 146.256C247.243 146.256 248.185 146.44 248.99 146.81C249.799 147.179 250.429 147.693 250.879 148.351C251.329 149.009 251.561 149.771 251.575 150.638H248.627ZM255.442 161V146.455H265.243V148.99H258.518V152.456H264.739V154.991H258.518V158.464H265.272V161H255.442ZM271.796 161H268.5L273.521 146.455H277.484L282.499 161H279.203L275.56 149.778H275.446L271.796 161ZM271.59 155.283H279.374V157.683H271.59V155.283ZM293.408 150.638C293.351 150.065 293.107 149.62 292.676 149.303C292.246 148.985 291.661 148.827 290.922 148.827C290.42 148.827 289.996 148.898 289.651 149.04C289.305 149.177 289.04 149.369 288.855 149.615C288.675 149.861 288.586 150.141 288.586 150.453C288.576 150.714 288.63 150.941 288.749 151.135C288.872 151.329 289.04 151.497 289.253 151.639C289.466 151.777 289.712 151.897 289.992 152.001C290.271 152.101 290.569 152.186 290.887 152.257L292.193 152.57C292.828 152.712 293.41 152.901 293.941 153.138C294.471 153.375 294.93 153.666 295.318 154.011C295.707 154.357 296.007 154.764 296.22 155.233C296.438 155.702 296.55 156.239 296.554 156.845C296.55 157.735 296.322 158.507 295.872 159.161C295.427 159.809 294.783 160.313 293.941 160.673C293.103 161.028 292.092 161.206 290.908 161.206C289.734 161.206 288.711 161.026 287.84 160.666C286.973 160.306 286.296 159.774 285.809 159.068C285.326 158.358 285.072 157.48 285.049 156.433H288.024C288.058 156.921 288.197 157.328 288.443 157.655C288.694 157.977 289.028 158.221 289.445 158.386C289.866 158.547 290.342 158.628 290.872 158.628C291.393 158.628 291.845 158.552 292.229 158.401C292.617 158.249 292.918 158.038 293.131 157.768C293.344 157.499 293.451 157.188 293.451 156.838C293.451 156.511 293.354 156.237 293.159 156.014C292.97 155.792 292.691 155.602 292.321 155.446C291.957 155.29 291.509 155.148 290.979 155.02L289.395 154.622C288.169 154.324 287.201 153.857 286.49 153.223C285.78 152.589 285.427 151.734 285.432 150.659C285.427 149.778 285.662 149.009 286.135 148.351C286.613 147.693 287.269 147.179 288.103 146.81C288.936 146.44 289.883 146.256 290.943 146.256C292.023 146.256 292.965 146.44 293.77 146.81C294.58 147.179 295.21 147.693 295.659 148.351C296.109 149.009 296.341 149.771 296.355 150.638H293.408ZM313.589 153.727C313.589 155.313 313.289 156.663 312.687 157.776C312.091 158.888 311.276 159.738 310.244 160.325C309.217 160.908 308.061 161.199 306.778 161.199C305.486 161.199 304.326 160.905 303.298 160.318C302.271 159.731 301.459 158.881 300.862 157.768C300.265 156.656 299.967 155.309 299.967 153.727C299.967 152.141 300.265 150.792 300.862 149.679C301.459 148.566 302.271 147.719 303.298 147.136C304.326 146.549 305.486 146.256 306.778 146.256C308.061 146.256 309.217 146.549 310.244 147.136C311.276 147.719 312.091 148.566 312.687 149.679C313.289 150.792 313.589 152.141 313.589 153.727ZM310.471 153.727C310.471 152.7 310.318 151.833 310.01 151.128C309.707 150.422 309.278 149.887 308.724 149.523C308.17 149.158 307.522 148.976 306.778 148.976C306.035 148.976 305.386 149.158 304.832 149.523C304.278 149.887 303.847 150.422 303.54 151.128C303.237 151.833 303.085 152.7 303.085 153.727C303.085 154.755 303.237 155.621 303.54 156.327C303.847 157.032 304.278 157.567 304.832 157.932C305.386 158.296 306.035 158.479 306.778 158.479C307.522 158.479 308.17 158.296 308.724 157.932C309.278 157.567 309.707 157.032 310.01 156.327C310.318 155.621 310.471 154.755 310.471 153.727ZM329.634 146.455V161H326.977L320.649 151.845H320.543V161H317.467V146.455H320.166L326.445 155.602H326.572V146.455H329.634ZM339.918 161V158.784L345.096 153.99C345.536 153.564 345.905 153.18 346.204 152.839C346.507 152.499 346.736 152.165 346.892 151.838C347.049 151.507 347.127 151.149 347.127 150.766C347.127 150.339 347.03 149.973 346.836 149.665C346.642 149.352 346.376 149.113 346.04 148.947C345.704 148.777 345.323 148.692 344.897 148.692C344.452 148.692 344.063 148.782 343.732 148.962C343.401 149.142 343.145 149.4 342.965 149.736C342.785 150.072 342.695 150.472 342.695 150.936H339.776C339.776 149.984 339.991 149.158 340.422 148.457C340.853 147.757 341.457 147.214 342.233 146.831C343.01 146.447 343.905 146.256 344.918 146.256C345.96 146.256 346.866 146.44 347.638 146.81C348.415 147.174 349.018 147.681 349.449 148.33C349.88 148.978 350.096 149.722 350.096 150.56C350.096 151.109 349.987 151.651 349.769 152.186C349.556 152.721 349.175 153.315 348.625 153.969C348.076 154.617 347.302 155.396 346.303 156.305L344.179 158.386V158.486H350.287V161H339.918Z" fill="white"/>
<path d="M68.7127 194.455H70.2468L74.5579 201.358H74.6857L78.9968 194.455H80.5309L75.2823 202.7V209H73.9613V202.7L68.7127 194.455ZM86.0599 209.227C85.1176 209.227 84.2843 208.988 83.5599 208.51C82.8402 208.032 82.2767 207.371 81.8695 206.528C81.4623 205.681 81.2587 204.703 81.2587 203.595C81.2587 202.478 81.4623 201.495 81.8695 200.648C82.2767 199.795 82.8402 199.133 83.5599 198.659C84.2843 198.181 85.1176 197.942 86.0599 197.942C87.0021 197.942 87.8331 198.181 88.5528 198.659C89.2725 199.137 89.8359 199.8 90.2431 200.648C90.655 201.495 90.861 202.478 90.861 203.595C90.861 204.703 90.6574 205.681 90.2502 206.528C89.843 207.371 89.2772 208.032 88.5528 208.51C87.8331 208.988 87.0021 209.227 86.0599 209.227ZM86.0599 208.07C86.8174 208.07 87.459 207.866 87.9846 207.459C88.5102 207.052 88.9079 206.509 89.1778 205.832C89.4524 205.155 89.5897 204.41 89.5897 203.595C89.5897 202.781 89.4524 202.033 89.1778 201.351C88.9079 200.669 88.5102 200.122 87.9846 199.71C87.459 199.298 86.8174 199.092 86.0599 199.092C85.307 199.092 84.6655 199.298 84.1352 199.71C83.6096 200.122 83.2095 200.669 82.9349 201.351C82.665 202.033 82.53 202.781 82.53 203.595C82.53 204.41 82.665 205.155 82.9349 205.832C83.2095 206.509 83.6096 207.052 84.1352 207.459C84.6607 207.866 85.3023 208.07 86.0599 208.07ZM101.168 204.831V198.091H102.432V209H101.168V207.189H101.069C100.813 207.748 100.408 208.214 99.8541 208.588C99.3001 208.957 98.6231 209.142 97.8229 209.142C97.1268 209.142 96.5089 208.991 95.9692 208.688C95.4294 208.38 95.0056 207.93 94.6979 207.338C94.3901 206.746 94.2362 206.019 94.2362 205.158V198.091H95.5004V205.08C95.5004 205.932 95.7514 206.618 96.2533 207.139C96.7552 207.655 97.3991 207.913 98.1851 207.913C98.6775 207.913 99.151 207.795 99.6055 207.558C100.06 207.321 100.434 206.976 100.728 206.521C101.021 206.062 101.168 205.499 101.168 204.831ZM106.379 209V198.091H107.608V199.767H107.7C107.918 199.218 108.297 198.775 108.837 198.439C109.381 198.098 109.997 197.928 110.683 197.928C110.787 197.928 110.903 197.93 111.031 197.935C111.159 197.939 111.266 197.944 111.351 197.949V199.234C111.294 199.225 111.195 199.211 111.052 199.192C110.91 199.173 110.757 199.163 110.591 199.163C110.023 199.163 109.516 199.284 109.071 199.526C108.631 199.762 108.283 200.091 108.027 200.513C107.771 200.934 107.643 201.415 107.643 201.955V209H106.379ZM127.663 200.484L126.505 200.811C126.391 200.484 126.23 200.188 126.022 199.923C125.814 199.658 125.541 199.447 125.205 199.291C124.874 199.135 124.462 199.057 123.969 199.057C123.231 199.057 122.625 199.232 122.151 199.582C121.678 199.933 121.441 200.385 121.441 200.939C121.441 201.408 121.602 201.789 121.924 202.082C122.251 202.371 122.753 202.601 123.43 202.771L125.077 203.176C125.991 203.399 126.675 203.751 127.13 204.234C127.589 204.717 127.819 205.323 127.819 206.053C127.819 206.668 127.648 207.215 127.308 207.693C126.967 208.171 126.491 208.548 125.88 208.822C125.274 209.092 124.571 209.227 123.771 209.227C122.705 209.227 121.827 208.988 121.136 208.51C120.444 208.027 120.002 207.331 119.808 206.422L121.022 206.124C121.178 206.772 121.484 207.262 121.938 207.594C122.397 207.925 123.001 208.091 123.749 208.091C124.587 208.091 125.257 207.904 125.759 207.53C126.261 207.151 126.512 206.678 126.512 206.109C126.512 205.669 126.365 205.3 126.072 205.001C125.778 204.698 125.333 204.476 124.737 204.334L122.954 203.908C122.007 203.68 121.306 203.321 120.852 202.828C120.397 202.336 120.17 201.725 120.17 200.996C120.17 200.394 120.333 199.866 120.66 199.412C120.987 198.953 121.436 198.593 122.009 198.332C122.582 198.072 123.236 197.942 123.969 197.942C124.969 197.942 125.766 198.169 126.363 198.624C126.964 199.073 127.397 199.694 127.663 200.484ZM135.484 198.091V199.192H130.278V198.091H135.484ZM131.904 195.477H133.176V206.152C133.176 206.607 133.254 206.964 133.41 207.224C133.566 207.48 133.77 207.662 134.021 207.771C134.272 207.875 134.539 207.928 134.823 207.928C134.989 207.928 135.131 207.918 135.25 207.899C135.368 207.875 135.472 207.852 135.562 207.828L135.832 208.972C135.709 209.019 135.557 209.062 135.377 209.099C135.197 209.142 134.975 209.163 134.71 209.163C134.246 209.163 133.798 209.062 133.367 208.858C132.941 208.654 132.591 208.351 132.316 207.949C132.042 207.546 131.904 207.047 131.904 206.45V195.477ZM142.002 209.249C141.344 209.249 140.742 209.121 140.198 208.865C139.653 208.605 139.22 208.231 138.898 207.743C138.576 207.25 138.415 206.654 138.415 205.953C138.415 205.413 138.517 204.959 138.721 204.589C138.924 204.22 139.213 203.917 139.587 203.68C139.961 203.444 140.404 203.257 140.915 203.119C141.427 202.982 141.99 202.875 142.606 202.8C143.216 202.724 143.732 202.658 144.154 202.601C144.58 202.544 144.904 202.454 145.127 202.331C145.349 202.208 145.461 202.009 145.461 201.734V201.479C145.461 200.735 145.238 200.151 144.793 199.724C144.353 199.294 143.718 199.078 142.89 199.078C142.104 199.078 141.462 199.251 140.965 199.597C140.472 199.942 140.127 200.349 139.928 200.818L138.728 200.385C138.974 199.788 139.315 199.312 139.75 198.957C140.186 198.598 140.674 198.339 141.213 198.183C141.753 198.022 142.3 197.942 142.854 197.942C143.271 197.942 143.704 197.996 144.154 198.105C144.608 198.214 145.03 198.403 145.418 198.673C145.806 198.938 146.121 199.31 146.363 199.788C146.604 200.262 146.725 200.863 146.725 201.592V209H145.461V207.274H145.383C145.231 207.596 145.006 207.909 144.708 208.212C144.41 208.515 144.035 208.763 143.586 208.957C143.136 209.152 142.608 209.249 142.002 209.249ZM142.172 208.091C142.845 208.091 143.427 207.942 143.919 207.643C144.412 207.345 144.791 206.95 145.056 206.457C145.326 205.96 145.461 205.413 145.461 204.817V203.24C145.366 203.33 145.207 203.411 144.985 203.482C144.767 203.553 144.514 203.616 144.225 203.673C143.941 203.725 143.657 203.77 143.373 203.808C143.088 203.846 142.833 203.879 142.606 203.908C141.99 203.983 141.464 204.102 141.029 204.263C140.593 204.424 140.259 204.646 140.027 204.93C139.795 205.21 139.679 205.57 139.679 206.01C139.679 206.673 139.916 207.187 140.39 207.551C140.863 207.911 141.457 208.091 142.172 208.091ZM150.688 209V198.091H151.916V199.767H152.009C152.227 199.218 152.605 198.775 153.145 198.439C153.69 198.098 154.305 197.928 154.992 197.928C155.096 197.928 155.212 197.93 155.34 197.935C155.468 197.939 155.574 197.944 155.659 197.949V199.234C155.603 199.225 155.503 199.211 155.361 199.192C155.219 199.173 155.065 199.163 154.899 199.163C154.331 199.163 153.825 199.284 153.38 199.526C152.939 199.762 152.591 200.091 152.336 200.513C152.08 200.934 151.952 201.415 151.952 201.955V209H150.688ZM163.397 198.091V199.192H158.191V198.091H163.397ZM159.818 195.477H161.089V206.152C161.089 206.607 161.167 206.964 161.323 207.224C161.48 207.48 161.683 207.662 161.934 207.771C162.185 207.875 162.453 207.928 162.737 207.928C162.902 207.928 163.044 207.918 163.163 207.899C163.281 207.875 163.385 207.852 163.475 207.828L163.745 208.972C163.622 209.019 163.471 209.062 163.291 209.099C163.111 209.142 162.888 209.163 162.623 209.163C162.159 209.163 161.712 209.062 161.281 208.858C160.855 208.654 160.504 208.351 160.23 207.949C159.955 207.546 159.818 207.047 159.818 206.45V195.477ZM173.8 204.831V198.091H175.064V209H173.8V207.189H173.701C173.445 207.748 173.04 208.214 172.486 208.588C171.932 208.957 171.255 209.142 170.455 209.142C169.759 209.142 169.141 208.991 168.601 208.688C168.061 208.38 167.638 207.93 167.33 207.338C167.022 206.746 166.868 206.019 166.868 205.158V198.091H168.132V205.08C168.132 205.932 168.383 206.618 168.885 207.139C169.387 207.655 170.031 207.913 170.817 207.913C171.31 207.913 171.783 207.795 172.238 207.558C172.692 207.321 173.066 206.976 173.36 206.521C173.653 206.062 173.8 205.499 173.8 204.831ZM179.011 213.091V198.091H180.24V200.172H180.389C180.541 199.845 180.749 199.511 181.014 199.17C181.279 198.825 181.63 198.534 182.065 198.297C182.506 198.06 183.06 197.942 183.727 197.942C184.627 197.942 185.413 198.179 186.085 198.652C186.762 199.121 187.288 199.779 187.662 200.626C188.041 201.469 188.23 202.452 188.23 203.574C188.23 204.701 188.041 205.688 187.662 206.536C187.288 207.383 186.762 208.044 186.085 208.517C185.413 208.991 184.631 209.227 183.741 209.227C183.083 209.227 182.532 209.109 182.087 208.872C181.646 208.635 181.289 208.344 181.014 207.999C180.744 207.648 180.536 207.307 180.389 206.976H180.275V213.091H179.011ZM180.261 203.553C180.261 204.433 180.391 205.214 180.652 205.896C180.917 206.573 181.296 207.106 181.788 207.494C182.285 207.878 182.887 208.07 183.592 208.07C184.317 208.07 184.927 207.871 185.425 207.473C185.926 207.071 186.308 206.528 186.568 205.847C186.833 205.165 186.966 204.4 186.966 203.553C186.966 202.714 186.836 201.959 186.575 201.287C186.319 200.615 185.941 200.082 185.439 199.689C184.937 199.291 184.321 199.092 183.592 199.092C182.882 199.092 182.278 199.284 181.781 199.668C181.284 200.046 180.905 200.572 180.645 201.244C180.389 201.912 180.261 202.681 180.261 203.553ZM202.068 209.227C201.126 209.227 200.293 208.988 199.568 208.51C198.849 208.032 198.285 207.371 197.878 206.528C197.471 205.681 197.267 204.703 197.267 203.595C197.267 202.478 197.471 201.495 197.878 200.648C198.285 199.795 198.849 199.133 199.568 198.659C200.293 198.181 201.126 197.942 202.068 197.942C203.011 197.942 203.842 198.181 204.561 198.659C205.281 199.137 205.845 199.8 206.252 200.648C206.664 201.495 206.87 202.478 206.87 203.595C206.87 204.703 206.666 205.681 206.259 206.528C205.852 207.371 205.286 208.032 204.561 208.51C203.842 208.988 203.011 209.227 202.068 209.227ZM202.068 208.07C202.826 208.07 203.468 207.866 203.993 207.459C204.519 207.052 204.916 206.509 205.186 205.832C205.461 205.155 205.598 204.41 205.598 203.595C205.598 202.781 205.461 202.033 205.186 201.351C204.916 200.669 204.519 200.122 203.993 199.71C203.468 199.298 202.826 199.092 202.068 199.092C201.316 199.092 200.674 199.298 200.144 199.71C199.618 200.122 199.218 200.669 198.943 201.351C198.674 202.033 198.539 202.781 198.539 203.595C198.539 204.41 198.674 205.155 198.943 205.832C199.218 206.509 199.618 207.052 200.144 207.459C200.669 207.866 201.311 208.07 202.068 208.07ZM211.509 202.182V209H210.245V198.091H211.474V199.803H211.587C211.843 199.244 212.241 198.796 212.78 198.46C213.325 198.119 213.997 197.949 214.797 197.949C215.531 197.949 216.175 198.103 216.729 198.411C217.288 198.714 217.721 199.161 218.029 199.753C218.341 200.345 218.498 201.071 218.498 201.933V209H217.233V202.011C217.233 201.116 216.982 200.409 216.481 199.888C215.983 199.367 215.316 199.107 214.478 199.107C213.905 199.107 213.396 199.23 212.951 199.476C212.506 199.722 212.153 200.077 211.893 200.541C211.637 201 211.509 201.547 211.509 202.182ZM232.892 209.227C231.95 209.227 231.116 208.988 230.392 208.51C229.672 208.032 229.109 207.371 228.702 206.528C228.294 205.681 228.091 204.703 228.091 203.595C228.091 202.478 228.294 201.495 228.702 200.648C229.109 199.795 229.672 199.133 230.392 198.659C231.116 198.181 231.95 197.942 232.892 197.942C233.834 197.942 234.665 198.181 235.385 198.659C236.105 199.137 236.668 199.8 237.075 200.648C237.487 201.495 237.693 202.478 237.693 203.595C237.693 204.703 237.489 205.681 237.082 206.528C236.675 207.371 236.109 208.032 235.385 208.51C234.665 208.988 233.834 209.227 232.892 209.227ZM232.892 208.07C233.649 208.07 234.291 207.866 234.817 207.459C235.342 207.052 235.74 206.509 236.01 205.832C236.284 205.155 236.422 204.41 236.422 203.595C236.422 202.781 236.284 202.033 236.01 201.351C235.74 200.669 235.342 200.122 234.817 199.71C234.291 199.298 233.649 199.092 232.892 199.092C232.139 199.092 231.497 199.298 230.967 199.71C230.442 200.122 230.042 200.669 229.767 201.351C229.497 202.033 229.362 202.781 229.362 203.595C229.362 204.41 229.497 205.155 229.767 205.832C230.042 206.509 230.442 207.052 230.967 207.459C231.493 207.866 232.134 208.07 232.892 208.07ZM242.332 202.182V209H241.068V198.091H242.297V199.803H242.411C242.666 199.244 243.064 198.796 243.604 198.46C244.148 198.119 244.821 197.949 245.621 197.949C246.355 197.949 246.999 198.103 247.553 198.411C248.111 198.714 248.545 199.161 248.852 199.753C249.165 200.345 249.321 201.071 249.321 201.933V209H248.057V202.011C248.057 201.116 247.806 200.409 247.304 199.888C246.807 199.367 246.139 199.107 245.301 199.107C244.728 199.107 244.219 199.23 243.774 199.476C243.329 199.722 242.976 200.077 242.716 200.541C242.46 201 242.332 201.547 242.332 202.182ZM257.661 209.227C256.643 209.227 255.762 208.991 255.019 208.517C254.275 208.039 253.7 207.378 253.293 206.536C252.89 205.688 252.689 204.713 252.689 203.609C252.689 202.511 252.89 201.536 253.293 200.683C253.7 199.826 254.261 199.156 254.976 198.673C255.696 198.186 256.527 197.942 257.469 197.942C258.061 197.942 258.631 198.051 259.181 198.268C259.73 198.482 260.222 198.811 260.658 199.256C261.098 199.696 261.446 200.252 261.702 200.925C261.958 201.592 262.086 202.383 262.086 203.297V203.922H253.563V202.807H260.793C260.793 202.106 260.651 201.476 260.367 200.918C260.087 200.354 259.697 199.909 259.195 199.582C258.698 199.256 258.122 199.092 257.469 199.092C256.778 199.092 256.169 199.277 255.644 199.646C255.118 200.016 254.706 200.503 254.408 201.109C254.114 201.715 253.965 202.378 253.961 203.098V203.766C253.961 204.632 254.11 205.39 254.408 206.038C254.711 206.682 255.139 207.182 255.693 207.537C256.247 207.892 256.903 208.07 257.661 208.07C258.177 208.07 258.629 207.989 259.017 207.828C259.41 207.667 259.739 207.452 260.005 207.182C260.274 206.907 260.478 206.607 260.615 206.28L261.816 206.67C261.65 207.13 261.378 207.554 260.999 207.942C260.625 208.33 260.156 208.643 259.593 208.879C259.034 209.111 258.39 209.227 257.661 209.227ZM275.936 209.227C274.994 209.227 274.161 208.988 273.436 208.51C272.717 208.032 272.153 207.371 271.746 206.528C271.339 205.681 271.135 204.703 271.135 203.595C271.135 202.478 271.339 201.495 271.746 200.648C272.153 199.795 272.717 199.133 273.436 198.659C274.161 198.181 274.994 197.942 275.936 197.942C276.879 197.942 277.71 198.181 278.429 198.659C279.149 199.137 279.712 199.8 280.12 200.648C280.532 201.495 280.738 202.478 280.738 203.595C280.738 204.703 280.534 205.681 280.127 206.528C279.72 207.371 279.154 208.032 278.429 208.51C277.71 208.988 276.879 209.227 275.936 209.227ZM275.936 208.07C276.694 208.07 277.336 207.866 277.861 207.459C278.387 207.052 278.784 206.509 279.054 205.832C279.329 205.155 279.466 204.41 279.466 203.595C279.466 202.781 279.329 202.033 279.054 201.351C278.784 200.669 278.387 200.122 277.861 199.71C277.336 199.298 276.694 199.092 275.936 199.092C275.184 199.092 274.542 199.298 274.012 199.71C273.486 200.122 273.086 200.669 272.811 201.351C272.542 202.033 272.407 202.781 272.407 203.595C272.407 204.41 272.542 205.155 272.811 205.832C273.086 206.509 273.486 207.052 274.012 207.459C274.537 207.866 275.179 208.07 275.936 208.07ZM288.601 198.091V199.192H283.239V198.091H288.601ZM284.915 209V196.493C284.915 195.906 285.05 195.411 285.32 195.009C285.595 194.606 285.952 194.301 286.393 194.092C286.833 193.884 287.299 193.78 287.792 193.78C288.123 193.78 288.398 193.808 288.616 193.865C288.838 193.917 289.013 193.969 289.141 194.021L288.772 195.129C288.677 195.101 288.561 195.068 288.424 195.03C288.287 194.992 288.114 194.973 287.905 194.973C287.356 194.973 286.932 195.127 286.634 195.435C286.336 195.742 286.187 196.183 286.187 196.756L286.18 209H284.915ZM299.54 194.455V209H298.212V194.455H299.54ZM305.009 202.182V209H303.745V198.091H304.974V199.803H305.087C305.343 199.244 305.741 198.796 306.28 198.46C306.825 198.119 307.497 197.949 308.297 197.949C309.031 197.949 309.675 198.103 310.229 198.411C310.788 198.714 311.221 199.161 311.529 199.753C311.841 200.345 311.998 201.071 311.998 201.933V209H310.733V202.011C310.733 201.116 310.482 200.409 309.981 199.888C309.483 199.367 308.816 199.107 307.978 199.107C307.405 199.107 306.896 199.23 306.451 199.476C306.006 199.722 305.653 200.077 305.393 200.541C305.137 201 305.009 201.547 305.009 202.182ZM319.854 209.227C318.96 209.227 318.176 208.991 317.504 208.517C316.831 208.044 316.306 207.383 315.927 206.536C315.553 205.688 315.366 204.701 315.366 203.574C315.366 202.452 315.553 201.469 315.927 200.626C316.306 199.779 316.834 199.121 317.511 198.652C318.188 198.179 318.976 197.942 319.876 197.942C320.539 197.942 321.09 198.06 321.531 198.297C321.971 198.529 322.324 198.818 322.589 199.163C322.854 199.509 323.06 199.845 323.207 200.172H323.32V194.455H324.592V209H323.356V206.976H323.207C323.06 207.307 322.852 207.648 322.582 207.999C322.312 208.344 321.954 208.635 321.509 208.872C321.069 209.109 320.517 209.227 319.854 209.227ZM320.004 208.07C320.709 208.07 321.31 207.878 321.808 207.494C322.305 207.106 322.683 206.573 322.944 205.896C323.209 205.214 323.342 204.433 323.342 203.553C323.342 202.681 323.211 201.912 322.951 201.244C322.691 200.572 322.312 200.046 321.815 199.668C321.317 199.284 320.714 199.092 320.004 199.092C319.274 199.092 318.659 199.291 318.157 199.689C317.66 200.082 317.281 200.615 317.021 201.287C316.765 201.959 316.637 202.714 316.637 203.553C316.637 204.4 316.767 205.165 317.028 205.847C317.288 206.528 317.667 207.071 318.164 207.473C318.666 207.871 319.279 208.07 320.004 208.07ZM328.807 209V198.091H330.078V209H328.807ZM329.453 196.216C329.193 196.216 328.97 196.128 328.785 195.953C328.601 195.773 328.508 195.558 328.508 195.307C328.508 195.056 328.601 194.843 328.785 194.668C328.97 194.488 329.193 194.398 329.453 194.398C329.713 194.398 329.936 194.488 330.121 194.668C330.305 194.843 330.398 195.056 330.398 195.307C330.398 195.558 330.305 195.773 330.121 195.953C329.936 196.128 329.713 196.216 329.453 196.216ZM337.068 209.249C336.41 209.249 335.809 209.121 335.264 208.865C334.72 208.605 334.287 208.231 333.965 207.743C333.643 207.25 333.482 206.654 333.482 205.953C333.482 205.413 333.583 204.959 333.787 204.589C333.991 204.22 334.279 203.917 334.653 203.68C335.028 203.444 335.47 203.257 335.982 203.119C336.493 202.982 337.056 202.875 337.672 202.8C338.283 202.724 338.799 202.658 339.22 202.601C339.646 202.544 339.971 202.454 340.193 202.331C340.416 202.208 340.527 202.009 340.527 201.734V201.479C340.527 200.735 340.305 200.151 339.859 199.724C339.419 199.294 338.785 199.078 337.956 199.078C337.17 199.078 336.528 199.251 336.031 199.597C335.539 199.942 335.193 200.349 334.994 200.818L333.794 200.385C334.04 199.788 334.381 199.312 334.817 198.957C335.252 198.598 335.74 198.339 336.28 198.183C336.82 198.022 337.367 197.942 337.921 197.942C338.337 197.942 338.77 197.996 339.22 198.105C339.675 198.214 340.096 198.403 340.484 198.673C340.873 198.938 341.188 199.31 341.429 199.788C341.671 200.262 341.791 200.863 341.791 201.592V209H340.527V207.274H340.449C340.297 207.596 340.073 207.909 339.774 208.212C339.476 208.515 339.102 208.763 338.652 208.957C338.202 209.152 337.674 209.249 337.068 209.249ZM337.239 208.091C337.911 208.091 338.493 207.942 338.986 207.643C339.478 207.345 339.857 206.95 340.122 206.457C340.392 205.96 340.527 205.413 340.527 204.817V203.24C340.432 203.33 340.274 203.411 340.051 203.482C339.833 203.553 339.58 203.616 339.291 203.673C339.007 203.725 338.723 203.77 338.439 203.808C338.155 203.846 337.899 203.879 337.672 203.908C337.056 203.983 336.531 204.102 336.095 204.263C335.66 204.424 335.326 204.646 335.094 204.93C334.862 205.21 334.746 205.57 334.746 206.01C334.746 206.673 334.983 207.187 335.456 207.551C335.93 207.911 336.524 208.091 337.239 208.091ZM346.834 194.455V199.305H345.641V194.455H346.834ZM358 200.484L356.842 200.811C356.729 200.484 356.568 200.188 356.36 199.923C356.151 199.658 355.879 199.447 355.543 199.291C355.211 199.135 354.799 199.057 354.307 199.057C353.568 199.057 352.962 199.232 352.489 199.582C352.015 199.933 351.779 200.385 351.779 200.939C351.779 201.408 351.94 201.789 352.261 202.082C352.588 202.371 353.09 202.601 353.767 202.771L355.415 203.176C356.329 203.399 357.013 203.751 357.467 204.234C357.927 204.717 358.156 205.323 358.156 206.053C358.156 206.668 357.986 207.215 357.645 207.693C357.304 208.171 356.828 208.548 356.217 208.822C355.611 209.092 354.908 209.227 354.108 209.227C353.043 209.227 352.164 208.988 351.473 208.51C350.782 208.027 350.339 207.331 350.145 206.422L351.36 206.124C351.516 206.772 351.821 207.262 352.276 207.594C352.735 207.925 353.339 208.091 354.087 208.091C354.925 208.091 355.595 207.904 356.097 207.53C356.599 207.151 356.85 206.678 356.85 206.109C356.85 205.669 356.703 205.3 356.409 205.001C356.116 204.698 355.671 204.476 355.074 204.334L353.291 203.908C352.344 203.68 351.644 203.321 351.189 202.828C350.735 202.336 350.507 201.725 350.507 200.996C350.507 200.394 350.671 199.866 350.997 199.412C351.324 198.953 351.774 198.593 352.347 198.332C352.92 198.072 353.573 197.942 354.307 197.942C355.306 197.942 356.104 198.169 356.7 198.624C357.302 199.073 357.735 199.694 358 200.484ZM67.1998 233V218.455H68.4711V224.172H68.5847C68.7268 223.845 68.9304 223.509 69.1955 223.163C69.4654 222.818 69.8182 222.529 70.2538 222.297C70.6941 222.06 71.2481 221.942 71.9157 221.942C72.8106 221.942 73.5966 222.179 74.2737 222.652C74.9507 223.121 75.4787 223.779 75.8575 224.626C76.2363 225.469 76.4256 226.452 76.4256 227.574C76.4256 228.701 76.2363 229.688 75.8575 230.536C75.4834 231.383 74.9578 232.044 74.2808 232.517C73.6084 232.991 72.8272 233.227 71.937 233.227C71.2741 233.227 70.7202 233.109 70.2751 232.872C69.8347 232.635 69.4796 232.344 69.2097 231.999C68.9398 231.648 68.7315 231.307 68.5847 230.976H68.4285V233H67.1998ZM68.4498 227.553C68.4498 228.433 68.58 229.214 68.8404 229.896C69.1056 230.573 69.4844 231.106 69.9768 231.494C70.4739 231.878 71.0753 232.07 71.7808 232.07C72.5052 232.07 73.1184 231.871 73.6202 231.473C74.1221 231.071 74.5033 230.528 74.7637 229.847C75.0241 229.165 75.1543 228.4 75.1543 227.553C75.1543 226.714 75.0241 225.959 74.7637 225.287C74.508 224.615 74.1292 224.082 73.6273 223.689C73.1255 223.291 72.5099 223.092 71.7808 223.092C71.0705 223.092 70.4668 223.284 69.9697 223.668C69.4773 224.046 69.1008 224.572 68.8404 225.244C68.58 225.912 68.4498 226.681 68.4498 227.553ZM79.8168 233V222.091H81.0881V233H79.8168ZM80.4631 220.216C80.2027 220.216 79.9802 220.128 79.7955 219.953C79.6109 219.773 79.5185 219.558 79.5185 219.307C79.5185 219.056 79.6109 218.843 79.7955 218.668C79.9802 218.488 80.2027 218.398 80.4631 218.398C80.7236 218.398 80.9461 218.488 81.1308 218.668C81.3154 218.843 81.4077 219.056 81.4077 219.307C81.4077 219.558 81.3154 219.773 81.1308 219.953C80.9461 220.128 80.7236 220.216 80.4631 220.216ZM89.1935 237.318C88.4501 237.318 87.7991 237.221 87.2403 237.027C86.6816 236.838 86.2105 236.577 85.827 236.246C85.4435 235.914 85.1452 235.543 84.9321 235.131L85.969 234.449C86.1253 234.723 86.3336 234.993 86.594 235.259C86.8592 235.524 87.2025 235.744 87.6239 235.919C88.05 236.094 88.5732 236.182 89.1935 236.182C90.1594 236.182 90.9383 235.94 91.5301 235.457C92.1267 234.974 92.425 234.224 92.425 233.206V230.749H92.3114C92.1646 231.08 91.9539 231.411 91.6793 231.743C91.4046 232.07 91.0448 232.342 90.5997 232.56C90.1594 232.777 89.6125 232.886 88.9591 232.886C88.0879 232.886 87.3137 232.671 86.6367 232.24C85.9643 231.809 85.434 231.194 85.0457 230.393C84.6622 229.589 84.4705 228.63 84.4705 227.517C84.4705 226.414 84.6575 225.443 85.0315 224.605C85.4103 223.767 85.9383 223.114 86.6153 222.645C87.2924 222.176 88.0808 221.942 88.9804 221.942C89.648 221.942 90.202 222.06 90.6423 222.297C91.0827 222.529 91.4354 222.818 91.7006 223.163C91.9705 223.509 92.1812 223.845 92.3327 224.172H92.4605V222.091H93.6963V233.284C93.6963 234.207 93.4998 234.967 93.1068 235.564C92.7138 236.161 92.1788 236.601 91.5017 236.885C90.8246 237.174 90.0552 237.318 89.1935 237.318ZM89.1082 231.729C89.809 231.729 90.408 231.561 90.9051 231.224C91.4023 230.884 91.7834 230.396 92.0486 229.761C92.3137 229.127 92.4463 228.372 92.4463 227.496C92.4463 226.643 92.3161 225.888 92.0557 225.23C91.7953 224.567 91.4165 224.046 90.9193 223.668C90.4269 223.284 89.8232 223.092 89.1082 223.092C88.3791 223.092 87.7635 223.289 87.2617 223.682C86.7598 224.075 86.381 224.605 86.1253 225.273C85.8696 225.936 85.7418 226.677 85.7418 227.496C85.7418 228.329 85.872 229.065 86.1324 229.705C86.3928 230.339 86.774 230.836 87.2759 231.196C87.7778 231.551 88.3885 231.729 89.1082 231.729ZM101.805 237.318C101.062 237.318 100.411 237.221 99.8521 237.027C99.2934 236.838 98.8222 236.577 98.4387 236.246C98.0552 235.914 97.7569 235.543 97.5438 235.131L98.5808 234.449C98.737 234.723 98.9453 234.993 99.2058 235.259C99.4709 235.524 99.8142 235.744 100.236 235.919C100.662 236.094 101.185 236.182 101.805 236.182C102.771 236.182 103.55 235.94 104.142 235.457C104.738 234.974 105.037 234.224 105.037 233.206V230.749H104.923C104.776 231.08 104.566 231.411 104.291 231.743C104.016 232.07 103.657 232.342 103.211 232.56C102.771 232.777 102.224 232.886 101.571 232.886C100.7 232.886 99.9255 232.671 99.2484 232.24C98.576 231.809 98.0457 231.194 97.6575 230.393C97.2739 229.589 97.0822 228.63 97.0822 227.517C97.0822 226.414 97.2692 225.443 97.6433 224.605C98.022 223.767 98.55 223.114 99.2271 222.645C99.9041 222.176 100.693 221.942 101.592 221.942C102.26 221.942 102.814 222.06 103.254 222.297C103.694 222.529 104.047 222.818 104.312 223.163C104.582 223.509 104.793 223.845 104.944 224.172H105.072V222.091H106.308V233.284C106.308 234.207 106.112 234.967 105.719 235.564C105.326 236.161 104.791 236.601 104.113 236.885C103.436 237.174 102.667 237.318 101.805 237.318ZM101.72 231.729C102.421 231.729 103.02 231.561 103.517 231.224C104.014 230.884 104.395 230.396 104.66 229.761C104.925 229.127 105.058 228.372 105.058 227.496C105.058 226.643 104.928 225.888 104.667 225.23C104.407 224.567 104.028 224.046 103.531 223.668C103.039 223.284 102.435 223.092 101.72 223.092C100.991 223.092 100.375 223.289 99.8734 223.682C99.3715 224.075 98.9927 224.605 98.737 225.273C98.4813 225.936 98.3535 226.677 98.3535 227.496C98.3535 228.329 98.4837 229.065 98.7441 229.705C99.0045 230.339 99.3857 230.836 99.8876 231.196C100.389 231.551 101 231.729 101.72 231.729ZM114.665 233.227C113.647 233.227 112.767 232.991 112.023 232.517C111.28 232.039 110.705 231.378 110.298 230.536C109.895 229.688 109.694 228.713 109.694 227.609C109.694 226.511 109.895 225.536 110.298 224.683C110.705 223.826 111.266 223.156 111.981 222.673C112.701 222.186 113.531 221.942 114.474 221.942C115.066 221.942 115.636 222.051 116.185 222.268C116.735 222.482 117.227 222.811 117.663 223.256C118.103 223.696 118.451 224.252 118.707 224.925C118.962 225.592 119.09 226.383 119.09 227.297V227.922H110.567V226.807H117.798C117.798 226.106 117.656 225.476 117.371 224.918C117.092 224.354 116.701 223.909 116.2 223.582C115.702 223.256 115.127 223.092 114.474 223.092C113.782 223.092 113.174 223.277 112.648 223.646C112.123 224.016 111.711 224.503 111.413 225.109C111.119 225.715 110.97 226.378 110.965 227.098V227.766C110.965 228.632 111.114 229.39 111.413 230.038C111.716 230.682 112.144 231.182 112.698 231.537C113.252 231.892 113.908 232.07 114.665 232.07C115.182 232.07 115.634 231.989 116.022 231.828C116.415 231.667 116.744 231.452 117.009 231.182C117.279 230.907 117.483 230.607 117.62 230.28L118.82 230.67C118.655 231.13 118.382 231.554 118.004 231.942C117.63 232.33 117.161 232.643 116.597 232.879C116.039 233.111 115.395 233.227 114.665 233.227ZM129.806 224.484L128.648 224.811C128.534 224.484 128.373 224.188 128.165 223.923C127.957 223.658 127.684 223.447 127.348 223.291C127.017 223.135 126.605 223.057 126.112 223.057C125.374 223.057 124.768 223.232 124.294 223.582C123.821 223.933 123.584 224.385 123.584 224.939C123.584 225.408 123.745 225.789 124.067 226.082C124.394 226.371 124.896 226.601 125.573 226.771L127.22 227.176C128.134 227.399 128.818 227.751 129.273 228.234C129.732 228.717 129.962 229.323 129.962 230.053C129.962 230.668 129.791 231.215 129.451 231.693C129.11 232.171 128.634 232.548 128.023 232.822C127.417 233.092 126.714 233.227 125.914 233.227C124.848 233.227 123.97 232.988 123.279 232.51C122.587 232.027 122.145 231.331 121.951 230.422L123.165 230.124C123.321 230.772 123.627 231.262 124.081 231.594C124.54 231.925 125.144 232.091 125.892 232.091C126.73 232.091 127.4 231.904 127.902 231.53C128.404 231.151 128.655 230.678 128.655 230.109C128.655 229.669 128.508 229.3 128.215 229.001C127.921 228.698 127.476 228.476 126.879 228.334L125.097 227.908C124.15 227.68 123.449 227.321 122.995 226.828C122.54 226.336 122.313 225.725 122.313 224.996C122.313 224.394 122.476 223.866 122.803 223.412C123.129 222.953 123.579 222.593 124.152 222.332C124.725 222.072 125.379 221.942 126.112 221.942C127.111 221.942 127.909 222.169 128.506 222.624C129.107 223.073 129.54 223.694 129.806 224.484ZM137.627 222.091V223.192H132.421V222.091H137.627ZM134.047 219.477H135.319V230.152C135.319 230.607 135.397 230.964 135.553 231.224C135.709 231.48 135.913 231.662 136.164 231.771C136.415 231.875 136.682 231.928 136.966 231.928C137.132 231.928 137.274 231.918 137.392 231.899C137.511 231.875 137.615 231.852 137.705 231.828L137.975 232.972C137.852 233.019 137.7 233.062 137.52 233.099C137.34 233.142 137.118 233.163 136.853 233.163C136.389 233.163 135.941 233.062 135.51 232.858C135.084 232.654 134.734 232.351 134.459 231.949C134.185 231.546 134.047 231.047 134.047 230.45V219.477ZM159.51 225.727C159.51 227.242 159.241 228.561 158.701 229.683C158.161 230.801 157.418 231.667 156.471 232.283C155.528 232.893 154.444 233.199 153.218 233.199C151.992 233.199 150.905 232.893 149.958 232.283C149.016 231.667 148.275 230.801 147.735 229.683C147.2 228.561 146.932 227.242 146.932 225.727C146.932 224.212 147.2 222.896 147.735 221.778C148.275 220.656 149.018 219.79 149.965 219.179C150.912 218.563 151.996 218.256 153.218 218.256C154.444 218.256 155.528 218.563 156.471 219.179C157.418 219.79 158.161 220.656 158.701 221.778C159.241 222.896 159.51 224.212 159.51 225.727ZM158.218 225.727C158.218 224.425 158 223.31 157.564 222.382C157.129 221.449 156.535 220.737 155.782 220.244C155.029 219.752 154.174 219.506 153.218 219.506C152.266 219.506 151.414 219.752 150.661 220.244C149.908 220.737 149.312 221.447 148.871 222.375C148.436 223.303 148.218 224.42 148.218 225.727C148.218 227.029 148.436 228.144 148.871 229.072C149.307 230 149.901 230.713 150.654 231.21C151.407 231.703 152.261 231.949 153.218 231.949C154.174 231.949 155.029 231.703 155.782 231.21C156.539 230.718 157.136 230.008 157.572 229.08C158.007 228.147 158.223 227.029 158.218 225.727ZM161.836 219.648V218.455H172.383V219.648H167.774V233H166.446V219.648H161.836ZM175.093 219.648V218.455H185.639V219.648H181.03V233H179.702V219.648H175.093ZM199.602 233.227C198.584 233.227 197.704 232.991 196.96 232.517C196.217 232.039 195.642 231.378 195.234 230.536C194.832 229.688 194.631 228.713 194.631 227.609C194.631 226.511 194.832 225.536 195.234 224.683C195.642 223.826 196.203 223.156 196.918 222.673C197.637 222.186 198.468 221.942 199.41 221.942C200.002 221.942 200.573 222.051 201.122 222.268C201.671 222.482 202.164 222.811 202.599 223.256C203.04 223.696 203.388 224.252 203.643 224.925C203.899 225.592 204.027 226.383 204.027 227.297V227.922H195.504V226.807H202.734C202.734 226.106 202.592 225.476 202.308 224.918C202.029 224.354 201.638 223.909 201.136 223.582C200.639 223.256 200.064 223.092 199.41 223.092C198.719 223.092 198.111 223.277 197.585 223.646C197.06 224.016 196.648 224.503 196.349 225.109C196.056 225.715 195.907 226.378 195.902 227.098V227.766C195.902 228.632 196.051 229.39 196.349 230.038C196.652 230.682 197.081 231.182 197.635 231.537C198.189 231.892 198.845 232.07 199.602 232.07C200.118 232.07 200.57 231.989 200.959 231.828C201.352 231.667 201.681 231.452 201.946 231.182C202.216 230.907 202.419 230.607 202.557 230.28L203.757 230.67C203.591 231.13 203.319 231.554 202.94 231.942C202.566 232.33 202.097 232.643 201.534 232.879C200.975 233.111 200.331 233.227 199.602 233.227ZM208.677 226.182V233H207.413V222.091H208.641V223.803H208.755C209.011 223.244 209.409 222.796 209.948 222.46C210.493 222.119 211.165 221.949 211.965 221.949C212.699 221.949 213.343 222.103 213.897 222.411C214.456 222.714 214.889 223.161 215.197 223.753C215.509 224.345 215.666 225.071 215.666 225.933V233H214.401V226.011C214.401 225.116 214.15 224.409 213.649 223.888C213.151 223.367 212.484 223.107 211.646 223.107C211.073 223.107 210.564 223.23 210.119 223.476C209.674 223.722 209.321 224.077 209.061 224.541C208.805 225 208.677 225.547 208.677 226.182ZM223.892 222.091V223.192H218.686V222.091H223.892ZM220.312 219.477H221.583V230.152C221.583 230.607 221.662 230.964 221.818 231.224C221.974 231.48 222.178 231.662 222.429 231.771C222.68 231.875 222.947 231.928 223.231 231.928C223.397 231.928 223.539 231.918 223.657 231.899C223.776 231.875 223.88 231.852 223.97 231.828L224.24 232.972C224.117 233.019 223.965 233.062 223.785 233.099C223.605 233.142 223.383 233.163 223.118 233.163C222.654 233.163 222.206 233.062 221.775 232.858C221.349 232.654 220.999 232.351 220.724 231.949C220.449 231.546 220.312 231.047 220.312 230.45V219.477ZM227.363 233V222.091H228.591V223.767H228.684C228.902 223.218 229.28 222.775 229.82 222.439C230.365 222.098 230.98 221.928 231.667 221.928C231.771 221.928 231.887 221.93 232.015 221.935C232.143 221.939 232.249 221.944 232.334 221.949V223.234C232.278 223.225 232.178 223.211 232.036 223.192C231.894 223.173 231.74 223.163 231.574 223.163C231.006 223.163 230.5 223.284 230.055 223.526C229.614 223.762 229.266 224.091 229.011 224.513C228.755 224.934 228.627 225.415 228.627 225.955V233H227.363ZM239.17 233.227C238.152 233.227 237.272 232.991 236.528 232.517C235.785 232.039 235.209 231.378 234.802 230.536C234.4 229.688 234.199 228.713 234.199 227.609C234.199 226.511 234.4 225.536 234.802 224.683C235.209 223.826 235.771 223.156 236.486 222.673C237.205 222.186 238.036 221.942 238.978 221.942C239.57 221.942 240.141 222.051 240.69 222.268C241.239 222.482 241.732 222.811 242.167 223.256C242.608 223.696 242.956 224.252 243.211 224.925C243.467 225.592 243.595 226.383 243.595 227.297V227.922H235.072V226.807H242.302C242.302 226.106 242.16 225.476 241.876 224.918C241.597 224.354 241.206 223.909 240.704 223.582C240.207 223.256 239.632 223.092 238.978 223.092C238.287 223.092 237.679 223.277 237.153 223.646C236.628 224.016 236.216 224.503 235.917 225.109C235.624 225.715 235.475 226.378 235.47 227.098V227.766C235.47 228.632 235.619 229.39 235.917 230.038C236.22 230.682 236.649 231.182 237.203 231.537C237.757 231.892 238.413 232.07 239.17 232.07C239.686 232.07 240.138 231.989 240.527 231.828C240.92 231.667 241.249 231.452 241.514 231.182C241.784 230.907 241.987 230.607 242.125 230.28L243.325 230.67C243.159 231.13 242.887 231.554 242.508 231.942C242.134 232.33 241.665 232.643 241.102 232.879C240.543 233.111 239.899 233.227 239.17 233.227ZM246.981 237.091V222.091H248.209V224.172H248.359C248.51 223.845 248.718 223.511 248.984 223.17C249.249 222.825 249.599 222.534 250.035 222.297C250.475 222.06 251.029 221.942 251.697 221.942C252.596 221.942 253.382 222.179 254.055 222.652C254.732 223.121 255.257 223.779 255.631 224.626C256.01 225.469 256.2 226.452 256.2 227.574C256.2 228.701 256.01 229.688 255.631 230.536C255.257 231.383 254.732 232.044 254.055 232.517C253.382 232.991 252.601 233.227 251.711 233.227C251.053 233.227 250.501 233.109 250.056 232.872C249.616 232.635 249.258 232.344 248.984 231.999C248.714 231.648 248.505 231.307 248.359 230.976H248.245V237.091H246.981ZM248.231 227.553C248.231 228.433 248.361 229.214 248.621 229.896C248.887 230.573 249.265 231.106 249.758 231.494C250.255 231.878 250.856 232.07 251.562 232.07C252.286 232.07 252.897 231.871 253.394 231.473C253.896 231.071 254.277 230.528 254.538 229.847C254.803 229.165 254.935 228.4 254.935 227.553C254.935 226.714 254.805 225.959 254.545 225.287C254.289 224.615 253.91 224.082 253.408 223.689C252.906 223.291 252.291 223.092 251.562 223.092C250.851 223.092 250.248 223.284 249.751 223.668C249.253 224.046 248.875 224.572 248.614 225.244C248.359 225.912 248.231 226.681 248.231 227.553ZM259.573 233V222.091H260.802V223.767H260.894C261.112 223.218 261.491 222.775 262.03 222.439C262.575 222.098 263.19 221.928 263.877 221.928C263.981 221.928 264.097 221.93 264.225 221.935C264.353 221.939 264.459 221.944 264.545 221.949V223.234C264.488 223.225 264.388 223.211 264.246 223.192C264.104 223.173 263.95 223.163 263.785 223.163C263.216 223.163 262.71 223.284 262.265 223.526C261.824 223.762 261.476 224.091 261.221 224.513C260.965 224.934 260.837 225.415 260.837 225.955V233H259.573ZM271.38 233.227C270.362 233.227 269.482 232.991 268.738 232.517C267.995 232.039 267.42 231.378 267.012 230.536C266.61 229.688 266.409 228.713 266.409 227.609C266.409 226.511 266.61 225.536 267.012 224.683C267.42 223.826 267.981 223.156 268.696 222.673C269.415 222.186 270.246 221.942 271.189 221.942C271.78 221.942 272.351 222.051 272.9 222.268C273.449 222.482 273.942 222.811 274.377 223.256C274.818 223.696 275.166 224.252 275.422 224.925C275.677 225.592 275.805 226.383 275.805 227.297V227.922H267.282V226.807H274.512C274.512 226.106 274.37 225.476 274.086 224.918C273.807 224.354 273.416 223.909 272.914 223.582C272.417 223.256 271.842 223.092 271.189 223.092C270.497 223.092 269.889 223.277 269.363 223.646C268.838 224.016 268.426 224.503 268.127 225.109C267.834 225.715 267.685 226.378 267.68 227.098V227.766C267.68 228.632 267.829 229.39 268.127 230.038C268.431 230.682 268.859 231.182 269.413 231.537C269.967 231.892 270.623 232.07 271.38 232.07C271.896 232.07 272.349 231.989 272.737 231.828C273.13 231.667 273.459 231.452 273.724 231.182C273.994 230.907 274.198 230.607 274.335 230.28L275.535 230.67C275.369 231.13 275.097 231.554 274.718 231.942C274.344 232.33 273.876 232.643 273.312 232.879C272.753 233.111 272.109 233.227 271.38 233.227ZM280.455 226.182V233H279.191V222.091H280.42V223.803H280.533C280.789 223.244 281.187 222.796 281.726 222.46C282.271 222.119 282.943 221.949 283.743 221.949C284.477 221.949 285.121 222.103 285.675 222.411C286.234 222.714 286.667 223.161 286.975 223.753C287.288 224.345 287.444 225.071 287.444 225.933V233H286.18V226.011C286.18 225.116 285.929 224.409 285.427 223.888C284.93 223.367 284.262 223.107 283.424 223.107C282.851 223.107 282.342 223.23 281.897 223.476C281.452 223.722 281.099 224.077 280.839 224.541C280.583 225 280.455 225.547 280.455 226.182ZM295.783 233.227C294.765 233.227 293.885 232.991 293.141 232.517C292.398 232.039 291.823 231.378 291.416 230.536C291.013 229.688 290.812 228.713 290.812 227.609C290.812 226.511 291.013 225.536 291.416 224.683C291.823 223.826 292.384 223.156 293.099 222.673C293.819 222.186 294.649 221.942 295.592 221.942C296.184 221.942 296.754 222.051 297.303 222.268C297.853 222.482 298.345 222.811 298.781 223.256C299.221 223.696 299.569 224.252 299.825 224.925C300.08 225.592 300.208 226.383 300.208 227.297V227.922H291.685V226.807H298.916C298.916 226.106 298.774 225.476 298.489 224.918C298.21 224.354 297.819 223.909 297.318 223.582C296.82 223.256 296.245 223.092 295.592 223.092C294.9 223.092 294.292 223.277 293.766 223.646C293.241 224.016 292.829 224.503 292.531 225.109C292.237 225.715 292.088 226.378 292.083 227.098V227.766C292.083 228.632 292.232 229.39 292.531 230.038C292.834 230.682 293.262 231.182 293.816 231.537C294.37 231.892 295.026 232.07 295.783 232.07C296.3 232.07 296.752 231.989 297.14 231.828C297.533 231.667 297.862 231.452 298.127 231.182C298.397 230.907 298.601 230.607 298.738 230.28L299.938 230.67C299.773 231.13 299.5 231.554 299.122 231.942C298.747 232.33 298.279 232.643 297.715 232.879C297.157 233.111 296.513 233.227 295.783 233.227ZM310.526 228.831V222.091H311.79V233H310.526V231.189H310.426C310.171 231.748 309.766 232.214 309.212 232.588C308.658 232.957 307.981 233.142 307.181 233.142C306.485 233.142 305.867 232.991 305.327 232.688C304.787 232.38 304.363 231.93 304.056 231.338C303.748 230.746 303.594 230.019 303.594 229.158V222.091H304.858V229.08C304.858 229.932 305.109 230.618 305.611 231.139C306.113 231.655 306.757 231.913 307.543 231.913C308.035 231.913 308.509 231.795 308.963 231.558C309.418 231.321 309.792 230.976 310.085 230.521C310.379 230.062 310.526 229.499 310.526 228.831ZM315.737 233V222.091H316.966V223.767H317.058C317.276 223.218 317.655 222.775 318.194 222.439C318.739 222.098 319.354 221.928 320.041 221.928C320.145 221.928 320.261 221.93 320.389 221.935C320.517 221.939 320.623 221.944 320.709 221.949V223.234C320.652 223.225 320.552 223.211 320.41 223.192C320.268 223.173 320.114 223.163 319.949 223.163C319.38 223.163 318.874 223.284 318.429 223.526C317.988 223.762 317.64 224.091 317.385 224.513C317.129 224.934 317.001 225.415 317.001 225.955V233H315.737ZM330.795 224.484L329.638 224.811C329.524 224.484 329.363 224.188 329.155 223.923C328.946 223.658 328.674 223.447 328.338 223.291C328.007 223.135 327.595 223.057 327.102 223.057C326.364 223.057 325.758 223.232 325.284 223.582C324.811 223.933 324.574 224.385 324.574 224.939C324.574 225.408 324.735 225.789 325.057 226.082C325.384 226.371 325.885 226.601 326.562 226.771L328.21 227.176C329.124 227.399 329.808 227.751 330.263 228.234C330.722 228.717 330.952 229.323 330.952 230.053C330.952 230.668 330.781 231.215 330.44 231.693C330.099 232.171 329.624 232.548 329.013 232.822C328.407 233.092 327.704 233.227 326.903 233.227C325.838 233.227 324.96 232.988 324.268 232.51C323.577 232.027 323.134 231.331 322.94 230.422L324.155 230.124C324.311 230.772 324.616 231.262 325.071 231.594C325.53 231.925 326.134 232.091 326.882 232.091C327.72 232.091 328.39 231.904 328.892 231.53C329.394 231.151 329.645 230.678 329.645 230.109C329.645 229.669 329.498 229.3 329.205 229.001C328.911 228.698 328.466 228.476 327.869 228.334L326.087 227.908C325.14 227.68 324.439 227.321 323.984 226.828C323.53 226.336 323.303 225.725 323.303 224.996C323.303 224.394 323.466 223.866 323.793 223.412C324.119 222.953 324.569 222.593 325.142 222.332C325.715 222.072 326.368 221.942 327.102 221.942C328.101 221.942 328.899 222.169 329.496 222.624C330.097 223.073 330.53 223.694 330.795 224.484ZM335.584 226.182V233H334.32V218.455H335.584V223.803H335.698C335.953 223.239 336.349 222.789 336.884 222.453C337.424 222.117 338.105 221.949 338.929 221.949C339.668 221.949 340.317 222.1 340.875 222.403C341.434 222.706 341.87 223.154 342.182 223.746C342.495 224.338 342.651 225.067 342.651 225.933V233H341.379V226.011C341.379 225.112 341.129 224.404 340.627 223.888C340.129 223.367 339.457 223.107 338.61 223.107C338.027 223.107 337.509 223.23 337.054 223.476C336.6 223.722 336.24 224.077 335.975 224.541C335.714 225 335.584 225.547 335.584 226.182ZM346.594 233V222.091H347.865V233H346.594ZM347.24 220.216C346.98 220.216 346.758 220.128 346.573 219.953C346.388 219.773 346.296 219.558 346.296 219.307C346.296 219.056 346.388 218.843 346.573 218.668C346.758 218.488 346.98 218.398 347.24 218.398C347.501 218.398 347.723 218.488 347.908 218.668C348.093 218.843 348.185 219.056 348.185 219.307C348.185 219.558 348.093 219.773 347.908 219.953C347.723 220.128 347.501 220.216 347.24 220.216ZM351.809 237.091V222.091H353.038V224.172H353.187C353.338 223.845 353.547 223.511 353.812 223.17C354.077 222.825 354.427 222.534 354.863 222.297C355.303 222.06 355.857 221.942 356.525 221.942C357.424 221.942 358.21 222.179 358.883 222.652C359.56 223.121 360.085 223.779 360.459 224.626C360.838 225.469 361.028 226.452 361.028 227.574C361.028 228.701 360.838 229.688 360.459 230.536C360.085 231.383 359.56 232.044 358.883 232.517C358.21 232.991 357.429 233.227 356.539 233.227C355.881 233.227 355.329 233.109 354.884 232.872C354.444 232.635 354.086 232.344 353.812 231.999C353.542 231.648 353.334 231.307 353.187 230.976H353.073V237.091H351.809ZM353.059 227.553C353.059 228.433 353.189 229.214 353.45 229.896C353.715 230.573 354.093 231.106 354.586 231.494C355.083 231.878 355.684 232.07 356.39 232.07C357.114 232.07 357.725 231.871 358.222 231.473C358.724 231.071 359.105 230.528 359.366 229.847C359.631 229.165 359.763 228.4 359.763 227.553C359.763 226.714 359.633 225.959 359.373 225.287C359.117 224.615 358.738 224.082 358.236 223.689C357.735 223.291 357.119 223.092 356.39 223.092C355.68 223.092 355.076 223.284 354.579 223.668C354.082 224.046 353.703 224.572 353.442 225.244C353.187 225.912 353.059 226.681 353.059 227.553ZM74.5861 248.484L73.4284 248.811C73.3148 248.484 73.1538 248.188 72.9454 247.923C72.7371 247.658 72.4649 247.447 72.1287 247.291C71.7972 247.135 71.3853 247.057 70.8929 247.057C70.1543 247.057 69.5482 247.232 69.0747 247.582C68.6012 247.933 68.3645 248.385 68.3645 248.939C68.3645 249.408 68.5255 249.789 68.8474 250.082C69.1741 250.371 69.676 250.601 70.3531 250.771L72.0008 251.176C72.9147 251.399 73.5989 251.751 74.0534 252.234C74.5127 252.717 74.7423 253.323 74.7423 254.053C74.7423 254.668 74.5719 255.215 74.231 255.693C73.8901 256.171 73.4142 256.548 72.8034 256.822C72.1973 257.092 71.4942 257.227 70.694 257.227C69.6287 257.227 68.7504 256.988 68.0591 256.51C67.3678 256.027 66.9251 255.331 66.731 254.422L67.9454 254.124C68.1017 254.772 68.4071 255.262 68.8616 255.594C69.3209 255.925 69.9246 256.091 70.6727 256.091C71.5108 256.091 72.1808 255.904 72.6827 255.53C73.1846 255.151 73.4355 254.678 73.4355 254.109C73.4355 253.669 73.2887 253.3 72.9952 253.001C72.7016 252.698 72.2565 252.476 71.6599 252.334L69.8773 251.908C68.9303 251.68 68.2295 251.321 67.775 250.828C67.3204 250.336 67.0932 249.725 67.0932 248.996C67.0932 248.394 67.2565 247.866 67.5832 247.412C67.9099 246.953 68.3597 246.593 68.9327 246.332C69.5056 246.072 70.159 245.942 70.8929 245.942C71.8919 245.942 72.6898 246.169 73.2864 246.624C73.8877 247.073 74.3209 247.694 74.5861 248.484ZM79.3746 250.182V257H78.1104V242.455H79.3746V247.803H79.4883C79.744 247.239 80.1393 246.789 80.6744 246.453C81.2141 246.117 81.8959 245.949 82.7198 245.949C83.4584 245.949 84.1071 246.1 84.6658 246.403C85.2245 246.706 85.6601 247.154 85.9726 247.746C86.2851 248.338 86.4414 249.067 86.4414 249.933V257H85.1701V250.011C85.1701 249.112 84.9191 248.404 84.4173 247.888C83.9201 247.367 83.2477 247.107 82.4002 247.107C81.8178 247.107 81.2994 247.23 80.8448 247.476C80.3903 247.722 80.0304 248.077 79.7653 248.541C79.5048 249 79.3746 249.547 79.3746 250.182ZM94.6106 257.227C93.6684 257.227 92.8351 256.988 92.1106 256.51C91.391 256.032 90.8275 255.371 90.4203 254.528C90.0131 253.681 89.8095 252.703 89.8095 251.595C89.8095 250.478 90.0131 249.495 90.4203 248.648C90.8275 247.795 91.391 247.133 92.1106 246.659C92.8351 246.181 93.6684 245.942 94.6106 245.942C95.5529 245.942 96.3838 246.181 97.1035 246.659C97.8232 247.137 98.3867 247.8 98.7939 248.648C99.2058 249.495 99.4118 250.478 99.4118 251.595C99.4118 252.703 99.2082 253.681 98.801 254.528C98.3938 255.371 97.828 256.032 97.1035 256.51C96.3838 256.988 95.5529 257.227 94.6106 257.227ZM94.6106 256.07C95.3682 256.07 96.0098 255.866 96.5354 255.459C97.0609 255.052 97.4587 254.509 97.7285 253.832C98.0032 253.155 98.1405 252.41 98.1405 251.595C98.1405 250.781 98.0032 250.033 97.7285 249.351C97.4587 248.669 97.0609 248.122 96.5354 247.71C96.0098 247.298 95.3682 247.092 94.6106 247.092C93.8578 247.092 93.2162 247.298 92.6859 247.71C92.1604 248.122 91.7603 248.669 91.4856 249.351C91.2158 250.033 91.0808 250.781 91.0808 251.595C91.0808 252.41 91.2158 253.155 91.4856 253.832C91.7603 254.509 92.1604 255.052 92.6859 255.459C93.2115 255.866 93.8531 256.07 94.6106 256.07ZM104.838 257L101.542 246.091H102.878L105.463 255.089H105.555L108.133 246.091H109.476L112.032 255.068H112.132L114.717 246.091H116.052L112.757 257H111.45L108.865 248.058H108.73L106.145 257H104.838ZM126.439 248.484L125.282 248.811C125.168 248.484 125.007 248.188 124.799 247.923C124.59 247.658 124.318 247.447 123.982 247.291C123.65 247.135 123.238 247.057 122.746 247.057C122.007 247.057 121.401 247.232 120.928 247.582C120.454 247.933 120.218 248.385 120.218 248.939C120.218 249.408 120.379 249.789 120.701 250.082C121.027 250.371 121.529 250.601 122.206 250.771L123.854 251.176C124.768 251.399 125.452 251.751 125.907 252.234C126.366 252.717 126.595 253.323 126.595 254.053C126.595 254.668 126.425 255.215 126.084 255.693C125.743 256.171 125.267 256.548 124.657 256.822C124.05 257.092 123.347 257.227 122.547 257.227C121.482 257.227 120.603 256.988 119.912 256.51C119.221 256.027 118.778 255.331 118.584 254.422L119.799 254.124C119.955 254.772 120.26 255.262 120.715 255.594C121.174 255.925 121.778 256.091 122.526 256.091C123.364 256.091 124.034 255.904 124.536 255.53C125.038 255.151 125.289 254.678 125.289 254.109C125.289 253.669 125.142 253.3 124.848 253.001C124.555 252.698 124.11 252.476 123.513 252.334L121.73 251.908C120.783 251.68 120.083 251.321 119.628 250.828C119.174 250.336 118.946 249.725 118.946 248.996C118.946 248.394 119.11 247.866 119.436 247.412C119.763 246.953 120.213 246.593 120.786 246.332C121.359 246.072 122.012 245.942 122.746 245.942C123.745 245.942 124.543 246.169 125.139 246.624C125.741 247.073 126.174 247.694 126.439 248.484ZM154.52 250.168V251.361H134.52V250.168H154.52ZM165.435 257L162.14 246.091H163.475L166.06 255.089H166.153L168.731 246.091H170.073L172.63 255.068H172.729L175.315 246.091H176.65L173.354 257H172.048L169.462 248.058H169.327L166.742 257H165.435ZM182.754 257.249C182.096 257.249 181.495 257.121 180.95 256.865C180.406 256.605 179.972 256.231 179.65 255.743C179.329 255.25 179.168 254.654 179.168 253.953C179.168 253.413 179.269 252.959 179.473 252.589C179.677 252.22 179.965 251.917 180.339 251.68C180.713 251.444 181.156 251.257 181.668 251.119C182.179 250.982 182.742 250.875 183.358 250.8C183.969 250.724 184.485 250.658 184.906 250.601C185.332 250.544 185.657 250.454 185.879 250.331C186.102 250.208 186.213 250.009 186.213 249.734V249.479C186.213 248.735 185.99 248.151 185.545 247.724C185.105 247.294 184.471 247.078 183.642 247.078C182.856 247.078 182.214 247.251 181.717 247.597C181.225 247.942 180.879 248.349 180.68 248.818L179.48 248.385C179.726 247.788 180.067 247.312 180.503 246.957C180.938 246.598 181.426 246.339 181.966 246.183C182.506 246.022 183.052 245.942 183.606 245.942C184.023 245.942 184.456 245.996 184.906 246.105C185.361 246.214 185.782 246.403 186.17 246.673C186.559 246.938 186.873 247.31 187.115 247.788C187.356 248.262 187.477 248.863 187.477 249.592V257H186.213V255.274H186.135C185.983 255.596 185.758 255.909 185.46 256.212C185.162 256.515 184.788 256.763 184.338 256.957C183.888 257.152 183.36 257.249 182.754 257.249ZM182.925 256.091C183.597 256.091 184.179 255.942 184.672 255.643C185.164 255.345 185.543 254.95 185.808 254.457C186.078 253.96 186.213 253.413 186.213 252.817V251.24C186.118 251.33 185.96 251.411 185.737 251.482C185.519 251.553 185.266 251.616 184.977 251.673C184.693 251.725 184.409 251.77 184.125 251.808C183.841 251.846 183.585 251.879 183.358 251.908C182.742 251.983 182.217 252.102 181.781 252.263C181.346 252.424 181.012 252.646 180.78 252.93C180.548 253.21 180.432 253.57 180.432 254.01C180.432 254.673 180.668 255.187 181.142 255.551C181.615 255.911 182.21 256.091 182.925 256.091ZM195.737 246.091V247.192H190.531V246.091H195.737ZM192.157 243.477H193.429V254.152C193.429 254.607 193.507 254.964 193.663 255.224C193.819 255.48 194.023 255.662 194.274 255.771C194.525 255.875 194.792 255.928 195.076 255.928C195.242 255.928 195.384 255.918 195.503 255.899C195.621 255.875 195.725 255.852 195.815 255.828L196.085 256.972C195.962 257.019 195.81 257.062 195.63 257.099C195.451 257.142 195.228 257.163 194.963 257.163C194.499 257.163 194.051 257.062 193.621 256.858C193.194 256.654 192.844 256.351 192.569 255.949C192.295 255.546 192.157 255.047 192.157 254.45V243.477ZM203.352 257.227C202.377 257.227 201.527 256.983 200.803 256.496C200.083 256.008 199.524 255.34 199.126 254.493C198.729 253.645 198.53 252.679 198.53 251.595C198.53 250.501 198.731 249.528 199.134 248.676C199.541 247.824 200.104 247.156 200.824 246.673C201.544 246.186 202.379 245.942 203.331 245.942C204.06 245.942 204.721 246.084 205.312 246.368C205.904 246.647 206.392 247.043 206.776 247.554C207.164 248.061 207.408 248.652 207.507 249.33H206.229C206.096 248.714 205.777 248.188 205.27 247.753C204.768 247.312 204.129 247.092 203.352 247.092C202.656 247.092 202.041 247.282 201.506 247.661C200.971 248.035 200.552 248.558 200.249 249.23C199.95 249.898 199.801 250.672 199.801 251.553C199.801 252.438 199.948 253.222 200.241 253.903C200.535 254.58 200.947 255.111 201.477 255.494C202.012 255.878 202.637 256.07 203.352 256.07C203.835 256.07 204.276 255.98 204.673 255.8C205.076 255.615 205.412 255.355 205.682 255.018C205.956 254.682 206.141 254.282 206.236 253.818H207.514C207.42 254.476 207.185 255.063 206.811 255.58C206.442 256.091 205.961 256.493 205.369 256.787C204.782 257.08 204.11 257.227 203.352 257.227ZM212.088 250.182V257H210.824V242.455H212.088V247.803H212.202C212.457 247.239 212.853 246.789 213.388 246.453C213.927 246.117 214.609 245.949 215.433 245.949C216.172 245.949 216.82 246.1 217.379 246.403C217.938 246.706 218.373 247.154 218.686 247.746C218.998 248.338 219.155 249.067 219.155 249.933V257H217.883V250.011C217.883 249.112 217.632 248.404 217.131 247.888C216.633 247.367 215.961 247.107 215.113 247.107C214.531 247.107 214.013 247.23 213.558 247.476C213.104 247.722 212.744 248.077 212.479 248.541C212.218 249 212.088 249.547 212.088 250.182ZM227.494 257.227C226.476 257.227 225.596 256.991 224.852 256.517C224.109 256.039 223.534 255.378 223.126 254.536C222.724 253.688 222.523 252.713 222.523 251.609C222.523 250.511 222.724 249.536 223.126 248.683C223.534 247.826 224.095 247.156 224.81 246.673C225.529 246.186 226.36 245.942 227.303 245.942C227.894 245.942 228.465 246.051 229.014 246.268C229.564 246.482 230.056 246.811 230.492 247.256C230.932 247.696 231.28 248.252 231.536 248.925C231.791 249.592 231.919 250.383 231.919 251.297V251.922H223.396V250.807H230.626C230.626 250.106 230.484 249.476 230.2 248.918C229.921 248.354 229.53 247.909 229.028 247.582C228.531 247.256 227.956 247.092 227.303 247.092C226.611 247.092 226.003 247.277 225.477 247.646C224.952 248.016 224.54 248.503 224.242 249.109C223.948 249.715 223.799 250.378 223.794 251.098V251.766C223.794 252.632 223.943 253.39 224.242 254.038C224.545 254.682 224.973 255.182 225.527 255.537C226.081 255.892 226.737 256.07 227.494 256.07C228.01 256.07 228.463 255.989 228.851 255.828C229.244 255.667 229.573 255.452 229.838 255.182C230.108 254.907 230.312 254.607 230.449 254.28L231.649 254.67C231.483 255.13 231.211 255.554 230.832 255.942C230.458 256.33 229.99 256.643 229.426 256.879C228.867 257.111 228.224 257.227 227.494 257.227ZM239.233 257.227C238.338 257.227 237.554 256.991 236.882 256.517C236.209 256.044 235.684 255.383 235.305 254.536C234.931 253.688 234.744 252.701 234.744 251.574C234.744 250.452 234.931 249.469 235.305 248.626C235.684 247.779 236.212 247.121 236.889 246.652C237.566 246.179 238.354 245.942 239.254 245.942C239.917 245.942 240.468 246.06 240.909 246.297C241.349 246.529 241.702 246.818 241.967 247.163C242.232 247.509 242.438 247.845 242.585 248.172H242.698V242.455H243.97V257H242.734V254.976H242.585C242.438 255.307 242.23 255.648 241.96 255.999C241.69 256.344 241.332 256.635 240.887 256.872C240.447 257.109 239.895 257.227 239.233 257.227ZM239.382 256.07C240.087 256.07 240.688 255.878 241.186 255.494C241.683 255.106 242.062 254.573 242.322 253.896C242.587 253.214 242.72 252.433 242.72 251.553C242.72 250.681 242.59 249.912 242.329 249.244C242.069 248.572 241.69 248.046 241.193 247.668C240.696 247.284 240.092 247.092 239.382 247.092C238.652 247.092 238.037 247.291 237.535 247.689C237.038 248.082 236.659 248.615 236.399 249.287C236.143 249.959 236.015 250.714 236.015 251.553C236.015 252.4 236.145 253.165 236.406 253.847C236.666 254.528 237.045 255.071 237.542 255.473C238.044 255.871 238.657 256.07 239.382 256.07ZM254.658 257V242.455H255.93V248.172H256.043C256.185 247.845 256.389 247.509 256.654 247.163C256.924 246.818 257.277 246.529 257.712 246.297C258.153 246.06 258.707 245.942 259.374 245.942C260.269 245.942 261.055 246.179 261.732 246.652C262.409 247.121 262.937 247.779 263.316 248.626C263.695 249.469 263.884 250.452 263.884 251.574C263.884 252.701 263.695 253.688 263.316 254.536C262.942 255.383 262.416 256.044 261.739 256.517C261.067 256.991 260.286 257.227 259.396 257.227C258.733 257.227 258.179 257.109 257.734 256.872C257.293 256.635 256.938 256.344 256.668 255.999C256.398 255.648 256.19 255.307 256.043 254.976H255.887V257H254.658ZM255.908 251.553C255.908 252.433 256.039 253.214 256.299 253.896C256.564 254.573 256.943 255.106 257.435 255.494C257.933 255.878 258.534 256.07 259.239 256.07C259.964 256.07 260.577 255.871 261.079 255.473C261.581 255.071 261.962 254.528 262.222 253.847C262.483 253.165 262.613 252.4 262.613 251.553C262.613 250.714 262.483 249.959 262.222 249.287C261.967 248.615 261.588 248.082 261.086 247.689C260.584 247.291 259.969 247.092 259.239 247.092C258.529 247.092 257.925 247.284 257.428 247.668C256.936 248.046 256.559 248.572 256.299 249.244C256.039 249.912 255.908 250.681 255.908 251.553ZM267.751 261.091C267.5 261.091 267.266 261.067 267.048 261.02C266.83 260.973 266.658 260.92 266.53 260.864L266.871 259.749C267.301 259.881 267.685 259.929 268.021 259.891C268.357 259.857 268.656 259.706 268.916 259.436C269.176 259.171 269.408 258.764 269.612 258.214L270.01 257.107L265.997 246.091H267.368L270.606 255.331H270.706L273.944 246.091H275.315L270.699 258.726C270.505 259.251 270.265 259.689 269.981 260.04C269.697 260.395 269.368 260.658 268.994 260.828C268.625 261.003 268.211 261.091 267.751 261.091ZM284.614 257V246.091H285.842V247.767H285.956C286.174 247.204 286.536 246.761 287.043 246.439C287.554 246.112 288.167 245.949 288.882 245.949C289.635 245.949 290.253 246.126 290.736 246.482C291.223 246.832 291.588 247.315 291.829 247.93H291.922C292.168 247.324 292.568 246.844 293.122 246.489C293.681 246.129 294.358 245.949 295.153 245.949C296.167 245.949 296.967 246.268 297.554 246.908C298.141 247.542 298.435 248.47 298.435 249.692V257H297.17V249.692C297.17 248.83 296.95 248.184 296.51 247.753C296.07 247.322 295.49 247.107 294.77 247.107C293.936 247.107 293.295 247.362 292.845 247.874C292.395 248.385 292.17 249.034 292.17 249.82V257H290.878V249.578C290.878 248.839 290.672 248.243 290.26 247.788C289.848 247.334 289.268 247.107 288.52 247.107C288.018 247.107 287.566 247.23 287.163 247.476C286.766 247.722 286.451 248.065 286.219 248.506C285.991 248.941 285.878 249.443 285.878 250.011V257H284.614ZM302.396 257V246.091H303.667V257H302.396ZM303.042 244.216C302.782 244.216 302.559 244.128 302.374 243.953C302.19 243.773 302.097 243.558 302.097 243.307C302.097 243.056 302.19 242.843 302.374 242.668C302.559 242.488 302.782 242.398 303.042 242.398C303.302 242.398 303.525 242.488 303.71 242.668C303.894 242.843 303.987 243.056 303.987 243.307C303.987 243.558 303.894 243.773 303.71 243.953C303.525 244.128 303.302 244.216 303.042 244.216ZM308.875 242.455V257H307.61V242.455H308.875ZM314.084 242.455V257H312.82V242.455H314.084ZM318.043 257V246.091H319.315V257H318.043ZM318.69 244.216C318.429 244.216 318.207 244.128 318.022 243.953C317.837 243.773 317.745 243.558 317.745 243.307C317.745 243.056 317.837 242.843 318.022 242.668C318.207 242.488 318.429 242.398 318.69 242.398C318.95 242.398 319.173 242.488 319.357 242.668C319.542 242.843 319.634 243.056 319.634 243.307C319.634 243.558 319.542 243.773 319.357 243.953C319.173 244.128 318.95 244.216 318.69 244.216ZM327.498 257.227C326.556 257.227 325.723 256.988 324.998 256.51C324.278 256.032 323.715 255.371 323.308 254.528C322.901 253.681 322.697 252.703 322.697 251.595C322.697 250.478 322.901 249.495 323.308 248.648C323.715 247.795 324.278 247.133 324.998 246.659C325.723 246.181 326.556 245.942 327.498 245.942C328.44 245.942 329.271 246.181 329.991 246.659C330.711 247.137 331.274 247.8 331.681 248.648C332.093 249.495 332.299 250.478 332.299 251.595C332.299 252.703 332.096 253.681 331.688 254.528C331.281 255.371 330.715 256.032 329.991 256.51C329.271 256.988 328.44 257.227 327.498 257.227ZM327.498 256.07C328.256 256.07 328.897 255.866 329.423 255.459C329.948 255.052 330.346 254.509 330.616 253.832C330.891 253.155 331.028 252.41 331.028 251.595C331.028 250.781 330.891 250.033 330.616 249.351C330.346 248.669 329.948 248.122 329.423 247.71C328.897 247.298 328.256 247.092 327.498 247.092C326.745 247.092 326.104 247.298 325.573 247.71C325.048 248.122 324.648 248.669 324.373 249.351C324.103 250.033 323.968 250.781 323.968 251.595C323.968 252.41 324.103 253.155 324.373 253.832C324.648 254.509 325.048 255.052 325.573 255.459C326.099 255.866 326.741 256.07 327.498 256.07ZM336.939 250.182V257H335.674V246.091H336.903V247.803H337.017C337.273 247.244 337.67 246.796 338.21 246.46C338.755 246.119 339.427 245.949 340.227 245.949C340.961 245.949 341.605 246.103 342.159 246.411C342.718 246.714 343.151 247.161 343.459 247.753C343.771 248.345 343.927 249.071 343.927 249.933V257H342.663V250.011C342.663 249.116 342.412 248.409 341.91 247.888C341.413 247.367 340.746 247.107 339.907 247.107C339.335 247.107 338.826 247.23 338.38 247.476C337.935 247.722 337.583 248.077 337.322 248.541C337.067 249 336.939 249.547 336.939 250.182ZM355.186 248.484L354.028 248.811C353.915 248.484 353.754 248.188 353.545 247.923C353.337 247.658 353.065 247.447 352.729 247.291C352.397 247.135 351.985 247.057 351.493 247.057C350.754 247.057 350.148 247.232 349.675 247.582C349.201 247.933 348.964 248.385 348.964 248.939C348.964 249.408 349.125 249.789 349.447 250.082C349.774 250.371 350.276 250.601 350.953 250.771L352.601 251.176C353.515 251.399 354.199 251.751 354.653 252.234C355.113 252.717 355.342 253.323 355.342 254.053C355.342 254.668 355.172 255.215 354.831 255.693C354.49 256.171 354.014 256.548 353.403 256.822C352.797 257.092 352.094 257.227 351.294 257.227C350.229 257.227 349.35 256.988 348.659 256.51C347.968 256.027 347.525 255.331 347.331 254.422L348.545 254.124C348.702 254.772 349.007 255.262 349.462 255.594C349.921 255.925 350.525 256.091 351.273 256.091C352.111 256.091 352.781 255.904 353.283 255.53C353.785 255.151 354.036 254.678 354.036 254.109C354.036 253.669 353.889 253.3 353.595 253.001C353.302 252.698 352.857 252.476 352.26 252.334L350.477 251.908C349.53 251.68 348.83 251.321 348.375 250.828C347.92 250.336 347.693 249.725 347.693 248.996C347.693 248.394 347.857 247.866 348.183 247.412C348.51 246.953 348.96 246.593 349.533 246.332C350.106 246.072 350.759 245.942 351.493 245.942C352.492 245.942 353.29 246.169 353.886 246.624C354.488 247.073 354.921 247.694 355.186 248.484ZM359.719 257.107C359.44 257.107 359.198 257.007 358.995 256.808C358.796 256.605 358.696 256.363 358.696 256.084C358.696 255.8 358.796 255.558 358.995 255.359C359.198 255.161 359.44 255.061 359.719 255.061C360.003 255.061 360.245 255.161 360.443 255.359C360.642 255.558 360.742 255.8 360.742 256.084C360.742 256.268 360.694 256.439 360.6 256.595C360.51 256.751 360.387 256.877 360.23 256.972C360.079 257.062 359.908 257.107 359.719 257.107Z" fill="#F9AC02"/>
<path d="M209.833 89.5415V92.929C209.825 93.6428 209.634 94.3426 209.278 94.9613C208.922 95.58 208.413 96.0969 207.8 96.4623C206.498 97.4265 205.439 98.6811 204.707 100.126C203.975 101.571 203.59 103.167 203.583 104.787M218.167 89.5415V92.929C218.175 93.6428 218.366 94.3426 218.722 94.9613C219.078 95.58 219.587 96.0969 220.2 96.4623C221.502 97.4265 222.561 98.6811 223.293 100.126C224.025 101.571 224.41 103.167 224.417 104.787M226.5 77.7498H229.625C231.006 77.7498 232.331 77.2011 233.308 76.2244C234.285 75.2476 234.833 73.9228 234.833 72.5415C234.833 71.1602 234.285 69.8354 233.308 68.8587C232.331 67.8819 231.006 67.3332 229.625 67.3332H226.5M226.5 77.7498C226.5 81.065 225.183 84.2445 222.839 86.5887C220.495 88.9329 217.315 90.2498 214 90.2498C210.685 90.2498 207.505 88.9329 205.161 86.5887C202.817 84.2445 201.5 81.065 201.5 77.7498M226.5 77.7498V65.2498C226.5 64.6973 226.281 64.1674 225.89 63.7767C225.499 63.386 224.969 63.1665 224.417 63.1665H203.583C203.031 63.1665 202.501 63.386 202.11 63.7767C201.719 64.1674 201.5 64.6973 201.5 65.2498V77.7498M197.333 104.833H230.667M201.5 77.7498H198.375C196.994 77.7498 195.669 77.2011 194.692 76.2244C193.715 75.2476 193.167 73.9228 193.167 72.5415C193.167 71.1602 193.715 69.8354 194.692 68.8587C195.669 67.8819 196.994 67.3332 198.375 67.3332H201.5" stroke="#F9AC02" stroke-width="2" stroke-linecap="round" stroke-linejoin="round"/>
<defs>
<filter id="filter0_d_36_1619" x="0.8" y="0.8" width="426.4" height="327.4" filterUnits="userSpaceOnUse" color-interpolation-filters="sRGB">
<feFlood flood-opacity="0" result="BackgroundImageFix"/>
<feColorMatrix in="SourceAlpha" type="matrix" values="0 0 0 0 0 0 0 0 0 0 0 0 0 0 0 0 0 0 127 0" result="hardAlpha"/>
<feOffset dy="4"/>
<feGaussianBlur stdDeviation="6.6"/>
<feComposite in2="hardAlpha" operator="out"/>
<feColorMatrix type="matrix" values="0 0 0 0 0 0 0 0 0 0 0 0 0 0 0 0 0 0 0.49 0"/>
<feBlend mode="normal" in2="BackgroundImageFix" result="effect1_dropShadow_36_1619"/>
<feBlend mode="normal" in="SourceGraphic" in2="effect1_dropShadow_36_1619" result="shape"/>
</filter>
<linearGradient id="paint0_linear_36_1619" x1="-14" y1="-6.99999" x2="400.74" y2="-8.63544" gradientUnits="userSpaceOnUse">
<stop stop-color="#F9AC02"/>
<stop offset="1" stop-color="#666666"/>
</linearGradient>
</defs>
</svg>
