<svg width="30" height="31" viewBox="0 0 30 31" fill="none" xmlns="http://www.w3.org/2000/svg">
<path d="M12.5 18.825V20.8575C12.4953 21.2858 12.3806 21.7057 12.167 22.0769C11.9533 22.4481 11.6479 22.7582 11.28 22.9775C10.4989 23.556 9.86355 24.3087 9.42436 25.1758C8.98516 26.0429 8.75426 27.0005 8.75 27.9725M17.5 18.825V20.8575C17.5047 21.2858 17.6194 21.7057 17.833 22.0769C18.0467 22.4481 18.3521 22.7582 18.72 22.9775C19.5011 23.556 20.1364 24.3087 20.5756 25.1758C21.0148 26.0429 21.2457 27.0005 21.25 27.9725M22.5 11.75H24.375C25.2038 11.75 25.9987 11.4208 26.5847 10.8347C27.1708 10.2487 27.5 9.4538 27.5 8.625C27.5 7.7962 27.1708 7.00134 26.5847 6.41529C25.9987 5.82924 25.2038 5.5 24.375 5.5H22.5M22.5 11.75C22.5 13.7391 21.7098 15.6468 20.3033 17.0533C18.8968 18.4598 16.9891 19.25 15 19.25C13.0109 19.25 11.1032 18.4598 9.6967 17.0533C8.29018 15.6468 7.5 13.7391 7.5 11.75M22.5 11.75V4.25C22.5 3.91848 22.3683 3.60054 22.1339 3.36612C21.8995 3.1317 21.5815 3 21.25 3H8.75C8.41848 3 8.10054 3.1317 7.86612 3.36612C7.6317 3.60054 7.5 3.91848 7.5 4.25V11.75M5 28H25M7.5 11.75H5.625C4.7962 11.75 4.00134 11.4208 3.41529 10.8347C2.82924 10.2487 2.5 9.4538 2.5 8.625C2.5 7.7962 2.82924 7.00134 3.41529 6.41529C4.00134 5.82924 4.7962 5.5 5.625 5.5H7.5" stroke="#F9AC02" stroke-width="2" stroke-linecap="round" stroke-linejoin="round"/>
</svg>
