<svg width="428" height="329" viewBox="0 0 428 329" fill="none" xmlns="http://www.w3.org/2000/svg">
<g filter="url(#filter0_d_32_1344)">
<rect x="14" y="10" width="400" height="301" rx="26" fill="#0E0E0E"/>
<rect x="14.5" y="10.5" width="399" height="300" rx="25.5" stroke="url(#paint0_linear_32_1344)" stroke-opacity="0.56"/>
</g>
<path d="M92.0927 149V134.455H101.723V136.99H95.168V140.456H101.084V142.991H95.168V149H92.0927ZM114.376 134.455H117.452V143.901C117.452 144.961 117.198 145.889 116.692 146.685C116.19 147.48 115.487 148.1 114.582 148.545C113.678 148.986 112.624 149.206 111.422 149.206C110.214 149.206 109.159 148.986 108.254 148.545C107.35 148.1 106.647 147.48 106.145 146.685C105.643 145.889 105.392 144.961 105.392 143.901V134.455H108.467V143.638C108.467 144.192 108.588 144.684 108.829 145.115C109.076 145.546 109.421 145.884 109.866 146.131C110.311 146.377 110.83 146.5 111.422 146.5C112.018 146.5 112.537 146.377 112.977 146.131C113.422 145.884 113.766 145.546 114.007 145.115C114.253 144.684 114.376 144.192 114.376 143.638V134.455ZM133.748 134.455V149H131.092L124.764 139.845H124.657V149H121.582V134.455H124.281L130.559 143.602H130.687V134.455H133.748ZM143.045 149H137.889V134.455H143.088C144.551 134.455 145.81 134.746 146.866 135.328C147.922 135.906 148.734 136.737 149.302 137.821C149.875 138.905 150.162 140.203 150.162 141.713C150.162 143.228 149.875 144.53 149.302 145.619C148.734 146.708 147.917 147.544 146.852 148.126C145.791 148.709 144.522 149 143.045 149ZM140.964 146.365H142.917C143.826 146.365 144.591 146.204 145.211 145.882C145.836 145.555 146.305 145.051 146.618 144.369C146.935 143.683 147.093 142.797 147.093 141.713C147.093 140.638 146.935 139.76 146.618 139.078C146.305 138.396 145.839 137.894 145.218 137.572C144.598 137.25 143.833 137.089 142.924 137.089H140.964V146.365ZM157.115 134.455V149H154.04V134.455H157.115ZM173.411 134.455V149H170.755L164.427 139.845H164.32V149H161.245V134.455H163.944L170.222 143.602H170.35V134.455H173.411ZM187.197 139.156C187.098 138.811 186.958 138.505 186.778 138.24C186.598 137.97 186.378 137.743 186.117 137.558C185.862 137.369 185.568 137.224 185.237 137.125C184.91 137.026 184.548 136.976 184.15 136.976C183.407 136.976 182.753 137.161 182.19 137.53C181.631 137.899 181.196 138.437 180.883 139.142C180.571 139.843 180.414 140.7 180.414 141.713C180.414 142.726 180.568 143.588 180.876 144.298C181.184 145.009 181.619 145.551 182.183 145.925C182.746 146.294 183.411 146.479 184.179 146.479C184.875 146.479 185.469 146.356 185.961 146.109C186.458 145.858 186.837 145.506 187.098 145.051C187.363 144.597 187.495 144.059 187.495 143.439L188.12 143.531H184.37V141.216H190.457V143.048C190.457 144.327 190.187 145.425 189.647 146.344C189.107 147.258 188.364 147.963 187.417 148.46C186.47 148.953 185.386 149.199 184.164 149.199C182.801 149.199 181.603 148.898 180.571 148.297C179.538 147.691 178.733 146.831 178.156 145.719C177.583 144.601 177.296 143.276 177.296 141.741C177.296 140.562 177.467 139.511 177.808 138.588C178.153 137.66 178.636 136.874 179.257 136.23C179.877 135.586 180.599 135.096 181.423 134.76C182.247 134.424 183.139 134.256 184.1 134.256C184.924 134.256 185.691 134.376 186.402 134.618C187.112 134.855 187.741 135.191 188.291 135.626C188.845 136.062 189.297 136.58 189.647 137.182C189.998 137.778 190.223 138.437 190.322 139.156H187.197ZM200.596 149V134.455H206.42C207.49 134.455 208.382 134.613 209.097 134.93C209.812 135.248 210.35 135.688 210.709 136.251C211.069 136.81 211.249 137.454 211.249 138.183C211.249 138.751 211.136 139.251 210.908 139.682C210.681 140.108 210.369 140.458 209.971 140.733C209.578 141.003 209.128 141.195 208.621 141.308V141.45C209.175 141.474 209.694 141.63 210.177 141.919C210.664 142.208 211.06 142.613 211.363 143.134C211.666 143.65 211.817 144.265 211.817 144.98C211.817 145.752 211.626 146.441 211.242 147.047C210.863 147.648 210.302 148.124 209.559 148.474C208.816 148.825 207.899 149 206.81 149H200.596ZM203.671 146.486H206.178C207.035 146.486 207.66 146.322 208.053 145.996C208.446 145.664 208.643 145.224 208.643 144.675C208.643 144.272 208.546 143.917 208.352 143.609C208.157 143.302 207.88 143.06 207.521 142.885C207.165 142.71 206.742 142.622 206.249 142.622H203.671V146.486ZM203.671 140.541H205.951C206.372 140.541 206.746 140.468 207.073 140.321C207.405 140.17 207.665 139.956 207.854 139.682C208.048 139.407 208.146 139.078 208.146 138.695C208.146 138.169 207.959 137.745 207.584 137.423C207.215 137.101 206.69 136.94 206.008 136.94H203.671V140.541ZM214.566 134.455H218.011L221.328 140.719H221.47L224.786 134.455H228.231L222.926 143.858V149H219.872V143.858L214.566 134.455ZM237.74 149V134.455H247.37V136.99H240.815V140.456H246.731V142.991H240.815V149H237.74ZM251.729 149H248.434L253.455 134.455H257.418L262.433 149H259.137L255.494 137.778H255.38L251.729 149ZM251.524 143.283H259.308V145.683H251.524V143.283ZM273.342 138.638C273.285 138.065 273.041 137.62 272.61 137.303C272.18 136.985 271.595 136.827 270.856 136.827C270.354 136.827 269.93 136.898 269.585 137.04C269.239 137.177 268.974 137.369 268.789 137.615C268.609 137.861 268.519 138.141 268.519 138.453C268.51 138.714 268.564 138.941 268.683 139.135C268.806 139.329 268.974 139.497 269.187 139.639C269.4 139.777 269.646 139.897 269.926 140.001C270.205 140.101 270.503 140.186 270.821 140.257L272.127 140.57C272.762 140.712 273.344 140.901 273.875 141.138C274.405 141.375 274.864 141.666 275.252 142.011C275.641 142.357 275.941 142.764 276.154 143.233C276.372 143.702 276.484 144.239 276.488 144.845C276.484 145.735 276.256 146.507 275.806 147.161C275.361 147.809 274.717 148.313 273.875 148.673C273.037 149.028 272.026 149.206 270.842 149.206C269.668 149.206 268.645 149.026 267.774 148.666C266.907 148.306 266.23 147.774 265.743 147.068C265.26 146.358 265.006 145.48 264.983 144.433H267.958C267.992 144.921 268.131 145.328 268.377 145.655C268.628 145.977 268.962 146.221 269.379 146.386C269.8 146.547 270.276 146.628 270.806 146.628C271.327 146.628 271.779 146.552 272.163 146.401C272.551 146.249 272.852 146.038 273.065 145.768C273.278 145.499 273.385 145.188 273.385 144.838C273.385 144.511 273.287 144.237 273.093 144.014C272.904 143.792 272.625 143.602 272.255 143.446C271.891 143.29 271.443 143.148 270.913 143.02L269.329 142.622C268.103 142.324 267.135 141.857 266.424 141.223C265.714 140.589 265.361 139.734 265.366 138.659C265.361 137.778 265.596 137.009 266.069 136.351C266.547 135.693 267.203 135.179 268.037 134.81C268.87 134.44 269.817 134.256 270.877 134.256C271.957 134.256 272.899 134.44 273.704 134.81C274.514 135.179 275.144 135.693 275.593 136.351C276.043 137.009 276.275 137.771 276.289 138.638H273.342ZM280.157 149V134.455H283.232V140.456H289.475V134.455H292.543V149H289.475V142.991H283.232V149H280.157ZM299.754 134.455V149H296.679V134.455H299.754ZM317.251 141.727C317.251 143.313 316.95 144.663 316.349 145.776C315.752 146.888 314.938 147.738 313.905 148.325C312.878 148.908 311.723 149.199 310.44 149.199C309.147 149.199 307.987 148.905 306.959 148.318C305.932 147.731 305.12 146.881 304.523 145.768C303.927 144.656 303.628 143.309 303.628 141.727C303.628 140.141 303.927 138.792 304.523 137.679C305.12 136.566 305.932 135.719 306.959 135.136C307.987 134.549 309.147 134.256 310.44 134.256C311.723 134.256 312.878 134.549 313.905 135.136C314.938 135.719 315.752 136.566 316.349 137.679C316.95 138.792 317.251 140.141 317.251 141.727ZM314.133 141.727C314.133 140.7 313.979 139.833 313.671 139.128C313.368 138.422 312.94 137.887 312.386 137.523C311.832 137.158 311.183 136.976 310.44 136.976C309.696 136.976 309.047 137.158 308.494 137.523C307.94 137.887 307.509 138.422 307.201 139.128C306.898 139.833 306.746 140.7 306.746 141.727C306.746 142.755 306.898 143.621 307.201 144.327C307.509 145.032 307.94 145.567 308.494 145.932C309.047 146.296 309.696 146.479 310.44 146.479C311.183 146.479 311.832 146.296 312.386 145.932C312.94 145.567 313.368 145.032 313.671 144.327C313.979 143.621 314.133 142.755 314.133 141.727ZM333.295 134.455V149H330.639L324.31 139.845H324.204V149H321.129V134.455H323.828L330.106 143.602H330.234V134.455H333.295ZM92.5404 173V158.455H102.342V160.99H95.6157V164.456H101.837V166.991H95.6157V170.464H102.37V173H92.5404ZM118.553 158.455V173H115.896L109.568 163.845H109.462V173H106.386V158.455H109.085L115.364 167.602H115.492V158.455H118.553ZM122.14 160.99V158.455H134.086V160.99H129.632V173H126.593V160.99H122.14ZM137.653 173V158.455H143.392C144.49 158.455 145.427 158.651 146.204 159.044C146.985 159.432 147.579 159.984 147.987 160.699C148.399 161.409 148.605 162.245 148.605 163.206C148.605 164.172 148.396 165.003 147.98 165.699C147.563 166.39 146.959 166.92 146.169 167.29C145.383 167.659 144.431 167.844 143.313 167.844H139.471V165.372H142.816C143.403 165.372 143.891 165.292 144.279 165.131C144.668 164.97 144.956 164.728 145.146 164.406C145.34 164.084 145.437 163.684 145.437 163.206C145.437 162.723 145.34 162.316 145.146 161.984C144.956 161.653 144.665 161.402 144.272 161.232C143.884 161.056 143.394 160.969 142.802 160.969H140.728V173H137.653ZM145.508 166.381L149.123 173H145.728L142.191 166.381H145.508ZM152.378 173V158.455H162.179V160.99H155.453V164.456H161.675V166.991H155.453V170.464H162.207V173H152.378ZM166.224 173V158.455H171.963C173.066 158.455 174.006 158.665 174.782 159.087C175.559 159.503 176.151 160.083 176.558 160.827C176.97 161.565 177.176 162.418 177.176 163.384C177.176 164.349 176.967 165.202 176.551 165.94C176.134 166.679 175.53 167.254 174.74 167.666C173.954 168.078 173.002 168.284 171.884 168.284H168.227V165.82H171.387C171.979 165.82 172.467 165.718 172.85 165.514C173.239 165.306 173.527 165.019 173.717 164.655C173.911 164.286 174.008 163.862 174.008 163.384C174.008 162.901 173.911 162.479 173.717 162.119C173.527 161.755 173.239 161.473 172.85 161.274C172.462 161.071 171.97 160.969 171.373 160.969H169.299V173H166.224ZM180.773 173V158.455H186.512C187.61 158.455 188.548 158.651 189.324 159.044C190.106 159.432 190.7 159.984 191.107 160.699C191.519 161.409 191.725 162.245 191.725 163.206C191.725 164.172 191.517 165.003 191.1 165.699C190.683 166.39 190.08 166.92 189.289 167.29C188.503 167.659 187.551 167.844 186.434 167.844H182.591V165.372H185.937C186.524 165.372 187.011 165.292 187.4 165.131C187.788 164.97 188.077 164.728 188.266 164.406C188.46 164.084 188.557 163.684 188.557 163.206C188.557 162.723 188.46 162.316 188.266 161.984C188.077 161.653 187.785 161.402 187.393 161.232C187.004 161.056 186.514 160.969 185.922 160.969H183.848V173H180.773ZM188.628 166.381L192.243 173H188.848L185.312 166.381H188.628ZM195.498 173V158.455H205.299V160.99H198.573V164.456H204.795V166.991H198.573V170.464H205.328V173H195.498ZM221.51 158.455V173H218.854L212.526 163.845H212.42V173H209.344V158.455H212.043L218.322 167.602H218.449V158.455H221.51ZM225.651 173V158.455H235.452V160.99H228.727V164.456H234.948V166.991H228.727V170.464H235.481V173H225.651ZM248.482 158.455H251.557V167.901C251.557 168.961 251.304 169.889 250.797 170.685C250.295 171.48 249.592 172.1 248.688 172.545C247.783 172.986 246.73 173.206 245.527 173.206C244.32 173.206 243.264 172.986 242.36 172.545C241.455 172.1 240.752 171.48 240.25 170.685C239.748 169.889 239.497 168.961 239.497 167.901V158.455H242.573V167.638C242.573 168.192 242.693 168.684 242.935 169.115C243.181 169.546 243.527 169.884 243.972 170.131C244.417 170.377 244.935 170.5 245.527 170.5C246.124 170.5 246.642 170.377 247.083 170.131C247.528 169.884 247.871 169.546 248.112 169.115C248.359 168.684 248.482 168.192 248.482 167.638V158.455ZM255.687 173V158.455H261.426C262.524 158.455 263.462 158.651 264.238 159.044C265.02 159.432 265.614 159.984 266.021 160.699C266.433 161.409 266.639 162.245 266.639 163.206C266.639 164.172 266.431 165.003 266.014 165.699C265.597 166.39 264.994 166.92 264.203 167.29C263.417 167.659 262.465 167.844 261.348 167.844H257.505V165.372H260.851C261.438 165.372 261.925 165.292 262.314 165.131C262.702 164.97 262.991 164.728 263.18 164.406C263.374 164.084 263.471 163.684 263.471 163.206C263.471 162.723 263.374 162.316 263.18 161.984C262.991 161.653 262.7 161.402 262.307 161.232C261.918 161.056 261.428 160.969 260.836 160.969H258.763V173H255.687ZM263.542 166.381L267.157 173H263.763L260.226 166.381H263.542ZM276.641 173V158.455H286.272V160.99H279.716V164.456H285.633V166.991H279.716V173H276.641ZM298.925 158.455H302V167.901C302 168.961 301.747 169.889 301.24 170.685C300.738 171.48 300.035 172.1 299.131 172.545C298.226 172.986 297.173 173.206 295.97 173.206C294.763 173.206 293.707 172.986 292.803 172.545C291.898 172.1 291.195 171.48 290.693 170.685C290.191 169.889 289.94 168.961 289.94 167.901V158.455H293.016V167.638C293.016 168.192 293.136 168.684 293.378 169.115C293.624 169.546 293.97 169.884 294.415 170.131C294.86 170.377 295.378 170.5 295.97 170.5C296.567 170.5 297.085 170.377 297.526 170.131C297.971 169.884 298.314 169.546 298.555 169.115C298.802 168.684 298.925 168.192 298.925 167.638V158.455ZM318.296 158.455V173H315.64L309.312 163.845H309.206V173H306.13V158.455H308.829L315.107 167.602H315.235V158.455H318.296ZM327.594 173H322.437V158.455H327.636C329.099 158.455 330.359 158.746 331.415 159.328C332.47 159.906 333.282 160.737 333.851 161.821C334.424 162.905 334.71 164.203 334.71 165.713C334.71 167.228 334.424 168.53 333.851 169.619C333.282 170.708 332.466 171.544 331.4 172.126C330.34 172.709 329.071 173 327.594 173ZM325.513 170.365H327.466C328.375 170.365 329.139 170.204 329.76 169.882C330.385 169.555 330.853 169.051 331.166 168.369C331.483 167.683 331.642 166.797 331.642 165.713C331.642 164.638 331.483 163.76 331.166 163.078C330.853 162.396 330.387 161.894 329.767 161.572C329.147 161.25 328.382 161.089 327.473 161.089H325.513V170.365Z" fill="white"/>
<path d="M54.5066 195.648V194.455H65.0535V195.648H60.4441V209H59.116V195.648H54.5066ZM73.8282 204.831V198.091H75.0924V209H73.8282V207.189H73.7288C73.4731 207.748 73.0683 208.214 72.5143 208.588C71.9603 208.957 71.2832 209.142 70.483 209.142C69.787 209.142 69.1691 208.991 68.6293 208.688C68.0896 208.38 67.6658 207.93 67.358 207.338C67.0503 206.746 66.8964 206.019 66.8964 205.158V198.091H68.1606V205.08C68.1606 205.932 68.4115 206.618 68.9134 207.139C69.4153 207.655 70.0593 207.913 70.8452 207.913C71.3377 207.913 71.8112 207.795 72.2657 207.558C72.7202 207.321 73.0943 206.976 73.3879 206.521C73.6814 206.062 73.8282 205.499 73.8282 204.831ZM79.0394 209V198.091H80.268V199.767H80.3604C80.5782 199.218 80.957 198.775 81.4967 198.439C82.0412 198.098 82.6568 197.928 83.3433 197.928C83.4475 197.928 83.5635 197.93 83.6913 197.935C83.8192 197.939 83.9257 197.944 84.0109 197.949V199.234C83.9541 199.225 83.8547 199.211 83.7126 199.192C83.5706 199.173 83.4167 199.163 83.251 199.163C82.6828 199.163 82.1762 199.284 81.7311 199.526C81.2908 199.762 80.9428 200.091 80.6871 200.513C80.4314 200.934 80.3036 201.415 80.3036 201.955V209H79.0394ZM88.0325 202.182V209H86.7683V198.091H87.997V199.803H88.1106C88.3663 199.244 88.764 198.796 89.3038 198.46C89.8483 198.119 90.5206 197.949 91.3208 197.949C92.0547 197.949 92.6987 198.103 93.2526 198.411C93.8113 198.714 94.2446 199.161 94.5523 199.753C94.8648 200.345 95.0211 201.071 95.0211 201.933V209H93.7569V202.011C93.7569 201.116 93.5059 200.409 93.0041 199.888C92.5069 199.367 91.8393 199.107 91.0012 199.107C90.4283 199.107 89.9193 199.23 89.4742 199.476C89.0291 199.722 88.6764 200.077 88.416 200.541C88.1603 201 88.0325 201.547 88.0325 202.182ZM106.056 213.091C105.805 213.091 105.571 213.067 105.353 213.02C105.135 212.973 104.962 212.92 104.834 212.864L105.175 211.749C105.606 211.881 105.99 211.929 106.326 211.891C106.662 211.857 106.96 211.706 107.221 211.436C107.481 211.171 107.713 210.764 107.917 210.214L108.314 209.107L104.302 198.091H105.672L108.911 207.331H109.011L112.249 198.091H113.62L109.003 210.726C108.809 211.251 108.57 211.689 108.286 212.04C108.002 212.395 107.673 212.658 107.299 212.828C106.93 213.003 106.515 213.091 106.056 213.091ZM120.543 209.227C119.6 209.227 118.767 208.988 118.043 208.51C117.323 208.032 116.76 207.371 116.352 206.528C115.945 205.681 115.742 204.703 115.742 203.595C115.742 202.478 115.945 201.495 116.352 200.648C116.76 199.795 117.323 199.133 118.043 198.659C118.767 198.181 119.6 197.942 120.543 197.942C121.485 197.942 122.316 198.181 123.036 198.659C123.755 199.137 124.319 199.8 124.726 200.648C125.138 201.495 125.344 202.478 125.344 203.595C125.344 204.703 125.14 205.681 124.733 206.528C124.326 207.371 123.76 208.032 123.036 208.51C122.316 208.988 121.485 209.227 120.543 209.227ZM120.543 208.07C121.3 208.07 121.942 207.866 122.467 207.459C122.993 207.052 123.391 206.509 123.661 205.832C123.935 205.155 124.073 204.41 124.073 203.595C124.073 202.781 123.935 202.033 123.661 201.351C123.391 200.669 122.993 200.122 122.467 199.71C121.942 199.298 121.3 199.092 120.543 199.092C119.79 199.092 119.148 199.298 118.618 199.71C118.092 200.122 117.692 200.669 117.418 201.351C117.148 202.033 117.013 202.781 117.013 203.595C117.013 204.41 117.148 205.155 117.418 205.832C117.692 206.509 118.092 207.052 118.618 207.459C119.144 207.866 119.785 208.07 120.543 208.07ZM135.651 204.831V198.091H136.915V209H135.651V207.189H135.551C135.296 207.748 134.891 208.214 134.337 208.588C133.783 208.957 133.106 209.142 132.306 209.142C131.61 209.142 130.992 208.991 130.452 208.688C129.912 208.38 129.488 207.93 129.181 207.338C128.873 206.746 128.719 206.019 128.719 205.158V198.091H129.983V205.08C129.983 205.932 130.234 206.618 130.736 207.139C131.238 207.655 131.882 207.913 132.668 207.913C133.16 207.913 133.634 207.795 134.088 207.558C134.543 207.321 134.917 206.976 135.211 206.521C135.504 206.062 135.651 205.499 135.651 204.831ZM140.862 209V198.091H142.091V199.767H142.183C142.401 199.218 142.78 198.775 143.319 198.439C143.864 198.098 144.479 197.928 145.166 197.928C145.27 197.928 145.386 197.93 145.514 197.935C145.642 197.939 145.748 197.944 145.834 197.949V199.234C145.777 199.225 145.677 199.211 145.535 199.192C145.393 199.173 145.239 199.163 145.074 199.163C144.505 199.163 143.999 199.284 143.554 199.526C143.113 199.762 142.765 200.091 142.51 200.513C142.254 200.934 142.126 201.415 142.126 201.955V209H140.862ZM158.743 209.227C157.849 209.227 157.065 208.991 156.393 208.517C155.72 208.044 155.195 207.383 154.816 206.536C154.442 205.688 154.255 204.701 154.255 203.574C154.255 202.452 154.442 201.469 154.816 200.626C155.195 199.779 155.723 199.121 156.4 198.652C157.077 198.179 157.865 197.942 158.765 197.942C159.428 197.942 159.979 198.06 160.42 198.297C160.86 198.529 161.213 198.818 161.478 199.163C161.743 199.509 161.949 199.845 162.096 200.172H162.209V194.455H163.481V209H162.245V206.976H162.096C161.949 207.307 161.741 207.648 161.471 207.999C161.201 208.344 160.843 208.635 160.398 208.872C159.958 209.109 159.406 209.227 158.743 209.227ZM158.893 208.07C159.598 208.07 160.199 207.878 160.697 207.494C161.194 207.106 161.573 206.573 161.833 205.896C162.098 205.214 162.231 204.433 162.231 203.553C162.231 202.681 162.1 201.912 161.84 201.244C161.58 200.572 161.201 200.046 160.704 199.668C160.207 199.284 159.603 199.092 158.893 199.092C158.163 199.092 157.548 199.291 157.046 199.689C156.549 200.082 156.17 200.615 155.91 201.287C155.654 201.959 155.526 202.714 155.526 203.553C155.526 204.4 155.656 205.165 155.917 205.847C156.177 206.528 156.556 207.071 157.053 207.473C157.555 207.871 158.168 208.07 158.893 208.07ZM167.682 209V198.091H168.91V199.767H169.003C169.22 199.218 169.599 198.775 170.139 198.439C170.683 198.098 171.299 197.928 171.986 197.928C172.09 197.928 172.206 197.93 172.334 197.935C172.461 197.939 172.568 197.944 172.653 197.949V199.234C172.596 199.225 172.497 199.211 172.355 199.192C172.213 199.173 172.059 199.163 171.893 199.163C171.325 199.163 170.818 199.284 170.373 199.526C169.933 199.762 169.585 200.091 169.329 200.513C169.074 200.934 168.946 201.415 168.946 201.955V209H167.682ZM179.489 209.227C178.471 209.227 177.59 208.991 176.847 208.517C176.104 208.039 175.528 207.378 175.121 206.536C174.719 205.688 174.517 204.713 174.517 203.609C174.517 202.511 174.719 201.536 175.121 200.683C175.528 199.826 176.089 199.156 176.804 198.673C177.524 198.186 178.355 197.942 179.297 197.942C179.889 197.942 180.46 198.051 181.009 198.268C181.558 198.482 182.05 198.811 182.486 199.256C182.926 199.696 183.274 200.252 183.53 200.925C183.786 201.592 183.914 202.383 183.914 203.297V203.922H175.391V202.807H182.621C182.621 202.106 182.479 201.476 182.195 200.918C181.916 200.354 181.525 199.909 181.023 199.582C180.526 199.256 179.951 199.092 179.297 199.092C178.606 199.092 177.997 199.277 177.472 199.646C176.946 200.016 176.534 200.503 176.236 201.109C175.943 201.715 175.793 202.378 175.789 203.098V203.766C175.789 204.632 175.938 205.39 176.236 206.038C176.539 206.682 176.968 207.182 177.522 207.537C178.076 207.892 178.731 208.07 179.489 208.07C180.005 208.07 180.457 207.989 180.845 207.828C181.238 207.667 181.568 207.452 181.833 207.182C182.103 206.907 182.306 206.607 182.443 206.28L183.644 206.67C183.478 207.13 183.206 207.554 182.827 207.942C182.453 208.33 181.984 208.643 181.421 208.879C180.862 209.111 180.218 209.227 179.489 209.227ZM190.346 209.249C189.688 209.249 189.087 209.121 188.542 208.865C187.998 208.605 187.565 208.231 187.243 207.743C186.921 207.25 186.76 206.654 186.76 205.953C186.76 205.413 186.862 204.959 187.065 204.589C187.269 204.22 187.558 203.917 187.932 203.68C188.306 203.444 188.748 203.257 189.26 203.119C189.771 202.982 190.335 202.875 190.95 202.8C191.561 202.724 192.077 202.658 192.498 202.601C192.925 202.544 193.249 202.454 193.471 202.331C193.694 202.208 193.805 202.009 193.805 201.734V201.479C193.805 200.735 193.583 200.151 193.138 199.724C192.697 199.294 192.063 199.078 191.234 199.078C190.448 199.078 189.807 199.251 189.309 199.597C188.817 199.942 188.471 200.349 188.273 200.818L187.072 200.385C187.318 199.788 187.659 199.312 188.095 198.957C188.531 198.598 189.018 198.339 189.558 198.183C190.098 198.022 190.645 197.942 191.199 197.942C191.615 197.942 192.049 197.996 192.498 198.105C192.953 198.214 193.374 198.403 193.763 198.673C194.151 198.938 194.466 199.31 194.707 199.788C194.949 200.262 195.069 200.863 195.069 201.592V209H193.805V207.274H193.727C193.576 207.596 193.351 207.909 193.052 208.212C192.754 208.515 192.38 208.763 191.93 208.957C191.48 209.152 190.952 209.249 190.346 209.249ZM190.517 208.091C191.189 208.091 191.772 207.942 192.264 207.643C192.756 207.345 193.135 206.95 193.4 206.457C193.67 205.96 193.805 205.413 193.805 204.817V203.24C193.71 203.33 193.552 203.411 193.329 203.482C193.112 203.553 192.858 203.616 192.569 203.673C192.285 203.725 192.001 203.77 191.717 203.808C191.433 203.846 191.177 203.879 190.95 203.908C190.335 203.983 189.809 204.102 189.373 204.263C188.938 204.424 188.604 204.646 188.372 204.93C188.14 205.21 188.024 205.57 188.024 206.01C188.024 206.673 188.261 207.187 188.734 207.551C189.208 207.911 189.802 208.091 190.517 208.091ZM199.032 209V198.091H200.261V199.767H200.375C200.592 199.204 200.955 198.761 201.461 198.439C201.973 198.112 202.586 197.949 203.301 197.949C204.054 197.949 204.672 198.126 205.154 198.482C205.642 198.832 206.007 199.315 206.248 199.93H206.341C206.587 199.324 206.987 198.844 207.541 198.489C208.1 198.129 208.777 197.949 209.572 197.949C210.585 197.949 211.386 198.268 211.973 198.908C212.56 199.542 212.853 200.47 212.853 201.692V209H211.589V201.692C211.589 200.83 211.369 200.184 210.929 199.753C210.488 199.322 209.908 199.107 209.189 199.107C208.355 199.107 207.714 199.362 207.264 199.874C206.814 200.385 206.589 201.034 206.589 201.82V209H205.297V201.578C205.297 200.839 205.091 200.243 204.679 199.788C204.267 199.334 203.687 199.107 202.939 199.107C202.437 199.107 201.984 199.23 201.582 199.476C201.184 199.722 200.869 200.065 200.637 200.506C200.41 200.941 200.297 201.443 200.297 202.011V209H199.032ZM223.04 209V198.091H224.311V209H223.04ZM223.686 196.216C223.425 196.216 223.203 196.128 223.018 195.953C222.834 195.773 222.741 195.558 222.741 195.307C222.741 195.056 222.834 194.843 223.018 194.668C223.203 194.488 223.425 194.398 223.686 194.398C223.946 194.398 224.169 194.488 224.353 194.668C224.538 194.843 224.63 195.056 224.63 195.307C224.63 195.558 224.538 195.773 224.353 195.953C224.169 196.128 223.946 196.216 223.686 196.216ZM229.518 202.182V209H228.254V198.091H229.483V199.803H229.597C229.852 199.244 230.25 198.796 230.79 198.46C231.334 198.119 232.007 197.949 232.807 197.949C233.541 197.949 234.185 198.103 234.739 198.411C235.297 198.714 235.731 199.161 236.038 199.753C236.351 200.345 236.507 201.071 236.507 201.933V209H235.243V202.011C235.243 201.116 234.992 200.409 234.49 199.888C233.993 199.367 233.325 199.107 232.487 199.107C231.914 199.107 231.405 199.23 230.96 199.476C230.515 199.722 230.162 200.077 229.902 200.541C229.646 201 229.518 201.547 229.518 202.182ZM244.733 198.091V199.192H239.527V198.091H244.733ZM241.154 195.477H242.425V206.152C242.425 206.607 242.503 206.964 242.659 207.224C242.815 207.48 243.019 207.662 243.27 207.771C243.521 207.875 243.789 207.928 244.073 207.928C244.238 207.928 244.38 207.918 244.499 207.899C244.617 207.875 244.721 207.852 244.811 207.828L245.081 208.972C244.958 209.019 244.806 209.062 244.627 209.099C244.447 209.142 244.224 209.163 243.959 209.163C243.495 209.163 243.047 209.062 242.617 208.858C242.19 208.654 241.84 208.351 241.565 207.949C241.291 207.546 241.154 207.047 241.154 206.45V195.477ZM252.327 209.227C251.385 209.227 250.551 208.988 249.827 208.51C249.107 208.032 248.544 207.371 248.137 206.528C247.73 205.681 247.526 204.703 247.526 203.595C247.526 202.478 247.73 201.495 248.137 200.648C248.544 199.795 249.107 199.133 249.827 198.659C250.551 198.181 251.385 197.942 252.327 197.942C253.269 197.942 254.1 198.181 254.82 198.659C255.54 199.137 256.103 199.8 256.51 200.648C256.922 201.495 257.128 202.478 257.128 203.595C257.128 204.703 256.925 205.681 256.517 206.528C256.11 207.371 255.544 208.032 254.82 208.51C254.1 208.988 253.269 209.227 252.327 209.227ZM252.327 208.07C253.085 208.07 253.726 207.866 254.252 207.459C254.777 207.052 255.175 206.509 255.445 205.832C255.72 205.155 255.857 204.41 255.857 203.595C255.857 202.781 255.72 202.033 255.445 201.351C255.175 200.669 254.777 200.122 254.252 199.71C253.726 199.298 253.085 199.092 252.327 199.092C251.574 199.092 250.933 199.298 250.402 199.71C249.877 200.122 249.477 200.669 249.202 201.351C248.932 202.033 248.797 202.781 248.797 203.595C248.797 204.41 248.932 205.155 249.202 205.832C249.477 206.509 249.877 207.052 250.402 207.459C250.928 207.866 251.569 208.07 252.327 208.07ZM266.728 209V198.091H267.957V199.767H268.049C268.267 199.218 268.646 198.775 269.186 198.439C269.73 198.098 270.346 197.928 271.032 197.928C271.137 197.928 271.253 197.93 271.38 197.935C271.508 197.939 271.615 197.944 271.7 197.949V199.234C271.643 199.225 271.544 199.211 271.402 199.192C271.26 199.173 271.106 199.163 270.94 199.163C270.372 199.163 269.865 199.284 269.42 199.526C268.98 199.762 268.632 200.091 268.376 200.513C268.12 200.934 267.993 201.415 267.993 201.955V209H266.728ZM278.536 209.227C277.518 209.227 276.637 208.991 275.894 208.517C275.15 208.039 274.575 207.378 274.168 206.536C273.765 205.688 273.564 204.713 273.564 203.609C273.564 202.511 273.765 201.536 274.168 200.683C274.575 199.826 275.136 199.156 275.851 198.673C276.571 198.186 277.402 197.942 278.344 197.942C278.936 197.942 279.506 198.051 280.056 198.268C280.605 198.482 281.097 198.811 281.533 199.256C281.973 199.696 282.321 200.252 282.577 200.925C282.833 201.592 282.961 202.383 282.961 203.297V203.922H274.438V202.807H281.668C281.668 202.106 281.526 201.476 281.242 200.918C280.962 200.354 280.572 199.909 280.07 199.582C279.573 199.256 278.997 199.092 278.344 199.092C277.653 199.092 277.044 199.277 276.519 199.646C275.993 200.016 275.581 200.503 275.283 201.109C274.989 201.715 274.84 202.378 274.836 203.098V203.766C274.836 204.632 274.985 205.39 275.283 206.038C275.586 206.682 276.014 207.182 276.568 207.537C277.122 207.892 277.778 208.07 278.536 208.07C279.052 208.07 279.504 207.989 279.892 207.828C280.285 207.667 280.614 207.452 280.88 207.182C281.149 206.907 281.353 206.607 281.49 206.28L282.691 206.67C282.525 207.13 282.253 207.554 281.874 207.942C281.5 208.33 281.031 208.643 280.468 208.879C279.909 209.111 279.265 209.227 278.536 209.227ZM289.393 209.249C288.735 209.249 288.134 209.121 287.589 208.865C287.045 208.605 286.612 208.231 286.29 207.743C285.968 207.25 285.807 206.654 285.807 205.953C285.807 205.413 285.908 204.959 286.112 204.589C286.316 204.22 286.604 203.917 286.978 203.68C287.353 203.444 287.795 203.257 288.307 203.119C288.818 202.982 289.381 202.875 289.997 202.8C290.608 202.724 291.124 202.658 291.545 202.601C291.971 202.544 292.296 202.454 292.518 202.331C292.741 202.208 292.852 202.009 292.852 201.734V201.479C292.852 200.735 292.63 200.151 292.184 199.724C291.744 199.294 291.11 199.078 290.281 199.078C289.495 199.078 288.853 199.251 288.356 199.597C287.864 199.942 287.518 200.349 287.319 200.818L286.119 200.385C286.365 199.788 286.706 199.312 287.142 198.957C287.577 198.598 288.065 198.339 288.605 198.183C289.145 198.022 289.692 197.942 290.246 197.942C290.662 197.942 291.095 197.996 291.545 198.105C292 198.214 292.421 198.403 292.809 198.673C293.198 198.938 293.513 199.31 293.754 199.788C293.996 200.262 294.116 200.863 294.116 201.592V209H292.852V207.274H292.774C292.622 207.596 292.398 207.909 292.099 208.212C291.801 208.515 291.427 208.763 290.977 208.957C290.527 209.152 289.999 209.249 289.393 209.249ZM289.564 208.091C290.236 208.091 290.818 207.942 291.311 207.643C291.803 207.345 292.182 206.95 292.447 206.457C292.717 205.96 292.852 205.413 292.852 204.817V203.24C292.757 203.33 292.599 203.411 292.376 203.482C292.158 203.553 291.905 203.616 291.616 203.673C291.332 203.725 291.048 203.77 290.764 203.808C290.48 203.846 290.224 203.879 289.997 203.908C289.381 203.983 288.856 204.102 288.42 204.263C287.985 204.424 287.651 204.646 287.419 204.93C287.187 205.21 287.071 205.57 287.071 206.01C287.071 206.673 287.308 207.187 287.781 207.551C288.255 207.911 288.849 208.091 289.564 208.091ZM299.343 194.455V209H298.079V194.455H299.343ZM303.303 209V198.091H304.574V209H303.303ZM303.949 196.216C303.689 196.216 303.466 196.128 303.281 195.953C303.097 195.773 303.004 195.558 303.004 195.307C303.004 195.056 303.097 194.843 303.281 194.668C303.466 194.488 303.689 194.398 303.949 194.398C304.209 194.398 304.432 194.488 304.617 194.668C304.801 194.843 304.894 195.056 304.894 195.307C304.894 195.558 304.801 195.773 304.617 195.953C304.432 196.128 304.209 196.216 303.949 196.216ZM312.814 198.091V199.192H307.608V198.091H312.814ZM309.235 195.477H310.506V206.152C310.506 206.607 310.584 206.964 310.74 207.224C310.897 207.48 311.1 207.662 311.351 207.771C311.602 207.875 311.87 207.928 312.154 207.928C312.32 207.928 312.462 207.918 312.58 207.899C312.698 207.875 312.803 207.852 312.892 207.828L313.162 208.972C313.039 209.019 312.888 209.062 312.708 209.099C312.528 209.142 312.305 209.163 312.04 209.163C311.576 209.163 311.129 209.062 310.698 208.858C310.272 208.654 309.921 208.351 309.647 207.949C309.372 207.546 309.235 207.047 309.235 206.45V195.477ZM317.166 213.091C316.915 213.091 316.681 213.067 316.463 213.02C316.245 212.973 316.072 212.92 315.945 212.864L316.285 211.749C316.716 211.881 317.1 211.929 317.436 211.891C317.772 211.857 318.07 211.706 318.331 211.436C318.591 211.171 318.823 210.764 319.027 210.214L319.425 209.107L315.412 198.091H316.783L320.021 207.331H320.121L323.359 198.091H324.73L320.114 210.726C319.919 211.251 319.68 211.689 319.396 212.04C319.112 212.395 318.783 212.658 318.409 212.828C318.04 213.003 317.625 213.091 317.166 213.091ZM336.45 209L333.155 198.091H334.49L337.075 207.089H337.168L339.746 198.091H341.088L343.645 207.068H343.744L346.33 198.091H347.665L344.369 209H343.062L340.477 200.058H340.342L337.757 209H336.45ZM350.736 209V198.091H352.008V209H350.736ZM351.383 196.216C351.122 196.216 350.9 196.128 350.715 195.953C350.53 195.773 350.438 195.558 350.438 195.307C350.438 195.056 350.53 194.843 350.715 194.668C350.9 194.488 351.122 194.398 351.383 194.398C351.643 194.398 351.866 194.488 352.05 194.668C352.235 194.843 352.327 195.056 352.327 195.307C352.327 195.558 352.235 195.773 352.05 195.953C351.866 196.128 351.643 196.216 351.383 196.216ZM360.248 198.091V199.192H355.042V198.091H360.248ZM356.668 195.477H357.94V206.152C357.94 206.607 358.018 206.964 358.174 207.224C358.33 207.48 358.534 207.662 358.785 207.771C359.036 207.875 359.303 207.928 359.587 207.928C359.753 207.928 359.895 207.918 360.014 207.899C360.132 207.875 360.236 207.852 360.326 207.828L360.596 208.972C360.473 209.019 360.321 209.062 360.141 209.099C359.961 209.142 359.739 209.163 359.474 209.163C359.01 209.163 358.562 209.062 358.131 208.858C357.705 208.654 357.355 208.351 357.08 207.949C356.806 207.546 356.668 207.047 356.668 206.45V195.477ZM365.218 202.182V209H363.953V194.455H365.218V199.803H365.331C365.587 199.239 365.982 198.789 366.517 198.453C367.057 198.117 367.739 197.949 368.563 197.949C369.301 197.949 369.95 198.1 370.509 198.403C371.068 198.706 371.503 199.154 371.816 199.746C372.128 200.338 372.284 201.067 372.284 201.933V209H371.013V202.011C371.013 201.112 370.762 200.404 370.26 199.888C369.763 199.367 369.091 199.107 368.243 199.107C367.661 199.107 367.142 199.23 366.688 199.476C366.233 199.722 365.873 200.077 365.608 200.541C365.348 201 365.218 201.547 365.218 202.182ZM87.1847 233.227C86.2093 233.227 85.3594 232.983 84.635 232.496C83.9153 232.008 83.3566 231.34 82.9588 230.493C82.5611 229.645 82.3623 228.679 82.3623 227.595C82.3623 226.501 82.5635 225.528 82.966 224.676C83.3731 223.824 83.9366 223.156 84.6563 222.673C85.376 222.186 86.2117 221.942 87.1634 221.942C87.8926 221.942 88.5531 222.084 89.1449 222.368C89.7368 222.647 90.2245 223.043 90.608 223.554C90.9963 224.061 91.2401 224.652 91.3395 225.33H90.0611C89.9285 224.714 89.6089 224.188 89.1023 223.753C88.6004 223.312 87.9612 223.092 87.1847 223.092C86.4887 223.092 85.8731 223.282 85.3381 223.661C84.8031 224.035 84.384 224.558 84.081 225.23C83.7827 225.898 83.6336 226.672 83.6336 227.553C83.6336 228.438 83.7803 229.222 84.0739 229.903C84.3675 230.58 84.7794 231.111 85.3097 231.494C85.8447 231.878 86.4697 232.07 87.1847 232.07C87.6677 232.07 88.108 231.98 88.5057 231.8C88.9082 231.615 89.2444 231.355 89.5142 231.018C89.7889 230.682 89.9735 230.282 90.0682 229.818H91.3466C91.2519 230.476 91.0176 231.063 90.6435 231.58C90.2742 232.091 89.7936 232.493 89.2017 232.787C88.6146 233.08 87.9423 233.227 87.1847 233.227ZM97.703 233.249C97.0449 233.249 96.4436 233.121 95.899 232.865C95.3545 232.605 94.9213 232.231 94.5993 231.743C94.2774 231.25 94.1164 230.654 94.1164 229.953C94.1164 229.413 94.2182 228.959 94.4218 228.589C94.6254 228.22 94.9142 227.917 95.2883 227.68C95.6623 227.444 96.105 227.257 96.6164 227.119C97.1277 226.982 97.6912 226.875 98.3067 226.8C98.9175 226.724 99.4336 226.658 99.855 226.601C100.281 226.544 100.605 226.454 100.828 226.331C101.051 226.208 101.162 226.009 101.162 225.734V225.479C101.162 224.735 100.939 224.151 100.494 223.724C100.054 223.294 99.4194 223.078 98.5908 223.078C97.8048 223.078 97.1633 223.251 96.6661 223.597C96.1737 223.942 95.828 224.349 95.6292 224.818L94.4289 224.385C94.6751 223.788 95.016 223.312 95.4516 222.957C95.8872 222.598 96.3749 222.339 96.9147 222.183C97.4544 222.022 98.0013 221.942 98.5553 221.942C98.972 221.942 99.4052 221.996 99.855 222.105C100.31 222.214 100.731 222.403 101.119 222.673C101.507 222.938 101.822 223.31 102.064 223.788C102.305 224.262 102.426 224.863 102.426 225.592V233H101.162V231.274H101.084C100.932 231.596 100.707 231.909 100.409 232.212C100.111 232.515 99.7366 232.763 99.2868 232.957C98.837 233.152 98.3091 233.249 97.703 233.249ZM97.8735 232.091C98.5458 232.091 99.1282 231.942 99.6206 231.643C100.113 231.345 100.492 230.95 100.757 230.457C101.027 229.96 101.162 229.413 101.162 228.817V227.24C101.067 227.33 100.909 227.411 100.686 227.482C100.468 227.553 100.215 227.616 99.926 227.673C99.6419 227.725 99.3579 227.77 99.0738 227.808C98.7897 227.846 98.534 227.879 98.3067 227.908C97.6912 227.983 97.1656 228.102 96.73 228.263C96.2944 228.424 95.9606 228.646 95.7286 228.93C95.4966 229.21 95.3806 229.57 95.3806 230.01C95.3806 230.673 95.6173 231.187 96.0908 231.551C96.5643 231.911 97.1585 232.091 97.8735 232.091ZM106.389 237.091V222.091H107.618V224.172H107.767C107.918 223.845 108.127 223.511 108.392 223.17C108.657 222.825 109.007 222.534 109.443 222.297C109.883 222.06 110.437 221.942 111.105 221.942C112.004 221.942 112.79 222.179 113.463 222.652C114.14 223.121 114.665 223.779 115.04 224.626C115.418 225.469 115.608 226.452 115.608 227.574C115.608 228.701 115.418 229.688 115.04 230.536C114.665 231.383 114.14 232.044 113.463 232.517C112.79 232.991 112.009 233.227 111.119 233.227C110.461 233.227 109.909 233.109 109.464 232.872C109.024 232.635 108.666 232.344 108.392 231.999C108.122 231.648 107.914 231.307 107.767 230.976H107.653V237.091H106.389ZM107.639 227.553C107.639 228.433 107.769 229.214 108.03 229.896C108.295 230.573 108.674 231.106 109.166 231.494C109.663 231.878 110.264 232.07 110.97 232.07C111.694 232.07 112.305 231.871 112.802 231.473C113.304 231.071 113.685 230.528 113.946 229.847C114.211 229.165 114.344 228.4 114.344 227.553C114.344 226.714 114.213 225.959 113.953 225.287C113.697 224.615 113.318 224.082 112.817 223.689C112.315 223.291 111.699 223.092 110.97 223.092C110.26 223.092 109.656 223.284 109.159 223.668C108.662 224.046 108.283 224.572 108.022 225.244C107.767 225.912 107.639 226.681 107.639 227.553ZM118.995 233V222.091H120.267V233H118.995ZM119.642 220.216C119.381 220.216 119.159 220.128 118.974 219.953C118.789 219.773 118.697 219.558 118.697 219.307C118.697 219.056 118.789 218.843 118.974 218.668C119.159 218.488 119.381 218.398 119.642 218.398C119.902 218.398 120.125 218.488 120.309 218.668C120.494 218.843 120.586 219.056 120.586 219.307C120.586 219.558 120.494 219.773 120.309 219.953C120.125 220.128 119.902 220.216 119.642 220.216ZM128.507 222.091V223.192H123.301V222.091H128.507ZM124.927 219.477H126.199V230.152C126.199 230.607 126.277 230.964 126.433 231.224C126.589 231.48 126.793 231.662 127.044 231.771C127.295 231.875 127.562 231.928 127.846 231.928C128.012 231.928 128.154 231.918 128.273 231.899C128.391 231.875 128.495 231.852 128.585 231.828L128.855 232.972C128.732 233.019 128.58 233.062 128.4 233.099C128.22 233.142 127.998 233.163 127.733 233.163C127.269 233.163 126.821 233.062 126.39 232.858C125.964 232.654 125.614 232.351 125.339 231.949C125.065 231.546 124.927 231.047 124.927 230.45V219.477ZM135.025 233.249C134.367 233.249 133.765 233.121 133.221 232.865C132.676 232.605 132.243 232.231 131.921 231.743C131.599 231.25 131.438 230.654 131.438 229.953C131.438 229.413 131.54 228.959 131.744 228.589C131.947 228.22 132.236 227.917 132.61 227.68C132.984 227.444 133.427 227.257 133.938 227.119C134.45 226.982 135.013 226.875 135.629 226.8C136.239 226.724 136.755 226.658 137.177 226.601C137.603 226.544 137.927 226.454 138.15 226.331C138.372 226.208 138.484 226.009 138.484 225.734V225.479C138.484 224.735 138.261 224.151 137.816 223.724C137.376 223.294 136.741 223.078 135.913 223.078C135.127 223.078 134.485 223.251 133.988 223.597C133.496 223.942 133.15 224.349 132.951 224.818L131.751 224.385C131.997 223.788 132.338 223.312 132.773 222.957C133.209 222.598 133.697 222.339 134.237 222.183C134.776 222.022 135.323 221.942 135.877 221.942C136.294 221.942 136.727 221.996 137.177 222.105C137.631 222.214 138.053 222.403 138.441 222.673C138.829 222.938 139.144 223.31 139.386 223.788C139.627 224.262 139.748 224.863 139.748 225.592V233H138.484V231.274H138.406C138.254 231.596 138.029 231.909 137.731 232.212C137.433 232.515 137.059 232.763 136.609 232.957C136.159 233.152 135.631 233.249 135.025 233.249ZM135.195 232.091C135.868 232.091 136.45 231.942 136.943 231.643C137.435 231.345 137.814 230.95 138.079 230.457C138.349 229.96 138.484 229.413 138.484 228.817V227.24C138.389 227.33 138.23 227.411 138.008 227.482C137.79 227.553 137.537 227.616 137.248 227.673C136.964 227.725 136.68 227.77 136.396 227.808C136.112 227.846 135.856 227.879 135.629 227.908C135.013 227.983 134.487 228.102 134.052 228.263C133.616 228.424 133.282 228.646 133.05 228.93C132.818 229.21 132.702 229.57 132.702 230.01C132.702 230.673 132.939 231.187 133.413 231.551C133.886 231.911 134.48 232.091 135.195 232.091ZM144.975 218.455V233H143.711V218.455H144.975ZM159.634 222.091V223.192H154.272V222.091H159.634ZM155.948 233V220.493C155.948 219.906 156.083 219.411 156.353 219.009C156.627 218.606 156.985 218.301 157.425 218.092C157.865 217.884 158.332 217.78 158.824 217.78C159.156 217.78 159.43 217.808 159.648 217.865C159.871 217.917 160.046 217.969 160.174 218.021L159.804 219.129C159.71 219.101 159.594 219.068 159.456 219.03C159.319 218.992 159.146 218.973 158.938 218.973C158.389 218.973 157.965 219.127 157.667 219.435C157.368 219.742 157.219 220.183 157.219 220.756L157.212 233H155.948ZM162.757 233V222.091H163.986V223.767H164.078C164.296 223.218 164.675 222.775 165.214 222.439C165.759 222.098 166.374 221.928 167.061 221.928C167.165 221.928 167.281 221.93 167.409 221.935C167.537 221.939 167.643 221.944 167.729 221.949V223.234C167.672 223.225 167.572 223.211 167.43 223.192C167.288 223.173 167.134 223.163 166.969 223.163C166.4 223.163 165.894 223.284 165.449 223.526C165.008 223.762 164.66 224.091 164.405 224.513C164.149 224.934 164.021 225.415 164.021 225.955V233H162.757ZM174.394 233.227C173.452 233.227 172.618 232.988 171.894 232.51C171.174 232.032 170.611 231.371 170.204 230.528C169.796 229.681 169.593 228.703 169.593 227.595C169.593 226.478 169.796 225.495 170.204 224.648C170.611 223.795 171.174 223.133 171.894 222.659C172.618 222.181 173.452 221.942 174.394 221.942C175.336 221.942 176.167 222.181 176.887 222.659C177.606 223.137 178.17 223.8 178.577 224.648C178.989 225.495 179.195 226.478 179.195 227.595C179.195 228.703 178.991 229.681 178.584 230.528C178.177 231.371 177.611 232.032 176.887 232.51C176.167 232.988 175.336 233.227 174.394 233.227ZM174.394 232.07C175.151 232.07 175.793 231.866 176.319 231.459C176.844 231.052 177.242 230.509 177.512 229.832C177.786 229.155 177.924 228.41 177.924 227.595C177.924 226.781 177.786 226.033 177.512 225.351C177.242 224.669 176.844 224.122 176.319 223.71C175.793 223.298 175.151 223.092 174.394 223.092C173.641 223.092 172.999 223.298 172.469 223.71C171.944 224.122 171.543 224.669 171.269 225.351C170.999 226.033 170.864 226.781 170.864 227.595C170.864 228.41 170.999 229.155 171.269 229.832C171.543 230.509 171.944 231.052 172.469 231.459C172.995 231.866 173.636 232.07 174.394 232.07ZM182.57 233V222.091H183.799V223.767H183.913C184.13 223.204 184.493 222.761 184.999 222.439C185.511 222.112 186.124 221.949 186.839 221.949C187.592 221.949 188.209 222.126 188.692 222.482C189.18 222.832 189.545 223.315 189.786 223.93H189.878C190.125 223.324 190.525 222.844 191.079 222.489C191.637 222.129 192.315 221.949 193.11 221.949C194.123 221.949 194.923 222.268 195.511 222.908C196.098 223.542 196.391 224.47 196.391 225.692V233H195.127V225.692C195.127 224.83 194.907 224.184 194.467 223.753C194.026 223.322 193.446 223.107 192.726 223.107C191.893 223.107 191.252 223.362 190.802 223.874C190.352 224.385 190.127 225.034 190.127 225.82V233H188.834V225.578C188.834 224.839 188.628 224.243 188.217 223.788C187.805 223.334 187.225 223.107 186.476 223.107C185.975 223.107 185.522 223.23 185.12 223.476C184.722 223.722 184.407 224.065 184.175 224.506C183.948 224.941 183.834 225.443 183.834 226.011V233H182.57ZM208.154 218.455V233H206.826V218.455H208.154ZM213.623 226.182V233H212.358V222.091H213.587V223.803H213.701C213.956 223.244 214.354 222.796 214.894 222.46C215.439 222.119 216.111 221.949 216.911 221.949C217.645 221.949 218.289 222.103 218.843 222.411C219.402 222.714 219.835 223.161 220.143 223.753C220.455 224.345 220.611 225.071 220.611 225.933V233H219.347V226.011C219.347 225.116 219.096 224.409 218.594 223.888C218.097 223.367 217.43 223.107 216.591 223.107C216.019 223.107 215.51 223.23 215.064 223.476C214.619 223.722 214.267 224.077 214.006 224.541C213.751 225 213.623 225.547 213.623 226.182ZM228.468 233.227C227.573 233.227 226.79 232.991 226.117 232.517C225.445 232.044 224.919 231.383 224.541 230.536C224.166 229.688 223.979 228.701 223.979 227.574C223.979 226.452 224.166 225.469 224.541 224.626C224.919 223.779 225.447 223.121 226.124 222.652C226.801 222.179 227.59 221.942 228.489 221.942C229.152 221.942 229.704 222.06 230.144 222.297C230.585 222.529 230.937 222.818 231.202 223.163C231.468 223.509 231.674 223.845 231.82 224.172H231.934V218.455H233.205V233H231.97V230.976H231.82C231.674 231.307 231.465 231.648 231.195 231.999C230.925 232.344 230.568 232.635 230.123 232.872C229.683 233.109 229.131 233.227 228.468 233.227ZM228.617 232.07C229.323 232.07 229.924 231.878 230.421 231.494C230.918 231.106 231.297 230.573 231.558 229.896C231.823 229.214 231.955 228.433 231.955 227.553C231.955 226.681 231.825 225.912 231.565 225.244C231.304 224.572 230.925 224.046 230.428 223.668C229.931 223.284 229.327 223.092 228.617 223.092C227.888 223.092 227.273 223.291 226.771 223.689C226.273 224.082 225.895 224.615 225.634 225.287C225.379 225.959 225.251 226.714 225.251 227.553C225.251 228.4 225.381 229.165 225.641 229.847C225.902 230.528 226.281 231.071 226.778 231.473C227.28 231.871 227.893 232.07 228.617 232.07ZM237.42 233V222.091H238.692V233H237.42ZM238.067 220.216C237.806 220.216 237.584 220.128 237.399 219.953C237.214 219.773 237.122 219.558 237.122 219.307C237.122 219.056 237.214 218.843 237.399 218.668C237.584 218.488 237.806 218.398 238.067 218.398C238.327 218.398 238.55 218.488 238.734 218.668C238.919 218.843 239.011 219.056 239.011 219.307C239.011 219.558 238.919 219.773 238.734 219.953C238.55 220.128 238.327 220.216 238.067 220.216ZM245.682 233.249C245.024 233.249 244.422 233.121 243.878 232.865C243.333 232.605 242.9 232.231 242.578 231.743C242.256 231.25 242.095 230.654 242.095 229.953C242.095 229.413 242.197 228.959 242.401 228.589C242.604 228.22 242.893 227.917 243.267 227.68C243.641 227.444 244.084 227.257 244.595 227.119C245.107 226.982 245.67 226.875 246.286 226.8C246.896 226.724 247.413 226.658 247.834 226.601C248.26 226.544 248.584 226.454 248.807 226.331C249.029 226.208 249.141 226.009 249.141 225.734V225.479C249.141 224.735 248.918 224.151 248.473 223.724C248.033 223.294 247.398 223.078 246.57 223.078C245.784 223.078 245.142 223.251 244.645 223.597C244.153 223.942 243.807 224.349 243.608 224.818L242.408 224.385C242.654 223.788 242.995 223.312 243.431 222.957C243.866 222.598 244.354 222.339 244.894 222.183C245.433 222.022 245.98 221.942 246.534 221.942C246.951 221.942 247.384 221.996 247.834 222.105C248.288 222.214 248.71 222.403 249.098 222.673C249.486 222.938 249.801 223.31 250.043 223.788C250.284 224.262 250.405 224.863 250.405 225.592V233H249.141V231.274H249.063C248.911 231.596 248.686 231.909 248.388 232.212C248.09 232.515 247.716 232.763 247.266 232.957C246.816 233.152 246.288 233.249 245.682 233.249ZM245.852 232.091C246.525 232.091 247.107 231.942 247.6 231.643C248.092 231.345 248.471 230.95 248.736 230.457C249.006 229.96 249.141 229.413 249.141 228.817V227.24C249.046 227.33 248.887 227.411 248.665 227.482C248.447 227.553 248.194 227.616 247.905 227.673C247.621 227.725 247.337 227.77 247.053 227.808C246.769 227.846 246.513 227.879 246.286 227.908C245.67 227.983 245.145 228.102 244.709 228.263C244.273 228.424 243.94 228.646 243.707 228.93C243.475 229.21 243.359 229.57 243.359 230.01C243.359 230.673 243.596 231.187 244.07 231.551C244.543 231.911 245.137 232.091 245.852 232.091ZM255.447 218.455V223.305H254.254V218.455H255.447ZM266.614 224.484L265.456 224.811C265.343 224.484 265.182 224.188 264.973 223.923C264.765 223.658 264.493 223.447 264.156 223.291C263.825 223.135 263.413 223.057 262.921 223.057C262.182 223.057 261.576 223.232 261.102 223.582C260.629 223.933 260.392 224.385 260.392 224.939C260.392 225.408 260.553 225.789 260.875 226.082C261.202 226.371 261.704 226.601 262.381 226.771L264.029 227.176C264.942 227.399 265.627 227.751 266.081 228.234C266.54 228.717 266.77 229.323 266.77 230.053C266.77 230.668 266.6 231.215 266.259 231.693C265.918 232.171 265.442 232.548 264.831 232.822C264.225 233.092 263.522 233.227 262.722 233.227C261.656 233.227 260.778 232.988 260.087 232.51C259.396 232.027 258.953 231.331 258.759 230.422L259.973 230.124C260.129 230.772 260.435 231.262 260.889 231.594C261.349 231.925 261.952 232.091 262.7 232.091C263.539 232.091 264.209 231.904 264.71 231.53C265.212 231.151 265.463 230.678 265.463 230.109C265.463 229.669 265.316 229.3 265.023 229.001C264.729 228.698 264.284 228.476 263.688 228.334L261.905 227.908C260.958 227.68 260.257 227.321 259.803 226.828C259.348 226.336 259.121 225.725 259.121 224.996C259.121 224.394 259.284 223.866 259.611 223.412C259.938 222.953 260.387 222.593 260.96 222.332C261.533 222.072 262.187 221.942 262.921 221.942C263.92 221.942 264.718 222.169 265.314 222.624C265.915 223.073 266.349 223.694 266.614 224.484ZM277.627 218.455V233H276.363V218.455H277.627ZM285.983 233.227C284.965 233.227 284.084 232.991 283.341 232.517C282.598 232.039 282.022 231.378 281.615 230.536C281.213 229.688 281.011 228.713 281.011 227.609C281.011 226.511 281.213 225.536 281.615 224.683C282.022 223.826 282.583 223.156 283.298 222.673C284.018 222.186 284.849 221.942 285.791 221.942C286.383 221.942 286.954 222.051 287.503 222.268C288.052 222.482 288.545 222.811 288.98 223.256C289.421 223.696 289.769 224.252 290.024 224.925C290.28 225.592 290.408 226.383 290.408 227.297V227.922H281.885V226.807H289.115C289.115 226.106 288.973 225.476 288.689 224.918C288.41 224.354 288.019 223.909 287.517 223.582C287.02 223.256 286.445 223.092 285.791 223.092C285.1 223.092 284.492 223.277 283.966 223.646C283.44 224.016 283.029 224.503 282.73 225.109C282.437 225.715 282.288 226.378 282.283 227.098V227.766C282.283 228.632 282.432 229.39 282.73 230.038C283.033 230.682 283.462 231.182 284.016 231.537C284.57 231.892 285.225 232.07 285.983 232.07C286.499 232.07 286.951 231.989 287.34 231.828C287.733 231.667 288.062 231.452 288.327 231.182C288.597 230.907 288.8 230.607 288.938 230.28L290.138 230.67C289.972 231.13 289.7 231.554 289.321 231.942C288.947 232.33 288.478 232.643 287.915 232.879C287.356 233.111 286.712 233.227 285.983 233.227ZM296.841 233.249C296.182 233.249 295.581 233.121 295.037 232.865C294.492 232.605 294.059 232.231 293.737 231.743C293.415 231.25 293.254 230.654 293.254 229.953C293.254 229.413 293.356 228.959 293.559 228.589C293.763 228.22 294.052 227.917 294.426 227.68C294.8 227.444 295.243 227.257 295.754 227.119C296.265 226.982 296.829 226.875 297.444 226.8C298.055 226.724 298.571 226.658 298.993 226.601C299.419 226.544 299.743 226.454 299.966 226.331C300.188 226.208 300.299 226.009 300.299 225.734V225.479C300.299 224.735 300.077 224.151 299.632 223.724C299.191 223.294 298.557 223.078 297.728 223.078C296.942 223.078 296.301 223.251 295.804 223.597C295.311 223.942 294.966 224.349 294.767 224.818L293.566 224.385C293.813 223.788 294.154 223.312 294.589 222.957C295.025 222.598 295.512 222.339 296.052 222.183C296.592 222.022 297.139 221.942 297.693 221.942C298.109 221.942 298.543 221.996 298.993 222.105C299.447 222.214 299.868 222.403 300.257 222.673C300.645 222.938 300.96 223.31 301.201 223.788C301.443 224.262 301.564 224.863 301.564 225.592V233H300.299V231.274H300.221C300.07 231.596 299.845 231.909 299.546 232.212C299.248 232.515 298.874 232.763 298.424 232.957C297.975 233.152 297.447 233.249 296.841 233.249ZM297.011 232.091C297.683 232.091 298.266 231.942 298.758 231.643C299.251 231.345 299.629 230.95 299.895 230.457C300.164 229.96 300.299 229.413 300.299 228.817V227.24C300.205 227.33 300.046 227.411 299.823 227.482C299.606 227.553 299.352 227.616 299.064 227.673C298.779 227.725 298.495 227.77 298.211 227.808C297.927 227.846 297.671 227.879 297.444 227.908C296.829 227.983 296.303 228.102 295.868 228.263C295.432 228.424 295.098 228.646 294.866 228.93C294.634 229.21 294.518 229.57 294.518 230.01C294.518 230.673 294.755 231.187 295.228 231.551C295.702 231.911 296.296 232.091 297.011 232.091ZM309.454 233.227C308.559 233.227 307.776 232.991 307.103 232.517C306.431 232.044 305.905 231.383 305.526 230.536C305.152 229.688 304.965 228.701 304.965 227.574C304.965 226.452 305.152 225.469 305.526 224.626C305.905 223.779 306.433 223.121 307.11 222.652C307.787 222.179 308.576 221.942 309.475 221.942C310.138 221.942 310.69 222.06 311.13 222.297C311.57 222.529 311.923 222.818 312.188 223.163C312.454 223.509 312.66 223.845 312.806 224.172H312.92V218.455H314.191V233H312.955V230.976H312.806C312.66 231.307 312.451 231.648 312.181 231.999C311.911 232.344 311.554 232.635 311.109 232.872C310.669 233.109 310.117 233.227 309.454 233.227ZM309.603 232.07C310.309 232.07 310.91 231.878 311.407 231.494C311.904 231.106 312.283 230.573 312.544 229.896C312.809 229.214 312.941 228.433 312.941 227.553C312.941 226.681 312.811 225.912 312.551 225.244C312.29 224.572 311.911 224.046 311.414 223.668C310.917 223.284 310.313 223.092 309.603 223.092C308.874 223.092 308.258 223.291 307.757 223.689C307.259 224.082 306.881 224.615 306.62 225.287C306.365 225.959 306.237 226.714 306.237 227.553C306.237 228.4 306.367 229.165 306.627 229.847C306.888 230.528 307.267 231.071 307.764 231.473C308.266 231.871 308.879 232.07 309.603 232.07ZM318.406 233V222.091H319.678V233H318.406ZM319.053 220.216C318.792 220.216 318.57 220.128 318.385 219.953C318.2 219.773 318.108 219.558 318.108 219.307C318.108 219.056 318.2 218.843 318.385 218.668C318.57 218.488 318.792 218.398 319.053 218.398C319.313 218.398 319.536 218.488 319.72 218.668C319.905 218.843 319.997 219.056 319.997 219.307C319.997 219.558 319.905 219.773 319.72 219.953C319.536 220.128 319.313 220.216 319.053 220.216ZM324.885 226.182V233H323.621V222.091H324.85V223.803H324.963C325.219 223.244 325.617 222.796 326.157 222.46C326.701 222.119 327.373 221.949 328.174 221.949C328.907 221.949 329.551 222.103 330.105 222.411C330.664 222.714 331.097 223.161 331.405 223.753C331.718 224.345 331.874 225.071 331.874 225.933V233H330.61V226.011C330.61 225.116 330.359 224.409 329.857 223.888C329.36 223.367 328.692 223.107 327.854 223.107C327.281 223.107 326.772 223.23 326.327 223.476C325.882 223.722 325.529 224.077 325.269 224.541C325.013 225 324.885 225.547 324.885 226.182ZM339.965 237.318C339.222 237.318 338.571 237.221 338.012 237.027C337.453 236.838 336.982 236.577 336.598 236.246C336.215 235.914 335.917 235.543 335.704 235.131L336.741 234.449C336.897 234.723 337.105 234.993 337.366 235.259C337.631 235.524 337.974 235.744 338.395 235.919C338.821 236.094 339.345 236.182 339.965 236.182C340.931 236.182 341.71 235.94 342.302 235.457C342.898 234.974 343.196 234.224 343.196 233.206V230.749H343.083C342.936 231.08 342.725 231.411 342.451 231.743C342.176 232.07 341.816 232.342 341.371 232.56C340.931 232.777 340.384 232.886 339.731 232.886C338.859 232.886 338.085 232.671 337.408 232.24C336.736 231.809 336.205 231.194 335.817 230.393C335.434 229.589 335.242 228.63 335.242 227.517C335.242 226.414 335.429 225.443 335.803 224.605C336.182 223.767 336.71 223.114 337.387 222.645C338.064 222.176 338.852 221.942 339.752 221.942C340.419 221.942 340.973 222.06 341.414 222.297C341.854 222.529 342.207 222.818 342.472 223.163C342.742 223.509 342.953 223.845 343.104 224.172H343.232V222.091H344.468V233.284C344.468 234.207 344.271 234.967 343.878 235.564C343.485 236.161 342.95 236.601 342.273 236.885C341.596 237.174 340.827 237.318 339.965 237.318ZM339.88 231.729C340.58 231.729 341.179 231.561 341.677 231.224C342.174 230.884 342.555 230.396 342.82 229.761C343.085 229.127 343.218 228.372 343.218 227.496C343.218 226.643 343.088 225.888 342.827 225.23C342.567 224.567 342.188 224.046 341.691 223.668C341.198 223.284 340.595 223.092 339.88 223.092C339.151 223.092 338.535 223.289 338.033 223.682C337.531 224.075 337.152 224.605 336.897 225.273C336.641 225.936 336.513 226.677 336.513 227.496C336.513 228.329 336.643 229.065 336.904 229.705C337.164 230.339 337.545 230.836 338.047 231.196C338.549 231.551 339.16 231.729 339.88 231.729ZM55.651 246.091V247.192H50.2888V246.091H55.651ZM51.965 257V244.493C51.965 243.906 52.0999 243.411 52.3698 243.009C52.6444 242.606 53.0019 242.301 53.4422 242.092C53.8826 241.884 54.3489 241.78 54.8414 241.78C55.1728 241.78 55.4474 241.808 55.6652 241.865C55.8878 241.917 56.063 241.969 56.1908 242.021L55.8215 243.129C55.7268 243.101 55.6108 243.068 55.4735 243.03C55.3362 242.992 55.1633 242.973 54.955 242.973C54.4058 242.973 53.982 243.127 53.6837 243.435C53.3854 243.742 53.2363 244.183 53.2363 244.756L53.2292 257H51.965ZM61.528 257.249C60.8699 257.249 60.2686 257.121 59.724 256.865C59.1795 256.605 58.7463 256.231 58.4243 255.743C58.1024 255.25 57.9414 254.654 57.9414 253.953C57.9414 253.413 58.0432 252.959 58.2468 252.589C58.4504 252.22 58.7392 251.917 59.1132 251.68C59.4873 251.444 59.93 251.257 60.4414 251.119C60.9527 250.982 61.5162 250.875 62.1317 250.8C62.7425 250.724 63.2586 250.658 63.68 250.601C64.1061 250.544 64.4305 250.454 64.653 250.331C64.8756 250.208 64.9868 250.009 64.9868 249.734V249.479C64.9868 248.735 64.7643 248.151 64.3192 247.724C63.8789 247.294 63.2444 247.078 62.4158 247.078C61.6298 247.078 60.9882 247.251 60.4911 247.597C59.9987 247.942 59.653 248.349 59.4542 248.818L58.2539 248.385C58.5001 247.788 58.841 247.312 59.2766 246.957C59.7122 246.598 60.1999 246.339 60.7397 246.183C61.2794 246.022 61.8263 245.942 62.3803 245.942C62.797 245.942 63.2302 245.996 63.68 246.105C64.1346 246.214 64.556 246.403 64.9442 246.673C65.3325 246.938 65.6473 247.31 65.8888 247.788C66.1303 248.262 66.251 248.863 66.251 249.592V257H64.9868V255.274H64.9087C64.7572 255.596 64.5323 255.909 64.234 256.212C63.9357 256.515 63.5616 256.763 63.1118 256.957C62.662 257.152 62.1341 257.249 61.528 257.249ZM61.6985 256.091C62.3708 256.091 62.9532 255.942 63.4456 255.643C63.9381 255.345 64.3168 254.95 64.582 254.457C64.8519 253.96 64.9868 253.413 64.9868 252.817V251.24C64.8921 251.33 64.7335 251.411 64.511 251.482C64.2932 251.553 64.0399 251.616 63.751 251.673C63.4669 251.725 63.1829 251.77 62.8988 251.808C62.6147 251.846 62.359 251.879 62.1317 251.908C61.5162 251.983 60.9906 252.102 60.555 252.263C60.1194 252.424 59.7856 252.646 59.5536 252.93C59.3216 253.21 59.2056 253.57 59.2056 254.01C59.2056 254.673 59.4423 255.187 59.9158 255.551C60.3893 255.911 60.9835 256.091 61.6985 256.091ZM77.5435 248.484L76.3858 248.811C76.2722 248.484 76.1112 248.188 75.9029 247.923C75.6945 247.658 75.4223 247.447 75.0861 247.291C74.7547 247.135 74.3427 247.057 73.8503 247.057C73.1117 247.057 72.5056 247.232 72.0321 247.582C71.5587 247.933 71.3219 248.385 71.3219 248.939C71.3219 249.408 71.4829 249.789 71.8049 250.082C72.1316 250.371 72.6335 250.601 73.3106 250.771L74.9583 251.176C75.8721 251.399 76.5563 251.751 77.0108 252.234C77.4701 252.717 77.6998 253.323 77.6998 254.053C77.6998 254.668 77.5293 255.215 77.1884 255.693C76.8475 256.171 76.3716 256.548 75.7608 256.822C75.1548 257.092 74.4516 257.227 73.6515 257.227C72.5861 257.227 71.7078 256.988 71.0165 256.51C70.3252 256.027 69.8825 255.331 69.6884 254.422L70.9029 254.124C71.0591 254.772 71.3645 255.262 71.8191 255.594C72.2784 255.925 72.882 256.091 73.6302 256.091C74.4682 256.091 75.1382 255.904 75.6401 255.53C76.142 255.151 76.3929 254.678 76.3929 254.109C76.3929 253.669 76.2462 253.3 75.9526 253.001C75.659 252.698 75.214 252.476 74.6174 252.334L72.8347 251.908C71.8877 251.68 71.187 251.321 70.7324 250.828C70.2779 250.336 70.0506 249.725 70.0506 248.996C70.0506 248.394 70.214 247.866 70.5407 247.412C70.8674 246.953 71.3172 246.593 71.8901 246.332C72.463 246.072 73.1164 245.942 73.8503 245.942C74.8494 245.942 75.6472 246.169 76.2438 246.624C76.8451 247.073 77.2784 247.694 77.5435 248.484ZM82.3321 250.182V257H81.0679V242.455H82.3321V247.803H82.4457C82.7014 247.239 83.0967 246.789 83.6318 246.453C84.1716 246.117 84.8534 245.949 85.6772 245.949C86.4159 245.949 87.0646 246.1 87.6233 246.403C88.182 246.706 88.6176 247.154 88.9301 247.746C89.2426 248.338 89.3988 249.067 89.3988 249.933V257H88.1275V250.011C88.1275 249.112 87.8766 248.404 87.3747 247.888C86.8775 247.367 86.2052 247.107 85.3576 247.107C84.7753 247.107 84.2568 247.23 83.8022 247.476C83.3477 247.722 82.9878 248.077 82.7227 248.541C82.4623 249 82.3321 249.547 82.3321 250.182ZM93.3422 257V246.091H94.6135V257H93.3422ZM93.9885 244.216C93.7281 244.216 93.5056 244.128 93.3209 243.953C93.1363 243.773 93.0439 243.558 93.0439 243.307C93.0439 243.056 93.1363 242.843 93.3209 242.668C93.5056 242.488 93.7281 242.398 93.9885 242.398C94.249 242.398 94.4715 242.488 94.6561 242.668C94.8408 242.843 94.9331 243.056 94.9331 243.307C94.9331 243.558 94.8408 243.773 94.6561 243.953C94.4715 244.128 94.249 244.216 93.9885 244.216ZM102.797 257.227C101.855 257.227 101.021 256.988 100.297 256.51C99.5773 256.032 99.0138 255.371 98.6066 254.528C98.1994 253.681 97.9958 252.703 97.9958 251.595C97.9958 250.478 98.1994 249.495 98.6066 248.648C99.0138 247.795 99.5773 247.133 100.297 246.659C101.021 246.181 101.855 245.942 102.797 245.942C103.739 245.942 104.57 246.181 105.29 246.659C106.01 247.137 106.573 247.8 106.98 248.648C107.392 249.495 107.598 250.478 107.598 251.595C107.598 252.703 107.395 253.681 106.987 254.528C106.58 255.371 106.014 256.032 105.29 256.51C104.57 256.988 103.739 257.227 102.797 257.227ZM102.797 256.07C103.555 256.07 104.196 255.866 104.722 255.459C105.247 255.052 105.645 254.509 105.915 253.832C106.19 253.155 106.327 252.41 106.327 251.595C106.327 250.781 106.19 250.033 105.915 249.351C105.645 248.669 105.247 248.122 104.722 247.71C104.196 247.298 103.555 247.092 102.797 247.092C102.044 247.092 101.403 247.298 100.872 247.71C100.347 248.122 99.9466 248.669 99.672 249.351C99.4021 250.033 99.2672 250.781 99.2672 251.595C99.2672 252.41 99.4021 253.155 99.672 253.832C99.9466 254.509 100.347 255.052 100.872 255.459C101.398 255.866 102.039 256.07 102.797 256.07ZM112.238 250.182V257H110.973V246.091H112.202V247.803H112.316C112.571 247.244 112.969 246.796 113.509 246.46C114.053 246.119 114.726 245.949 115.526 245.949C116.26 245.949 116.904 246.103 117.458 246.411C118.016 246.714 118.45 247.161 118.757 247.753C119.07 248.345 119.226 249.071 119.226 249.933V257H117.962V250.011C117.962 249.116 117.711 248.409 117.209 247.888C116.712 247.367 116.044 247.107 115.206 247.107C114.633 247.107 114.124 247.23 113.679 247.476C113.234 247.722 112.881 248.077 112.621 248.541C112.365 249 112.238 249.547 112.238 250.182ZM133.272 257.199C132.378 257.199 131.596 257.026 130.929 256.68C130.261 256.33 129.743 255.854 129.373 255.253C129.004 254.652 128.819 253.972 128.819 253.214C128.819 252.665 128.931 252.17 129.153 251.73C129.38 251.285 129.707 250.864 130.133 250.466C130.559 250.063 131.075 249.647 131.682 249.216L133.791 247.646C134.293 247.286 134.674 246.934 134.934 246.588C135.199 246.238 135.332 245.809 135.332 245.303C135.332 244.815 135.147 244.379 134.778 243.996C134.414 243.607 133.94 243.413 133.358 243.413C132.95 243.413 132.586 243.515 132.264 243.719C131.947 243.922 131.693 244.187 131.504 244.514C131.319 244.836 131.227 245.175 131.227 245.53C131.227 245.861 131.312 246.195 131.483 246.531C131.653 246.863 131.883 247.213 132.172 247.582C132.46 247.947 132.782 248.349 133.137 248.79L139.785 257H138.251L132.456 249.891C131.968 249.294 131.535 248.761 131.156 248.293C130.777 247.819 130.479 247.365 130.261 246.929C130.043 246.489 129.934 246.018 129.934 245.516C129.934 244.895 130.079 244.344 130.368 243.861C130.656 243.373 131.054 242.99 131.561 242.71C132.072 242.431 132.657 242.291 133.315 242.291C133.987 242.291 134.57 242.429 135.062 242.703C135.559 242.978 135.943 243.342 136.213 243.797C136.487 244.251 136.625 244.753 136.625 245.303C136.625 245.961 136.454 246.543 136.113 247.05C135.777 247.556 135.287 248.054 134.643 248.541L132.001 250.516C131.277 251.06 130.78 251.564 130.51 252.028C130.24 252.492 130.105 252.888 130.105 253.214C130.105 253.726 130.237 254.197 130.503 254.628C130.768 255.059 131.135 255.404 131.603 255.665C132.077 255.925 132.619 256.058 133.23 256.062C133.836 256.058 134.406 255.937 134.941 255.7C135.476 255.459 135.955 255.116 136.376 254.67C136.802 254.225 137.143 253.693 137.399 253.072C137.659 252.452 137.811 251.761 137.853 250.999L139.082 251.013C139.063 251.794 138.957 252.457 138.762 253.001C138.573 253.541 138.355 253.986 138.109 254.337C137.863 254.687 137.647 254.969 137.463 255.182C137.411 255.253 137.359 255.324 137.307 255.395C137.254 255.466 137.2 255.537 137.143 255.608C136.67 256.129 136.08 256.524 135.375 256.794C134.674 257.064 133.973 257.199 133.272 257.199ZM149.891 242.455V257H148.627V242.455H149.891ZM153.851 257V246.091H155.122V257H153.851ZM154.497 244.216C154.237 244.216 154.014 244.128 153.83 243.953C153.645 243.773 153.553 243.558 153.553 243.307C153.553 243.056 153.645 242.843 153.83 242.668C154.014 242.488 154.237 242.398 154.497 242.398C154.758 242.398 154.98 242.488 155.165 242.668C155.349 242.843 155.442 243.056 155.442 243.307C155.442 243.558 155.349 243.773 155.165 243.953C154.98 244.128 154.758 244.216 154.497 244.216ZM163.554 246.091V247.192H158.192V246.091H163.554ZM159.868 257V244.493C159.868 243.906 160.003 243.411 160.273 243.009C160.548 242.606 160.905 242.301 161.345 242.092C161.786 241.884 162.252 241.78 162.744 241.78C163.076 241.78 163.351 241.808 163.568 241.865C163.791 241.917 163.966 241.969 164.094 242.021L163.725 243.129C163.63 243.101 163.514 243.068 163.377 243.03C163.239 242.992 163.066 242.973 162.858 242.973C162.309 242.973 161.885 243.127 161.587 243.435C161.289 243.742 161.139 244.183 161.139 244.756L161.132 257H159.868ZM170.639 257.227C169.621 257.227 168.74 256.991 167.996 256.517C167.253 256.039 166.678 255.378 166.271 254.536C165.868 253.688 165.667 252.713 165.667 251.609C165.667 250.511 165.868 249.536 166.271 248.683C166.678 247.826 167.239 247.156 167.954 246.673C168.674 246.186 169.505 245.942 170.447 245.942C171.039 245.942 171.609 246.051 172.158 246.268C172.708 246.482 173.2 246.811 173.636 247.256C174.076 247.696 174.424 248.252 174.68 248.925C174.935 249.592 175.063 250.383 175.063 251.297V251.922H166.541V250.807H173.771C173.771 250.106 173.629 249.476 173.345 248.918C173.065 248.354 172.675 247.909 172.173 247.582C171.675 247.256 171.1 247.092 170.447 247.092C169.755 247.092 169.147 247.277 168.621 247.646C168.096 248.016 167.684 248.503 167.386 249.109C167.092 249.715 166.943 250.378 166.938 251.098V251.766C166.938 252.632 167.087 253.39 167.386 254.038C167.689 254.682 168.117 255.182 168.671 255.537C169.225 255.892 169.881 256.07 170.639 256.07C171.155 256.07 171.607 255.989 171.995 255.828C172.388 255.667 172.717 255.452 172.982 255.182C173.252 254.907 173.456 254.607 173.593 254.28L174.793 254.67C174.628 255.13 174.355 255.554 173.977 255.942C173.603 256.33 173.134 256.643 172.57 256.879C172.012 257.111 171.368 257.227 170.639 257.227ZM185.779 248.484L184.621 248.811C184.507 248.484 184.346 248.188 184.138 247.923C183.93 247.658 183.657 247.447 183.321 247.291C182.99 247.135 182.578 247.057 182.085 247.057C181.347 247.057 180.741 247.232 180.267 247.582C179.794 247.933 179.557 248.385 179.557 248.939C179.557 249.408 179.718 249.789 180.04 250.082C180.367 250.371 180.869 250.601 181.546 250.771L183.193 251.176C184.107 251.399 184.791 251.751 185.246 252.234C185.705 252.717 185.935 253.323 185.935 254.053C185.935 254.668 185.764 255.215 185.424 255.693C185.083 256.171 184.607 256.548 183.996 256.822C183.39 257.092 182.687 257.227 181.887 257.227C180.821 257.227 179.943 256.988 179.252 256.51C178.56 256.027 178.118 255.331 177.924 254.422L179.138 254.124C179.294 254.772 179.6 255.262 180.054 255.594C180.514 255.925 181.117 256.091 181.865 256.091C182.703 256.091 183.373 255.904 183.875 255.53C184.377 255.151 184.628 254.678 184.628 254.109C184.628 253.669 184.481 253.3 184.188 253.001C183.894 252.698 183.449 252.476 182.853 252.334L181.07 251.908C180.123 251.68 179.422 251.321 178.968 250.828C178.513 250.336 178.286 249.725 178.286 248.996C178.286 248.394 178.449 247.866 178.776 247.412C179.103 246.953 179.552 246.593 180.125 246.332C180.698 246.072 181.352 245.942 182.085 245.942C183.085 245.942 183.882 246.169 184.479 246.624C185.08 247.073 185.514 247.694 185.779 248.484ZM193.6 246.091V247.192H188.394V246.091H193.6ZM190.02 243.477H191.292V254.152C191.292 254.607 191.37 254.964 191.526 255.224C191.682 255.48 191.886 255.662 192.137 255.771C192.388 255.875 192.655 255.928 192.939 255.928C193.105 255.928 193.247 255.918 193.366 255.899C193.484 255.875 193.588 255.852 193.678 255.828L193.948 256.972C193.825 257.019 193.673 257.062 193.493 257.099C193.313 257.142 193.091 257.163 192.826 257.163C192.362 257.163 191.914 257.062 191.483 256.858C191.057 256.654 190.707 256.351 190.432 255.949C190.158 255.546 190.02 255.047 190.02 254.45V243.477ZM197.952 261.091C197.701 261.091 197.466 261.067 197.249 261.02C197.031 260.973 196.858 260.92 196.73 260.864L197.071 259.749C197.502 259.881 197.885 259.929 198.222 259.891C198.558 259.857 198.856 259.706 199.116 259.436C199.377 259.171 199.609 258.764 199.812 258.214L200.21 257.107L196.197 246.091H197.568L200.807 255.331H200.906L204.145 246.091H205.516L200.899 258.726C200.705 259.251 200.466 259.689 200.182 260.04C199.898 260.395 199.569 260.658 199.195 260.828C198.825 261.003 198.411 261.091 197.952 261.091ZM209.853 242.455V257H208.589V242.455H209.853ZM218.209 257.227C217.191 257.227 216.31 256.991 215.567 256.517C214.823 256.039 214.248 255.378 213.841 254.536C213.438 253.688 213.237 252.713 213.237 251.609C213.237 250.511 213.438 249.536 213.841 248.683C214.248 247.826 214.809 247.156 215.524 246.673C216.244 246.186 217.075 245.942 218.017 245.942C218.609 245.942 219.179 246.051 219.729 246.268C220.278 246.482 220.77 246.811 221.206 247.256C221.646 247.696 221.994 248.252 222.25 248.925C222.506 249.592 222.634 250.383 222.634 251.297V251.922H214.111V250.807H221.341C221.341 250.106 221.199 249.476 220.915 248.918C220.635 248.354 220.245 247.909 219.743 247.582C219.246 247.256 218.67 247.092 218.017 247.092C217.326 247.092 216.717 247.277 216.192 247.646C215.666 248.016 215.254 248.503 214.956 249.109C214.662 249.715 214.513 250.378 214.509 251.098V251.766C214.509 252.632 214.658 253.39 214.956 254.038C215.259 254.682 215.688 255.182 216.242 255.537C216.795 255.892 217.451 256.07 218.209 256.07C218.725 256.07 219.177 255.989 219.565 255.828C219.958 255.667 220.287 255.452 220.553 255.182C220.822 254.907 221.026 254.607 221.163 254.28L222.364 254.67C222.198 255.13 221.926 255.554 221.547 255.942C221.173 256.33 220.704 256.643 220.141 256.879C219.582 257.111 218.938 257.227 218.209 257.227ZM240.689 246.091L236.705 257H235.355L231.371 246.091H232.742L235.98 255.331H236.08L239.318 246.091H240.689ZM247.782 257.227C246.764 257.227 245.884 256.991 245.14 256.517C244.397 256.039 243.822 255.378 243.414 254.536C243.012 253.688 242.811 252.713 242.811 251.609C242.811 250.511 243.012 249.536 243.414 248.683C243.822 247.826 244.383 247.156 245.098 246.673C245.817 246.186 246.648 245.942 247.591 245.942C248.182 245.942 248.753 246.051 249.302 246.268C249.851 246.482 250.344 246.811 250.779 247.256C251.22 247.696 251.568 248.252 251.823 248.925C252.079 249.592 252.207 250.383 252.207 251.297V251.922H243.684V250.807H250.914C250.914 250.106 250.772 249.476 250.488 248.918C250.209 248.354 249.818 247.909 249.316 247.582C248.819 247.256 248.244 247.092 247.591 247.092C246.899 247.092 246.291 247.277 245.765 247.646C245.24 248.016 244.828 248.503 244.529 249.109C244.236 249.715 244.087 250.378 244.082 251.098V251.766C244.082 252.632 244.231 253.39 244.529 254.038C244.832 254.682 245.261 255.182 245.815 255.537C246.369 255.892 247.025 256.07 247.782 256.07C248.298 256.07 248.751 255.989 249.139 255.828C249.532 255.667 249.861 255.452 250.126 255.182C250.396 254.907 250.6 254.607 250.737 254.28L251.937 254.67C251.771 255.13 251.499 255.554 251.12 255.942C250.746 256.33 250.278 256.643 249.714 256.879C249.155 257.111 248.511 257.227 247.782 257.227ZM256.857 250.182V257H255.593V246.091H256.822V247.803H256.935C257.191 247.244 257.589 246.796 258.128 246.46C258.673 246.119 259.345 245.949 260.145 245.949C260.879 245.949 261.523 246.103 262.077 246.411C262.636 246.714 263.069 247.161 263.377 247.753C263.689 248.345 263.846 249.071 263.846 249.933V257H262.581V250.011C262.581 249.116 262.331 248.409 261.829 247.888C261.331 247.367 260.664 247.107 259.826 247.107C259.253 247.107 258.744 247.23 258.299 247.476C257.854 247.722 257.501 248.077 257.241 248.541C256.985 249 256.857 249.547 256.857 250.182ZM272.072 246.091V247.192H266.866V246.091H272.072ZM268.492 243.477H269.764V254.152C269.764 254.607 269.842 254.964 269.998 255.224C270.154 255.48 270.358 255.662 270.609 255.771C270.86 255.875 271.127 255.928 271.411 255.928C271.577 255.928 271.719 255.918 271.837 255.899C271.956 255.875 272.06 255.852 272.15 255.828L272.42 256.972C272.297 257.019 272.145 257.062 271.965 257.099C271.785 257.142 271.563 257.163 271.298 257.163C270.834 257.163 270.386 257.062 269.955 256.858C269.529 256.654 269.179 256.351 268.904 255.949C268.63 255.546 268.492 255.047 268.492 254.45V243.477ZM282.475 252.831V246.091H283.739V257H282.475V255.189H282.375C282.12 255.748 281.715 256.214 281.161 256.588C280.607 256.957 279.93 257.142 279.13 257.142C278.433 257.142 277.816 256.991 277.276 256.688C276.736 256.38 276.312 255.93 276.005 255.338C275.697 254.746 275.543 254.019 275.543 253.158V246.091H276.807V253.08C276.807 253.932 277.058 254.618 277.56 255.139C278.062 255.655 278.706 255.913 279.492 255.913C279.984 255.913 280.458 255.795 280.912 255.558C281.367 255.321 281.741 254.976 282.034 254.521C282.328 254.062 282.475 253.499 282.475 252.831ZM287.686 257V246.091H288.915V247.767H289.007C289.225 247.218 289.603 246.775 290.143 246.439C290.688 246.098 291.303 245.928 291.99 245.928C292.094 245.928 292.21 245.93 292.338 245.935C292.466 245.939 292.572 245.944 292.657 245.949V247.234C292.601 247.225 292.501 247.211 292.359 247.192C292.217 247.173 292.063 247.163 291.897 247.163C291.329 247.163 290.823 247.284 290.378 247.526C289.937 247.762 289.589 248.091 289.334 248.513C289.078 248.934 288.95 249.415 288.95 249.955V257H287.686ZM299.493 257.227C298.475 257.227 297.595 256.991 296.851 256.517C296.108 256.039 295.533 255.378 295.125 254.536C294.723 253.688 294.522 252.713 294.522 251.609C294.522 250.511 294.723 249.536 295.125 248.683C295.533 247.826 296.094 247.156 296.809 246.673C297.528 246.186 298.359 245.942 299.301 245.942C299.893 245.942 300.464 246.051 301.013 246.268C301.562 246.482 302.055 246.811 302.49 247.256C302.931 247.696 303.279 248.252 303.534 248.925C303.79 249.592 303.918 250.383 303.918 251.297V251.922H295.395V250.807H302.625C302.625 250.106 302.483 249.476 302.199 248.918C301.92 248.354 301.529 247.909 301.027 247.582C300.53 247.256 299.955 247.092 299.301 247.092C298.61 247.092 298.002 247.277 297.476 247.646C296.951 248.016 296.539 248.503 296.24 249.109C295.947 249.715 295.798 250.378 295.793 251.098V251.766C295.793 252.632 295.942 253.39 296.24 254.038C296.543 254.682 296.972 255.182 297.526 255.537C298.08 255.892 298.736 256.07 299.493 256.07C300.009 256.07 300.462 255.989 300.85 255.828C301.243 255.667 301.572 255.452 301.837 255.182C302.107 254.907 302.31 254.607 302.448 254.28L303.648 254.67C303.482 255.13 303.21 255.554 302.831 255.942C302.457 256.33 301.988 256.643 301.425 256.879C300.866 257.111 300.222 257.227 299.493 257.227ZM320.858 248.484L319.701 248.811C319.587 248.484 319.426 248.188 319.218 247.923C319.009 247.658 318.737 247.447 318.401 247.291C318.069 247.135 317.658 247.057 317.165 247.057C316.427 247.057 315.82 247.232 315.347 247.582C314.873 247.933 314.637 248.385 314.637 248.939C314.637 249.408 314.798 249.789 315.12 250.082C315.446 250.371 315.948 250.601 316.625 250.771L318.273 251.176C319.187 251.399 319.871 251.751 320.326 252.234C320.785 252.717 321.015 253.323 321.015 254.053C321.015 254.668 320.844 255.215 320.503 255.693C320.162 256.171 319.686 256.548 319.076 256.822C318.47 257.092 317.766 257.227 316.966 257.227C315.901 257.227 315.023 256.988 314.331 256.51C313.64 256.027 313.197 255.331 313.003 254.422L314.218 254.124C314.374 254.772 314.679 255.262 315.134 255.594C315.593 255.925 316.197 256.091 316.945 256.091C317.783 256.091 318.453 255.904 318.955 255.53C319.457 255.151 319.708 254.678 319.708 254.109C319.708 253.669 319.561 253.3 319.267 253.001C318.974 252.698 318.529 252.476 317.932 252.334L316.15 251.908C315.203 251.68 314.502 251.321 314.047 250.828C313.593 250.336 313.365 249.725 313.365 248.996C313.365 248.394 313.529 247.866 313.855 247.412C314.182 246.953 314.632 246.593 315.205 246.332C315.778 246.072 316.431 245.942 317.165 245.942C318.164 245.942 318.962 246.169 319.559 246.624C320.16 247.073 320.593 247.694 320.858 248.484ZM328.68 246.091V247.192H323.474V246.091H328.68ZM325.1 243.477H326.371V254.152C326.371 254.607 326.449 254.964 326.606 255.224C326.762 255.48 326.966 255.662 327.217 255.771C327.467 255.875 327.735 255.928 328.019 255.928C328.185 255.928 328.327 255.918 328.445 255.899C328.564 255.875 328.668 255.852 328.758 255.828L329.028 256.972C328.904 257.019 328.753 257.062 328.573 257.099C328.393 257.142 328.171 257.163 327.905 257.163C327.441 257.163 326.994 257.062 326.563 256.858C326.137 256.654 325.787 256.351 325.512 255.949C325.237 255.546 325.1 255.047 325.1 254.45V243.477ZM339.082 252.831V246.091H340.347V257H339.082V255.189H338.983C338.727 255.748 338.323 256.214 337.769 256.588C337.215 256.957 336.537 257.142 335.737 257.142C335.041 257.142 334.423 256.991 333.884 256.688C333.344 256.38 332.92 255.93 332.612 255.338C332.305 254.746 332.151 254.019 332.151 253.158V246.091H333.415V253.08C333.415 253.932 333.666 254.618 334.168 255.139C334.67 255.655 335.314 255.913 336.1 255.913C336.592 255.913 337.065 255.795 337.52 255.558C337.975 255.321 338.349 254.976 338.642 254.521C338.936 254.062 339.082 253.499 339.082 252.831ZM348.221 257.227C347.326 257.227 346.543 256.991 345.87 256.517C345.198 256.044 344.672 255.383 344.294 254.536C343.92 253.688 343.733 252.701 343.733 251.574C343.733 250.452 343.92 249.469 344.294 248.626C344.672 247.779 345.2 247.121 345.877 246.652C346.555 246.179 347.343 245.942 348.243 245.942C348.905 245.942 349.457 246.06 349.897 246.297C350.338 246.529 350.69 246.818 350.956 247.163C351.221 247.509 351.427 247.845 351.573 248.172H351.687V242.455H352.958V257H351.723V254.976H351.573C351.427 255.307 351.218 255.648 350.948 255.999C350.679 256.344 350.321 256.635 349.876 256.872C349.436 257.109 348.884 257.227 348.221 257.227ZM348.37 256.07C349.076 256.07 349.677 255.878 350.174 255.494C350.672 255.106 351.05 254.573 351.311 253.896C351.576 253.214 351.708 252.433 351.708 251.553C351.708 250.681 351.578 249.912 351.318 249.244C351.057 248.572 350.679 248.046 350.181 247.668C349.684 247.284 349.081 247.092 348.37 247.092C347.641 247.092 347.026 247.291 346.524 247.689C346.027 248.082 345.648 248.615 345.387 249.287C345.132 249.959 345.004 250.714 345.004 251.553C345.004 252.4 345.134 253.165 345.395 253.847C345.655 254.528 346.034 255.071 346.531 255.473C347.033 255.871 347.646 256.07 348.37 256.07ZM357.173 257V246.091H358.445V257H357.173ZM357.82 244.216C357.559 244.216 357.337 244.128 357.152 243.953C356.968 243.773 356.875 243.558 356.875 243.307C356.875 243.056 356.968 242.843 357.152 242.668C357.337 242.488 357.559 242.398 357.82 242.398C358.08 242.398 358.303 242.488 358.487 242.668C358.672 242.843 358.764 243.056 358.764 243.307C358.764 243.558 358.672 243.773 358.487 243.953C358.303 244.128 358.08 244.216 357.82 244.216ZM366.628 257.227C365.686 257.227 364.853 256.988 364.128 256.51C363.409 256.032 362.845 255.371 362.438 254.528C362.031 253.681 361.827 252.703 361.827 251.595C361.827 250.478 362.031 249.495 362.438 248.648C362.845 247.795 363.409 247.133 364.128 246.659C364.853 246.181 365.686 245.942 366.628 245.942C367.57 245.942 368.401 246.181 369.121 246.659C369.841 247.137 370.404 247.8 370.811 248.648C371.223 249.495 371.429 250.478 371.429 251.595C371.429 252.703 371.226 253.681 370.819 254.528C370.411 255.371 369.846 256.032 369.121 256.51C368.401 256.988 367.57 257.227 366.628 257.227ZM366.628 256.07C367.386 256.07 368.027 255.866 368.553 255.459C369.078 255.052 369.476 254.509 369.746 253.832C370.021 253.155 370.158 252.41 370.158 251.595C370.158 250.781 370.021 250.033 369.746 249.351C369.476 248.669 369.078 248.122 368.553 247.71C368.027 247.298 367.386 247.092 366.628 247.092C365.875 247.092 365.234 247.298 364.703 247.71C364.178 248.122 363.778 248.669 363.503 249.351C363.233 250.033 363.098 250.781 363.098 251.595C363.098 252.41 363.233 253.155 363.503 253.832C363.778 254.509 364.178 255.052 364.703 255.459C365.229 255.866 365.871 256.07 366.628 256.07ZM375.813 257.107C375.534 257.107 375.292 257.007 375.089 256.808C374.89 256.605 374.79 256.363 374.79 256.084C374.79 255.8 374.89 255.558 375.089 255.359C375.292 255.161 375.534 255.061 375.813 255.061C376.097 255.061 376.339 255.161 376.538 255.359C376.736 255.558 376.836 255.8 376.836 256.084C376.836 256.268 376.788 256.439 376.694 256.595C376.604 256.751 376.481 256.877 376.324 256.972C376.173 257.062 376.003 257.107 375.813 257.107Z" fill="#F9AC02"/>
<g clip-path="url(#clip0_32_1344)">
<path d="M222.333 75.6665H209.833C208.728 75.6665 207.668 76.1055 206.887 76.8869C206.106 77.6683 205.667 78.7281 205.667 79.8332C205.667 80.9382 206.106 81.998 206.887 82.7794C207.668 83.5609 208.728 83.9998 209.833 83.9998H218.167C219.272 83.9998 220.332 84.4388 221.113 85.2202C221.894 86.0016 222.333 87.0614 222.333 88.1665C222.333 89.2716 221.894 90.3314 221.113 91.1128C220.332 91.8942 219.272 92.3332 218.167 92.3332H205.667M214 96.4998V71.4998M234.833 83.9998C234.833 95.5058 225.506 104.833 214 104.833C202.494 104.833 193.167 95.5058 193.167 83.9998C193.167 72.4939 202.494 63.1665 214 63.1665C225.506 63.1665 234.833 72.4939 234.833 83.9998Z" stroke="#F9AC02" stroke-width="2" stroke-linecap="round" stroke-linejoin="round"/>
</g>
<defs>
<filter id="filter0_d_32_1344" x="0.8" y="0.8" width="426.4" height="327.4" filterUnits="userSpaceOnUse" color-interpolation-filters="sRGB">
<feFlood flood-opacity="0" result="BackgroundImageFix"/>
<feColorMatrix in="SourceAlpha" type="matrix" values="0 0 0 0 0 0 0 0 0 0 0 0 0 0 0 0 0 0 127 0" result="hardAlpha"/>
<feOffset dy="4"/>
<feGaussianBlur stdDeviation="6.6"/>
<feComposite in2="hardAlpha" operator="out"/>
<feColorMatrix type="matrix" values="0 0 0 0 0 0 0 0 0 0 0 0 0 0 0 0 0 0 0.49 0"/>
<feBlend mode="normal" in2="BackgroundImageFix" result="effect1_dropShadow_32_1344"/>
<feBlend mode="normal" in="SourceGraphic" in2="effect1_dropShadow_32_1344" result="shape"/>
</filter>
<linearGradient id="paint0_linear_32_1344" x1="-14" y1="-6.99999" x2="400.74" y2="-8.63544" gradientUnits="userSpaceOnUse">
<stop stop-color="#F9AC02"/>
<stop offset="1" stop-color="#666666"/>
</linearGradient>
<clipPath id="clip0_32_1344">
<rect width="50" height="50" fill="white" transform="translate(189 59)"/>
</clipPath>
</defs>
</svg>
