<svg width="428" height="329" viewBox="0 0 428 329" fill="none" xmlns="http://www.w3.org/2000/svg">
<g filter="url(#filter0_d_32_1378)">
<rect x="14" y="10" width="400" height="301" rx="26" fill="#0E0E0E"/>
<rect x="14.5" y="10.5" width="399" height="300" rx="25.5" stroke="url(#paint0_linear_32_1378)" stroke-opacity="0.56"/>
</g>
<path d="M113.388 134.455V149H110.313V134.455H113.388ZM129.685 134.455V149H127.028L120.7 139.845H120.594V149H117.518V134.455H120.217L126.496 143.602H126.624V134.455H129.685ZM146.659 139.547H143.549C143.492 139.144 143.376 138.787 143.201 138.474C143.025 138.157 142.8 137.887 142.526 137.665C142.251 137.442 141.934 137.272 141.574 137.153C141.219 137.035 140.833 136.976 140.416 136.976C139.664 136.976 139.008 137.163 138.449 137.537C137.89 137.906 137.457 138.446 137.149 139.156C136.842 139.862 136.688 140.719 136.688 141.727C136.688 142.764 136.842 143.635 137.149 144.341C137.462 145.046 137.897 145.579 138.456 145.939C139.015 146.299 139.661 146.479 140.395 146.479C140.807 146.479 141.188 146.424 141.539 146.315C141.894 146.206 142.209 146.048 142.483 145.839C142.758 145.626 142.985 145.368 143.165 145.065C143.35 144.762 143.478 144.417 143.549 144.028L146.659 144.043C146.579 144.71 146.378 145.354 146.056 145.974C145.738 146.59 145.31 147.142 144.77 147.629C144.235 148.112 143.596 148.496 142.853 148.78C142.114 149.059 141.278 149.199 140.345 149.199C139.048 149.199 137.888 148.905 136.865 148.318C135.847 147.731 135.042 146.881 134.451 145.768C133.863 144.656 133.57 143.309 133.57 141.727C133.57 140.141 133.868 138.792 134.465 137.679C135.061 136.566 135.871 135.719 136.894 135.136C137.916 134.549 139.067 134.256 140.345 134.256C141.188 134.256 141.969 134.374 142.689 134.611C143.414 134.848 144.055 135.193 144.614 135.648C145.173 136.098 145.627 136.649 145.978 137.303C146.333 137.956 146.56 138.704 146.659 139.547ZM159.449 134.455H162.524V143.901C162.524 144.961 162.271 145.889 161.764 146.685C161.262 147.48 160.559 148.1 159.655 148.545C158.751 148.986 157.697 149.206 156.494 149.206C155.287 149.206 154.231 148.986 153.327 148.545C152.422 148.1 151.719 147.48 151.217 146.685C150.716 145.889 150.465 144.961 150.465 143.901V134.455H153.54V143.638C153.54 144.192 153.661 144.684 153.902 145.115C154.148 145.546 154.494 145.884 154.939 146.131C155.384 146.377 155.903 146.5 156.494 146.5C157.091 146.5 157.609 146.377 158.05 146.131C158.495 145.884 158.838 145.546 159.08 145.115C159.326 144.684 159.449 144.192 159.449 143.638V134.455ZM166.654 149V134.455H172.478C173.548 134.455 174.441 134.613 175.156 134.93C175.871 135.248 176.408 135.688 176.768 136.251C177.128 136.81 177.308 137.454 177.308 138.183C177.308 138.751 177.194 139.251 176.967 139.682C176.74 140.108 176.427 140.458 176.029 140.733C175.636 141.003 175.187 141.195 174.68 141.308V141.45C175.234 141.474 175.752 141.63 176.235 141.919C176.723 142.208 177.118 142.613 177.421 143.134C177.725 143.65 177.876 144.265 177.876 144.98C177.876 145.752 177.684 146.441 177.301 147.047C176.922 147.648 176.361 148.124 175.618 148.474C174.874 148.825 173.958 149 172.869 149H166.654ZM169.73 146.486H172.237C173.094 146.486 173.719 146.322 174.112 145.996C174.505 145.664 174.701 145.224 174.701 144.675C174.701 144.272 174.604 143.917 174.41 143.609C174.216 143.302 173.939 143.06 173.579 142.885C173.224 142.71 172.8 142.622 172.308 142.622H169.73V146.486ZM169.73 140.541H172.01C172.431 140.541 172.805 140.468 173.132 140.321C173.463 140.17 173.724 139.956 173.913 139.682C174.107 139.407 174.204 139.078 174.204 138.695C174.204 138.169 174.017 137.745 173.643 137.423C173.274 137.101 172.748 136.94 172.066 136.94H169.73V140.541ZM183.984 149H180.689L185.71 134.455H189.673L194.687 149H191.392L187.748 137.778H187.635L183.984 149ZM183.778 143.283H191.562V145.683H183.778V143.283ZM195.707 136.99V134.455H207.653V136.99H203.2V149H200.16V136.99H195.707ZM214.295 134.455V149H211.22V134.455H214.295ZM231.792 141.727C231.792 143.313 231.491 144.663 230.89 145.776C230.293 146.888 229.479 147.738 228.447 148.325C227.419 148.908 226.264 149.199 224.981 149.199C223.688 149.199 222.528 148.905 221.501 148.318C220.473 147.731 219.661 146.881 219.065 145.768C218.468 144.656 218.17 143.309 218.17 141.727C218.17 140.141 218.468 138.792 219.065 137.679C219.661 136.566 220.473 135.719 221.501 135.136C222.528 134.549 223.688 134.256 224.981 134.256C226.264 134.256 227.419 134.549 228.447 135.136C229.479 135.719 230.293 136.566 230.89 137.679C231.491 138.792 231.792 140.141 231.792 141.727ZM228.674 141.727C228.674 140.7 228.52 139.833 228.212 139.128C227.909 138.422 227.481 137.887 226.927 137.523C226.373 137.158 225.724 136.976 224.981 136.976C224.238 136.976 223.589 137.158 223.035 137.523C222.481 137.887 222.05 138.422 221.742 139.128C221.439 139.833 221.288 140.7 221.288 141.727C221.288 142.755 221.439 143.621 221.742 144.327C222.05 145.032 222.481 145.567 223.035 145.932C223.589 146.296 224.238 146.479 224.981 146.479C225.724 146.479 226.373 146.296 226.927 145.932C227.481 145.567 227.909 145.032 228.212 144.327C228.52 143.621 228.674 142.755 228.674 141.727ZM247.836 134.455V149H245.18L238.852 139.845H238.745V149H235.67V134.455H238.369L244.647 143.602H244.775V134.455H247.836ZM261.48 149L257.318 134.455H260.678L263.085 144.561H263.206L265.862 134.455H268.739L271.388 144.582H271.516L273.923 134.455H277.283L273.121 149H270.124L267.354 139.49H267.24L264.477 149H261.48ZM283.604 134.455V149H280.529V134.455H283.604ZM287.18 136.99V134.455H299.126V136.99H294.673V149H291.633V136.99H287.18ZM302.693 149V134.455H305.769V140.456H312.012V134.455H315.08V149H312.012V142.991H305.769V149H302.693ZM113.459 163.547H110.349C110.292 163.144 110.176 162.787 110.001 162.474C109.825 162.157 109.6 161.887 109.326 161.665C109.051 161.442 108.734 161.272 108.374 161.153C108.019 161.035 107.633 160.976 107.216 160.976C106.464 160.976 105.808 161.163 105.249 161.537C104.69 161.906 104.257 162.446 103.949 163.156C103.642 163.862 103.488 164.719 103.488 165.727C103.488 166.764 103.642 167.635 103.949 168.341C104.262 169.046 104.698 169.579 105.256 169.939C105.815 170.299 106.461 170.479 107.195 170.479C107.607 170.479 107.988 170.424 108.339 170.315C108.694 170.206 109.009 170.048 109.283 169.839C109.558 169.626 109.785 169.368 109.965 169.065C110.15 168.762 110.278 168.417 110.349 168.028L113.459 168.043C113.379 168.71 113.178 169.354 112.856 169.974C112.538 170.59 112.11 171.142 111.57 171.629C111.035 172.112 110.396 172.496 109.653 172.78C108.914 173.059 108.078 173.199 107.145 173.199C105.848 173.199 104.688 172.905 103.665 172.318C102.647 171.731 101.842 170.881 101.251 169.768C100.663 168.656 100.37 167.309 100.37 165.727C100.37 164.141 100.668 162.792 101.265 161.679C101.861 160.566 102.671 159.719 103.694 159.136C104.716 158.549 105.867 158.256 107.145 158.256C107.988 158.256 108.769 158.374 109.489 158.611C110.214 158.848 110.855 159.193 111.414 159.648C111.973 160.098 112.427 160.649 112.778 161.303C113.133 161.956 113.36 162.704 113.459 163.547ZM130.631 165.727C130.631 167.313 130.33 168.663 129.729 169.776C129.132 170.888 128.318 171.738 127.286 172.325C126.258 172.908 125.103 173.199 123.82 173.199C122.527 173.199 121.367 172.905 120.34 172.318C119.312 171.731 118.5 170.881 117.904 169.768C117.307 168.656 117.009 167.309 117.009 165.727C117.009 164.141 117.307 162.792 117.904 161.679C118.5 160.566 119.312 159.719 120.34 159.136C121.367 158.549 122.527 158.256 123.82 158.256C125.103 158.256 126.258 158.549 127.286 159.136C128.318 159.719 129.132 160.566 129.729 161.679C130.33 162.792 130.631 164.141 130.631 165.727ZM127.513 165.727C127.513 164.7 127.359 163.833 127.052 163.128C126.748 162.422 126.32 161.887 125.766 161.523C125.212 161.158 124.563 160.976 123.82 160.976C123.077 160.976 122.428 161.158 121.874 161.523C121.32 161.887 120.889 162.422 120.581 163.128C120.278 163.833 120.127 164.7 120.127 165.727C120.127 166.755 120.278 167.621 120.581 168.327C120.889 169.032 121.32 169.567 121.874 169.932C122.428 170.296 123.077 170.479 123.82 170.479C124.563 170.479 125.212 170.296 125.766 169.932C126.32 169.567 126.748 169.032 127.052 168.327C127.359 167.621 127.513 166.755 127.513 165.727ZM134.509 173V158.455H144.14V160.99H137.584V164.456H143.501V166.991H137.584V173H134.509ZM161.175 165.727C161.175 167.313 160.874 168.663 160.273 169.776C159.676 170.888 158.862 171.738 157.83 172.325C156.802 172.908 155.647 173.199 154.364 173.199C153.071 173.199 151.911 172.905 150.884 172.318C149.856 171.731 149.044 170.881 148.448 169.768C147.851 168.656 147.553 167.309 147.553 165.727C147.553 164.141 147.851 162.792 148.448 161.679C149.044 160.566 149.856 159.719 150.884 159.136C151.911 158.549 153.071 158.256 154.364 158.256C155.647 158.256 156.802 158.549 157.83 159.136C158.862 159.719 159.676 160.566 160.273 161.679C160.874 162.792 161.175 164.141 161.175 165.727ZM158.057 165.727C158.057 164.7 157.903 163.833 157.595 163.128C157.292 162.422 156.864 161.887 156.31 161.523C155.756 161.158 155.107 160.976 154.364 160.976C153.62 160.976 152.972 161.158 152.418 161.523C151.864 161.887 151.433 162.422 151.125 163.128C150.822 163.833 150.671 164.7 150.671 165.727C150.671 166.755 150.822 167.621 151.125 168.327C151.433 169.032 151.864 169.567 152.418 169.932C152.972 170.296 153.62 170.479 154.364 170.479C155.107 170.479 155.756 170.296 156.31 169.932C156.864 169.567 157.292 169.032 157.595 168.327C157.903 167.621 158.057 166.755 158.057 165.727ZM174.037 158.455H177.113V167.901C177.113 168.961 176.859 169.889 176.353 170.685C175.851 171.48 175.148 172.1 174.243 172.545C173.339 172.986 172.285 173.206 171.083 173.206C169.875 173.206 168.819 172.986 167.915 172.545C167.011 172.1 166.308 171.48 165.806 170.685C165.304 169.889 165.053 168.961 165.053 167.901V158.455H168.128V167.638C168.128 168.192 168.249 168.684 168.49 169.115C168.737 169.546 169.082 169.884 169.527 170.131C169.972 170.377 170.491 170.5 171.083 170.5C171.679 170.5 172.198 170.377 172.638 170.131C173.083 169.884 173.426 169.546 173.668 169.115C173.914 168.684 174.037 168.192 174.037 167.638V158.455ZM193.409 158.455V173H190.753L184.425 163.845H184.318V173H181.243V158.455H183.942L190.22 167.602H190.348V158.455H193.409ZM202.706 173H197.55V158.455H202.749C204.212 158.455 205.471 158.746 206.527 159.328C207.583 159.906 208.395 160.737 208.963 161.821C209.536 162.905 209.822 164.203 209.822 165.713C209.822 167.228 209.536 168.53 208.963 169.619C208.395 170.708 207.578 171.544 206.513 172.126C205.452 172.709 204.183 173 202.706 173ZM200.625 170.365H202.578C203.487 170.365 204.252 170.204 204.872 169.882C205.497 169.555 205.966 169.051 206.278 168.369C206.596 167.683 206.754 166.797 206.754 165.713C206.754 164.638 206.596 163.76 206.278 163.078C205.966 162.396 205.5 161.894 204.879 161.572C204.259 161.25 203.494 161.089 202.585 161.089H200.625V170.365ZM213.701 173V158.455H223.502V160.99H216.776V164.456H222.997V166.991H216.776V170.464H223.53V173H213.701ZM227.547 173V158.455H233.285C234.384 158.455 235.321 158.651 236.098 159.044C236.879 159.432 237.473 159.984 237.88 160.699C238.292 161.409 238.498 162.245 238.498 163.206C238.498 164.172 238.29 165.003 237.873 165.699C237.457 166.39 236.853 166.92 236.062 167.29C235.276 167.659 234.325 167.844 233.207 167.844H229.365V165.372H232.71C233.297 165.372 233.785 165.292 234.173 165.131C234.561 164.97 234.85 164.728 235.04 164.406C235.234 164.084 235.331 163.684 235.331 163.206C235.331 162.723 235.234 162.316 235.04 161.984C234.85 161.653 234.559 161.402 234.166 161.232C233.778 161.056 233.288 160.969 232.696 160.969H230.622V173H227.547ZM235.402 166.381L239.017 173H235.622L232.085 166.381H235.402ZM261.334 163.547H258.224C258.167 163.144 258.051 162.787 257.876 162.474C257.7 162.157 257.475 161.887 257.201 161.665C256.926 161.442 256.609 161.272 256.249 161.153C255.894 161.035 255.508 160.976 255.091 160.976C254.339 160.976 253.683 161.163 253.124 161.537C252.565 161.906 252.132 162.446 251.824 163.156C251.517 163.862 251.363 164.719 251.363 165.727C251.363 166.764 251.517 167.635 251.824 168.341C252.137 169.046 252.573 169.579 253.131 169.939C253.69 170.299 254.336 170.479 255.07 170.479C255.482 170.479 255.863 170.424 256.214 170.315C256.569 170.206 256.884 170.048 257.158 169.839C257.433 169.626 257.66 169.368 257.84 169.065C258.025 168.762 258.153 168.417 258.224 168.028L261.334 168.043C261.254 168.71 261.053 169.354 260.731 169.974C260.413 170.59 259.985 171.142 259.445 171.629C258.91 172.112 258.271 172.496 257.528 172.78C256.789 173.059 255.953 173.199 255.02 173.199C253.723 173.199 252.563 172.905 251.54 172.318C250.522 171.731 249.717 170.881 249.126 169.768C248.538 168.656 248.245 167.309 248.245 165.727C248.245 164.141 248.543 162.792 249.14 161.679C249.736 160.566 250.546 159.719 251.569 159.136C252.591 158.549 253.742 158.256 255.02 158.256C255.863 158.256 256.644 158.374 257.364 158.611C258.089 158.848 258.73 159.193 259.289 159.648C259.848 160.098 260.302 160.649 260.653 161.303C261.008 161.956 261.235 162.704 261.334 163.547ZM268.215 158.455V173H265.14V158.455H268.215ZM272.345 173V158.455H278.084C279.182 158.455 280.12 158.651 280.896 159.044C281.677 159.432 282.272 159.984 282.679 160.699C283.091 161.409 283.297 162.245 283.297 163.206C283.297 164.172 283.088 165.003 282.672 165.699C282.255 166.39 281.651 166.92 280.861 167.29C280.075 167.659 279.123 167.844 278.006 167.844H274.163V165.372H277.508C278.096 165.372 278.583 165.292 278.971 165.131C279.36 164.97 279.649 164.728 279.838 164.406C280.032 164.084 280.129 163.684 280.129 163.206C280.129 162.723 280.032 162.316 279.838 161.984C279.649 161.653 279.357 161.402 278.964 161.232C278.576 161.056 278.086 160.969 277.494 160.969H275.42V173H272.345ZM280.2 166.381L283.815 173H280.42L276.883 166.381H280.2ZM299.904 163.547H296.793C296.736 163.144 296.62 162.787 296.445 162.474C296.27 162.157 296.045 161.887 295.77 161.665C295.496 161.442 295.178 161.272 294.819 161.153C294.464 161.035 294.078 160.976 293.661 160.976C292.908 160.976 292.252 161.163 291.694 161.537C291.135 161.906 290.702 162.446 290.394 163.156C290.086 163.862 289.932 164.719 289.932 165.727C289.932 166.764 290.086 167.635 290.394 168.341C290.706 169.046 291.142 169.579 291.701 169.939C292.259 170.299 292.906 170.479 293.64 170.479C294.052 170.479 294.433 170.424 294.783 170.315C295.138 170.206 295.453 170.048 295.728 169.839C296.002 169.626 296.23 169.368 296.41 169.065C296.594 168.762 296.722 168.417 296.793 168.028L299.904 168.043C299.823 168.71 299.622 169.354 299.3 169.974C298.983 170.59 298.554 171.142 298.015 171.629C297.48 172.112 296.84 172.496 296.097 172.78C295.358 173.059 294.523 173.199 293.59 173.199C292.293 173.199 291.133 172.905 290.11 172.318C289.092 171.731 288.287 170.881 287.695 169.768C287.108 168.656 286.814 167.309 286.814 165.727C286.814 164.141 287.113 162.792 287.709 161.679C288.306 160.566 289.116 159.719 290.138 159.136C291.161 158.549 292.312 158.256 293.59 158.256C294.433 158.256 295.214 158.374 295.934 158.611C296.658 158.848 297.3 159.193 297.858 159.648C298.417 160.098 298.872 160.649 299.222 161.303C299.577 161.956 299.804 162.704 299.904 163.547ZM303.709 173V158.455H306.784V170.464H313.02V173H303.709ZM316.657 173V158.455H326.458V160.99H319.732V164.456H325.954V166.991H319.732V170.464H326.486V173H316.657Z" fill="white"/>
<path d="M81.336 199C81.2034 198.517 81.0093 198.065 80.7536 197.643C80.4979 197.217 80.1807 196.846 79.8019 196.528C79.4278 196.206 78.9946 195.955 78.5022 195.776C78.0145 195.596 77.47 195.506 76.8686 195.506C75.9217 195.506 75.0741 195.752 74.326 196.244C73.5779 196.737 72.9861 197.447 72.5505 198.375C72.1196 199.303 71.9042 200.42 71.9042 201.727C71.9042 203.029 72.122 204.144 72.5576 205.072C72.9932 206 73.5898 206.713 74.3473 207.21C75.1097 207.703 75.9809 207.949 76.961 207.949C77.8559 207.949 78.6466 207.75 79.3331 207.352C80.0197 206.955 80.5547 206.386 80.9383 205.648C81.3265 204.909 81.5159 204.031 81.5064 203.013L81.9326 203.148H77.2735V201.955H82.799V203.148C82.799 204.388 82.5481 205.461 82.0462 206.365C81.5443 207.269 80.8554 207.968 79.9794 208.46C79.1035 208.953 78.0973 209.199 76.961 209.199C75.692 209.199 74.5817 208.893 73.63 208.283C72.6783 207.667 71.9373 206.801 71.407 205.683C70.8814 204.561 70.6186 203.242 70.6186 201.727C70.6186 200.586 70.7702 199.556 71.0732 198.638C71.3762 197.719 71.8047 196.933 72.3587 196.28C72.9174 195.626 73.5779 195.127 74.3402 194.781C75.1026 194.431 75.9454 194.256 76.8686 194.256C77.6641 194.256 78.3909 194.381 79.049 194.632C79.7119 194.883 80.2943 195.229 80.7962 195.669C81.3028 196.105 81.7171 196.609 82.0391 197.182C82.3658 197.75 82.586 198.356 82.6996 199H81.336ZM90.844 209.227C89.826 209.227 88.9453 208.991 88.202 208.517C87.4586 208.039 86.8833 207.378 86.4761 206.536C86.0736 205.688 85.8724 204.713 85.8724 203.609C85.8724 202.511 86.0736 201.536 86.4761 200.683C86.8833 199.826 87.4444 199.156 88.1593 198.673C88.879 198.186 89.71 197.942 90.6522 197.942C91.2441 197.942 91.8146 198.051 92.3639 198.268C92.9131 198.482 93.4056 198.811 93.8412 199.256C94.2815 199.696 94.6295 200.252 94.8852 200.925C95.1409 201.592 95.2687 202.383 95.2687 203.297V203.922H86.746V202.807H93.9761C93.9761 202.106 93.8341 201.476 93.55 200.918C93.2706 200.354 92.88 199.909 92.3781 199.582C91.8809 199.256 91.3057 199.092 90.6522 199.092C89.961 199.092 89.3525 199.277 88.827 199.646C88.3014 200.016 87.8895 200.503 87.5912 201.109C87.2976 201.715 87.1485 202.378 87.1437 203.098V203.766C87.1437 204.632 87.2929 205.39 87.5912 206.038C87.8942 206.682 88.3227 207.182 88.8767 207.537C89.4307 207.892 90.0864 208.07 90.844 208.07C91.3601 208.07 91.8123 207.989 92.2005 207.828C92.5935 207.667 92.9226 207.452 93.1878 207.182C93.4576 206.907 93.6612 206.607 93.7985 206.28L94.9988 206.67C94.8331 207.13 94.5609 207.554 94.1821 207.942C93.808 208.33 93.3393 208.643 92.7758 208.879C92.2171 209.111 91.5732 209.227 90.844 209.227ZM102.951 198.091V199.192H97.7455V198.091H102.951ZM99.3719 195.477H100.643V206.152C100.643 206.607 100.721 206.964 100.878 207.224C101.034 207.48 101.237 207.662 101.488 207.771C101.739 207.875 102.007 207.928 102.291 207.928C102.457 207.928 102.599 207.918 102.717 207.899C102.835 207.875 102.94 207.852 103.03 207.828L103.299 208.972C103.176 209.019 103.025 209.062 102.845 209.099C102.665 209.142 102.442 209.163 102.177 209.163C101.713 209.163 101.266 209.062 100.835 208.858C100.409 208.654 100.058 208.351 99.7838 207.949C99.5092 207.546 99.3719 207.047 99.3719 206.45V195.477ZM112.662 209V198.091H113.933V209H112.662ZM113.308 196.216C113.048 196.216 112.825 196.128 112.64 195.953C112.456 195.773 112.363 195.558 112.363 195.307C112.363 195.056 112.456 194.843 112.64 194.668C112.825 194.488 113.048 194.398 113.308 194.398C113.568 194.398 113.791 194.488 113.976 194.668C114.16 194.843 114.253 195.056 114.253 195.307C114.253 195.558 114.16 195.773 113.976 195.953C113.791 196.128 113.568 196.216 113.308 196.216ZM119.141 202.182V209H117.876V198.091H119.105V199.803H119.219C119.474 199.244 119.872 198.796 120.412 198.46C120.956 198.119 121.629 197.949 122.429 197.949C123.163 197.949 123.807 198.103 124.361 198.411C124.92 198.714 125.353 199.161 125.661 199.753C125.973 200.345 126.129 201.071 126.129 201.933V209H124.865V202.011C124.865 201.116 124.614 200.409 124.112 199.888C123.615 199.367 122.947 199.107 122.109 199.107C121.537 199.107 121.028 199.23 120.582 199.476C120.137 199.722 119.785 200.077 119.524 200.541C119.269 201 119.141 201.547 119.141 202.182ZM134.32 209.227C133.344 209.227 132.495 208.983 131.77 208.496C131.05 208.008 130.492 207.34 130.094 206.493C129.696 205.645 129.497 204.679 129.497 203.595C129.497 202.501 129.699 201.528 130.101 200.676C130.508 199.824 131.072 199.156 131.791 198.673C132.511 198.186 133.347 197.942 134.299 197.942C135.028 197.942 135.688 198.084 136.28 198.368C136.872 198.647 137.36 199.043 137.743 199.554C138.131 200.061 138.375 200.652 138.475 201.33H137.196C137.064 200.714 136.744 200.188 136.237 199.753C135.736 199.312 135.096 199.092 134.32 199.092C133.624 199.092 133.008 199.282 132.473 199.661C131.938 200.035 131.519 200.558 131.216 201.23C130.918 201.898 130.769 202.672 130.769 203.553C130.769 204.438 130.915 205.222 131.209 205.903C131.503 206.58 131.915 207.111 132.445 207.494C132.98 207.878 133.605 208.07 134.32 208.07C134.803 208.07 135.243 207.98 135.641 207.8C136.043 207.615 136.38 207.355 136.649 207.018C136.924 206.682 137.109 206.282 137.203 205.818H138.482C138.387 206.476 138.153 207.063 137.779 207.58C137.409 208.091 136.929 208.493 136.337 208.787C135.75 209.08 135.077 209.227 134.32 209.227ZM148.723 204.831V198.091H149.987V209H148.723V207.189H148.624C148.368 207.748 147.963 208.214 147.409 208.588C146.855 208.957 146.178 209.142 145.378 209.142C144.682 209.142 144.064 208.991 143.524 208.688C142.984 208.38 142.561 207.93 142.253 207.338C141.945 206.746 141.791 206.019 141.791 205.158V198.091H143.056V205.08C143.056 205.932 143.306 206.618 143.808 207.139C144.31 207.655 144.954 207.913 145.74 207.913C146.233 207.913 146.706 207.795 147.161 207.558C147.615 207.321 147.989 206.976 148.283 206.521C148.576 206.062 148.723 205.499 148.723 204.831ZM154.197 209V194.455H155.468V200.172H155.582C155.724 199.845 155.928 199.509 156.193 199.163C156.463 198.818 156.815 198.529 157.251 198.297C157.691 198.06 158.245 197.942 158.913 197.942C159.808 197.942 160.594 198.179 161.271 198.652C161.948 199.121 162.476 199.779 162.855 200.626C163.234 201.469 163.423 202.452 163.423 203.574C163.423 204.701 163.234 205.688 162.855 206.536C162.481 207.383 161.955 208.044 161.278 208.517C160.606 208.991 159.824 209.227 158.934 209.227C158.271 209.227 157.717 209.109 157.272 208.872C156.832 208.635 156.477 208.344 156.207 207.999C155.937 207.648 155.729 207.307 155.582 206.976H155.426V209H154.197ZM155.447 203.553C155.447 204.433 155.577 205.214 155.838 205.896C156.103 206.573 156.482 207.106 156.974 207.494C157.471 207.878 158.073 208.07 158.778 208.07C159.502 208.07 160.116 207.871 160.618 207.473C161.119 207.071 161.501 206.528 161.761 205.847C162.021 205.165 162.152 204.4 162.152 203.553C162.152 202.714 162.021 201.959 161.761 201.287C161.505 200.615 161.127 200.082 160.625 199.689C160.123 199.291 159.507 199.092 158.778 199.092C158.068 199.092 157.464 199.284 156.967 199.668C156.475 200.046 156.098 200.572 155.838 201.244C155.577 201.912 155.447 202.681 155.447 203.553ZM169.847 209.249C169.189 209.249 168.587 209.121 168.043 208.865C167.498 208.605 167.065 208.231 166.743 207.743C166.421 207.25 166.26 206.654 166.26 205.953C166.26 205.413 166.362 204.959 166.566 204.589C166.769 204.22 167.058 203.917 167.432 203.68C167.806 203.444 168.249 203.257 168.76 203.119C169.271 202.982 169.835 202.875 170.45 202.8C171.061 202.724 171.577 202.658 171.999 202.601C172.425 202.544 172.749 202.454 172.972 202.331C173.194 202.208 173.306 202.009 173.306 201.734V201.479C173.306 200.735 173.083 200.151 172.638 199.724C172.198 199.294 171.563 199.078 170.735 199.078C169.949 199.078 169.307 199.251 168.81 199.597C168.317 199.942 167.972 200.349 167.773 200.818L166.573 200.385C166.819 199.788 167.16 199.312 167.595 198.957C168.031 198.598 168.519 198.339 169.058 198.183C169.598 198.022 170.145 197.942 170.699 197.942C171.116 197.942 171.549 197.996 171.999 198.105C172.453 198.214 172.875 198.403 173.263 198.673C173.651 198.938 173.966 199.31 174.208 199.788C174.449 200.262 174.57 200.863 174.57 201.592V209H173.306V207.274H173.227C173.076 207.596 172.851 207.909 172.553 208.212C172.254 208.515 171.88 208.763 171.431 208.957C170.981 209.152 170.453 209.249 169.847 209.249ZM170.017 208.091C170.69 208.091 171.272 207.942 171.764 207.643C172.257 207.345 172.636 206.95 172.901 206.457C173.171 205.96 173.306 205.413 173.306 204.817V203.24C173.211 203.33 173.052 203.411 172.83 203.482C172.612 203.553 172.359 203.616 172.07 203.673C171.786 203.725 171.502 203.77 171.218 203.808C170.933 203.846 170.678 203.879 170.45 203.908C169.835 203.983 169.309 204.102 168.874 204.263C168.438 204.424 168.104 204.646 167.872 204.93C167.64 205.21 167.524 205.57 167.524 206.01C167.524 206.673 167.761 207.187 168.235 207.551C168.708 207.911 169.302 208.091 170.017 208.091ZM182.83 198.091V199.192H177.624V198.091H182.83ZM179.25 195.477H180.521V206.152C180.521 206.607 180.599 206.964 180.756 207.224C180.912 207.48 181.116 207.662 181.367 207.771C181.617 207.875 181.885 207.928 182.169 207.928C182.335 207.928 182.477 207.918 182.595 207.899C182.714 207.875 182.818 207.852 182.908 207.828L183.178 208.972C183.054 209.019 182.903 209.062 182.723 209.099C182.543 209.142 182.321 209.163 182.055 209.163C181.591 209.163 181.144 209.062 180.713 208.858C180.287 208.654 179.937 208.351 179.662 207.949C179.387 207.546 179.25 207.047 179.25 206.45V195.477ZM190.594 209.227C189.576 209.227 188.695 208.991 187.952 208.517C187.209 208.039 186.633 207.378 186.226 206.536C185.824 205.688 185.622 204.713 185.622 203.609C185.622 202.511 185.824 201.536 186.226 200.683C186.633 199.826 187.194 199.156 187.909 198.673C188.629 198.186 189.46 197.942 190.402 197.942C190.994 197.942 191.565 198.051 192.114 198.268C192.663 198.482 193.156 198.811 193.591 199.256C194.032 199.696 194.38 200.252 194.635 200.925C194.891 201.592 195.019 202.383 195.019 203.297V203.922H186.496V202.807H193.726C193.726 202.106 193.584 201.476 193.3 200.918C193.021 200.354 192.63 199.909 192.128 199.582C191.631 199.256 191.056 199.092 190.402 199.092C189.711 199.092 189.103 199.277 188.577 199.646C188.051 200.016 187.639 200.503 187.341 201.109C187.048 201.715 186.898 202.378 186.894 203.098V203.766C186.894 204.632 187.043 205.39 187.341 206.038C187.644 206.682 188.073 207.182 188.627 207.537C189.181 207.892 189.836 208.07 190.594 208.07C191.11 208.07 191.562 207.989 191.951 207.828C192.344 207.667 192.673 207.452 192.938 207.182C193.208 206.907 193.411 206.607 193.549 206.28L194.749 206.67C194.583 207.13 194.311 207.554 193.932 207.942C193.558 208.33 193.089 208.643 192.526 208.879C191.967 209.111 191.323 209.227 190.594 209.227ZM202.332 209.227C201.437 209.227 200.654 208.991 199.981 208.517C199.309 208.044 198.783 207.383 198.405 206.536C198.031 205.688 197.844 204.701 197.844 203.574C197.844 202.452 198.031 201.469 198.405 200.626C198.783 199.779 199.311 199.121 199.988 198.652C200.665 198.179 201.454 197.942 202.353 197.942C203.016 197.942 203.568 198.06 204.008 198.297C204.449 198.529 204.801 198.818 205.067 199.163C205.332 199.509 205.538 199.845 205.684 200.172H205.798V194.455H207.069V209H205.834V206.976H205.684C205.538 207.307 205.329 207.648 205.059 207.999C204.79 208.344 204.432 208.635 203.987 208.872C203.547 209.109 202.995 209.227 202.332 209.227ZM202.481 208.07C203.187 208.07 203.788 207.878 204.285 207.494C204.782 207.106 205.161 206.573 205.422 205.896C205.687 205.214 205.819 204.433 205.819 203.553C205.819 202.681 205.689 201.912 205.429 201.244C205.168 200.572 204.79 200.046 204.292 199.668C203.795 199.284 203.192 199.092 202.481 199.092C201.752 199.092 201.137 199.291 200.635 199.689C200.138 200.082 199.759 200.615 199.498 201.287C199.243 201.959 199.115 202.714 199.115 203.553C199.115 204.4 199.245 205.165 199.505 205.847C199.766 206.528 200.145 207.071 200.642 207.473C201.144 207.871 201.757 208.07 202.481 208.07ZM217.509 209V198.091H218.781V209H217.509ZM218.156 196.216C217.895 196.216 217.673 196.128 217.488 195.953C217.303 195.773 217.211 195.558 217.211 195.307C217.211 195.056 217.303 194.843 217.488 194.668C217.673 194.488 217.895 194.398 218.156 194.398C218.416 194.398 218.639 194.488 218.823 194.668C219.008 194.843 219.1 195.056 219.1 195.307C219.1 195.558 219.008 195.773 218.823 195.953C218.639 196.128 218.416 196.216 218.156 196.216ZM223.988 202.182V209H222.724V198.091H223.953V199.803H224.066C224.322 199.244 224.72 198.796 225.26 198.46C225.804 198.119 226.476 197.949 227.277 197.949C228.011 197.949 228.655 198.103 229.208 198.411C229.767 198.714 230.2 199.161 230.508 199.753C230.821 200.345 230.977 201.071 230.977 201.933V209H229.713V202.011C229.713 201.116 229.462 200.409 228.96 199.888C228.463 199.367 227.795 199.107 226.957 199.107C226.384 199.107 225.875 199.23 225.43 199.476C224.985 199.722 224.632 200.077 224.372 200.541C224.116 201 223.988 201.547 223.988 202.182ZM241.131 213.091V198.091H242.36V200.172H242.509C242.661 199.845 242.869 199.511 243.134 199.17C243.399 198.825 243.75 198.534 244.185 198.297C244.625 198.06 245.179 197.942 245.847 197.942C246.747 197.942 247.533 198.179 248.205 198.652C248.882 199.121 249.408 199.779 249.782 200.626C250.161 201.469 250.35 202.452 250.35 203.574C250.35 204.701 250.161 205.688 249.782 206.536C249.408 207.383 248.882 208.044 248.205 208.517C247.533 208.991 246.751 209.227 245.861 209.227C245.203 209.227 244.652 209.109 244.206 208.872C243.766 208.635 243.409 208.344 243.134 207.999C242.864 207.648 242.656 207.307 242.509 206.976H242.395V213.091H241.131ZM242.381 203.553C242.381 204.433 242.511 205.214 242.772 205.896C243.037 206.573 243.416 207.106 243.908 207.494C244.405 207.878 245.007 208.07 245.712 208.07C246.437 208.07 247.047 207.871 247.544 207.473C248.046 207.071 248.428 206.528 248.688 205.847C248.953 205.165 249.086 204.4 249.086 203.553C249.086 202.714 248.955 201.959 248.695 201.287C248.439 200.615 248.061 200.082 247.559 199.689C247.057 199.291 246.441 199.092 245.712 199.092C245.002 199.092 244.398 199.284 243.901 199.668C243.404 200.046 243.025 200.572 242.765 201.244C242.509 201.912 242.381 202.681 242.381 203.553ZM256.77 209.249C256.112 209.249 255.511 209.121 254.966 208.865C254.422 208.605 253.988 208.231 253.667 207.743C253.345 207.25 253.184 206.654 253.184 205.953C253.184 205.413 253.285 204.959 253.489 204.589C253.693 204.22 253.981 203.917 254.355 203.68C254.729 203.444 255.172 203.257 255.684 203.119C256.195 202.982 256.758 202.875 257.374 202.8C257.985 202.724 258.501 202.658 258.922 202.601C259.348 202.544 259.673 202.454 259.895 202.331C260.118 202.208 260.229 202.009 260.229 201.734V201.479C260.229 200.735 260.006 200.151 259.561 199.724C259.121 199.294 258.487 199.078 257.658 199.078C256.872 199.078 256.23 199.251 255.733 199.597C255.241 199.942 254.895 200.349 254.696 200.818L253.496 200.385C253.742 199.788 254.083 199.312 254.519 198.957C254.954 198.598 255.442 198.339 255.982 198.183C256.522 198.022 257.069 197.942 257.622 197.942C258.039 197.942 258.472 197.996 258.922 198.105C259.377 198.214 259.798 198.403 260.186 198.673C260.575 198.938 260.89 199.31 261.131 199.788C261.372 200.262 261.493 200.863 261.493 201.592V209H260.229V207.274H260.151C259.999 207.596 259.774 207.909 259.476 208.212C259.178 208.515 258.804 208.763 258.354 208.957C257.904 209.152 257.376 209.249 256.77 209.249ZM256.941 208.091C257.613 208.091 258.195 207.942 258.688 207.643C259.18 207.345 259.559 206.95 259.824 206.457C260.094 205.96 260.229 205.413 260.229 204.817V203.24C260.134 203.33 259.976 203.411 259.753 203.482C259.535 203.553 259.282 203.616 258.993 203.673C258.709 203.725 258.425 203.77 258.141 203.808C257.857 203.846 257.601 203.879 257.374 203.908C256.758 203.983 256.233 204.102 255.797 204.263C255.362 204.424 255.028 204.646 254.796 204.93C254.564 205.21 254.448 205.57 254.448 206.01C254.448 206.673 254.685 207.187 255.158 207.551C255.631 207.911 256.226 208.091 256.941 208.091ZM265.456 209V198.091H266.685V199.767H266.777C266.995 199.218 267.374 198.775 267.914 198.439C268.458 198.098 269.074 197.928 269.76 197.928C269.864 197.928 269.98 197.93 270.108 197.935C270.236 197.939 270.343 197.944 270.428 197.949V199.234C270.371 199.225 270.271 199.211 270.129 199.192C269.987 199.173 269.834 199.163 269.668 199.163C269.1 199.163 268.593 199.284 268.148 199.526C267.708 199.762 267.36 200.091 267.104 200.513C266.848 200.934 266.72 201.415 266.72 201.955V209H265.456ZM278.166 198.091V199.192H272.96V198.091H278.166ZM274.586 195.477H275.857V206.152C275.857 206.607 275.935 206.964 276.092 207.224C276.248 207.48 276.452 207.662 276.702 207.771C276.953 207.875 277.221 207.928 277.505 207.928C277.671 207.928 277.813 207.918 277.931 207.899C278.05 207.875 278.154 207.852 278.244 207.828L278.514 208.972C278.39 209.019 278.239 209.062 278.059 209.099C277.879 209.142 277.657 209.163 277.391 209.163C276.927 209.163 276.48 209.062 276.049 208.858C275.623 208.654 275.273 208.351 274.998 207.949C274.723 207.546 274.586 207.047 274.586 206.45V195.477ZM282.901 202.182V209H281.637V198.091H282.865V199.803H282.979C283.235 199.244 283.632 198.796 284.172 198.46C284.717 198.119 285.389 197.949 286.189 197.949C286.923 197.949 287.567 198.103 288.121 198.411C288.68 198.714 289.113 199.161 289.421 199.753C289.733 200.345 289.889 201.071 289.889 201.933V209H288.625V202.011C288.625 201.116 288.374 200.409 287.872 199.888C287.375 199.367 286.708 199.107 285.87 199.107C285.297 199.107 284.788 199.23 284.343 199.476C283.898 199.722 283.545 200.077 283.284 200.541C283.029 201 282.901 201.547 282.901 202.182ZM298.229 209.227C297.211 209.227 296.33 208.991 295.587 208.517C294.844 208.039 294.268 207.378 293.861 206.536C293.459 205.688 293.258 204.713 293.258 203.609C293.258 202.511 293.459 201.536 293.861 200.683C294.268 199.826 294.83 199.156 295.544 198.673C296.264 198.186 297.095 197.942 298.037 197.942C298.629 197.942 299.2 198.051 299.749 198.268C300.298 198.482 300.791 198.811 301.226 199.256C301.667 199.696 302.015 200.252 302.27 200.925C302.526 201.592 302.654 202.383 302.654 203.297V203.922H294.131V202.807H301.361C301.361 202.106 301.219 201.476 300.935 200.918C300.656 200.354 300.265 199.909 299.763 199.582C299.266 199.256 298.691 199.092 298.037 199.092C297.346 199.092 296.738 199.277 296.212 199.646C295.687 200.016 295.275 200.503 294.976 201.109C294.683 201.715 294.534 202.378 294.529 203.098V203.766C294.529 204.632 294.678 205.39 294.976 206.038C295.279 206.682 295.708 207.182 296.262 207.537C296.816 207.892 297.472 208.07 298.229 208.07C298.745 208.07 299.197 207.989 299.586 207.828C299.979 207.667 300.308 207.452 300.573 207.182C300.843 206.907 301.046 206.607 301.184 206.28L302.384 206.67C302.218 207.13 301.946 207.554 301.567 207.942C301.193 208.33 300.724 208.643 300.161 208.879C299.602 209.111 298.958 209.227 298.229 209.227ZM306.04 209V198.091H307.268V199.767H307.361C307.579 199.218 307.957 198.775 308.497 198.439C309.042 198.098 309.657 197.928 310.344 197.928C310.448 197.928 310.564 197.93 310.692 197.935C310.82 197.939 310.926 197.944 311.011 197.949V199.234C310.955 199.225 310.855 199.211 310.713 199.192C310.571 199.173 310.417 199.163 310.251 199.163C309.683 199.163 309.177 199.284 308.732 199.526C308.291 199.762 307.943 200.091 307.687 200.513C307.432 200.934 307.304 201.415 307.304 201.955V209H306.04ZM321.098 200.484L319.941 200.811C319.827 200.484 319.666 200.188 319.458 199.923C319.249 199.658 318.977 199.447 318.641 199.291C318.309 199.135 317.897 199.057 317.405 199.057C316.666 199.057 316.06 199.232 315.587 199.582C315.113 199.933 314.877 200.385 314.877 200.939C314.877 201.408 315.038 201.789 315.36 202.082C315.686 202.371 316.188 202.601 316.865 202.771L318.513 203.176C319.427 203.399 320.111 203.751 320.566 204.234C321.025 204.717 321.254 205.323 321.254 206.053C321.254 206.668 321.084 207.215 320.743 207.693C320.402 208.171 319.926 208.548 319.316 208.822C318.709 209.092 318.006 209.227 317.206 209.227C316.141 209.227 315.262 208.988 314.571 208.51C313.88 208.027 313.437 207.331 313.243 206.422L314.458 206.124C314.614 206.772 314.919 207.262 315.374 207.594C315.833 207.925 316.437 208.091 317.185 208.091C318.023 208.091 318.693 207.904 319.195 207.53C319.697 207.151 319.948 206.678 319.948 206.109C319.948 205.669 319.801 205.3 319.507 205.001C319.214 204.698 318.769 204.476 318.172 204.334L316.389 203.908C315.442 203.68 314.742 203.321 314.287 202.828C313.833 202.336 313.605 201.725 313.605 200.996C313.605 200.394 313.769 199.866 314.095 199.412C314.422 198.953 314.872 198.593 315.445 198.332C316.018 198.072 316.671 197.942 317.405 197.942C318.404 197.942 319.202 198.169 319.798 198.624C320.4 199.073 320.833 199.694 321.098 200.484ZM325.887 202.182V209H324.623V194.455H325.887V199.803H326C326.256 199.239 326.651 198.789 327.186 198.453C327.726 198.117 328.408 197.949 329.232 197.949C329.971 197.949 330.619 198.1 331.178 198.403C331.737 198.706 332.172 199.154 332.485 199.746C332.797 200.338 332.954 201.067 332.954 201.933V209H331.682V202.011C331.682 201.112 331.431 200.404 330.929 199.888C330.432 199.367 329.76 199.107 328.912 199.107C328.33 199.107 327.811 199.23 327.357 199.476C326.902 199.722 326.543 200.077 326.277 200.541C326.017 201 325.887 201.547 325.887 202.182ZM336.897 209V198.091H338.168V209H336.897ZM337.543 196.216C337.283 196.216 337.06 196.128 336.876 195.953C336.691 195.773 336.599 195.558 336.599 195.307C336.599 195.056 336.691 194.843 336.876 194.668C337.06 194.488 337.283 194.398 337.543 194.398C337.804 194.398 338.026 194.488 338.211 194.668C338.396 194.843 338.488 195.056 338.488 195.307C338.488 195.558 338.396 195.773 338.211 195.953C338.026 196.128 337.804 196.216 337.543 196.216ZM342.112 213.091V198.091H343.34V200.172H343.489C343.641 199.845 343.849 199.511 344.114 199.17C344.38 198.825 344.73 198.534 345.166 198.297C345.606 198.06 346.16 197.942 346.828 197.942C347.727 197.942 348.513 198.179 349.185 198.652C349.863 199.121 350.388 199.779 350.762 200.626C351.141 201.469 351.33 202.452 351.33 203.574C351.33 204.701 351.141 205.688 350.762 206.536C350.388 207.383 349.863 208.044 349.185 208.517C348.513 208.991 347.732 209.227 346.842 209.227C346.184 209.227 345.632 209.109 345.187 208.872C344.747 208.635 344.389 208.344 344.114 207.999C343.845 207.648 343.636 207.307 343.489 206.976H343.376V213.091H342.112ZM343.362 203.553C343.362 204.433 343.492 205.214 343.752 205.896C344.017 206.573 344.396 207.106 344.889 207.494C345.386 207.878 345.987 208.07 346.693 208.07C347.417 208.07 348.028 207.871 348.525 207.473C349.027 207.071 349.408 206.528 349.668 205.847C349.934 205.165 350.066 204.4 350.066 203.553C350.066 202.714 349.936 201.959 349.676 201.287C349.42 200.615 349.041 200.082 348.539 199.689C348.037 199.291 347.422 199.092 346.693 199.092C345.982 199.092 345.379 199.284 344.882 199.668C344.384 200.046 344.006 200.572 343.745 201.244C343.489 201.912 343.362 202.681 343.362 203.553ZM103.857 233L100.561 222.091H101.897L104.482 231.089H104.574L107.152 222.091H108.495L111.052 231.068H111.151L113.736 222.091H115.071L111.776 233H110.469L107.884 224.058H107.749L105.164 233H103.857ZM118.143 233V222.091H119.414V233H118.143ZM118.789 220.216C118.529 220.216 118.306 220.128 118.122 219.953C117.937 219.773 117.845 219.558 117.845 219.307C117.845 219.056 117.937 218.843 118.122 218.668C118.306 218.488 118.529 218.398 118.789 218.398C119.05 218.398 119.272 218.488 119.457 218.668C119.642 218.843 119.734 219.056 119.734 219.307C119.734 219.558 119.642 219.773 119.457 219.953C119.272 220.128 119.05 220.216 118.789 220.216ZM127.655 222.091V223.192H122.449V222.091H127.655ZM124.075 219.477H125.346V230.152C125.346 230.607 125.424 230.964 125.581 231.224C125.737 231.48 125.941 231.662 126.192 231.771C126.442 231.875 126.71 231.928 126.994 231.928C127.16 231.928 127.302 231.918 127.42 231.899C127.539 231.875 127.643 231.852 127.733 231.828L128.003 232.972C127.879 233.019 127.728 233.062 127.548 233.099C127.368 233.142 127.146 233.163 126.88 233.163C126.416 233.163 125.969 233.062 125.538 232.858C125.112 232.654 124.762 232.351 124.487 231.949C124.212 231.546 124.075 231.047 124.075 230.45V219.477ZM132.624 226.182V233H131.36V218.455H132.624V223.803H132.738C132.994 223.239 133.389 222.789 133.924 222.453C134.464 222.117 135.146 221.949 135.969 221.949C136.708 221.949 137.357 222.1 137.915 222.403C138.474 222.706 138.91 223.154 139.222 223.746C139.535 224.338 139.691 225.067 139.691 225.933V233H138.42V226.011C138.42 225.112 138.169 224.404 137.667 223.888C137.17 223.367 136.497 223.107 135.65 223.107C135.067 223.107 134.549 223.23 134.094 223.476C133.64 223.722 133.28 224.077 133.015 224.541C132.754 225 132.624 225.547 132.624 226.182ZM154.085 233.227C153.143 233.227 152.31 232.988 151.585 232.51C150.866 232.032 150.302 231.371 149.895 230.528C149.488 229.681 149.284 228.703 149.284 227.595C149.284 226.478 149.488 225.495 149.895 224.648C150.302 223.795 150.866 223.133 151.585 222.659C152.31 222.181 153.143 221.942 154.085 221.942C155.027 221.942 155.858 222.181 156.578 222.659C157.298 223.137 157.861 223.8 158.269 224.648C158.68 225.495 158.886 226.478 158.886 227.595C158.886 228.703 158.683 229.681 158.276 230.528C157.868 231.371 157.303 232.032 156.578 232.51C155.858 232.988 155.027 233.227 154.085 233.227ZM154.085 232.07C154.843 232.07 155.484 231.866 156.01 231.459C156.536 231.052 156.933 230.509 157.203 229.832C157.478 229.155 157.615 228.41 157.615 227.595C157.615 226.781 157.478 226.033 157.203 225.351C156.933 224.669 156.536 224.122 156.01 223.71C155.484 223.298 154.843 223.092 154.085 223.092C153.332 223.092 152.691 223.298 152.161 223.71C151.635 224.122 151.235 224.669 150.96 225.351C150.69 226.033 150.555 226.781 150.555 227.595C150.555 228.41 150.69 229.155 150.96 229.832C151.235 230.509 151.635 231.052 152.161 231.459C152.686 231.866 153.328 232.07 154.085 232.07ZM163.526 226.182V233H162.262V222.091H163.49V223.803H163.604C163.86 223.244 164.257 222.796 164.797 222.46C165.342 222.119 166.014 221.949 166.814 221.949C167.548 221.949 168.192 222.103 168.746 222.411C169.305 222.714 169.738 223.161 170.046 223.753C170.358 224.345 170.514 225.071 170.514 225.933V233H169.25V226.011C169.25 225.116 168.999 224.409 168.497 223.888C168 223.367 167.333 223.107 166.495 223.107C165.922 223.107 165.413 223.23 164.968 223.476C164.522 223.722 164.17 224.077 163.909 224.541C163.654 225 163.526 225.547 163.526 226.182ZM178.854 233.227C177.836 233.227 176.955 232.991 176.212 232.517C175.469 232.039 174.893 231.378 174.486 230.536C174.084 229.688 173.883 228.713 173.883 227.609C173.883 226.511 174.084 225.536 174.486 224.683C174.893 223.826 175.455 223.156 176.169 222.673C176.889 222.186 177.72 221.942 178.662 221.942C179.254 221.942 179.825 222.051 180.374 222.268C180.923 222.482 181.416 222.811 181.851 223.256C182.292 223.696 182.64 224.252 182.895 224.925C183.151 225.592 183.279 226.383 183.279 227.297V227.922H174.756V226.807H181.986C181.986 226.106 181.844 225.476 181.56 224.918C181.281 224.354 180.89 223.909 180.388 223.582C179.891 223.256 179.316 223.092 178.662 223.092C177.971 223.092 177.363 223.277 176.837 223.646C176.312 224.016 175.9 224.503 175.601 225.109C175.308 225.715 175.159 226.378 175.154 227.098V227.766C175.154 228.632 175.303 229.39 175.601 230.038C175.904 230.682 176.333 231.182 176.887 231.537C177.441 231.892 178.097 232.07 178.854 232.07C179.37 232.07 179.822 231.989 180.211 231.828C180.604 231.667 180.933 231.452 181.198 231.182C181.468 230.907 181.671 230.607 181.809 230.28L183.009 230.67C182.843 231.13 182.571 231.554 182.192 231.942C181.818 232.33 181.349 232.643 180.786 232.879C180.227 233.111 179.583 233.227 178.854 233.227ZM197.13 233.227C196.188 233.227 195.354 232.988 194.63 232.51C193.91 232.032 193.347 231.371 192.939 230.528C192.532 229.681 192.329 228.703 192.329 227.595C192.329 226.478 192.532 225.495 192.939 224.648C193.347 223.795 193.91 223.133 194.63 222.659C195.354 222.181 196.188 221.942 197.13 221.942C198.072 221.942 198.903 222.181 199.623 222.659C200.342 223.137 200.906 223.8 201.313 224.648C201.725 225.495 201.931 226.478 201.931 227.595C201.931 228.703 201.727 229.681 201.32 230.528C200.913 231.371 200.347 232.032 199.623 232.51C198.903 232.988 198.072 233.227 197.13 233.227ZM197.13 232.07C197.887 232.07 198.529 231.866 199.055 231.459C199.58 231.052 199.978 230.509 200.248 229.832C200.522 229.155 200.66 228.41 200.66 227.595C200.66 226.781 200.522 226.033 200.248 225.351C199.978 224.669 199.58 224.122 199.055 223.71C198.529 223.298 197.887 223.092 197.13 223.092C196.377 223.092 195.735 223.298 195.205 223.71C194.68 224.122 194.279 224.669 194.005 225.351C193.735 226.033 193.6 226.781 193.6 227.595C193.6 228.41 193.735 229.155 194.005 229.832C194.279 230.509 194.68 231.052 195.205 231.459C195.731 231.866 196.372 232.07 197.13 232.07ZM209.795 222.091V223.192H204.433V222.091H209.795ZM206.109 233V220.493C206.109 219.906 206.244 219.411 206.514 219.009C206.788 218.606 207.146 218.301 207.586 218.092C208.026 217.884 208.493 217.78 208.985 217.78C209.317 217.78 209.591 217.808 209.809 217.865C210.032 217.917 210.207 217.969 210.335 218.021L209.965 219.129C209.871 219.101 209.755 219.068 209.617 219.03C209.48 218.992 209.307 218.973 209.099 218.973C208.55 218.973 208.126 219.127 207.827 219.435C207.529 219.742 207.38 220.183 207.38 220.756L207.373 233H206.109ZM223.44 222.091V223.192H218.234V222.091H223.44ZM219.86 219.477H221.131V230.152C221.131 230.607 221.21 230.964 221.366 231.224C221.522 231.48 221.726 231.662 221.977 231.771C222.228 231.875 222.495 231.928 222.779 231.928C222.945 231.928 223.087 231.918 223.205 231.899C223.324 231.875 223.428 231.852 223.518 231.828L223.788 232.972C223.665 233.019 223.513 233.062 223.333 233.099C223.153 233.142 222.931 233.163 222.666 233.163C222.202 233.163 221.754 233.062 221.323 232.858C220.897 232.654 220.547 232.351 220.272 231.949C219.997 231.546 219.86 231.047 219.86 230.45V219.477ZM228.409 226.182V233H227.145V218.455H228.409V223.803H228.523C228.779 223.239 229.174 222.789 229.709 222.453C230.249 222.117 230.931 221.949 231.755 221.949C232.493 221.949 233.142 222.1 233.701 222.403C234.259 222.706 234.695 223.154 235.007 223.746C235.32 224.338 235.476 225.067 235.476 225.933V233H234.205V226.011C234.205 225.112 233.954 224.404 233.452 223.888C232.955 223.367 232.283 223.107 231.435 223.107C230.853 223.107 230.334 223.23 229.88 223.476C229.425 223.722 229.065 224.077 228.8 224.541C228.54 225 228.409 225.547 228.409 226.182ZM243.816 233.227C242.798 233.227 241.917 232.991 241.174 232.517C240.43 232.039 239.855 231.378 239.448 230.536C239.046 229.688 238.844 228.713 238.844 227.609C238.844 226.511 239.046 225.536 239.448 224.683C239.855 223.826 240.416 223.156 241.131 222.673C241.851 222.186 242.682 221.942 243.624 221.942C244.216 221.942 244.787 222.051 245.336 222.268C245.885 222.482 246.377 222.811 246.813 223.256C247.253 223.696 247.601 224.252 247.857 224.925C248.113 225.592 248.241 226.383 248.241 227.297V227.922H239.718V226.807H246.948C246.948 226.106 246.806 225.476 246.522 224.918C246.242 224.354 245.852 223.909 245.35 223.582C244.853 223.256 244.278 223.092 243.624 223.092C242.933 223.092 242.324 223.277 241.799 223.646C241.273 224.016 240.861 224.503 240.563 225.109C240.269 225.715 240.12 226.378 240.116 227.098V227.766C240.116 228.632 240.265 229.39 240.563 230.038C240.866 230.682 241.295 231.182 241.849 231.537C242.403 231.892 243.058 232.07 243.816 232.07C244.332 232.07 244.784 231.989 245.172 231.828C245.565 231.667 245.894 231.452 246.16 231.182C246.43 230.907 246.633 230.607 246.77 230.28L247.971 230.67C247.805 231.13 247.533 231.554 247.154 231.942C246.78 232.33 246.311 232.643 245.748 232.879C245.189 233.111 244.545 233.227 243.816 233.227ZM259.116 218.455V233H257.851V218.455H259.116ZM267.471 233.227C266.453 233.227 265.573 232.991 264.829 232.517C264.086 232.039 263.511 231.378 263.103 230.536C262.701 229.688 262.5 228.713 262.5 227.609C262.5 226.511 262.701 225.536 263.103 224.683C263.511 223.826 264.072 223.156 264.787 222.673C265.506 222.186 266.337 221.942 267.28 221.942C267.871 221.942 268.442 222.051 268.991 222.268C269.54 222.482 270.033 222.811 270.468 223.256C270.909 223.696 271.257 224.252 271.513 224.925C271.768 225.592 271.896 226.383 271.896 227.297V227.922H263.373V226.807H270.603C270.603 226.106 270.461 225.476 270.177 224.918C269.898 224.354 269.507 223.909 269.005 223.582C268.508 223.256 267.933 223.092 267.28 223.092C266.588 223.092 265.98 223.277 265.454 223.646C264.929 224.016 264.517 224.503 264.218 225.109C263.925 225.715 263.776 226.378 263.771 227.098V227.766C263.771 228.632 263.92 229.39 264.218 230.038C264.522 230.682 264.95 231.182 265.504 231.537C266.058 231.892 266.714 232.07 267.471 232.07C267.987 232.07 268.44 231.989 268.828 231.828C269.221 231.667 269.55 231.452 269.815 231.182C270.085 230.907 270.289 230.607 270.426 230.28L271.626 230.67C271.46 231.13 271.188 231.554 270.809 231.942C270.435 232.33 269.967 232.643 269.403 232.879C268.844 233.111 268.2 233.227 267.471 233.227ZM278.329 233.249C277.671 233.249 277.069 233.121 276.525 232.865C275.98 232.605 275.547 232.231 275.225 231.743C274.903 231.25 274.742 230.654 274.742 229.953C274.742 229.413 274.844 228.959 275.048 228.589C275.251 228.22 275.54 227.917 275.914 227.68C276.288 227.444 276.731 227.257 277.242 227.119C277.754 226.982 278.317 226.875 278.932 226.8C279.543 226.724 280.059 226.658 280.481 226.601C280.907 226.544 281.231 226.454 281.454 226.331C281.676 226.208 281.788 226.009 281.788 225.734V225.479C281.788 224.735 281.565 224.151 281.12 223.724C280.68 223.294 280.045 223.078 279.217 223.078C278.431 223.078 277.789 223.251 277.292 223.597C276.799 223.942 276.454 224.349 276.255 224.818L275.055 224.385C275.301 223.788 275.642 223.312 276.077 222.957C276.513 222.598 277.001 222.339 277.54 222.183C278.08 222.022 278.627 221.942 279.181 221.942C279.598 221.942 280.031 221.996 280.481 222.105C280.935 222.214 281.357 222.403 281.745 222.673C282.133 222.938 282.448 223.31 282.69 223.788C282.931 224.262 283.052 224.863 283.052 225.592V233H281.788V231.274H281.709C281.558 231.596 281.333 231.909 281.035 232.212C280.736 232.515 280.362 232.763 279.913 232.957C279.463 233.152 278.935 233.249 278.329 233.249ZM278.499 232.091C279.172 232.091 279.754 231.942 280.246 231.643C280.739 231.345 281.118 230.95 281.383 230.457C281.653 229.96 281.788 229.413 281.788 228.817V227.24C281.693 227.33 281.534 227.411 281.312 227.482C281.094 227.553 280.841 227.616 280.552 227.673C280.268 227.725 279.984 227.77 279.7 227.808C279.415 227.846 279.16 227.879 278.932 227.908C278.317 227.983 277.791 228.102 277.356 228.263C276.92 228.424 276.586 228.646 276.354 228.93C276.122 229.21 276.006 229.57 276.006 230.01C276.006 230.673 276.243 231.187 276.717 231.551C277.19 231.911 277.784 232.091 278.499 232.091ZM290.942 233.227C290.047 233.227 289.264 232.991 288.591 232.517C287.919 232.044 287.394 231.383 287.015 230.536C286.641 229.688 286.454 228.701 286.454 227.574C286.454 226.452 286.641 225.469 287.015 224.626C287.394 223.779 287.921 223.121 288.599 222.652C289.276 222.179 290.064 221.942 290.964 221.942C291.626 221.942 292.178 222.06 292.618 222.297C293.059 222.529 293.412 222.818 293.677 223.163C293.942 223.509 294.148 223.845 294.295 224.172H294.408V218.455H295.68V233H294.444V230.976H294.295C294.148 231.307 293.939 231.648 293.67 231.999C293.4 232.344 293.042 232.635 292.597 232.872C292.157 233.109 291.605 233.227 290.942 233.227ZM291.091 232.07C291.797 232.07 292.398 231.878 292.895 231.494C293.393 231.106 293.771 230.573 294.032 229.896C294.297 229.214 294.43 228.433 294.43 227.553C294.43 226.681 294.299 225.912 294.039 225.244C293.778 224.572 293.4 224.046 292.903 223.668C292.405 223.284 291.802 223.092 291.091 223.092C290.362 223.092 289.747 223.291 289.245 223.689C288.748 224.082 288.369 224.615 288.108 225.287C287.853 225.959 287.725 226.714 287.725 227.553C287.725 228.4 287.855 229.165 288.116 229.847C288.376 230.528 288.755 231.071 289.252 231.473C289.754 231.871 290.367 232.07 291.091 232.07ZM299.895 233V222.091H301.166V233H299.895ZM300.541 220.216C300.28 220.216 300.058 220.128 299.873 219.953C299.689 219.773 299.596 219.558 299.596 219.307C299.596 219.056 299.689 218.843 299.873 218.668C300.058 218.488 300.28 218.398 300.541 218.398C300.801 218.398 301.024 218.488 301.208 218.668C301.393 218.843 301.485 219.056 301.485 219.307C301.485 219.558 301.393 219.773 301.208 219.953C301.024 220.128 300.801 220.216 300.541 220.216ZM306.373 226.182V233H305.109V222.091H306.338V223.803H306.452C306.707 223.244 307.105 222.796 307.645 222.46C308.189 222.119 308.862 221.949 309.662 221.949C310.396 221.949 311.04 222.103 311.594 222.411C312.152 222.714 312.586 223.161 312.893 223.753C313.206 224.345 313.362 225.071 313.362 225.933V233H312.098V226.011C312.098 225.116 311.847 224.409 311.345 223.888C310.848 223.367 310.18 223.107 309.342 223.107C308.769 223.107 308.26 223.23 307.815 223.476C307.37 223.722 307.017 224.077 306.757 224.541C306.501 225 306.373 225.547 306.373 226.182ZM321.453 237.318C320.71 237.318 320.059 237.221 319.5 237.027C318.941 236.838 318.47 236.577 318.087 236.246C317.703 235.914 317.405 235.543 317.192 235.131L318.229 234.449C318.385 234.723 318.593 234.993 318.854 235.259C319.119 235.524 319.462 235.744 319.884 235.919C320.31 236.094 320.833 236.182 321.453 236.182C322.419 236.182 323.198 235.94 323.79 235.457C324.386 234.974 324.685 234.224 324.685 233.206V230.749H324.571C324.424 231.08 324.214 231.411 323.939 231.743C323.664 232.07 323.305 232.342 322.859 232.56C322.419 232.777 321.872 232.886 321.219 232.886C320.348 232.886 319.573 232.671 318.896 232.24C318.224 231.809 317.694 231.194 317.305 230.393C316.922 229.589 316.73 228.63 316.73 227.517C316.73 226.414 316.917 225.443 317.291 224.605C317.67 223.767 318.198 223.114 318.875 222.645C319.552 222.176 320.341 221.942 321.24 221.942C321.908 221.942 322.462 222.06 322.902 222.297C323.342 222.529 323.695 222.818 323.96 223.163C324.23 223.509 324.441 223.845 324.592 224.172H324.72V222.091H325.956V233.284C325.956 234.207 325.76 234.967 325.367 235.564C324.974 236.161 324.439 236.601 323.761 236.885C323.084 237.174 322.315 237.318 321.453 237.318ZM321.368 231.729C322.069 231.729 322.668 231.561 323.165 231.224C323.662 230.884 324.043 230.396 324.308 229.761C324.573 229.127 324.706 228.372 324.706 227.496C324.706 226.643 324.576 225.888 324.315 225.23C324.055 224.567 323.676 224.046 323.179 223.668C322.687 223.284 322.083 223.092 321.368 223.092C320.639 223.092 320.023 223.289 319.521 223.682C319.02 224.075 318.641 224.605 318.385 225.273C318.129 225.936 318.002 226.677 318.002 227.496C318.002 228.329 318.132 229.065 318.392 229.705C318.653 230.339 319.034 230.836 319.536 231.196C320.037 231.551 320.648 231.729 321.368 231.729ZM61.6336 257H60.2415L65.5327 242.455H66.9532L72.2444 257H70.8523L66.2927 244.18H66.1933L61.6336 257ZM62.635 251.425H69.8509V252.618H62.635V251.425ZM79.3359 257.227C78.3605 257.227 77.5106 256.983 76.7861 256.496C76.0665 256.008 75.5077 255.34 75.11 254.493C74.7123 253.645 74.5134 252.679 74.5134 251.595C74.5134 250.501 74.7147 249.528 75.1171 248.676C75.5243 247.824 76.0878 247.156 76.8075 246.673C77.5272 246.186 78.3629 245.942 79.3146 245.942C80.0437 245.942 80.7042 246.084 81.2961 246.368C81.8879 246.647 82.3756 247.043 82.7592 247.554C83.1474 248.061 83.3913 248.652 83.4907 249.33H82.2123C82.0797 248.714 81.7601 248.188 81.2535 247.753C80.7516 247.312 80.1124 247.092 79.3359 247.092C78.6398 247.092 78.0243 247.282 77.4893 247.661C76.9542 248.035 76.5352 248.558 76.2322 249.23C75.9339 249.898 75.7847 250.672 75.7847 251.553C75.7847 252.438 75.9315 253.222 76.2251 253.903C76.5186 254.58 76.9306 255.111 77.4609 255.494C77.9959 255.878 78.6209 256.07 79.3359 256.07C79.8188 256.07 80.2592 255.98 80.6569 255.8C81.0593 255.615 81.3955 255.355 81.6654 255.018C81.94 254.682 82.1247 254.282 82.2194 253.818H83.4978C83.4031 254.476 83.1687 255.063 82.7947 255.58C82.4254 256.091 81.9448 256.493 81.3529 256.787C80.7658 257.08 80.0934 257.227 79.3359 257.227ZM91.0687 257.227C90.0933 257.227 89.2434 256.983 88.519 256.496C87.7993 256.008 87.2406 255.34 86.8428 254.493C86.4451 253.645 86.2462 252.679 86.2462 251.595C86.2462 250.501 86.4475 249.528 86.8499 248.676C87.2571 247.824 87.8206 247.156 88.5403 246.673C89.26 246.186 90.0957 245.942 91.0474 245.942C91.7765 245.942 92.437 246.084 93.0289 246.368C93.6208 246.647 94.1084 247.043 94.492 247.554C94.8802 248.061 95.1241 248.652 95.2235 249.33H93.9451C93.8125 248.714 93.4929 248.188 92.9863 247.753C92.4844 247.312 91.8452 247.092 91.0687 247.092C90.3727 247.092 89.7571 247.282 89.2221 247.661C88.687 248.035 88.268 248.558 87.965 249.23C87.6667 249.898 87.5175 250.672 87.5175 251.553C87.5175 252.438 87.6643 253.222 87.9579 253.903C88.2514 254.58 88.6634 255.111 89.1937 255.494C89.7287 255.878 90.3537 256.07 91.0687 256.07C91.5516 256.07 91.992 255.98 92.3897 255.8C92.7922 255.615 93.1283 255.355 93.3982 255.018C93.6728 254.682 93.8575 254.282 93.9522 253.818H95.2306C95.1359 254.476 94.9015 255.063 94.5275 255.58C94.1582 256.091 93.6776 256.493 93.0857 256.787C92.4986 257.08 91.8263 257.227 91.0687 257.227ZM102.951 257.227C101.933 257.227 101.052 256.991 100.309 256.517C99.5652 256.039 98.9899 255.378 98.5827 254.536C98.1803 253.688 97.979 252.713 97.979 251.609C97.979 250.511 98.1803 249.536 98.5827 248.683C98.9899 247.826 99.551 247.156 100.266 246.673C100.986 246.186 101.817 245.942 102.759 245.942C103.351 245.942 103.921 246.051 104.471 246.268C105.02 246.482 105.512 246.811 105.948 247.256C106.388 247.696 106.736 248.252 106.992 248.925C107.248 249.592 107.375 250.383 107.375 251.297V251.922H98.8526V250.807H106.083C106.083 250.106 105.941 249.476 105.657 248.918C105.377 248.354 104.987 247.909 104.485 247.582C103.988 247.256 103.412 247.092 102.759 247.092C102.068 247.092 101.459 247.277 100.934 247.646C100.408 248.016 99.9961 248.503 99.6978 249.109C99.4042 249.715 99.2551 250.378 99.2504 251.098V251.766C99.2504 252.632 99.3995 253.39 99.6978 254.038C100.001 254.682 100.429 255.182 100.983 255.537C101.537 255.892 102.193 256.07 102.951 256.07C103.467 256.07 103.919 255.989 104.307 255.828C104.7 255.667 105.029 255.452 105.294 255.182C105.564 254.907 105.768 254.607 105.905 254.28L107.105 254.67C106.94 255.13 106.667 255.554 106.289 255.942C105.915 256.33 105.446 256.643 104.882 256.879C104.324 257.111 103.68 257.227 102.951 257.227ZM112.025 242.455V257H110.761V242.455H112.025ZM120.381 257.227C119.363 257.227 118.482 256.991 117.739 256.517C116.996 256.039 116.42 255.378 116.013 254.536C115.611 253.688 115.41 252.713 115.41 251.609C115.41 250.511 115.611 249.536 116.013 248.683C116.42 247.826 116.981 247.156 117.696 246.673C118.416 246.186 119.247 245.942 120.189 245.942C120.781 245.942 121.352 246.051 121.901 246.268C122.45 246.482 122.943 246.811 123.378 247.256C123.819 247.696 124.167 248.252 124.422 248.925C124.678 249.592 124.806 250.383 124.806 251.297V251.922H116.283V250.807H123.513C123.513 250.106 123.371 249.476 123.087 248.918C122.808 248.354 122.417 247.909 121.915 247.582C121.418 247.256 120.843 247.092 120.189 247.092C119.498 247.092 118.89 247.277 118.364 247.646C117.838 248.016 117.427 248.503 117.128 249.109C116.835 249.715 116.686 250.378 116.681 251.098V251.766C116.681 252.632 116.83 253.39 117.128 254.038C117.431 254.682 117.86 255.182 118.414 255.537C118.968 255.892 119.624 256.07 120.381 256.07C120.897 256.07 121.349 255.989 121.738 255.828C122.131 255.667 122.46 255.452 122.725 255.182C122.995 254.907 123.198 254.607 123.336 254.28L124.536 254.67C124.37 255.13 124.098 255.554 123.719 255.942C123.345 256.33 122.876 256.643 122.313 256.879C121.754 257.111 121.11 257.227 120.381 257.227ZM128.192 257V246.091H129.42V247.767H129.513C129.731 247.218 130.109 246.775 130.649 246.439C131.194 246.098 131.809 245.928 132.496 245.928C132.6 245.928 132.716 245.93 132.844 245.935C132.972 245.939 133.078 245.944 133.163 245.949V247.234C133.106 247.225 133.007 247.211 132.865 247.192C132.723 247.173 132.569 247.163 132.403 247.163C131.835 247.163 131.329 247.284 130.883 247.526C130.443 247.762 130.095 248.091 129.839 248.513C129.584 248.934 129.456 249.415 129.456 249.955V257H128.192ZM138.967 257.249C138.309 257.249 137.708 257.121 137.163 256.865C136.619 256.605 136.186 256.231 135.864 255.743C135.542 255.25 135.381 254.654 135.381 253.953C135.381 253.413 135.483 252.959 135.686 252.589C135.89 252.22 136.179 251.917 136.553 251.68C136.927 251.444 137.369 251.257 137.881 251.119C138.392 250.982 138.956 250.875 139.571 250.8C140.182 250.724 140.698 250.658 141.119 250.601C141.546 250.544 141.87 250.454 142.092 250.331C142.315 250.208 142.426 250.009 142.426 249.734V249.479C142.426 248.735 142.204 248.151 141.759 247.724C141.318 247.294 140.684 247.078 139.855 247.078C139.069 247.078 138.428 247.251 137.931 247.597C137.438 247.942 137.092 248.349 136.894 248.818L135.693 248.385C135.94 247.788 136.28 247.312 136.716 246.957C137.152 246.598 137.639 246.339 138.179 246.183C138.719 246.022 139.266 245.942 139.82 245.942C140.236 245.942 140.67 245.996 141.119 246.105C141.574 246.214 141.995 246.403 142.384 246.673C142.772 246.938 143.087 247.31 143.328 247.788C143.57 248.262 143.69 248.863 143.69 249.592V257H142.426V255.274H142.348C142.197 255.596 141.972 255.909 141.673 256.212C141.375 256.515 141.001 256.763 140.551 256.957C140.101 257.152 139.574 257.249 138.967 257.249ZM139.138 256.091C139.81 256.091 140.393 255.942 140.885 255.643C141.378 255.345 141.756 254.95 142.021 254.457C142.291 253.96 142.426 253.413 142.426 252.817V251.24C142.332 251.33 142.173 251.411 141.95 251.482C141.733 251.553 141.479 251.616 141.19 251.673C140.906 251.725 140.622 251.77 140.338 251.808C140.054 251.846 139.798 251.879 139.571 251.908C138.956 251.983 138.43 252.102 137.994 252.263C137.559 252.424 137.225 252.646 136.993 252.93C136.761 253.21 136.645 253.57 136.645 254.01C136.645 254.673 136.882 255.187 137.355 255.551C137.829 255.911 138.423 256.091 139.138 256.091ZM151.95 246.091V247.192H146.744V246.091H151.95ZM148.371 243.477H149.642V254.152C149.642 254.607 149.72 254.964 149.876 255.224C150.033 255.48 150.236 255.662 150.487 255.771C150.738 255.875 151.006 255.928 151.29 255.928C151.455 255.928 151.598 255.918 151.716 255.899C151.834 255.875 151.938 255.852 152.028 255.828L152.298 256.972C152.175 257.019 152.024 257.062 151.844 257.099C151.664 257.142 151.441 257.163 151.176 257.163C150.712 257.163 150.265 257.062 149.834 256.858C149.408 256.654 149.057 256.351 148.783 255.949C148.508 255.546 148.371 255.047 148.371 254.45V243.477ZM155.436 257V246.091H156.707V257H155.436ZM156.082 244.216C155.821 244.216 155.599 244.128 155.414 243.953C155.23 243.773 155.137 243.558 155.137 243.307C155.137 243.056 155.23 242.843 155.414 242.668C155.599 242.488 155.821 242.398 156.082 242.398C156.342 242.398 156.565 242.488 156.75 242.668C156.934 242.843 157.026 243.056 157.026 243.307C157.026 243.558 156.934 243.773 156.75 243.953C156.565 244.128 156.342 244.216 156.082 244.216ZM164.89 257.227C163.948 257.227 163.115 256.988 162.39 256.51C161.671 256.032 161.107 255.371 160.7 254.528C160.293 253.681 160.089 252.703 160.089 251.595C160.089 250.478 160.293 249.495 160.7 248.648C161.107 247.795 161.671 247.133 162.39 246.659C163.115 246.181 163.948 245.942 164.89 245.942C165.833 245.942 166.664 246.181 167.383 246.659C168.103 247.137 168.666 247.8 169.074 248.648C169.486 249.495 169.691 250.478 169.691 251.595C169.691 252.703 169.488 253.681 169.081 254.528C168.673 255.371 168.108 256.032 167.383 256.51C166.664 256.988 165.833 257.227 164.89 257.227ZM164.89 256.07C165.648 256.07 166.289 255.866 166.815 255.459C167.341 255.052 167.738 254.509 168.008 253.832C168.283 253.155 168.42 252.41 168.42 251.595C168.42 250.781 168.283 250.033 168.008 249.351C167.738 248.669 167.341 248.122 166.815 247.71C166.289 247.298 165.648 247.092 164.89 247.092C164.137 247.092 163.496 247.298 162.966 247.71C162.44 248.122 162.04 248.669 161.765 249.351C161.495 250.033 161.361 250.781 161.361 251.595C161.361 252.41 161.495 253.155 161.765 253.832C162.04 254.509 162.44 255.052 162.966 255.459C163.491 255.866 164.133 256.07 164.89 256.07ZM174.331 250.182V257H173.067V246.091H174.295V247.803H174.409C174.665 247.244 175.062 246.796 175.602 246.46C176.147 246.119 176.819 245.949 177.619 245.949C178.353 245.949 178.997 246.103 179.551 246.411C180.11 246.714 180.543 247.161 180.851 247.753C181.163 248.345 181.32 249.071 181.32 249.933V257H180.055V250.011C180.055 249.116 179.804 248.409 179.302 247.888C178.805 247.367 178.138 247.107 177.3 247.107C176.727 247.107 176.218 247.23 175.773 247.476C175.328 247.722 174.975 248.077 174.714 248.541C174.459 249 174.331 249.547 174.331 250.182ZM191.474 261.091V246.091H192.702V248.172H192.852C193.003 247.845 193.211 247.511 193.477 247.17C193.742 246.825 194.092 246.534 194.528 246.297C194.968 246.06 195.522 245.942 196.19 245.942C197.089 245.942 197.875 246.179 198.548 246.652C199.225 247.121 199.75 247.779 200.124 248.626C200.503 249.469 200.692 250.452 200.692 251.574C200.692 252.701 200.503 253.688 200.124 254.536C199.75 255.383 199.225 256.044 198.548 256.517C197.875 256.991 197.094 257.227 196.204 257.227C195.546 257.227 194.994 257.109 194.549 256.872C194.109 256.635 193.751 256.344 193.477 255.999C193.207 255.648 192.998 255.307 192.852 254.976H192.738V261.091H191.474ZM192.724 251.553C192.724 252.433 192.854 253.214 193.114 253.896C193.379 254.573 193.758 255.106 194.251 255.494C194.748 255.878 195.349 256.07 196.055 256.07C196.779 256.07 197.39 255.871 197.887 255.473C198.389 255.071 198.77 254.528 199.031 253.847C199.296 253.165 199.428 252.4 199.428 251.553C199.428 250.714 199.298 249.959 199.038 249.287C198.782 248.615 198.403 248.082 197.901 247.689C197.399 247.291 196.784 247.092 196.055 247.092C195.344 247.092 194.741 247.284 194.244 247.668C193.746 248.046 193.368 248.572 193.107 249.244C192.852 249.912 192.724 250.681 192.724 251.553ZM205.33 242.455V257H204.066V242.455H205.33ZM212.322 257.249C211.664 257.249 211.063 257.121 210.518 256.865C209.974 256.605 209.54 256.231 209.218 255.743C208.896 255.25 208.736 254.654 208.736 253.953C208.736 253.413 208.837 252.959 209.041 252.589C209.245 252.22 209.533 251.917 209.907 251.68C210.281 251.444 210.724 251.257 211.236 251.119C211.747 250.982 212.31 250.875 212.926 250.8C213.537 250.724 214.053 250.658 214.474 250.601C214.9 250.544 215.225 250.454 215.447 250.331C215.67 250.208 215.781 250.009 215.781 249.734V249.479C215.781 248.735 215.558 248.151 215.113 247.724C214.673 247.294 214.039 247.078 213.21 247.078C212.424 247.078 211.782 247.251 211.285 247.597C210.793 247.942 210.447 248.349 210.248 248.818L209.048 248.385C209.294 247.788 209.635 247.312 210.071 246.957C210.506 246.598 210.994 246.339 211.534 246.183C212.074 246.022 212.62 245.942 213.174 245.942C213.591 245.942 214.024 245.996 214.474 246.105C214.929 246.214 215.35 246.403 215.738 246.673C216.127 246.938 216.441 247.31 216.683 247.788C216.924 248.262 217.045 248.863 217.045 249.592V257H215.781V255.274H215.703C215.551 255.596 215.326 255.909 215.028 256.212C214.73 256.515 214.356 256.763 213.906 256.957C213.456 257.152 212.928 257.249 212.322 257.249ZM212.493 256.091C213.165 256.091 213.747 255.942 214.24 255.643C214.732 255.345 215.111 254.95 215.376 254.457C215.646 253.96 215.781 253.413 215.781 252.817V251.24C215.686 251.33 215.528 251.411 215.305 251.482C215.087 251.553 214.834 251.616 214.545 251.673C214.261 251.725 213.977 251.77 213.693 251.808C213.409 251.846 213.153 251.879 212.926 251.908C212.31 251.983 211.785 252.102 211.349 252.263C210.914 252.424 210.58 252.646 210.348 252.93C210.116 253.21 210 253.57 210 254.01C210 254.673 210.236 255.187 210.71 255.551C211.183 255.911 211.778 256.091 212.493 256.091ZM225.305 246.091V247.192H220.099V246.091H225.305ZM221.725 243.477H222.997V254.152C222.997 254.607 223.075 254.964 223.231 255.224C223.387 255.48 223.591 255.662 223.842 255.771C224.093 255.875 224.36 255.928 224.644 255.928C224.81 255.928 224.952 255.918 225.071 255.899C225.189 255.875 225.293 255.852 225.383 255.828L225.653 256.972C225.53 257.019 225.378 257.062 225.198 257.099C225.019 257.142 224.796 257.163 224.531 257.163C224.067 257.163 223.619 257.062 223.188 256.858C222.762 256.654 222.412 256.351 222.137 255.949C221.863 255.546 221.725 255.047 221.725 254.45V243.477ZM233.265 246.091V247.192H227.902V246.091H233.265ZM229.579 257V244.493C229.579 243.906 229.714 243.411 229.983 243.009C230.258 242.606 230.616 242.301 231.056 242.092C231.496 241.884 231.963 241.78 232.455 241.78C232.786 241.78 233.061 241.808 233.279 241.865C233.501 241.917 233.677 241.969 233.804 242.021L233.435 243.129C233.34 243.101 233.224 243.068 233.087 243.03C232.95 242.992 232.777 242.973 232.569 242.973C232.019 242.973 231.596 243.127 231.297 243.435C230.999 243.742 230.85 244.183 230.85 244.756L230.843 257H229.579ZM240.179 257.227C239.236 257.227 238.403 256.988 237.679 256.51C236.959 256.032 236.395 255.371 235.988 254.528C235.581 253.681 235.377 252.703 235.377 251.595C235.377 250.478 235.581 249.495 235.988 248.648C236.395 247.795 236.959 247.133 237.679 246.659C238.403 246.181 239.236 245.942 240.179 245.942C241.121 245.942 241.952 246.181 242.672 246.659C243.391 247.137 243.955 247.8 244.362 248.648C244.774 249.495 244.98 250.478 244.98 251.595C244.98 252.703 244.776 253.681 244.369 254.528C243.962 255.371 243.396 256.032 242.672 256.51C241.952 256.988 241.121 257.227 240.179 257.227ZM240.179 256.07C240.936 256.07 241.578 255.866 242.103 255.459C242.629 255.052 243.027 254.509 243.297 253.832C243.571 253.155 243.708 252.41 243.708 251.595C243.708 250.781 243.571 250.033 243.297 249.351C243.027 248.669 242.629 248.122 242.103 247.71C241.578 247.298 240.936 247.092 240.179 247.092C239.426 247.092 238.784 247.298 238.254 247.71C237.728 248.122 237.328 248.669 237.054 249.351C236.784 250.033 236.649 250.781 236.649 251.595C236.649 252.41 236.784 253.155 237.054 253.832C237.328 254.509 237.728 255.052 238.254 255.459C238.779 255.866 239.421 256.07 240.179 256.07ZM248.355 257V246.091H249.584V247.767H249.676C249.894 247.218 250.273 246.775 250.812 246.439C251.357 246.098 251.972 245.928 252.659 245.928C252.763 245.928 252.879 245.93 253.007 245.935C253.135 245.939 253.241 245.944 253.327 245.949V247.234C253.27 247.225 253.17 247.211 253.028 247.192C252.886 247.173 252.732 247.163 252.567 247.163C251.998 247.163 251.492 247.284 251.047 247.526C250.606 247.762 250.258 248.091 250.003 248.513C249.747 248.934 249.619 249.415 249.619 249.955V257H248.355ZM256.084 257V246.091H257.313V247.767H257.426C257.644 247.204 258.006 246.761 258.513 246.439C259.024 246.112 259.637 245.949 260.352 245.949C261.105 245.949 261.723 246.126 262.206 246.482C262.694 246.832 263.058 247.315 263.3 247.93H263.392C263.638 247.324 264.038 246.844 264.592 246.489C265.151 246.129 265.828 245.949 266.624 245.949C267.637 245.949 268.437 246.268 269.024 246.908C269.611 247.542 269.905 248.47 269.905 249.692V257H268.641V249.692C268.641 248.83 268.421 248.184 267.98 247.753C267.54 247.322 266.96 247.107 266.24 247.107C265.407 247.107 264.765 247.362 264.315 247.874C263.866 248.385 263.641 249.034 263.641 249.82V257H262.348V249.578C262.348 248.839 262.142 248.243 261.73 247.788C261.318 247.334 260.738 247.107 259.99 247.107C259.488 247.107 259.036 247.23 258.634 247.476C258.236 247.722 257.921 248.065 257.689 248.506C257.462 248.941 257.348 249.443 257.348 250.011V257H256.084ZM281.181 248.484L280.024 248.811C279.91 248.484 279.749 248.188 279.541 247.923C279.332 247.658 279.06 247.447 278.724 247.291C278.393 247.135 277.981 247.057 277.488 247.057C276.75 247.057 276.144 247.232 275.67 247.582C275.197 247.933 274.96 248.385 274.96 248.939C274.96 249.408 275.121 249.789 275.443 250.082C275.769 250.371 276.271 250.601 276.948 250.771L278.596 251.176C279.51 251.399 280.194 251.751 280.649 252.234C281.108 252.717 281.338 253.323 281.338 254.053C281.338 254.668 281.167 255.215 280.826 255.693C280.485 256.171 280.01 256.548 279.399 256.822C278.793 257.092 278.09 257.227 277.289 257.227C276.224 257.227 275.346 256.988 274.654 256.51C273.963 256.027 273.52 255.331 273.326 254.422L274.541 254.124C274.697 254.772 275.002 255.262 275.457 255.594C275.916 255.925 276.52 256.091 277.268 256.091C278.106 256.091 278.776 255.904 279.278 255.53C279.78 255.151 280.031 254.678 280.031 254.109C280.031 253.669 279.884 253.3 279.59 253.001C279.297 252.698 278.852 252.476 278.255 252.334L276.473 251.908C275.526 251.68 274.825 251.321 274.37 250.828C273.916 250.336 273.688 249.725 273.688 248.996C273.688 248.394 273.852 247.866 274.179 247.412C274.505 246.953 274.955 246.593 275.528 246.332C276.101 246.072 276.754 245.942 277.488 245.942C278.487 245.942 279.285 246.169 279.882 246.624C280.483 247.073 280.916 247.694 281.181 248.484ZM291.194 257V242.455H292.465V248.172H292.578C292.721 247.845 292.924 247.509 293.189 247.163C293.459 246.818 293.812 246.529 294.248 246.297C294.688 246.06 295.242 245.942 295.909 245.942C296.804 245.942 297.59 246.179 298.267 246.652C298.944 247.121 299.472 247.779 299.851 248.626C300.23 249.469 300.419 250.452 300.419 251.574C300.419 252.701 300.23 253.688 299.851 254.536C299.477 255.383 298.952 256.044 298.275 256.517C297.602 256.991 296.821 257.227 295.931 257.227C295.268 257.227 294.714 257.109 294.269 256.872C293.828 256.635 293.473 256.344 293.203 255.999C292.934 255.648 292.725 255.307 292.578 254.976H292.422V257H291.194ZM292.444 251.553C292.444 252.433 292.574 253.214 292.834 253.896C293.099 254.573 293.478 255.106 293.971 255.494C294.468 255.878 295.069 256.07 295.775 256.07C296.499 256.07 297.112 255.871 297.614 255.473C298.116 255.071 298.497 254.528 298.757 253.847C299.018 253.165 299.148 252.4 299.148 251.553C299.148 250.714 299.018 249.959 298.757 249.287C298.502 248.615 298.123 248.082 297.621 247.689C297.119 247.291 296.504 247.092 295.775 247.092C295.064 247.092 294.461 247.284 293.963 247.668C293.471 248.046 293.095 248.572 292.834 249.244C292.574 249.912 292.444 250.681 292.444 251.553ZM310.728 252.831V246.091H311.992V257H310.728V255.189H310.629C310.373 255.748 309.968 256.214 309.414 256.588C308.86 256.957 308.183 257.142 307.383 257.142C306.687 257.142 306.069 256.991 305.529 256.688C304.99 256.38 304.566 255.93 304.258 255.338C303.95 254.746 303.796 254.019 303.796 253.158V246.091H305.061V253.08C305.061 253.932 305.312 254.618 305.813 255.139C306.315 255.655 306.959 255.913 307.745 255.913C308.238 255.913 308.711 255.795 309.166 255.558C309.62 255.321 309.994 254.976 310.288 254.521C310.581 254.062 310.728 253.499 310.728 252.831ZM315.954 257V246.091H317.225V257H315.954ZM316.6 244.216C316.339 244.216 316.117 244.128 315.932 243.953C315.748 243.773 315.655 243.558 315.655 243.307C315.655 243.056 315.748 242.843 315.932 242.668C316.117 242.488 316.339 242.398 316.6 242.398C316.86 242.398 317.083 242.488 317.267 242.668C317.452 242.843 317.544 243.056 317.544 243.307C317.544 243.558 317.452 243.773 317.267 243.953C317.083 244.128 316.86 244.216 316.6 244.216ZM322.432 242.455V257H321.168V242.455H322.432ZM330.675 246.091V247.192H325.469V246.091H330.675ZM327.095 243.477H328.366V254.152C328.366 254.607 328.444 254.964 328.601 255.224C328.757 255.48 328.961 255.662 329.211 255.771C329.462 255.875 329.73 255.928 330.014 255.928C330.18 255.928 330.322 255.918 330.44 255.899C330.559 255.875 330.663 255.852 330.753 255.828L331.023 256.972C330.899 257.019 330.748 257.062 330.568 257.099C330.388 257.142 330.166 257.163 329.9 257.163C329.436 257.163 328.989 257.062 328.558 256.858C328.132 256.654 327.782 256.351 327.507 255.949C327.232 255.546 327.095 255.047 327.095 254.45V243.477ZM340.633 257V242.455H341.905V248.172H342.018C342.16 247.845 342.364 247.509 342.629 247.163C342.899 246.818 343.252 246.529 343.687 246.297C344.128 246.06 344.682 245.942 345.349 245.942C346.244 245.942 347.03 246.179 347.707 246.652C348.384 247.121 348.912 247.779 349.291 248.626C349.67 249.469 349.859 250.452 349.859 251.574C349.859 252.701 349.67 253.688 349.291 254.536C348.917 255.383 348.391 256.044 347.714 256.517C347.042 256.991 346.261 257.227 345.371 257.227C344.708 257.227 344.154 257.109 343.709 256.872C343.268 256.635 342.913 256.344 342.643 255.999C342.373 255.648 342.165 255.307 342.018 254.976H341.862V257H340.633ZM341.883 251.553C341.883 252.433 342.014 253.214 342.274 253.896C342.539 254.573 342.918 255.106 343.41 255.494C343.908 255.878 344.509 256.07 345.214 256.07C345.939 256.07 346.552 255.871 347.054 255.473C347.556 255.071 347.937 254.528 348.197 253.847C348.458 253.165 348.588 252.4 348.588 251.553C348.588 250.714 348.458 249.959 348.197 249.287C347.942 248.615 347.563 248.082 347.061 247.689C346.559 247.291 345.943 247.092 345.214 247.092C344.504 247.092 343.9 247.284 343.403 247.668C342.911 248.046 342.534 248.572 342.274 249.244C342.014 249.912 341.883 250.681 341.883 251.553ZM353.726 261.091C353.475 261.091 353.241 261.067 353.023 261.02C352.805 260.973 352.633 260.92 352.505 260.864L352.846 259.749C353.276 259.881 353.66 259.929 353.996 259.891C354.332 259.857 354.631 259.706 354.891 259.436C355.151 259.171 355.383 258.764 355.587 258.214L355.985 257.107L351.972 246.091H353.343L356.581 255.331H356.681L359.919 246.091H361.29L356.674 258.726C356.48 259.251 356.24 259.689 355.956 260.04C355.672 260.395 355.343 260.658 354.969 260.828C354.6 261.003 354.186 261.091 353.726 261.091ZM137.565 266.455H138.893V276.085C138.893 277.075 138.661 277.96 138.197 278.741C137.733 279.518 137.086 280.131 136.258 280.581C135.434 281.026 134.475 281.249 133.381 281.249C132.292 281.249 131.334 281.024 130.505 280.574C129.676 280.124 129.03 279.511 128.566 278.734C128.102 277.958 127.87 277.075 127.87 276.085V266.455H129.198V275.993C129.198 276.765 129.371 277.454 129.717 278.06C130.062 278.661 130.548 279.134 131.173 279.48C131.802 279.826 132.539 279.999 133.381 279.999C134.224 279.999 134.961 279.826 135.59 279.48C136.22 279.134 136.705 278.661 137.046 278.06C137.392 277.454 137.565 276.765 137.565 275.993V266.455ZM144.354 274.182V281H143.09V270.091H144.319V271.803H144.432C144.688 271.244 145.086 270.796 145.626 270.46C146.17 270.119 146.842 269.949 147.643 269.949C148.377 269.949 149.021 270.103 149.574 270.411C150.133 270.714 150.566 271.161 150.874 271.753C151.187 272.345 151.343 273.071 151.343 273.933V281H150.079V274.011C150.079 273.116 149.828 272.409 149.326 271.888C148.829 271.367 148.161 271.107 147.323 271.107C146.75 271.107 146.241 271.23 145.796 271.476C145.351 271.722 144.998 272.077 144.738 272.541C144.482 273 144.354 273.547 144.354 274.182ZM155.286 281V270.091H156.558V281H155.286ZM155.933 268.216C155.672 268.216 155.45 268.128 155.265 267.953C155.08 267.773 154.988 267.558 154.988 267.307C154.988 267.056 155.08 266.843 155.265 266.668C155.45 266.488 155.672 266.398 155.933 266.398C156.193 266.398 156.416 266.488 156.6 266.668C156.785 266.843 156.877 267.056 156.877 267.307C156.877 267.558 156.785 267.773 156.6 267.953C156.416 268.128 156.193 268.216 155.933 268.216ZM164.762 281.227C163.787 281.227 162.937 280.983 162.213 280.496C161.493 280.008 160.934 279.34 160.537 278.493C160.139 277.645 159.94 276.679 159.94 275.595C159.94 274.501 160.141 273.528 160.544 272.676C160.951 271.824 161.514 271.156 162.234 270.673C162.954 270.186 163.789 269.942 164.741 269.942C165.47 269.942 166.131 270.084 166.723 270.368C167.315 270.647 167.802 271.043 168.186 271.554C168.574 272.061 168.818 272.652 168.917 273.33H167.639C167.506 272.714 167.187 272.188 166.68 271.753C166.178 271.312 165.539 271.092 164.762 271.092C164.066 271.092 163.451 271.282 162.916 271.661C162.381 272.035 161.962 272.558 161.659 273.23C161.36 273.898 161.211 274.672 161.211 275.553C161.211 276.438 161.358 277.222 161.652 277.903C161.945 278.58 162.357 279.111 162.887 279.494C163.422 279.878 164.047 280.07 164.762 280.07C165.245 280.07 165.686 279.98 166.083 279.8C166.486 279.615 166.822 279.355 167.092 279.018C167.367 278.682 167.551 278.282 167.646 277.818H168.924C168.83 278.476 168.595 279.063 168.221 279.58C167.852 280.091 167.371 280.493 166.779 280.787C166.192 281.08 165.52 281.227 164.762 281.227ZM176.474 281.227C175.532 281.227 174.698 280.988 173.974 280.51C173.254 280.032 172.691 279.371 172.284 278.528C171.876 277.681 171.673 276.703 171.673 275.595C171.673 274.478 171.876 273.495 172.284 272.648C172.691 271.795 173.254 271.133 173.974 270.659C174.698 270.181 175.532 269.942 176.474 269.942C177.416 269.942 178.247 270.181 178.967 270.659C179.687 271.137 180.25 271.8 180.657 272.648C181.069 273.495 181.275 274.478 181.275 275.595C181.275 276.703 181.071 277.681 180.664 278.528C180.257 279.371 179.691 280.032 178.967 280.51C178.247 280.988 177.416 281.227 176.474 281.227ZM176.474 280.07C177.232 280.07 177.873 279.866 178.399 279.459C178.924 279.052 179.322 278.509 179.592 277.832C179.866 277.155 180.004 276.41 180.004 275.595C180.004 274.781 179.866 274.033 179.592 273.351C179.322 272.669 178.924 272.122 178.399 271.71C177.873 271.298 177.232 271.092 176.474 271.092C175.721 271.092 175.08 271.298 174.549 271.71C174.024 272.122 173.624 272.669 173.349 273.351C173.079 274.033 172.944 274.781 172.944 275.595C172.944 276.41 173.079 277.155 173.349 277.832C173.624 278.509 174.024 279.052 174.549 279.459C175.075 279.866 175.716 280.07 176.474 280.07ZM184.65 281V270.091H185.879V271.767H185.971C186.189 271.218 186.568 270.775 187.108 270.439C187.652 270.098 188.268 269.928 188.954 269.928C189.058 269.928 189.174 269.93 189.302 269.935C189.43 269.939 189.537 269.944 189.622 269.949V271.234C189.565 271.225 189.466 271.211 189.324 271.192C189.182 271.173 189.028 271.163 188.862 271.163C188.294 271.163 187.787 271.284 187.342 271.526C186.902 271.762 186.554 272.091 186.298 272.513C186.042 272.934 185.914 273.415 185.914 273.955V281H184.65ZM193.643 274.182V281H192.379V270.091H193.608V271.803H193.722C193.977 271.244 194.375 270.796 194.915 270.46C195.459 270.119 196.132 269.949 196.932 269.949C197.666 269.949 198.31 270.103 198.864 270.411C199.422 270.714 199.856 271.161 200.163 271.753C200.476 272.345 200.632 273.071 200.632 273.933V281H199.368V274.011C199.368 273.116 199.117 272.409 198.615 271.888C198.118 271.367 197.45 271.107 196.612 271.107C196.039 271.107 195.53 271.23 195.085 271.476C194.64 271.722 194.287 272.077 194.027 272.541C193.771 273 193.643 273.547 193.643 274.182ZM215.275 270.091V271.192H209.913V270.091H215.275ZM211.589 281V268.493C211.589 267.906 211.724 267.411 211.994 267.009C212.268 266.606 212.626 266.301 213.066 266.092C213.506 265.884 213.973 265.78 214.465 265.78C214.797 265.78 215.071 265.808 215.289 265.865C215.512 265.917 215.687 265.969 215.815 266.021L215.445 267.129C215.351 267.101 215.235 267.068 215.097 267.03C214.96 266.992 214.787 266.973 214.579 266.973C214.03 266.973 213.606 267.127 213.308 267.435C213.009 267.742 212.86 268.183 212.86 268.756L212.853 281H211.589ZM222.189 281.227C221.247 281.227 220.413 280.988 219.689 280.51C218.969 280.032 218.406 279.371 217.998 278.528C217.591 277.681 217.388 276.703 217.388 275.595C217.388 274.478 217.591 273.495 217.998 272.648C218.406 271.795 218.969 271.133 219.689 270.659C220.413 270.181 221.247 269.942 222.189 269.942C223.131 269.942 223.962 270.181 224.682 270.659C225.401 271.137 225.965 271.8 226.372 272.648C226.784 273.495 226.99 274.478 226.99 275.595C226.99 276.703 226.786 277.681 226.379 278.528C225.972 279.371 225.406 280.032 224.682 280.51C223.962 280.988 223.131 281.227 222.189 281.227ZM222.189 280.07C222.946 280.07 223.588 279.866 224.114 279.459C224.639 279.052 225.037 278.509 225.307 277.832C225.581 277.155 225.719 276.41 225.719 275.595C225.719 274.781 225.581 274.033 225.307 273.351C225.037 272.669 224.639 272.122 224.114 271.71C223.588 271.298 222.946 271.092 222.189 271.092C221.436 271.092 220.794 271.298 220.264 271.71C219.739 272.122 219.338 272.669 219.064 273.351C218.794 274.033 218.659 274.781 218.659 275.595C218.659 276.41 218.794 277.155 219.064 277.832C219.338 278.509 219.739 279.052 220.264 279.459C220.79 279.866 221.431 280.07 222.189 280.07ZM237.297 276.831V270.091H238.561V281H237.297V279.189H237.198C236.942 279.748 236.537 280.214 235.983 280.588C235.429 280.957 234.752 281.142 233.952 281.142C233.256 281.142 232.638 280.991 232.098 280.688C231.558 280.38 231.135 279.93 230.827 279.338C230.519 278.746 230.365 278.019 230.365 277.158V270.091H231.629V277.08C231.629 277.932 231.88 278.618 232.382 279.139C232.884 279.655 233.528 279.913 234.314 279.913C234.806 279.913 235.28 279.795 235.734 279.558C236.189 279.321 236.563 278.976 236.857 278.521C237.15 278.062 237.297 277.499 237.297 276.831ZM243.772 274.182V281H242.508V270.091H243.737V271.803H243.85C244.106 271.244 244.504 270.796 245.044 270.46C245.588 270.119 246.26 269.949 247.061 269.949C247.795 269.949 248.438 270.103 248.992 270.411C249.551 270.714 249.984 271.161 250.292 271.753C250.605 272.345 250.761 273.071 250.761 273.933V281H249.497V274.011C249.497 273.116 249.246 272.409 248.744 271.888C248.247 271.367 247.579 271.107 246.741 271.107C246.168 271.107 245.659 271.23 245.214 271.476C244.769 271.722 244.416 272.077 244.156 272.541C243.9 273 243.772 273.547 243.772 274.182ZM258.618 281.227C257.723 281.227 256.939 280.991 256.267 280.517C255.594 280.044 255.069 279.383 254.69 278.536C254.316 277.688 254.129 276.701 254.129 275.574C254.129 274.452 254.316 273.469 254.69 272.626C255.069 271.779 255.597 271.121 256.274 270.652C256.951 270.179 257.739 269.942 258.639 269.942C259.302 269.942 259.853 270.06 260.294 270.297C260.734 270.529 261.087 270.818 261.352 271.163C261.617 271.509 261.823 271.845 261.97 272.172H262.084V266.455H263.355V281H262.119V278.976H261.97C261.823 279.307 261.615 279.648 261.345 279.999C261.075 280.344 260.718 280.635 260.273 280.872C259.832 281.109 259.281 281.227 258.618 281.227ZM258.767 280.07C259.472 280.07 260.074 279.878 260.571 279.494C261.068 279.106 261.447 278.573 261.707 277.896C261.972 277.214 262.105 276.433 262.105 275.553C262.105 274.681 261.975 273.912 261.714 273.244C261.454 272.572 261.075 272.046 260.578 271.668C260.081 271.284 259.477 271.092 258.767 271.092C258.038 271.092 257.422 271.291 256.92 271.689C256.423 272.082 256.044 272.615 255.784 273.287C255.528 273.959 255.4 274.714 255.4 275.553C255.4 276.4 255.531 277.165 255.791 277.847C256.051 278.528 256.43 279.071 256.927 279.473C257.429 279.871 258.042 280.07 258.767 280.07ZM271.966 281.227C270.948 281.227 270.068 280.991 269.324 280.517C268.581 280.039 268.006 279.378 267.598 278.536C267.196 277.688 266.995 276.713 266.995 275.609C266.995 274.511 267.196 273.536 267.598 272.683C268.006 271.826 268.567 271.156 269.282 270.673C270.001 270.186 270.832 269.942 271.775 269.942C272.366 269.942 272.937 270.051 273.486 270.268C274.035 270.482 274.528 270.811 274.963 271.256C275.404 271.696 275.752 272.252 276.007 272.925C276.263 273.592 276.391 274.383 276.391 275.297V275.922H267.868V274.807H275.098C275.098 274.106 274.956 273.476 274.672 272.918C274.393 272.354 274.002 271.909 273.5 271.582C273.003 271.256 272.428 271.092 271.775 271.092C271.083 271.092 270.475 271.277 269.949 271.646C269.424 272.016 269.012 272.503 268.713 273.109C268.42 273.715 268.271 274.378 268.266 275.098V275.766C268.266 276.632 268.415 277.39 268.713 278.038C269.016 278.682 269.445 279.182 269.999 279.537C270.553 279.892 271.209 280.07 271.966 280.07C272.482 280.07 272.935 279.989 273.323 279.828C273.716 279.667 274.045 279.452 274.31 279.182C274.58 278.907 274.783 278.607 274.921 278.28L276.121 278.67C275.955 279.13 275.683 279.554 275.304 279.942C274.93 280.33 274.462 280.643 273.898 280.879C273.339 281.111 272.695 281.227 271.966 281.227ZM279.777 281V270.091H281.006V271.767H281.098C281.316 271.218 281.694 270.775 282.234 270.439C282.779 270.098 283.394 269.928 284.081 269.928C284.185 269.928 284.301 269.93 284.429 269.935C284.557 269.939 284.663 269.944 284.748 269.949V271.234C284.692 271.225 284.592 271.211 284.45 271.192C284.308 271.173 284.154 271.163 283.988 271.163C283.42 271.163 282.914 271.284 282.469 271.526C282.028 271.762 281.68 272.091 281.425 272.513C281.169 272.934 281.041 273.415 281.041 273.955V281H279.777ZM294.835 272.484L293.678 272.811C293.564 272.484 293.403 272.188 293.195 271.923C292.986 271.658 292.714 271.447 292.378 271.291C292.046 271.135 291.635 271.057 291.142 271.057C290.403 271.057 289.797 271.232 289.324 271.582C288.85 271.933 288.614 272.385 288.614 272.939C288.614 273.408 288.775 273.789 289.097 274.082C289.423 274.371 289.925 274.601 290.602 274.771L292.25 275.176C293.164 275.399 293.848 275.751 294.303 276.234C294.762 276.717 294.992 277.323 294.992 278.053C294.992 278.668 294.821 279.215 294.48 279.693C294.139 280.171 293.663 280.548 293.053 280.822C292.447 281.092 291.743 281.227 290.943 281.227C289.878 281.227 289 280.988 288.308 280.51C287.617 280.027 287.174 279.331 286.98 278.422L288.195 278.124C288.351 278.772 288.656 279.262 289.111 279.594C289.57 279.925 290.174 280.091 290.922 280.091C291.76 280.091 292.43 279.904 292.932 279.53C293.434 279.151 293.685 278.678 293.685 278.109C293.685 277.669 293.538 277.3 293.244 277.001C292.951 276.698 292.506 276.476 291.909 276.334L290.126 275.908C289.18 275.68 288.479 275.321 288.024 274.828C287.57 274.336 287.342 273.725 287.342 272.996C287.342 272.394 287.506 271.866 287.832 271.412C288.159 270.953 288.609 270.593 289.182 270.332C289.755 270.072 290.408 269.942 291.142 269.942C292.141 269.942 292.939 270.169 293.536 270.624C294.137 271.073 294.57 271.694 294.835 272.484ZM299.368 281.107C299.089 281.107 298.847 281.007 298.644 280.808C298.445 280.605 298.345 280.363 298.345 280.084C298.345 279.8 298.445 279.558 298.644 279.359C298.847 279.161 299.089 279.061 299.368 279.061C299.652 279.061 299.894 279.161 300.093 279.359C300.291 279.558 300.391 279.8 300.391 280.084C300.391 280.268 300.344 280.439 300.249 280.595C300.159 280.751 300.036 280.877 299.88 280.972C299.728 281.062 299.558 281.107 299.368 281.107Z" fill="#F9AC02"/>
<path d="M214 90.2499L207.75 83.9999M214 90.2499C216.91 89.1431 219.702 87.7472 222.333 86.0832M214 90.2499V100.667C214 100.667 220.312 99.5207 222.333 96.4999C224.583 93.1249 222.333 86.0832 222.333 86.0832M207.75 83.9999C208.859 81.1237 210.255 78.3667 211.917 75.7707C214.344 71.8894 217.724 68.6937 221.735 66.4876C225.747 64.2814 230.256 63.1381 234.833 63.1665C234.833 68.8332 233.208 78.7915 222.333 86.0832M207.75 83.9999H197.333C197.333 83.9999 198.479 77.6874 201.5 75.6665C204.875 73.4165 211.917 75.6665 211.917 75.6665M198.375 93.3749C195.25 95.9999 194.208 103.792 194.208 103.792C194.208 103.792 202 102.75 204.625 99.6249C206.104 97.8749 206.083 95.1874 204.437 93.5624C203.628 92.7895 202.561 92.3429 201.442 92.3083C200.323 92.2736 199.231 92.6535 198.375 93.3749Z" stroke="#F9AC02" stroke-width="2" stroke-linecap="round" stroke-linejoin="round"/>
<defs>
<filter id="filter0_d_32_1378" x="0.8" y="0.8" width="426.4" height="327.4" filterUnits="userSpaceOnUse" color-interpolation-filters="sRGB">
<feFlood flood-opacity="0" result="BackgroundImageFix"/>
<feColorMatrix in="SourceAlpha" type="matrix" values="0 0 0 0 0 0 0 0 0 0 0 0 0 0 0 0 0 0 127 0" result="hardAlpha"/>
<feOffset dy="4"/>
<feGaussianBlur stdDeviation="6.6"/>
<feComposite in2="hardAlpha" operator="out"/>
<feColorMatrix type="matrix" values="0 0 0 0 0 0 0 0 0 0 0 0 0 0 0 0 0 0 0.49 0"/>
<feBlend mode="normal" in2="BackgroundImageFix" result="effect1_dropShadow_32_1378"/>
<feBlend mode="normal" in="SourceGraphic" in2="effect1_dropShadow_32_1378" result="shape"/>
</filter>
<linearGradient id="paint0_linear_32_1378" x1="-14" y1="-6.99999" x2="400.74" y2="-8.63544" gradientUnits="userSpaceOnUse">
<stop stop-color="#F9AC02"/>
<stop offset="1" stop-color="#666666"/>
</linearGradient>
</defs>
</svg>
