<svg width="181" height="16" viewBox="0 0 181 16" fill="none" xmlns="http://www.w3.org/2000/svg">
<path d="M0.84233 15V0.454545H6.58097C7.68419 0.454545 8.62405 0.665246 9.40057 1.08665C10.1771 1.50331 10.7689 2.08333 11.1761 2.8267C11.5881 3.56534 11.794 4.41761 11.794 5.38352C11.794 6.34943 11.5857 7.2017 11.169 7.94034C10.7524 8.67898 10.1487 9.25426 9.35795 9.66619C8.57197 10.0781 7.62027 10.2841 6.50284 10.2841H2.84517V7.8196H6.00568C6.59754 7.8196 7.08523 7.7178 7.46875 7.5142C7.85701 7.30587 8.14583 7.01941 8.33523 6.65483C8.52936 6.28551 8.62642 5.86174 8.62642 5.38352C8.62642 4.90057 8.52936 4.47917 8.33523 4.11932C8.14583 3.75473 7.85701 3.47301 7.46875 3.27415C7.08049 3.07055 6.58807 2.96875 5.99148 2.96875H3.91761V15H0.84233ZM24.7915 15V0.454545H30.5302C31.6287 0.454545 32.5662 0.651041 33.3427 1.04403C34.1239 1.43229 34.7182 1.9839 35.1254 2.69886C35.5373 3.40909 35.7433 4.24479 35.7433 5.20597C35.7433 6.17187 35.5349 7.00284 35.1183 7.69886C34.7016 8.39015 34.0979 8.92045 33.3072 9.28977C32.5212 9.65909 31.5695 9.84375 30.4521 9.84375H26.6097V7.37216H29.9549C30.542 7.37216 31.0297 7.29167 31.418 7.13068C31.8062 6.9697 32.0951 6.72822 32.2844 6.40625C32.4786 6.08428 32.5756 5.68419 32.5756 5.20597C32.5756 4.72301 32.4786 4.31581 32.2844 3.98438C32.0951 3.65294 31.8039 3.40199 31.4109 3.23153C31.0226 3.05634 30.5326 2.96875 29.9407 2.96875H27.8668V15H24.7915ZM32.6467 8.38068L36.2617 15H32.8668L29.3299 8.38068H32.6467ZM48.9165 15V0.454545H58.7177V2.99006H51.9918V6.45597H58.2134V8.99148H51.9918V12.4645H58.7461V15H48.9165ZM80.0533 4.63778C79.9964 4.06487 79.7526 3.61979 79.3217 3.30256C78.8909 2.98532 78.3061 2.8267 77.5675 2.8267C77.0656 2.8267 76.6418 2.89773 76.2962 3.03977C75.9505 3.17708 75.6854 3.36884 75.5007 3.61506C75.3208 3.86127 75.2308 4.14062 75.2308 4.45312C75.2214 4.71354 75.2758 4.94081 75.3942 5.13494C75.5173 5.32907 75.6854 5.49716 75.8984 5.6392C76.1115 5.77651 76.3577 5.89725 76.6371 6.00142C76.9164 6.10085 77.2147 6.18608 77.532 6.2571L78.8388 6.5696C79.4732 6.71165 80.0556 6.90104 80.5859 7.13778C81.1162 7.37453 81.5755 7.66572 81.9638 8.01136C82.352 8.35701 82.6527 8.7642 82.8658 9.23295C83.0836 9.7017 83.1948 10.2391 83.1996 10.8452C83.1948 11.7353 82.9676 12.5071 82.5178 13.1605C82.0727 13.8092 81.4287 14.3134 80.5859 14.6733C79.7479 15.0284 78.737 15.206 77.5533 15.206C76.379 15.206 75.3563 15.026 74.4851 14.6662C73.6186 14.3063 72.9415 13.7737 72.4538 13.0682C71.9709 12.358 71.7176 11.4796 71.6939 10.4332H74.6697C74.7029 10.9209 74.8426 11.3281 75.0888 11.6548C75.3397 11.9768 75.6735 12.2206 76.0902 12.3864C76.5116 12.5473 76.9875 12.6278 77.5178 12.6278C78.0386 12.6278 78.4908 12.5521 78.8743 12.4006C79.2625 12.2491 79.5632 12.0384 79.7763 11.7685C79.9893 11.4986 80.0959 11.1884 80.0959 10.8381C80.0959 10.5114 79.9988 10.2367 79.8047 10.0142C79.6153 9.79167 79.3359 9.60227 78.9666 9.44602C78.602 9.28977 78.1546 9.14773 77.6243 9.01989L76.0405 8.62216C74.8142 8.32386 73.8459 7.85748 73.1357 7.22301C72.4254 6.58854 72.0727 5.7339 72.0774 4.65909C72.0727 3.77841 72.3071 3.009 72.7805 2.35085C73.2588 1.69271 73.9145 1.17898 74.7479 0.809659C75.5812 0.44034 76.5282 0.255681 77.5888 0.255681C78.6683 0.255681 79.6106 0.44034 80.4155 0.809659C81.2251 1.17898 81.8549 1.69271 82.3047 2.35085C82.7545 3.009 82.9865 3.77131 83.0007 4.63778H80.0533ZM96.2681 15V0.454545H106.069V2.99006H99.3434V6.45597H105.565V8.99148H99.3434V12.4645H106.098V15H96.2681ZM131.68 0.454545V15H129.024L122.696 5.84517H122.589V15H119.514V0.454545H122.213L128.491 9.60227H128.619V0.454545H131.68ZM144.667 2.99006V0.454545H156.613V2.99006H152.16V15H149.12V2.99006H144.667ZM177.471 4.63778C177.414 4.06487 177.171 3.61979 176.74 3.30256C176.309 2.98532 175.724 2.8267 174.985 2.8267C174.484 2.8267 174.06 2.89773 173.714 3.03977C173.368 3.17708 173.103 3.36884 172.919 3.61506C172.739 3.86127 172.649 4.14062 172.649 4.45312C172.639 4.71354 172.694 4.94081 172.812 5.13494C172.935 5.32907 173.103 5.49716 173.316 5.6392C173.529 5.77651 173.776 5.89725 174.055 6.00142C174.334 6.10085 174.633 6.18608 174.95 6.2571L176.257 6.5696C176.891 6.71165 177.474 6.90104 178.004 7.13778C178.534 7.37453 178.993 7.66572 179.382 8.01136C179.77 8.35701 180.071 8.7642 180.284 9.23295C180.502 9.7017 180.613 10.2391 180.618 10.8452C180.613 11.7353 180.386 12.5071 179.936 13.1605C179.491 13.8092 178.847 14.3134 178.004 14.6733C177.166 15.0284 176.155 15.206 174.971 15.206C173.797 15.206 172.774 15.026 171.903 14.6662C171.037 14.3063 170.359 13.7737 169.872 13.0682C169.389 12.358 169.136 11.4796 169.112 10.4332H172.088C172.121 10.9209 172.261 11.3281 172.507 11.6548C172.758 11.9768 173.092 12.2206 173.508 12.3864C173.93 12.5473 174.405 12.6278 174.936 12.6278C175.457 12.6278 175.909 12.5521 176.292 12.4006C176.681 12.2491 176.981 12.0384 177.194 11.7685C177.407 11.4986 177.514 11.1884 177.514 10.8381C177.514 10.5114 177.417 10.2367 177.223 10.0142C177.033 9.79167 176.754 9.60227 176.385 9.44602C176.02 9.28977 175.573 9.14773 175.042 9.01989L173.458 8.62216C172.232 8.32386 171.264 7.85748 170.554 7.22301C169.843 6.58854 169.491 5.7339 169.495 4.65909C169.491 3.77841 169.725 3.009 170.199 2.35085C170.677 1.69271 171.333 1.17898 172.166 0.809659C172.999 0.44034 173.946 0.255681 175.007 0.255681C176.086 0.255681 177.029 0.44034 177.833 0.809659C178.643 1.17898 179.273 1.69271 179.723 2.35085C180.172 3.009 180.404 3.77131 180.419 4.63778H177.471Z" fill="#F9AC02"/>
</svg>
