<svg width="20" height="22" viewBox="0 0 20 22" fill="none" xmlns="http://www.w3.org/2000/svg">
<path d="M16.5002 19.25C16.5002 17.3051 15.7275 15.4398 14.3523 14.0646C12.977 12.6893 11.1118 11.9167 9.16683 11.9167M9.16683 11.9167C7.22191 11.9167 5.35665 12.6893 3.98138 14.0646C2.60611 15.4398 1.8335 17.3051 1.8335 19.25M9.16683 11.9167C11.6981 11.9167 13.7502 9.86464 13.7502 7.33333C13.7502 4.80203 11.6981 2.75 9.16683 2.75C6.63552 2.75 4.5835 4.80203 4.5835 7.33333C4.5835 9.86464 6.63552 11.9167 9.16683 11.9167ZM20.1668 18.3333C20.1668 15.2442 18.3335 12.375 16.5002 11C17.1028 10.5479 17.5847 9.95416 17.9032 9.27141C18.2217 8.58866 18.367 7.83793 18.3262 7.08565C18.2854 6.33337 18.0598 5.60275 17.6693 4.95843C17.2789 4.31412 16.7356 3.77599 16.0877 3.39167" stroke="#F9AC02" stroke-width="2" stroke-linecap="round" stroke-linejoin="round"/>
</svg>
