<svg width="408" height="250" viewBox="0 0 408 250" fill="none" xmlns="http://www.w3.org/2000/svg">
<g filter="url(#filter0_d_138_1023)">
<rect x="4" y="38" width="400" height="204" rx="102" fill="#06288B"/>
</g>
<path d="M79.8825 121.141L73.695 140H68.7106L77.1638 117.25H80.3356L79.8825 121.141ZM85.0231 140L78.82 121.141L78.32 117.25H81.5231L90.0231 140H85.0231ZM84.7419 131.531V135.203H72.7263V131.531H84.7419ZM99.7956 136.797C100.348 136.797 100.837 136.693 101.264 136.484C101.691 136.266 102.025 135.964 102.264 135.578C102.514 135.182 102.645 134.719 102.655 134.188H106.889C106.879 135.375 106.561 136.432 105.936 137.359C105.311 138.276 104.473 139 103.421 139.531C102.369 140.052 101.191 140.312 99.8894 140.312C98.5769 140.312 97.431 140.094 96.4519 139.656C95.4831 139.219 94.6758 138.615 94.03 137.844C93.3842 137.062 92.8998 136.156 92.5769 135.125C92.254 134.083 92.0925 132.969 92.0925 131.781V131.328C92.0925 130.13 92.254 129.016 92.5769 127.984C92.8998 126.943 93.3842 126.036 94.03 125.266C94.6758 124.484 95.4831 123.875 96.4519 123.438C97.4206 123 98.556 122.781 99.8581 122.781C101.244 122.781 102.457 123.047 103.499 123.578C104.551 124.109 105.374 124.87 105.968 125.859C106.572 126.839 106.879 128 106.889 129.344H102.655C102.645 128.781 102.525 128.271 102.296 127.812C102.077 127.354 101.754 126.99 101.327 126.719C100.91 126.438 100.395 126.297 99.78 126.297C99.1238 126.297 98.5873 126.438 98.1706 126.719C97.754 126.99 97.431 127.365 97.2019 127.844C96.9727 128.312 96.8113 128.849 96.7175 129.453C96.6342 130.047 96.5925 130.672 96.5925 131.328V131.781C96.5925 132.438 96.6342 133.068 96.7175 133.672C96.8008 134.276 96.9571 134.812 97.1863 135.281C97.4258 135.75 97.754 136.12 98.1706 136.391C98.5873 136.661 99.129 136.797 99.7956 136.797ZM117.443 136.797C117.995 136.797 118.485 136.693 118.912 136.484C119.339 136.266 119.672 135.964 119.912 135.578C120.162 135.182 120.292 134.719 120.303 134.188H124.537C124.526 135.375 124.209 136.432 123.584 137.359C122.959 138.276 122.12 139 121.068 139.531C120.016 140.052 118.839 140.312 117.537 140.312C116.224 140.312 115.079 140.094 114.099 139.656C113.131 139.219 112.323 138.615 111.678 137.844C111.032 137.062 110.547 136.156 110.224 135.125C109.901 134.083 109.74 132.969 109.74 131.781V131.328C109.74 130.13 109.901 129.016 110.224 127.984C110.547 126.943 111.032 126.036 111.678 125.266C112.323 124.484 113.131 123.875 114.099 123.438C115.068 123 116.204 122.781 117.506 122.781C118.891 122.781 120.105 123.047 121.146 123.578C122.198 124.109 123.021 124.87 123.615 125.859C124.219 126.839 124.526 128 124.537 129.344H120.303C120.292 128.781 120.172 128.271 119.943 127.812C119.724 127.354 119.401 126.99 118.974 126.719C118.558 126.438 118.042 126.297 117.428 126.297C116.771 126.297 116.235 126.438 115.818 126.719C115.401 126.99 115.079 127.365 114.849 127.844C114.62 128.312 114.459 128.849 114.365 129.453C114.282 130.047 114.24 130.672 114.24 131.328V131.781C114.24 132.438 114.282 133.068 114.365 133.672C114.448 134.276 114.605 134.812 114.834 135.281C115.073 135.75 115.401 136.12 115.818 136.391C116.235 136.661 116.776 136.797 117.443 136.797ZM135.888 140.312C134.575 140.312 133.398 140.104 132.356 139.688C131.315 139.26 130.429 138.672 129.7 137.922C128.981 137.172 128.429 136.302 128.044 135.312C127.658 134.312 127.466 133.25 127.466 132.125V131.5C127.466 130.219 127.648 129.047 128.013 127.984C128.377 126.922 128.898 126 129.575 125.219C130.263 124.438 131.096 123.839 132.075 123.422C133.054 122.995 134.158 122.781 135.388 122.781C136.585 122.781 137.648 122.979 138.575 123.375C139.502 123.771 140.278 124.333 140.903 125.062C141.539 125.792 142.018 126.667 142.341 127.688C142.664 128.698 142.825 129.823 142.825 131.062V132.938H129.388V129.938H138.403V129.594C138.403 128.969 138.289 128.411 138.059 127.922C137.841 127.422 137.507 127.026 137.059 126.734C136.611 126.443 136.039 126.297 135.341 126.297C134.747 126.297 134.236 126.427 133.809 126.688C133.382 126.948 133.033 127.312 132.763 127.781C132.502 128.25 132.304 128.802 132.169 129.438C132.044 130.062 131.981 130.75 131.981 131.5V132.125C131.981 132.802 132.075 133.427 132.263 134C132.46 134.573 132.736 135.068 133.091 135.484C133.455 135.901 133.893 136.224 134.403 136.453C134.924 136.682 135.513 136.797 136.169 136.797C136.981 136.797 137.736 136.641 138.434 136.328C139.143 136.005 139.752 135.521 140.263 134.875L142.45 137.25C142.096 137.76 141.611 138.25 140.997 138.719C140.393 139.188 139.664 139.573 138.809 139.875C137.955 140.167 136.981 140.312 135.888 140.312ZM155.488 135.328C155.488 135.005 155.394 134.714 155.207 134.453C155.019 134.193 154.67 133.953 154.16 133.734C153.66 133.505 152.936 133.297 151.988 133.109C151.134 132.922 150.337 132.688 149.598 132.406C148.868 132.115 148.233 131.766 147.691 131.359C147.16 130.953 146.743 130.474 146.441 129.922C146.139 129.359 145.988 128.719 145.988 128C145.988 127.292 146.139 126.625 146.441 126C146.754 125.375 147.196 124.823 147.769 124.344C148.353 123.854 149.061 123.474 149.894 123.203C150.738 122.922 151.686 122.781 152.738 122.781C154.207 122.781 155.467 123.016 156.519 123.484C157.582 123.953 158.394 124.599 158.957 125.422C159.53 126.234 159.816 127.161 159.816 128.203H155.316C155.316 127.766 155.223 127.375 155.035 127.031C154.858 126.677 154.577 126.401 154.191 126.203C153.816 125.995 153.327 125.891 152.723 125.891C152.223 125.891 151.79 125.979 151.426 126.156C151.061 126.323 150.78 126.552 150.582 126.844C150.394 127.125 150.301 127.438 150.301 127.781C150.301 128.042 150.353 128.276 150.457 128.484C150.571 128.682 150.754 128.865 151.004 129.031C151.254 129.198 151.577 129.354 151.973 129.5C152.379 129.635 152.879 129.76 153.473 129.875C154.691 130.125 155.78 130.453 156.738 130.859C157.696 131.255 158.457 131.797 159.019 132.484C159.582 133.161 159.863 134.052 159.863 135.156C159.863 135.906 159.696 136.594 159.363 137.219C159.03 137.844 158.551 138.391 157.926 138.859C157.301 139.318 156.551 139.677 155.676 139.938C154.811 140.188 153.837 140.312 152.754 140.312C151.181 140.312 149.848 140.031 148.754 139.469C147.67 138.906 146.848 138.193 146.285 137.328C145.733 136.453 145.457 135.557 145.457 134.641H149.723C149.743 135.255 149.9 135.75 150.191 136.125C150.493 136.5 150.874 136.771 151.332 136.938C151.801 137.104 152.306 137.188 152.848 137.188C153.431 137.188 153.915 137.109 154.301 136.953C154.686 136.786 154.978 136.568 155.176 136.297C155.384 136.016 155.488 135.693 155.488 135.328ZM172.886 135.328C172.886 135.005 172.792 134.714 172.604 134.453C172.417 134.193 172.068 133.953 171.558 133.734C171.058 133.505 170.334 133.297 169.386 133.109C168.531 132.922 167.735 132.688 166.995 132.406C166.266 132.115 165.63 131.766 165.089 131.359C164.558 130.953 164.141 130.474 163.839 129.922C163.537 129.359 163.386 128.719 163.386 128C163.386 127.292 163.537 126.625 163.839 126C164.151 125.375 164.594 124.823 165.167 124.344C165.75 123.854 166.459 123.474 167.292 123.203C168.136 122.922 169.084 122.781 170.136 122.781C171.604 122.781 172.865 123.016 173.917 123.484C174.979 123.953 175.792 124.599 176.354 125.422C176.927 126.234 177.214 127.161 177.214 128.203H172.714C172.714 127.766 172.62 127.375 172.433 127.031C172.255 126.677 171.974 126.401 171.589 126.203C171.214 125.995 170.724 125.891 170.12 125.891C169.62 125.891 169.188 125.979 168.823 126.156C168.459 126.323 168.177 126.552 167.979 126.844C167.792 127.125 167.698 127.438 167.698 127.781C167.698 128.042 167.75 128.276 167.854 128.484C167.969 128.682 168.151 128.865 168.401 129.031C168.651 129.198 168.974 129.354 169.37 129.5C169.776 129.635 170.276 129.76 170.87 129.875C172.089 130.125 173.177 130.453 174.136 130.859C175.094 131.255 175.854 131.797 176.417 132.484C176.979 133.161 177.261 134.052 177.261 135.156C177.261 135.906 177.094 136.594 176.761 137.219C176.427 137.844 175.948 138.391 175.323 138.859C174.698 139.318 173.948 139.677 173.073 139.938C172.209 140.188 171.235 140.312 170.151 140.312C168.578 140.312 167.245 140.031 166.151 139.469C165.068 138.906 164.245 138.193 163.683 137.328C163.13 136.453 162.854 135.557 162.854 134.641H167.12C167.141 135.255 167.297 135.75 167.589 136.125C167.891 136.5 168.271 136.771 168.729 136.938C169.198 137.104 169.703 137.188 170.245 137.188C170.828 137.188 171.313 137.109 171.698 136.953C172.084 136.786 172.375 136.568 172.573 136.297C172.781 136.016 172.886 135.693 172.886 135.328ZM198.353 123.094V126.281H188.509V123.094H198.353ZM190.946 118.922H195.446V134.906C195.446 135.396 195.509 135.771 195.634 136.031C195.769 136.292 195.967 136.474 196.228 136.578C196.488 136.672 196.816 136.719 197.212 136.719C197.493 136.719 197.743 136.708 197.962 136.688C198.191 136.656 198.384 136.625 198.54 136.594L198.556 139.906C198.17 140.031 197.754 140.13 197.306 140.203C196.858 140.276 196.363 140.312 195.821 140.312C194.832 140.312 193.967 140.151 193.228 139.828C192.498 139.495 191.936 138.964 191.54 138.234C191.144 137.505 190.946 136.547 190.946 135.359V118.922ZM200.75 131.719V131.391C200.75 130.151 200.927 129.01 201.281 127.969C201.635 126.917 202.151 126.005 202.828 125.234C203.505 124.464 204.339 123.865 205.328 123.438C206.318 123 207.453 122.781 208.734 122.781C210.016 122.781 211.156 123 212.156 123.438C213.156 123.865 213.995 124.464 214.672 125.234C215.359 126.005 215.88 126.917 216.234 127.969C216.589 129.01 216.766 130.151 216.766 131.391V131.719C216.766 132.948 216.589 134.089 216.234 135.141C215.88 136.182 215.359 137.094 214.672 137.875C213.995 138.646 213.161 139.245 212.172 139.672C211.182 140.099 210.047 140.312 208.766 140.312C207.484 140.312 206.344 140.099 205.344 139.672C204.354 139.245 203.516 138.646 202.828 137.875C202.151 137.094 201.635 136.182 201.281 135.141C200.927 134.089 200.75 132.948 200.75 131.719ZM205.25 131.391V131.719C205.25 132.427 205.312 133.089 205.438 133.703C205.562 134.318 205.76 134.859 206.031 135.328C206.312 135.786 206.677 136.146 207.125 136.406C207.573 136.667 208.12 136.797 208.766 136.797C209.391 136.797 209.927 136.667 210.375 136.406C210.823 136.146 211.182 135.786 211.453 135.328C211.724 134.859 211.922 134.318 212.047 133.703C212.182 133.089 212.25 132.427 212.25 131.719V131.391C212.25 130.703 212.182 130.057 212.047 129.453C211.922 128.839 211.719 128.297 211.438 127.828C211.167 127.349 210.807 126.974 210.359 126.703C209.911 126.432 209.37 126.297 208.734 126.297C208.099 126.297 207.557 126.432 207.109 126.703C206.672 126.974 206.312 127.349 206.031 127.828C205.76 128.297 205.562 128.839 205.438 129.453C205.312 130.057 205.25 130.703 205.25 131.391ZM241.545 134.047C241.545 133.641 241.483 133.276 241.358 132.953C241.243 132.62 241.024 132.318 240.701 132.047C240.378 131.766 239.925 131.49 239.342 131.219C238.759 130.948 238.003 130.667 237.076 130.375C236.045 130.042 235.066 129.667 234.139 129.25C233.222 128.833 232.41 128.349 231.701 127.797C231.003 127.234 230.451 126.583 230.045 125.844C229.649 125.104 229.451 124.245 229.451 123.266C229.451 122.318 229.66 121.458 230.076 120.688C230.493 119.906 231.076 119.24 231.826 118.688C232.576 118.125 233.462 117.693 234.483 117.391C235.514 117.089 236.644 116.938 237.873 116.938C239.55 116.938 241.014 117.24 242.264 117.844C243.514 118.448 244.483 119.276 245.17 120.328C245.868 121.38 246.217 122.583 246.217 123.938H241.561C241.561 123.271 241.42 122.688 241.139 122.188C240.868 121.677 240.451 121.276 239.889 120.984C239.337 120.693 238.639 120.547 237.795 120.547C236.983 120.547 236.305 120.672 235.764 120.922C235.222 121.161 234.816 121.49 234.545 121.906C234.274 122.312 234.139 122.771 234.139 123.281C234.139 123.667 234.233 124.016 234.42 124.328C234.618 124.641 234.91 124.932 235.295 125.203C235.68 125.474 236.154 125.729 236.717 125.969C237.279 126.208 237.93 126.443 238.67 126.672C239.91 127.047 240.998 127.469 241.936 127.938C242.884 128.406 243.675 128.932 244.311 129.516C244.946 130.099 245.425 130.76 245.748 131.5C246.071 132.24 246.233 133.078 246.233 134.016C246.233 135.005 246.04 135.891 245.654 136.672C245.269 137.453 244.712 138.115 243.983 138.656C243.253 139.198 242.384 139.609 241.373 139.891C240.363 140.172 239.233 140.312 237.983 140.312C236.858 140.312 235.748 140.167 234.654 139.875C233.561 139.573 232.566 139.12 231.67 138.516C230.785 137.911 230.076 137.141 229.545 136.203C229.014 135.266 228.748 134.156 228.748 132.875H233.451C233.451 133.583 233.561 134.182 233.779 134.672C233.998 135.161 234.305 135.557 234.701 135.859C235.108 136.161 235.587 136.38 236.139 136.516C236.701 136.651 237.316 136.719 237.983 136.719C238.795 136.719 239.462 136.604 239.983 136.375C240.514 136.146 240.904 135.828 241.154 135.422C241.415 135.016 241.545 134.557 241.545 134.047ZM258.38 123.094V126.281H248.536V123.094H258.38ZM250.974 118.922H255.474V134.906C255.474 135.396 255.536 135.771 255.661 136.031C255.797 136.292 255.995 136.474 256.255 136.578C256.515 136.672 256.844 136.719 257.239 136.719C257.521 136.719 257.771 136.708 257.989 136.688C258.219 136.656 258.411 136.625 258.568 136.594L258.583 139.906C258.198 140.031 257.781 140.13 257.333 140.203C256.885 140.276 256.39 140.312 255.849 140.312C254.859 140.312 253.995 140.151 253.255 139.828C252.526 139.495 251.963 138.964 251.568 138.234C251.172 137.505 250.974 136.547 250.974 135.359V118.922ZM271.028 136.188V128.656C271.028 128.115 270.939 127.651 270.762 127.266C270.585 126.87 270.309 126.562 269.934 126.344C269.569 126.125 269.095 126.016 268.512 126.016C268.012 126.016 267.58 126.104 267.215 126.281C266.85 126.448 266.569 126.693 266.371 127.016C266.173 127.328 266.074 127.698 266.074 128.125H261.574C261.574 127.406 261.741 126.724 262.074 126.078C262.408 125.432 262.892 124.865 263.528 124.375C264.163 123.875 264.918 123.484 265.793 123.203C266.679 122.922 267.668 122.781 268.762 122.781C270.074 122.781 271.241 123 272.262 123.438C273.283 123.875 274.085 124.531 274.668 125.406C275.262 126.281 275.559 127.375 275.559 128.688V135.922C275.559 136.849 275.616 137.609 275.731 138.203C275.845 138.786 276.012 139.297 276.231 139.734V140H271.684C271.465 139.542 271.298 138.969 271.184 138.281C271.08 137.583 271.028 136.885 271.028 136.188ZM271.621 129.703L271.653 132.25H269.137C268.543 132.25 268.028 132.318 267.59 132.453C267.153 132.589 266.793 132.781 266.512 133.031C266.231 133.271 266.022 133.552 265.887 133.875C265.762 134.198 265.699 134.552 265.699 134.938C265.699 135.323 265.788 135.672 265.965 135.984C266.142 136.286 266.397 136.526 266.731 136.703C267.064 136.87 267.455 136.953 267.903 136.953C268.58 136.953 269.168 136.818 269.668 136.547C270.168 136.276 270.554 135.943 270.824 135.547C271.106 135.151 271.251 134.776 271.262 134.422L272.449 136.328C272.283 136.755 272.054 137.198 271.762 137.656C271.481 138.115 271.121 138.547 270.684 138.953C270.246 139.349 269.72 139.677 269.106 139.938C268.491 140.188 267.762 140.312 266.918 140.312C265.845 140.312 264.871 140.099 263.996 139.672C263.132 139.234 262.444 138.635 261.934 137.875C261.434 137.104 261.184 136.229 261.184 135.25C261.184 134.365 261.35 133.578 261.684 132.891C262.017 132.203 262.507 131.625 263.153 131.156C263.809 130.677 264.626 130.318 265.606 130.078C266.585 129.828 267.72 129.703 269.012 129.703H271.621ZM284.487 126.781V140H279.987V123.094H284.222L284.487 126.781ZM289.581 122.984L289.503 127.156C289.284 127.125 289.019 127.099 288.706 127.078C288.404 127.047 288.128 127.031 287.878 127.031C287.243 127.031 286.691 127.115 286.222 127.281C285.764 127.438 285.378 127.672 285.066 127.984C284.764 128.297 284.534 128.677 284.378 129.125C284.232 129.573 284.149 130.083 284.128 130.656L283.222 130.375C283.222 129.281 283.331 128.276 283.55 127.359C283.769 126.432 284.086 125.625 284.503 124.938C284.93 124.25 285.451 123.719 286.066 123.344C286.68 122.969 287.383 122.781 288.175 122.781C288.425 122.781 288.68 122.802 288.941 122.844C289.201 122.875 289.415 122.922 289.581 122.984ZM301.729 123.094V126.281H291.885V123.094H301.729ZM294.323 118.922H298.823V134.906C298.823 135.396 298.885 135.771 299.01 136.031C299.145 136.292 299.343 136.474 299.604 136.578C299.864 136.672 300.192 136.719 300.588 136.719C300.869 136.719 301.119 136.708 301.338 136.688C301.567 136.656 301.76 136.625 301.916 136.594L301.932 139.906C301.546 140.031 301.13 140.13 300.682 140.203C300.234 140.276 299.739 140.312 299.198 140.312C298.208 140.312 297.343 140.151 296.604 139.828C295.875 139.495 295.312 138.964 294.916 138.234C294.52 137.505 294.323 136.547 294.323 135.359V118.922ZM315.251 135.953V123.094H319.751V140H315.517L315.251 135.953ZM315.751 132.484L317.079 132.453C317.079 133.578 316.949 134.625 316.689 135.594C316.428 136.552 316.038 137.385 315.517 138.094C314.996 138.792 314.34 139.339 313.548 139.734C312.756 140.12 311.824 140.312 310.751 140.312C309.928 140.312 309.168 140.198 308.47 139.969C307.783 139.729 307.189 139.359 306.689 138.859C306.199 138.349 305.814 137.698 305.533 136.906C305.262 136.104 305.126 135.141 305.126 134.016V123.094H309.626V134.047C309.626 134.547 309.684 134.969 309.798 135.312C309.923 135.656 310.095 135.938 310.314 136.156C310.533 136.375 310.788 136.531 311.079 136.625C311.381 136.719 311.715 136.766 312.079 136.766C313.006 136.766 313.736 136.578 314.267 136.203C314.809 135.828 315.189 135.318 315.408 134.672C315.637 134.016 315.751 133.286 315.751 132.484ZM328.649 126.344V146.5H324.149V123.094H328.321L328.649 126.344ZM339.352 131.359V131.688C339.352 132.917 339.206 134.057 338.914 135.109C338.633 136.161 338.216 137.078 337.664 137.859C337.112 138.63 336.425 139.234 335.602 139.672C334.789 140.099 333.852 140.312 332.789 140.312C331.758 140.312 330.862 140.104 330.102 139.688C329.341 139.271 328.701 138.688 328.18 137.938C327.67 137.177 327.258 136.297 326.946 135.297C326.633 134.297 326.394 133.224 326.227 132.078V131.219C326.394 129.99 326.633 128.865 326.946 127.844C327.258 126.812 327.67 125.922 328.18 125.172C328.701 124.411 329.336 123.823 330.086 123.406C330.847 122.99 331.737 122.781 332.758 122.781C333.831 122.781 334.774 122.984 335.586 123.391C336.409 123.797 337.097 124.38 337.649 125.141C338.211 125.901 338.633 126.807 338.914 127.859C339.206 128.911 339.352 130.078 339.352 131.359ZM334.836 131.688V131.359C334.836 130.641 334.774 129.979 334.649 129.375C334.534 128.76 334.347 128.224 334.086 127.766C333.836 127.307 333.503 126.953 333.086 126.703C332.68 126.443 332.185 126.312 331.602 126.312C330.987 126.312 330.461 126.411 330.024 126.609C329.597 126.807 329.248 127.094 328.977 127.469C328.706 127.844 328.503 128.292 328.367 128.812C328.232 129.333 328.149 129.922 328.117 130.578V132.75C328.17 133.521 328.315 134.214 328.555 134.828C328.795 135.432 329.164 135.911 329.664 136.266C330.164 136.62 330.821 136.797 331.633 136.797C332.227 136.797 332.727 136.667 333.133 136.406C333.539 136.135 333.867 135.766 334.117 135.297C334.378 134.828 334.56 134.286 334.664 133.672C334.779 133.057 334.836 132.396 334.836 131.688ZM134.789 165.016H128.946L128.914 161.797H133.821C134.685 161.797 135.394 161.688 135.946 161.469C136.498 161.24 136.909 160.911 137.18 160.484C137.461 160.047 137.602 159.516 137.602 158.891C137.602 158.182 137.466 157.609 137.196 157.172C136.935 156.734 136.524 156.417 135.961 156.219C135.409 156.021 134.696 155.922 133.821 155.922H130.571V175H125.883V152.25H133.821C135.144 152.25 136.326 152.375 137.368 152.625C138.42 152.875 139.31 153.255 140.039 153.766C140.769 154.276 141.326 154.922 141.711 155.703C142.097 156.474 142.289 157.391 142.289 158.453C142.289 159.391 142.076 160.255 141.649 161.047C141.232 161.839 140.571 162.484 139.664 162.984C138.769 163.484 137.597 163.76 136.149 163.812L134.789 165.016ZM134.586 175H127.664L129.493 171.344H134.586C135.409 171.344 136.081 171.214 136.602 170.953C137.123 170.682 137.508 170.318 137.758 169.859C138.008 169.401 138.133 168.875 138.133 168.281C138.133 167.615 138.019 167.036 137.789 166.547C137.571 166.057 137.216 165.682 136.727 165.422C136.237 165.151 135.591 165.016 134.789 165.016H130.274L130.305 161.797H135.93L137.008 163.062C138.394 163.042 139.508 163.286 140.352 163.797C141.206 164.297 141.826 164.948 142.211 165.75C142.607 166.552 142.805 167.411 142.805 168.328C142.805 169.786 142.487 171.016 141.852 172.016C141.216 173.005 140.284 173.75 139.055 174.25C137.836 174.75 136.347 175 134.586 175ZM156.999 170.953V158.094H161.499V175H157.265L156.999 170.953ZM157.499 167.484L158.827 167.453C158.827 168.578 158.697 169.625 158.437 170.594C158.176 171.552 157.786 172.385 157.265 173.094C156.744 173.792 156.088 174.339 155.296 174.734C154.505 175.12 153.572 175.312 152.499 175.312C151.676 175.312 150.916 175.198 150.218 174.969C149.531 174.729 148.937 174.359 148.437 173.859C147.947 173.349 147.562 172.698 147.281 171.906C147.01 171.104 146.874 170.141 146.874 169.016V158.094H151.374V169.047C151.374 169.547 151.432 169.969 151.546 170.312C151.671 170.656 151.843 170.938 152.062 171.156C152.281 171.375 152.536 171.531 152.827 171.625C153.13 171.719 153.463 171.766 153.827 171.766C154.755 171.766 155.484 171.578 156.015 171.203C156.557 170.828 156.937 170.318 157.156 169.672C157.385 169.016 157.499 168.286 157.499 167.484ZM170.647 158.094V175H166.131V158.094H170.647ZM165.85 153.688C165.85 153.031 166.079 152.49 166.538 152.062C166.996 151.635 167.61 151.422 168.381 151.422C169.142 151.422 169.751 151.635 170.209 152.062C170.678 152.49 170.913 153.031 170.913 153.688C170.913 154.344 170.678 154.885 170.209 155.312C169.751 155.74 169.142 155.953 168.381 155.953C167.61 155.953 166.996 155.74 166.538 155.312C166.079 154.885 165.85 154.344 165.85 153.688ZM180.076 151V175H175.56V151H180.076ZM194.739 171.312V151H199.27V175H195.192L194.739 171.312ZM184.051 166.75V166.422C184.051 165.13 184.197 163.958 184.489 162.906C184.78 161.844 185.208 160.932 185.77 160.172C186.333 159.411 187.025 158.823 187.848 158.406C188.671 157.99 189.609 157.781 190.661 157.781C191.65 157.781 192.515 157.99 193.254 158.406C194.004 158.823 194.64 159.417 195.161 160.188C195.692 160.948 196.119 161.849 196.442 162.891C196.765 163.922 196.999 165.052 197.145 166.281V167C196.999 168.177 196.765 169.271 196.442 170.281C196.119 171.292 195.692 172.177 195.161 172.938C194.64 173.688 194.004 174.271 193.254 174.688C192.504 175.104 191.629 175.312 190.629 175.312C189.577 175.312 188.64 175.099 187.817 174.672C187.004 174.245 186.317 173.646 185.754 172.875C185.202 172.104 184.78 171.198 184.489 170.156C184.197 169.115 184.051 167.979 184.051 166.75ZM188.551 166.422V166.75C188.551 167.448 188.603 168.099 188.708 168.703C188.822 169.307 189.004 169.844 189.254 170.312C189.515 170.771 189.848 171.13 190.254 171.391C190.671 171.641 191.176 171.766 191.77 171.766C192.541 171.766 193.176 171.594 193.676 171.25C194.176 170.896 194.556 170.411 194.817 169.797C195.088 169.182 195.244 168.474 195.286 167.672V165.625C195.254 164.969 195.161 164.38 195.004 163.859C194.859 163.328 194.64 162.875 194.348 162.5C194.067 162.125 193.713 161.833 193.286 161.625C192.869 161.417 192.374 161.312 191.801 161.312C191.218 161.312 190.718 161.448 190.301 161.719C189.885 161.979 189.546 162.339 189.286 162.797C189.036 163.255 188.848 163.797 188.723 164.422C188.609 165.036 188.551 165.703 188.551 166.422ZM221.815 166.891H216.018V163.234H221.815C222.711 163.234 223.44 163.089 224.003 162.797C224.565 162.495 224.976 162.078 225.237 161.547C225.497 161.016 225.628 160.417 225.628 159.75C225.628 159.073 225.497 158.443 225.237 157.859C224.976 157.276 224.565 156.807 224.003 156.453C223.44 156.099 222.711 155.922 221.815 155.922H217.643V175H212.956V152.25H221.815C223.596 152.25 225.122 152.573 226.393 153.219C227.674 153.854 228.654 154.734 229.331 155.859C230.008 156.984 230.346 158.271 230.346 159.719C230.346 161.188 230.008 162.458 229.331 163.531C228.654 164.604 227.674 165.432 226.393 166.016C225.122 166.599 223.596 166.891 221.815 166.891ZM243.197 171.188V163.656C243.197 163.115 243.108 162.651 242.931 162.266C242.754 161.87 242.478 161.562 242.103 161.344C241.739 161.125 241.265 161.016 240.681 161.016C240.181 161.016 239.749 161.104 239.384 161.281C239.02 161.448 238.739 161.693 238.541 162.016C238.343 162.328 238.244 162.698 238.244 163.125H233.744C233.744 162.406 233.91 161.724 234.244 161.078C234.577 160.432 235.061 159.865 235.697 159.375C236.332 158.875 237.087 158.484 237.962 158.203C238.848 157.922 239.837 157.781 240.931 157.781C242.244 157.781 243.41 158 244.431 158.438C245.452 158.875 246.254 159.531 246.837 160.406C247.431 161.281 247.728 162.375 247.728 163.688V170.922C247.728 171.849 247.785 172.609 247.9 173.203C248.015 173.786 248.181 174.297 248.4 174.734V175H243.853C243.634 174.542 243.468 173.969 243.353 173.281C243.249 172.583 243.197 171.885 243.197 171.188ZM243.791 164.703L243.822 167.25H241.306C240.712 167.25 240.197 167.318 239.759 167.453C239.322 167.589 238.962 167.781 238.681 168.031C238.4 168.271 238.192 168.552 238.056 168.875C237.931 169.198 237.869 169.552 237.869 169.938C237.869 170.323 237.957 170.672 238.134 170.984C238.311 171.286 238.567 171.526 238.9 171.703C239.233 171.87 239.624 171.953 240.072 171.953C240.749 171.953 241.337 171.818 241.837 171.547C242.337 171.276 242.723 170.943 242.994 170.547C243.275 170.151 243.421 169.776 243.431 169.422L244.619 171.328C244.452 171.755 244.223 172.198 243.931 172.656C243.65 173.115 243.291 173.547 242.853 173.953C242.416 174.349 241.89 174.677 241.275 174.938C240.66 175.188 239.931 175.312 239.087 175.312C238.015 175.312 237.041 175.099 236.166 174.672C235.301 174.234 234.614 173.635 234.103 172.875C233.603 172.104 233.353 171.229 233.353 170.25C233.353 169.365 233.52 168.578 233.853 167.891C234.186 167.203 234.676 166.625 235.322 166.156C235.978 165.677 236.796 165.318 237.775 165.078C238.754 164.828 239.89 164.703 241.181 164.703H243.791ZM259.141 171.797C259.693 171.797 260.183 171.693 260.61 171.484C261.037 171.266 261.37 170.964 261.61 170.578C261.86 170.182 261.99 169.719 262.001 169.188H266.235C266.225 170.375 265.907 171.432 265.282 172.359C264.657 173.276 263.818 174 262.766 174.531C261.714 175.052 260.537 175.312 259.235 175.312C257.923 175.312 256.777 175.094 255.798 174.656C254.829 174.219 254.021 173.615 253.376 172.844C252.73 172.062 252.245 171.156 251.923 170.125C251.6 169.083 251.438 167.969 251.438 166.781V166.328C251.438 165.13 251.6 164.016 251.923 162.984C252.245 161.943 252.73 161.036 253.376 160.266C254.021 159.484 254.829 158.875 255.798 158.438C256.766 158 257.902 157.781 259.204 157.781C260.589 157.781 261.803 158.047 262.844 158.578C263.896 159.109 264.719 159.87 265.313 160.859C265.917 161.839 266.225 163 266.235 164.344H262.001C261.99 163.781 261.87 163.271 261.641 162.812C261.423 162.354 261.1 161.99 260.673 161.719C260.256 161.438 259.74 161.297 259.126 161.297C258.469 161.297 257.933 161.438 257.516 161.719C257.1 161.99 256.777 162.365 256.548 162.844C256.318 163.312 256.157 163.849 256.063 164.453C255.98 165.047 255.938 165.672 255.938 166.328V166.781C255.938 167.438 255.98 168.068 256.063 168.672C256.146 169.276 256.303 169.812 256.532 170.281C256.771 170.75 257.1 171.12 257.516 171.391C257.933 171.661 258.475 171.797 259.141 171.797ZM274.304 150.984V175H269.804V150.984H274.304ZM284.961 158.094L277.617 166.469L273.679 170.453L272.039 167.203L275.164 163.234L279.554 158.094H284.961ZM280.289 175L275.289 167.188L278.398 164.469L285.476 175H280.289Z" fill="white"/>
<circle cx="203.5" cy="37.5" r="37.5" fill="#114DFF"/>
<g clip-path="url(#clip0_138_1023)">
<path fill-rule="evenodd" clip-rule="evenodd" d="M203.576 48.2552L194.745 39.4238C195.716 37.7989 196.684 36.1175 197.642 34.4455C200.836 28.8952 203.953 23.4769 206.876 20.6578C214.809 12.7252 225.674 17.3263 225.674 17.3263C225.674 17.3263 230.275 28.1912 222.342 36.1238C219.545 39.0215 214.212 42.0952 208.702 45.2632C206.986 46.2532 205.254 47.2495 203.576 48.2552ZM210.302 27.7261C210.302 26.4074 210.826 25.1428 211.758 24.2103C212.69 23.2779 213.955 22.7541 215.274 22.7541C216.592 22.7541 217.857 23.2779 218.79 24.2103C219.722 25.1428 220.246 26.4074 220.246 27.7261C220.213 29.0227 219.675 30.2552 218.747 31.1607C217.818 32.0662 216.572 32.5731 215.275 32.5731C213.978 32.5731 212.733 32.0662 211.804 31.1607C210.876 30.2552 210.334 29.0227 210.302 27.7261ZM197.451 26.9969C192.994 25.8121 188.811 28.0058 185.099 31.4095C184.928 31.5707 184.797 31.7698 184.716 31.9907C184.636 32.2116 184.608 32.4483 184.635 32.6819C184.662 32.9155 184.744 33.1395 184.873 33.336C185.002 33.5325 185.175 33.6961 185.379 33.8138L191.366 37.4218L191.372 37.4092C192.237 35.9635 193.202 34.2883 194.182 32.5912C195.298 30.6521 196.432 28.6846 197.451 26.9969ZM205.581 51.6369L209.189 57.6241C209.307 57.8275 209.471 58.0005 209.668 58.1293C209.864 58.2581 210.088 58.3392 210.322 58.3661C210.555 58.393 210.792 58.3649 211.013 58.284C211.234 58.2032 211.432 58.0719 211.594 57.9006C214.997 54.1921 217.194 50.0058 216.006 45.5492C214.366 46.5361 212.643 47.5292 210.937 48.5129L210.676 48.6638C208.954 49.6569 207.247 50.6375 205.597 51.6275L205.581 51.6369ZM191.24 45.3638C192.511 45.3413 193.758 45.7042 194.818 46.4047C195.878 47.1052 196.7 48.1105 197.177 49.2879C197.654 50.4654 197.764 51.7598 197.49 53.0005C197.217 54.2412 196.574 55.37 195.647 56.2381C194.949 56.9043 193.858 57.4292 192.85 57.8283C191.718 58.2638 190.564 58.6393 189.392 58.9535C188.239 59.2678 187.139 59.5192 186.306 59.6858C185.956 59.7576 185.604 59.8194 185.25 59.8712C185.112 59.8901 184.972 59.9037 184.832 59.9121C184.622 59.931 184.41 59.9075 184.21 59.8429C183.915 59.757 183.651 59.5866 183.452 59.3526C183.281 59.1545 183.163 58.9169 183.107 58.6612C183.067 58.4797 183.054 58.2933 183.069 58.1081C183.078 57.9823 183.097 57.8378 183.116 57.7058C183.157 57.4292 183.22 57.0678 183.305 56.6561C183.471 55.8263 183.729 54.7326 184.043 53.5855C184.358 52.4415 184.741 51.2158 185.172 50.1441C185.574 49.1352 186.096 48.0478 186.762 47.3532C187.337 46.7386 188.03 46.2458 188.799 45.9041C189.569 45.5623 190.399 45.3786 191.24 45.3638Z" fill="#3CE5A7"/>
</g>
<defs>
<filter id="filter0_d_138_1023" x="0" y="38" width="408" height="212" filterUnits="userSpaceOnUse" color-interpolation-filters="sRGB">
<feFlood flood-opacity="0" result="BackgroundImageFix"/>
<feColorMatrix in="SourceAlpha" type="matrix" values="0 0 0 0 0 0 0 0 0 0 0 0 0 0 0 0 0 0 127 0" result="hardAlpha"/>
<feOffset dy="4"/>
<feGaussianBlur stdDeviation="2"/>
<feComposite in2="hardAlpha" operator="out"/>
<feColorMatrix type="matrix" values="0 0 0 0 0 0 0 0 0 0 0 0 0 0 0 0 0 0 0.13 0"/>
<feBlend mode="normal" in2="BackgroundImageFix" result="effect1_dropShadow_138_1023"/>
<feBlend mode="normal" in="SourceGraphic" in2="effect1_dropShadow_138_1023" result="shape"/>
</filter>
<clipPath id="clip0_138_1023">
<rect width="44" height="44" fill="white" transform="translate(183 16)"/>
</clipPath>
</defs>
</svg>
