<svg width="245" height="202" viewBox="0 0 245 202" fill="none" xmlns="http://www.w3.org/2000/svg">
<g clip-path="url(#clip0_21_190)">
<path d="M57.1579 36.9753C56.7015 37.4403 55.7315 38.5802 55.2384 38.8477C54.5007 39.2469 53.7508 38.8272 53.6408 38.0041C53.4696 36.7202 53.7834 35.1029 53.6367 33.8066C53.5267 32.8395 52.3203 33.2058 51.6071 33.1399C48.9662 32.893 48.1919 30.9259 48.0818 28.5597C47.8618 23.7901 48.1552 18.9136 48.2122 14.1523C48.5627 12.5185 49.9321 11.2305 51.5949 11.0864L71.1979 11C73.1664 11.1564 74.658 12.6667 74.8781 14.6379C74.6009 19.4733 75.253 24.7407 74.8821 29.5226C74.7436 31.3086 73.4353 32.93 71.6177 33.144C68.4429 33.5185 64.6079 32.8436 61.3923 33.1481C60.9399 33.1893 60.781 33.3086 60.4387 33.5885C59.3342 34.4938 58.1809 35.9342 57.1579 36.9753ZM64.3878 26.4115C64.5875 26 64.6242 25.5226 64.7831 25.1029C65.7409 22.5267 67.8438 21.6667 67.314 18.3374C66.1402 10.9547 54.8512 12.177 55.6296 20.0658C55.8171 21.9588 57.4391 23.2963 58.1238 24.9918C58.3194 25.4733 58.3153 26.0576 58.7066 26.4156H59.9618V22.9588C59.917 22.3045 58.2583 20.4815 59.3505 20.1481C59.6725 20.0494 59.8966 20.2181 60.0841 20.465C60.2716 20.7119 61.0011 22.2798 61.0011 22.5185V26.4156H61.9547V22.5185C61.9547 22.3909 62.3134 21.5844 62.399 21.3909C62.5416 21.0658 62.9165 20.1934 63.2344 20.1276C63.7969 20.0082 64.0251 20.4033 63.9313 20.9218C63.8376 21.4403 62.9981 22.5021 62.9981 22.9547V26.4115H64.3837H64.3878ZM64.2125 27.7243H58.7514C58.3276 32.2181 64.6609 32.2469 64.2125 27.7243Z" fill="url(#paint0_linear_21_190)"/>
</g>
<path d="M91.3745 18.8555L86.7339 33H82.9956L89.3355 15.9375H91.7144L91.3745 18.8555ZM95.23 33L90.5777 18.8555L90.2027 15.9375H92.605L98.98 33H95.23ZM95.0191 26.6484V29.4023H86.0073V26.6484H95.0191ZM108.559 30.2344V15H111.958V33H108.899L108.559 30.2344ZM100.544 26.8125V26.5664C100.544 25.5977 100.653 24.7188 100.872 23.9297C101.091 23.1328 101.411 22.4492 101.833 21.8789C102.255 21.3086 102.774 20.8672 103.391 20.5547C104.009 20.2422 104.712 20.0859 105.501 20.0859C106.243 20.0859 106.891 20.2422 107.446 20.5547C108.009 20.8672 108.485 21.3125 108.876 21.8906C109.274 22.4609 109.595 23.1367 109.837 23.918C110.079 24.6914 110.255 25.5391 110.364 26.4609V27C110.255 27.8828 110.079 28.7031 109.837 29.4609C109.595 30.2188 109.274 30.8828 108.876 31.4531C108.485 32.0156 108.009 32.4531 107.446 32.7656C106.884 33.0781 106.227 33.2344 105.477 33.2344C104.688 33.2344 103.985 33.0742 103.368 32.7539C102.759 32.4336 102.243 31.9844 101.821 31.4062C101.407 30.8281 101.091 30.1484 100.872 29.3672C100.653 28.5859 100.544 27.7344 100.544 26.8125ZM103.919 26.5664V26.8125C103.919 27.3359 103.958 27.8242 104.036 28.2773C104.122 28.7305 104.259 29.1328 104.446 29.4844C104.641 29.8281 104.891 30.0977 105.196 30.293C105.509 30.4805 105.887 30.5742 106.333 30.5742C106.911 30.5742 107.387 30.4453 107.762 30.1875C108.137 29.9219 108.423 29.5586 108.618 29.0977C108.821 28.6367 108.938 28.1055 108.97 27.5039V25.9688C108.946 25.4766 108.876 25.0352 108.759 24.6445C108.649 24.2461 108.485 23.9062 108.266 23.625C108.055 23.3438 107.79 23.125 107.47 22.9688C107.157 22.8125 106.786 22.7344 106.356 22.7344C105.919 22.7344 105.544 22.8359 105.231 23.0391C104.919 23.2344 104.665 23.5039 104.47 23.8477C104.282 24.1914 104.141 24.5977 104.048 25.0664C103.962 25.5273 103.919 26.0273 103.919 26.5664ZM119.627 30.5391L122.44 20.3203H125.967L121.69 33H119.557L119.627 30.5391ZM117.693 20.3203L120.518 30.5508L120.576 33H118.432L114.154 20.3203H117.693ZM131.761 20.3203V33H128.374V20.3203H131.761ZM128.163 17.0156C128.163 16.5234 128.335 16.1172 128.679 15.7969C129.023 15.4766 129.484 15.3164 130.062 15.3164C130.632 15.3164 131.089 15.4766 131.433 15.7969C131.785 16.1172 131.96 16.5234 131.96 17.0156C131.96 17.5078 131.785 17.9141 131.433 18.2344C131.089 18.5547 130.632 18.7148 130.062 18.7148C129.484 18.7148 129.023 18.5547 128.679 18.2344C128.335 17.9141 128.163 17.5078 128.163 17.0156ZM142.126 29.4961C142.126 29.2539 142.055 29.0352 141.915 28.8398C141.774 28.6445 141.512 28.4648 141.13 28.3008C140.755 28.1289 140.212 27.9727 139.501 27.832C138.86 27.6914 138.262 27.5156 137.708 27.3047C137.161 27.0859 136.684 26.8242 136.278 26.5195C135.88 26.2148 135.567 25.8555 135.34 25.4414C135.114 25.0195 135.001 24.5391 135.001 24C135.001 23.4688 135.114 22.9688 135.34 22.5C135.575 22.0312 135.907 21.6172 136.337 21.2578C136.774 20.8906 137.305 20.6055 137.93 20.4023C138.563 20.1914 139.274 20.0859 140.063 20.0859C141.165 20.0859 142.11 20.2617 142.899 20.6133C143.696 20.9648 144.305 21.4492 144.727 22.0664C145.157 22.6758 145.372 23.3711 145.372 24.1523H141.997C141.997 23.8242 141.926 23.5312 141.786 23.2734C141.653 23.0078 141.442 22.8008 141.153 22.6523C140.872 22.4961 140.505 22.418 140.051 22.418C139.676 22.418 139.352 22.4844 139.079 22.6172C138.805 22.7422 138.594 22.9141 138.446 23.1328C138.305 23.3438 138.235 23.5781 138.235 23.8359C138.235 24.0312 138.274 24.207 138.352 24.3633C138.438 24.5117 138.575 24.6484 138.762 24.7734C138.95 24.8984 139.192 25.0156 139.489 25.125C139.794 25.2266 140.169 25.3203 140.614 25.4062C141.528 25.5938 142.344 25.8398 143.063 26.1445C143.782 26.4414 144.352 26.8477 144.774 27.3633C145.196 27.8711 145.407 28.5391 145.407 29.3672C145.407 29.9297 145.282 30.4453 145.032 30.9141C144.782 31.3828 144.423 31.793 143.954 32.1445C143.485 32.4883 142.923 32.7578 142.266 32.9531C141.618 33.1406 140.887 33.2344 140.075 33.2344C138.895 33.2344 137.895 33.0234 137.075 32.6016C136.262 32.1797 135.645 31.6445 135.223 30.9961C134.809 30.3398 134.602 29.668 134.602 28.9805H137.801C137.817 29.4414 137.934 29.8125 138.153 30.0938C138.38 30.375 138.665 30.5781 139.008 30.7031C139.36 30.8281 139.739 30.8906 140.145 30.8906C140.583 30.8906 140.946 30.832 141.235 30.7148C141.524 30.5898 141.743 30.4258 141.891 30.2227C142.048 30.0117 142.126 29.7695 142.126 29.4961ZM147.779 26.7891V26.543C147.779 25.6133 147.912 24.7578 148.178 23.9766C148.443 23.1875 148.83 22.5039 149.338 21.9258C149.846 21.3477 150.471 20.8984 151.213 20.5781C151.955 20.25 152.807 20.0859 153.768 20.0859C154.728 20.0859 155.584 20.25 156.334 20.5781C157.084 20.8984 157.713 21.3477 158.221 21.9258C158.736 22.5039 159.127 23.1875 159.393 23.9766C159.658 24.7578 159.791 25.6133 159.791 26.543V26.7891C159.791 27.7109 159.658 28.5664 159.393 29.3555C159.127 30.1367 158.736 30.8203 158.221 31.4062C157.713 31.9844 157.088 32.4336 156.346 32.7539C155.603 33.0742 154.752 33.2344 153.791 33.2344C152.83 33.2344 151.975 33.0742 151.225 32.7539C150.482 32.4336 149.853 31.9844 149.338 31.4062C148.83 30.8203 148.443 30.1367 148.178 29.3555C147.912 28.5664 147.779 27.7109 147.779 26.7891ZM151.154 26.543V26.7891C151.154 27.3203 151.201 27.8164 151.295 28.2773C151.389 28.7383 151.537 29.1445 151.74 29.4961C151.951 29.8398 152.225 30.1094 152.56 30.3047C152.896 30.5 153.307 30.5977 153.791 30.5977C154.26 30.5977 154.662 30.5 154.998 30.3047C155.334 30.1094 155.603 29.8398 155.807 29.4961C156.01 29.1445 156.158 28.7383 156.252 28.2773C156.353 27.8164 156.404 27.3203 156.404 26.7891V26.543C156.404 26.0273 156.353 25.543 156.252 25.0898C156.158 24.6289 156.006 24.2227 155.795 23.8711C155.592 23.5117 155.322 23.2305 154.986 23.0273C154.65 22.8242 154.244 22.7227 153.768 22.7227C153.291 22.7227 152.885 22.8242 152.549 23.0273C152.221 23.2305 151.951 23.5117 151.74 23.8711C151.537 24.2227 151.389 24.6289 151.295 25.0898C151.201 25.543 151.154 26.0273 151.154 26.543ZM165.96 23.0859V33H162.585V20.3203H165.761L165.96 23.0859ZM169.78 20.2383L169.722 23.3672C169.558 23.3438 169.359 23.3242 169.124 23.3086C168.898 23.2852 168.691 23.2734 168.503 23.2734C168.027 23.2734 167.613 23.3359 167.261 23.4609C166.917 23.5781 166.628 23.7539 166.394 23.9883C166.167 24.2227 165.995 24.5078 165.878 24.8438C165.769 25.1797 165.706 25.5625 165.691 25.9922L165.011 25.7812C165.011 24.9609 165.093 24.207 165.257 23.5195C165.421 22.8242 165.659 22.2188 165.972 21.7031C166.292 21.1875 166.683 20.7891 167.144 20.5078C167.605 20.2266 168.132 20.0859 168.726 20.0859C168.913 20.0859 169.105 20.1016 169.3 20.1328C169.495 20.1562 169.655 20.1914 169.78 20.2383ZM176.067 31.5703L179.43 20.3203H183.051L177.954 34.9102C177.844 35.2305 177.696 35.5742 177.508 35.9414C177.329 36.3086 177.083 36.6562 176.77 36.9844C176.465 37.3203 176.079 37.5938 175.61 37.8047C175.149 38.0156 174.583 38.1211 173.911 38.1211C173.59 38.1211 173.329 38.1016 173.125 38.0625C172.922 38.0234 172.68 37.9688 172.399 37.8984V35.4258C172.485 35.4258 172.575 35.4258 172.668 35.4258C172.762 35.4336 172.852 35.4375 172.938 35.4375C173.383 35.4375 173.747 35.3867 174.028 35.2852C174.309 35.1836 174.536 35.0273 174.708 34.8164C174.879 34.6133 175.016 34.3477 175.118 34.0195L176.067 31.5703ZM174.661 20.3203L177.415 29.5078L177.895 33.082L175.598 33.3281L171.04 20.3203H174.661Z" fill="#114DFF"/>
<path d="M18.4655 62.5659V68.0312C18.2809 68.3047 17.987 68.6123 17.5837 68.9541C17.1804 69.2891 16.6232 69.583 15.9123 69.8359C15.2082 70.082 14.299 70.2051 13.1847 70.2051C12.2756 70.2051 11.4382 70.0479 10.6725 69.7334C9.91375 69.4121 9.25408 68.9473 8.69353 68.3389C8.13982 67.7236 7.70916 66.9785 7.40154 66.1035C7.10076 65.2217 6.95037 64.2236 6.95037 63.1094V61.9507C6.95037 60.8364 7.08025 59.8418 7.34002 58.9668C7.60662 58.0918 7.99627 57.3501 8.50896 56.7417C9.02166 56.1265 9.65057 55.6616 10.3957 55.3472C11.1408 55.0259 11.9953 54.8652 12.9592 54.8652C14.1008 54.8652 15.0544 55.0635 15.82 55.46C16.5925 55.8496 17.194 56.3896 17.6247 57.0801C18.0622 57.7705 18.3425 58.5566 18.4655 59.4385H16.4865C16.3976 58.8984 16.2199 58.4062 15.9533 57.9619C15.6935 57.5176 15.321 57.1621 14.8356 56.8955C14.3503 56.6221 13.7248 56.4854 12.9592 56.4854C12.2687 56.4854 11.6706 56.6118 11.1647 56.8647C10.6589 57.1177 10.2419 57.48 9.91375 57.9517C9.58562 58.4233 9.33953 58.9941 9.17547 59.6641C9.01824 60.334 8.93963 61.0894 8.93963 61.9302V63.1094C8.93963 63.9707 9.03875 64.7397 9.23699 65.4165C9.44207 66.0933 9.7326 66.6709 10.1086 67.1494C10.4846 67.6211 10.9323 67.98 11.4518 68.2261C11.9782 68.4722 12.5593 68.5952 13.195 68.5952C13.8991 68.5952 14.4699 68.5371 14.9074 68.4209C15.3449 68.2979 15.6867 68.1543 15.9328 67.9902C16.1789 67.8193 16.3669 67.6587 16.4968 67.5083V64.1655H13.0412V62.5659H18.4655ZM26.6937 70.2051C25.9212 70.2051 25.2205 70.0752 24.5916 69.8154C23.9695 69.5488 23.4329 69.1763 22.9817 68.6978C22.5374 68.2192 22.1956 67.6519 21.9563 66.9956C21.7171 66.3394 21.5975 65.6216 21.5975 64.8423V64.4116C21.5975 63.5093 21.7308 62.7061 21.9974 62.002C22.264 61.291 22.6263 60.6895 23.0843 60.1973C23.5423 59.7051 24.0618 59.3325 24.6429 59.0796C25.2239 58.8267 25.8255 58.7002 26.4476 58.7002C27.2405 58.7002 27.9241 58.8369 28.4983 59.1104C29.0794 59.3838 29.5545 59.7666 29.9236 60.2588C30.2928 60.7441 30.5662 61.3184 30.7439 61.9814C30.9217 62.6377 31.0105 63.3555 31.0105 64.1348V64.9858H22.7254V63.4375H29.1136V63.2939C29.0862 62.8018 28.9837 62.3232 28.806 61.8584C28.6351 61.3936 28.3616 61.0107 27.9856 60.71C27.6097 60.4092 27.097 60.2588 26.4476 60.2588C26.0169 60.2588 25.6204 60.3511 25.2581 60.5356C24.8958 60.7134 24.5848 60.98 24.325 61.3354C24.0652 61.6909 23.8636 62.125 23.72 62.6377C23.5765 63.1504 23.5047 63.7417 23.5047 64.4116V64.8423C23.5047 65.3687 23.5765 65.8643 23.72 66.3291C23.8704 66.7871 24.0857 67.1904 24.366 67.5391C24.6531 67.8877 24.9983 68.1611 25.4017 68.3594C25.8118 68.5576 26.2767 68.6567 26.7962 68.6567C27.4661 68.6567 28.0335 68.52 28.4983 68.2466C28.9632 67.9731 29.3699 67.6074 29.7186 67.1494L30.867 68.062C30.6277 68.4243 30.3235 68.7695 29.9544 69.0977C29.5853 69.4258 29.1307 69.6924 28.5906 69.8975C28.0574 70.1025 27.4251 70.2051 26.6937 70.2051ZM35.7524 61.2739V70H33.8554V58.9053H35.6498L35.7524 61.2739ZM35.3012 64.0322L34.5116 64.0015C34.5185 63.2427 34.6313 62.542 34.85 61.8994C35.0688 61.25 35.3764 60.686 35.7729 60.2075C36.1694 59.729 36.641 59.3599 37.1879 59.1001C37.7416 58.8335 38.3534 58.7002 39.0234 58.7002C39.5702 58.7002 40.0624 58.7754 40.4999 58.9258C40.9374 59.0693 41.31 59.3018 41.6176 59.623C41.9321 59.9443 42.1713 60.3613 42.3354 60.874C42.4994 61.3799 42.5815 61.9985 42.5815 62.73V70H40.6742V62.7095C40.6742 62.1284 40.5888 61.6636 40.4179 61.3149C40.247 60.9595 39.9975 60.7031 39.6694 60.5459C39.3412 60.3818 38.9379 60.2998 38.4594 60.2998C37.9877 60.2998 37.5571 60.3989 37.1674 60.5972C36.7846 60.7954 36.453 61.0688 36.1728 61.4175C35.8993 61.7661 35.684 62.166 35.5268 62.6172C35.3764 63.0615 35.3012 63.5332 35.3012 64.0322ZM50.6968 70.2051C49.9244 70.2051 49.2237 70.0752 48.5948 69.8154C47.9727 69.5488 47.4361 69.1763 46.9849 68.6978C46.5406 68.2192 46.1988 67.6519 45.9595 66.9956C45.7203 66.3394 45.6006 65.6216 45.6006 64.8423V64.4116C45.6006 63.5093 45.7339 62.7061 46.0005 62.002C46.2671 61.291 46.6294 60.6895 47.0874 60.1973C47.5454 59.7051 48.065 59.3325 48.646 59.0796C49.2271 58.8267 49.8287 58.7002 50.4507 58.7002C51.2437 58.7002 51.9273 58.8369 52.5015 59.1104C53.0826 59.3838 53.5577 59.7666 53.9268 60.2588C54.2959 60.7441 54.5694 61.3184 54.7471 61.9814C54.9248 62.6377 55.0137 63.3555 55.0137 64.1348V64.9858H46.7286V63.4375H53.1167V63.2939C53.0894 62.8018 52.9869 62.3232 52.8091 61.8584C52.6382 61.3936 52.3648 61.0107 51.9888 60.71C51.6128 60.4092 51.1001 60.2588 50.4507 60.2588C50.0201 60.2588 49.6236 60.3511 49.2613 60.5356C48.899 60.7134 48.5879 60.98 48.3282 61.3354C48.0684 61.6909 47.8667 62.125 47.7232 62.6377C47.5796 63.1504 47.5079 63.7417 47.5079 64.4116V64.8423C47.5079 65.3687 47.5796 65.8643 47.7232 66.3291C47.8736 66.7871 48.0889 67.1904 48.3692 67.5391C48.6563 67.8877 49.0015 68.1611 49.4048 68.3594C49.815 68.5576 50.2798 68.6567 50.7994 68.6567C51.4693 68.6567 52.0367 68.52 52.5015 68.2466C52.9663 67.9731 53.3731 67.6074 53.7217 67.1494L54.8702 68.062C54.6309 68.4243 54.3267 68.7695 53.9576 69.0977C53.5884 69.4258 53.1338 69.6924 52.5938 69.8975C52.0606 70.1025 51.4283 70.2051 50.6968 70.2051ZM59.7555 60.6484V70H57.8586V58.9053H59.7043L59.7555 60.6484ZM63.2213 58.8438L63.2111 60.6074C63.0539 60.5732 62.9035 60.5527 62.7599 60.5459C62.6232 60.5322 62.466 60.5254 62.2882 60.5254C61.8507 60.5254 61.4645 60.5938 61.1296 60.7305C60.7946 60.8672 60.5109 61.0586 60.2785 61.3047C60.0461 61.5508 59.8615 61.8447 59.7248 62.1865C59.5949 62.5215 59.5094 62.8906 59.4684 63.2939L58.9352 63.6016C58.9352 62.9316 59.0002 62.3027 59.13 61.7148C59.2668 61.127 59.4753 60.6074 59.7555 60.1562C60.0358 59.6982 60.3913 59.3428 60.8219 59.0898C61.2594 58.8301 61.779 58.7002 62.3805 58.7002C62.5172 58.7002 62.6745 58.7173 62.8522 58.7515C63.0299 58.7788 63.153 58.8096 63.2213 58.8438ZM71.7366 68.103V62.3916C71.7366 61.9541 71.6477 61.5747 71.47 61.2534C71.2991 60.9253 71.0393 60.6724 70.6907 60.4946C70.3421 60.3169 69.9114 60.228 69.3987 60.228C68.9202 60.228 68.4998 60.3101 68.1375 60.4741C67.782 60.6382 67.5017 60.8535 67.2967 61.1201C67.0984 61.3867 66.9993 61.6738 66.9993 61.9814H65.1023C65.1023 61.585 65.2049 61.1919 65.4099 60.8022C65.615 60.4126 65.909 60.0605 66.2918 59.7461C66.6814 59.4248 67.1463 59.1719 67.6863 58.9873C68.2332 58.7959 68.8416 58.7002 69.5115 58.7002C70.3181 58.7002 71.0291 58.8369 71.6443 59.1104C72.2664 59.3838 72.7517 59.7974 73.1004 60.3511C73.4558 60.8979 73.6336 61.585 73.6336 62.4121V67.5801C73.6336 67.9492 73.6643 68.3423 73.7259 68.7593C73.7942 69.1763 73.8933 69.5352 74.0232 69.8359V70H72.0442C71.9485 69.7812 71.8733 69.4907 71.8186 69.1284C71.7639 68.7593 71.7366 68.4175 71.7366 68.103ZM72.0647 63.2734L72.0852 64.6064H70.1678C69.6277 64.6064 69.1458 64.6509 68.722 64.7397C68.2981 64.8218 67.9427 64.9482 67.6555 65.1191C67.3684 65.29 67.1497 65.5054 66.9993 65.7651C66.8489 66.0181 66.7737 66.3154 66.7737 66.6572C66.7737 67.0059 66.8523 67.3237 67.0096 67.6108C67.1668 67.8979 67.4026 68.127 67.7171 68.2979C68.0384 68.4619 68.4314 68.5439 68.8963 68.5439C69.4773 68.5439 69.99 68.4209 70.4344 68.1748C70.8787 67.9287 71.2307 67.6279 71.4905 67.2725C71.7571 66.917 71.9007 66.5718 71.9212 66.2368L72.7312 67.1494C72.6834 67.4365 72.5535 67.7544 72.3416 68.103C72.1297 68.4517 71.846 68.7866 71.4905 69.1079C71.1419 69.4224 70.7249 69.6855 70.2395 69.8975C69.761 70.1025 69.221 70.2051 68.6194 70.2051C67.8675 70.2051 67.2078 70.0581 66.6404 69.7642C66.0799 69.4702 65.6424 69.0771 65.3279 68.585C65.0203 68.0859 64.8665 67.5288 64.8665 66.9136C64.8665 66.3188 64.9827 65.7959 65.2151 65.3447C65.4475 64.8867 65.7825 64.5073 66.22 64.2065C66.6575 63.8989 67.1839 63.6665 67.7991 63.5093C68.4143 63.3521 69.1013 63.2734 69.8601 63.2734H72.0647ZM81.8925 58.9053V60.3613H75.8939V58.9053H81.8925ZM77.9242 56.2085H79.8212V67.252C79.8212 67.6279 79.8793 67.9116 79.9955 68.103C80.1117 68.2944 80.2621 68.4209 80.4467 68.4824C80.6312 68.5439 80.8295 68.5747 81.0414 68.5747C81.1986 68.5747 81.3627 68.561 81.5336 68.5337C81.7113 68.4995 81.8446 68.4722 81.9335 68.4517L81.9437 70C81.7934 70.0479 81.5951 70.0923 81.349 70.1333C81.1098 70.1812 80.8192 70.2051 80.4774 70.2051C80.0126 70.2051 79.5854 70.1128 79.1957 69.9282C78.8061 69.7437 78.495 69.436 78.2626 69.0054C78.037 68.5679 77.9242 67.98 77.9242 67.2417V56.2085ZM89.3516 70.2051C88.5791 70.2051 87.8784 70.0752 87.2495 69.8154C86.6275 69.5488 86.0908 69.1763 85.6397 68.6978C85.1953 68.2192 84.8535 67.6519 84.6143 66.9956C84.375 66.3394 84.2554 65.6216 84.2554 64.8423V64.4116C84.2554 63.5093 84.3887 62.7061 84.6553 62.002C84.9219 61.291 85.2842 60.6895 85.7422 60.1973C86.2002 59.7051 86.7197 59.3325 87.3008 59.0796C87.8819 58.8267 88.4834 58.7002 89.1055 58.7002C89.8985 58.7002 90.5821 58.8369 91.1563 59.1104C91.7373 59.3838 92.2124 59.7666 92.5816 60.2588C92.9507 60.7441 93.2241 61.3184 93.4019 61.9814C93.5796 62.6377 93.6685 63.3555 93.6685 64.1348V64.9858H85.3833V63.4375H91.7715V63.2939C91.7442 62.8018 91.6416 62.3232 91.4639 61.8584C91.293 61.3936 91.0196 61.0107 90.6436 60.71C90.2676 60.4092 89.7549 60.2588 89.1055 60.2588C88.6748 60.2588 88.2783 60.3511 87.916 60.5356C87.5537 60.7134 87.2427 60.98 86.9829 61.3354C86.7232 61.6909 86.5215 62.125 86.378 62.6377C86.2344 63.1504 86.1626 63.7417 86.1626 64.4116V64.8423C86.1626 65.3687 86.2344 65.8643 86.378 66.3291C86.5283 66.7871 86.7437 67.1904 87.0239 67.5391C87.3111 67.8877 87.6563 68.1611 88.0596 68.3594C88.4697 68.5576 88.9346 68.6567 89.4541 68.6567C90.124 68.6567 90.6914 68.52 91.1563 68.2466C91.6211 67.9731 92.0279 67.6074 92.3765 67.1494L93.5249 68.062C93.2857 68.4243 92.9815 68.7695 92.6123 69.0977C92.2432 69.4258 91.7886 69.6924 91.2486 69.8975C90.7154 70.1025 90.083 70.2051 89.3516 70.2051ZM102.973 67.0571C102.973 66.7837 102.912 66.5308 102.789 66.2983C102.673 66.0591 102.43 65.8438 102.061 65.6523C101.698 65.4541 101.152 65.2832 100.42 65.1396C99.8048 65.0098 99.2477 64.856 98.7487 64.6782C98.2565 64.5005 97.8361 64.2852 97.4874 64.0322C97.1456 63.7793 96.8825 63.4819 96.6979 63.1401C96.5133 62.7983 96.421 62.3984 96.421 61.9404C96.421 61.5029 96.5167 61.0894 96.7081 60.6997C96.9064 60.3101 97.1832 59.9648 97.5387 59.6641C97.901 59.3633 98.3351 59.1274 98.841 58.9565C99.3468 58.7856 99.9108 58.7002 100.533 58.7002C101.422 58.7002 102.18 58.8574 102.809 59.1719C103.438 59.4863 103.92 59.9067 104.255 60.4331C104.59 60.9526 104.757 61.5303 104.757 62.166H102.86C102.86 61.8584 102.768 61.561 102.584 61.2739C102.406 60.98 102.143 60.7373 101.794 60.5459C101.452 60.3545 101.032 60.2588 100.533 60.2588C100.006 60.2588 99.5792 60.3408 99.2511 60.5049C98.9298 60.6621 98.694 60.8638 98.5436 61.1099C98.4 61.356 98.3283 61.6157 98.3283 61.8892C98.3283 62.0942 98.3624 62.2788 98.4308 62.4429C98.506 62.6001 98.6359 62.7471 98.8204 62.8838C99.005 63.0137 99.2648 63.1367 99.5997 63.2529C99.9347 63.3691 100.362 63.4854 100.881 63.6016C101.791 63.8066 102.539 64.0527 103.127 64.3398C103.715 64.627 104.152 64.979 104.44 65.396C104.727 65.813 104.87 66.3188 104.87 66.9136C104.87 67.3989 104.768 67.8433 104.563 68.2466C104.364 68.6499 104.074 68.9985 103.691 69.2925C103.315 69.5796 102.864 69.8052 102.338 69.9692C101.818 70.1265 101.234 70.2051 100.584 70.2051C99.6066 70.2051 98.7794 70.0308 98.1027 69.6821C97.4259 69.3335 96.9132 68.8823 96.5646 68.3286C96.216 67.7749 96.0416 67.1904 96.0416 66.5752H97.9489C97.9762 67.0947 98.1266 67.5083 98.4 67.8159C98.6735 68.1167 99.0084 68.332 99.4049 68.4619C99.8014 68.585 100.194 68.6465 100.584 68.6465C101.104 68.6465 101.538 68.5781 101.886 68.4414C102.242 68.3047 102.512 68.1167 102.696 67.8774C102.881 67.6382 102.973 67.3647 102.973 67.0571ZM115.728 61.0381V74.2656H113.821V58.9053H115.564L115.728 61.0381ZM123.203 64.3604V64.5757C123.203 65.3823 123.107 66.1309 122.916 66.8213C122.724 67.5049 122.444 68.0996 122.075 68.6055C121.713 69.1113 121.265 69.5044 120.732 69.7847C120.199 70.0649 119.587 70.2051 118.896 70.2051C118.192 70.2051 117.57 70.0889 117.03 69.8564C116.49 69.624 116.032 69.2856 115.656 68.8413C115.28 68.397 114.979 67.8638 114.754 67.2417C114.535 66.6196 114.385 65.9189 114.303 65.1396V63.9912C114.385 63.1709 114.538 62.436 114.764 61.7866C114.99 61.1372 115.287 60.5835 115.656 60.1255C116.032 59.6606 116.487 59.3086 117.02 59.0693C117.553 58.8232 118.168 58.7002 118.866 58.7002C119.563 58.7002 120.182 58.8369 120.722 59.1104C121.262 59.377 121.716 59.7598 122.085 60.2588C122.454 60.7578 122.731 61.356 122.916 62.0532C123.107 62.7437 123.203 63.5127 123.203 64.3604ZM121.296 64.5757V64.3604C121.296 63.8066 121.238 63.2871 121.121 62.8018C121.005 62.3096 120.824 61.8789 120.578 61.5098C120.339 61.1338 120.031 60.8398 119.655 60.6279C119.279 60.4092 118.831 60.2998 118.312 60.2998C117.833 60.2998 117.416 60.3818 117.061 60.5459C116.712 60.71 116.415 60.9321 116.169 61.2124C115.923 61.4858 115.721 61.8003 115.564 62.1558C115.413 62.5044 115.301 62.8667 115.225 63.2427V65.8984C115.362 66.377 115.554 66.8281 115.8 67.252C116.046 67.6689 116.374 68.0073 116.784 68.2671C117.194 68.52 117.71 68.6465 118.332 68.6465C118.845 68.6465 119.286 68.5405 119.655 68.3286C120.031 68.1099 120.339 67.8125 120.578 67.4365C120.824 67.0605 121.005 66.6299 121.121 66.1445C121.238 65.6523 121.296 65.1294 121.296 64.5757ZM130.857 70.2051C130.084 70.2051 129.384 70.0752 128.755 69.8154C128.133 69.5488 127.596 69.1763 127.145 68.6978C126.701 68.2192 126.359 67.6519 126.12 66.9956C125.88 66.3394 125.761 65.6216 125.761 64.8423V64.4116C125.761 63.5093 125.894 62.7061 126.161 62.002C126.427 61.291 126.79 60.6895 127.248 60.1973C127.706 59.7051 128.225 59.3325 128.806 59.0796C129.387 58.8267 129.989 58.7002 130.611 58.7002C131.404 58.7002 132.087 58.8369 132.662 59.1104C133.243 59.3838 133.718 59.7666 134.087 60.2588C134.456 60.7441 134.729 61.3184 134.907 61.9814C135.085 62.6377 135.174 63.3555 135.174 64.1348V64.9858H126.889V63.4375H133.277V63.2939C133.25 62.8018 133.147 62.3232 132.969 61.8584C132.798 61.3936 132.525 61.0107 132.149 60.71C131.773 60.4092 131.26 60.2588 130.611 60.2588C130.18 60.2588 129.784 60.3511 129.421 60.5356C129.059 60.7134 128.748 60.98 128.488 61.3354C128.229 61.6909 128.027 62.125 127.883 62.6377C127.74 63.1504 127.668 63.7417 127.668 64.4116V64.8423C127.668 65.3687 127.74 65.8643 127.883 66.3291C128.034 66.7871 128.249 67.1904 128.529 67.5391C128.816 67.8877 129.162 68.1611 129.565 68.3594C129.975 68.5576 130.44 68.6567 130.959 68.6567C131.629 68.6567 132.197 68.52 132.662 68.2466C133.126 67.9731 133.533 67.6074 133.882 67.1494L135.03 68.062C134.791 68.4243 134.487 68.7695 134.118 69.0977C133.749 69.4258 133.294 69.6924 132.754 69.8975C132.221 70.1025 131.588 70.2051 130.857 70.2051ZM139.916 60.6484V70H138.019V58.9053H139.864L139.916 60.6484ZM143.381 58.8438L143.371 60.6074C143.214 60.5732 143.064 60.5527 142.92 60.5459C142.783 60.5322 142.626 60.5254 142.448 60.5254C142.011 60.5254 141.625 60.5938 141.29 60.7305C140.955 60.8672 140.671 61.0586 140.439 61.3047C140.206 61.5508 140.022 61.8447 139.885 62.1865C139.755 62.5215 139.67 62.8906 139.629 63.2939L139.095 63.6016C139.095 62.9316 139.16 62.3027 139.29 61.7148C139.427 61.127 139.635 60.6074 139.916 60.1562C140.196 59.6982 140.551 59.3428 140.982 59.0898C141.42 58.8301 141.939 58.7002 142.541 58.7002C142.677 58.7002 142.835 58.7173 143.012 58.7515C143.19 58.7788 143.313 58.8096 143.381 58.8438ZM152.225 67.0571C152.225 66.7837 152.163 66.5308 152.04 66.2983C151.924 66.0591 151.681 65.8438 151.312 65.6523C150.95 65.4541 150.403 65.2832 149.672 65.1396C149.056 65.0098 148.499 64.856 148 64.6782C147.508 64.5005 147.088 64.2852 146.739 64.0322C146.397 63.7793 146.134 63.4819 145.949 63.1401C145.765 62.7983 145.673 62.3984 145.673 61.9404C145.673 61.5029 145.768 61.0894 145.96 60.6997C146.158 60.3101 146.435 59.9648 146.79 59.6641C147.153 59.3633 147.587 59.1274 148.093 58.9565C148.598 58.7856 149.162 58.7002 149.784 58.7002C150.673 58.7002 151.432 58.8574 152.061 59.1719C152.69 59.4863 153.172 59.9067 153.507 60.4331C153.842 60.9526 154.009 61.5303 154.009 62.166H152.112C152.112 61.8584 152.02 61.561 151.835 61.2739C151.657 60.98 151.394 60.7373 151.046 60.5459C150.704 60.3545 150.283 60.2588 149.784 60.2588C149.258 60.2588 148.831 60.3408 148.503 60.5049C148.181 60.6621 147.946 60.8638 147.795 61.1099C147.652 61.356 147.58 61.6157 147.58 61.8892C147.58 62.0942 147.614 62.2788 147.682 62.4429C147.758 62.6001 147.887 62.7471 148.072 62.8838C148.257 63.0137 148.516 63.1367 148.851 63.2529C149.186 63.3691 149.614 63.4854 150.133 63.6016C151.042 63.8066 151.791 64.0527 152.379 64.3398C152.967 64.627 153.404 64.979 153.691 65.396C153.978 65.813 154.122 66.3188 154.122 66.9136C154.122 67.3989 154.019 67.8433 153.814 68.2466C153.616 68.6499 153.325 68.9985 152.943 69.2925C152.567 69.5796 152.115 69.8052 151.589 69.9692C151.07 70.1265 150.485 70.2051 149.836 70.2051C148.858 70.2051 148.031 70.0308 147.354 69.6821C146.677 69.3335 146.165 68.8823 145.816 68.3286C145.468 67.7749 145.293 67.1904 145.293 66.5752H147.2C147.228 67.0947 147.378 67.5083 147.652 67.8159C147.925 68.1167 148.26 68.332 148.656 68.4619C149.053 68.585 149.446 68.6465 149.836 68.6465C150.355 68.6465 150.789 68.5781 151.138 68.4414C151.493 68.3047 151.763 68.1167 151.948 67.8774C152.133 67.6382 152.225 67.3647 152.225 67.0571ZM156.741 64.5757V64.3398C156.741 63.54 156.857 62.7983 157.09 62.1147C157.322 61.4243 157.657 60.8262 158.095 60.3203C158.532 59.8076 159.062 59.4111 159.684 59.1309C160.306 58.8438 161.003 58.7002 161.776 58.7002C162.555 58.7002 163.256 58.8438 163.878 59.1309C164.507 59.4111 165.04 59.8076 165.477 60.3203C165.922 60.8262 166.26 61.4243 166.493 62.1147C166.725 62.7983 166.841 63.54 166.841 64.3398V64.5757C166.841 65.3755 166.725 66.1172 166.493 66.8008C166.26 67.4844 165.922 68.0825 165.477 68.5952C165.04 69.1011 164.51 69.4976 163.888 69.7847C163.273 70.0649 162.576 70.2051 161.796 70.2051C161.017 70.2051 160.316 70.0649 159.694 69.7847C159.072 69.4976 158.539 69.1011 158.095 68.5952C157.657 68.0825 157.322 67.4844 157.09 66.8008C156.857 66.1172 156.741 65.3755 156.741 64.5757ZM158.638 64.3398V64.5757C158.638 65.1294 158.703 65.6523 158.833 66.1445C158.963 66.6299 159.158 67.0605 159.417 67.4365C159.684 67.8125 160.016 68.1099 160.412 68.3286C160.808 68.5405 161.27 68.6465 161.796 68.6465C162.316 68.6465 162.77 68.5405 163.16 68.3286C163.557 68.1099 163.885 67.8125 164.144 67.4365C164.404 67.0605 164.599 66.6299 164.729 66.1445C164.866 65.6523 164.934 65.1294 164.934 64.5757V64.3398C164.934 63.793 164.866 63.2769 164.729 62.7915C164.599 62.2993 164.401 61.8652 164.134 61.4893C163.874 61.1064 163.546 60.8057 163.15 60.5869C162.76 60.3682 162.302 60.2588 161.776 60.2588C161.256 60.2588 160.798 60.3682 160.402 60.5869C160.012 60.8057 159.684 61.1064 159.417 61.4893C159.158 61.8652 158.963 62.2993 158.833 62.7915C158.703 63.2769 158.638 63.793 158.638 64.3398ZM171.747 61.2739V70H169.85V58.9053H171.645L171.747 61.2739ZM171.296 64.0322L170.506 64.0015C170.513 63.2427 170.626 62.542 170.845 61.8994C171.063 61.25 171.371 60.686 171.768 60.2075C172.164 59.729 172.636 59.3599 173.183 59.1001C173.736 58.8335 174.348 58.7002 175.018 58.7002C175.565 58.7002 176.057 58.7754 176.495 58.9258C176.932 59.0693 177.305 59.3018 177.612 59.623C177.927 59.9443 178.166 60.3613 178.33 60.874C178.494 61.3799 178.576 61.9985 178.576 62.73V70H176.669V62.7095C176.669 62.1284 176.583 61.6636 176.413 61.3149C176.242 60.9595 175.992 60.7031 175.664 60.5459C175.336 60.3818 174.933 60.2998 174.454 60.2998C173.982 60.2998 173.552 60.3989 173.162 60.5972C172.779 60.7954 172.448 61.0688 172.167 61.4175C171.894 61.7661 171.679 62.166 171.521 62.6172C171.371 63.0615 171.296 63.5332 171.296 64.0322ZM188.629 68.103V62.3916C188.629 61.9541 188.541 61.5747 188.363 61.2534C188.192 60.9253 187.932 60.6724 187.584 60.4946C187.235 60.3169 186.804 60.228 186.292 60.228C185.813 60.228 185.393 60.3101 185.03 60.4741C184.675 60.6382 184.395 60.8535 184.19 61.1201C183.991 61.3867 183.892 61.6738 183.892 61.9814H181.995C181.995 61.585 182.098 61.1919 182.303 60.8022C182.508 60.4126 182.802 60.0605 183.185 59.7461C183.574 59.4248 184.039 59.1719 184.579 58.9873C185.126 58.7959 185.734 58.7002 186.404 58.7002C187.211 58.7002 187.922 58.8369 188.537 59.1104C189.159 59.3838 189.645 59.7974 189.993 60.3511C190.349 60.8979 190.526 61.585 190.526 62.4121V67.5801C190.526 67.9492 190.557 68.3423 190.619 68.7593C190.687 69.1763 190.786 69.5352 190.916 69.8359V70H188.937C188.841 69.7812 188.766 69.4907 188.712 69.1284C188.657 68.7593 188.629 68.4175 188.629 68.103ZM188.958 63.2734L188.978 64.6064H187.061C186.521 64.6064 186.039 64.6509 185.615 64.7397C185.191 64.8218 184.836 64.9482 184.548 65.1191C184.261 65.29 184.043 65.5054 183.892 65.7651C183.742 66.0181 183.667 66.3154 183.667 66.6572C183.667 67.0059 183.745 67.3237 183.902 67.6108C184.06 67.8979 184.296 68.127 184.61 68.2979C184.931 68.4619 185.324 68.5439 185.789 68.5439C186.37 68.5439 186.883 68.4209 187.327 68.1748C187.772 67.9287 188.124 67.6279 188.383 67.2725C188.65 66.917 188.794 66.5718 188.814 66.2368L189.624 67.1494C189.576 67.4365 189.446 67.7544 189.234 68.103C189.023 68.4517 188.739 68.7866 188.383 69.1079C188.035 69.4224 187.618 69.6855 187.132 69.8975C186.654 70.1025 186.114 70.2051 185.512 70.2051C184.76 70.2051 184.101 70.0581 183.533 69.7642C182.973 69.4702 182.535 69.0771 182.221 68.585C181.913 68.0859 181.759 67.5288 181.759 66.9136C181.759 66.3188 181.876 65.7959 182.108 65.3447C182.34 64.8867 182.675 64.5073 183.113 64.2065C183.55 63.8989 184.077 63.6665 184.692 63.5093C185.307 63.3521 185.994 63.2734 186.753 63.2734H188.958ZM196.201 54.25V70H194.294V54.25H196.201ZM201.938 58.9053V70H200.031V58.9053H201.938ZM199.887 55.9624C199.887 55.6548 199.979 55.395 200.164 55.1831C200.355 54.9712 200.636 54.8652 201.005 54.8652C201.367 54.8652 201.644 54.9712 201.835 55.1831C202.034 55.395 202.133 55.6548 202.133 55.9624C202.133 56.2563 202.034 56.5093 201.835 56.7212C201.644 56.9263 201.367 57.0288 201.005 57.0288C200.636 57.0288 200.355 56.9263 200.164 56.7212C199.979 56.5093 199.887 56.2563 199.887 55.9624ZM213.878 68.4414V70H205.808V68.4414H213.878ZM213.581 60.2485L206.239 70H205.08V68.6055L212.371 58.9053H213.581V60.2485ZM212.74 58.9053V60.4741H205.162V58.9053H212.74ZM221.101 70.2051C220.329 70.2051 219.628 70.0752 218.999 69.8154C218.377 69.5488 217.84 69.1763 217.389 68.6978C216.945 68.2192 216.603 67.6519 216.364 66.9956C216.125 66.3394 216.005 65.6216 216.005 64.8423V64.4116C216.005 63.5093 216.138 62.7061 216.405 62.002C216.671 61.291 217.034 60.6895 217.492 60.1973C217.95 59.7051 218.469 59.3325 219.05 59.0796C219.631 58.8267 220.233 58.7002 220.855 58.7002C221.648 58.7002 222.332 58.8369 222.906 59.1104C223.487 59.3838 223.962 59.7666 224.331 60.2588C224.7 60.7441 224.974 61.3184 225.151 61.9814C225.329 62.6377 225.418 63.3555 225.418 64.1348V64.9858H217.133V63.4375H223.521V63.2939C223.494 62.8018 223.391 62.3232 223.213 61.8584C223.043 61.3936 222.769 61.0107 222.393 60.71C222.017 60.4092 221.504 60.2588 220.855 60.2588C220.424 60.2588 220.028 60.3511 219.666 60.5356C219.303 60.7134 218.992 60.98 218.733 61.3354C218.473 61.6909 218.271 62.125 218.128 62.6377C217.984 63.1504 217.912 63.7417 217.912 64.4116V64.8423C217.912 65.3687 217.984 65.8643 218.128 66.3291C218.278 66.7871 218.493 67.1904 218.774 67.5391C219.061 67.8877 219.406 68.1611 219.809 68.3594C220.219 68.5576 220.684 68.6567 221.204 68.6567C221.874 68.6567 222.441 68.52 222.906 68.2466C223.371 67.9731 223.777 67.6074 224.126 67.1494L225.275 68.062C225.035 68.4243 224.731 68.7695 224.362 69.0977C223.993 69.4258 223.538 69.6924 222.998 69.8975C222.465 70.1025 221.833 70.2051 221.101 70.2051ZM235.256 67.8467V54.25H237.163V70H235.42L235.256 67.8467ZM227.791 64.5757V64.3604C227.791 63.5127 227.894 62.7437 228.099 62.0532C228.311 61.356 228.608 60.7578 228.991 60.2588C229.381 59.7598 229.842 59.377 230.375 59.1104C230.915 58.8369 231.517 58.7002 232.18 58.7002C232.877 58.7002 233.486 58.8232 234.005 59.0693C234.531 59.3086 234.976 59.6606 235.338 60.1255C235.707 60.5835 235.998 61.1372 236.21 61.7866C236.422 62.436 236.569 63.1709 236.651 63.9912V64.9346C236.575 65.748 236.428 66.4795 236.21 67.1289C235.998 67.7783 235.707 68.332 235.338 68.79C234.976 69.248 234.531 69.6001 234.005 69.8462C233.479 70.0854 232.863 70.2051 232.159 70.2051C231.51 70.2051 230.915 70.0649 230.375 69.7847C229.842 69.5044 229.381 69.1113 228.991 68.6055C228.608 68.0996 228.311 67.5049 228.099 66.8213C227.894 66.1309 227.791 65.3823 227.791 64.5757ZM229.698 64.3604V64.5757C229.698 65.1294 229.753 65.6489 229.862 66.1343C229.979 66.6196 230.156 67.0469 230.396 67.416C230.635 67.7852 230.939 68.0757 231.308 68.2876C231.677 68.4927 232.118 68.5952 232.631 68.5952C233.26 68.5952 233.776 68.4619 234.179 68.1953C234.59 67.9287 234.918 67.5767 235.164 67.1392C235.41 66.7017 235.601 66.2266 235.738 65.7139V63.2427C235.656 62.8667 235.536 62.5044 235.379 62.1558C235.229 61.8003 235.03 61.4858 234.784 61.2124C234.545 60.9321 234.248 60.71 233.892 60.5459C233.544 60.3818 233.13 60.2998 232.652 60.2998C232.132 60.2998 231.684 60.4092 231.308 60.6279C230.939 60.8398 230.635 61.1338 230.396 61.5098C230.156 61.8789 229.979 62.3096 229.862 62.8018C229.753 63.2871 229.698 63.8066 229.698 64.3604ZM34.0326 90.0571C34.0326 89.7837 33.9711 89.5308 33.848 89.2983C33.7318 89.0591 33.4891 88.8438 33.12 88.6523C32.7577 88.4541 32.2108 88.2832 31.4794 88.1396C30.8641 88.0098 30.307 87.856 29.808 87.6782C29.3158 87.5005 28.8954 87.2852 28.5467 87.0322C28.2049 86.7793 27.9418 86.4819 27.7572 86.1401C27.5726 85.7983 27.4803 85.3984 27.4803 84.9404C27.4803 84.5029 27.576 84.0894 27.7674 83.6997C27.9657 83.3101 28.2425 82.9648 28.598 82.6641C28.9603 82.3633 29.3944 82.1274 29.9003 81.9565C30.4061 81.7856 30.9701 81.7002 31.5921 81.7002C32.4808 81.7002 33.2396 81.8574 33.8685 82.1719C34.4974 82.4863 34.9794 82.9067 35.3143 83.4331C35.6493 83.9526 35.8168 84.5303 35.8168 85.166H33.9198C33.9198 84.8584 33.8275 84.561 33.6429 84.2739C33.4652 83.98 33.202 83.7373 32.8534 83.5459C32.5116 83.3545 32.0912 83.2588 31.5921 83.2588C31.0658 83.2588 30.6385 83.3408 30.3104 83.5049C29.9891 83.6621 29.7533 83.8638 29.6029 84.1099C29.4593 84.356 29.3876 84.6157 29.3876 84.8892C29.3876 85.0942 29.4217 85.2788 29.4901 85.4429C29.5653 85.6001 29.6952 85.7471 29.8797 85.8838C30.0643 86.0137 30.3241 86.1367 30.659 86.2529C30.994 86.3691 31.4212 86.4854 31.9408 86.6016C32.85 86.8066 33.5985 87.0527 34.1864 87.3398C34.7743 87.627 35.2118 87.979 35.4989 88.396C35.786 88.813 35.9296 89.3188 35.9296 89.9136C35.9296 90.3989 35.827 90.8433 35.6219 91.2466C35.4237 91.6499 35.1332 91.9985 34.7504 92.2925C34.3744 92.5796 33.9232 92.8052 33.3968 92.9692C32.8773 93.1265 32.2928 93.2051 31.6434 93.2051C30.6659 93.2051 29.8387 93.0308 29.162 92.6821C28.4852 92.3335 27.9725 91.8823 27.6239 91.3286C27.2753 90.7749 27.1009 90.1904 27.1009 89.5752H29.0082C29.0355 90.0947 29.1859 90.5083 29.4593 90.8159C29.7328 91.1167 30.0677 91.332 30.4642 91.4619C30.8607 91.585 31.2538 91.6465 31.6434 91.6465C32.1629 91.6465 32.597 91.5781 32.9457 91.4414C33.3011 91.3047 33.5712 91.1167 33.7557 90.8774C33.9403 90.6382 34.0326 90.3647 34.0326 90.0571ZM43.6963 81.9053V83.3613H37.6977V81.9053H43.6963ZM39.728 79.2085H41.625V90.252C41.625 90.6279 41.6831 90.9116 41.7993 91.103C41.9155 91.2944 42.0659 91.4209 42.2505 91.4824C42.435 91.5439 42.6333 91.5747 42.8452 91.5747C43.0024 91.5747 43.1665 91.561 43.3374 91.5337C43.5151 91.4995 43.6484 91.4722 43.7373 91.4517L43.7475 93C43.5971 93.0479 43.3989 93.0923 43.1528 93.1333C42.9136 93.1812 42.623 93.2051 42.2812 93.2051C41.8164 93.2051 41.3891 93.1128 40.9995 92.9282C40.6098 92.7437 40.2988 92.436 40.0664 92.0054C39.8408 91.5679 39.728 90.98 39.728 90.2417V79.2085ZM48.4483 83.6484V93H46.5514V81.9053H48.3971L48.4483 83.6484ZM51.9142 81.8438L51.9039 83.6074C51.7467 83.5732 51.5963 83.5527 51.4527 83.5459C51.316 83.5322 51.1588 83.5254 50.9811 83.5254C50.5436 83.5254 50.1573 83.5938 49.8224 83.7305C49.4874 83.8672 49.2037 84.0586 48.9713 84.3047C48.7389 84.5508 48.5543 84.8447 48.4176 85.1865C48.2877 85.5215 48.2022 85.8906 48.1612 86.2939L47.628 86.6016C47.628 85.9316 47.693 85.3027 47.8229 84.7148C47.9596 84.127 48.1681 83.6074 48.4483 83.1562C48.7286 82.6982 49.0841 82.3428 49.5147 82.0898C49.9522 81.8301 50.4718 81.7002 51.0733 81.7002C51.2101 81.7002 51.3673 81.7173 51.545 81.7515C51.7228 81.7788 51.8458 81.8096 51.9142 81.8438ZM60.4294 91.103V85.3916C60.4294 84.9541 60.3405 84.5747 60.1628 84.2534C59.9919 83.9253 59.7321 83.6724 59.3835 83.4946C59.0349 83.3169 58.6042 83.228 58.0915 83.228C57.613 83.228 57.1926 83.3101 56.8303 83.4741C56.4748 83.6382 56.1945 83.8535 55.9895 84.1201C55.7912 84.3867 55.6921 84.6738 55.6921 84.9814H53.7951C53.7951 84.585 53.8977 84.1919 54.1028 83.8022C54.3078 83.4126 54.6018 83.0605 54.9846 82.7461C55.3742 82.4248 55.8391 82.1719 56.3791 81.9873C56.926 81.7959 57.5344 81.7002 58.2043 81.7002C59.011 81.7002 59.7219 81.8369 60.3371 82.1104C60.9592 82.3838 61.4445 82.7974 61.7932 83.3511C62.1487 83.8979 62.3264 84.585 62.3264 85.4121V90.5801C62.3264 90.9492 62.3571 91.3423 62.4187 91.7593C62.487 92.1763 62.5862 92.5352 62.716 92.8359V93H60.737C60.6413 92.7812 60.5661 92.4907 60.5114 92.1284C60.4568 91.7593 60.4294 91.4175 60.4294 91.103ZM60.7575 86.2734L60.778 87.6064H58.8606C58.3205 87.6064 57.8386 87.6509 57.4148 87.7397C56.9909 87.8218 56.6355 87.9482 56.3484 88.1191C56.0612 88.29 55.8425 88.5054 55.6921 88.7651C55.5417 89.0181 55.4665 89.3154 55.4665 89.6572C55.4665 90.0059 55.5451 90.3237 55.7024 90.6108C55.8596 90.8979 56.0954 91.127 56.4099 91.2979C56.7312 91.4619 57.1242 91.5439 57.5891 91.5439C58.1701 91.5439 58.6828 91.4209 59.1272 91.1748C59.5715 90.9287 59.9236 90.6279 60.1833 90.2725C60.4499 89.917 60.5935 89.5718 60.614 89.2368L61.424 90.1494C61.3762 90.4365 61.2463 90.7544 61.0344 91.103C60.8225 91.4517 60.5388 91.7866 60.1833 92.1079C59.8347 92.4224 59.4177 92.6855 58.9323 92.8975C58.4538 93.1025 57.9138 93.2051 57.3122 93.2051C56.5603 93.2051 55.9006 93.0581 55.3332 92.7642C54.7727 92.4702 54.3352 92.0771 54.0207 91.585C53.7131 91.0859 53.5593 90.5288 53.5593 89.9136C53.5593 89.3188 53.6755 88.7959 53.9079 88.3447C54.1404 87.8867 54.4753 87.5073 54.9128 87.2065C55.3503 86.8989 55.8767 86.6665 56.4919 86.5093C57.1071 86.3521 57.7942 86.2734 58.5529 86.2734H60.7575ZM70.5853 81.9053V83.3613H64.5868V81.9053H70.5853ZM66.617 79.2085H68.514V90.252C68.514 90.6279 68.5721 90.9116 68.6883 91.103C68.8045 91.2944 68.9549 91.4209 69.1395 91.4824C69.3241 91.5439 69.5223 91.5747 69.7342 91.5747C69.8914 91.5747 70.0555 91.561 70.2264 91.5337C70.4041 91.4995 70.5374 91.4722 70.6263 91.4517L70.6366 93C70.4862 93.0479 70.2879 93.0923 70.0418 93.1333C69.8026 93.1812 69.5121 93.2051 69.1703 93.2051C68.7054 93.2051 68.2782 93.1128 67.8885 92.9282C67.4989 92.7437 67.1878 92.436 66.9554 92.0054C66.7298 91.5679 66.617 90.98 66.617 90.2417V79.2085ZM78.0444 93.2051C77.2719 93.2051 76.5713 93.0752 75.9423 92.8154C75.3203 92.5488 74.7837 92.1763 74.3325 91.6978C73.8881 91.2192 73.5463 90.6519 73.3071 89.9956C73.0678 89.3394 72.9482 88.6216 72.9482 87.8423V87.4116C72.9482 86.5093 73.0815 85.7061 73.3481 85.002C73.6147 84.291 73.977 83.6895 74.435 83.1973C74.893 82.7051 75.4126 82.3325 75.9936 82.0796C76.5747 81.8267 77.1762 81.7002 77.7983 81.7002C78.5913 81.7002 79.2749 81.8369 79.8491 82.1104C80.4301 82.3838 80.9052 82.7666 81.2744 83.2588C81.6435 83.7441 81.917 84.3184 82.0947 84.9814C82.2724 85.6377 82.3613 86.3555 82.3613 87.1348V87.9858H74.0761V86.4375H80.4643V86.2939C80.437 85.8018 80.3344 85.3232 80.1567 84.8584C79.9858 84.3936 79.7124 84.0107 79.3364 83.71C78.9604 83.4092 78.4477 83.2588 77.7983 83.2588C77.3676 83.2588 76.9712 83.3511 76.6088 83.5356C76.2465 83.7134 75.9355 83.98 75.6757 84.3354C75.416 84.6909 75.2143 85.125 75.0708 85.6377C74.9272 86.1504 74.8554 86.7417 74.8554 87.4116V87.8423C74.8554 88.3687 74.9272 88.8643 75.0708 89.3291C75.2212 89.7871 75.4365 90.1904 75.7168 90.5391C76.0039 90.8877 76.3491 91.1611 76.7524 91.3594C77.1626 91.5576 77.6274 91.6567 78.1469 91.6567C78.8169 91.6567 79.3842 91.52 79.8491 91.2466C80.3139 90.9731 80.7207 90.6074 81.0693 90.1494L82.2177 91.062C81.9785 91.4243 81.6743 91.7695 81.3051 92.0977C80.936 92.4258 80.4814 92.6924 79.9414 92.8975C79.4082 93.1025 78.7758 93.2051 78.0444 93.2051ZM92.3941 81.9053H94.1168V92.7642C94.1168 93.7417 93.9185 94.5757 93.522 95.2661C93.1256 95.9565 92.5719 96.4795 91.8609 96.835C91.1568 97.1973 90.3433 97.3784 89.4205 97.3784C89.0377 97.3784 88.5865 97.3169 88.067 97.1938C87.5543 97.0776 87.0484 96.876 86.5494 96.5889C86.0572 96.3086 85.6436 95.9292 85.3087 95.4507L86.3033 94.3228C86.7681 94.8833 87.2535 95.2729 87.7594 95.4917C88.272 95.7104 88.7779 95.8198 89.2769 95.8198C89.8785 95.8198 90.398 95.707 90.8355 95.4814C91.273 95.2559 91.6114 94.9209 91.8507 94.4766C92.0968 94.0391 92.2198 93.499 92.2198 92.8564V84.3457L92.3941 81.9053ZM84.755 87.5757V87.3604C84.755 86.5127 84.8541 85.7437 85.0523 85.0532C85.2574 84.356 85.5479 83.7578 85.9239 83.2588C86.3067 82.7598 86.7681 82.377 87.3082 82.1104C87.8482 81.8369 88.4566 81.7002 89.1334 81.7002C89.8306 81.7002 90.439 81.8232 90.9586 82.0693C91.4849 82.3086 91.9293 82.6606 92.2916 83.1255C92.6607 83.5835 92.9512 84.1372 93.1632 84.7866C93.3751 85.436 93.522 86.1709 93.6041 86.9912V87.9346C93.5289 88.748 93.3819 89.4795 93.1632 90.1289C92.9512 90.7783 92.6607 91.332 92.2916 91.79C91.9293 92.248 91.4849 92.6001 90.9586 92.8462C90.4322 93.0854 89.817 93.2051 89.1129 93.2051C88.4498 93.2051 87.8482 93.0649 87.3082 92.7847C86.775 92.5044 86.317 92.1113 85.9342 91.6055C85.5513 91.0996 85.2574 90.5049 85.0523 89.8213C84.8541 89.1309 84.755 88.3823 84.755 87.5757ZM86.6519 87.3604V87.5757C86.6519 88.1294 86.7066 88.6489 86.816 89.1343C86.9322 89.6196 87.1065 90.0469 87.3389 90.416C87.5782 90.7852 87.8824 91.0757 88.2515 91.2876C88.6207 91.4927 89.0616 91.5952 89.5743 91.5952C90.2032 91.5952 90.7227 91.4619 91.1329 91.1953C91.543 90.9287 91.8678 90.5767 92.107 90.1392C92.3531 89.7017 92.5445 89.2266 92.6812 88.7139V86.2427C92.606 85.8667 92.4898 85.5044 92.3326 85.1558C92.1822 84.8003 91.984 84.4858 91.7379 84.2124C91.4986 83.9321 91.2012 83.71 90.8458 83.5459C90.4903 83.3818 90.0733 83.2998 89.5948 83.2998C89.0753 83.2998 88.6275 83.4092 88.2515 83.6279C87.8824 83.8398 87.5782 84.1338 87.3389 84.5098C87.1065 84.8789 86.9322 85.3096 86.816 85.8018C86.7066 86.2871 86.6519 86.8066 86.6519 87.3604ZM99.6892 81.9053V93H97.7819V81.9053H99.6892ZM97.6384 78.9624C97.6384 78.6548 97.7307 78.395 97.9152 78.1831C98.1066 77.9712 98.3869 77.8652 98.7561 77.8652C99.1184 77.8652 99.3952 77.9712 99.5866 78.1831C99.7849 78.395 99.884 78.6548 99.884 78.9624C99.884 79.2563 99.7849 79.5093 99.5866 79.7212C99.3952 79.9263 99.1184 80.0288 98.7561 80.0288C98.3869 80.0288 98.1066 79.9263 97.9152 79.7212C97.7307 79.5093 97.6384 79.2563 97.6384 78.9624ZM107.969 93.2051C107.196 93.2051 106.495 93.0752 105.867 92.8154C105.244 92.5488 104.708 92.1763 104.257 91.6978C103.812 91.2192 103.471 90.6519 103.231 89.9956C102.992 89.3394 102.872 88.6216 102.872 87.8423V87.4116C102.872 86.5093 103.006 85.7061 103.272 85.002C103.539 84.291 103.901 83.6895 104.359 83.1973C104.817 82.7051 105.337 82.3325 105.918 82.0796C106.499 81.8267 107.1 81.7002 107.722 81.7002C108.515 81.7002 109.199 81.8369 109.773 82.1104C110.354 82.3838 110.829 82.7666 111.199 83.2588C111.568 83.7441 111.841 84.3184 112.019 84.9814C112.197 85.6377 112.285 86.3555 112.285 87.1348V87.9858H104V86.4375H110.388V86.2939C110.361 85.8018 110.259 85.3232 110.081 84.8584C109.91 84.3936 109.637 84.0107 109.261 83.71C108.885 83.4092 108.372 83.2588 107.722 83.2588C107.292 83.2588 106.895 83.3511 106.533 83.5356C106.171 83.7134 105.86 83.98 105.6 84.3354C105.34 84.6909 105.138 85.125 104.995 85.6377C104.851 86.1504 104.78 86.7417 104.78 87.4116V87.8423C104.78 88.3687 104.851 88.8643 104.995 89.3291C105.145 89.7871 105.361 90.1904 105.641 90.5391C105.928 90.8877 106.273 91.1611 106.677 91.3594C107.087 91.5576 107.552 91.6567 108.071 91.6567C108.741 91.6567 109.308 91.52 109.773 91.2466C110.238 90.9731 110.645 90.6074 110.993 90.1494L112.142 91.062C111.903 91.4243 111.598 91.7695 111.229 92.0977C110.86 92.4258 110.406 92.6924 109.866 92.8975C109.332 93.1025 108.7 93.2051 107.969 93.2051ZM121.59 90.0571C121.59 89.7837 121.529 89.5308 121.406 89.2983C121.289 89.0591 121.047 88.8438 120.678 88.6523C120.315 88.4541 119.768 88.2832 119.037 88.1396C118.422 88.0098 117.865 87.856 117.366 87.6782C116.873 87.5005 116.453 87.2852 116.104 87.0322C115.763 86.7793 115.499 86.4819 115.315 86.1401C115.13 85.7983 115.038 85.3984 115.038 84.9404C115.038 84.5029 115.134 84.0894 115.325 83.6997C115.523 83.3101 115.8 82.9648 116.156 82.6641C116.518 82.3633 116.952 82.1274 117.458 81.9565C117.964 81.7856 118.528 81.7002 119.15 81.7002C120.039 81.7002 120.797 81.8574 121.426 82.1719C122.055 82.4863 122.537 82.9067 122.872 83.4331C123.207 83.9526 123.374 84.5303 123.374 85.166H121.477C121.477 84.8584 121.385 84.561 121.201 84.2739C121.023 83.98 120.76 83.7373 120.411 83.5459C120.069 83.3545 119.649 83.2588 119.15 83.2588C118.623 83.2588 118.196 83.3408 117.868 83.5049C117.547 83.6621 117.311 83.8638 117.161 84.1099C117.017 84.356 116.945 84.6157 116.945 84.8892C116.945 85.0942 116.979 85.2788 117.048 85.4429C117.123 85.6001 117.253 85.7471 117.437 85.8838C117.622 86.0137 117.882 86.1367 118.217 86.2529C118.552 86.3691 118.979 86.4854 119.498 86.6016C120.408 86.8066 121.156 87.0527 121.744 87.3398C122.332 87.627 122.769 87.979 123.057 88.396C123.344 88.813 123.487 89.3188 123.487 89.9136C123.487 90.3989 123.385 90.8433 123.18 91.2466C122.981 91.6499 122.691 91.9985 122.308 92.2925C121.932 92.5796 121.481 92.8052 120.955 92.9692C120.435 93.1265 119.851 93.2051 119.201 93.2051C118.224 93.2051 117.396 93.0308 116.72 92.6821C116.043 92.3335 115.53 91.8823 115.182 91.3286C114.833 90.7749 114.659 90.1904 114.659 89.5752H116.566C116.593 90.0947 116.744 90.5083 117.017 90.8159C117.29 91.1167 117.625 91.332 118.022 91.4619C118.418 91.585 118.811 91.6465 119.201 91.6465C119.721 91.6465 120.155 91.5781 120.503 91.4414C120.859 91.3047 121.129 91.1167 121.313 90.8774C121.498 90.6382 121.59 90.3647 121.59 90.0571ZM128.332 90.7441V92.272C128.332 92.894 128.174 93.5503 127.86 94.2407C127.545 94.938 127.105 95.519 126.537 95.9839L125.461 95.2354C125.679 94.9346 125.864 94.627 126.014 94.3125C126.165 94.0049 126.277 93.6836 126.353 93.3486C126.435 93.0205 126.476 92.6719 126.476 92.3027V90.7441H128.332ZM139.107 84.1099V93H137.2V81.9053H139.005L139.107 84.1099ZM138.718 87.0322L137.836 87.0015C137.843 86.2427 137.942 85.542 138.133 84.8994C138.325 84.25 138.608 83.686 138.984 83.2075C139.36 82.729 139.828 82.3599 140.389 82.1001C140.95 81.8335 141.599 81.7002 142.337 81.7002C142.857 81.7002 143.335 81.7754 143.773 81.9258C144.21 82.0693 144.59 82.2983 144.911 82.6128C145.232 82.9272 145.482 83.3306 145.659 83.8228C145.837 84.3149 145.926 84.9097 145.926 85.6069V93H144.029V85.6992C144.029 85.1182 143.93 84.6533 143.732 84.3047C143.54 83.9561 143.267 83.7031 142.911 83.5459C142.556 83.3818 142.139 83.2998 141.66 83.2998C141.1 83.2998 140.632 83.3989 140.256 83.5972C139.88 83.7954 139.579 84.0688 139.353 84.4175C139.128 84.7661 138.964 85.166 138.861 85.6172C138.765 86.0615 138.718 86.5332 138.718 87.0322ZM145.906 85.9863L144.634 86.376C144.641 85.7676 144.74 85.1831 144.931 84.6226C145.13 84.062 145.413 83.563 145.783 83.1255C146.158 82.688 146.62 82.3428 147.167 82.0898C147.714 81.8301 148.339 81.7002 149.043 81.7002C149.638 81.7002 150.164 81.7788 150.622 81.936C151.087 82.0933 151.477 82.3359 151.791 82.6641C152.113 82.9854 152.355 83.3989 152.519 83.9048C152.683 84.4106 152.765 85.0122 152.765 85.7095V93H150.858V85.689C150.858 85.0669 150.759 84.585 150.561 84.2432C150.369 83.8945 150.096 83.6519 149.741 83.5151C149.392 83.3716 148.975 83.2998 148.49 83.2998C148.073 83.2998 147.703 83.3716 147.382 83.5151C147.061 83.6587 146.791 83.8569 146.572 84.1099C146.353 84.356 146.186 84.6396 146.07 84.9609C145.96 85.2822 145.906 85.624 145.906 85.9863ZM155.764 87.5757V87.3398C155.764 86.54 155.88 85.7983 156.113 85.1147C156.345 84.4243 156.68 83.8262 157.118 83.3203C157.555 82.8076 158.085 82.4111 158.707 82.1309C159.329 81.8438 160.026 81.7002 160.799 81.7002C161.578 81.7002 162.279 81.8438 162.901 82.1309C163.53 82.4111 164.063 82.8076 164.5 83.3203C164.945 83.8262 165.283 84.4243 165.516 85.1147C165.748 85.7983 165.864 86.54 165.864 87.3398V87.5757C165.864 88.3755 165.748 89.1172 165.516 89.8008C165.283 90.4844 164.945 91.0825 164.5 91.5952C164.063 92.1011 163.533 92.4976 162.911 92.7847C162.296 93.0649 161.599 93.2051 160.819 93.2051C160.04 93.2051 159.339 93.0649 158.717 92.7847C158.095 92.4976 157.562 92.1011 157.118 91.5952C156.68 91.0825 156.345 90.4844 156.113 89.8008C155.88 89.1172 155.764 88.3755 155.764 87.5757ZM157.661 87.3398V87.5757C157.661 88.1294 157.726 88.6523 157.856 89.1445C157.986 89.6299 158.181 90.0605 158.44 90.4365C158.707 90.8125 159.038 91.1099 159.435 91.3286C159.831 91.5405 160.293 91.6465 160.819 91.6465C161.339 91.6465 161.793 91.5405 162.183 91.3286C162.58 91.1099 162.908 90.8125 163.167 90.4365C163.427 90.0605 163.622 89.6299 163.752 89.1445C163.889 88.6523 163.957 88.1294 163.957 87.5757V87.3398C163.957 86.793 163.889 86.2769 163.752 85.7915C163.622 85.2993 163.424 84.8652 163.157 84.4893C162.897 84.1064 162.569 83.8057 162.173 83.5869C161.783 83.3682 161.325 83.2588 160.799 83.2588C160.279 83.2588 159.821 83.3682 159.425 83.5869C159.035 83.8057 158.707 84.1064 158.44 84.4893C158.181 84.8652 157.986 85.2993 157.856 85.7915C157.726 86.2769 157.661 86.793 157.661 87.3398ZM175.866 90.8467V77.25H177.773V93H176.03L175.866 90.8467ZM168.401 87.5757V87.3604C168.401 86.5127 168.504 85.7437 168.709 85.0532C168.921 84.356 169.218 83.7578 169.601 83.2588C169.991 82.7598 170.452 82.377 170.985 82.1104C171.525 81.8369 172.127 81.7002 172.79 81.7002C173.487 81.7002 174.096 81.8232 174.615 82.0693C175.142 82.3086 175.586 82.6606 175.948 83.1255C176.317 83.5835 176.608 84.1372 176.82 84.7866C177.032 85.436 177.179 86.1709 177.261 86.9912V87.9346C177.186 88.748 177.039 89.4795 176.82 90.1289C176.608 90.7783 176.317 91.332 175.948 91.79C175.586 92.248 175.142 92.6001 174.615 92.8462C174.089 93.0854 173.474 93.2051 172.77 93.2051C172.12 93.2051 171.525 93.0649 170.985 92.7847C170.452 92.5044 169.991 92.1113 169.601 91.6055C169.218 91.0996 168.921 90.5049 168.709 89.8213C168.504 89.1309 168.401 88.3823 168.401 87.5757ZM170.309 87.3604V87.5757C170.309 88.1294 170.363 88.6489 170.473 89.1343C170.589 89.6196 170.767 90.0469 171.006 90.416C171.245 90.7852 171.549 91.0757 171.919 91.2876C172.288 91.4927 172.729 91.5952 173.241 91.5952C173.87 91.5952 174.386 91.4619 174.79 91.1953C175.2 90.9287 175.528 90.5767 175.774 90.1392C176.02 89.7017 176.211 89.2266 176.348 88.7139V86.2427C176.266 85.8667 176.147 85.5044 175.989 85.1558C175.839 84.8003 175.641 84.4858 175.395 84.2124C175.155 83.9321 174.858 83.71 174.502 83.5459C174.154 83.3818 173.74 83.2998 173.262 83.2998C172.742 83.2998 172.294 83.4092 171.919 83.6279C171.549 83.8398 171.245 84.1338 171.006 84.5098C170.767 84.8789 170.589 85.3096 170.473 85.8018C170.363 86.2871 170.309 86.8066 170.309 87.3604ZM185.961 93.2051C185.188 93.2051 184.487 93.0752 183.859 92.8154C183.236 92.5488 182.7 92.1763 182.249 91.6978C181.804 91.2192 181.463 90.6519 181.223 89.9956C180.984 89.3394 180.864 88.6216 180.864 87.8423V87.4116C180.864 86.5093 180.998 85.7061 181.264 85.002C181.531 84.291 181.893 83.6895 182.351 83.1973C182.809 82.7051 183.329 82.3325 183.91 82.0796C184.491 81.8267 185.092 81.7002 185.715 81.7002C186.507 81.7002 187.191 81.8369 187.765 82.1104C188.346 82.3838 188.821 82.7666 189.191 83.2588C189.56 83.7441 189.833 84.3184 190.011 84.9814C190.189 85.6377 190.277 86.3555 190.277 87.1348V87.9858H181.992V86.4375H188.381V86.2939C188.353 85.8018 188.251 85.3232 188.073 84.8584C187.902 84.3936 187.629 84.0107 187.253 83.71C186.877 83.4092 186.364 83.2588 185.715 83.2588C185.284 83.2588 184.887 83.3511 184.525 83.5356C184.163 83.7134 183.852 83.98 183.592 84.3354C183.332 84.6909 183.131 85.125 182.987 85.6377C182.843 86.1504 182.772 86.7417 182.772 87.4116V87.8423C182.772 88.3687 182.843 88.8643 182.987 89.3291C183.137 89.7871 183.353 90.1904 183.633 90.5391C183.92 90.8877 184.265 91.1611 184.669 91.3594C185.079 91.5576 185.544 91.6567 186.063 91.6567C186.733 91.6567 187.3 91.52 187.765 91.2466C188.23 90.9731 188.637 90.6074 188.986 90.1494L190.134 91.062C189.895 91.4243 189.59 91.7695 189.221 92.0977C188.852 92.4258 188.398 92.6924 187.858 92.8975C187.324 93.1025 186.692 93.2051 185.961 93.2051ZM195.183 77.25V93H193.276V77.25H195.183ZM205.319 90.0571C205.319 89.7837 205.257 89.5308 205.134 89.2983C205.018 89.0591 204.775 88.8438 204.406 88.6523C204.044 88.4541 203.497 88.2832 202.766 88.1396C202.15 88.0098 201.593 87.856 201.094 87.6782C200.602 87.5005 200.182 87.2852 199.833 87.0322C199.491 86.7793 199.228 86.4819 199.043 86.1401C198.859 85.7983 198.767 85.3984 198.767 84.9404C198.767 84.5029 198.862 84.0894 199.054 83.6997C199.252 83.3101 199.529 82.9648 199.884 82.6641C200.246 82.3633 200.681 82.1274 201.186 81.9565C201.692 81.7856 202.256 81.7002 202.878 81.7002C203.767 81.7002 204.526 81.8574 205.155 82.1719C205.784 82.4863 206.266 82.9067 206.6 83.4331C206.935 83.9526 207.103 84.5303 207.103 85.166H205.206C205.206 84.8584 205.114 84.561 204.929 84.2739C204.751 83.98 204.488 83.7373 204.14 83.5459C203.798 83.3545 203.377 83.2588 202.878 83.2588C202.352 83.2588 201.925 83.3408 201.597 83.5049C201.275 83.6621 201.039 83.8638 200.889 84.1099C200.746 84.356 200.674 84.6157 200.674 84.8892C200.674 85.0942 200.708 85.2788 200.776 85.4429C200.851 85.6001 200.981 85.7471 201.166 85.8838C201.35 86.0137 201.61 86.1367 201.945 86.2529C202.28 86.3691 202.707 86.4854 203.227 86.6016C204.136 86.8066 204.885 87.0527 205.473 87.3398C206.06 87.627 206.498 87.979 206.785 88.396C207.072 88.813 207.216 89.3188 207.216 89.9136C207.216 90.3989 207.113 90.8433 206.908 91.2466C206.71 91.6499 206.419 91.9985 206.037 92.2925C205.661 92.5796 205.209 92.8052 204.683 92.9692C204.163 93.1265 203.579 93.2051 202.93 93.2051C201.952 93.2051 201.125 93.0308 200.448 92.6821C199.771 92.3335 199.259 91.8823 198.91 91.3286C198.561 90.7749 198.387 90.1904 198.387 89.5752H200.294C200.322 90.0947 200.472 90.5083 200.746 90.8159C201.019 91.1167 201.354 91.332 201.75 91.4619C202.147 91.585 202.54 91.6465 202.93 91.6465C203.449 91.6465 203.883 91.5781 204.232 91.4414C204.587 91.3047 204.857 91.1167 205.042 90.8774C205.226 90.6382 205.319 90.3647 205.319 90.0571ZM212.06 90.7441V92.272C212.06 92.894 211.903 93.5503 211.588 94.2407C211.274 94.938 210.833 95.519 210.266 95.9839L209.189 95.2354C209.408 94.9346 209.592 94.627 209.743 94.3125C209.893 94.0049 210.006 93.6836 210.081 93.3486C210.163 93.0205 210.204 92.6719 210.204 92.3027V90.7441H212.06ZM34.2069 114.103V108.392C34.2069 107.954 34.118 107.575 33.9403 107.253C33.7694 106.925 33.5096 106.672 33.161 106.495C32.8124 106.317 32.3817 106.228 31.869 106.228C31.3905 106.228 30.9701 106.31 30.6078 106.474C30.2523 106.638 29.972 106.854 29.767 107.12C29.5687 107.387 29.4696 107.674 29.4696 107.981H27.5726C27.5726 107.585 27.6752 107.192 27.8802 106.802C28.0853 106.413 28.3793 106.061 28.7621 105.746C29.1517 105.425 29.6166 105.172 30.1566 104.987C30.7035 104.796 31.3119 104.7 31.9818 104.7C32.7884 104.7 33.4994 104.837 34.1146 105.11C34.7367 105.384 35.222 105.797 35.5707 106.351C35.9261 106.898 36.1039 107.585 36.1039 108.412V113.58C36.1039 113.949 36.1346 114.342 36.1962 114.759C36.2645 115.176 36.3636 115.535 36.4935 115.836V116H34.5145C34.4188 115.781 34.3436 115.491 34.2889 115.128C34.2342 114.759 34.2069 114.417 34.2069 114.103ZM34.535 109.273L34.5555 110.606H32.638C32.098 110.606 31.6161 110.651 31.1922 110.74C30.7684 110.822 30.4129 110.948 30.1258 111.119C29.8387 111.29 29.62 111.505 29.4696 111.765C29.3192 112.018 29.244 112.315 29.244 112.657C29.244 113.006 29.3226 113.324 29.4798 113.611C29.6371 113.898 29.8729 114.127 30.1874 114.298C30.5087 114.462 30.9017 114.544 31.3666 114.544C31.9476 114.544 32.4603 114.421 32.9046 114.175C33.349 113.929 33.701 113.628 33.9608 113.272C34.2274 112.917 34.371 112.572 34.3915 112.237L35.2015 113.149C35.1537 113.437 35.0238 113.754 34.8119 114.103C34.6 114.452 34.3163 114.787 33.9608 115.108C33.6122 115.422 33.1952 115.686 32.7098 115.897C32.2313 116.103 31.6913 116.205 31.0897 116.205C30.3378 116.205 29.6781 116.058 29.1107 115.764C28.5502 115.47 28.1127 115.077 27.7982 114.585C27.4906 114.086 27.3368 113.529 27.3368 112.914C27.3368 112.319 27.453 111.796 27.6854 111.345C27.9178 110.887 28.2528 110.507 28.6903 110.207C29.1278 109.899 29.6542 109.667 30.2694 109.509C30.8846 109.352 31.5716 109.273 32.3304 109.273H34.535ZM41.6147 107.274V116H39.7178V104.905H41.5122L41.6147 107.274ZM41.1636 110.032L40.374 110.001C40.3808 109.243 40.4936 108.542 40.7124 107.899C40.9311 107.25 41.2388 106.686 41.6352 106.208C42.0317 105.729 42.5034 105.36 43.0503 105.1C43.604 104.833 44.2158 104.7 44.8857 104.7C45.4326 104.7 45.9248 104.775 46.3623 104.926C46.7998 105.069 47.1723 105.302 47.48 105.623C47.7944 105.944 48.0337 106.361 48.1977 106.874C48.3618 107.38 48.4438 107.999 48.4438 108.73V116H46.5366V108.709C46.5366 108.128 46.4512 107.664 46.2803 107.315C46.1094 106.959 45.8598 106.703 45.5317 106.546C45.2036 106.382 44.8003 106.3 44.3218 106.3C43.8501 106.3 43.4194 106.399 43.0298 106.597C42.647 106.795 42.3154 107.069 42.0351 107.417C41.7617 107.766 41.5464 108.166 41.3891 108.617C41.2388 109.062 41.1636 109.533 41.1636 110.032ZM58.9483 113.847V100.25H60.8556V116H59.1124L58.9483 113.847ZM51.4835 110.576V110.36C51.4835 109.513 51.586 108.744 51.7911 108.053C52.003 107.356 52.3004 106.758 52.6832 106.259C53.0729 105.76 53.5343 105.377 54.0675 105.11C54.6075 104.837 55.2091 104.7 55.8722 104.7C56.5694 104.7 57.1778 104.823 57.6974 105.069C58.2237 105.309 58.6681 105.661 59.0304 106.125C59.3995 106.583 59.69 107.137 59.902 107.787C60.1139 108.436 60.2608 109.171 60.3429 109.991V110.935C60.2677 111.748 60.1207 112.479 59.902 113.129C59.69 113.778 59.3995 114.332 59.0304 114.79C58.6681 115.248 58.2237 115.6 57.6974 115.846C57.171 116.085 56.5558 116.205 55.8517 116.205C55.2022 116.205 54.6075 116.065 54.0675 115.785C53.5343 115.504 53.0729 115.111 52.6832 114.605C52.3004 114.1 52.003 113.505 51.7911 112.821C51.586 112.131 51.4835 111.382 51.4835 110.576ZM53.3907 110.36V110.576C53.3907 111.129 53.4454 111.649 53.5548 112.134C53.671 112.62 53.8487 113.047 54.088 113.416C54.3272 113.785 54.6314 114.076 55.0006 114.288C55.3697 114.493 55.8106 114.595 56.3233 114.595C56.9522 114.595 57.4684 114.462 57.8717 114.195C58.2818 113.929 58.61 113.577 58.8561 113.139C59.1021 112.702 59.2936 112.227 59.4303 111.714V109.243C59.3482 108.867 59.2286 108.504 59.0714 108.156C58.921 107.8 58.7228 107.486 58.4767 107.212C58.2374 106.932 57.94 106.71 57.5846 106.546C57.2359 106.382 56.8224 106.3 56.3438 106.3C55.8243 106.3 55.3766 106.409 55.0006 106.628C54.6314 106.84 54.3272 107.134 54.088 107.51C53.8487 107.879 53.671 108.31 53.5548 108.802C53.4454 109.287 53.3907 109.807 53.3907 110.36ZM76.7376 113.057C76.7376 112.784 76.6761 112.531 76.5531 112.298C76.4369 112.059 76.1942 111.844 75.825 111.652C75.4627 111.454 74.9159 111.283 74.1844 111.14C73.5692 111.01 73.0121 110.856 72.513 110.678C72.0208 110.5 71.6004 110.285 71.2518 110.032C70.91 109.779 70.6468 109.482 70.4622 109.14C70.2777 108.798 70.1854 108.398 70.1854 107.94C70.1854 107.503 70.2811 107.089 70.4725 106.7C70.6707 106.31 70.9476 105.965 71.3031 105.664C71.6654 105.363 72.0995 105.127 72.6053 104.957C73.1112 104.786 73.6751 104.7 74.2972 104.7C75.1859 104.7 75.9447 104.857 76.5736 105.172C77.2025 105.486 77.6844 105.907 78.0194 106.433C78.3543 106.953 78.5218 107.53 78.5218 108.166H76.6248C76.6248 107.858 76.5326 107.561 76.348 107.274C76.1703 106.98 75.9071 106.737 75.5584 106.546C75.2166 106.354 74.7962 106.259 74.2972 106.259C73.7708 106.259 73.3436 106.341 73.0155 106.505C72.6942 106.662 72.4583 106.864 72.308 107.11C72.1644 107.356 72.0926 107.616 72.0926 107.889C72.0926 108.094 72.1268 108.279 72.1952 108.443C72.2704 108.6 72.4002 108.747 72.5848 108.884C72.7694 109.014 73.0291 109.137 73.3641 109.253C73.6991 109.369 74.1263 109.485 74.6458 109.602C75.555 109.807 76.3036 110.053 76.8914 110.34C77.4793 110.627 77.9168 110.979 78.2039 111.396C78.4911 111.813 78.6346 112.319 78.6346 112.914C78.6346 113.399 78.5321 113.843 78.327 114.247C78.1288 114.65 77.8382 114.999 77.4554 115.292C77.0794 115.58 76.6283 115.805 76.1019 115.969C75.5824 116.126 74.9979 116.205 74.3485 116.205C73.3709 116.205 72.5438 116.031 71.867 115.682C71.1903 115.333 70.6776 114.882 70.3289 114.329C69.9803 113.775 69.806 113.19 69.806 112.575H71.7132C71.7406 113.095 71.891 113.508 72.1644 113.816C72.4378 114.117 72.7728 114.332 73.1693 114.462C73.5658 114.585 73.9588 114.646 74.3485 114.646C74.868 114.646 75.3021 114.578 75.6507 114.441C76.0062 114.305 76.2762 114.117 76.4608 113.877C76.6454 113.638 76.7376 113.365 76.7376 113.057ZM83.8173 104.905V116H81.9101V104.905H83.8173ZM81.7666 101.962C81.7666 101.655 81.8588 101.395 82.0434 101.183C82.2348 100.971 82.5151 100.865 82.8842 100.865C83.2465 100.865 83.5234 100.971 83.7148 101.183C83.913 101.395 84.0122 101.655 84.0122 101.962C84.0122 102.256 83.913 102.509 83.7148 102.721C83.5234 102.926 83.2465 103.029 82.8842 103.029C82.5151 103.029 82.2348 102.926 82.0434 102.721C81.8588 102.509 81.7666 102.256 81.7666 101.962ZM89.3795 107.11V116H87.4722V104.905H89.2769L89.3795 107.11ZM88.9898 110.032L88.108 110.001C88.1148 109.243 88.2139 108.542 88.4053 107.899C88.5968 107.25 88.8804 106.686 89.2564 106.208C89.6324 105.729 90.1007 105.36 90.6612 105.1C91.2218 104.833 91.8712 104.7 92.6095 104.7C93.129 104.7 93.6075 104.775 94.045 104.926C94.4825 105.069 94.8619 105.298 95.1832 105.613C95.5045 105.927 95.754 106.331 95.9317 106.823C96.1095 107.315 96.1983 107.91 96.1983 108.607V116H94.3013V108.699C94.3013 108.118 94.2022 107.653 94.004 107.305C93.8126 106.956 93.5391 106.703 93.1837 106.546C92.8282 106.382 92.4112 106.3 91.9327 106.3C91.3721 106.3 90.9039 106.399 90.5279 106.597C90.1519 106.795 89.8512 107.069 89.6256 107.417C89.4 107.766 89.2359 108.166 89.1334 108.617C89.0377 109.062 88.9898 109.533 88.9898 110.032ZM96.1778 108.986L94.9063 109.376C94.9132 108.768 95.0123 108.183 95.2037 107.623C95.4019 107.062 95.6856 106.563 96.0548 106.125C96.4307 105.688 96.8922 105.343 97.439 105.09C97.9859 104.83 98.6114 104.7 99.3155 104.7C99.9102 104.7 100.437 104.779 100.895 104.936C101.359 105.093 101.749 105.336 102.064 105.664C102.385 105.985 102.628 106.399 102.792 106.905C102.956 107.411 103.038 108.012 103.038 108.709V116H101.13V108.689C101.13 108.067 101.031 107.585 100.833 107.243C100.642 106.895 100.368 106.652 100.013 106.515C99.6641 106.372 99.2471 106.3 98.7618 106.3C98.3448 106.3 97.9757 106.372 97.6544 106.515C97.3331 106.659 97.0631 106.857 96.8443 107.11C96.6256 107.356 96.4581 107.64 96.3419 107.961C96.2325 108.282 96.1778 108.624 96.1778 108.986ZM113.327 113.437V104.905H115.234V116H113.419L113.327 113.437ZM113.686 111.099L114.475 111.078C114.475 111.816 114.397 112.5 114.239 113.129C114.089 113.751 113.843 114.291 113.501 114.749C113.159 115.207 112.712 115.566 112.158 115.826C111.604 116.079 110.931 116.205 110.138 116.205C109.598 116.205 109.102 116.126 108.651 115.969C108.207 115.812 107.824 115.569 107.503 115.241C107.181 114.913 106.932 114.486 106.754 113.959C106.583 113.433 106.498 112.801 106.498 112.062V104.905H108.395V112.083C108.395 112.582 108.449 112.996 108.559 113.324C108.675 113.645 108.829 113.901 109.02 114.093C109.218 114.277 109.437 114.407 109.676 114.482C109.923 114.558 110.175 114.595 110.435 114.595C111.242 114.595 111.881 114.441 112.353 114.134C112.824 113.819 113.163 113.399 113.368 112.873C113.58 112.339 113.686 111.748 113.686 111.099ZM120.817 100.25V116H118.909V100.25H120.817ZM131.034 114.103V108.392C131.034 107.954 130.945 107.575 130.768 107.253C130.597 106.925 130.337 106.672 129.988 106.495C129.64 106.317 129.209 106.228 128.696 106.228C128.218 106.228 127.797 106.31 127.435 106.474C127.08 106.638 126.799 106.854 126.594 107.12C126.396 107.387 126.297 107.674 126.297 107.981H124.4C124.4 107.585 124.502 107.192 124.707 106.802C124.913 106.413 125.206 106.061 125.589 105.746C125.979 105.425 126.444 105.172 126.984 104.987C127.531 104.796 128.139 104.7 128.809 104.7C129.616 104.7 130.327 104.837 130.942 105.11C131.564 105.384 132.049 105.797 132.398 106.351C132.753 106.898 132.931 107.585 132.931 108.412V113.58C132.931 113.949 132.962 114.342 133.023 114.759C133.092 115.176 133.191 115.535 133.321 115.836V116H131.342C131.246 115.781 131.171 115.491 131.116 115.128C131.061 114.759 131.034 114.417 131.034 114.103ZM131.362 109.273L131.383 110.606H129.465C128.925 110.606 128.443 110.651 128.019 110.74C127.596 110.822 127.24 110.948 126.953 111.119C126.666 111.29 126.447 111.505 126.297 111.765C126.146 112.018 126.071 112.315 126.071 112.657C126.071 113.006 126.15 113.324 126.307 113.611C126.464 113.898 126.7 114.127 127.015 114.298C127.336 114.462 127.729 114.544 128.194 114.544C128.775 114.544 129.288 114.421 129.732 114.175C130.176 113.929 130.528 113.628 130.788 113.272C131.055 112.917 131.198 112.572 131.219 112.237L132.029 113.149C131.981 113.437 131.851 113.754 131.639 114.103C131.427 114.452 131.143 114.787 130.788 115.108C130.439 115.422 130.022 115.686 129.537 115.897C129.059 116.103 128.518 116.205 127.917 116.205C127.165 116.205 126.505 116.058 125.938 115.764C125.377 115.47 124.94 115.077 124.625 114.585C124.318 114.086 124.164 113.529 124.164 112.914C124.164 112.319 124.28 111.796 124.513 111.345C124.745 110.887 125.08 110.507 125.518 110.207C125.955 109.899 126.481 109.667 127.097 109.509C127.712 109.352 128.399 109.273 129.158 109.273H131.362ZM141.19 104.905V106.361H135.191V104.905H141.19ZM137.222 102.208H139.119V113.252C139.119 113.628 139.177 113.912 139.293 114.103C139.409 114.294 139.56 114.421 139.744 114.482C139.929 114.544 140.127 114.575 140.339 114.575C140.496 114.575 140.66 114.561 140.831 114.534C141.009 114.5 141.142 114.472 141.231 114.452L141.241 116C141.091 116.048 140.893 116.092 140.647 116.133C140.407 116.181 140.117 116.205 139.775 116.205C139.31 116.205 138.883 116.113 138.493 115.928C138.104 115.744 137.793 115.436 137.56 115.005C137.335 114.568 137.222 113.98 137.222 113.242V102.208ZM146.106 104.905V116H144.199V104.905H146.106ZM144.055 101.962C144.055 101.655 144.148 101.395 144.332 101.183C144.524 100.971 144.804 100.865 145.173 100.865C145.535 100.865 145.812 100.971 146.004 101.183C146.202 101.395 146.301 101.655 146.301 101.962C146.301 102.256 146.202 102.509 146.004 102.721C145.812 102.926 145.535 103.029 145.173 103.029C144.804 103.029 144.524 102.926 144.332 102.721C144.148 102.509 144.055 102.256 144.055 101.962ZM149.279 110.576V110.34C149.279 109.54 149.395 108.798 149.628 108.115C149.86 107.424 150.195 106.826 150.633 106.32C151.07 105.808 151.6 105.411 152.222 105.131C152.844 104.844 153.541 104.7 154.314 104.7C155.093 104.7 155.794 104.844 156.416 105.131C157.045 105.411 157.578 105.808 158.015 106.32C158.46 106.826 158.798 107.424 159.031 108.115C159.263 108.798 159.379 109.54 159.379 110.34V110.576C159.379 111.375 159.263 112.117 159.031 112.801C158.798 113.484 158.46 114.083 158.015 114.595C157.578 115.101 157.048 115.498 156.426 115.785C155.811 116.065 155.114 116.205 154.334 116.205C153.555 116.205 152.854 116.065 152.232 115.785C151.61 115.498 151.077 115.101 150.633 114.595C150.195 114.083 149.86 113.484 149.628 112.801C149.395 112.117 149.279 111.375 149.279 110.576ZM151.176 110.34V110.576C151.176 111.129 151.241 111.652 151.371 112.145C151.501 112.63 151.696 113.061 151.955 113.437C152.222 113.812 152.554 114.11 152.95 114.329C153.346 114.541 153.808 114.646 154.334 114.646C154.854 114.646 155.308 114.541 155.698 114.329C156.095 114.11 156.423 113.812 156.682 113.437C156.942 113.061 157.137 112.63 157.267 112.145C157.404 111.652 157.472 111.129 157.472 110.576V110.34C157.472 109.793 157.404 109.277 157.267 108.792C157.137 108.299 156.939 107.865 156.672 107.489C156.412 107.106 156.084 106.806 155.688 106.587C155.298 106.368 154.84 106.259 154.314 106.259C153.794 106.259 153.336 106.368 152.94 106.587C152.55 106.806 152.222 107.106 151.955 107.489C151.696 107.865 151.501 108.299 151.371 108.792C151.241 109.277 151.176 109.793 151.176 110.34ZM164.285 107.274V116H162.388V104.905H164.183L164.285 107.274ZM163.834 110.032L163.044 110.001C163.051 109.243 163.164 108.542 163.383 107.899C163.601 107.25 163.909 106.686 164.306 106.208C164.702 105.729 165.174 105.36 165.721 105.1C166.274 104.833 166.886 104.7 167.556 104.7C168.103 104.7 168.595 104.775 169.033 104.926C169.47 105.069 169.843 105.302 170.15 105.623C170.465 105.944 170.704 106.361 170.868 106.874C171.032 107.38 171.114 107.999 171.114 108.73V116H169.207V108.709C169.207 108.128 169.122 107.664 168.951 107.315C168.78 106.959 168.53 106.703 168.202 106.546C167.874 106.382 167.471 106.3 166.992 106.3C166.52 106.3 166.09 106.399 165.7 106.597C165.317 106.795 164.986 107.069 164.705 107.417C164.432 107.766 164.217 108.166 164.059 108.617C163.909 109.062 163.834 109.533 163.834 110.032ZM181.085 113.057C181.085 112.784 181.024 112.531 180.901 112.298C180.785 112.059 180.542 111.844 180.173 111.652C179.811 111.454 179.264 111.283 178.532 111.14C177.917 111.01 177.36 110.856 176.861 110.678C176.369 110.5 175.948 110.285 175.6 110.032C175.258 109.779 174.995 109.482 174.81 109.14C174.626 108.798 174.533 108.398 174.533 107.94C174.533 107.503 174.629 107.089 174.82 106.7C175.019 106.31 175.295 105.965 175.651 105.664C176.013 105.363 176.447 105.127 176.953 104.957C177.459 104.786 178.023 104.7 178.645 104.7C179.534 104.7 180.293 104.857 180.921 105.172C181.55 105.486 182.032 105.907 182.367 106.433C182.702 106.953 182.87 107.53 182.87 108.166H180.973C180.973 107.858 180.88 107.561 180.696 107.274C180.518 106.98 180.255 106.737 179.906 106.546C179.564 106.354 179.144 106.259 178.645 106.259C178.119 106.259 177.691 106.341 177.363 106.505C177.042 106.662 176.806 106.864 176.656 107.11C176.512 107.356 176.44 107.616 176.44 107.889C176.44 108.094 176.475 108.279 176.543 108.443C176.618 108.6 176.748 108.747 176.933 108.884C177.117 109.014 177.377 109.137 177.712 109.253C178.047 109.369 178.474 109.485 178.994 109.602C179.903 109.807 180.651 110.053 181.239 110.34C181.827 110.627 182.265 110.979 182.552 111.396C182.839 111.813 182.982 112.319 182.982 112.914C182.982 113.399 182.88 113.843 182.675 114.247C182.477 114.65 182.186 114.999 181.803 115.292C181.427 115.58 180.976 115.805 180.45 115.969C179.93 116.126 179.346 116.205 178.696 116.205C177.719 116.205 176.892 116.031 176.215 115.682C175.538 115.333 175.025 114.882 174.677 114.329C174.328 113.775 174.154 113.19 174.154 112.575H176.061C176.088 113.095 176.239 113.508 176.512 113.816C176.786 114.117 177.121 114.332 177.517 114.462C177.914 114.585 178.307 114.646 178.696 114.646C179.216 114.646 179.65 114.578 179.999 114.441C180.354 114.305 180.624 114.117 180.809 113.877C180.993 113.638 181.085 113.365 181.085 113.057ZM194.773 116H192.876V103.736C192.876 102.937 193.02 102.263 193.307 101.716C193.601 101.163 194.021 100.746 194.568 100.465C195.115 100.178 195.764 100.035 196.516 100.035C196.735 100.035 196.954 100.048 197.173 100.076C197.398 100.103 197.617 100.144 197.829 100.199L197.726 101.747C197.583 101.713 197.419 101.689 197.234 101.675C197.056 101.662 196.879 101.655 196.701 101.655C196.298 101.655 195.949 101.737 195.655 101.901C195.368 102.058 195.149 102.291 194.999 102.598C194.848 102.906 194.773 103.285 194.773 103.736V116ZM197.132 104.905V106.361H191.123V104.905H197.132ZM199.371 110.576V110.34C199.371 109.54 199.488 108.798 199.72 108.115C199.953 107.424 200.288 106.826 200.725 106.32C201.163 105.808 201.692 105.411 202.314 105.131C202.936 104.844 203.634 104.7 204.406 104.7C205.185 104.7 205.886 104.844 206.508 105.131C207.137 105.411 207.67 105.808 208.108 106.32C208.552 106.826 208.891 107.424 209.123 108.115C209.355 108.798 209.472 109.54 209.472 110.34V110.576C209.472 111.375 209.355 112.117 209.123 112.801C208.891 113.484 208.552 114.083 208.108 114.595C207.67 115.101 207.141 115.498 206.518 115.785C205.903 116.065 205.206 116.205 204.427 116.205C203.647 116.205 202.947 116.065 202.325 115.785C201.703 115.498 201.169 115.101 200.725 114.595C200.288 114.083 199.953 113.484 199.72 112.801C199.488 112.117 199.371 111.375 199.371 110.576ZM201.268 110.34V110.576C201.268 111.129 201.333 111.652 201.463 112.145C201.593 112.63 201.788 113.061 202.048 113.437C202.314 113.812 202.646 114.11 203.042 114.329C203.439 114.541 203.9 114.646 204.427 114.646C204.946 114.646 205.401 114.541 205.79 114.329C206.187 114.11 206.515 113.812 206.775 113.437C207.035 113.061 207.229 112.63 207.359 112.145C207.496 111.652 207.564 111.129 207.564 110.576V110.34C207.564 109.793 207.496 109.277 207.359 108.792C207.229 108.299 207.031 107.865 206.765 107.489C206.505 107.106 206.177 106.806 205.78 106.587C205.391 106.368 204.933 106.259 204.406 106.259C203.887 106.259 203.429 106.368 203.032 106.587C202.642 106.806 202.314 107.106 202.048 107.489C201.788 107.865 201.593 108.299 201.463 108.792C201.333 109.277 201.268 109.793 201.268 110.34ZM214.377 106.648V116H212.48V104.905H214.326L214.377 106.648ZM217.843 104.844L217.833 106.607C217.676 106.573 217.525 106.553 217.382 106.546C217.245 106.532 217.088 106.525 216.91 106.525C216.473 106.525 216.086 106.594 215.751 106.73C215.417 106.867 215.133 107.059 214.9 107.305C214.668 107.551 214.483 107.845 214.347 108.187C214.217 108.521 214.131 108.891 214.09 109.294L213.557 109.602C213.557 108.932 213.622 108.303 213.752 107.715C213.889 107.127 214.097 106.607 214.377 106.156C214.658 105.698 215.013 105.343 215.444 105.09C215.881 104.83 216.401 104.7 217.002 104.7C217.139 104.7 217.296 104.717 217.474 104.751C217.652 104.779 217.775 104.81 217.843 104.844ZM63.6331 139.205C62.8607 139.205 62.16 139.075 61.5311 138.815C60.909 138.549 60.3724 138.176 59.9212 137.698C59.4769 137.219 59.1351 136.652 58.8958 135.996C58.6566 135.339 58.537 134.622 58.537 133.842V133.412C58.537 132.509 58.6703 131.706 58.9369 131.002C59.2035 130.291 59.5658 129.689 60.0238 129.197C60.4818 128.705 61.0013 128.333 61.5824 128.08C62.1634 127.827 62.765 127.7 63.3871 127.7C64.18 127.7 64.8636 127.837 65.4378 128.11C66.0189 128.384 66.494 128.767 66.8631 129.259C67.2323 129.744 67.5057 130.318 67.6834 130.981C67.8612 131.638 67.95 132.355 67.95 133.135V133.986H59.6649V132.438H66.0531V132.294C66.0257 131.802 65.9232 131.323 65.7455 130.858C65.5746 130.394 65.3011 130.011 64.9251 129.71C64.5492 129.409 64.0365 129.259 63.3871 129.259C62.9564 129.259 62.5599 129.351 62.1976 129.536C61.8353 129.713 61.5243 129.98 61.2645 130.335C61.0047 130.691 60.8031 131.125 60.6595 131.638C60.516 132.15 60.4442 132.742 60.4442 133.412V133.842C60.4442 134.369 60.516 134.864 60.6595 135.329C60.8099 135.787 61.0252 136.19 61.3055 136.539C61.5926 136.888 61.9378 137.161 62.3412 137.359C62.7513 137.558 63.2162 137.657 63.7357 137.657C64.4056 137.657 64.973 137.52 65.4378 137.247C65.9027 136.973 66.3094 136.607 66.6581 136.149L67.8065 137.062C67.5672 137.424 67.263 137.77 66.8939 138.098C66.5247 138.426 66.0702 138.692 65.5301 138.897C64.9969 139.103 64.3646 139.205 63.6331 139.205ZM77.3369 137.103V131.392C77.3369 130.954 77.248 130.575 77.0703 130.253C76.8994 129.925 76.6396 129.672 76.291 129.495C75.9423 129.317 75.5117 129.228 74.999 129.228C74.5205 129.228 74.1001 129.31 73.7378 129.474C73.3823 129.638 73.102 129.854 72.8969 130.12C72.6987 130.387 72.5996 130.674 72.5996 130.981H70.7026C70.7026 130.585 70.8051 130.192 71.0102 129.802C71.2153 129.413 71.5092 129.061 71.8921 128.746C72.2817 128.425 72.7465 128.172 73.2866 127.987C73.8335 127.796 74.4419 127.7 75.1118 127.7C75.9184 127.7 76.6294 127.837 77.2446 128.11C77.8667 128.384 78.352 128.797 78.7006 129.351C79.0561 129.898 79.2338 130.585 79.2338 131.412V136.58C79.2338 136.949 79.2646 137.342 79.3261 137.759C79.3945 138.176 79.4936 138.535 79.6235 138.836V139H77.6445C77.5488 138.781 77.4736 138.491 77.4189 138.128C77.3642 137.759 77.3369 137.417 77.3369 137.103ZM77.665 132.273L77.6855 133.606H75.768C75.228 133.606 74.7461 133.651 74.3222 133.74C73.8984 133.822 73.5429 133.948 73.2558 134.119C72.9687 134.29 72.75 134.505 72.5996 134.765C72.4492 135.018 72.374 135.315 72.374 135.657C72.374 136.006 72.4526 136.324 72.6098 136.611C72.7671 136.898 73.0029 137.127 73.3173 137.298C73.6386 137.462 74.0317 137.544 74.4965 137.544C75.0776 137.544 75.5903 137.421 76.0346 137.175C76.479 136.929 76.831 136.628 77.0908 136.272C77.3574 135.917 77.5009 135.572 77.5214 135.237L78.3315 136.149C78.2837 136.437 78.1538 136.754 77.9419 137.103C77.7299 137.452 77.4463 137.787 77.0908 138.108C76.7421 138.422 76.3252 138.686 75.8398 138.897C75.3613 139.103 74.8213 139.205 74.2197 139.205C73.4677 139.205 72.8081 139.058 72.2407 138.764C71.6801 138.47 71.2426 138.077 70.9282 137.585C70.6206 137.086 70.4668 136.529 70.4668 135.914C70.4668 135.319 70.583 134.796 70.8154 134.345C71.0478 133.887 71.3828 133.507 71.8203 133.207C72.2578 132.899 72.7841 132.667 73.3994 132.509C74.0146 132.352 74.7016 132.273 75.4604 132.273H77.665ZM87.2877 137.646C87.7389 137.646 88.1558 137.554 88.5387 137.37C88.9215 137.185 89.2359 136.932 89.482 136.611C89.7281 136.283 89.8682 135.91 89.9024 135.493H91.7071C91.6729 136.149 91.4508 136.761 91.0406 137.329C90.6373 137.889 90.1075 138.344 89.4513 138.692C88.795 139.034 88.0738 139.205 87.2877 139.205C86.4537 139.205 85.7257 139.058 85.1036 138.764C84.4884 138.47 83.9757 138.067 83.5655 137.554C83.1622 137.042 82.858 136.454 82.6529 135.791C82.4547 135.121 82.3556 134.413 82.3556 133.668V133.237C82.3556 132.492 82.4547 131.788 82.6529 131.125C82.858 130.455 83.1622 129.864 83.5655 129.351C83.9757 128.838 84.4884 128.435 85.1036 128.141C85.7257 127.847 86.4537 127.7 87.2877 127.7C88.1558 127.7 88.9146 127.878 89.564 128.233C90.2135 128.582 90.7227 129.061 91.0919 129.669C91.4679 130.271 91.6729 130.954 91.7071 131.72H89.9024C89.8682 131.262 89.7384 130.848 89.5128 130.479C89.294 130.11 88.9932 129.816 88.6104 129.597C88.2345 129.372 87.7935 129.259 87.2877 129.259C86.7066 129.259 86.2179 129.375 85.8214 129.607C85.4317 129.833 85.1207 130.141 84.8883 130.53C84.6627 130.913 84.4986 131.34 84.3961 131.812C84.3004 132.277 84.2525 132.752 84.2525 133.237V133.668C84.2525 134.153 84.3004 134.632 84.3961 135.104C84.4918 135.575 84.6524 136.002 84.878 136.385C85.1104 136.768 85.4215 137.076 85.8111 137.308C86.2076 137.534 86.6998 137.646 87.2877 137.646ZM96.3669 123.25V139H94.4699V123.25H96.3669ZM95.9157 133.032L95.1262 133.001C95.133 132.243 95.2458 131.542 95.4646 130.899C95.6833 130.25 95.9909 129.686 96.3874 129.208C96.7839 128.729 97.2556 128.36 97.8024 128.1C98.3562 127.833 98.968 127.7 99.6379 127.7C100.185 127.7 100.677 127.775 101.114 127.926C101.552 128.069 101.925 128.302 102.232 128.623C102.547 128.944 102.786 129.361 102.95 129.874C103.114 130.38 103.196 130.999 103.196 131.73V139H101.289V131.709C101.289 131.128 101.203 130.664 101.032 130.315C100.862 129.959 100.612 129.703 100.284 129.546C99.9558 129.382 99.5524 129.3 99.0739 129.3C98.6022 129.3 98.1716 129.399 97.7819 129.597C97.3991 129.795 97.0676 130.069 96.7873 130.417C96.5139 130.766 96.2985 131.166 96.1413 131.617C95.9909 132.062 95.9157 132.533 95.9157 133.032ZM115.335 139H113.438V126.736C113.438 125.937 113.582 125.263 113.869 124.716C114.163 124.163 114.583 123.746 115.13 123.465C115.677 123.178 116.327 123.035 117.079 123.035C117.297 123.035 117.516 123.048 117.735 123.076C117.96 123.103 118.179 123.144 118.391 123.199L118.289 124.747C118.145 124.713 117.981 124.689 117.796 124.675C117.619 124.662 117.441 124.655 117.263 124.655C116.86 124.655 116.511 124.737 116.217 124.901C115.93 125.058 115.711 125.291 115.561 125.598C115.411 125.906 115.335 126.285 115.335 126.736V139ZM117.694 127.905V129.361H111.685V127.905H117.694ZM119.934 133.576V133.34C119.934 132.54 120.05 131.798 120.282 131.115C120.515 130.424 120.85 129.826 121.287 129.32C121.725 128.808 122.254 128.411 122.877 128.131C123.499 127.844 124.196 127.7 124.968 127.7C125.748 127.7 126.448 127.844 127.07 128.131C127.699 128.411 128.232 128.808 128.67 129.32C129.114 129.826 129.453 130.424 129.685 131.115C129.918 131.798 130.034 132.54 130.034 133.34V133.576C130.034 134.375 129.918 135.117 129.685 135.801C129.453 136.484 129.114 137.083 128.67 137.595C128.232 138.101 127.703 138.498 127.081 138.785C126.465 139.065 125.768 139.205 124.989 139.205C124.21 139.205 123.509 139.065 122.887 138.785C122.265 138.498 121.732 138.101 121.287 137.595C120.85 137.083 120.515 136.484 120.282 135.801C120.05 135.117 119.934 134.375 119.934 133.576ZM121.831 133.34V133.576C121.831 134.129 121.896 134.652 122.025 135.145C122.155 135.63 122.35 136.061 122.61 136.437C122.877 136.812 123.208 137.11 123.605 137.329C124.001 137.541 124.462 137.646 124.989 137.646C125.508 137.646 125.963 137.541 126.353 137.329C126.749 137.11 127.077 136.812 127.337 136.437C127.597 136.061 127.792 135.63 127.921 135.145C128.058 134.652 128.127 134.129 128.127 133.576V133.34C128.127 132.793 128.058 132.277 127.921 131.792C127.792 131.299 127.593 130.865 127.327 130.489C127.067 130.106 126.739 129.806 126.342 129.587C125.953 129.368 125.495 129.259 124.968 129.259C124.449 129.259 123.991 129.368 123.594 129.587C123.205 129.806 122.877 130.106 122.61 130.489C122.35 130.865 122.155 131.299 122.025 131.792C121.896 132.277 121.831 132.793 121.831 133.34ZM139.831 136.437V127.905H141.738V139H139.923L139.831 136.437ZM140.19 134.099L140.979 134.078C140.979 134.816 140.901 135.5 140.743 136.129C140.593 136.751 140.347 137.291 140.005 137.749C139.663 138.207 139.216 138.566 138.662 138.826C138.108 139.079 137.435 139.205 136.642 139.205C136.102 139.205 135.606 139.126 135.155 138.969C134.711 138.812 134.328 138.569 134.007 138.241C133.685 137.913 133.436 137.486 133.258 136.959C133.087 136.433 133.002 135.801 133.002 135.062V127.905H134.899V135.083C134.899 135.582 134.953 135.996 135.063 136.324C135.179 136.645 135.333 136.901 135.524 137.093C135.722 137.277 135.941 137.407 136.18 137.482C136.426 137.558 136.679 137.595 136.939 137.595C137.746 137.595 138.385 137.441 138.857 137.134C139.328 136.819 139.667 136.399 139.872 135.873C140.084 135.339 140.19 134.748 140.19 134.099ZM147.157 130.274V139H145.26V127.905H147.054L147.157 130.274ZM146.705 133.032L145.916 133.001C145.923 132.243 146.035 131.542 146.254 130.899C146.473 130.25 146.781 129.686 147.177 129.208C147.574 128.729 148.045 128.36 148.592 128.1C149.146 127.833 149.758 127.7 150.428 127.7C150.974 127.7 151.467 127.775 151.904 127.926C152.342 128.069 152.714 128.302 153.022 128.623C153.336 128.944 153.576 129.361 153.74 129.874C153.904 130.38 153.986 130.999 153.986 131.73V139H152.078V131.709C152.078 131.128 151.993 130.664 151.822 130.315C151.651 129.959 151.402 129.703 151.074 129.546C150.745 129.382 150.342 129.3 149.864 129.3C149.392 129.3 148.961 129.399 148.572 129.597C148.189 129.795 147.857 130.069 147.577 130.417C147.304 130.766 147.088 131.166 146.931 131.617C146.781 132.062 146.705 132.533 146.705 133.032ZM164.49 136.847V123.25H166.397V139H164.654L164.49 136.847ZM157.025 133.576V133.36C157.025 132.513 157.128 131.744 157.333 131.053C157.545 130.356 157.842 129.758 158.225 129.259C158.615 128.76 159.076 128.377 159.609 128.11C160.149 127.837 160.751 127.7 161.414 127.7C162.111 127.7 162.72 127.823 163.239 128.069C163.766 128.309 164.21 128.661 164.572 129.125C164.941 129.583 165.232 130.137 165.444 130.787C165.656 131.436 165.803 132.171 165.885 132.991V133.935C165.809 134.748 165.663 135.479 165.444 136.129C165.232 136.778 164.941 137.332 164.572 137.79C164.21 138.248 163.766 138.6 163.239 138.846C162.713 139.085 162.098 139.205 161.393 139.205C160.744 139.205 160.149 139.065 159.609 138.785C159.076 138.504 158.615 138.111 158.225 137.605C157.842 137.1 157.545 136.505 157.333 135.821C157.128 135.131 157.025 134.382 157.025 133.576ZM158.933 133.36V133.576C158.933 134.129 158.987 134.649 159.097 135.134C159.213 135.62 159.391 136.047 159.63 136.416C159.869 136.785 160.173 137.076 160.542 137.288C160.912 137.493 161.352 137.595 161.865 137.595C162.494 137.595 163.01 137.462 163.413 137.195C163.824 136.929 164.152 136.577 164.398 136.139C164.644 135.702 164.835 135.227 164.972 134.714V132.243C164.89 131.867 164.77 131.504 164.613 131.156C164.463 130.8 164.265 130.486 164.018 130.212C163.779 129.932 163.482 129.71 163.126 129.546C162.778 129.382 162.364 129.3 161.886 129.3C161.366 129.3 160.918 129.409 160.542 129.628C160.173 129.84 159.869 130.134 159.63 130.51C159.391 130.879 159.213 131.31 159.097 131.802C158.987 132.287 158.933 132.807 158.933 133.36ZM174.585 139.205C173.812 139.205 173.111 139.075 172.482 138.815C171.86 138.549 171.324 138.176 170.873 137.698C170.428 137.219 170.086 136.652 169.847 135.996C169.608 135.339 169.488 134.622 169.488 133.842V133.412C169.488 132.509 169.622 131.706 169.888 131.002C170.155 130.291 170.517 129.689 170.975 129.197C171.433 128.705 171.953 128.333 172.534 128.08C173.115 127.827 173.716 127.7 174.338 127.7C175.131 127.7 175.815 127.837 176.389 128.11C176.97 128.384 177.445 128.767 177.814 129.259C178.184 129.744 178.457 130.318 178.635 130.981C178.813 131.638 178.901 132.355 178.901 133.135V133.986H170.616V132.438H177.004V132.294C176.977 131.802 176.875 131.323 176.697 130.858C176.526 130.394 176.252 130.011 175.877 129.71C175.501 129.409 174.988 129.259 174.338 129.259C173.908 129.259 173.511 129.351 173.149 129.536C172.787 129.713 172.476 129.98 172.216 130.335C171.956 130.691 171.754 131.125 171.611 131.638C171.467 132.15 171.396 132.742 171.396 133.412V133.842C171.396 134.369 171.467 134.864 171.611 135.329C171.761 135.787 171.977 136.19 172.257 136.539C172.544 136.888 172.889 137.161 173.293 137.359C173.703 137.558 174.168 137.657 174.687 137.657C175.357 137.657 175.924 137.52 176.389 137.247C176.854 136.973 177.261 136.607 177.609 136.149L178.758 137.062C178.519 137.424 178.214 137.77 177.845 138.098C177.476 138.426 177.022 138.692 176.481 138.897C175.948 139.103 175.316 139.205 174.585 139.205ZM183.643 129.648V139H181.746V127.905H183.592L183.643 129.648ZM187.109 127.844L187.099 129.607C186.942 129.573 186.791 129.553 186.648 129.546C186.511 129.532 186.354 129.525 186.176 129.525C185.738 129.525 185.352 129.594 185.017 129.73C184.682 129.867 184.399 130.059 184.166 130.305C183.934 130.551 183.749 130.845 183.612 131.187C183.483 131.521 183.397 131.891 183.356 132.294L182.823 132.602C182.823 131.932 182.888 131.303 183.018 130.715C183.154 130.127 183.363 129.607 183.643 129.156C183.923 128.698 184.279 128.343 184.71 128.09C185.147 127.83 185.667 127.7 186.268 127.7C186.405 127.7 186.562 127.717 186.74 127.751C186.918 127.779 187.041 127.81 187.109 127.844Z" fill="#363636"/>
<defs>
<linearGradient id="paint0_linear_21_190" x1="48.3498" y1="13.5846" x2="77.9888" y2="21.2096" gradientUnits="userSpaceOnUse">
<stop stop-color="#3CE5A7"/>
<stop offset="1" stop-color="#114DFF"/>
</linearGradient>
<clipPath id="clip0_21_190">
<rect width="27" height="28" fill="white" transform="translate(48 11)"/>
</clipPath>
</defs>
</svg>
