<svg width="951" height="165" viewBox="0 0 951 165" fill="none" xmlns="http://www.w3.org/2000/svg">
<g filter="url(#filter0_d_138_889)">
<rect x="4" width="943" height="157" rx="78.5" fill="#06288B"/>
</g>
<g clip-path="url(#clip0_138_889)">
<path d="M102.107 73.448C102.705 71.698 105.123 71.645 105.832 73.289L105.892 73.449L106.699 75.809C106.884 76.3502 107.183 76.8455 107.576 77.2614C107.968 77.6773 108.445 78.0042 108.975 78.22L109.192 78.301L111.552 79.107C113.302 79.705 113.355 82.123 111.712 82.832L111.552 82.892L109.192 83.699C108.651 83.8838 108.155 84.1826 107.739 84.5753C107.323 84.9679 106.996 85.4452 106.78 85.975L106.699 86.191L105.893 88.552C105.295 90.302 102.877 90.355 102.169 88.712L102.107 88.552L101.301 86.192C101.116 85.6506 100.817 85.1551 100.425 84.739C100.032 84.3229 99.5549 83.9959 99.0251 83.78L98.8091 83.699L96.4491 82.893C94.6981 82.295 94.6451 79.877 96.2891 79.169L96.4491 79.107L98.8091 78.301C99.3503 78.1161 99.8456 77.8172 100.262 77.4246C100.677 77.0319 101.004 76.5547 101.22 76.025L101.301 75.809L102.107 73.448ZM112 70C112.187 70 112.371 70.0525 112.529 70.1515C112.688 70.2505 112.816 70.392 112.898 70.56L112.946 70.677L113.296 71.703L114.323 72.053C114.511 72.1167 114.675 72.2346 114.795 72.3918C114.916 72.549 114.987 72.7384 114.999 72.936C115.012 73.1336 114.966 73.3305 114.866 73.5018C114.767 73.673 114.619 73.8109 114.441 73.898L114.323 73.946L113.297 74.296L112.947 75.323C112.883 75.5104 112.765 75.6747 112.608 75.795C112.451 75.9153 112.261 75.9862 112.064 75.9987C111.866 76.0113 111.669 75.9648 111.498 75.8654C111.327 75.7659 111.189 75.6179 111.102 75.44L111.054 75.323L110.704 74.297L109.677 73.947C109.49 73.8833 109.325 73.7654 109.205 73.6082C109.084 73.451 109.013 73.2616 109.001 73.064C108.988 72.8664 109.034 72.6695 109.134 72.4982C109.233 72.327 109.381 72.1891 109.559 72.102L109.677 72.054L110.703 71.704L111.053 70.677C111.121 70.4794 111.248 70.3079 111.418 70.1865C111.588 70.0651 111.791 69.9999 112 70Z" fill="black"/>
<path d="M104.107 72.448C104.705 70.698 107.123 70.645 107.832 72.289L107.892 72.449L108.699 74.809C108.884 75.3502 109.183 75.8455 109.576 76.2614C109.968 76.6773 110.445 77.0042 110.975 77.22L111.192 77.301L113.552 78.107C115.302 78.705 115.355 81.123 113.712 81.832L113.552 81.892L111.192 82.699C110.651 82.8838 110.155 83.1826 109.739 83.5753C109.323 83.9679 108.996 84.4452 108.78 84.975L108.699 85.191L107.893 87.552C107.295 89.302 104.877 89.355 104.169 87.712L104.107 87.552L103.301 85.192C103.116 84.6506 102.817 84.1551 102.425 83.739C102.032 83.3229 101.555 82.9959 101.025 82.78L100.809 82.699L98.4491 81.893C96.6981 81.295 96.6451 78.877 98.2891 78.169L98.4491 78.107L100.809 77.301C101.35 77.1161 101.846 76.8172 102.262 76.4246C102.677 76.0319 103.004 75.5547 103.22 75.025L103.301 74.809L104.107 72.448ZM114 69C114.187 69 114.371 69.0525 114.529 69.1515C114.688 69.2505 114.816 69.392 114.898 69.56L114.946 69.677L115.296 70.703L116.323 71.053C116.511 71.1167 116.675 71.2346 116.795 71.3918C116.916 71.549 116.987 71.7384 116.999 71.936C117.012 72.1336 116.966 72.3305 116.866 72.5018C116.767 72.673 116.619 72.8109 116.441 72.898L116.323 72.946L115.297 73.296L114.947 74.323C114.883 74.5104 114.765 74.6747 114.608 74.795C114.451 74.9153 114.261 74.9862 114.064 74.9987C113.866 75.0113 113.669 74.9648 113.498 74.8654C113.327 74.7659 113.189 74.6179 113.102 74.44L113.054 74.323L112.704 73.297L111.677 72.947C111.49 72.8833 111.325 72.7654 111.205 72.6082C111.084 72.451 111.013 72.2616 111.001 72.064C110.988 71.8664 111.034 71.6695 111.134 71.4982C111.233 71.327 111.381 71.1891 111.559 71.102L111.677 71.054L112.703 70.704L113.053 69.677C113.121 69.4794 113.248 69.3079 113.418 69.1865C113.588 69.0651 113.791 68.9999 114 69Z" fill="black"/>
</g>
<path d="M232.691 69.7832L225.73 91H220.123L229.633 65.4062H233.201L232.691 69.7832ZM238.475 91L231.496 69.7832L230.934 65.4062H234.537L244.1 91H238.475ZM238.158 81.4727V85.6035H224.641V81.4727H238.158ZM253.16 65.4062V91H247.904V65.4062H253.16ZM268.847 78.0273V82H258.916V78.0273H268.847ZM282.9 91.3516C281.424 91.3516 280.099 91.1172 278.928 90.6484C277.756 90.168 276.76 89.5059 275.939 88.6621C275.131 87.8184 274.51 86.8398 274.076 85.7266C273.642 84.6016 273.426 83.4062 273.426 82.1406V81.4375C273.426 79.9961 273.631 78.6777 274.041 77.4824C274.451 76.2871 275.037 75.25 275.799 74.3711C276.572 73.4922 277.51 72.8184 278.611 72.3496C279.713 71.8691 280.955 71.6289 282.338 71.6289C283.685 71.6289 284.881 71.8516 285.924 72.2969C286.967 72.7422 287.84 73.375 288.543 74.1953C289.258 75.0156 289.797 76 290.16 77.1484C290.523 78.2852 290.705 79.5508 290.705 80.9453V83.0547H275.588V79.6797H285.73V79.293C285.73 78.5898 285.601 77.9629 285.344 77.4121C285.097 76.8496 284.722 76.4043 284.219 76.0762C283.715 75.748 283.07 75.584 282.285 75.584C281.617 75.584 281.043 75.7305 280.562 76.0234C280.082 76.3164 279.689 76.7266 279.385 77.2539C279.092 77.7812 278.869 78.4023 278.717 79.1172C278.576 79.8203 278.506 80.5938 278.506 81.4375V82.1406C278.506 82.9023 278.611 83.6055 278.822 84.25C279.045 84.8945 279.355 85.4512 279.754 85.9199C280.164 86.3887 280.656 86.752 281.23 87.0098C281.816 87.2676 282.478 87.3965 283.217 87.3965C284.131 87.3965 284.98 87.2207 285.765 86.8691C286.562 86.5059 287.248 85.9609 287.822 85.2344L290.283 87.9062C289.885 88.4805 289.34 89.0312 288.648 89.5586C287.969 90.0859 287.148 90.5195 286.187 90.8594C285.226 91.1875 284.131 91.3516 282.9 91.3516ZM299.625 76.041V91H294.562V71.9805H299.308L299.625 76.041ZM298.886 80.8223H297.515C297.515 79.416 297.697 78.1504 298.06 77.0254C298.424 75.8887 298.933 74.9219 299.59 74.125C300.246 73.3164 301.025 72.7012 301.927 72.2793C302.841 71.8457 303.861 71.6289 304.986 71.6289C305.877 71.6289 306.691 71.7578 307.429 72.0156C308.168 72.2734 308.8 72.6836 309.328 73.2461C309.867 73.8086 310.277 74.5527 310.558 75.4785C310.851 76.4043 310.998 77.5352 310.998 78.8711V91H305.9V78.8535C305.9 78.0098 305.783 77.3535 305.549 76.8848C305.314 76.416 304.968 76.0879 304.511 75.9004C304.066 75.7012 303.515 75.6016 302.859 75.6016C302.179 75.6016 301.588 75.7363 301.084 76.0059C300.591 76.2754 300.181 76.6504 299.853 77.1309C299.537 77.5996 299.297 78.1504 299.132 78.7832C298.968 79.416 298.886 80.0957 298.886 80.8223ZM326.193 86.7109V78.2383C326.193 77.6289 326.093 77.1074 325.894 76.6738C325.695 76.2285 325.384 75.8828 324.963 75.6367C324.552 75.3906 324.019 75.2676 323.363 75.2676C322.8 75.2676 322.314 75.3672 321.904 75.5664C321.494 75.7539 321.177 76.0293 320.955 76.3926C320.732 76.7441 320.621 77.1602 320.621 77.6406H315.558C315.558 76.832 315.746 76.0645 316.121 75.3379C316.496 74.6113 317.041 73.9727 317.755 73.4219C318.47 72.8594 319.32 72.4199 320.304 72.1035C321.3 71.7871 322.414 71.6289 323.644 71.6289C325.121 71.6289 326.433 71.875 327.582 72.3672C328.73 72.8594 329.632 73.5977 330.289 74.582C330.957 75.5664 331.291 76.7969 331.291 78.2734V86.4121C331.291 87.4551 331.355 88.3105 331.484 88.9785C331.613 89.6348 331.8 90.209 332.046 90.7012V91H326.931C326.685 90.4844 326.498 89.8398 326.369 89.0664C326.252 88.2812 326.193 87.4961 326.193 86.7109ZM326.861 79.416L326.896 82.2812H324.066C323.398 82.2812 322.818 82.3574 322.326 82.5098C321.834 82.6621 321.429 82.8789 321.113 83.1602C320.796 83.4297 320.562 83.7461 320.41 84.1094C320.269 84.4727 320.199 84.8711 320.199 85.3047C320.199 85.7383 320.298 86.1309 320.498 86.4824C320.697 86.8223 320.984 87.0918 321.359 87.291C321.734 87.4785 322.173 87.5723 322.677 87.5723C323.439 87.5723 324.101 87.4199 324.664 87.1152C325.226 86.8105 325.66 86.4355 325.964 85.9902C326.281 85.5449 326.445 85.123 326.457 84.7246L327.793 86.8691C327.605 87.3496 327.347 87.8477 327.019 88.3633C326.703 88.8789 326.298 89.3652 325.806 89.8223C325.314 90.2676 324.722 90.6367 324.031 90.9297C323.339 91.2109 322.519 91.3516 321.57 91.3516C320.363 91.3516 319.267 91.1113 318.283 90.6309C317.31 90.1387 316.537 89.4648 315.963 88.6094C315.4 87.7422 315.119 86.7578 315.119 85.6562C315.119 84.6602 315.306 83.7754 315.681 83.002C316.056 82.2285 316.607 81.5781 317.334 81.0508C318.072 80.5117 318.992 80.1074 320.093 79.8379C321.195 79.5566 322.472 79.416 323.925 79.416H326.861ZM336.273 64H341.335V86.6406L340.826 91H336.273V64ZM353.376 81.2969V81.666C353.376 83.084 353.224 84.3848 352.919 85.5684C352.626 86.752 352.169 87.7773 351.548 88.6445C350.927 89.5 350.154 90.168 349.228 90.6484C348.314 91.1172 347.236 91.3516 345.994 91.3516C344.834 91.3516 343.826 91.1172 342.97 90.6484C342.126 90.1797 341.418 89.5176 340.843 88.6621C340.269 87.8066 339.806 86.8047 339.455 85.6562C339.103 84.5078 338.839 83.2539 338.664 81.8945V81.0859C338.839 79.7266 339.103 78.4727 339.455 77.3242C339.806 76.1758 340.269 75.1738 340.843 74.3184C341.418 73.4629 342.126 72.8008 342.97 72.332C343.814 71.8633 344.81 71.6289 345.959 71.6289C347.212 71.6289 348.302 71.8691 349.228 72.3496C350.166 72.8184 350.939 73.4863 351.548 74.3535C352.169 75.209 352.626 76.2285 352.919 77.4121C353.224 78.584 353.376 79.8789 353.376 81.2969ZM348.314 81.666V81.2969C348.314 80.5234 348.255 79.7969 348.138 79.1172C348.033 78.4258 347.845 77.8223 347.576 77.3066C347.306 76.7793 346.937 76.3633 346.468 76.0586C346.011 75.7539 345.419 75.6016 344.693 75.6016C344.001 75.6016 343.416 75.7188 342.935 75.9531C342.455 76.1875 342.056 76.5156 341.74 76.9375C341.435 77.3594 341.207 77.8633 341.054 78.4492C340.902 79.0234 340.808 79.6562 340.773 80.3477V82.6504C340.808 83.5762 340.96 84.3965 341.23 85.1113C341.511 85.8145 341.933 86.3711 342.496 86.7812C343.07 87.1797 343.814 87.3789 344.728 87.3789C345.443 87.3789 346.035 87.2383 346.503 86.957C346.972 86.6758 347.335 86.2773 347.593 85.7617C347.863 85.2461 348.05 84.6426 348.156 83.9512C348.261 83.248 348.314 82.4863 348.314 81.666ZM362.947 64V91H357.867V64H362.947ZM376.964 91.3516C375.488 91.3516 374.163 91.1172 372.992 90.6484C371.82 90.168 370.824 89.5059 370.003 88.6621C369.195 87.8184 368.574 86.8398 368.14 85.7266C367.706 84.6016 367.49 83.4062 367.49 82.1406V81.4375C367.49 79.9961 367.695 78.6777 368.105 77.4824C368.515 76.2871 369.101 75.25 369.863 74.3711C370.636 73.4922 371.574 72.8184 372.675 72.3496C373.777 71.8691 375.019 71.6289 376.402 71.6289C377.749 71.6289 378.945 71.8516 379.988 72.2969C381.031 72.7422 381.904 73.375 382.607 74.1953C383.322 75.0156 383.861 76 384.224 77.1484C384.587 78.2852 384.769 79.5508 384.769 80.9453V83.0547H369.652V79.6797H379.794V79.293C379.794 78.5898 379.665 77.9629 379.408 77.4121C379.161 76.8496 378.786 76.4043 378.283 76.0762C377.779 75.748 377.134 75.584 376.349 75.584C375.681 75.584 375.107 75.7305 374.626 76.0234C374.146 76.3164 373.753 76.7266 373.449 77.2539C373.156 77.7812 372.933 78.4023 372.781 79.1172C372.64 79.8203 372.57 80.5938 372.57 81.4375V82.1406C372.57 82.9023 372.675 83.6055 372.886 84.25C373.109 84.8945 373.419 85.4512 373.818 85.9199C374.228 86.3887 374.72 86.752 375.294 87.0098C375.88 87.2676 376.542 87.3965 377.281 87.3965C378.195 87.3965 379.044 87.2207 379.829 86.8691C380.626 86.5059 381.312 85.9609 381.886 85.2344L384.347 87.9062C383.949 88.4805 383.404 89.0312 382.712 89.5586C382.033 90.0859 381.212 90.5195 380.251 90.8594C379.29 91.1875 378.195 91.3516 376.964 91.3516ZM399.964 86.8516V64H405.062V91H400.474L399.964 86.8516ZM387.941 81.7188V81.3496C387.941 79.8965 388.105 78.5781 388.433 77.3945C388.761 76.1992 389.241 75.1738 389.874 74.3184C390.507 73.4629 391.286 72.8008 392.212 72.332C393.138 71.8633 394.193 71.6289 395.376 71.6289C396.49 71.6289 397.462 71.8633 398.294 72.332C399.138 72.8008 399.853 73.4688 400.439 74.3359C401.036 75.1914 401.517 76.2051 401.88 77.377C402.243 78.5371 402.507 79.8086 402.671 81.1914V82C402.507 83.3242 402.243 84.5547 401.88 85.6914C401.517 86.8281 401.036 87.8242 400.439 88.6797C399.853 89.5234 399.138 90.1797 398.294 90.6484C397.45 91.1172 396.466 91.3516 395.341 91.3516C394.158 91.3516 393.103 91.1113 392.177 90.6309C391.263 90.1504 390.49 89.4766 389.857 88.6094C389.236 87.7422 388.761 86.7227 388.433 85.5508C388.105 84.3789 387.941 83.1016 387.941 81.7188ZM393.003 81.3496V81.7188C393.003 82.5039 393.062 83.2363 393.179 83.916C393.308 84.5957 393.513 85.1992 393.794 85.7266C394.087 86.2422 394.462 86.6465 394.919 86.9395C395.388 87.2207 395.956 87.3613 396.624 87.3613C397.491 87.3613 398.206 87.168 398.769 86.7812C399.331 86.3828 399.759 85.8379 400.052 85.1465C400.357 84.4551 400.533 83.6582 400.579 82.7559V80.4531C400.544 79.7148 400.439 79.0527 400.263 78.4668C400.099 77.8691 399.853 77.3594 399.525 76.9375C399.208 76.5156 398.81 76.1875 398.329 75.9531C397.861 75.7188 397.304 75.6016 396.659 75.6016C396.003 75.6016 395.441 75.7539 394.972 76.0586C394.503 76.3516 394.122 76.7559 393.829 77.2715C393.548 77.7871 393.337 78.3965 393.197 79.0996C393.068 79.791 393.003 80.541 393.003 81.3496ZM429.458 71.9805V75.5664H418.384V71.9805H429.458ZM421.126 67.2871H426.189V85.2695C426.189 85.8203 426.259 86.2422 426.4 86.5352C426.552 86.8281 426.775 87.0332 427.068 87.1504C427.36 87.2559 427.73 87.3086 428.175 87.3086C428.491 87.3086 428.773 87.2969 429.019 87.2734C429.276 87.2383 429.493 87.2031 429.669 87.168L429.687 90.8945C429.253 91.0352 428.784 91.1465 428.28 91.2285C427.776 91.3105 427.22 91.3516 426.61 91.3516C425.497 91.3516 424.525 91.1699 423.693 90.8066C422.872 90.4316 422.239 89.834 421.794 89.0137C421.349 88.1934 421.126 87.1152 421.126 85.7793V67.2871ZM432.155 81.6836V81.3145C432.155 79.9199 432.355 78.6367 432.753 77.4648C433.151 76.2812 433.731 75.2559 434.493 74.3887C435.255 73.5215 436.192 72.8477 437.306 72.3672C438.419 71.875 439.696 71.6289 441.138 71.6289C442.579 71.6289 443.862 71.875 444.987 72.3672C446.112 72.8477 447.056 73.5215 447.817 74.3887C448.591 75.2559 449.177 76.2812 449.575 77.4648C449.974 78.6367 450.173 79.9199 450.173 81.3145V81.6836C450.173 83.0664 449.974 84.3496 449.575 85.5332C449.177 86.7051 448.591 87.7305 447.817 88.6094C447.056 89.4766 446.118 90.1504 445.005 90.6309C443.892 91.1113 442.614 91.3516 441.173 91.3516C439.731 91.3516 438.448 91.1113 437.323 90.6309C436.21 90.1504 435.267 89.4766 434.493 88.6094C433.731 87.7305 433.151 86.7051 432.753 85.5332C432.355 84.3496 432.155 83.0664 432.155 81.6836ZM437.218 81.3145V81.6836C437.218 82.4805 437.288 83.2246 437.429 83.916C437.569 84.6074 437.792 85.2168 438.097 85.7441C438.413 86.2598 438.823 86.6641 439.327 86.957C439.831 87.25 440.446 87.3965 441.173 87.3965C441.876 87.3965 442.48 87.25 442.983 86.957C443.487 86.6641 443.892 86.2598 444.196 85.7441C444.501 85.2168 444.724 84.6074 444.864 83.916C445.017 83.2246 445.093 82.4805 445.093 81.6836V81.3145C445.093 80.541 445.017 79.8145 444.864 79.1348C444.724 78.4434 444.495 77.834 444.179 77.3066C443.874 76.7676 443.47 76.3457 442.966 76.041C442.462 75.7363 441.853 75.584 441.138 75.584C440.423 75.584 439.814 75.7363 439.31 76.041C438.817 76.3457 438.413 76.7676 438.097 77.3066C437.792 77.834 437.569 78.4434 437.429 79.1348C437.288 79.8145 437.218 80.541 437.218 81.3145ZM453.556 81.6836V81.3145C453.556 79.9199 453.755 78.6367 454.153 77.4648C454.552 76.2812 455.132 75.2559 455.894 74.3887C456.655 73.5215 457.593 72.8477 458.706 72.3672C459.819 71.875 461.097 71.6289 462.538 71.6289C463.979 71.6289 465.263 71.875 466.388 72.3672C467.513 72.8477 468.456 73.5215 469.218 74.3887C469.991 75.2559 470.577 76.2812 470.976 77.4648C471.374 78.6367 471.573 79.9199 471.573 81.3145V81.6836C471.573 83.0664 471.374 84.3496 470.976 85.5332C470.577 86.7051 469.991 87.7305 469.218 88.6094C468.456 89.4766 467.519 90.1504 466.405 90.6309C465.292 91.1113 464.015 91.3516 462.573 91.3516C461.132 91.3516 459.849 91.1113 458.724 90.6309C457.61 90.1504 456.667 89.4766 455.894 88.6094C455.132 87.7305 454.552 86.7051 454.153 85.5332C453.755 84.3496 453.556 83.0664 453.556 81.6836ZM458.618 81.3145V81.6836C458.618 82.4805 458.688 83.2246 458.829 83.916C458.97 84.6074 459.192 85.2168 459.497 85.7441C459.813 86.2598 460.224 86.6641 460.727 86.957C461.231 87.25 461.847 87.3965 462.573 87.3965C463.276 87.3965 463.88 87.25 464.384 86.957C464.888 86.6641 465.292 86.2598 465.597 85.7441C465.901 85.2168 466.124 84.6074 466.265 83.916C466.417 83.2246 466.493 82.4805 466.493 81.6836V81.3145C466.493 80.541 466.417 79.8145 466.265 79.1348C466.124 78.4434 465.895 77.834 465.579 77.3066C465.274 76.7676 464.87 76.3457 464.366 76.041C463.862 75.7363 463.253 75.584 462.538 75.584C461.823 75.584 461.214 75.7363 460.71 76.041C460.218 76.3457 459.813 76.7676 459.497 77.3066C459.192 77.834 458.97 78.4434 458.829 79.1348C458.688 79.8145 458.618 80.541 458.618 81.3145ZM481.108 64V91H476.028V64H481.108ZM496.655 85.7441C496.655 85.3809 496.55 85.0527 496.339 84.7598C496.128 84.4668 495.735 84.1973 495.161 83.9512C494.598 83.6934 493.784 83.459 492.718 83.248C491.757 83.0371 490.86 82.7734 490.028 82.457C489.208 82.1289 488.493 81.7363 487.884 81.2793C487.286 80.8223 486.817 80.2832 486.477 79.6621C486.138 79.0293 485.968 78.3086 485.968 77.5C485.968 76.7031 486.138 75.9531 486.477 75.25C486.829 74.5469 487.327 73.9258 487.971 73.3867C488.628 72.8359 489.425 72.4082 490.362 72.1035C491.311 71.7871 492.378 71.6289 493.561 71.6289C495.214 71.6289 496.632 71.8926 497.815 72.4199C499.011 72.9473 499.925 73.6738 500.557 74.5996C501.202 75.5137 501.524 76.5566 501.524 77.7285H496.462C496.462 77.2363 496.356 76.7969 496.145 76.4102C495.946 76.0117 495.63 75.7012 495.196 75.4785C494.774 75.2441 494.223 75.127 493.544 75.127C492.981 75.127 492.495 75.2266 492.085 75.4258C491.675 75.6133 491.358 75.8711 491.136 76.1992C490.925 76.5156 490.819 76.8672 490.819 77.2539C490.819 77.5469 490.878 77.8105 490.995 78.0449C491.124 78.2676 491.329 78.4727 491.61 78.6602C491.891 78.8477 492.255 79.0234 492.7 79.1875C493.157 79.3398 493.72 79.4805 494.388 79.6094C495.759 79.8906 496.983 80.2598 498.061 80.7168C499.139 81.1621 499.995 81.7715 500.628 82.5449C501.261 83.3066 501.577 84.3086 501.577 85.5508C501.577 86.3945 501.389 87.168 501.014 87.8711C500.639 88.5742 500.1 89.1895 499.397 89.7168C498.694 90.2324 497.85 90.6367 496.866 90.9297C495.893 91.2109 494.798 91.3516 493.579 91.3516C491.809 91.3516 490.309 91.0352 489.079 90.4023C487.86 89.7695 486.934 88.9668 486.302 87.9941C485.68 87.0098 485.37 86.002 485.37 84.9707H490.169C490.192 85.6621 490.368 86.2188 490.696 86.6406C491.036 87.0625 491.464 87.3672 491.979 87.5547C492.507 87.7422 493.075 87.8359 493.684 87.8359C494.341 87.8359 494.886 87.748 495.319 87.5723C495.753 87.3848 496.081 87.1387 496.304 86.834C496.538 86.5176 496.655 86.1543 496.655 85.7441ZM526.255 86.7109V78.2383C526.255 77.6289 526.155 77.1074 525.956 76.6738C525.757 76.2285 525.446 75.8828 525.024 75.6367C524.614 75.3906 524.081 75.2676 523.424 75.2676C522.862 75.2676 522.376 75.3672 521.965 75.5664C521.555 75.7539 521.239 76.0293 521.016 76.3926C520.794 76.7441 520.682 77.1602 520.682 77.6406H515.62C515.62 76.832 515.807 76.0645 516.182 75.3379C516.557 74.6113 517.102 73.9727 517.817 73.4219C518.532 72.8594 519.382 72.4199 520.366 72.1035C521.362 71.7871 522.475 71.6289 523.706 71.6289C525.182 71.6289 526.495 71.875 527.643 72.3672C528.792 72.8594 529.694 73.5977 530.35 74.582C531.018 75.5664 531.352 76.7969 531.352 78.2734V86.4121C531.352 87.4551 531.417 88.3105 531.546 88.9785C531.674 89.6348 531.862 90.209 532.108 90.7012V91H526.993C526.747 90.4844 526.559 89.8398 526.43 89.0664C526.313 88.2812 526.255 87.4961 526.255 86.7109ZM526.923 79.416L526.958 82.2812H524.128C523.46 82.2812 522.88 82.3574 522.387 82.5098C521.895 82.6621 521.491 82.8789 521.174 83.1602C520.858 83.4297 520.624 83.7461 520.471 84.1094C520.331 84.4727 520.26 84.8711 520.26 85.3047C520.26 85.7383 520.36 86.1309 520.559 86.4824C520.758 86.8223 521.046 87.0918 521.421 87.291C521.796 87.4785 522.235 87.5723 522.739 87.5723C523.501 87.5723 524.163 87.4199 524.725 87.1152C525.288 86.8105 525.721 86.4355 526.026 85.9902C526.342 85.5449 526.507 85.123 526.518 84.7246L527.854 86.8691C527.667 87.3496 527.409 87.8477 527.081 88.3633C526.764 88.8789 526.36 89.3652 525.868 89.8223C525.376 90.2676 524.784 90.6367 524.092 90.9297C523.401 91.2109 522.581 91.3516 521.632 91.3516C520.424 91.3516 519.329 91.1113 518.344 90.6309C517.372 90.1387 516.598 89.4648 516.024 88.6094C515.462 87.7422 515.18 86.7578 515.18 85.6562C515.18 84.6602 515.368 83.7754 515.743 83.002C516.118 82.2285 516.669 81.5781 517.395 81.0508C518.133 80.5117 519.053 80.1074 520.155 79.8379C521.257 79.5566 522.534 79.416 523.987 79.416H526.923ZM541.292 76.041V91H536.229V71.9805H540.975L541.292 76.041ZM540.553 80.8223H539.182C539.182 79.416 539.364 78.1504 539.727 77.0254C540.09 75.8887 540.6 74.9219 541.256 74.125C541.913 73.3164 542.692 72.7012 543.594 72.2793C544.508 71.8457 545.528 71.6289 546.653 71.6289C547.544 71.6289 548.358 71.7578 549.096 72.0156C549.835 72.2734 550.467 72.6836 550.995 73.2461C551.534 73.8086 551.944 74.5527 552.225 75.4785C552.518 76.4043 552.665 77.5352 552.665 78.8711V91H547.567V78.8535C547.567 78.0098 547.45 77.3535 547.215 76.8848C546.981 76.416 546.635 76.0879 546.178 75.9004C545.733 75.7012 545.182 75.6016 544.526 75.6016C543.846 75.6016 543.254 75.7363 542.751 76.0059C542.258 76.2754 541.848 76.6504 541.52 77.1309C541.204 77.5996 540.963 78.1504 540.799 78.7832C540.635 79.416 540.553 80.0957 540.553 80.8223ZM568.827 86.8516V64H573.924V91H569.336L568.827 86.8516ZM556.803 81.7188V81.3496C556.803 79.8965 556.967 78.5781 557.295 77.3945C557.624 76.1992 558.104 75.1738 558.737 74.3184C559.37 73.4629 560.149 72.8008 561.075 72.332C562 71.8633 563.055 71.6289 564.239 71.6289C565.352 71.6289 566.325 71.8633 567.157 72.332C568 72.8008 568.715 73.4688 569.301 74.3359C569.899 75.1914 570.379 76.2051 570.743 77.377C571.106 78.5371 571.37 79.8086 571.534 81.1914V82C571.37 83.3242 571.106 84.5547 570.743 85.6914C570.379 86.8281 569.899 87.8242 569.301 88.6797C568.715 89.5234 568 90.1797 567.157 90.6484C566.313 91.1172 565.329 91.3516 564.204 91.3516C563.02 91.3516 561.965 91.1113 561.04 90.6309C560.125 90.1504 559.352 89.4766 558.719 88.6094C558.098 87.7422 557.624 86.7227 557.295 85.5508C556.967 84.3789 556.803 83.1016 556.803 81.7188ZM561.866 81.3496V81.7188C561.866 82.5039 561.924 83.2363 562.041 83.916C562.17 84.5957 562.375 85.1992 562.657 85.7266C562.95 86.2422 563.325 86.6465 563.782 86.9395C564.25 87.2207 564.819 87.3613 565.487 87.3613C566.354 87.3613 567.069 87.168 567.631 86.7812C568.194 86.3828 568.622 85.8379 568.915 85.1465C569.219 84.4551 569.395 83.6582 569.442 82.7559V80.4531C569.407 79.7148 569.301 79.0527 569.125 78.4668C568.961 77.8691 568.715 77.3594 568.387 76.9375C568.071 76.5156 567.672 76.1875 567.192 75.9531C566.723 75.7188 566.166 75.6016 565.522 75.6016C564.866 75.6016 564.303 75.7539 563.834 76.0586C563.366 76.3516 562.985 76.7559 562.692 77.2715C562.411 77.7871 562.2 78.3965 562.059 79.0996C561.93 79.791 561.866 80.541 561.866 81.3496ZM594.067 76.1289V91H589.004V71.9805H593.768L594.067 76.1289ZM599.797 71.8574L599.709 76.5508C599.463 76.5156 599.164 76.4863 598.813 76.4629C598.473 76.4277 598.162 76.4102 597.881 76.4102C597.166 76.4102 596.545 76.5039 596.018 76.6914C595.502 76.8672 595.069 77.1309 594.717 77.4824C594.377 77.834 594.119 78.2617 593.944 78.7656C593.78 79.2695 593.686 79.8438 593.662 80.4883L592.643 80.1719C592.643 78.9414 592.766 77.8105 593.012 76.7793C593.258 75.7363 593.616 74.8281 594.084 74.0547C594.565 73.2812 595.151 72.6836 595.842 72.2617C596.534 71.8398 597.325 71.6289 598.215 71.6289C598.496 71.6289 598.784 71.6523 599.076 71.6992C599.369 71.7344 599.61 71.7871 599.797 71.8574ZM611.67 91.3516C610.194 91.3516 608.869 91.1172 607.698 90.6484C606.526 90.168 605.53 89.5059 604.709 88.6621C603.901 87.8184 603.28 86.8398 602.846 85.7266C602.412 84.6016 602.196 83.4062 602.196 82.1406V81.4375C602.196 79.9961 602.401 78.6777 602.811 77.4824C603.221 76.2871 603.807 75.25 604.569 74.3711C605.342 73.4922 606.28 72.8184 607.381 72.3496C608.483 71.8691 609.725 71.6289 611.108 71.6289C612.455 71.6289 613.651 71.8516 614.694 72.2969C615.737 72.7422 616.61 73.375 617.313 74.1953C618.028 75.0156 618.567 76 618.93 77.1484C619.293 78.2852 619.475 79.5508 619.475 80.9453V83.0547H604.358V79.6797H614.5V79.293C614.5 78.5898 614.371 77.9629 614.114 77.4121C613.867 76.8496 613.492 76.4043 612.989 76.0762C612.485 75.748 611.84 75.584 611.055 75.584C610.387 75.584 609.813 75.7305 609.332 76.0234C608.852 76.3164 608.459 76.7266 608.155 77.2539C607.862 77.7812 607.639 78.4023 607.487 79.1172C607.346 79.8203 607.276 80.5938 607.276 81.4375V82.1406C607.276 82.9023 607.381 83.6055 607.592 84.25C607.815 84.8945 608.125 85.4512 608.524 85.9199C608.934 86.3887 609.426 86.752 610 87.0098C610.586 87.2676 611.248 87.3965 611.987 87.3965C612.901 87.3965 613.75 87.2207 614.535 86.8691C615.332 86.5059 616.018 85.9609 616.592 85.2344L619.053 87.9062C618.655 88.4805 618.11 89.0312 617.418 89.5586C616.739 90.0859 615.918 90.5195 614.957 90.8594C613.996 91.1875 612.901 91.3516 611.67 91.3516ZM633.721 85.7441C633.721 85.3809 633.615 85.0527 633.404 84.7598C633.194 84.4668 632.801 84.1973 632.227 83.9512C631.664 83.6934 630.85 83.459 629.783 83.248C628.822 83.0371 627.926 82.7734 627.094 82.457C626.274 82.1289 625.559 81.7363 624.949 81.2793C624.352 80.8223 623.883 80.2832 623.543 79.6621C623.203 79.0293 623.033 78.3086 623.033 77.5C623.033 76.7031 623.203 75.9531 623.543 75.25C623.895 74.5469 624.393 73.9258 625.037 73.3867C625.694 72.8359 626.49 72.4082 627.428 72.1035C628.377 71.7871 629.444 71.6289 630.627 71.6289C632.279 71.6289 633.697 71.8926 634.881 72.4199C636.076 72.9473 636.99 73.6738 637.623 74.5996C638.268 75.5137 638.59 76.5566 638.59 77.7285H633.527C633.527 77.2363 633.422 76.7969 633.211 76.4102C633.012 76.0117 632.695 75.7012 632.262 75.4785C631.84 75.2441 631.289 75.127 630.61 75.127C630.047 75.127 629.561 75.2266 629.151 75.4258C628.74 75.6133 628.424 75.8711 628.201 76.1992C627.99 76.5156 627.885 76.8672 627.885 77.2539C627.885 77.5469 627.944 77.8105 628.061 78.0449C628.19 78.2676 628.395 78.4727 628.676 78.6602C628.957 78.8477 629.32 79.0234 629.766 79.1875C630.223 79.3398 630.785 79.4805 631.453 79.6094C632.824 79.8906 634.049 80.2598 635.127 80.7168C636.205 81.1621 637.061 81.7715 637.694 82.5449C638.326 83.3066 638.643 84.3086 638.643 85.5508C638.643 86.3945 638.455 87.168 638.08 87.8711C637.705 88.5742 637.166 89.1895 636.463 89.7168C635.76 90.2324 634.916 90.6367 633.932 90.9297C632.959 91.2109 631.863 91.3516 630.645 91.3516C628.875 91.3516 627.375 91.0352 626.145 90.4023C624.926 89.7695 624 88.9668 623.367 87.9941C622.746 87.0098 622.436 86.002 622.436 84.9707H627.235C627.258 85.6621 627.434 86.2188 627.762 86.6406C628.102 87.0625 628.529 87.3672 629.045 87.5547C629.572 87.7422 630.141 87.8359 630.75 87.8359C631.406 87.8359 631.951 87.748 632.385 87.5723C632.819 87.3848 633.147 87.1387 633.369 86.834C633.604 86.5176 633.721 86.1543 633.721 85.7441ZM642.201 81.6836V81.3145C642.201 79.9199 642.4 78.6367 642.799 77.4648C643.197 76.2812 643.777 75.2559 644.539 74.3887C645.301 73.5215 646.238 72.8477 647.352 72.3672C648.465 71.875 649.742 71.6289 651.184 71.6289C652.625 71.6289 653.908 71.875 655.033 72.3672C656.158 72.8477 657.102 73.5215 657.863 74.3887C658.637 75.2559 659.223 76.2812 659.621 77.4648C660.02 78.6367 660.219 79.9199 660.219 81.3145V81.6836C660.219 83.0664 660.02 84.3496 659.621 85.5332C659.223 86.7051 658.637 87.7305 657.863 88.6094C657.102 89.4766 656.164 90.1504 655.051 90.6309C653.938 91.1113 652.66 91.3516 651.219 91.3516C649.777 91.3516 648.494 91.1113 647.369 90.6309C646.256 90.1504 645.313 89.4766 644.539 88.6094C643.777 87.7305 643.197 86.7051 642.799 85.5332C642.4 84.3496 642.201 83.0664 642.201 81.6836ZM647.264 81.3145V81.6836C647.264 82.4805 647.334 83.2246 647.475 83.916C647.615 84.6074 647.838 85.2168 648.143 85.7441C648.459 86.2598 648.869 86.6641 649.373 86.957C649.877 87.25 650.492 87.3965 651.219 87.3965C651.922 87.3965 652.525 87.25 653.029 86.957C653.533 86.6641 653.938 86.2598 654.242 85.7441C654.547 85.2168 654.77 84.6074 654.91 83.916C655.063 83.2246 655.139 82.4805 655.139 81.6836V81.3145C655.139 80.541 655.063 79.8145 654.91 79.1348C654.77 78.4434 654.541 77.834 654.225 77.3066C653.92 76.7676 653.516 76.3457 653.012 76.041C652.508 75.7363 651.899 75.584 651.184 75.584C650.469 75.584 649.859 75.7363 649.356 76.041C648.863 76.3457 648.459 76.7676 648.143 77.3066C647.838 77.834 647.615 78.4434 647.475 79.1348C647.334 79.8145 647.264 80.541 647.264 81.3145ZM675.66 86.4473V71.9805H680.723V91H675.959L675.66 86.4473ZM676.223 82.5449L677.717 82.5098C677.717 83.7754 677.57 84.9531 677.277 86.043C676.984 87.1211 676.545 88.0586 675.959 88.8555C675.373 89.6406 674.635 90.2559 673.744 90.7012C672.854 91.1348 671.805 91.3516 670.598 91.3516C669.672 91.3516 668.816 91.2227 668.031 90.9648C667.258 90.6953 666.59 90.2793 666.027 89.7168C665.477 89.1426 665.043 88.4102 664.727 87.5195C664.422 86.6172 664.27 85.5332 664.27 84.2676V71.9805H669.332V84.3027C669.332 84.8652 669.396 85.3398 669.525 85.7266C669.666 86.1133 669.859 86.4297 670.105 86.6758C670.352 86.9219 670.639 87.0977 670.967 87.2031C671.307 87.3086 671.682 87.3613 672.092 87.3613C673.135 87.3613 673.955 87.1504 674.553 86.7285C675.162 86.3066 675.59 85.7324 675.836 85.0059C676.094 84.2676 676.223 83.4473 676.223 82.5449ZM690.732 76.1289V91H685.67V71.9805H690.434L690.732 76.1289ZM696.463 71.8574L696.375 76.5508C696.129 76.5156 695.83 76.4863 695.478 76.4629C695.139 76.4277 694.828 76.4102 694.547 76.4102C693.832 76.4102 693.211 76.5039 692.684 76.6914C692.168 76.8672 691.734 77.1309 691.383 77.4824C691.043 77.834 690.785 78.2617 690.609 78.7656C690.445 79.2695 690.351 79.8438 690.328 80.4883L689.309 80.1719C689.309 78.9414 689.432 77.8105 689.678 76.7793C689.924 75.7363 690.281 74.8281 690.75 74.0547C691.23 73.2812 691.816 72.6836 692.508 72.2617C693.199 71.8398 693.99 71.6289 694.881 71.6289C695.162 71.6289 695.449 71.6523 695.742 71.6992C696.035 71.7344 696.275 71.7871 696.463 71.8574ZM707.439 87.3965C708.06 87.3965 708.611 87.2793 709.092 87.0449C709.572 86.7988 709.947 86.459 710.217 86.0254C710.498 85.5801 710.644 85.0586 710.656 84.4609H715.42C715.408 85.7969 715.051 86.9863 714.348 88.0293C713.644 89.0605 712.701 89.875 711.517 90.4727C710.334 91.0586 709.01 91.3516 707.545 91.3516C706.068 91.3516 704.779 91.1055 703.678 90.6133C702.588 90.1211 701.68 89.4414 700.953 88.5742C700.226 87.6953 699.681 86.6758 699.318 85.5156C698.955 84.3438 698.773 83.0898 698.773 81.7539V81.2441C698.773 79.8965 698.955 78.6426 699.318 77.4824C699.681 76.3105 700.226 75.291 700.953 74.4238C701.68 73.5449 702.588 72.8594 703.678 72.3672C704.767 71.875 706.045 71.6289 707.51 71.6289C709.068 71.6289 710.433 71.9277 711.605 72.5254C712.789 73.123 713.715 73.9785 714.383 75.0918C715.062 76.1934 715.408 77.5 715.42 79.0117H710.656C710.644 78.3789 710.51 77.8047 710.252 77.2891C710.006 76.7734 709.642 76.3633 709.162 76.0586C708.693 75.7422 708.113 75.584 707.422 75.584C706.683 75.584 706.08 75.7422 705.611 76.0586C705.142 76.3633 704.779 76.7852 704.521 77.3242C704.264 77.8516 704.082 78.4551 703.976 79.1348C703.883 79.8027 703.836 80.5059 703.836 81.2441V81.7539C703.836 82.4922 703.883 83.2012 703.976 83.8809C704.07 84.5605 704.246 85.1641 704.504 85.6914C704.773 86.2188 705.142 86.6348 705.611 86.9395C706.08 87.2441 706.689 87.3965 707.439 87.3965ZM728.189 91.3516C726.713 91.3516 725.388 91.1172 724.217 90.6484C723.045 90.168 722.049 89.5059 721.228 88.6621C720.42 87.8184 719.799 86.8398 719.365 85.7266C718.931 84.6016 718.715 83.4062 718.715 82.1406V81.4375C718.715 79.9961 718.92 78.6777 719.33 77.4824C719.74 76.2871 720.326 75.25 721.088 74.3711C721.861 73.4922 722.799 72.8184 723.9 72.3496C725.002 71.8691 726.244 71.6289 727.627 71.6289C728.974 71.6289 730.17 71.8516 731.213 72.2969C732.256 72.7422 733.129 73.375 733.832 74.1953C734.547 75.0156 735.086 76 735.449 77.1484C735.812 78.2852 735.994 79.5508 735.994 80.9453V83.0547H720.877V79.6797H731.019V79.293C731.019 78.5898 730.89 77.9629 730.633 77.4121C730.386 76.8496 730.011 76.4043 729.508 76.0762C729.004 75.748 728.359 75.584 727.574 75.584C726.906 75.584 726.332 75.7305 725.851 76.0234C725.371 76.3164 724.978 76.7266 724.674 77.2539C724.381 77.7812 724.158 78.4023 724.006 79.1172C723.865 79.8203 723.795 80.5938 723.795 81.4375V82.1406C723.795 82.9023 723.9 83.6055 724.111 84.25C724.334 84.8945 724.644 85.4512 725.043 85.9199C725.453 86.3887 725.945 86.752 726.519 87.0098C727.105 87.2676 727.767 87.3965 728.506 87.3965C729.42 87.3965 730.269 87.2207 731.054 86.8691C731.851 86.5059 732.537 85.9609 733.111 85.2344L735.572 87.9062C735.174 88.4805 734.629 89.0312 733.937 89.5586C733.258 90.0859 732.437 90.5195 731.476 90.8594C730.515 91.1875 729.42 91.3516 728.189 91.3516ZM750.24 85.7441C750.24 85.3809 750.134 85.0527 749.924 84.7598C749.713 84.4668 749.32 84.1973 748.746 83.9512C748.183 83.6934 747.369 83.459 746.302 83.248C745.341 83.0371 744.445 82.7734 743.613 82.457C742.793 82.1289 742.078 81.7363 741.468 81.2793C740.871 80.8223 740.402 80.2832 740.062 79.6621C739.722 79.0293 739.552 78.3086 739.552 77.5C739.552 76.7031 739.722 75.9531 740.062 75.25C740.414 74.5469 740.912 73.9258 741.556 73.3867C742.213 72.8359 743.009 72.4082 743.947 72.1035C744.896 71.7871 745.963 71.6289 747.146 71.6289C748.799 71.6289 750.216 71.8926 751.4 72.4199C752.595 72.9473 753.509 73.6738 754.142 74.5996C754.787 75.5137 755.109 76.5566 755.109 77.7285H750.047C750.047 77.2363 749.941 76.7969 749.73 76.4102C749.531 76.0117 749.215 75.7012 748.781 75.4785C748.359 75.2441 747.808 75.127 747.129 75.127C746.566 75.127 746.08 75.2266 745.67 75.4258C745.259 75.6133 744.943 75.8711 744.72 76.1992C744.509 76.5156 744.404 76.8672 744.404 77.2539C744.404 77.5469 744.463 77.8105 744.58 78.0449C744.709 78.2676 744.914 78.4727 745.195 78.6602C745.476 78.8477 745.84 79.0234 746.285 79.1875C746.742 79.3398 747.304 79.4805 747.972 79.6094C749.343 79.8906 750.568 80.2598 751.646 80.7168C752.724 81.1621 753.58 81.7715 754.213 82.5449C754.845 83.3066 755.162 84.3086 755.162 85.5508C755.162 86.3945 754.974 87.168 754.599 87.8711C754.224 88.5742 753.685 89.1895 752.982 89.7168C752.279 90.2324 751.435 90.6367 750.451 90.9297C749.478 91.2109 748.383 91.3516 747.164 91.3516C745.394 91.3516 743.894 91.0352 742.664 90.4023C741.445 89.7695 740.519 88.9668 739.886 87.9941C739.265 87.0098 738.955 86.002 738.955 84.9707H743.754C743.777 85.6621 743.953 86.2188 744.281 86.6406C744.621 87.0625 745.049 87.3672 745.564 87.5547C746.091 87.7422 746.66 87.8359 747.269 87.8359C747.925 87.8359 748.47 87.748 748.904 87.5723C749.338 87.3848 749.666 87.1387 749.888 86.834C750.123 86.5176 750.24 86.1543 750.24 85.7441Z" fill="white"/>
<circle cx="95.5" cy="78.5" r="53.5" fill="#114DFF"/>
<path d="M121.604 113.372L121.561 113.379L121.31 113.503L121.239 113.517L121.189 113.503L120.938 113.376C120.9 113.366 120.872 113.373 120.853 113.397L120.839 113.432L120.779 114.948L120.796 115.019L120.832 115.065L121.2 115.327L121.253 115.341L121.296 115.327L121.664 115.065L121.707 115.008L121.721 114.948L121.661 113.436C121.651 113.398 121.632 113.377 121.604 113.372ZM122.539 112.972L122.489 112.979L121.838 113.308L121.802 113.344L121.792 113.383L121.855 114.906L121.873 114.948L121.901 114.977L122.613 115.302C122.658 115.314 122.692 115.305 122.716 115.274L122.73 115.224L122.61 113.05C122.598 113.005 122.574 112.979 122.539 112.972ZM120.007 112.979C119.991 112.97 119.972 112.966 119.955 112.97C119.937 112.974 119.921 112.985 119.911 113L119.89 113.05L119.769 115.224C119.772 115.267 119.792 115.295 119.829 115.309L119.883 115.302L120.594 114.973L120.63 114.945L120.641 114.906L120.704 113.383L120.694 113.34L120.658 113.305L120.007 112.979Z" fill="#3CE5A7"/>
<path d="M109.254 50.295C111.372 44.0971 119.936 43.9094 122.447 49.7319L122.659 50.2986L125.517 58.6569C126.172 60.5738 127.231 62.3279 128.621 63.8009C130.012 65.2739 131.702 66.4316 133.578 67.1959L134.347 67.4827L142.705 70.3373C148.903 72.4552 149.091 81.019 143.272 83.53L142.705 83.7425L134.347 86.6007C132.429 87.2552 130.674 88.3135 129.201 89.7041C127.727 91.0947 126.569 92.7852 125.804 94.6615L125.517 95.4265L122.663 103.788C120.545 109.986 111.981 110.174 109.474 104.355L109.254 103.788L106.399 95.43C105.745 93.5125 104.687 91.7577 103.296 90.2841C101.905 88.8104 100.215 87.6522 98.3385 86.8875L97.5735 86.6007L89.2152 83.7461C83.0138 81.6282 82.826 73.0644 88.6485 70.5569L89.2152 70.3373L97.5735 67.4827C99.4904 66.8277 101.245 65.7693 102.718 64.3787C104.191 62.9882 105.348 61.2979 106.113 59.4219L106.399 58.6569L109.254 50.295ZM144.292 38.0834C144.954 38.0834 145.604 38.2692 146.166 38.6198C146.728 38.9704 147.181 39.4717 147.472 40.0667L147.642 40.4811L148.882 44.1148L152.519 45.3544C153.183 45.58 153.765 45.9976 154.191 46.5544C154.618 47.1111 154.869 47.7819 154.914 48.4818C154.959 49.1816 154.795 49.879 154.443 50.4855C154.091 51.0921 153.567 51.5805 152.937 51.8888L152.519 52.0588L148.885 53.2984L147.646 56.9357C147.42 57.5995 147.002 58.1813 146.445 58.6073C145.888 59.0333 145.217 59.2845 144.517 59.3288C143.817 59.3732 143.12 59.2089 142.514 58.8566C141.907 58.5043 141.419 57.98 141.111 57.35L140.941 56.9357L139.702 53.3019L136.064 52.0623C135.4 51.8367 134.818 51.4191 134.392 50.8624C133.966 50.3056 133.714 49.6348 133.669 48.935C133.624 48.2351 133.788 47.5377 134.14 46.9312C134.492 46.3247 135.017 45.8363 135.646 45.528L136.064 45.358L139.698 44.1184L140.938 40.4811C141.177 39.7813 141.628 39.1739 142.23 38.7439C142.831 38.3139 143.552 38.0829 144.292 38.0834Z" fill="#3CE5A7"/>
<defs>
<filter id="filter0_d_138_889" x="0" y="0" width="951" height="165" filterUnits="userSpaceOnUse" color-interpolation-filters="sRGB">
<feFlood flood-opacity="0" result="BackgroundImageFix"/>
<feColorMatrix in="SourceAlpha" type="matrix" values="0 0 0 0 0 0 0 0 0 0 0 0 0 0 0 0 0 0 127 0" result="hardAlpha"/>
<feOffset dy="4"/>
<feGaussianBlur stdDeviation="2"/>
<feComposite in2="hardAlpha" operator="out"/>
<feColorMatrix type="matrix" values="0 0 0 0 0 0 0 0 0 0 0 0 0 0 0 0 0 0 0.13 0"/>
<feBlend mode="normal" in2="BackgroundImageFix" result="effect1_dropShadow_138_889"/>
<feBlend mode="normal" in="SourceGraphic" in2="effect1_dropShadow_138_889" result="shape"/>
</filter>
<clipPath id="clip0_138_889">
<rect width="24" height="24" fill="white" transform="translate(93 68)"/>
</clipPath>
</defs>
</svg>
