<svg width="408" height="250" viewBox="0 0 408 250" fill="none" xmlns="http://www.w3.org/2000/svg">
<g filter="url(#filter0_d_138_1018)">
<rect x="4" y="38" width="400" height="204" rx="102" fill="#06288B"/>
</g>
<path d="M89.05 114.141L82.8625 133H77.8781L86.3313 110.25H89.5031L89.05 114.141ZM94.1906 133L87.9875 114.141L87.4875 110.25H90.6906L99.1906 133H94.1906ZM93.9094 124.531V128.203H81.8938V124.531H93.9094ZM107.244 110.25V133H102.573V110.25H107.244ZM121.189 121.469V125H112.361V121.469H121.189ZM133.68 133.312C132.368 133.312 131.19 133.104 130.149 132.688C129.107 132.26 128.222 131.672 127.493 130.922C126.774 130.172 126.222 129.302 125.836 128.312C125.451 127.312 125.258 126.25 125.258 125.125V124.5C125.258 123.219 125.44 122.047 125.805 120.984C126.17 119.922 126.69 119 127.368 118.219C128.055 117.438 128.888 116.839 129.868 116.422C130.847 115.995 131.951 115.781 133.18 115.781C134.378 115.781 135.44 115.979 136.368 116.375C137.295 116.771 138.071 117.333 138.696 118.062C139.331 118.792 139.81 119.667 140.133 120.688C140.456 121.698 140.618 122.823 140.618 124.062V125.938H127.18V122.938H136.196V122.594C136.196 121.969 136.081 121.411 135.852 120.922C135.633 120.422 135.3 120.026 134.852 119.734C134.404 119.443 133.831 119.297 133.133 119.297C132.539 119.297 132.029 119.427 131.602 119.688C131.175 119.948 130.826 120.312 130.555 120.781C130.295 121.25 130.097 121.802 129.961 122.438C129.836 123.062 129.774 123.75 129.774 124.5V125.125C129.774 125.802 129.868 126.427 130.055 127C130.253 127.573 130.529 128.068 130.883 128.484C131.248 128.901 131.685 129.224 132.196 129.453C132.716 129.682 133.305 129.797 133.961 129.797C134.774 129.797 135.529 129.641 136.227 129.328C136.935 129.005 137.545 128.521 138.055 127.875L140.243 130.25C139.888 130.76 139.404 131.25 138.789 131.719C138.185 132.188 137.456 132.573 136.602 132.875C135.748 133.167 134.774 133.312 133.68 133.312ZM148.546 119.703V133H144.046V116.094H148.265L148.546 119.703ZM147.89 123.953H146.671C146.671 122.703 146.833 121.578 147.156 120.578C147.479 119.568 147.932 118.708 148.515 118C149.098 117.281 149.791 116.734 150.593 116.359C151.406 115.974 152.312 115.781 153.312 115.781C154.104 115.781 154.827 115.896 155.484 116.125C156.14 116.354 156.702 116.719 157.171 117.219C157.65 117.719 158.015 118.38 158.265 119.203C158.525 120.026 158.656 121.031 158.656 122.219V133H154.124V122.203C154.124 121.453 154.02 120.87 153.812 120.453C153.604 120.036 153.296 119.745 152.89 119.578C152.494 119.401 152.005 119.312 151.421 119.312C150.817 119.312 150.291 119.432 149.843 119.672C149.406 119.911 149.041 120.245 148.749 120.672C148.468 121.089 148.255 121.578 148.109 122.141C147.963 122.703 147.89 123.307 147.89 123.953ZM172.163 129.188V121.656C172.163 121.115 172.074 120.651 171.897 120.266C171.72 119.87 171.444 119.562 171.069 119.344C170.704 119.125 170.23 119.016 169.647 119.016C169.147 119.016 168.715 119.104 168.35 119.281C167.985 119.448 167.704 119.693 167.506 120.016C167.308 120.328 167.209 120.698 167.209 121.125H162.709C162.709 120.406 162.876 119.724 163.209 119.078C163.543 118.432 164.027 117.865 164.663 117.375C165.298 116.875 166.053 116.484 166.928 116.203C167.814 115.922 168.803 115.781 169.897 115.781C171.209 115.781 172.376 116 173.397 116.438C174.418 116.875 175.22 117.531 175.803 118.406C176.397 119.281 176.694 120.375 176.694 121.688V128.922C176.694 129.849 176.751 130.609 176.866 131.203C176.98 131.786 177.147 132.297 177.366 132.734V133H172.819C172.6 132.542 172.433 131.969 172.319 131.281C172.215 130.583 172.163 129.885 172.163 129.188ZM172.756 122.703L172.788 125.25H170.272C169.678 125.25 169.163 125.318 168.725 125.453C168.288 125.589 167.928 125.781 167.647 126.031C167.366 126.271 167.157 126.552 167.022 126.875C166.897 127.198 166.834 127.552 166.834 127.938C166.834 128.323 166.923 128.672 167.1 128.984C167.277 129.286 167.532 129.526 167.866 129.703C168.199 129.87 168.59 129.953 169.038 129.953C169.715 129.953 170.303 129.818 170.803 129.547C171.303 129.276 171.689 128.943 171.959 128.547C172.241 128.151 172.386 127.776 172.397 127.422L173.584 129.328C173.418 129.755 173.189 130.198 172.897 130.656C172.616 131.115 172.256 131.547 171.819 131.953C171.381 132.349 170.855 132.677 170.241 132.938C169.626 133.188 168.897 133.312 168.053 133.312C166.98 133.312 166.006 133.099 165.131 132.672C164.267 132.234 163.579 131.635 163.069 130.875C162.569 130.104 162.319 129.229 162.319 128.25C162.319 127.365 162.485 126.578 162.819 125.891C163.152 125.203 163.642 124.625 164.288 124.156C164.944 123.677 165.761 123.318 166.741 123.078C167.72 122.828 168.855 122.703 170.147 122.703H172.756ZM181.122 109H185.622V129.125L185.169 133H181.122V109ZM196.326 124.375V124.703C196.326 125.964 196.19 127.12 195.919 128.172C195.659 129.224 195.253 130.135 194.701 130.906C194.149 131.667 193.461 132.26 192.638 132.688C191.826 133.104 190.867 133.312 189.763 133.312C188.732 133.312 187.836 133.104 187.076 132.688C186.326 132.271 185.695 131.682 185.185 130.922C184.675 130.161 184.263 129.271 183.951 128.25C183.638 127.229 183.404 126.115 183.247 124.906V124.188C183.404 122.979 183.638 121.865 183.951 120.844C184.263 119.823 184.675 118.932 185.185 118.172C185.695 117.411 186.326 116.823 187.076 116.406C187.826 115.99 188.711 115.781 189.732 115.781C190.846 115.781 191.815 115.995 192.638 116.422C193.471 116.839 194.159 117.432 194.701 118.203C195.253 118.964 195.659 119.87 195.919 120.922C196.19 121.964 196.326 123.115 196.326 124.375ZM191.826 124.703V124.375C191.826 123.688 191.774 123.042 191.669 122.438C191.576 121.823 191.409 121.286 191.169 120.828C190.93 120.359 190.602 119.99 190.185 119.719C189.779 119.448 189.253 119.312 188.607 119.312C187.992 119.312 187.471 119.417 187.044 119.625C186.617 119.833 186.263 120.125 185.982 120.5C185.711 120.875 185.508 121.323 185.372 121.844C185.237 122.354 185.154 122.917 185.122 123.531V125.578C185.154 126.401 185.289 127.13 185.529 127.766C185.779 128.391 186.154 128.885 186.654 129.25C187.164 129.604 187.826 129.781 188.638 129.781C189.274 129.781 189.8 129.656 190.216 129.406C190.633 129.156 190.956 128.802 191.185 128.344C191.425 127.885 191.591 127.349 191.685 126.734C191.779 126.109 191.826 125.432 191.826 124.703ZM204.833 109V133H200.317V109H204.833ZM217.292 133.312C215.98 133.312 214.803 133.104 213.761 132.688C212.72 132.26 211.834 131.672 211.105 130.922C210.386 130.172 209.834 129.302 209.449 128.312C209.063 127.312 208.871 126.25 208.871 125.125V124.5C208.871 123.219 209.053 122.047 209.417 120.984C209.782 119.922 210.303 119 210.98 118.219C211.667 117.438 212.501 116.839 213.48 116.422C214.459 115.995 215.563 115.781 216.792 115.781C217.99 115.781 219.053 115.979 219.98 116.375C220.907 116.771 221.683 117.333 222.308 118.062C222.944 118.792 223.423 119.667 223.746 120.688C224.069 121.698 224.23 122.823 224.23 124.062V125.938H210.792V122.938H219.808V122.594C219.808 121.969 219.694 121.411 219.464 120.922C219.246 120.422 218.912 120.026 218.464 119.734C218.016 119.443 217.444 119.297 216.746 119.297C216.152 119.297 215.641 119.427 215.214 119.688C214.787 119.948 214.438 120.312 214.167 120.781C213.907 121.25 213.709 121.802 213.574 122.438C213.449 123.062 213.386 123.75 213.386 124.5V125.125C213.386 125.802 213.48 126.427 213.667 127C213.865 127.573 214.141 128.068 214.496 128.484C214.86 128.901 215.298 129.224 215.808 129.453C216.329 129.682 216.917 129.797 217.574 129.797C218.386 129.797 219.141 129.641 219.839 129.328C220.548 129.005 221.157 128.521 221.667 127.875L223.855 130.25C223.501 130.76 223.016 131.25 222.402 131.719C221.798 132.188 221.069 132.573 220.214 132.875C219.36 133.167 218.386 133.312 217.292 133.312ZM237.737 129.312V109H242.268V133H238.19L237.737 129.312ZM227.049 124.75V124.422C227.049 123.13 227.195 121.958 227.487 120.906C227.779 119.844 228.206 118.932 228.768 118.172C229.331 117.411 230.023 116.823 230.846 116.406C231.669 115.99 232.607 115.781 233.659 115.781C234.648 115.781 235.513 115.99 236.253 116.406C237.003 116.823 237.638 117.417 238.159 118.188C238.69 118.948 239.117 119.849 239.44 120.891C239.763 121.922 239.997 123.052 240.143 124.281V125C239.997 126.177 239.763 127.271 239.44 128.281C239.117 129.292 238.69 130.177 238.159 130.938C237.638 131.688 237.003 132.271 236.253 132.688C235.503 133.104 234.628 133.312 233.628 133.312C232.575 133.312 231.638 133.099 230.815 132.672C230.003 132.245 229.315 131.646 228.753 130.875C228.2 130.104 227.779 129.198 227.487 128.156C227.195 127.115 227.049 125.979 227.049 124.75ZM231.549 124.422V124.75C231.549 125.448 231.601 126.099 231.706 126.703C231.82 127.307 232.003 127.844 232.253 128.312C232.513 128.771 232.846 129.13 233.253 129.391C233.669 129.641 234.174 129.766 234.768 129.766C235.539 129.766 236.174 129.594 236.674 129.25C237.174 128.896 237.555 128.411 237.815 127.797C238.086 127.182 238.242 126.474 238.284 125.672V123.625C238.253 122.969 238.159 122.38 238.003 121.859C237.857 121.328 237.638 120.875 237.346 120.5C237.065 120.125 236.711 119.833 236.284 119.625C235.867 119.417 235.372 119.312 234.799 119.312C234.216 119.312 233.716 119.448 233.299 119.719C232.883 119.979 232.544 120.339 232.284 120.797C232.034 121.255 231.846 121.797 231.721 122.422C231.607 123.036 231.549 123.703 231.549 124.422ZM263.954 116.094V119.281H254.11V116.094H263.954ZM256.548 111.922H261.048V127.906C261.048 128.396 261.11 128.771 261.235 129.031C261.37 129.292 261.568 129.474 261.829 129.578C262.089 129.672 262.417 129.719 262.813 129.719C263.094 129.719 263.344 129.708 263.563 129.688C263.792 129.656 263.985 129.625 264.141 129.594L264.157 132.906C263.771 133.031 263.355 133.13 262.907 133.203C262.459 133.276 261.964 133.312 261.423 133.312C260.433 133.312 259.568 133.151 258.829 132.828C258.1 132.495 257.537 131.964 257.141 131.234C256.745 130.505 256.548 129.547 256.548 128.359V111.922ZM266.351 124.719V124.391C266.351 123.151 266.528 122.01 266.883 120.969C267.237 119.917 267.752 119.005 268.429 118.234C269.106 117.464 269.94 116.865 270.929 116.438C271.919 116 273.054 115.781 274.336 115.781C275.617 115.781 276.758 116 277.758 116.438C278.758 116.865 279.596 117.464 280.273 118.234C280.961 119.005 281.481 119.917 281.836 120.969C282.19 122.01 282.367 123.151 282.367 124.391V124.719C282.367 125.948 282.19 127.089 281.836 128.141C281.481 129.182 280.961 130.094 280.273 130.875C279.596 131.646 278.763 132.245 277.773 132.672C276.784 133.099 275.648 133.312 274.367 133.312C273.086 133.312 271.945 133.099 270.945 132.672C269.955 132.245 269.117 131.646 268.429 130.875C267.752 130.094 267.237 129.182 266.883 128.141C266.528 127.089 266.351 125.948 266.351 124.719ZM270.851 124.391V124.719C270.851 125.427 270.914 126.089 271.039 126.703C271.164 127.318 271.362 127.859 271.633 128.328C271.914 128.786 272.278 129.146 272.726 129.406C273.174 129.667 273.721 129.797 274.367 129.797C274.992 129.797 275.528 129.667 275.976 129.406C276.424 129.146 276.784 128.786 277.054 128.328C277.325 127.859 277.523 127.318 277.648 126.703C277.784 126.089 277.851 125.427 277.851 124.719V124.391C277.851 123.703 277.784 123.057 277.648 122.453C277.523 121.839 277.32 121.297 277.039 120.828C276.768 120.349 276.409 119.974 275.961 119.703C275.513 119.432 274.971 119.297 274.336 119.297C273.7 119.297 273.159 119.432 272.711 119.703C272.273 119.974 271.914 120.349 271.633 120.828C271.362 121.297 271.164 121.839 271.039 122.453C270.914 123.057 270.851 123.703 270.851 124.391ZM285.374 124.719V124.391C285.374 123.151 285.551 122.01 285.905 120.969C286.259 119.917 286.775 119.005 287.452 118.234C288.129 117.464 288.962 116.865 289.952 116.438C290.941 116 292.077 115.781 293.358 115.781C294.639 115.781 295.78 116 296.78 116.438C297.78 116.865 298.619 117.464 299.296 118.234C299.983 119.005 300.504 119.917 300.858 120.969C301.212 122.01 301.389 123.151 301.389 124.391V124.719C301.389 125.948 301.212 127.089 300.858 128.141C300.504 129.182 299.983 130.094 299.296 130.875C298.619 131.646 297.785 132.245 296.796 132.672C295.806 133.099 294.671 133.312 293.389 133.312C292.108 133.312 290.967 133.099 289.967 132.672C288.978 132.245 288.139 131.646 287.452 130.875C286.775 130.094 286.259 129.182 285.905 128.141C285.551 127.089 285.374 125.948 285.374 124.719ZM289.874 124.391V124.719C289.874 125.427 289.936 126.089 290.061 126.703C290.186 127.318 290.384 127.859 290.655 128.328C290.936 128.786 291.301 129.146 291.749 129.406C292.197 129.667 292.744 129.797 293.389 129.797C294.014 129.797 294.551 129.667 294.999 129.406C295.447 129.146 295.806 128.786 296.077 128.328C296.348 127.859 296.546 127.318 296.671 126.703C296.806 126.089 296.874 125.427 296.874 124.719V124.391C296.874 123.703 296.806 123.057 296.671 122.453C296.546 121.839 296.342 121.297 296.061 120.828C295.79 120.349 295.431 119.974 294.983 119.703C294.535 119.432 293.994 119.297 293.358 119.297C292.723 119.297 292.181 119.432 291.733 119.703C291.296 119.974 290.936 120.349 290.655 120.828C290.384 121.297 290.186 121.839 290.061 122.453C289.936 123.057 289.874 123.703 289.874 124.391ZM309.865 109V133H305.349V109H309.865ZM323.684 128.328C323.684 128.005 323.591 127.714 323.403 127.453C323.216 127.193 322.867 126.953 322.356 126.734C321.856 126.505 321.132 126.297 320.184 126.109C319.33 125.922 318.533 125.688 317.794 125.406C317.065 125.115 316.429 124.766 315.888 124.359C315.356 123.953 314.94 123.474 314.638 122.922C314.335 122.359 314.184 121.719 314.184 121C314.184 120.292 314.335 119.625 314.638 119C314.95 118.375 315.393 117.823 315.966 117.344C316.549 116.854 317.257 116.474 318.091 116.203C318.934 115.922 319.882 115.781 320.934 115.781C322.403 115.781 323.664 116.016 324.716 116.484C325.778 116.953 326.591 117.599 327.153 118.422C327.726 119.234 328.013 120.161 328.013 121.203H323.513C323.513 120.766 323.419 120.375 323.231 120.031C323.054 119.677 322.773 119.401 322.388 119.203C322.013 118.995 321.523 118.891 320.919 118.891C320.419 118.891 319.986 118.979 319.622 119.156C319.257 119.323 318.976 119.552 318.778 119.844C318.591 120.125 318.497 120.438 318.497 120.781C318.497 121.042 318.549 121.276 318.653 121.484C318.768 121.682 318.95 121.865 319.2 122.031C319.45 122.198 319.773 122.354 320.169 122.5C320.575 122.635 321.075 122.76 321.669 122.875C322.888 123.125 323.976 123.453 324.934 123.859C325.893 124.255 326.653 124.797 327.216 125.484C327.778 126.161 328.059 127.052 328.059 128.156C328.059 128.906 327.893 129.594 327.559 130.219C327.226 130.844 326.747 131.391 326.122 131.859C325.497 132.318 324.747 132.677 323.872 132.938C323.007 133.188 322.033 133.312 320.95 133.312C319.377 133.312 318.044 133.031 316.95 132.469C315.867 131.906 315.044 131.193 314.481 130.328C313.929 129.453 313.653 128.557 313.653 127.641H317.919C317.94 128.255 318.096 128.75 318.388 129.125C318.69 129.5 319.07 129.771 319.528 129.938C319.997 130.104 320.502 130.188 321.044 130.188C321.627 130.188 322.111 130.109 322.497 129.953C322.882 129.786 323.174 129.568 323.372 129.297C323.58 129.016 323.684 128.693 323.684 128.328ZM106.615 164.188V156.656C106.615 156.115 106.526 155.651 106.349 155.266C106.172 154.87 105.896 154.562 105.521 154.344C105.157 154.125 104.683 154.016 104.099 154.016C103.599 154.016 103.167 154.104 102.802 154.281C102.438 154.448 102.157 154.693 101.959 155.016C101.761 155.328 101.662 155.698 101.662 156.125H97.1619C97.1619 155.406 97.3285 154.724 97.6619 154.078C97.9952 153.432 98.4796 152.865 99.115 152.375C99.7504 151.875 100.506 151.484 101.381 151.203C102.266 150.922 103.256 150.781 104.349 150.781C105.662 150.781 106.829 151 107.849 151.438C108.87 151.875 109.672 152.531 110.256 153.406C110.849 154.281 111.146 155.375 111.146 156.688V163.922C111.146 164.849 111.204 165.609 111.318 166.203C111.433 166.786 111.599 167.297 111.818 167.734V168H107.271C107.052 167.542 106.886 166.969 106.771 166.281C106.667 165.583 106.615 164.885 106.615 164.188ZM107.209 157.703L107.24 160.25H104.724C104.131 160.25 103.615 160.318 103.177 160.453C102.74 160.589 102.381 160.781 102.099 161.031C101.818 161.271 101.61 161.552 101.474 161.875C101.349 162.198 101.287 162.552 101.287 162.938C101.287 163.323 101.375 163.672 101.552 163.984C101.73 164.286 101.985 164.526 102.318 164.703C102.651 164.87 103.042 164.953 103.49 164.953C104.167 164.953 104.756 164.818 105.256 164.547C105.756 164.276 106.141 163.943 106.412 163.547C106.693 163.151 106.839 162.776 106.849 162.422L108.037 164.328C107.87 164.755 107.641 165.198 107.349 165.656C107.068 166.115 106.709 166.547 106.271 166.953C105.834 167.349 105.308 167.677 104.693 167.938C104.079 168.188 103.349 168.312 102.506 168.312C101.433 168.312 100.459 168.099 99.5837 167.672C98.7192 167.234 98.0317 166.635 97.5212 165.875C97.0212 165.104 96.7712 164.229 96.7712 163.25C96.7712 162.365 96.9379 161.578 97.2712 160.891C97.6046 160.203 98.0942 159.625 98.74 159.156C99.3962 158.677 100.214 158.318 101.193 158.078C102.172 157.828 103.308 157.703 104.599 157.703H107.209ZM119.981 154.703V168H115.481V151.094H119.7L119.981 154.703ZM119.325 158.953H118.106C118.106 157.703 118.268 156.578 118.591 155.578C118.914 154.568 119.367 153.708 119.95 153C120.533 152.281 121.226 151.734 122.028 151.359C122.841 150.974 123.747 150.781 124.747 150.781C125.539 150.781 126.262 150.896 126.919 151.125C127.575 151.354 128.137 151.719 128.606 152.219C129.085 152.719 129.45 153.38 129.7 154.203C129.96 155.026 130.091 156.031 130.091 157.219V168H125.559V157.203C125.559 156.453 125.455 155.87 125.247 155.453C125.039 155.036 124.731 154.745 124.325 154.578C123.929 154.401 123.44 154.312 122.856 154.312C122.252 154.312 121.726 154.432 121.278 154.672C120.841 154.911 120.476 155.245 120.184 155.672C119.903 156.089 119.69 156.578 119.544 157.141C119.398 157.703 119.325 158.307 119.325 158.953ZM144.457 164.312V144H148.988V168H144.91L144.457 164.312ZM133.769 159.75V159.422C133.769 158.13 133.915 156.958 134.207 155.906C134.499 154.844 134.926 153.932 135.488 153.172C136.051 152.411 136.743 151.823 137.566 151.406C138.389 150.99 139.327 150.781 140.379 150.781C141.368 150.781 142.233 150.99 142.973 151.406C143.723 151.823 144.358 152.417 144.879 153.188C145.41 153.948 145.837 154.849 146.16 155.891C146.483 156.922 146.717 158.052 146.863 159.281V160C146.717 161.177 146.483 162.271 146.16 163.281C145.837 164.292 145.41 165.177 144.879 165.938C144.358 166.688 143.723 167.271 142.973 167.688C142.223 168.104 141.348 168.312 140.348 168.312C139.295 168.312 138.358 168.099 137.535 167.672C136.723 167.245 136.035 166.646 135.473 165.875C134.92 165.104 134.499 164.198 134.207 163.156C133.915 162.115 133.769 160.979 133.769 159.75ZM138.269 159.422V159.75C138.269 160.448 138.321 161.099 138.426 161.703C138.54 162.307 138.723 162.844 138.973 163.312C139.233 163.771 139.566 164.13 139.973 164.391C140.389 164.641 140.894 164.766 141.488 164.766C142.259 164.766 142.894 164.594 143.394 164.25C143.894 163.896 144.275 163.411 144.535 162.797C144.806 162.182 144.962 161.474 145.004 160.672V158.625C144.973 157.969 144.879 157.38 144.723 156.859C144.577 156.328 144.358 155.875 144.066 155.5C143.785 155.125 143.431 154.833 143.004 154.625C142.587 154.417 142.092 154.312 141.519 154.312C140.936 154.312 140.436 154.448 140.019 154.719C139.603 154.979 139.264 155.339 139.004 155.797C138.754 156.255 138.566 156.797 138.441 157.422C138.327 158.036 138.269 158.703 138.269 159.422ZM166.892 154.781V168H162.392V151.094H166.627L166.892 154.781ZM171.986 150.984L171.908 155.156C171.689 155.125 171.424 155.099 171.111 155.078C170.809 155.047 170.533 155.031 170.283 155.031C169.648 155.031 169.096 155.115 168.627 155.281C168.169 155.438 167.783 155.672 167.471 155.984C167.169 156.297 166.939 156.677 166.783 157.125C166.637 157.573 166.554 158.083 166.533 158.656L165.627 158.375C165.627 157.281 165.736 156.276 165.955 155.359C166.174 154.432 166.491 153.625 166.908 152.938C167.335 152.25 167.856 151.719 168.471 151.344C169.085 150.969 169.788 150.781 170.58 150.781C170.83 150.781 171.085 150.802 171.346 150.844C171.606 150.875 171.82 150.922 171.986 150.984ZM182.54 168.312C181.228 168.312 180.05 168.104 179.009 167.688C177.967 167.26 177.082 166.672 176.353 165.922C175.634 165.172 175.082 164.302 174.696 163.312C174.311 162.312 174.118 161.25 174.118 160.125V159.5C174.118 158.219 174.3 157.047 174.665 155.984C175.03 154.922 175.55 154 176.228 153.219C176.915 152.438 177.748 151.839 178.728 151.422C179.707 150.995 180.811 150.781 182.04 150.781C183.238 150.781 184.3 150.979 185.228 151.375C186.155 151.771 186.931 152.333 187.556 153.062C188.191 153.792 188.67 154.667 188.993 155.688C189.316 156.698 189.478 157.823 189.478 159.062V160.938H176.04V157.938H185.056V157.594C185.056 156.969 184.941 156.411 184.712 155.922C184.493 155.422 184.16 155.026 183.712 154.734C183.264 154.443 182.691 154.297 181.993 154.297C181.399 154.297 180.889 154.427 180.462 154.688C180.035 154.948 179.686 155.312 179.415 155.781C179.155 156.25 178.957 156.802 178.821 157.438C178.696 158.062 178.634 158.75 178.634 159.5V160.125C178.634 160.802 178.728 161.427 178.915 162C179.113 162.573 179.389 163.068 179.743 163.484C180.108 163.901 180.545 164.224 181.056 164.453C181.576 164.682 182.165 164.797 182.821 164.797C183.634 164.797 184.389 164.641 185.087 164.328C185.795 164.005 186.405 163.521 186.915 162.875L189.103 165.25C188.748 165.76 188.264 166.25 187.649 166.719C187.045 167.188 186.316 167.573 185.462 167.875C184.608 168.167 183.634 168.312 182.54 168.312ZM202.141 163.328C202.141 163.005 202.047 162.714 201.859 162.453C201.672 162.193 201.323 161.953 200.812 161.734C200.312 161.505 199.589 161.297 198.641 161.109C197.786 160.922 196.99 160.688 196.25 160.406C195.521 160.115 194.885 159.766 194.344 159.359C193.812 158.953 193.396 158.474 193.094 157.922C192.792 157.359 192.641 156.719 192.641 156C192.641 155.292 192.792 154.625 193.094 154C193.406 153.375 193.849 152.823 194.422 152.344C195.005 151.854 195.714 151.474 196.547 151.203C197.391 150.922 198.339 150.781 199.391 150.781C200.859 150.781 202.12 151.016 203.172 151.484C204.234 151.953 205.047 152.599 205.609 153.422C206.182 154.234 206.469 155.161 206.469 156.203H201.969C201.969 155.766 201.875 155.375 201.688 155.031C201.51 154.677 201.229 154.401 200.844 154.203C200.469 153.995 199.979 153.891 199.375 153.891C198.875 153.891 198.443 153.979 198.078 154.156C197.714 154.323 197.432 154.552 197.234 154.844C197.047 155.125 196.953 155.438 196.953 155.781C196.953 156.042 197.005 156.276 197.109 156.484C197.224 156.682 197.406 156.865 197.656 157.031C197.906 157.198 198.229 157.354 198.625 157.5C199.031 157.635 199.531 157.76 200.125 157.875C201.344 158.125 202.432 158.453 203.391 158.859C204.349 159.255 205.109 159.797 205.672 160.484C206.234 161.161 206.516 162.052 206.516 163.156C206.516 163.906 206.349 164.594 206.016 165.219C205.682 165.844 205.203 166.391 204.578 166.859C203.953 167.318 203.203 167.677 202.328 167.938C201.464 168.188 200.49 168.312 199.406 168.312C197.833 168.312 196.5 168.031 195.406 167.469C194.323 166.906 193.5 166.193 192.938 165.328C192.385 164.453 192.109 163.557 192.109 162.641H196.375C196.396 163.255 196.552 163.75 196.844 164.125C197.146 164.5 197.526 164.771 197.984 164.938C198.453 165.104 198.958 165.188 199.5 165.188C200.083 165.188 200.568 165.109 200.953 164.953C201.339 164.786 201.63 164.568 201.828 164.297C202.036 164.016 202.141 163.693 202.141 163.328ZM209.679 159.719V159.391C209.679 158.151 209.856 157.01 210.21 155.969C210.564 154.917 211.08 154.005 211.757 153.234C212.434 152.464 213.267 151.865 214.257 151.438C215.246 151 216.382 150.781 217.663 150.781C218.944 150.781 220.085 151 221.085 151.438C222.085 151.865 222.924 152.464 223.601 153.234C224.288 154.005 224.809 154.917 225.163 155.969C225.517 157.01 225.694 158.151 225.694 159.391V159.719C225.694 160.948 225.517 162.089 225.163 163.141C224.809 164.182 224.288 165.094 223.601 165.875C222.924 166.646 222.09 167.245 221.101 167.672C220.111 168.099 218.976 168.312 217.694 168.312C216.413 168.312 215.272 168.099 214.272 167.672C213.283 167.245 212.444 166.646 211.757 165.875C211.08 165.094 210.564 164.182 210.21 163.141C209.856 162.089 209.679 160.948 209.679 159.719ZM214.179 159.391V159.719C214.179 160.427 214.241 161.089 214.366 161.703C214.491 162.318 214.689 162.859 214.96 163.328C215.241 163.786 215.606 164.146 216.054 164.406C216.502 164.667 217.049 164.797 217.694 164.797C218.319 164.797 218.856 164.667 219.304 164.406C219.752 164.146 220.111 163.786 220.382 163.328C220.653 162.859 220.851 162.318 220.976 161.703C221.111 161.089 221.179 160.427 221.179 159.719V159.391C221.179 158.703 221.111 158.057 220.976 157.453C220.851 156.839 220.647 156.297 220.366 155.828C220.095 155.349 219.736 154.974 219.288 154.703C218.84 154.432 218.299 154.297 217.663 154.297C217.028 154.297 216.486 154.432 216.038 154.703C215.601 154.974 215.241 155.349 214.96 155.828C214.689 156.297 214.491 156.839 214.366 157.453C214.241 158.057 214.179 158.703 214.179 159.391ZM239.42 163.953V151.094H243.92V168H239.686L239.42 163.953ZM239.92 160.484L241.248 160.453C241.248 161.578 241.118 162.625 240.857 163.594C240.597 164.552 240.206 165.385 239.686 166.094C239.165 166.792 238.509 167.339 237.717 167.734C236.925 168.12 235.993 168.312 234.92 168.312C234.097 168.312 233.337 168.198 232.639 167.969C231.951 167.729 231.357 167.359 230.857 166.859C230.368 166.349 229.982 165.698 229.701 164.906C229.43 164.104 229.295 163.141 229.295 162.016V151.094H233.795V162.047C233.795 162.547 233.852 162.969 233.967 163.312C234.092 163.656 234.264 163.938 234.482 164.156C234.701 164.375 234.956 164.531 235.248 164.625C235.55 164.719 235.884 164.766 236.248 164.766C237.175 164.766 237.904 164.578 238.436 164.203C238.977 163.828 239.357 163.318 239.576 162.672C239.805 162.016 239.92 161.286 239.92 160.484ZM252.818 154.781V168H248.318V151.094H252.552L252.818 154.781ZM257.911 150.984L257.833 155.156C257.614 155.125 257.349 155.099 257.036 155.078C256.734 155.047 256.458 155.031 256.208 155.031C255.573 155.031 255.021 155.115 254.552 155.281C254.094 155.438 253.708 155.672 253.396 155.984C253.094 156.297 252.864 156.677 252.708 157.125C252.562 157.573 252.479 158.083 252.458 158.656L251.552 158.375C251.552 157.281 251.661 156.276 251.88 155.359C252.099 154.432 252.416 153.625 252.833 152.938C253.26 152.25 253.781 151.719 254.396 151.344C255.01 150.969 255.713 150.781 256.505 150.781C256.755 150.781 257.01 150.802 257.271 150.844C257.531 150.875 257.745 150.922 257.911 150.984ZM267.668 164.797C268.22 164.797 268.71 164.693 269.137 164.484C269.564 164.266 269.897 163.964 270.137 163.578C270.387 163.182 270.517 162.719 270.527 162.188H274.762C274.751 163.375 274.434 164.432 273.809 165.359C273.184 166.276 272.345 167 271.293 167.531C270.241 168.052 269.064 168.312 267.762 168.312C266.449 168.312 265.304 168.094 264.324 167.656C263.356 167.219 262.548 166.615 261.902 165.844C261.257 165.062 260.772 164.156 260.449 163.125C260.126 162.083 259.965 160.969 259.965 159.781V159.328C259.965 158.13 260.126 157.016 260.449 155.984C260.772 154.943 261.257 154.036 261.902 153.266C262.548 152.484 263.356 151.875 264.324 151.438C265.293 151 266.429 150.781 267.731 150.781C269.116 150.781 270.33 151.047 271.371 151.578C272.423 152.109 273.246 152.87 273.84 153.859C274.444 154.839 274.751 156 274.762 157.344H270.527C270.517 156.781 270.397 156.271 270.168 155.812C269.949 155.354 269.626 154.99 269.199 154.719C268.783 154.438 268.267 154.297 267.652 154.297C266.996 154.297 266.46 154.438 266.043 154.719C265.626 154.99 265.304 155.365 265.074 155.844C264.845 156.312 264.684 156.849 264.59 157.453C264.507 158.047 264.465 158.672 264.465 159.328V159.781C264.465 160.438 264.507 161.068 264.59 161.672C264.673 162.276 264.83 162.812 265.059 163.281C265.298 163.75 265.626 164.12 266.043 164.391C266.46 164.661 267.001 164.797 267.668 164.797ZM286.112 168.312C284.8 168.312 283.623 168.104 282.581 167.688C281.54 167.26 280.654 166.672 279.925 165.922C279.206 165.172 278.654 164.302 278.269 163.312C277.883 162.312 277.691 161.25 277.691 160.125V159.5C277.691 158.219 277.873 157.047 278.237 155.984C278.602 154.922 279.123 154 279.8 153.219C280.487 152.438 281.321 151.839 282.3 151.422C283.279 150.995 284.383 150.781 285.612 150.781C286.81 150.781 287.873 150.979 288.8 151.375C289.727 151.771 290.503 152.333 291.128 153.062C291.764 153.792 292.243 154.667 292.566 155.688C292.889 156.698 293.05 157.823 293.05 159.062V160.938H279.612V157.938H288.628V157.594C288.628 156.969 288.514 156.411 288.284 155.922C288.066 155.422 287.732 155.026 287.284 154.734C286.836 154.443 286.264 154.297 285.566 154.297C284.972 154.297 284.461 154.427 284.034 154.688C283.607 154.948 283.258 155.312 282.987 155.781C282.727 156.25 282.529 156.802 282.394 157.438C282.269 158.062 282.206 158.75 282.206 159.5V160.125C282.206 160.802 282.3 161.427 282.487 162C282.685 162.573 282.961 163.068 283.316 163.484C283.68 163.901 284.118 164.224 284.628 164.453C285.149 164.682 285.737 164.797 286.394 164.797C287.206 164.797 287.961 164.641 288.659 164.328C289.368 164.005 289.977 163.521 290.487 162.875L292.675 165.25C292.321 165.76 291.836 166.25 291.222 166.719C290.618 167.188 289.889 167.573 289.034 167.875C288.18 168.167 287.206 168.312 286.112 168.312ZM305.713 163.328C305.713 163.005 305.619 162.714 305.432 162.453C305.244 162.193 304.895 161.953 304.385 161.734C303.885 161.505 303.161 161.297 302.213 161.109C301.359 160.922 300.562 160.688 299.823 160.406C299.093 160.115 298.458 159.766 297.916 159.359C297.385 158.953 296.968 158.474 296.666 157.922C296.364 157.359 296.213 156.719 296.213 156C296.213 155.292 296.364 154.625 296.666 154C296.979 153.375 297.421 152.823 297.994 152.344C298.578 151.854 299.286 151.474 300.119 151.203C300.963 150.922 301.911 150.781 302.963 150.781C304.432 150.781 305.692 151.016 306.744 151.484C307.807 151.953 308.619 152.599 309.182 153.422C309.755 154.234 310.041 155.161 310.041 156.203H305.541C305.541 155.766 305.448 155.375 305.26 155.031C305.083 154.677 304.802 154.401 304.416 154.203C304.041 153.995 303.552 153.891 302.948 153.891C302.448 153.891 302.015 153.979 301.651 154.156C301.286 154.323 301.005 154.552 300.807 154.844C300.619 155.125 300.526 155.438 300.526 155.781C300.526 156.042 300.578 156.276 300.682 156.484C300.796 156.682 300.979 156.865 301.229 157.031C301.479 157.198 301.802 157.354 302.198 157.5C302.604 157.635 303.104 157.76 303.698 157.875C304.916 158.125 306.005 158.453 306.963 158.859C307.921 159.255 308.682 159.797 309.244 160.484C309.807 161.161 310.088 162.052 310.088 163.156C310.088 163.906 309.921 164.594 309.588 165.219C309.255 165.844 308.776 166.391 308.151 166.859C307.526 167.318 306.776 167.677 305.901 167.938C305.036 168.188 304.062 168.312 302.979 168.312C301.406 168.312 300.073 168.031 298.979 167.469C297.895 166.906 297.073 166.193 296.51 165.328C295.958 164.453 295.682 163.557 295.682 162.641H299.948C299.968 163.255 300.125 163.75 300.416 164.125C300.718 164.5 301.099 164.771 301.557 164.938C302.026 165.104 302.531 165.188 303.073 165.188C303.656 165.188 304.14 165.109 304.526 164.953C304.911 164.786 305.203 164.568 305.401 164.297C305.609 164.016 305.713 163.693 305.713 163.328Z" fill="white"/>
<circle cx="203.5" cy="37.5" r="37.5" fill="#114DFF"/>
<path d="M196.767 21.62C198.262 17.245 204.307 17.1125 206.08 21.2225L206.23 21.6225L208.247 27.5225C208.71 28.8756 209.457 30.1138 210.438 31.1536C211.42 32.1933 212.613 33.0105 213.937 33.55L214.48 33.7525L220.38 35.7675C224.755 37.2625 224.887 43.3075 220.78 45.08L220.38 45.23L214.48 47.2475C213.126 47.7096 211.888 48.4566 210.847 49.4381C209.807 50.4197 208.99 51.613 208.45 52.9375L208.247 53.4775L206.232 59.38C204.737 63.755 198.692 63.8875 196.922 59.78L196.767 59.38L194.752 53.48C194.29 52.1265 193.543 50.8878 192.562 49.8475C191.58 48.8073 190.387 47.9897 189.062 47.45L188.522 47.2475L182.622 45.2325C178.245 43.7375 178.112 37.6925 182.222 35.9225L182.622 35.7675L188.522 33.7525C189.875 33.2901 191.114 32.543 192.153 31.5614C193.193 30.5799 194.01 29.3867 194.55 28.0625L194.752 27.5225L196.767 21.62ZM221.5 13C221.967 13 222.426 13.1312 222.823 13.3787C223.22 13.6262 223.539 13.98 223.745 14.4L223.865 14.6925L224.74 17.2575L227.307 18.1325C227.776 18.2917 228.187 18.5865 228.488 18.9795C228.789 19.3725 228.966 19.846 228.998 20.3401C229.03 20.8341 228.914 21.3263 228.665 21.7545C228.417 22.1826 228.047 22.5273 227.602 22.745L227.307 22.865L224.742 23.74L223.867 26.3075C223.708 26.7761 223.413 27.1867 223.02 27.4875C222.626 27.7882 222.153 27.9655 221.659 27.9968C221.165 28.0281 220.673 27.9121 220.245 27.6634C219.817 27.4148 219.472 27.0447 219.255 26.6L219.135 26.3075L218.26 23.7425L215.692 22.8675C215.224 22.7083 214.813 22.4135 214.512 22.0205C214.211 21.6275 214.033 21.154 214.002 20.6599C213.97 20.1659 214.086 19.6737 214.334 19.2455C214.583 18.8174 214.953 18.4727 215.397 18.255L215.692 18.135L218.257 17.26L219.132 14.6925C219.301 14.1986 219.62 13.7698 220.044 13.4662C220.469 13.1627 220.978 12.9997 221.5 13Z" fill="#3CE5A7"/>
<defs>
<filter id="filter0_d_138_1018" x="0" y="38" width="408" height="212" filterUnits="userSpaceOnUse" color-interpolation-filters="sRGB">
<feFlood flood-opacity="0" result="BackgroundImageFix"/>
<feColorMatrix in="SourceAlpha" type="matrix" values="0 0 0 0 0 0 0 0 0 0 0 0 0 0 0 0 0 0 127 0" result="hardAlpha"/>
<feOffset dy="4"/>
<feGaussianBlur stdDeviation="2"/>
<feComposite in2="hardAlpha" operator="out"/>
<feColorMatrix type="matrix" values="0 0 0 0 0 0 0 0 0 0 0 0 0 0 0 0 0 0 0.13 0"/>
<feBlend mode="normal" in2="BackgroundImageFix" result="effect1_dropShadow_138_1018"/>
<feBlend mode="normal" in="SourceGraphic" in2="effect1_dropShadow_138_1018" result="shape"/>
</filter>
</defs>
</svg>
