<svg width="206" height="51" viewBox="0 0 206 51" fill="none" xmlns="http://www.w3.org/2000/svg">
<g clip-path="url(#clip0_21_95)">
<path d="M80.49 8.7H77.4C76.51 6.86 74.79 5.64 72.2 5.64C68.58 5.64 66.41 8.27 66.41 11.63C66.41 14.99 68.59 17.62 72.2 17.62C74.79 17.62 76.51 16.4 77.4 14.56H80.49C79.48 17.74 76.47 20.35 72.23 20.35C66.84 20.35 63.3 16.47 63.3 11.63C63.3 6.79 66.84 2.92 72.23 2.92C76.47 2.92 79.48 5.53 80.49 8.71V8.7Z" fill="#1C1C1C"/>
<path d="M82.43 14.04C82.43 10.78 84.87 7.77 88.99 7.77C93.11 7.77 95.55 10.79 95.55 14.04C95.55 17.29 93.11 20.29 88.99 20.29C84.87 20.29 82.43 17.27 82.43 14.04ZM85.38 14.04C85.38 15.98 86.67 17.77 89 17.77C91.33 17.77 92.62 15.97 92.62 14.04C92.62 12.11 91.33 10.28 89 10.28C86.67 10.28 85.38 12.1 85.38 14.04Z" fill="#1C1C1C"/>
<path d="M98.35 20V3.24H109.22V5.97H101.46V10.42H109V13.13H101.46V20H98.35Z" fill="#1C1C1C"/>
<path d="M110.89 14.04C110.89 10.78 113.33 7.77 117.45 7.77C121.57 7.77 124.01 10.79 124.01 14.04C124.01 17.29 121.57 20.29 117.45 20.29C113.33 20.29 110.89 17.27 110.89 14.04ZM113.84 14.04C113.84 15.98 115.13 17.77 117.46 17.77C119.79 17.77 121.08 15.97 121.08 14.04C121.08 12.11 119.79 10.28 117.46 10.28C115.13 10.28 113.84 12.1 113.84 14.04Z" fill="#1C1C1C"/>
<path d="M134.71 8.05H137.73V20H134.83V17.99C134.23 19.35 132.75 20.29 130.88 20.29C128.01 20.29 126.45 18.18 126.45 15.24V8.06H129.47V14.76C129.47 16.48 130.14 17.7 131.98 17.7C133.7 17.7 134.71 16.5 134.71 14.78V8.05Z" fill="#1C1C1C"/>
<path d="M144.05 20H141.03V8.05H143.95V10.08C144.5 8.69 146.06 7.76 147.92 7.76C150.79 7.76 152.4 9.87 152.4 12.84V20H149.38V13.34C149.38 11.64 148.61 10.4 146.82 10.4C145.17 10.4 144.04 11.6 144.04 13.32V20H144.05Z" fill="#1C1C1C"/>
<path d="M165.11 2.52H168.13V20H165.23V17.94C164.54 19.16 162.96 20.29 160.87 20.29C157.33 20.29 154.84 17.46 154.84 14.04C154.84 10.62 157.33 7.77 160.87 7.77C162.95 7.77 164.51 8.85 165.11 10.12V2.52ZM161.45 17.79C163.44 17.79 165.11 16.33 165.11 14.03C165.11 11.73 163.43 10.25 161.45 10.25C159.29 10.25 157.86 11.95 157.86 14.03C157.86 16.11 159.3 17.79 161.45 17.79Z" fill="#1C1C1C"/>
<path d="M173.66 15.04C173.85 16.84 175 18.06 177.13 18.06C178.59 18.06 179.72 17.41 180.29 16.5H183.09C182.28 18.63 179.98 20.28 177.13 20.28C173.06 20.28 170.69 17.57 170.69 14.01C170.69 10.45 173.3 7.76 176.99 7.76C180.68 7.76 183.26 10.37 183.26 14.06V15.04H173.66ZM173.63 13.05H180.38C180.19 11.21 178.97 9.91 177.03 9.91C175.09 9.91 173.87 11.11 173.63 13.05Z" fill="#1C1C1C"/>
<path d="M193.05 10.95H192.4C189.98 10.95 188.86 12.36 188.86 14.68V20H185.84V8.05H188.76V10.64C189.33 8.75 190.94 7.96 193.05 7.96V10.95Z" fill="#1C1C1C"/>
<path d="M80.49 34.04H77.4C76.51 32.2 74.79 30.98 72.2 30.98C68.58 30.98 66.41 33.61 66.41 36.97C66.41 40.33 68.59 42.96 72.2 42.96C74.79 42.96 76.51 41.74 77.4 39.9H80.49C79.48 43.08 76.47 45.69 72.23 45.69C66.84 45.69 63.3 41.81 63.3 36.97C63.3 32.13 66.84 28.26 72.23 28.26C76.47 28.26 79.48 30.87 80.49 34.05V34.04Z" fill="#1C1C1C"/>
<path d="M84.78 27.84C85.81 27.84 86.58 28.63 86.58 29.61C86.58 30.59 85.81 31.38 84.78 31.38C83.75 31.38 82.98 30.61 82.98 29.61C82.98 28.61 83.77 27.84 84.78 27.84ZM83.27 45.34V33.39H86.29V45.34H83.27Z" fill="#1C1C1C"/>
<path d="M96.89 36.29H96.24C93.82 36.29 92.7 37.7 92.7 40.02V45.34H89.68V33.39H92.6V35.98C93.17 34.09 94.78 33.3 96.89 33.3V36.29Z" fill="#1C1C1C"/>
<path d="M110.75 37.65H107.83C107.33 36.55 106.3 35.61 104.53 35.61C102.26 35.61 100.99 37.36 100.99 39.37C100.99 41.38 102.26 43.1 104.53 43.1C106.3 43.1 107.33 42.21 107.83 41.07H110.75C110.13 43.56 107.81 45.62 104.55 45.62C100.58 45.62 97.99 42.89 97.99 39.37C97.99 35.85 100.58 33.1 104.55 33.1C107.81 33.1 110.13 35.16 110.75 37.65Z" fill="#1C1C1C"/>
<path d="M113.26 45.34V27.86H116.28V45.34H113.26Z" fill="#1C1C1C"/>
<path d="M121.81 40.38C122 42.18 123.15 43.4 125.28 43.4C126.74 43.4 127.87 42.75 128.44 41.84H131.24C130.43 43.97 128.13 45.62 125.28 45.62C121.21 45.62 118.84 42.91 118.84 39.35C118.84 35.79 121.45 33.1 125.14 33.1C128.83 33.1 131.41 35.71 131.41 39.4V40.38H121.81ZM121.78 38.39H128.53C128.34 36.55 127.12 35.25 125.18 35.25C123.24 35.25 122.02 36.45 121.78 38.39Z" fill="#1C1C1C"/>
<path d="M23.46 -1C10.36 -0.13 0 10.77 0 24.1C0 37.43 10.36 48.32 23.46 49.2V-1Z" fill="url(#paint0_linear_21_95)"/>
<path d="M26.85 25.74V49.19C39.41 48.35 49.44 38.31 50.25 25.74H26.85Z" fill="url(#paint1_linear_21_95)"/>
<path d="M50.2 2.01H26.85V22.35H50.2V2.01Z" fill="url(#paint2_linear_21_95)"/>
<path d="M200.23 8.32H199.28V11.44C199.28 11.62 199.24 11.75 199.16 11.84C199.08 11.93 198.98 11.97 198.85 11.97C198.72 11.97 198.62 11.93 198.54 11.84C198.46 11.75 198.42 11.62 198.42 11.44V8.32H197.47C197.32 8.32 197.21 8.29 197.14 8.22C197.07 8.15 197.03 8.07 197.03 7.96C197.03 7.85 197.07 7.76 197.14 7.7C197.21 7.64 197.32 7.6 197.47 7.6H200.24C200.39 7.6 200.5 7.63 200.58 7.7C200.65 7.77 200.69 7.85 200.69 7.96C200.69 8.07 200.65 8.15 200.58 8.22C200.51 8.29 200.39 8.32 200.25 8.32H200.23Z" fill="black"/>
<path d="M202.87 11.25L202.18 8.51V11.47C202.18 11.63 202.14 11.76 202.07 11.84C202 11.92 201.9 11.96 201.78 11.96C201.66 11.96 201.57 11.92 201.49 11.84C201.41 11.76 201.38 11.64 201.38 11.47V8.07C201.38 7.88 201.43 7.76 201.53 7.69C201.63 7.62 201.76 7.59 201.93 7.59H202.2C202.36 7.59 202.48 7.6 202.55 7.63C202.62 7.66 202.68 7.71 202.71 7.79C202.74 7.87 202.79 7.99 202.83 8.16L203.45 10.51L204.07 8.16C204.11 7.99 204.15 7.86 204.19 7.79C204.23 7.72 204.28 7.66 204.35 7.63C204.42 7.6 204.54 7.59 204.7 7.59H204.97C205.14 7.59 205.27 7.62 205.37 7.69C205.47 7.76 205.52 7.88 205.52 8.07V11.47C205.52 11.63 205.48 11.76 205.41 11.84C205.34 11.92 205.24 11.96 205.12 11.96C205 11.96 204.91 11.92 204.84 11.84C204.77 11.76 204.73 11.63 204.73 11.47V8.51L204.04 11.25C204 11.43 203.96 11.56 203.93 11.64C203.9 11.72 203.85 11.8 203.77 11.87C203.69 11.94 203.59 11.97 203.45 11.97C203.35 11.97 203.26 11.95 203.19 11.9C203.12 11.85 203.07 11.8 203.03 11.73C202.99 11.66 202.96 11.59 202.94 11.5C202.92 11.42 202.89 11.33 202.87 11.24V11.25Z" fill="black"/>
</g>
<defs>
<linearGradient id="paint0_linear_21_95" x1="-9.76" y1="-4.73" x2="39.3" y2="44.33" gradientUnits="userSpaceOnUse">
<stop offset="0.2" stop-color="#3CE5A7"/>
<stop offset="1" stop-color="#114DFF"/>
</linearGradient>
<linearGradient id="paint1_linear_21_95" x1="-6.69999" y1="-7.79" x2="42.36" y2="41.28" gradientUnits="userSpaceOnUse">
<stop offset="0.2" stop-color="#3CE5A7"/>
<stop offset="1" stop-color="#114DFF"/>
</linearGradient>
<linearGradient id="paint2_linear_21_95" x1="5.93" y1="-20.42" x2="54.99" y2="28.65" gradientUnits="userSpaceOnUse">
<stop offset="0.21" stop-color="#3CE5A7"/>
<stop offset="1" stop-color="#114DFF"/>
</linearGradient>
<clipPath id="clip0_21_95">
<rect width="205.52" height="50.19" fill="white"/>
</clipPath>
</defs>
</svg>
