<svg width="1440" height="1090" viewBox="0 0 1440 1090" fill="none" xmlns="http://www.w3.org/2000/svg">
<g opacity="0.3" filter="url(#filter0_d_65_373)">
<rect x="1.5" y="-1.5" width="1569" height="1063.58" rx="279.5" transform="matrix(1 0 0 -1 -66 1066.29)" fill="url(#paint0_linear_65_373)" stroke="url(#paint1_linear_65_373)" stroke-width="3"/>
<mask id="mask0_65_373" style="mask-type:alpha" maskUnits="userSpaceOnUse" x="-66" y="2" width="1572" height="1068">
<rect width="1572" height="1066.58" rx="281" transform="matrix(1 0 0 -1 -66 1069.29)" fill="#F6F8FF"/>
</mask>
<g mask="url(#mask0_65_373)">
<g filter="url(#filter1_f_65_373)">
<path d="M154.278 571.085C47.3396 621.607 -29.2997 765.221 -54.2521 830.713C-284.17 760.543 -209.313 16.7429 -115.742 -144.648C-47.3875 -262.544 1095.34 -439.361 1330.61 -432.344C1565.87 -425.327 1592.61 571.085 1533.79 507.932C1474.97 444.779 1015.14 451.796 846.707 465.83C678.278 479.864 287.952 507.932 154.278 571.085Z" fill="#F6F8FF"/>
</g>
</g>
</g>
<g opacity="0.4" filter="url(#filter2_d_65_373)">
<rect x="1.5" y="-1.5" width="1533" height="828.56" rx="279.5" transform="matrix(1 0 0 -1 -48 948.78)" fill="url(#paint2_linear_65_373)" stroke="url(#paint3_linear_65_373)" stroke-width="3"/>
<mask id="mask1_65_373" style="mask-type:alpha" maskUnits="userSpaceOnUse" x="-48" y="120" width="1536" height="832">
<rect width="1536" height="831.56" rx="281" transform="matrix(1 0 0 -1 -48 951.78)" fill="#F6F8FF"/>
</mask>
<g mask="url(#mask1_65_373)">
<g filter="url(#filter3_f_65_373)">
<path d="M167.234 563.354C62.7441 602.743 -12.1402 714.712 -36.5211 765.773C-261.174 711.065 -188.031 131.161 -96.6027 5.33295C-29.8137 -86.5851 1086.74 -224.44 1316.62 -218.969C1546.5 -213.499 1572.62 563.354 1515.15 514.117C1457.68 464.879 1008.38 470.35 843.805 481.292C679.234 492.233 297.846 514.117 167.234 563.354Z" fill="#F6F8FF"/>
</g>
</g>
</g>
<g opacity="0.7" filter="url(#filter4_d_65_373)">
<rect x="1.5" y="-1.5" width="1437" height="653.028" rx="279.5" transform="matrix(1 0 0 -1 0 861.014)" fill="url(#paint4_linear_65_373)" stroke="url(#paint5_linear_65_373)" stroke-width="3"/>
<mask id="mask2_65_373" style="mask-type:alpha" maskUnits="userSpaceOnUse" x="0" y="207" width="1440" height="658">
<rect width="1440" height="656.028" rx="281" transform="matrix(1 0 0 -1 0 864.014)" fill="#F6F8FF"/>
</mask>
<g mask="url(#mask2_65_373)">
<g filter="url(#filter5_f_65_373)">
<path d="M201.782 557.58C103.823 588.655 33.6186 676.989 10.7614 717.271C-199.851 674.111 -131.279 216.618 -45.5651 117.35C17.0496 44.835 1063.82 -63.9207 1279.33 -59.6047C1494.84 -55.2888 1519.33 557.58 1465.46 518.736C1411.58 479.892 990.353 484.208 836.068 492.84C681.782 501.472 324.231 518.736 201.782 557.58Z" fill="#F6F8FF"/>
</g>
</g>
</g>
<g opacity="0.8" filter="url(#filter6_d_65_373)">
<rect x="1.5" y="-1.5" width="1248.77" height="468.631" rx="219.5" transform="matrix(1 0 0 -1 94.1135 768.816)" fill="url(#paint6_linear_65_373)" stroke="url(#paint7_linear_65_373)" stroke-width="3"/>
<mask id="mask3_65_373" style="mask-type:alpha" maskUnits="userSpaceOnUse" x="94" y="300" width="1252" height="472">
<rect width="1251.77" height="471.631" rx="221" transform="matrix(1 0 0 -1 94.1135 771.816)" fill="#F6F8FF"/>
</mask>
<g mask="url(#mask3_65_373)">
<g filter="url(#filter7_f_65_373)">
<path d="M269.52 551.514C184.365 573.855 123.338 637.36 103.468 666.319C-79.6142 635.291 -20.006 306.39 54.5043 235.025C108.934 182.892 1018.88 104.706 1206.22 107.809C1393.56 110.912 1414.85 551.514 1368.01 523.589C1321.18 495.663 955.014 498.766 820.896 504.972C686.777 511.177 375.963 523.589 269.52 551.514Z" fill="#F6F8FF"/>
</g>
</g>
</g>
<g filter="url(#filter8_d_65_373)">
<rect x="0.5" y="-0.5" width="1041.55" height="268.504" rx="134.252" transform="matrix(1 0 0 -1 198.723 669.752)" fill="url(#paint8_linear_65_373)" stroke="url(#paint9_linear_65_373)"/>
<mask id="mask4_65_373" style="mask-type:alpha" maskUnits="userSpaceOnUse" x="198" y="401" width="1044" height="270">
<rect width="1042.55" height="269.504" rx="134.752" transform="matrix(1 0 0 -1 198.723 670.752)" fill="#F6F8FF"/>
</mask>
<g mask="url(#mask4_65_373)">
<g filter="url(#filter9_f_65_373)">
<path d="M344.812 544.865C273.89 557.631 223.063 593.919 206.515 610.468C54.0323 592.737 103.678 404.794 165.734 364.014C211.067 334.224 968.926 289.546 1124.95 291.319C1280.98 293.092 1298.71 544.865 1259.71 528.908C1220.7 512.95 915.735 514.723 804.032 518.269C692.33 521.815 433.465 528.908 344.812 544.865Z" fill="#F6F8FF"/>
</g>
</g>
</g>
<defs>
<filter id="filter0_d_65_373" x="-81.8" y="-9.09102" width="1603.6" height="1098.18" filterUnits="userSpaceOnUse" color-interpolation-filters="sRGB">
<feFlood flood-opacity="0" result="BackgroundImageFix"/>
<feColorMatrix in="SourceAlpha" type="matrix" values="0 0 0 0 0 0 0 0 0 0 0 0 0 0 0 0 0 0 127 0" result="hardAlpha"/>
<feOffset dy="4"/>
<feGaussianBlur stdDeviation="7.9"/>
<feComposite in2="hardAlpha" operator="out"/>
<feColorMatrix type="matrix" values="0 0 0 0 0 0 0 0 0 0 0 0 0 0 0 0 0 0 0.12 0"/>
<feBlend mode="normal" in2="BackgroundImageFix" result="effect1_dropShadow_65_373"/>
<feBlend mode="normal" in="SourceGraphic" in2="effect1_dropShadow_65_373" result="shape"/>
</filter>
<filter id="filter1_f_65_373" x="-292.557" y="-518.747" width="1939.14" height="1435.66" filterUnits="userSpaceOnUse" color-interpolation-filters="sRGB">
<feFlood flood-opacity="0" result="BackgroundImageFix"/>
<feBlend mode="normal" in="SourceGraphic" in2="BackgroundImageFix" result="shape"/>
<feGaussianBlur stdDeviation="43.1" result="effect1_foregroundBlur_65_373"/>
</filter>
<filter id="filter2_d_65_373" x="-63.8" y="108.42" width="1567.6" height="863.16" filterUnits="userSpaceOnUse" color-interpolation-filters="sRGB">
<feFlood flood-opacity="0" result="BackgroundImageFix"/>
<feColorMatrix in="SourceAlpha" type="matrix" values="0 0 0 0 0 0 0 0 0 0 0 0 0 0 0 0 0 0 127 0" result="hardAlpha"/>
<feOffset dy="4"/>
<feGaussianBlur stdDeviation="7.9"/>
<feComposite in2="hardAlpha" operator="out"/>
<feColorMatrix type="matrix" values="0 0 0 0 0 0 0 0 0 0 0 0 0 0 0 0 0 0 0.12 0"/>
<feBlend mode="normal" in2="BackgroundImageFix" result="effect1_dropShadow_65_373"/>
<feBlend mode="normal" in="SourceGraphic" in2="effect1_dropShadow_65_373" result="shape"/>
</filter>
<filter id="filter3_f_65_373" x="-271.343" y="-305.327" width="1898.68" height="1157.3" filterUnits="userSpaceOnUse" color-interpolation-filters="sRGB">
<feFlood flood-opacity="0" result="BackgroundImageFix"/>
<feBlend mode="normal" in="SourceGraphic" in2="BackgroundImageFix" result="shape"/>
<feGaussianBlur stdDeviation="43.1" result="effect1_foregroundBlur_65_373"/>
</filter>
<filter id="filter4_d_65_373" x="-15.8" y="196.186" width="1471.6" height="687.628" filterUnits="userSpaceOnUse" color-interpolation-filters="sRGB">
<feFlood flood-opacity="0" result="BackgroundImageFix"/>
<feColorMatrix in="SourceAlpha" type="matrix" values="0 0 0 0 0 0 0 0 0 0 0 0 0 0 0 0 0 0 127 0" result="hardAlpha"/>
<feOffset dy="4"/>
<feGaussianBlur stdDeviation="7.9"/>
<feComposite in2="hardAlpha" operator="out"/>
<feColorMatrix type="matrix" values="0 0 0 0 0 0 0 0 0 0 0 0 0 0 0 0 0 0 0.13 0"/>
<feBlend mode="normal" in2="BackgroundImageFix" result="effect1_dropShadow_65_373"/>
<feBlend mode="normal" in="SourceGraphic" in2="effect1_dropShadow_65_373" result="shape"/>
</filter>
<filter id="filter5_f_65_373" x="-214.771" y="-145.929" width="1790.79" height="949.4" filterUnits="userSpaceOnUse" color-interpolation-filters="sRGB">
<feFlood flood-opacity="0" result="BackgroundImageFix"/>
<feBlend mode="normal" in="SourceGraphic" in2="BackgroundImageFix" result="shape"/>
<feGaussianBlur stdDeviation="43.1" result="effect1_foregroundBlur_65_373"/>
</filter>
<filter id="filter6_d_65_373" x="78.3135" y="288.384" width="1283.37" height="503.231" filterUnits="userSpaceOnUse" color-interpolation-filters="sRGB">
<feFlood flood-opacity="0" result="BackgroundImageFix"/>
<feColorMatrix in="SourceAlpha" type="matrix" values="0 0 0 0 0 0 0 0 0 0 0 0 0 0 0 0 0 0 127 0" result="hardAlpha"/>
<feOffset dy="4"/>
<feGaussianBlur stdDeviation="7.9"/>
<feComposite in2="hardAlpha" operator="out"/>
<feColorMatrix type="matrix" values="0 0 0 0 0 0 0 0 0 0 0 0 0 0 0 0 0 0 0.09 0"/>
<feBlend mode="normal" in2="BackgroundImageFix" result="effect1_dropShadow_65_373"/>
<feBlend mode="normal" in="SourceGraphic" in2="effect1_dropShadow_65_373" result="shape"/>
</filter>
<filter id="filter7_f_65_373" x="-103.852" y="21.5191" width="1579.24" height="731" filterUnits="userSpaceOnUse" color-interpolation-filters="sRGB">
<feFlood flood-opacity="0" result="BackgroundImageFix"/>
<feBlend mode="normal" in="SourceGraphic" in2="BackgroundImageFix" result="shape"/>
<feGaussianBlur stdDeviation="43.1" result="effect1_foregroundBlur_65_373"/>
</filter>
<filter id="filter8_d_65_373" x="169.323" y="367.848" width="1109.35" height="336.304" filterUnits="userSpaceOnUse" color-interpolation-filters="sRGB">
<feFlood flood-opacity="0" result="BackgroundImageFix"/>
<feColorMatrix in="SourceAlpha" type="matrix" values="0 0 0 0 0 0 0 0 0 0 0 0 0 0 0 0 0 0 127 0" result="hardAlpha"/>
<feOffset dx="4"/>
<feGaussianBlur stdDeviation="16.7"/>
<feComposite in2="hardAlpha" operator="out"/>
<feColorMatrix type="matrix" values="0 0 0 0 0 0 0 0 0 0 0 0 0 0 0 0 0 0 0.12 0"/>
<feBlend mode="normal" in2="BackgroundImageFix" result="effect1_dropShadow_65_373"/>
<feBlend mode="normal" in="SourceGraphic" in2="effect1_dropShadow_65_373" result="shape"/>
</filter>
<filter id="filter9_f_65_373" x="19.4383" y="205.068" width="1344.11" height="491.6" filterUnits="userSpaceOnUse" color-interpolation-filters="sRGB">
<feFlood flood-opacity="0" result="BackgroundImageFix"/>
<feBlend mode="normal" in="SourceGraphic" in2="BackgroundImageFix" result="shape"/>
<feGaussianBlur stdDeviation="43.1" result="effect1_foregroundBlur_65_373"/>
</filter>
<linearGradient id="paint0_linear_65_373" x1="-109.612" y1="533.291" x2="1485.57" y2="910.952" gradientUnits="userSpaceOnUse">
<stop stop-color="#F6F8FF"/>
<stop offset="0.423103" stop-color="#F6F8FF"/>
<stop offset="0.706761" stop-color="#99EED3"/>
<stop offset="0.812532" stop-color="#3CE5A7"/>
<stop offset="1" stop-color="#114DFF"/>
</linearGradient>
<linearGradient id="paint1_linear_65_373" x1="26.7347" y1="70.1698" x2="1589.19" y2="138.145" gradientUnits="userSpaceOnUse">
<stop stop-color="white"/>
<stop offset="0.274063" stop-color="#F6F8FF"/>
<stop offset="0.538489" stop-color="#3CE5A7"/>
<stop offset="1" stop-color="#114DFF" stop-opacity="0"/>
</linearGradient>
<linearGradient id="paint2_linear_65_373" x1="-107.102" y1="415.78" x2="1405.72" y2="864.651" gradientUnits="userSpaceOnUse">
<stop offset="0.110599" stop-color="#F6F8FF"/>
<stop offset="0.403872" stop-color="#F6F8FF"/>
<stop offset="0.639452" stop-color="#99EED3"/>
<stop offset="0.77407" stop-color="#3CE5A7"/>
<stop offset="1" stop-color="#114DFF"/>
</linearGradient>
<linearGradient id="paint3_linear_65_373" x1="26.1224" y1="54.7079" x2="1551.15" y2="137.857" gradientUnits="userSpaceOnUse">
<stop offset="0.230793" stop-color="white"/>
<stop offset="0.461565" stop-color="#F6F8FF"/>
<stop offset="0.701953" stop-color="#3CE5A7"/>
<stop offset="1" stop-color="#114DFF" stop-opacity="0"/>
</linearGradient>
<linearGradient id="paint4_linear_65_373" x1="-100.408" y1="328.014" x2="1272.09" y2="811.95" gradientUnits="userSpaceOnUse">
<stop stop-color="#F6F8FF"/>
<stop offset="0.403872" stop-color="#F6F8FF"/>
<stop offset="0.581759" stop-color="#99EED3"/>
<stop offset="0.740415" stop-color="#3CE5A7"/>
<stop offset="1" stop-color="#114DFF"/>
</linearGradient>
<linearGradient id="paint5_linear_65_373" x1="24.4898" y1="43.1598" x2="1452.46" y2="135.681" gradientUnits="userSpaceOnUse">
<stop stop-color="white"/>
<stop offset="0.480796" stop-color="#F6F8FF"/>
<stop offset="0.7308" stop-color="#3CE5A7"/>
<stop offset="1" stop-color="#114DFF" stop-opacity="0"/>
</linearGradient>
<linearGradient id="paint6_linear_65_373" x1="-87.2835" y1="235.816" x2="1047.82" y2="719.757" gradientUnits="userSpaceOnUse">
<stop stop-color="#F6F8FF"/>
<stop offset="0.379833" stop-color="#F6F8FF"/>
<stop offset="0.543297" stop-color="#99EED3"/>
<stop offset="0.706761" stop-color="#3CE5A7"/>
<stop offset="1" stop-color="#114DFF"/>
</linearGradient>
<linearGradient id="paint7_linear_65_373" x1="21.2887" y1="31.0284" x2="1260.21" y2="128.091" gradientUnits="userSpaceOnUse">
<stop stop-color="white"/>
<stop offset="0.413488" stop-color="#F6F8FF"/>
<stop offset="0.68753" stop-color="#3CE5A7"/>
<stop offset="1" stop-color="#114DFF" stop-opacity="0"/>
</linearGradient>
<linearGradient id="paint8_linear_65_373" x1="-72.6951" y1="134.752" x2="733.305" y2="635.597" gradientUnits="userSpaceOnUse">
<stop stop-color="#F6F8FF"/>
<stop offset="0.296757" stop-color="#F6F8FF"/>
<stop offset="0.480106" stop-color="#99EED3"/>
<stop offset="0.648378" stop-color="#3CE5A7"/>
<stop offset="1" stop-color="#114DFF"/>
</linearGradient>
<linearGradient id="paint9_linear_65_373" x1="13.4647" y1="24.8773" x2="1043.95" y2="119.597" gradientUnits="userSpaceOnUse">
<stop offset="0.293294" stop-color="white"/>
<stop offset="0.759646" stop-color="#3CE5A7"/>
<stop offset="1" stop-color="#114DFF"/>
</linearGradient>
</defs>
</svg>
