<svg width="582" height="506" viewBox="0 0 582 506" fill="none" xmlns="http://www.w3.org/2000/svg">
<g filter="url(#filter0_d_65_390)">
<rect x="1.5" y="-1.5" width="1533" height="471" rx="235.5" transform="matrix(1 0 0 -1 -970 483)" fill="url(#paint0_linear_65_390)" fill-opacity="0.72" stroke="url(#paint1_linear_65_390)" stroke-width="3"/>
<mask id="mask0_65_390" style="mask-type:alpha" maskUnits="userSpaceOnUse" x="-192" y="12" width="758" height="474">
<rect width="758" height="474" rx="237" transform="matrix(1 0 0 -1 -192 486)" fill="#F6F8FF"/>
</mask>
<g mask="url(#mask0_65_390)">
<g filter="url(#filter1_f_65_390)">
<path d="M-754.681 427.57C-859.153 458.205 -934.025 545.288 -958.402 585C-1183.02 542.451 -1109.89 91.4347 -1018.47 -6.42737C-951.696 -77.9161 164.68 -185.132 394.52 -180.877C624.361 -176.622 650.479 427.57 593.019 389.276C535.559 350.982 86.3253 355.237 -78.2192 363.747C-242.764 372.256 -624.09 389.276 -754.681 427.57Z" fill="#F6F8FF"/>
</g>
</g>
</g>
<path d="M198.692 211.68H205.7C205.559 213.977 204.926 216.016 203.801 217.797C202.692 219.578 201.137 220.969 199.137 221.969C197.153 222.969 194.762 223.469 191.965 223.469C189.778 223.469 187.817 223.094 186.083 222.344C184.348 221.578 182.864 220.484 181.629 219.062C180.411 217.641 179.481 215.922 178.84 213.906C178.2 211.891 177.879 209.633 177.879 207.133V204.766C177.879 202.266 178.208 200.008 178.864 197.992C179.536 195.961 180.489 194.234 181.723 192.812C182.973 191.391 184.465 190.297 186.2 189.531C187.934 188.766 189.872 188.383 192.012 188.383C194.856 188.383 197.254 188.898 199.208 189.93C201.176 190.961 202.7 192.383 203.778 194.195C204.872 196.008 205.528 198.07 205.747 200.383H198.715C198.637 199.008 198.364 197.844 197.895 196.891C197.426 195.922 196.715 195.195 195.762 194.711C194.825 194.211 193.575 193.961 192.012 193.961C190.84 193.961 189.817 194.18 188.942 194.617C188.067 195.055 187.333 195.719 186.739 196.609C186.145 197.5 185.7 198.625 185.403 199.984C185.122 201.328 184.981 202.906 184.981 204.719V207.133C184.981 208.898 185.114 210.453 185.379 211.797C185.645 213.125 186.051 214.25 186.598 215.172C187.161 216.078 187.879 216.766 188.754 217.234C189.645 217.688 190.715 217.914 191.965 217.914C193.434 217.914 194.645 217.68 195.598 217.211C196.551 216.742 197.278 216.047 197.778 215.125C198.293 214.203 198.598 213.055 198.692 211.68ZM210.257 210.578V210.086C210.257 208.227 210.523 206.516 211.054 204.953C211.585 203.375 212.358 202.008 213.374 200.852C214.39 199.695 215.64 198.797 217.124 198.156C218.608 197.5 220.312 197.172 222.233 197.172C224.155 197.172 225.866 197.5 227.366 198.156C228.866 198.797 230.124 199.695 231.14 200.852C232.171 202.008 232.952 203.375 233.483 204.953C234.015 206.516 234.28 208.227 234.28 210.086V210.578C234.28 212.422 234.015 214.133 233.483 215.711C232.952 217.273 232.171 218.641 231.14 219.812C230.124 220.969 228.874 221.867 227.39 222.508C225.905 223.148 224.202 223.469 222.28 223.469C220.358 223.469 218.648 223.148 217.148 222.508C215.663 221.867 214.405 220.969 213.374 219.812C212.358 218.641 211.585 217.273 211.054 215.711C210.523 214.133 210.257 212.422 210.257 210.578ZM217.007 210.086V210.578C217.007 211.641 217.101 212.633 217.288 213.555C217.476 214.477 217.773 215.289 218.179 215.992C218.601 216.68 219.148 217.219 219.819 217.609C220.491 218 221.312 218.195 222.28 218.195C223.218 218.195 224.023 218 224.694 217.609C225.366 217.219 225.905 216.68 226.312 215.992C226.718 215.289 227.015 214.477 227.202 213.555C227.405 212.633 227.507 211.641 227.507 210.578V210.086C227.507 209.055 227.405 208.086 227.202 207.18C227.015 206.258 226.71 205.445 226.288 204.742C225.882 204.023 225.343 203.461 224.671 203.055C223.999 202.648 223.187 202.445 222.233 202.445C221.28 202.445 220.468 202.648 219.796 203.055C219.14 203.461 218.601 204.023 218.179 204.742C217.773 205.445 217.476 206.258 217.288 207.18C217.101 208.086 217.007 209.055 217.007 210.086ZM247.322 188.875V223H240.291V188.875H247.322ZM260.916 203.453V208.938H245.4V203.453H260.916ZM262.556 188.875V194.383H245.4V188.875H262.556ZM266.059 210.578V210.086C266.059 208.227 266.324 206.516 266.856 204.953C267.387 203.375 268.16 202.008 269.176 200.852C270.192 199.695 271.442 198.797 272.926 198.156C274.41 197.5 276.113 197.172 278.035 197.172C279.957 197.172 281.668 197.5 283.168 198.156C284.668 198.797 285.926 199.695 286.942 200.852C287.973 202.008 288.754 203.375 289.285 204.953C289.817 206.516 290.082 208.227 290.082 210.086V210.578C290.082 212.422 289.817 214.133 289.285 215.711C288.754 217.273 287.973 218.641 286.942 219.812C285.926 220.969 284.676 221.867 283.192 222.508C281.707 223.148 280.004 223.469 278.082 223.469C276.16 223.469 274.449 223.148 272.949 222.508C271.465 221.867 270.207 220.969 269.176 219.812C268.16 218.641 267.387 217.273 266.856 215.711C266.324 214.133 266.059 212.422 266.059 210.578ZM272.809 210.086V210.578C272.809 211.641 272.902 212.633 273.09 213.555C273.277 214.477 273.574 215.289 273.981 215.992C274.402 216.68 274.949 217.219 275.621 217.609C276.293 218 277.113 218.195 278.082 218.195C279.02 218.195 279.824 218 280.496 217.609C281.168 217.219 281.707 216.68 282.113 215.992C282.52 215.289 282.817 214.477 283.004 213.555C283.207 212.633 283.309 211.641 283.309 210.578V210.086C283.309 209.055 283.207 208.086 283.004 207.18C282.817 206.258 282.512 205.445 282.09 204.742C281.684 204.023 281.145 203.461 280.473 203.055C279.801 202.648 278.988 202.445 278.035 202.445C277.082 202.445 276.27 202.648 275.598 203.055C274.942 203.461 274.402 204.023 273.981 204.742C273.574 205.445 273.277 206.258 273.09 207.18C272.902 208.086 272.809 209.055 272.809 210.086ZM310.671 216.93V197.641H317.421V223H311.069L310.671 216.93ZM311.421 211.727L313.413 211.68C313.413 213.367 313.217 214.938 312.827 216.391C312.436 217.828 311.85 219.078 311.069 220.141C310.288 221.188 309.303 222.008 308.116 222.602C306.928 223.18 305.53 223.469 303.921 223.469C302.686 223.469 301.546 223.297 300.499 222.953C299.467 222.594 298.577 222.039 297.827 221.289C297.092 220.523 296.514 219.547 296.092 218.359C295.686 217.156 295.483 215.711 295.483 214.023V197.641H302.233V214.07C302.233 214.82 302.319 215.453 302.491 215.969C302.678 216.484 302.936 216.906 303.264 217.234C303.592 217.562 303.975 217.797 304.413 217.938C304.866 218.078 305.366 218.148 305.913 218.148C307.303 218.148 308.397 217.867 309.194 217.305C310.007 216.742 310.577 215.977 310.905 215.008C311.249 214.023 311.421 212.93 311.421 211.727ZM330.626 203.055V223H323.876V197.641H330.204L330.626 203.055ZM329.642 209.43H327.814C327.814 207.555 328.056 205.867 328.54 204.367C329.025 202.852 329.704 201.562 330.579 200.5C331.454 199.422 332.493 198.602 333.697 198.039C334.915 197.461 336.275 197.172 337.775 197.172C338.962 197.172 340.048 197.344 341.033 197.688C342.017 198.031 342.861 198.578 343.564 199.328C344.283 200.078 344.829 201.07 345.204 202.305C345.595 203.539 345.79 205.047 345.79 206.828V223H338.993V206.805C338.993 205.68 338.837 204.805 338.525 204.18C338.212 203.555 337.751 203.117 337.142 202.867C336.548 202.602 335.814 202.469 334.939 202.469C334.033 202.469 333.243 202.648 332.572 203.008C331.915 203.367 331.368 203.867 330.931 204.508C330.509 205.133 330.189 205.867 329.97 206.711C329.751 207.555 329.642 208.461 329.642 209.43ZM367.34 217.469V187H374.137V223H368.019L367.34 217.469ZM351.308 210.625V210.133C351.308 208.195 351.527 206.438 351.965 204.859C352.402 203.266 353.043 201.898 353.887 200.758C354.73 199.617 355.769 198.734 357.004 198.109C358.238 197.484 359.644 197.172 361.223 197.172C362.707 197.172 364.004 197.484 365.113 198.109C366.238 198.734 367.191 199.625 367.973 200.781C368.769 201.922 369.41 203.273 369.894 204.836C370.379 206.383 370.73 208.078 370.949 209.922V211C370.73 212.766 370.379 214.406 369.894 215.922C369.41 217.438 368.769 218.766 367.973 219.906C367.191 221.031 366.238 221.906 365.113 222.531C363.988 223.156 362.676 223.469 361.176 223.469C359.598 223.469 358.191 223.148 356.957 222.508C355.738 221.867 354.707 220.969 353.863 219.812C353.035 218.656 352.402 217.297 351.965 215.734C351.527 214.172 351.308 212.469 351.308 210.625ZM358.058 210.133V210.625C358.058 211.672 358.137 212.648 358.293 213.555C358.465 214.461 358.738 215.266 359.113 215.969C359.504 216.656 360.004 217.195 360.613 217.586C361.238 217.961 361.996 218.148 362.887 218.148C364.043 218.148 364.996 217.891 365.746 217.375C366.496 216.844 367.066 216.117 367.457 215.195C367.863 214.273 368.098 213.211 368.16 212.008V208.938C368.113 207.953 367.973 207.07 367.738 206.289C367.519 205.492 367.191 204.812 366.754 204.25C366.332 203.688 365.801 203.25 365.16 202.938C364.535 202.625 363.793 202.469 362.933 202.469C362.058 202.469 361.308 202.672 360.683 203.078C360.058 203.469 359.551 204.008 359.16 204.695C358.785 205.383 358.504 206.195 358.316 207.133C358.144 208.055 358.058 209.055 358.058 210.133ZM387.975 197.641V223H381.202V197.641H387.975ZM380.78 191.031C380.78 190.047 381.123 189.234 381.811 188.594C382.498 187.953 383.42 187.633 384.577 187.633C385.717 187.633 386.631 187.953 387.319 188.594C388.022 189.234 388.373 190.047 388.373 191.031C388.373 192.016 388.022 192.828 387.319 193.469C386.631 194.109 385.717 194.43 384.577 194.43C383.42 194.43 382.498 194.109 381.811 193.469C381.123 192.828 380.78 192.016 380.78 191.031ZM401.603 203.055V223H394.853V197.641H401.181L401.603 203.055ZM400.618 209.43H398.79C398.79 207.555 399.032 205.867 399.517 204.367C400.001 202.852 400.681 201.562 401.556 200.5C402.431 199.422 403.47 198.602 404.673 198.039C405.892 197.461 407.251 197.172 408.751 197.172C409.938 197.172 411.024 197.344 412.009 197.688C412.993 198.031 413.837 198.578 414.54 199.328C415.259 200.078 415.806 201.07 416.181 202.305C416.571 203.539 416.767 205.047 416.767 206.828V223H409.97V206.805C409.97 205.68 409.813 204.805 409.501 204.18C409.188 203.555 408.728 203.117 408.118 202.867C407.524 202.602 406.79 202.469 405.915 202.469C405.009 202.469 404.22 202.648 403.548 203.008C402.892 203.367 402.345 203.867 401.907 204.508C401.485 205.133 401.165 205.867 400.946 206.711C400.728 207.555 400.618 208.461 400.618 209.43ZM439.394 197.641H445.511V222.156C445.511 224.469 444.996 226.43 443.964 228.039C442.949 229.664 441.527 230.891 439.699 231.719C437.871 232.562 435.746 232.984 433.324 232.984C432.261 232.984 431.136 232.844 429.949 232.562C428.777 232.281 427.652 231.844 426.574 231.25C425.511 230.656 424.621 229.906 423.902 229L426.878 225.016C427.66 225.922 428.566 226.625 429.597 227.125C430.628 227.641 431.769 227.898 433.019 227.898C434.238 227.898 435.269 227.672 436.113 227.219C436.957 226.781 437.605 226.133 438.058 225.273C438.511 224.43 438.738 223.406 438.738 222.203V203.5L439.394 197.641ZM422.332 210.625V210.133C422.332 208.195 422.566 206.438 423.035 204.859C423.519 203.266 424.199 201.898 425.074 200.758C425.964 199.617 427.043 198.734 428.308 198.109C429.574 197.484 431.003 197.172 432.597 197.172C434.285 197.172 435.699 197.484 436.839 198.109C437.98 198.734 438.918 199.625 439.652 200.781C440.386 201.922 440.957 203.273 441.363 204.836C441.785 206.383 442.113 208.078 442.347 209.922V211C442.113 212.766 441.761 214.406 441.293 215.922C440.824 217.438 440.207 218.766 439.441 219.906C438.675 221.031 437.722 221.906 436.582 222.531C435.457 223.156 434.113 223.469 432.55 223.469C430.988 223.469 429.574 223.148 428.308 222.508C427.058 221.867 425.988 220.969 425.097 219.812C424.207 218.656 423.519 217.297 423.035 215.734C422.566 214.172 422.332 212.469 422.332 210.625ZM429.082 210.133V210.625C429.082 211.672 429.183 212.648 429.386 213.555C429.589 214.461 429.902 215.266 430.324 215.969C430.761 216.656 431.3 217.195 431.941 217.586C432.597 217.961 433.371 218.148 434.261 218.148C435.496 218.148 436.503 217.891 437.285 217.375C438.066 216.844 438.652 216.117 439.043 215.195C439.433 214.273 439.66 213.211 439.722 212.008V208.938C439.691 207.953 439.558 207.07 439.324 206.289C439.089 205.492 438.761 204.812 438.339 204.25C437.918 203.688 437.371 203.25 436.699 202.938C436.027 202.625 435.23 202.469 434.308 202.469C433.418 202.469 432.644 202.672 431.988 203.078C431.347 203.469 430.808 204.008 430.371 204.695C429.949 205.383 429.628 206.195 429.41 207.133C429.191 208.055 429.082 209.055 429.082 210.133ZM230.021 264.438L235.295 245.641H239.584L238.201 253.023L232.927 271H229.342L230.021 264.438ZM227.349 245.641L231.123 264.414L231.474 271H227.256L220.834 245.641H227.349ZM244.412 264.109L248.092 245.641H254.631L248.209 271H244.013L244.412 264.109ZM240.17 245.641L245.42 264.297L246.146 271H242.537L237.263 253.047L235.927 245.641H240.17ZM266.594 245.641V271H259.821V245.641H266.594ZM259.399 239.031C259.399 238.047 259.742 237.234 260.43 236.594C261.117 235.953 262.039 235.633 263.196 235.633C264.336 235.633 265.25 235.953 265.938 236.594C266.641 237.234 266.992 238.047 266.992 239.031C266.992 240.016 266.641 240.828 265.938 241.469C265.25 242.109 264.336 242.43 263.196 242.43C262.039 242.43 261.117 242.109 260.43 241.469C259.742 240.828 259.399 240.016 259.399 239.031ZM286.034 245.641V250.422H271.268V245.641H286.034ZM274.925 239.383H281.675V263.359C281.675 264.094 281.768 264.656 281.956 265.047C282.159 265.438 282.456 265.711 282.847 265.867C283.237 266.008 283.729 266.078 284.323 266.078C284.745 266.078 285.12 266.062 285.448 266.031C285.792 265.984 286.081 265.938 286.315 265.891L286.339 270.859C285.761 271.047 285.136 271.195 284.464 271.305C283.792 271.414 283.05 271.469 282.237 271.469C280.753 271.469 279.456 271.227 278.347 270.742C277.253 270.242 276.409 269.445 275.815 268.352C275.222 267.258 274.925 265.82 274.925 264.039V239.383ZM297.904 235V271H291.154V235H297.904ZM296.943 257.43H295.091C295.107 255.664 295.341 254.039 295.794 252.555C296.247 251.055 296.896 249.758 297.74 248.664C298.583 247.555 299.591 246.695 300.763 246.086C301.951 245.477 303.263 245.172 304.701 245.172C305.951 245.172 307.083 245.352 308.099 245.711C309.13 246.055 310.013 246.617 310.747 247.398C311.497 248.164 312.076 249.172 312.482 250.422C312.888 251.672 313.091 253.188 313.091 254.969V271H306.294V254.922C306.294 253.797 306.13 252.914 305.802 252.273C305.49 251.617 305.029 251.156 304.419 250.891C303.826 250.609 303.091 250.469 302.216 250.469C301.247 250.469 300.419 250.648 299.732 251.008C299.06 251.367 298.521 251.867 298.115 252.508C297.708 253.133 297.412 253.867 297.224 254.711C297.037 255.555 296.943 256.461 296.943 257.43ZM345.479 245.641V250.422H330.713V245.641H345.479ZM334.37 239.383H341.12V263.359C341.12 264.094 341.213 264.656 341.401 265.047C341.604 265.438 341.901 265.711 342.292 265.867C342.682 266.008 343.174 266.078 343.768 266.078C344.19 266.078 344.565 266.062 344.893 266.031C345.237 265.984 345.526 265.938 345.76 265.891L345.784 270.859C345.206 271.047 344.581 271.195 343.909 271.305C343.237 271.414 342.495 271.469 341.682 271.469C340.198 271.469 338.901 271.227 337.792 270.742C336.698 270.242 335.854 269.445 335.26 268.352C334.667 267.258 334.37 265.82 334.37 264.039V239.383ZM357.349 235V271H350.599V235H357.349ZM356.388 257.43H354.536C354.552 255.664 354.786 254.039 355.239 252.555C355.693 251.055 356.341 249.758 357.185 248.664C358.028 247.555 359.036 246.695 360.208 246.086C361.396 245.477 362.708 245.172 364.146 245.172C365.396 245.172 366.528 245.352 367.544 245.711C368.575 246.055 369.458 246.617 370.193 247.398C370.943 248.164 371.521 249.172 371.927 250.422C372.333 251.672 372.536 253.188 372.536 254.969V271H365.739V254.922C365.739 253.797 365.575 252.914 365.247 252.273C364.935 251.617 364.474 251.156 363.864 250.891C363.271 250.609 362.536 250.469 361.661 250.469C360.693 250.469 359.864 250.648 359.177 251.008C358.505 251.367 357.966 251.867 357.56 252.508C357.153 253.133 356.857 253.867 356.669 254.711C356.482 255.555 356.388 256.461 356.388 257.43ZM390.781 271.469C388.812 271.469 387.047 271.156 385.484 270.531C383.922 269.891 382.593 269.008 381.5 267.883C380.422 266.758 379.593 265.453 379.015 263.969C378.437 262.469 378.148 260.875 378.148 259.188V258.25C378.148 256.328 378.422 254.57 378.968 252.977C379.515 251.383 380.297 250 381.312 248.828C382.343 247.656 383.593 246.758 385.062 246.133C386.531 245.492 388.187 245.172 390.031 245.172C391.828 245.172 393.422 245.469 394.812 246.062C396.203 246.656 397.367 247.5 398.304 248.594C399.258 249.688 399.976 251 400.461 252.531C400.945 254.047 401.187 255.734 401.187 257.594V260.406H381.031V255.906H394.554V255.391C394.554 254.453 394.383 253.617 394.039 252.883C393.711 252.133 393.211 251.539 392.539 251.102C391.867 250.664 391.008 250.445 389.961 250.445C389.07 250.445 388.304 250.641 387.664 251.031C387.023 251.422 386.5 251.969 386.093 252.672C385.703 253.375 385.406 254.203 385.203 255.156C385.015 256.094 384.922 257.125 384.922 258.25V259.188C384.922 260.203 385.062 261.141 385.343 262C385.64 262.859 386.054 263.602 386.586 264.227C387.133 264.852 387.789 265.336 388.554 265.68C389.336 266.023 390.218 266.195 391.203 266.195C392.422 266.195 393.554 265.961 394.601 265.492C395.664 265.008 396.578 264.281 397.343 263.312L400.625 266.875C400.093 267.641 399.367 268.375 398.445 269.078C397.539 269.781 396.445 270.359 395.164 270.812C393.883 271.25 392.422 271.469 390.781 271.469ZM204.756 307.68H211.763C211.623 309.977 210.99 312.016 209.865 313.797C208.756 315.578 207.201 316.969 205.201 317.969C203.217 318.969 200.826 319.469 198.029 319.469C195.842 319.469 193.881 319.094 192.146 318.344C190.412 317.578 188.928 316.484 187.693 315.062C186.474 313.641 185.545 311.922 184.904 309.906C184.263 307.891 183.943 305.633 183.943 303.133V300.766C183.943 298.266 184.271 296.008 184.928 293.992C185.599 291.961 186.553 290.234 187.787 288.812C189.037 287.391 190.529 286.297 192.263 285.531C193.998 284.766 195.935 284.383 198.076 284.383C200.92 284.383 203.318 284.898 205.271 285.93C207.24 286.961 208.763 288.383 209.842 290.195C210.935 292.008 211.592 294.07 211.81 296.383H204.779C204.701 295.008 204.428 293.844 203.959 292.891C203.49 291.922 202.779 291.195 201.826 290.711C200.888 290.211 199.638 289.961 198.076 289.961C196.904 289.961 195.881 290.18 195.006 290.617C194.131 291.055 193.396 291.719 192.803 292.609C192.209 293.5 191.763 294.625 191.467 295.984C191.185 297.328 191.045 298.906 191.045 300.719V303.133C191.045 304.898 191.178 306.453 191.443 307.797C191.709 309.125 192.115 310.25 192.662 311.172C193.224 312.078 193.943 312.766 194.818 313.234C195.709 313.688 196.779 313.914 198.029 313.914C199.498 313.914 200.709 313.68 201.662 313.211C202.615 312.742 203.342 312.047 203.842 311.125C204.357 310.203 204.662 309.055 204.756 307.68ZM216.321 306.578V306.086C216.321 304.227 216.586 302.516 217.118 300.953C217.649 299.375 218.422 298.008 219.438 296.852C220.453 295.695 221.703 294.797 223.188 294.156C224.672 293.5 226.375 293.172 228.297 293.172C230.219 293.172 231.93 293.5 233.43 294.156C234.93 294.797 236.188 295.695 237.203 296.852C238.235 298.008 239.016 299.375 239.547 300.953C240.078 302.516 240.344 304.227 240.344 306.086V306.578C240.344 308.422 240.078 310.133 239.547 311.711C239.016 313.273 238.235 314.641 237.203 315.812C236.188 316.969 234.938 317.867 233.453 318.508C231.969 319.148 230.266 319.469 228.344 319.469C226.422 319.469 224.711 319.148 223.211 318.508C221.727 317.867 220.469 316.969 219.438 315.812C218.422 314.641 217.649 313.273 217.118 311.711C216.586 310.133 216.321 308.422 216.321 306.578ZM223.071 306.086V306.578C223.071 307.641 223.164 308.633 223.352 309.555C223.539 310.477 223.836 311.289 224.243 311.992C224.664 312.68 225.211 313.219 225.883 313.609C226.555 314 227.375 314.195 228.344 314.195C229.282 314.195 230.086 314 230.758 313.609C231.43 313.219 231.969 312.68 232.375 311.992C232.782 311.289 233.078 310.477 233.266 309.555C233.469 308.633 233.571 307.641 233.571 306.578V306.086C233.571 305.055 233.469 304.086 233.266 303.18C233.078 302.258 232.774 301.445 232.352 300.742C231.946 300.023 231.407 299.461 230.735 299.055C230.063 298.648 229.25 298.445 228.297 298.445C227.344 298.445 226.532 298.648 225.86 299.055C225.203 299.461 224.664 300.023 224.243 300.742C223.836 301.445 223.539 302.258 223.352 303.18C223.164 304.086 223.071 305.055 223.071 306.086ZM252.683 298.891V319H245.909V293.641H252.261L252.683 298.891ZM251.745 305.43H249.87C249.87 303.664 250.081 302.039 250.503 300.555C250.94 299.055 251.573 297.758 252.401 296.664C253.245 295.555 254.284 294.695 255.518 294.086C256.753 293.477 258.183 293.172 259.808 293.172C260.933 293.172 261.964 293.344 262.901 293.688C263.839 294.016 264.643 294.539 265.315 295.258C266.003 295.961 266.534 296.883 266.909 298.023C267.284 299.148 267.472 300.5 267.472 302.078V319H260.722V302.828C260.722 301.672 260.565 300.781 260.253 300.156C259.94 299.531 259.495 299.094 258.917 298.844C258.354 298.594 257.675 298.469 256.878 298.469C256.003 298.469 255.237 298.648 254.581 299.008C253.94 299.367 253.409 299.867 252.987 300.508C252.565 301.133 252.253 301.867 252.05 302.711C251.847 303.555 251.745 304.461 251.745 305.43ZM266.839 304.656L264.425 304.961C264.425 303.305 264.628 301.766 265.034 300.344C265.456 298.922 266.073 297.672 266.886 296.594C267.714 295.516 268.737 294.68 269.956 294.086C271.175 293.477 272.581 293.172 274.175 293.172C275.393 293.172 276.503 293.352 277.503 293.711C278.503 294.055 279.354 294.609 280.058 295.375C280.776 296.125 281.323 297.109 281.698 298.328C282.089 299.547 282.284 301.039 282.284 302.805V319H275.511V302.805C275.511 301.633 275.354 300.742 275.042 300.133C274.745 299.508 274.308 299.078 273.729 298.844C273.167 298.594 272.495 298.469 271.714 298.469C270.901 298.469 270.19 298.633 269.581 298.961C268.972 299.273 268.464 299.711 268.058 300.273C267.651 300.836 267.347 301.492 267.143 302.242C266.94 302.977 266.839 303.781 266.839 304.656ZM295.701 298.891V319H288.927V293.641H295.279L295.701 298.891ZM294.763 305.43H292.888C292.888 303.664 293.099 302.039 293.521 300.555C293.958 299.055 294.591 297.758 295.419 296.664C296.263 295.555 297.302 294.695 298.537 294.086C299.771 293.477 301.201 293.172 302.826 293.172C303.951 293.172 304.982 293.344 305.919 293.688C306.857 294.016 307.662 294.539 308.333 295.258C309.021 295.961 309.552 296.883 309.927 298.023C310.302 299.148 310.49 300.5 310.49 302.078V319H303.74V302.828C303.74 301.672 303.583 300.781 303.271 300.156C302.958 299.531 302.513 299.094 301.935 298.844C301.372 298.594 300.693 298.469 299.896 298.469C299.021 298.469 298.255 298.648 297.599 299.008C296.958 299.367 296.427 299.867 296.005 300.508C295.583 301.133 295.271 301.867 295.068 302.711C294.865 303.555 294.763 304.461 294.763 305.43ZM309.857 304.656L307.443 304.961C307.443 303.305 307.646 301.766 308.052 300.344C308.474 298.922 309.091 297.672 309.904 296.594C310.732 295.516 311.755 294.68 312.974 294.086C314.193 293.477 315.599 293.172 317.193 293.172C318.412 293.172 319.521 293.352 320.521 293.711C321.521 294.055 322.372 294.609 323.076 295.375C323.794 296.125 324.341 297.109 324.716 298.328C325.107 299.547 325.302 301.039 325.302 302.805V319H318.529V302.805C318.529 301.633 318.372 300.742 318.06 300.133C317.763 299.508 317.326 299.078 316.747 298.844C316.185 298.594 315.513 298.469 314.732 298.469C313.919 298.469 313.208 298.633 312.599 298.961C311.99 299.273 311.482 299.711 311.076 300.273C310.669 300.836 310.365 301.492 310.162 302.242C309.958 302.977 309.857 303.781 309.857 304.656ZM346.969 312.93V293.641H353.719V319H347.367L346.969 312.93ZM347.719 307.727L349.711 307.68C349.711 309.367 349.516 310.938 349.125 312.391C348.734 313.828 348.148 315.078 347.367 316.141C346.586 317.188 345.602 318.008 344.414 318.602C343.227 319.18 341.828 319.469 340.219 319.469C338.984 319.469 337.844 319.297 336.797 318.953C335.766 318.594 334.875 318.039 334.125 317.289C333.391 316.523 332.812 315.547 332.391 314.359C331.984 313.156 331.781 311.711 331.781 310.023V293.641H338.531V310.07C338.531 310.82 338.617 311.453 338.789 311.969C338.977 312.484 339.234 312.906 339.562 313.234C339.891 313.562 340.273 313.797 340.711 313.938C341.164 314.078 341.664 314.148 342.211 314.148C343.602 314.148 344.695 313.867 345.492 313.305C346.305 312.742 346.875 311.977 347.203 311.008C347.547 310.023 347.719 308.93 347.719 307.727ZM366.924 299.055V319H360.174V293.641H366.503L366.924 299.055ZM365.94 305.43H364.112C364.112 303.555 364.354 301.867 364.838 300.367C365.323 298.852 366.003 297.562 366.878 296.5C367.753 295.422 368.792 294.602 369.995 294.039C371.213 293.461 372.573 293.172 374.073 293.172C375.26 293.172 376.346 293.344 377.331 293.688C378.315 294.031 379.159 294.578 379.862 295.328C380.581 296.078 381.128 297.07 381.503 298.305C381.893 299.539 382.088 301.047 382.088 302.828V319H375.292V302.805C375.292 301.68 375.135 300.805 374.823 300.18C374.51 299.555 374.049 299.117 373.44 298.867C372.846 298.602 372.112 298.469 371.237 298.469C370.331 298.469 369.542 298.648 368.87 299.008C368.213 299.367 367.667 299.867 367.229 300.508C366.807 301.133 366.487 301.867 366.268 302.711C366.049 303.555 365.94 304.461 365.94 305.43ZM395.786 293.641V319H389.013V293.641H395.786ZM388.591 287.031C388.591 286.047 388.935 285.234 389.622 284.594C390.31 283.953 391.232 283.633 392.388 283.633C393.528 283.633 394.443 283.953 395.13 284.594C395.833 285.234 396.185 286.047 396.185 287.031C396.185 288.016 395.833 288.828 395.13 289.469C394.443 290.109 393.528 290.43 392.388 290.43C391.232 290.43 390.31 290.109 389.622 289.469C388.935 288.828 388.591 288.016 388.591 287.031ZM415.226 293.641V298.422H400.461V293.641H415.226ZM404.117 287.383H410.867V311.359C410.867 312.094 410.961 312.656 411.148 313.047C411.351 313.438 411.648 313.711 412.039 313.867C412.429 314.008 412.922 314.078 413.515 314.078C413.937 314.078 414.312 314.062 414.64 314.031C414.984 313.984 415.273 313.938 415.508 313.891L415.531 318.859C414.953 319.047 414.328 319.195 413.656 319.305C412.984 319.414 412.242 319.469 411.429 319.469C409.945 319.469 408.648 319.227 407.539 318.742C406.445 318.242 405.601 317.445 405.008 316.352C404.414 315.258 404.117 313.82 404.117 312.039V287.383ZM428.033 316.141L434.76 293.641H442.002L431.807 322.82C431.588 323.461 431.291 324.148 430.916 324.883C430.557 325.617 430.065 326.312 429.44 326.969C428.83 327.641 428.057 328.188 427.119 328.609C426.198 329.031 425.065 329.242 423.721 329.242C423.08 329.242 422.557 329.203 422.151 329.125C421.744 329.047 421.26 328.938 420.698 328.797V323.852C420.869 323.852 421.049 323.852 421.237 323.852C421.424 323.867 421.604 323.875 421.776 323.875C422.666 323.875 423.393 323.773 423.955 323.57C424.518 323.367 424.971 323.055 425.315 322.633C425.658 322.227 425.932 321.695 426.135 321.039L428.033 316.141ZM425.221 293.641L430.729 312.016L431.69 319.164L427.096 319.656L417.979 293.641H425.221Z" fill="#114DFF"/>
<defs>
<filter id="filter0_d_65_390" x="-985.8" y="0.2" width="1567.6" height="505.6" filterUnits="userSpaceOnUse" color-interpolation-filters="sRGB">
<feFlood flood-opacity="0" result="BackgroundImageFix"/>
<feColorMatrix in="SourceAlpha" type="matrix" values="0 0 0 0 0 0 0 0 0 0 0 0 0 0 0 0 0 0 127 0" result="hardAlpha"/>
<feOffset dy="4"/>
<feGaussianBlur stdDeviation="7.9"/>
<feComposite in2="hardAlpha" operator="out"/>
<feColorMatrix type="matrix" values="0 0 0 0 0 0 0 0 0 0 0 0 0 0 0 0 0 0 0.12 0"/>
<feBlend mode="normal" in2="BackgroundImageFix" result="effect1_dropShadow_65_390"/>
<feBlend mode="normal" in="SourceGraphic" in2="effect1_dropShadow_65_390" result="shape"/>
</filter>
<filter id="filter1_f_65_390" x="-1193.2" y="-267.2" width="1898.4" height="938.4" filterUnits="userSpaceOnUse" color-interpolation-filters="sRGB">
<feFlood flood-opacity="0" result="BackgroundImageFix"/>
<feBlend mode="normal" in="SourceGraphic" in2="BackgroundImageFix" result="shape"/>
<feGaussianBlur stdDeviation="43.1" result="effect1_foregroundBlur_65_390"/>
</filter>
<linearGradient id="paint0_linear_65_390" x1="-107.102" y1="237" x2="1188" y2="911.141" gradientUnits="userSpaceOnUse">
<stop offset="0.110599" stop-color="#F6F8FF"/>
<stop offset="0.403872" stop-color="#F6F8FF"/>
<stop offset="0.639452" stop-color="#99EED3"/>
<stop offset="0.77407" stop-color="#3CE5A7"/>
<stop offset="1" stop-color="#114DFF"/>
</linearGradient>
<linearGradient id="paint1_linear_65_390" x1="26.1224" y1="31.1842" x2="1541.82" y2="176.164" gradientUnits="userSpaceOnUse">
<stop offset="0.230793" stop-color="white"/>
<stop offset="0.461565" stop-color="#F6F8FF"/>
<stop offset="0.701953" stop-color="#3CE5A7"/>
<stop offset="1" stop-color="#114DFF" stop-opacity="0"/>
</linearGradient>
</defs>
</svg>
