<svg width="951" height="165" viewBox="0 0 951 165" fill="none" xmlns="http://www.w3.org/2000/svg">
<g filter="url(#filter0_d_138_910)">
<rect x="4" width="943" height="157" rx="78.5" fill="#06288B"/>
</g>
<path d="M230.143 91H224.57L224.605 86.8867H230.143C231.525 86.8867 232.691 86.5762 233.641 85.9551C234.59 85.3223 235.305 84.4023 235.785 83.1953C236.277 81.9883 236.523 80.5293 236.523 78.8184V77.5703C236.523 76.2578 236.383 75.1035 236.102 74.1074C235.832 73.1113 235.428 72.2734 234.889 71.5938C234.35 70.9141 233.688 70.4043 232.902 70.0645C232.117 69.7129 231.215 69.5371 230.195 69.5371H224.465V65.4062H230.195C231.906 65.4062 233.471 65.6992 234.889 66.2852C236.318 66.8594 237.555 67.6855 238.598 68.7637C239.641 69.8418 240.443 71.1309 241.006 72.6309C241.58 74.1191 241.867 75.7773 241.867 77.6055V78.8184C241.867 80.6348 241.58 82.293 241.006 83.793C240.443 85.293 239.641 86.582 238.598 87.6602C237.566 88.7266 236.33 89.5527 234.889 90.1387C233.459 90.7129 231.877 91 230.143 91ZM227.559 65.4062V91H222.285V65.4062H227.559ZM255.217 91.3516C253.74 91.3516 252.416 91.1172 251.244 90.6484C250.072 90.168 249.076 89.5059 248.256 88.6621C247.447 87.8184 246.826 86.8398 246.392 85.7266C245.959 84.6016 245.742 83.4062 245.742 82.1406V81.4375C245.742 79.9961 245.947 78.6777 246.357 77.4824C246.767 76.2871 247.353 75.25 248.115 74.3711C248.889 73.4922 249.826 72.8184 250.928 72.3496C252.029 71.8691 253.271 71.6289 254.654 71.6289C256.002 71.6289 257.197 71.8516 258.24 72.2969C259.283 72.7422 260.156 73.375 260.859 74.1953C261.574 75.0156 262.113 76 262.476 77.1484C262.84 78.2852 263.021 79.5508 263.021 80.9453V83.0547H247.904V79.6797H258.047V79.293C258.047 78.5898 257.918 77.9629 257.66 77.4121C257.414 76.8496 257.039 76.4043 256.535 76.0762C256.031 75.748 255.387 75.584 254.601 75.584C253.934 75.584 253.359 75.7305 252.879 76.0234C252.398 76.3164 252.006 76.7266 251.701 77.2539C251.408 77.7812 251.185 78.4023 251.033 79.1172C250.892 79.8203 250.822 80.5938 250.822 81.4375V82.1406C250.822 82.9023 250.928 83.6055 251.139 84.25C251.361 84.8945 251.672 85.4512 252.07 85.9199C252.48 86.3887 252.973 86.752 253.547 87.0098C254.133 87.2676 254.795 87.3965 255.533 87.3965C256.447 87.3965 257.297 87.2207 258.082 86.8691C258.879 86.5059 259.564 85.9609 260.139 85.2344L262.6 87.9062C262.201 88.4805 261.656 89.0312 260.965 89.5586C260.285 90.0859 259.465 90.5195 258.504 90.8594C257.543 91.1875 256.447 91.3516 255.217 91.3516ZM272.047 75.918V91H266.967V71.9805H271.73L272.047 75.918ZM271.344 80.8223H269.937C269.937 79.498 270.096 78.2793 270.412 77.166C270.74 76.041 271.215 75.0684 271.836 74.248C272.469 73.416 273.248 72.7715 274.174 72.3145C275.099 71.8574 276.172 71.6289 277.39 71.6289C278.234 71.6289 279.008 71.7578 279.711 72.0156C280.414 72.2617 281.017 72.6543 281.521 73.1934C282.037 73.7207 282.435 74.4121 282.717 75.2676C282.998 76.1113 283.139 77.125 283.139 78.3086V91H278.076V78.8711C278.076 78.0039 277.959 77.3359 277.724 76.8672C277.49 76.3984 277.156 76.0703 276.722 75.8828C276.301 75.6953 275.791 75.6016 275.193 75.6016C274.537 75.6016 273.963 75.7363 273.471 76.0059C272.99 76.2754 272.592 76.6504 272.275 77.1309C271.959 77.5996 271.724 78.1504 271.572 78.7832C271.42 79.416 271.344 80.0957 271.344 80.8223ZM282.664 80.2422L280.853 80.4707C280.853 79.2285 281.006 78.0742 281.31 77.0078C281.627 75.9414 282.09 75.0039 282.699 74.1953C283.32 73.3867 284.088 72.7598 285.002 72.3145C285.916 71.8574 286.971 71.6289 288.166 71.6289C289.08 71.6289 289.912 71.7637 290.662 72.0332C291.412 72.291 292.051 72.707 292.578 73.2812C293.117 73.8438 293.527 74.582 293.808 75.4961C294.101 76.4102 294.248 77.5293 294.248 78.8535V91H289.168V78.8535C289.168 77.9746 289.051 77.3066 288.816 76.8496C288.594 76.3809 288.265 76.0586 287.832 75.8828C287.41 75.6953 286.906 75.6016 286.32 75.6016C285.711 75.6016 285.178 75.7246 284.721 75.9707C284.264 76.2051 283.883 76.5332 283.578 76.9551C283.273 77.377 283.045 77.8691 282.892 78.4316C282.74 78.9824 282.664 79.5859 282.664 80.2422ZM298.439 81.6836V81.3145C298.439 79.9199 298.638 78.6367 299.037 77.4648C299.435 76.2812 300.015 75.2559 300.777 74.3887C301.539 73.5215 302.476 72.8477 303.59 72.3672C304.703 71.875 305.98 71.6289 307.422 71.6289C308.863 71.6289 310.146 71.875 311.271 72.3672C312.396 72.8477 313.34 73.5215 314.101 74.3887C314.875 75.2559 315.461 76.2812 315.859 77.4648C316.258 78.6367 316.457 79.9199 316.457 81.3145V81.6836C316.457 83.0664 316.258 84.3496 315.859 85.5332C315.461 86.7051 314.875 87.7305 314.101 88.6094C313.34 89.4766 312.402 90.1504 311.289 90.6309C310.176 91.1113 308.898 91.3516 307.457 91.3516C306.015 91.3516 304.732 91.1113 303.607 90.6309C302.494 90.1504 301.551 89.4766 300.777 88.6094C300.015 87.7305 299.435 86.7051 299.037 85.5332C298.638 84.3496 298.439 83.0664 298.439 81.6836ZM303.502 81.3145V81.6836C303.502 82.4805 303.572 83.2246 303.713 83.916C303.853 84.6074 304.076 85.2168 304.381 85.7441C304.697 86.2598 305.107 86.6641 305.611 86.957C306.115 87.25 306.73 87.3965 307.457 87.3965C308.16 87.3965 308.763 87.25 309.267 86.957C309.771 86.6641 310.176 86.2598 310.48 85.7441C310.785 85.2168 311.008 84.6074 311.148 83.916C311.301 83.2246 311.377 82.4805 311.377 81.6836V81.3145C311.377 80.541 311.301 79.8145 311.148 79.1348C311.008 78.4434 310.779 77.834 310.463 77.3066C310.158 76.7676 309.754 76.3457 309.25 76.041C308.746 75.7363 308.136 75.584 307.422 75.584C306.707 75.584 306.097 75.7363 305.594 76.041C305.101 76.3457 304.697 76.7676 304.381 77.3066C304.076 77.834 303.853 78.4434 303.713 79.1348C303.572 79.8145 303.502 80.541 303.502 81.3145ZM338.867 91H333.295L333.33 86.8867H338.867C340.25 86.8867 341.416 86.5762 342.365 85.9551C343.314 85.3223 344.029 84.4023 344.509 83.1953C345.002 81.9883 345.248 80.5293 345.248 78.8184V77.5703C345.248 76.2578 345.107 75.1035 344.826 74.1074C344.556 73.1113 344.152 72.2734 343.613 71.5938C343.074 70.9141 342.412 70.4043 341.627 70.0645C340.841 69.7129 339.939 69.5371 338.92 69.5371H333.189V65.4062H338.92C340.63 65.4062 342.195 65.6992 343.613 66.2852C345.043 66.8594 346.279 67.6855 347.322 68.7637C348.365 69.8418 349.168 71.1309 349.73 72.6309C350.304 74.1191 350.591 75.7773 350.591 77.6055V78.8184C350.591 80.6348 350.304 82.293 349.73 83.793C349.168 85.293 348.365 86.582 347.322 87.6602C346.291 88.7266 345.054 89.5527 343.613 90.1387C342.183 90.7129 340.601 91 338.867 91ZM336.283 65.4062V91H331.009V65.4062H336.283ZM365.453 86.7109V78.2383C365.453 77.6289 365.353 77.1074 365.154 76.6738C364.955 76.2285 364.644 75.8828 364.222 75.6367C363.812 75.3906 363.279 75.2676 362.623 75.2676C362.06 75.2676 361.574 75.3672 361.164 75.5664C360.753 75.7539 360.437 76.0293 360.214 76.3926C359.992 76.7441 359.88 77.1602 359.88 77.6406H354.818C354.818 76.832 355.005 76.0645 355.38 75.3379C355.755 74.6113 356.3 73.9727 357.015 73.4219C357.73 72.8594 358.58 72.4199 359.564 72.1035C360.56 71.7871 361.673 71.6289 362.904 71.6289C364.38 71.6289 365.693 71.875 366.841 72.3672C367.99 72.8594 368.892 73.5977 369.548 74.582C370.216 75.5664 370.55 76.7969 370.55 78.2734V86.4121C370.55 87.4551 370.615 88.3105 370.744 88.9785C370.873 89.6348 371.06 90.209 371.306 90.7012V91H366.191C365.945 90.4844 365.757 89.8398 365.628 89.0664C365.511 88.2812 365.453 87.4961 365.453 86.7109ZM366.121 79.416L366.156 82.2812H363.326C362.658 82.2812 362.078 82.3574 361.585 82.5098C361.093 82.6621 360.689 82.8789 360.373 83.1602C360.056 83.4297 359.822 83.7461 359.669 84.1094C359.529 84.4727 359.459 84.8711 359.459 85.3047C359.459 85.7383 359.558 86.1309 359.757 86.4824C359.957 86.8223 360.244 87.0918 360.619 87.291C360.994 87.4785 361.433 87.5723 361.937 87.5723C362.699 87.5723 363.361 87.4199 363.923 87.1152C364.486 86.8105 364.919 86.4355 365.224 85.9902C365.541 85.5449 365.705 85.123 365.716 84.7246L367.052 86.8691C366.865 87.3496 366.607 87.8477 366.279 88.3633C365.962 88.8789 365.558 89.3652 365.066 89.8223C364.574 90.2676 363.982 90.6367 363.291 90.9297C362.599 91.2109 361.779 91.3516 360.83 91.3516C359.623 91.3516 358.527 91.1113 357.542 90.6309C356.57 90.1387 355.796 89.4648 355.222 88.6094C354.66 87.7422 354.378 86.7578 354.378 85.6562C354.378 84.6602 354.566 83.7754 354.941 83.002C355.316 82.2285 355.867 81.5781 356.593 81.0508C357.332 80.5117 358.251 80.1074 359.353 79.8379C360.455 79.5566 361.732 79.416 363.185 79.416H366.121ZM380.894 88.8555L385.939 71.9805H391.371L383.724 93.8652C383.56 94.3457 383.337 94.8613 383.056 95.4121C382.787 95.9629 382.417 96.4844 381.949 96.9766C381.492 97.4805 380.912 97.8906 380.208 98.207C379.517 98.5234 378.667 98.6816 377.66 98.6816C377.179 98.6816 376.787 98.6523 376.482 98.5938C376.177 98.5352 375.814 98.4531 375.392 98.3477V94.6387C375.521 94.6387 375.656 94.6387 375.796 94.6387C375.937 94.6504 376.072 94.6562 376.201 94.6562C376.869 94.6562 377.414 94.5801 377.835 94.4277C378.257 94.2754 378.597 94.041 378.855 93.7246C379.113 93.4199 379.318 93.0215 379.47 92.5293L380.894 88.8555ZM378.785 71.9805L382.915 85.7617L383.636 91.123L380.191 91.4922L373.353 71.9805H378.785ZM409.579 75.6367V98.3125H404.517V71.9805H409.21L409.579 75.6367ZM421.62 81.2793V81.6484C421.62 83.0312 421.456 84.3145 421.128 85.498C420.812 86.6816 420.343 87.7129 419.722 88.5918C419.101 89.459 418.327 90.1387 417.402 90.6309C416.488 91.1113 415.433 91.3516 414.238 91.3516C413.077 91.3516 412.07 91.1172 411.214 90.6484C410.359 90.1797 409.638 89.5234 409.052 88.6797C408.478 87.8242 408.015 86.834 407.663 85.709C407.312 84.584 407.042 83.377 406.855 82.0879V81.1211C407.042 79.7383 407.312 78.4727 407.663 77.3242C408.015 76.1641 408.478 75.1621 409.052 74.3184C409.638 73.4629 410.353 72.8008 411.197 72.332C412.052 71.8633 413.054 71.6289 414.202 71.6289C415.409 71.6289 416.47 71.8574 417.384 72.3145C418.31 72.7715 419.083 73.4277 419.704 74.2832C420.337 75.1387 420.812 76.1582 421.128 77.3418C421.456 78.5254 421.62 79.8379 421.62 81.2793ZM416.54 81.6484V81.2793C416.54 80.4707 416.47 79.7266 416.329 79.0469C416.2 78.3555 415.99 77.752 415.697 77.2363C415.415 76.7207 415.04 76.3223 414.572 76.041C414.115 75.748 413.558 75.6016 412.902 75.6016C412.21 75.6016 411.618 75.7129 411.126 75.9355C410.646 76.1582 410.253 76.4805 409.949 76.9023C409.644 77.3242 409.415 77.8281 409.263 78.4141C409.111 79 409.017 79.6621 408.982 80.4004V82.8438C409.04 83.7109 409.204 84.4902 409.474 85.1816C409.743 85.8613 410.159 86.4004 410.722 86.7988C411.284 87.1973 412.023 87.3965 412.937 87.3965C413.605 87.3965 414.167 87.25 414.624 86.957C415.081 86.6523 415.45 86.2363 415.732 85.709C416.025 85.1816 416.23 84.5723 416.347 83.8809C416.476 83.1895 416.54 82.4453 416.54 81.6484ZM430.909 76.1289V91H425.847V71.9805H430.611L430.909 76.1289ZM436.64 71.8574L436.552 76.5508C436.306 76.5156 436.007 76.4863 435.655 76.4629C435.316 76.4277 435.005 76.4102 434.724 76.4102C434.009 76.4102 433.388 76.5039 432.861 76.6914C432.345 76.8672 431.911 77.1309 431.56 77.4824C431.22 77.834 430.962 78.2617 430.786 78.7656C430.622 79.2695 430.529 79.8438 430.505 80.4883L429.486 80.1719C429.486 78.9414 429.609 77.8105 429.855 76.7793C430.101 75.7363 430.458 74.8281 430.927 74.0547C431.407 73.2812 431.993 72.6836 432.685 72.2617C433.376 71.8398 434.167 71.6289 435.058 71.6289C435.339 71.6289 435.626 71.6523 435.919 71.6992C436.212 71.7344 436.452 71.7871 436.64 71.8574ZM448.513 91.3516C447.036 91.3516 445.712 91.1172 444.54 90.6484C443.368 90.168 442.372 89.5059 441.552 88.6621C440.743 87.8184 440.122 86.8398 439.689 85.7266C439.255 84.6016 439.038 83.4062 439.038 82.1406V81.4375C439.038 79.9961 439.243 78.6777 439.653 77.4824C440.064 76.2871 440.65 75.25 441.411 74.3711C442.185 73.4922 443.122 72.8184 444.224 72.3496C445.325 71.8691 446.568 71.6289 447.95 71.6289C449.298 71.6289 450.493 71.8516 451.536 72.2969C452.579 72.7422 453.452 73.375 454.155 74.1953C454.87 75.0156 455.409 76 455.773 77.1484C456.136 78.2852 456.318 79.5508 456.318 80.9453V83.0547H441.2V79.6797H451.343V79.293C451.343 78.5898 451.214 77.9629 450.956 77.4121C450.71 76.8496 450.335 76.4043 449.831 76.0762C449.327 75.748 448.683 75.584 447.898 75.584C447.23 75.584 446.655 75.7305 446.175 76.0234C445.694 76.3164 445.302 76.7266 444.997 77.2539C444.704 77.7812 444.482 78.4023 444.329 79.1172C444.189 79.8203 444.118 80.5938 444.118 81.4375V82.1406C444.118 82.9023 444.224 83.6055 444.435 84.25C444.657 84.8945 444.968 85.4512 445.366 85.9199C445.776 86.3887 446.269 86.752 446.843 87.0098C447.429 87.2676 448.091 87.3965 448.829 87.3965C449.743 87.3965 450.593 87.2207 451.378 86.8691C452.175 86.5059 452.86 85.9609 453.435 85.2344L455.896 87.9062C455.497 88.4805 454.952 89.0312 454.261 89.5586C453.581 90.0859 452.761 90.5195 451.8 90.8594C450.839 91.1875 449.743 91.3516 448.513 91.3516ZM470.564 85.7441C470.564 85.3809 470.458 85.0527 470.247 84.7598C470.036 84.4668 469.644 84.1973 469.069 83.9512C468.507 83.6934 467.692 83.459 466.626 83.248C465.665 83.0371 464.769 82.7734 463.937 82.457C463.116 82.1289 462.401 81.7363 461.792 81.2793C461.194 80.8223 460.726 80.2832 460.386 79.6621C460.046 79.0293 459.876 78.3086 459.876 77.5C459.876 76.7031 460.046 75.9531 460.386 75.25C460.737 74.5469 461.235 73.9258 461.88 73.3867C462.536 72.8359 463.333 72.4082 464.271 72.1035C465.22 71.7871 466.286 71.6289 467.47 71.6289C469.122 71.6289 470.54 71.8926 471.724 72.4199C472.919 72.9473 473.833 73.6738 474.466 74.5996C475.11 75.5137 475.433 76.5566 475.433 77.7285H470.37C470.37 77.2363 470.265 76.7969 470.054 76.4102C469.855 76.0117 469.538 75.7012 469.105 75.4785C468.683 75.2441 468.132 75.127 467.452 75.127C466.89 75.127 466.403 75.2266 465.993 75.4258C465.583 75.6133 465.267 75.8711 465.044 76.1992C464.833 76.5156 464.728 76.8672 464.728 77.2539C464.728 77.5469 464.786 77.8105 464.903 78.0449C465.032 78.2676 465.237 78.4727 465.519 78.6602C465.8 78.8477 466.163 79.0234 466.608 79.1875C467.065 79.3398 467.628 79.4805 468.296 79.6094C469.667 79.8906 470.892 80.2598 471.97 80.7168C473.048 81.1621 473.903 81.7715 474.536 82.5449C475.169 83.3066 475.485 84.3086 475.485 85.5508C475.485 86.3945 475.298 87.168 474.923 87.8711C474.548 88.5742 474.009 89.1895 473.306 89.7168C472.603 90.2324 471.759 90.6367 470.774 90.9297C469.802 91.2109 468.706 91.3516 467.487 91.3516C465.718 91.3516 464.218 91.0352 462.987 90.4023C461.769 89.7695 460.843 88.9668 460.21 87.9941C459.589 87.0098 459.278 86.002 459.278 84.9707H464.077C464.101 85.6621 464.276 86.2188 464.605 86.6406C464.944 87.0625 465.372 87.3672 465.888 87.5547C466.415 87.7422 466.983 87.8359 467.593 87.8359C468.249 87.8359 468.794 87.748 469.228 87.5723C469.661 87.3848 469.989 87.1387 470.212 86.834C470.446 86.5176 470.564 86.1543 470.564 85.7441ZM488.606 91.3516C487.13 91.3516 485.806 91.1172 484.634 90.6484C483.462 90.168 482.466 89.5059 481.645 88.6621C480.837 87.8184 480.216 86.8398 479.782 85.7266C479.349 84.6016 479.132 83.4062 479.132 82.1406V81.4375C479.132 79.9961 479.337 78.6777 479.747 77.4824C480.157 76.2871 480.743 75.25 481.505 74.3711C482.278 73.4922 483.216 72.8184 484.317 72.3496C485.419 71.8691 486.661 71.6289 488.044 71.6289C489.392 71.6289 490.587 71.8516 491.63 72.2969C492.673 72.7422 493.546 73.375 494.249 74.1953C494.964 75.0156 495.503 76 495.866 77.1484C496.229 78.2852 496.411 79.5508 496.411 80.9453V83.0547H481.294V79.6797H491.436V79.293C491.436 78.5898 491.308 77.9629 491.05 77.4121C490.804 76.8496 490.429 76.4043 489.925 76.0762C489.421 75.748 488.776 75.584 487.991 75.584C487.323 75.584 486.749 75.7305 486.269 76.0234C485.788 76.3164 485.395 76.7266 485.091 77.2539C484.798 77.7812 484.575 78.4023 484.423 79.1172C484.282 79.8203 484.212 80.5938 484.212 81.4375V82.1406C484.212 82.9023 484.317 83.6055 484.528 84.25C484.751 84.8945 485.061 85.4512 485.46 85.9199C485.87 86.3887 486.362 86.752 486.936 87.0098C487.522 87.2676 488.185 87.3965 488.923 87.3965C489.837 87.3965 490.686 87.2207 491.472 86.8691C492.269 86.5059 492.954 85.9609 493.528 85.2344L495.989 87.9062C495.591 88.4805 495.046 89.0312 494.354 89.5586C493.675 90.0859 492.854 90.5195 491.894 90.8594C490.933 91.1875 489.837 91.3516 488.606 91.3516ZM505.331 76.041V91H500.268V71.9805H505.015L505.331 76.041ZM504.593 80.8223H503.222C503.222 79.416 503.403 78.1504 503.766 77.0254C504.13 75.8887 504.64 74.9219 505.296 74.125C505.952 73.3164 506.731 72.7012 507.634 72.2793C508.548 71.8457 509.567 71.6289 510.692 71.6289C511.583 71.6289 512.397 71.7578 513.136 72.0156C513.874 72.2734 514.507 72.6836 515.034 73.2461C515.573 73.8086 515.983 74.5527 516.265 75.4785C516.557 76.4043 516.704 77.5352 516.704 78.8711V91H511.606V78.8535C511.606 78.0098 511.489 77.3535 511.255 76.8848C511.02 76.416 510.675 76.0879 510.218 75.9004C509.772 75.7012 509.222 75.6016 508.565 75.6016C507.886 75.6016 507.294 75.7363 506.79 76.0059C506.298 76.2754 505.888 76.6504 505.559 77.1309C505.243 77.5996 505.003 78.1504 504.839 78.7832C504.675 79.416 504.593 80.0957 504.593 80.8223ZM530.95 71.9805V75.5664H519.876V71.9805H530.95ZM522.618 67.2871H527.68V85.2695C527.68 85.8203 527.751 86.2422 527.891 86.5352C528.044 86.8281 528.266 87.0332 528.559 87.1504C528.852 87.2559 529.221 87.3086 529.667 87.3086C529.983 87.3086 530.264 87.2969 530.511 87.2734C530.768 87.2383 530.985 87.2031 531.161 87.168L531.179 90.8945C530.745 91.0352 530.276 91.1465 529.772 91.2285C529.268 91.3105 528.712 91.3516 528.102 91.3516C526.989 91.3516 526.016 91.1699 525.184 90.8066C524.364 90.4316 523.731 89.834 523.286 89.0137C522.841 88.1934 522.618 87.1152 522.618 85.7793V67.2871ZM545.178 86.7109V78.2383C545.178 77.6289 545.079 77.1074 544.88 76.6738C544.68 76.2285 544.37 75.8828 543.948 75.6367C543.538 75.3906 543.005 75.2676 542.348 75.2676C541.786 75.2676 541.3 75.3672 540.889 75.5664C540.479 75.7539 540.163 76.0293 539.94 76.3926C539.717 76.7441 539.606 77.1602 539.606 77.6406H534.544C534.544 76.832 534.731 76.0645 535.106 75.3379C535.481 74.6113 536.026 73.9727 536.741 73.4219C537.456 72.8594 538.305 72.4199 539.29 72.1035C540.286 71.7871 541.399 71.6289 542.63 71.6289C544.106 71.6289 545.419 71.875 546.567 72.3672C547.716 72.8594 548.618 73.5977 549.274 74.582C549.942 75.5664 550.276 76.7969 550.276 78.2734V86.4121C550.276 87.4551 550.341 88.3105 550.469 88.9785C550.598 89.6348 550.786 90.209 551.032 90.7012V91H545.917C545.671 90.4844 545.483 89.8398 545.354 89.0664C545.237 88.2812 545.178 87.4961 545.178 86.7109ZM545.846 79.416L545.882 82.2812H543.051C542.384 82.2812 541.803 82.3574 541.311 82.5098C540.819 82.6621 540.415 82.8789 540.098 83.1602C539.782 83.4297 539.548 83.7461 539.395 84.1094C539.255 84.4727 539.184 84.8711 539.184 85.3047C539.184 85.7383 539.284 86.1309 539.483 86.4824C539.682 86.8223 539.969 87.0918 540.344 87.291C540.719 87.4785 541.159 87.5723 541.663 87.5723C542.425 87.5723 543.087 87.4199 543.649 87.1152C544.212 86.8105 544.645 86.4355 544.95 85.9902C545.266 85.5449 545.43 85.123 545.442 84.7246L546.778 86.8691C546.591 87.3496 546.333 87.8477 546.005 88.3633C545.688 88.8789 545.284 89.3652 544.792 89.8223C544.3 90.2676 543.708 90.6367 543.016 90.9297C542.325 91.2109 541.505 91.3516 540.555 91.3516C539.348 91.3516 538.253 91.1113 537.268 90.6309C536.296 90.1387 535.522 89.4648 534.948 88.6094C534.385 87.7422 534.104 86.7578 534.104 85.6562C534.104 84.6602 534.292 83.7754 534.667 83.002C535.042 82.2285 535.592 81.5781 536.319 81.0508C537.057 80.5117 537.977 80.1074 539.079 79.8379C540.18 79.5566 541.458 79.416 542.911 79.416H545.846ZM564.575 71.9805V75.5664H553.501V71.9805H564.575ZM556.243 67.2871H561.305V85.2695C561.305 85.8203 561.376 86.2422 561.516 86.5352C561.669 86.8281 561.891 87.0332 562.184 87.1504C562.477 87.2559 562.846 87.3086 563.292 87.3086C563.608 87.3086 563.889 87.2969 564.135 87.2734C564.393 87.2383 564.61 87.2031 564.786 87.168L564.803 90.8945C564.37 91.0352 563.901 91.1465 563.397 91.2285C562.893 91.3105 562.337 91.3516 561.727 91.3516C560.614 91.3516 559.641 91.1699 558.809 90.8066C557.989 90.4316 557.356 89.834 556.911 89.0137C556.465 88.1934 556.243 87.1152 556.243 85.7793V67.2871ZM573.881 71.9805V91H568.801V71.9805H573.881ZM568.485 67.0234C568.485 66.2852 568.743 65.6758 569.258 65.1953C569.774 64.7148 570.465 64.4746 571.333 64.4746C572.188 64.4746 572.874 64.7148 573.389 65.1953C573.917 65.6758 574.18 66.2852 574.18 67.0234C574.18 67.7617 573.917 68.3711 573.389 68.8516C572.874 69.332 572.188 69.5723 571.333 69.5723C570.465 69.5723 569.774 69.332 569.258 68.8516C568.743 68.3711 568.485 67.7617 568.485 67.0234ZM578.336 81.6836V81.3145C578.336 79.9199 578.536 78.6367 578.934 77.4648C579.332 76.2812 579.913 75.2559 580.674 74.3887C581.436 73.5215 582.374 72.8477 583.487 72.3672C584.6 71.875 585.877 71.6289 587.319 71.6289C588.76 71.6289 590.043 71.875 591.168 72.3672C592.293 72.8477 593.237 73.5215 593.999 74.3887C594.772 75.2559 595.358 76.2812 595.756 77.4648C596.155 78.6367 596.354 79.9199 596.354 81.3145V81.6836C596.354 83.0664 596.155 84.3496 595.756 85.5332C595.358 86.7051 594.772 87.7305 593.999 88.6094C593.237 89.4766 592.299 90.1504 591.186 90.6309C590.073 91.1113 588.795 91.3516 587.354 91.3516C585.913 91.3516 584.629 91.1113 583.504 90.6309C582.391 90.1504 581.448 89.4766 580.674 88.6094C579.913 87.7305 579.332 86.7051 578.934 85.5332C578.536 84.3496 578.336 83.0664 578.336 81.6836ZM583.399 81.3145V81.6836C583.399 82.4805 583.469 83.2246 583.61 83.916C583.75 84.6074 583.973 85.2168 584.278 85.7441C584.594 86.2598 585.004 86.6641 585.508 86.957C586.012 87.25 586.627 87.3965 587.354 87.3965C588.057 87.3965 588.661 87.25 589.165 86.957C589.668 86.6641 590.073 86.2598 590.377 85.7441C590.682 85.2168 590.905 84.6074 591.045 83.916C591.198 83.2246 591.274 82.4805 591.274 81.6836V81.3145C591.274 80.541 591.198 79.8145 591.045 79.1348C590.905 78.4434 590.676 77.834 590.36 77.3066C590.055 76.7676 589.651 76.3457 589.147 76.041C588.643 75.7363 588.034 75.584 587.319 75.584C586.604 75.584 585.995 75.7363 585.491 76.041C584.999 76.3457 584.594 76.7676 584.278 77.3066C583.973 77.834 583.75 78.4434 583.61 79.1348C583.469 79.8145 583.399 80.541 583.399 81.3145ZM605.502 76.041V91H600.44V71.9805H605.186L605.502 76.041ZM604.764 80.8223H603.393C603.393 79.416 603.575 78.1504 603.938 77.0254C604.301 75.8887 604.811 74.9219 605.467 74.125C606.123 73.3164 606.903 72.7012 607.805 72.2793C608.719 71.8457 609.739 71.6289 610.864 71.6289C611.754 71.6289 612.569 71.7578 613.307 72.0156C614.045 72.2734 614.678 72.6836 615.205 73.2461C615.745 73.8086 616.155 74.5527 616.436 75.4785C616.729 76.4043 616.875 77.5352 616.875 78.8711V91H611.778V78.8535C611.778 78.0098 611.661 77.3535 611.426 76.8848C611.192 76.416 610.846 76.0879 610.389 75.9004C609.944 75.7012 609.393 75.6016 608.737 75.6016C608.057 75.6016 607.465 75.7363 606.961 76.0059C606.469 76.2754 606.059 76.6504 605.731 77.1309C605.414 77.5996 605.174 78.1504 605.01 78.7832C604.846 79.416 604.764 80.0957 604.764 80.8223ZM641.166 71.9805V75.5664H630.092V71.9805H641.166ZM632.834 67.2871H637.897V85.2695C637.897 85.8203 637.967 86.2422 638.108 86.5352C638.26 86.8281 638.483 87.0332 638.776 87.1504C639.069 87.2559 639.438 87.3086 639.883 87.3086C640.199 87.3086 640.481 87.2969 640.727 87.2734C640.985 87.2383 641.201 87.2031 641.377 87.168L641.395 90.8945C640.961 91.0352 640.492 91.1465 639.989 91.2285C639.485 91.3105 638.928 91.3516 638.319 91.3516C637.205 91.3516 636.233 91.1699 635.401 90.8066C634.58 90.4316 633.948 89.834 633.502 89.0137C633.057 88.1934 632.834 87.1152 632.834 85.7793V67.2871ZM643.863 81.6836V81.3145C643.863 79.9199 644.063 78.6367 644.461 77.4648C644.86 76.2812 645.44 75.2559 646.201 74.3887C646.963 73.5215 647.901 72.8477 649.014 72.3672C650.127 71.875 651.404 71.6289 652.846 71.6289C654.287 71.6289 655.57 71.875 656.695 72.3672C657.82 72.8477 658.764 73.5215 659.526 74.3887C660.299 75.2559 660.885 76.2812 661.283 77.4648C661.682 78.6367 661.881 79.9199 661.881 81.3145V81.6836C661.881 83.0664 661.682 84.3496 661.283 85.5332C660.885 86.7051 660.299 87.7305 659.526 88.6094C658.764 89.4766 657.826 90.1504 656.713 90.6309C655.6 91.1113 654.322 91.3516 652.881 91.3516C651.44 91.3516 650.156 91.1113 649.031 90.6309C647.918 90.1504 646.975 89.4766 646.201 88.6094C645.44 87.7305 644.86 86.7051 644.461 85.5332C644.063 84.3496 643.863 83.0664 643.863 81.6836ZM648.926 81.3145V81.6836C648.926 82.4805 648.996 83.2246 649.137 83.916C649.277 84.6074 649.5 85.2168 649.805 85.7441C650.121 86.2598 650.531 86.6641 651.035 86.957C651.539 87.25 652.154 87.3965 652.881 87.3965C653.584 87.3965 654.188 87.25 654.692 86.957C655.195 86.6641 655.6 86.2598 655.904 85.7441C656.209 85.2168 656.432 84.6074 656.572 83.916C656.725 83.2246 656.801 82.4805 656.801 81.6836V81.3145C656.801 80.541 656.725 79.8145 656.572 79.1348C656.432 78.4434 656.203 77.834 655.887 77.3066C655.582 76.7676 655.178 76.3457 654.674 76.041C654.17 75.7363 653.561 75.584 652.846 75.584C652.131 75.584 651.522 75.7363 651.018 76.041C650.526 76.3457 650.121 76.7676 649.805 77.3066C649.5 77.834 649.277 78.4434 649.137 79.1348C648.996 79.8145 648.926 80.541 648.926 81.3145ZM681.461 71.9805V91H676.381V71.9805H681.461ZM676.064 67.0234C676.064 66.2852 676.322 65.6758 676.838 65.1953C677.354 64.7148 678.045 64.4746 678.912 64.4746C679.768 64.4746 680.453 64.7148 680.969 65.1953C681.496 65.6758 681.76 66.2852 681.76 67.0234C681.76 67.7617 681.496 68.3711 680.969 68.8516C680.453 69.332 679.768 69.5723 678.912 69.5723C678.045 69.5723 677.354 69.332 676.838 68.8516C676.322 68.3711 676.064 67.7617 676.064 67.0234ZM691.682 76.041V91H686.619V71.9805H691.365L691.682 76.041ZM690.943 80.8223H689.572C689.572 79.416 689.754 78.1504 690.117 77.0254C690.48 75.8887 690.99 74.9219 691.646 74.125C692.303 73.3164 693.082 72.7012 693.984 72.2793C694.898 71.8457 695.918 71.6289 697.043 71.6289C697.934 71.6289 698.748 71.7578 699.486 72.0156C700.225 72.2734 700.857 72.6836 701.385 73.2461C701.924 73.8086 702.334 74.5527 702.615 75.4785C702.908 76.4043 703.055 77.5352 703.055 78.8711V91H697.957V78.8535C697.957 78.0098 697.84 77.3535 697.605 76.8848C697.371 76.416 697.025 76.0879 696.568 75.9004C696.123 75.7012 695.572 75.6016 694.916 75.6016C694.236 75.6016 693.644 75.7363 693.141 76.0059C692.648 76.2754 692.238 76.6504 691.91 77.1309C691.594 77.5996 691.353 78.1504 691.189 78.7832C691.025 79.416 690.943 80.0957 690.943 80.8223ZM714.453 87.3086L718.672 71.9805H723.963L717.547 91H714.348L714.453 87.3086ZM711.553 71.9805L715.789 87.3262L715.877 91H712.66L706.244 71.9805H711.553ZM735.818 91.3516C734.342 91.3516 733.017 91.1172 731.845 90.6484C730.674 90.168 729.677 89.5059 728.857 88.6621C728.049 87.8184 727.427 86.8398 726.994 85.7266C726.56 84.6016 726.344 83.4062 726.344 82.1406V81.4375C726.344 79.9961 726.549 78.6777 726.959 77.4824C727.369 76.2871 727.955 75.25 728.717 74.3711C729.49 73.4922 730.427 72.8184 731.529 72.3496C732.631 71.8691 733.873 71.6289 735.256 71.6289C736.603 71.6289 737.799 71.8516 738.842 72.2969C739.885 72.7422 740.758 73.375 741.461 74.1953C742.176 75.0156 742.715 76 743.078 77.1484C743.441 78.2852 743.623 79.5508 743.623 80.9453V83.0547H728.506V79.6797H738.648V79.293C738.648 78.5898 738.519 77.9629 738.261 77.4121C738.015 76.8496 737.64 76.4043 737.136 76.0762C736.633 75.748 735.988 75.584 735.203 75.584C734.535 75.584 733.961 75.7305 733.48 76.0234C733 76.3164 732.607 76.7266 732.302 77.2539C732.01 77.7812 731.787 78.4023 731.635 79.1172C731.494 79.8203 731.424 80.5938 731.424 81.4375V82.1406C731.424 82.9023 731.529 83.6055 731.74 84.25C731.963 84.8945 732.273 85.4512 732.672 85.9199C733.082 86.3887 733.574 86.752 734.148 87.0098C734.734 87.2676 735.396 87.3965 736.135 87.3965C737.049 87.3965 737.898 87.2207 738.683 86.8691C739.48 86.5059 740.166 85.9609 740.74 85.2344L743.201 87.9062C742.802 88.4805 742.258 89.0312 741.566 89.5586C740.886 90.0859 740.066 90.5195 739.105 90.8594C738.144 91.1875 737.049 91.3516 735.818 91.3516ZM757.869 85.7441C757.869 85.3809 757.763 85.0527 757.552 84.7598C757.341 84.4668 756.949 84.1973 756.375 83.9512C755.812 83.6934 754.998 83.459 753.931 83.248C752.97 83.0371 752.074 82.7734 751.242 82.457C750.422 82.1289 749.707 81.7363 749.097 81.2793C748.5 80.8223 748.031 80.2832 747.691 79.6621C747.351 79.0293 747.181 78.3086 747.181 77.5C747.181 76.7031 747.351 75.9531 747.691 75.25C748.043 74.5469 748.541 73.9258 749.185 73.3867C749.841 72.8359 750.638 72.4082 751.576 72.1035C752.525 71.7871 753.591 71.6289 754.775 71.6289C756.427 71.6289 757.845 71.8926 759.029 72.4199C760.224 72.9473 761.138 73.6738 761.771 74.5996C762.416 75.5137 762.738 76.5566 762.738 77.7285H757.675C757.675 77.2363 757.57 76.7969 757.359 76.4102C757.16 76.0117 756.843 75.7012 756.41 75.4785C755.988 75.2441 755.437 75.127 754.758 75.127C754.195 75.127 753.709 75.2266 753.299 75.4258C752.888 75.6133 752.572 75.8711 752.349 76.1992C752.138 76.5156 752.033 76.8672 752.033 77.2539C752.033 77.5469 752.091 77.8105 752.209 78.0449C752.338 78.2676 752.543 78.4727 752.824 78.6602C753.105 78.8477 753.468 79.0234 753.914 79.1875C754.371 79.3398 754.933 79.4805 755.601 79.6094C756.972 79.8906 758.197 80.2598 759.275 80.7168C760.353 81.1621 761.209 81.7715 761.841 82.5449C762.474 83.3066 762.791 84.3086 762.791 85.5508C762.791 86.3945 762.603 87.168 762.228 87.8711C761.853 88.5742 761.314 89.1895 760.611 89.7168C759.908 90.2324 759.064 90.6367 758.08 90.9297C757.107 91.2109 756.011 91.3516 754.793 91.3516C753.023 91.3516 751.523 91.0352 750.293 90.4023C749.074 89.7695 748.148 88.9668 747.515 87.9941C746.894 87.0098 746.584 86.002 746.584 84.9707H751.383C751.406 85.6621 751.582 86.2188 751.91 86.6406C752.25 87.0625 752.677 87.3672 753.193 87.5547C753.72 87.7422 754.289 87.8359 754.898 87.8359C755.554 87.8359 756.099 87.748 756.533 87.5723C756.966 87.3848 757.295 87.1387 757.517 86.834C757.752 86.5176 757.869 86.1543 757.869 85.7441ZM776.474 71.9805V75.5664H765.4V71.9805H776.474ZM768.142 67.2871H773.205V85.2695C773.205 85.8203 773.275 86.2422 773.416 86.5352C773.568 86.8281 773.791 87.0332 774.084 87.1504C774.377 87.2559 774.746 87.3086 775.191 87.3086C775.507 87.3086 775.789 87.2969 776.035 87.2734C776.293 87.2383 776.509 87.2031 776.685 87.168L776.703 90.8945C776.269 91.0352 775.8 91.1465 775.297 91.2285C774.793 91.3105 774.236 91.3516 773.627 91.3516C772.513 91.3516 771.541 91.1699 770.709 90.8066C769.888 90.4316 769.255 89.834 768.81 89.0137C768.365 88.1934 768.142 87.1152 768.142 85.7793V67.2871ZM779.171 81.6836V81.3145C779.171 79.9199 779.371 78.6367 779.769 77.4648C780.167 76.2812 780.748 75.2559 781.509 74.3887C782.271 73.5215 783.208 72.8477 784.322 72.3672C785.435 71.875 786.712 71.6289 788.154 71.6289C789.595 71.6289 790.878 71.875 792.003 72.3672C793.128 72.8477 794.072 73.5215 794.833 74.3887C795.607 75.2559 796.193 76.2812 796.591 77.4648C796.99 78.6367 797.189 79.9199 797.189 81.3145V81.6836C797.189 83.0664 796.99 84.3496 796.591 85.5332C796.193 86.7051 795.607 87.7305 794.833 88.6094C794.072 89.4766 793.134 90.1504 792.021 90.6309C790.908 91.1113 789.63 91.3516 788.189 91.3516C786.748 91.3516 785.464 91.1113 784.339 90.6309C783.226 90.1504 782.283 89.4766 781.509 88.6094C780.748 87.7305 780.167 86.7051 779.769 85.5332C779.371 84.3496 779.171 83.0664 779.171 81.6836ZM784.234 81.3145V81.6836C784.234 82.4805 784.304 83.2246 784.445 83.916C784.585 84.6074 784.808 85.2168 785.113 85.7441C785.429 86.2598 785.839 86.6641 786.343 86.957C786.847 87.25 787.462 87.3965 788.189 87.3965C788.892 87.3965 789.496 87.25 790 86.957C790.503 86.6641 790.908 86.2598 791.212 85.7441C791.517 85.2168 791.74 84.6074 791.88 83.916C792.033 83.2246 792.109 82.4805 792.109 81.6836V81.3145C792.109 80.541 792.033 79.8145 791.88 79.1348C791.74 78.4434 791.511 77.834 791.195 77.3066C790.89 76.7676 790.486 76.3457 789.982 76.041C789.478 75.7363 788.869 75.584 788.154 75.584C787.439 75.584 786.83 75.7363 786.326 76.041C785.833 76.3457 785.429 76.7676 785.113 77.3066C784.808 77.834 784.585 78.4434 784.445 79.1348C784.304 79.8145 784.234 80.541 784.234 81.3145ZM806.443 76.1289V91H801.38V71.9805H806.144L806.443 76.1289ZM812.173 71.8574L812.085 76.5508C811.839 76.5156 811.54 76.4863 811.189 76.4629C810.849 76.4277 810.539 76.4102 810.257 76.4102C809.542 76.4102 808.921 76.5039 808.394 76.6914C807.878 76.8672 807.445 77.1309 807.093 77.4824C806.753 77.834 806.496 78.2617 806.32 78.7656C806.156 79.2695 806.062 79.8438 806.039 80.4883L805.019 80.1719C805.019 78.9414 805.142 77.8105 805.388 76.7793C805.634 75.7363 805.992 74.8281 806.46 74.0547C806.941 73.2812 807.527 72.6836 808.218 72.2617C808.91 71.8398 809.701 71.6289 810.591 71.6289C810.872 71.6289 811.16 71.6523 811.453 71.6992C811.746 71.7344 811.986 71.7871 812.173 71.8574ZM825.927 85.7441C825.927 85.3809 825.822 85.0527 825.611 84.7598C825.4 84.4668 825.007 84.1973 824.433 83.9512C823.87 83.6934 823.056 83.459 821.99 83.248C821.029 83.0371 820.132 82.7734 819.3 82.457C818.48 82.1289 817.765 81.7363 817.156 81.2793C816.558 80.8223 816.089 80.2832 815.749 79.6621C815.41 79.0293 815.24 78.3086 815.24 77.5C815.24 76.7031 815.41 75.9531 815.749 75.25C816.101 74.5469 816.599 73.9258 817.244 73.3867C817.9 72.8359 818.697 72.4082 819.634 72.1035C820.583 71.7871 821.65 71.6289 822.833 71.6289C824.486 71.6289 825.904 71.8926 827.087 72.4199C828.283 72.9473 829.197 73.6738 829.829 74.5996C830.474 75.5137 830.796 76.5566 830.796 77.7285H825.734C825.734 77.2363 825.628 76.7969 825.417 76.4102C825.218 76.0117 824.902 75.7012 824.468 75.4785C824.046 75.2441 823.495 75.127 822.816 75.127C822.253 75.127 821.767 75.2266 821.357 75.4258C820.947 75.6133 820.63 75.8711 820.408 76.1992C820.197 76.5156 820.091 76.8672 820.091 77.2539C820.091 77.5469 820.15 77.8105 820.267 78.0449C820.396 78.2676 820.601 78.4727 820.882 78.6602C821.163 78.8477 821.527 79.0234 821.972 79.1875C822.429 79.3398 822.992 79.4805 823.66 79.6094C825.031 79.8906 826.255 80.2598 827.333 80.7168C828.411 81.1621 829.267 81.7715 829.9 82.5449C830.533 83.3066 830.849 84.3086 830.849 85.5508C830.849 86.3945 830.661 87.168 830.286 87.8711C829.911 88.5742 829.372 89.1895 828.669 89.7168C827.966 90.2324 827.122 90.6367 826.138 90.9297C825.165 91.2109 824.07 91.3516 822.851 91.3516C821.081 91.3516 819.581 91.0352 818.351 90.4023C817.132 89.7695 816.206 88.9668 815.574 87.9941C814.953 87.0098 814.642 86.002 814.642 84.9707H819.441C819.464 85.6621 819.64 86.2188 819.968 86.6406C820.308 87.0625 820.736 87.3672 821.251 87.5547C821.779 87.7422 822.347 87.8359 822.956 87.8359C823.613 87.8359 824.158 87.748 824.591 87.5723C825.025 87.3848 825.353 87.1387 825.576 86.834C825.81 86.5176 825.927 86.1543 825.927 85.7441Z" fill="white"/>
<circle cx="95.5" cy="78.5" r="53.5" fill="#114DFF"/>
<path d="M147 46C147.972 46 148.905 46.3863 149.593 47.0739C150.28 47.7616 150.667 48.6942 150.667 49.6667C150.667 50.6391 150.28 51.5718 149.593 52.2594C148.905 52.947 147.972 53.3333 147 53.3333V86.3333C147 89.2507 145.841 92.0486 143.778 94.1115C141.715 96.1744 138.917 97.3333 136 97.3333H117.667V104.667H125C125.972 104.667 126.905 105.053 127.593 105.741C128.28 106.428 128.667 107.361 128.667 108.333C128.667 109.306 128.28 110.238 127.593 110.926C126.905 111.614 125.972 112 125 112H103C102.027 112 101.095 111.614 100.407 110.926C99.7196 110.238 99.3333 109.306 99.3333 108.333C99.3333 107.361 99.7196 106.428 100.407 105.741C101.095 105.053 102.027 104.667 103 104.667H110.333V97.3333H91.9999C89.0825 97.3333 86.2846 96.1744 84.2217 94.1115C82.1588 92.0486 80.9999 89.2507 80.9999 86.3333V53.3333C80.0275 53.3333 79.0948 52.947 78.4072 52.2594C77.7196 51.5718 77.3333 50.6391 77.3333 49.6667C77.3333 48.6942 77.7196 47.7616 78.4072 47.0739C79.0948 46.3863 80.0275 46 80.9999 46H147ZM131.259 61.741C130.571 61.0536 129.639 60.6674 128.667 60.6674C127.694 60.6674 126.762 61.0536 126.074 61.741L117.667 70.145L112.926 65.4077C112.238 64.7203 111.306 64.3341 110.333 64.3341C109.361 64.3341 108.429 64.7203 107.741 65.4077L96.7409 76.4077C96.0535 77.0953 95.6674 78.0277 95.6674 79C95.6674 79.9723 96.0535 80.9047 96.7409 81.5923L97.0856 81.8967C97.7911 82.4439 98.672 82.715 99.5631 82.6589C100.454 82.6029 101.294 82.2236 101.926 81.5923L110.333 73.1883L115.074 77.9257C115.762 78.6131 116.694 78.9992 117.667 78.9992C118.639 78.9992 119.571 78.6131 120.259 77.9257L131.259 66.9257C131.946 66.2381 132.332 65.3056 132.332 64.3333C132.332 63.3611 131.946 62.4286 131.259 61.741Z" fill="#3CE5A7"/>
<defs>
<filter id="filter0_d_138_910" x="0" y="0" width="951" height="165" filterUnits="userSpaceOnUse" color-interpolation-filters="sRGB">
<feFlood flood-opacity="0" result="BackgroundImageFix"/>
<feColorMatrix in="SourceAlpha" type="matrix" values="0 0 0 0 0 0 0 0 0 0 0 0 0 0 0 0 0 0 127 0" result="hardAlpha"/>
<feOffset dy="4"/>
<feGaussianBlur stdDeviation="2"/>
<feComposite in2="hardAlpha" operator="out"/>
<feColorMatrix type="matrix" values="0 0 0 0 0 0 0 0 0 0 0 0 0 0 0 0 0 0 0.13 0"/>
<feBlend mode="normal" in2="BackgroundImageFix" result="effect1_dropShadow_138_910"/>
<feBlend mode="normal" in="SourceGraphic" in2="effect1_dropShadow_138_910" result="shape"/>
</filter>
</defs>
</svg>
