<svg width="408" height="250" viewBox="0 0 408 250" fill="none" xmlns="http://www.w3.org/2000/svg">
<g filter="url(#filter0_d_138_1029)">
<rect x="4" y="38" width="400" height="204" rx="102" fill="#06288B"/>
</g>
<path d="M132.863 123H127.91L127.941 119.344H132.863C134.092 119.344 135.129 119.068 135.973 118.516C136.816 117.953 137.452 117.135 137.879 116.062C138.316 114.99 138.535 113.693 138.535 112.172V111.062C138.535 109.896 138.41 108.87 138.16 107.984C137.92 107.099 137.561 106.354 137.082 105.75C136.603 105.146 136.014 104.693 135.316 104.391C134.618 104.078 133.816 103.922 132.91 103.922H127.816V100.25H132.91C134.431 100.25 135.821 100.51 137.082 101.031C138.353 101.542 139.452 102.276 140.379 103.234C141.306 104.193 142.019 105.339 142.519 106.672C143.03 107.995 143.285 109.469 143.285 111.094V112.172C143.285 113.786 143.03 115.26 142.519 116.594C142.019 117.927 141.306 119.073 140.379 120.031C139.462 120.979 138.363 121.714 137.082 122.234C135.811 122.745 134.405 123 132.863 123ZM130.566 100.25V123H125.879V100.25H130.566ZM155.151 123.312C153.839 123.312 152.662 123.104 151.62 122.688C150.578 122.26 149.693 121.672 148.964 120.922C148.245 120.172 147.693 119.302 147.307 118.312C146.922 117.312 146.729 116.25 146.729 115.125V114.5C146.729 113.219 146.912 112.047 147.276 110.984C147.641 109.922 148.162 109 148.839 108.219C149.526 107.438 150.36 106.839 151.339 106.422C152.318 105.995 153.422 105.781 154.651 105.781C155.849 105.781 156.912 105.979 157.839 106.375C158.766 106.771 159.542 107.333 160.167 108.062C160.802 108.792 161.281 109.667 161.604 110.688C161.927 111.698 162.089 112.823 162.089 114.062V115.938H148.651V112.938H157.667V112.594C157.667 111.969 157.552 111.411 157.323 110.922C157.104 110.422 156.771 110.026 156.323 109.734C155.875 109.443 155.302 109.297 154.604 109.297C154.011 109.297 153.5 109.427 153.073 109.688C152.646 109.948 152.297 110.312 152.026 110.781C151.766 111.25 151.568 111.802 151.432 112.438C151.307 113.062 151.245 113.75 151.245 114.5V115.125C151.245 115.802 151.339 116.427 151.526 117C151.724 117.573 152 118.068 152.354 118.484C152.719 118.901 153.156 119.224 153.667 119.453C154.188 119.682 154.776 119.797 155.432 119.797C156.245 119.797 157 119.641 157.698 119.328C158.406 119.005 159.016 118.521 159.526 117.875L161.714 120.25C161.36 120.76 160.875 121.25 160.261 121.719C159.656 122.188 158.927 122.573 158.073 122.875C157.219 123.167 156.245 123.312 155.151 123.312ZM170.111 109.594V123H165.596V106.094H169.83L170.111 109.594ZM169.486 113.953H168.236C168.236 112.776 168.377 111.693 168.658 110.703C168.95 109.703 169.372 108.839 169.924 108.109C170.486 107.37 171.179 106.797 172.002 106.391C172.825 105.984 173.778 105.781 174.861 105.781C175.611 105.781 176.299 105.896 176.924 106.125C177.549 106.344 178.085 106.693 178.533 107.172C178.991 107.641 179.346 108.255 179.596 109.016C179.846 109.766 179.971 110.667 179.971 111.719V123H175.471V112.219C175.471 111.448 175.366 110.854 175.158 110.438C174.95 110.021 174.653 109.729 174.268 109.562C173.893 109.396 173.439 109.312 172.908 109.312C172.325 109.312 171.814 109.432 171.377 109.672C170.95 109.911 170.596 110.245 170.314 110.672C170.033 111.089 169.825 111.578 169.689 112.141C169.554 112.703 169.486 113.307 169.486 113.953ZM179.549 113.438L177.939 113.641C177.939 112.536 178.075 111.51 178.346 110.562C178.627 109.615 179.038 108.781 179.58 108.062C180.132 107.344 180.814 106.786 181.627 106.391C182.439 105.984 183.377 105.781 184.439 105.781C185.252 105.781 185.991 105.901 186.658 106.141C187.325 106.37 187.893 106.74 188.361 107.25C188.84 107.75 189.205 108.406 189.455 109.219C189.715 110.031 189.846 111.026 189.846 112.203V123H185.33V112.203C185.33 111.422 185.226 110.828 185.018 110.422C184.82 110.005 184.528 109.719 184.143 109.562C183.768 109.396 183.32 109.312 182.799 109.312C182.257 109.312 181.783 109.422 181.377 109.641C180.971 109.849 180.632 110.141 180.361 110.516C180.09 110.891 179.887 111.328 179.752 111.828C179.616 112.318 179.549 112.854 179.549 113.438ZM193.571 114.719V114.391C193.571 113.151 193.748 112.01 194.103 110.969C194.457 109.917 194.972 109.005 195.649 108.234C196.326 107.464 197.16 106.865 198.149 106.438C199.139 106 200.274 105.781 201.556 105.781C202.837 105.781 203.978 106 204.978 106.438C205.978 106.865 206.816 107.464 207.493 108.234C208.181 109.005 208.701 109.917 209.056 110.969C209.41 112.01 209.587 113.151 209.587 114.391V114.719C209.587 115.948 209.41 117.089 209.056 118.141C208.701 119.182 208.181 120.094 207.493 120.875C206.816 121.646 205.983 122.245 204.993 122.672C204.004 123.099 202.868 123.312 201.587 123.312C200.306 123.312 199.165 123.099 198.165 122.672C197.175 122.245 196.337 121.646 195.649 120.875C194.972 120.094 194.457 119.182 194.103 118.141C193.748 117.089 193.571 115.948 193.571 114.719ZM198.071 114.391V114.719C198.071 115.427 198.134 116.089 198.259 116.703C198.384 117.318 198.582 117.859 198.853 118.328C199.134 118.786 199.498 119.146 199.946 119.406C200.394 119.667 200.941 119.797 201.587 119.797C202.212 119.797 202.748 119.667 203.196 119.406C203.644 119.146 204.004 118.786 204.274 118.328C204.545 117.859 204.743 117.318 204.868 116.703C205.004 116.089 205.071 115.427 205.071 114.719V114.391C205.071 113.703 205.004 113.057 204.868 112.453C204.743 111.839 204.54 111.297 204.259 110.828C203.988 110.349 203.629 109.974 203.181 109.703C202.733 109.432 202.191 109.297 201.556 109.297C200.92 109.297 200.379 109.432 199.931 109.703C199.493 109.974 199.134 110.349 198.853 110.828C198.582 111.297 198.384 111.839 198.259 112.453C198.134 113.057 198.071 113.703 198.071 114.391ZM229.507 123H224.554L224.585 119.344H229.507C230.736 119.344 231.773 119.068 232.616 118.516C233.46 117.953 234.095 117.135 234.523 116.062C234.96 114.99 235.179 113.693 235.179 112.172V111.062C235.179 109.896 235.054 108.87 234.804 107.984C234.564 107.099 234.205 106.354 233.726 105.75C233.246 105.146 232.658 104.693 231.96 104.391C231.262 104.078 230.46 103.922 229.554 103.922H224.46V100.25H229.554C231.075 100.25 232.465 100.51 233.726 101.031C234.996 101.542 236.095 102.276 237.023 103.234C237.95 104.193 238.663 105.339 239.163 106.672C239.674 107.995 239.929 109.469 239.929 111.094V112.172C239.929 113.786 239.674 115.26 239.163 116.594C238.663 117.927 237.95 119.073 237.023 120.031C236.106 120.979 235.007 121.714 233.726 122.234C232.455 122.745 231.049 123 229.507 123ZM227.21 100.25V123H222.523V100.25H227.21ZM253.139 119.188V111.656C253.139 111.115 253.05 110.651 252.873 110.266C252.696 109.87 252.42 109.562 252.045 109.344C251.68 109.125 251.206 109.016 250.623 109.016C250.123 109.016 249.691 109.104 249.326 109.281C248.962 109.448 248.68 109.693 248.483 110.016C248.285 110.328 248.186 110.698 248.186 111.125H243.686C243.686 110.406 243.852 109.724 244.186 109.078C244.519 108.432 245.003 107.865 245.639 107.375C246.274 106.875 247.029 106.484 247.904 106.203C248.79 105.922 249.779 105.781 250.873 105.781C252.186 105.781 253.352 106 254.373 106.438C255.394 106.875 256.196 107.531 256.779 108.406C257.373 109.281 257.67 110.375 257.67 111.688V118.922C257.67 119.849 257.727 120.609 257.842 121.203C257.956 121.786 258.123 122.297 258.342 122.734V123H253.795C253.576 122.542 253.41 121.969 253.295 121.281C253.191 120.583 253.139 119.885 253.139 119.188ZM253.733 112.703L253.764 115.25H251.248C250.654 115.25 250.139 115.318 249.701 115.453C249.264 115.589 248.904 115.781 248.623 116.031C248.342 116.271 248.134 116.552 247.998 116.875C247.873 117.198 247.811 117.552 247.811 117.938C247.811 118.323 247.899 118.672 248.076 118.984C248.253 119.286 248.509 119.526 248.842 119.703C249.175 119.87 249.566 119.953 250.014 119.953C250.691 119.953 251.279 119.818 251.779 119.547C252.279 119.276 252.665 118.943 252.936 118.547C253.217 118.151 253.363 117.776 253.373 117.422L254.561 119.328C254.394 119.755 254.165 120.198 253.873 120.656C253.592 121.115 253.233 121.547 252.795 121.953C252.358 122.349 251.831 122.677 251.217 122.938C250.602 123.188 249.873 123.312 249.029 123.312C247.956 123.312 246.983 123.099 246.108 122.672C245.243 122.234 244.555 121.635 244.045 120.875C243.545 120.104 243.295 119.229 243.295 118.25C243.295 117.365 243.462 116.578 243.795 115.891C244.128 115.203 244.618 114.625 245.264 114.156C245.92 113.677 246.738 113.318 247.717 113.078C248.696 112.828 249.831 112.703 251.123 112.703H253.733ZM266.864 121.094L271.349 106.094H276.177L269.38 125.547C269.234 125.974 269.036 126.432 268.786 126.922C268.547 127.411 268.219 127.875 267.802 128.312C267.396 128.76 266.88 129.125 266.255 129.406C265.64 129.688 264.885 129.828 263.989 129.828C263.562 129.828 263.213 129.802 262.943 129.75C262.672 129.698 262.349 129.625 261.974 129.531V126.234C262.088 126.234 262.208 126.234 262.333 126.234C262.458 126.245 262.578 126.25 262.693 126.25C263.286 126.25 263.771 126.182 264.146 126.047C264.521 125.911 264.823 125.703 265.052 125.422C265.281 125.151 265.463 124.797 265.599 124.359L266.864 121.094ZM264.989 106.094L268.661 118.344L269.302 123.109L266.239 123.438L260.161 106.094H264.989ZM110.193 144.344V164.5H105.693V141.094H109.865L110.193 144.344ZM120.896 149.359V149.688C120.896 150.917 120.75 152.057 120.459 153.109C120.177 154.161 119.761 155.078 119.209 155.859C118.657 156.63 117.969 157.234 117.146 157.672C116.334 158.099 115.396 158.312 114.334 158.312C113.302 158.312 112.407 158.104 111.646 157.688C110.886 157.271 110.245 156.688 109.724 155.938C109.214 155.177 108.802 154.297 108.49 153.297C108.177 152.297 107.938 151.224 107.771 150.078V149.219C107.938 147.99 108.177 146.865 108.49 145.844C108.802 144.812 109.214 143.922 109.724 143.172C110.245 142.411 110.881 141.823 111.631 141.406C112.391 140.99 113.282 140.781 114.302 140.781C115.375 140.781 116.318 140.984 117.131 141.391C117.954 141.797 118.641 142.38 119.193 143.141C119.756 143.901 120.177 144.807 120.459 145.859C120.75 146.911 120.896 148.078 120.896 149.359ZM116.381 149.688V149.359C116.381 148.641 116.318 147.979 116.193 147.375C116.079 146.76 115.891 146.224 115.631 145.766C115.381 145.307 115.047 144.953 114.631 144.703C114.224 144.443 113.73 144.312 113.146 144.312C112.532 144.312 112.006 144.411 111.568 144.609C111.141 144.807 110.792 145.094 110.521 145.469C110.25 145.844 110.047 146.292 109.912 146.812C109.776 147.333 109.693 147.922 109.662 148.578V150.75C109.714 151.521 109.86 152.214 110.099 152.828C110.339 153.432 110.709 153.911 111.209 154.266C111.709 154.62 112.365 154.797 113.177 154.797C113.771 154.797 114.271 154.667 114.677 154.406C115.084 154.135 115.412 153.766 115.662 153.297C115.922 152.828 116.105 152.286 116.209 151.672C116.323 151.057 116.381 150.396 116.381 149.688ZM129.153 144.781V158H124.653V141.094H128.887L129.153 144.781ZM134.247 140.984L134.169 145.156C133.95 145.125 133.684 145.099 133.372 145.078C133.07 145.047 132.794 145.031 132.544 145.031C131.908 145.031 131.356 145.115 130.887 145.281C130.429 145.438 130.044 145.672 129.731 145.984C129.429 146.297 129.2 146.677 129.044 147.125C128.898 147.573 128.815 148.083 128.794 148.656L127.887 148.375C127.887 147.281 127.997 146.276 128.216 145.359C128.434 144.432 128.752 143.625 129.169 142.938C129.596 142.25 130.117 141.719 130.731 141.344C131.346 140.969 132.049 140.781 132.841 140.781C133.091 140.781 133.346 140.802 133.606 140.844C133.867 140.875 134.08 140.922 134.247 140.984ZM144.801 158.312C143.488 158.312 142.311 158.104 141.269 157.688C140.228 157.26 139.342 156.672 138.613 155.922C137.894 155.172 137.342 154.302 136.957 153.312C136.571 152.312 136.379 151.25 136.379 150.125V149.5C136.379 148.219 136.561 147.047 136.926 145.984C137.29 144.922 137.811 144 138.488 143.219C139.176 142.438 140.009 141.839 140.988 141.422C141.967 140.995 143.071 140.781 144.301 140.781C145.499 140.781 146.561 140.979 147.488 141.375C148.415 141.771 149.191 142.333 149.816 143.062C150.452 143.792 150.931 144.667 151.254 145.688C151.577 146.698 151.738 147.823 151.738 149.062V150.938H138.301V147.938H147.316V147.594C147.316 146.969 147.202 146.411 146.973 145.922C146.754 145.422 146.42 145.026 145.973 144.734C145.525 144.443 144.952 144.297 144.254 144.297C143.66 144.297 143.15 144.427 142.723 144.688C142.295 144.948 141.946 145.312 141.676 145.781C141.415 146.25 141.217 146.802 141.082 147.438C140.957 148.062 140.894 148.75 140.894 149.5V150.125C140.894 150.802 140.988 151.427 141.176 152C141.374 152.573 141.65 153.068 142.004 153.484C142.368 153.901 142.806 154.224 143.316 154.453C143.837 154.682 144.426 154.797 145.082 154.797C145.894 154.797 146.65 154.641 147.348 154.328C148.056 154.005 148.665 153.521 149.176 152.875L151.363 155.25C151.009 155.76 150.525 156.25 149.91 156.719C149.306 157.188 148.577 157.573 147.723 157.875C146.868 158.167 145.894 158.312 144.801 158.312ZM164.401 153.328C164.401 153.005 164.307 152.714 164.12 152.453C163.932 152.193 163.584 151.953 163.073 151.734C162.573 151.505 161.849 151.297 160.901 151.109C160.047 150.922 159.25 150.688 158.511 150.406C157.781 150.115 157.146 149.766 156.604 149.359C156.073 148.953 155.656 148.474 155.354 147.922C155.052 147.359 154.901 146.719 154.901 146C154.901 145.292 155.052 144.625 155.354 144C155.667 143.375 156.11 142.823 156.682 142.344C157.266 141.854 157.974 141.474 158.807 141.203C159.651 140.922 160.599 140.781 161.651 140.781C163.12 140.781 164.38 141.016 165.432 141.484C166.495 141.953 167.307 142.599 167.87 143.422C168.443 144.234 168.729 145.161 168.729 146.203H164.229C164.229 145.766 164.136 145.375 163.948 145.031C163.771 144.677 163.49 144.401 163.104 144.203C162.729 143.995 162.24 143.891 161.636 143.891C161.136 143.891 160.703 143.979 160.339 144.156C159.974 144.323 159.693 144.552 159.495 144.844C159.307 145.125 159.214 145.438 159.214 145.781C159.214 146.042 159.266 146.276 159.37 146.484C159.485 146.682 159.667 146.865 159.917 147.031C160.167 147.198 160.49 147.354 160.886 147.5C161.292 147.635 161.792 147.76 162.386 147.875C163.604 148.125 164.693 148.453 165.651 148.859C166.61 149.255 167.37 149.797 167.932 150.484C168.495 151.161 168.776 152.052 168.776 153.156C168.776 153.906 168.61 154.594 168.276 155.219C167.943 155.844 167.464 156.391 166.839 156.859C166.214 157.318 165.464 157.677 164.589 157.938C163.724 158.188 162.75 158.312 161.667 158.312C160.094 158.312 158.761 158.031 157.667 157.469C156.584 156.906 155.761 156.193 155.198 155.328C154.646 154.453 154.37 153.557 154.37 152.641H158.636C158.656 153.255 158.813 153.75 159.104 154.125C159.406 154.5 159.787 154.771 160.245 154.938C160.714 155.104 161.219 155.188 161.761 155.188C162.344 155.188 162.828 155.109 163.214 154.953C163.599 154.786 163.891 154.568 164.089 154.297C164.297 154.016 164.401 153.693 164.401 153.328ZM180.439 158.312C179.127 158.312 177.95 158.104 176.908 157.688C175.866 157.26 174.981 156.672 174.252 155.922C173.533 155.172 172.981 154.302 172.596 153.312C172.21 152.312 172.017 151.25 172.017 150.125V149.5C172.017 148.219 172.2 147.047 172.564 145.984C172.929 144.922 173.45 144 174.127 143.219C174.814 142.438 175.648 141.839 176.627 141.422C177.606 140.995 178.71 140.781 179.939 140.781C181.137 140.781 182.2 140.979 183.127 141.375C184.054 141.771 184.83 142.333 185.455 143.062C186.09 143.792 186.57 144.667 186.892 145.688C187.215 146.698 187.377 147.823 187.377 149.062V150.938H173.939V147.938H182.955V147.594C182.955 146.969 182.84 146.411 182.611 145.922C182.392 145.422 182.059 145.026 181.611 144.734C181.163 144.443 180.59 144.297 179.892 144.297C179.299 144.297 178.788 144.427 178.361 144.688C177.934 144.948 177.585 145.312 177.314 145.781C177.054 146.25 176.856 146.802 176.721 147.438C176.596 148.062 176.533 148.75 176.533 149.5V150.125C176.533 150.802 176.627 151.427 176.814 152C177.012 152.573 177.288 153.068 177.642 153.484C178.007 153.901 178.445 154.224 178.955 154.453C179.476 154.682 180.064 154.797 180.721 154.797C181.533 154.797 182.288 154.641 182.986 154.328C183.695 154.005 184.304 153.521 184.814 152.875L187.002 155.25C186.648 155.76 186.163 156.25 185.549 156.719C184.945 157.188 184.215 157.573 183.361 157.875C182.507 158.167 181.533 158.312 180.439 158.312ZM195.306 144.703V158H190.806V141.094H195.024L195.306 144.703ZM194.649 148.953H193.431C193.431 147.703 193.592 146.578 193.915 145.578C194.238 144.568 194.691 143.708 195.274 143C195.858 142.281 196.55 141.734 197.353 141.359C198.165 140.974 199.071 140.781 200.071 140.781C200.863 140.781 201.587 140.896 202.243 141.125C202.899 141.354 203.462 141.719 203.931 142.219C204.41 142.719 204.774 143.38 205.024 144.203C205.285 145.026 205.415 146.031 205.415 147.219V158H200.884V147.203C200.884 146.453 200.78 145.87 200.571 145.453C200.363 145.036 200.056 144.745 199.649 144.578C199.254 144.401 198.764 144.312 198.181 144.312C197.576 144.312 197.05 144.432 196.603 144.672C196.165 144.911 195.8 145.245 195.509 145.672C195.228 146.089 195.014 146.578 194.868 147.141C194.722 147.703 194.649 148.307 194.649 148.953ZM218.078 141.094V144.281H208.234V141.094H218.078ZM210.672 136.922H215.172V152.906C215.172 153.396 215.234 153.771 215.359 154.031C215.495 154.292 215.693 154.474 215.953 154.578C216.214 154.672 216.542 154.719 216.938 154.719C217.219 154.719 217.469 154.708 217.688 154.688C217.917 154.656 218.109 154.625 218.266 154.594L218.281 157.906C217.896 158.031 217.479 158.13 217.031 158.203C216.583 158.276 216.089 158.312 215.547 158.312C214.557 158.312 213.693 158.151 212.953 157.828C212.224 157.495 211.661 156.964 211.266 156.234C210.87 155.505 210.672 154.547 210.672 153.359V136.922ZM230.726 154.188V146.656C230.726 146.115 230.637 145.651 230.46 145.266C230.283 144.87 230.007 144.562 229.632 144.344C229.267 144.125 228.793 144.016 228.21 144.016C227.71 144.016 227.278 144.104 226.913 144.281C226.549 144.448 226.267 144.693 226.069 145.016C225.871 145.328 225.772 145.698 225.772 146.125H221.272C221.272 145.406 221.439 144.724 221.772 144.078C222.106 143.432 222.59 142.865 223.226 142.375C223.861 141.875 224.616 141.484 225.491 141.203C226.377 140.922 227.366 140.781 228.46 140.781C229.772 140.781 230.939 141 231.96 141.438C232.981 141.875 233.783 142.531 234.366 143.406C234.96 144.281 235.257 145.375 235.257 146.688V153.922C235.257 154.849 235.314 155.609 235.429 156.203C235.543 156.786 235.71 157.297 235.929 157.734V158H231.382C231.163 157.542 230.996 156.969 230.882 156.281C230.778 155.583 230.726 154.885 230.726 154.188ZM231.319 147.703L231.351 150.25H228.835C228.241 150.25 227.726 150.318 227.288 150.453C226.851 150.589 226.491 150.781 226.21 151.031C225.929 151.271 225.72 151.552 225.585 151.875C225.46 152.198 225.397 152.552 225.397 152.938C225.397 153.323 225.486 153.672 225.663 153.984C225.84 154.286 226.095 154.526 226.429 154.703C226.762 154.87 227.153 154.953 227.601 154.953C228.278 154.953 228.866 154.818 229.366 154.547C229.866 154.276 230.252 153.943 230.522 153.547C230.804 153.151 230.95 152.776 230.96 152.422L232.147 154.328C231.981 154.755 231.752 155.198 231.46 155.656C231.179 156.115 230.819 156.547 230.382 156.953C229.944 157.349 229.418 157.677 228.804 157.938C228.189 158.188 227.46 158.312 226.616 158.312C225.543 158.312 224.569 158.099 223.694 157.672C222.83 157.234 222.142 156.635 221.632 155.875C221.132 155.104 220.882 154.229 220.882 153.25C220.882 152.365 221.049 151.578 221.382 150.891C221.715 150.203 222.205 149.625 222.851 149.156C223.507 148.677 224.325 148.318 225.304 148.078C226.283 147.828 227.418 147.703 228.71 147.703H231.319ZM247.967 141.094V144.281H238.123V141.094H247.967ZM240.561 136.922H245.061V152.906C245.061 153.396 245.123 153.771 245.248 154.031C245.384 154.292 245.581 154.474 245.842 154.578C246.102 154.672 246.43 154.719 246.826 154.719C247.107 154.719 247.357 154.708 247.576 154.688C247.805 154.656 247.998 154.625 248.154 154.594L248.17 157.906C247.785 158.031 247.368 158.13 246.92 158.203C246.472 158.276 245.977 158.312 245.436 158.312C244.446 158.312 243.581 158.151 242.842 157.828C242.113 157.495 241.55 156.964 241.154 156.234C240.759 155.505 240.561 154.547 240.561 153.359V136.922ZM256.239 141.094V158H251.724V141.094H256.239ZM251.443 136.688C251.443 136.031 251.672 135.49 252.13 135.062C252.588 134.635 253.203 134.422 253.974 134.422C254.734 134.422 255.344 134.635 255.802 135.062C256.271 135.49 256.505 136.031 256.505 136.688C256.505 137.344 256.271 137.885 255.802 138.312C255.344 138.74 254.734 138.953 253.974 138.953C253.203 138.953 252.588 138.74 252.13 138.312C251.672 137.885 251.443 137.344 251.443 136.688ZM260.199 149.719V149.391C260.199 148.151 260.376 147.01 260.731 145.969C261.085 144.917 261.6 144.005 262.277 143.234C262.955 142.464 263.788 141.865 264.777 141.438C265.767 141 266.902 140.781 268.184 140.781C269.465 140.781 270.606 141 271.606 141.438C272.606 141.865 273.444 142.464 274.121 143.234C274.809 144.005 275.33 144.917 275.684 145.969C276.038 147.01 276.215 148.151 276.215 149.391V149.719C276.215 150.948 276.038 152.089 275.684 153.141C275.33 154.182 274.809 155.094 274.121 155.875C273.444 156.646 272.611 157.245 271.621 157.672C270.632 158.099 269.496 158.312 268.215 158.312C266.934 158.312 265.793 158.099 264.793 157.672C263.804 157.245 262.965 156.646 262.277 155.875C261.6 155.094 261.085 154.182 260.731 153.141C260.376 152.089 260.199 150.948 260.199 149.719ZM264.699 149.391V149.719C264.699 150.427 264.762 151.089 264.887 151.703C265.012 152.318 265.21 152.859 265.481 153.328C265.762 153.786 266.126 154.146 266.574 154.406C267.022 154.667 267.569 154.797 268.215 154.797C268.84 154.797 269.376 154.667 269.824 154.406C270.272 154.146 270.632 153.786 270.902 153.328C271.173 152.859 271.371 152.318 271.496 151.703C271.632 151.089 271.699 150.427 271.699 149.719V149.391C271.699 148.703 271.632 148.057 271.496 147.453C271.371 146.839 271.168 146.297 270.887 145.828C270.616 145.349 270.257 144.974 269.809 144.703C269.361 144.432 268.819 144.297 268.184 144.297C267.548 144.297 267.007 144.432 266.559 144.703C266.121 144.974 265.762 145.349 265.481 145.828C265.21 146.297 265.012 146.839 264.887 147.453C264.762 148.057 264.699 148.703 264.699 149.391ZM284.347 144.703V158H279.847V141.094H284.066L284.347 144.703ZM283.691 148.953H282.472C282.472 147.703 282.633 146.578 282.956 145.578C283.279 144.568 283.732 143.708 284.316 143C284.899 142.281 285.592 141.734 286.394 141.359C287.206 140.974 288.112 140.781 289.112 140.781C289.904 140.781 290.628 140.896 291.284 141.125C291.941 141.354 292.503 141.719 292.972 142.219C293.451 142.719 293.816 143.38 294.066 144.203C294.326 145.026 294.456 146.031 294.456 147.219V158H289.925V147.203C289.925 146.453 289.821 145.87 289.612 145.453C289.404 145.036 289.097 144.745 288.691 144.578C288.295 144.401 287.805 144.312 287.222 144.312C286.618 144.312 286.092 144.432 285.644 144.672C285.206 144.911 284.842 145.245 284.55 145.672C284.269 146.089 284.055 146.578 283.909 147.141C283.764 147.703 283.691 148.307 283.691 148.953ZM124.626 176.094V179.281H114.783V176.094H124.626ZM117.22 171.922H121.72V187.906C121.72 188.396 121.783 188.771 121.908 189.031C122.043 189.292 122.241 189.474 122.501 189.578C122.762 189.672 123.09 189.719 123.486 189.719C123.767 189.719 124.017 189.708 124.236 189.688C124.465 189.656 124.658 189.625 124.814 189.594L124.829 192.906C124.444 193.031 124.027 193.13 123.579 193.203C123.131 193.276 122.637 193.312 122.095 193.312C121.105 193.312 120.241 193.151 119.501 192.828C118.772 192.495 118.21 191.964 117.814 191.234C117.418 190.505 117.22 189.547 117.22 188.359V171.922ZM127.024 184.719V184.391C127.024 183.151 127.201 182.01 127.555 180.969C127.909 179.917 128.425 179.005 129.102 178.234C129.779 177.464 130.612 176.865 131.602 176.438C132.591 176 133.727 175.781 135.008 175.781C136.289 175.781 137.43 176 138.43 176.438C139.43 176.865 140.269 177.464 140.946 178.234C141.633 179.005 142.154 179.917 142.508 180.969C142.862 182.01 143.039 183.151 143.039 184.391V184.719C143.039 185.948 142.862 187.089 142.508 188.141C142.154 189.182 141.633 190.094 140.946 190.875C140.269 191.646 139.435 192.245 138.446 192.672C137.456 193.099 136.321 193.312 135.039 193.312C133.758 193.312 132.618 193.099 131.618 192.672C130.628 192.245 129.789 191.646 129.102 190.875C128.425 190.094 127.909 189.182 127.555 188.141C127.201 187.089 127.024 185.948 127.024 184.719ZM131.524 184.391V184.719C131.524 185.427 131.586 186.089 131.711 186.703C131.836 187.318 132.034 187.859 132.305 188.328C132.586 188.786 132.951 189.146 133.399 189.406C133.847 189.667 134.394 189.797 135.039 189.797C135.664 189.797 136.201 189.667 136.649 189.406C137.097 189.146 137.456 188.786 137.727 188.328C137.998 187.859 138.196 187.318 138.321 186.703C138.456 186.089 138.524 185.427 138.524 184.719V184.391C138.524 183.703 138.456 183.057 138.321 182.453C138.196 181.839 137.993 181.297 137.711 180.828C137.44 180.349 137.081 179.974 136.633 179.703C136.185 179.432 135.644 179.297 135.008 179.297C134.373 179.297 133.831 179.432 133.383 179.703C132.946 179.974 132.586 180.349 132.305 180.828C132.034 181.297 131.836 181.839 131.711 182.453C131.586 183.057 131.524 183.703 131.524 184.391ZM160.444 176.094V193H155.928V176.094H160.444ZM155.647 171.688C155.647 171.031 155.876 170.49 156.334 170.062C156.793 169.635 157.407 169.422 158.178 169.422C158.939 169.422 159.548 169.635 160.006 170.062C160.475 170.49 160.709 171.031 160.709 171.688C160.709 172.344 160.475 172.885 160.006 173.312C159.548 173.74 158.939 173.953 158.178 173.953C157.407 173.953 156.793 173.74 156.334 173.312C155.876 172.885 155.647 172.344 155.647 171.688ZM169.529 179.703V193H165.029V176.094H169.247L169.529 179.703ZM168.872 183.953H167.654C167.654 182.703 167.815 181.578 168.138 180.578C168.461 179.568 168.914 178.708 169.497 178C170.081 177.281 170.774 176.734 171.576 176.359C172.388 175.974 173.294 175.781 174.294 175.781C175.086 175.781 175.81 175.896 176.466 176.125C177.122 176.354 177.685 176.719 178.154 177.219C178.633 177.719 178.997 178.38 179.247 179.203C179.508 180.026 179.638 181.031 179.638 182.219V193H175.107V182.203C175.107 181.453 175.003 180.87 174.794 180.453C174.586 180.036 174.279 179.745 173.872 179.578C173.477 179.401 172.987 179.312 172.404 179.312C171.8 179.312 171.274 179.432 170.826 179.672C170.388 179.911 170.024 180.245 169.732 180.672C169.451 181.089 169.237 181.578 169.091 182.141C168.945 182.703 168.872 183.307 168.872 183.953ZM189.77 189.719L193.52 176.094H198.223L192.52 193H189.676L189.77 189.719ZM187.192 176.094L190.958 189.734L191.036 193H188.176L182.473 176.094H187.192ZM208.761 193.312C207.449 193.312 206.272 193.104 205.23 192.688C204.188 192.26 203.303 191.672 202.574 190.922C201.855 190.172 201.303 189.302 200.918 188.312C200.532 187.312 200.339 186.25 200.339 185.125V184.5C200.339 183.219 200.522 182.047 200.886 180.984C201.251 179.922 201.772 179 202.449 178.219C203.136 177.438 203.97 176.839 204.949 176.422C205.928 175.995 207.032 175.781 208.261 175.781C209.459 175.781 210.522 175.979 211.449 176.375C212.376 176.771 213.152 177.333 213.777 178.062C214.412 178.792 214.891 179.667 215.214 180.688C215.537 181.698 215.699 182.823 215.699 184.062V185.938H202.261V182.938H211.277V182.594C211.277 181.969 211.162 181.411 210.933 180.922C210.714 180.422 210.381 180.026 209.933 179.734C209.485 179.443 208.912 179.297 208.214 179.297C207.621 179.297 207.11 179.427 206.683 179.688C206.256 179.948 205.907 180.312 205.636 180.781C205.376 181.25 205.178 181.802 205.043 182.438C204.918 183.062 204.855 183.75 204.855 184.5V185.125C204.855 185.802 204.949 186.427 205.136 187C205.334 187.573 205.61 188.068 205.964 188.484C206.329 188.901 206.766 189.224 207.277 189.453C207.798 189.682 208.386 189.797 209.043 189.797C209.855 189.797 210.61 189.641 211.308 189.328C212.016 189.005 212.626 188.521 213.136 187.875L215.324 190.25C214.97 190.76 214.485 191.25 213.871 191.719C213.266 192.188 212.537 192.573 211.683 192.875C210.829 193.167 209.855 193.312 208.761 193.312ZM228.362 188.328C228.362 188.005 228.268 187.714 228.081 187.453C227.893 187.193 227.544 186.953 227.034 186.734C226.534 186.505 225.81 186.297 224.862 186.109C224.008 185.922 223.211 185.688 222.471 185.406C221.742 185.115 221.107 184.766 220.565 184.359C220.034 183.953 219.617 183.474 219.315 182.922C219.013 182.359 218.862 181.719 218.862 181C218.862 180.292 219.013 179.625 219.315 179C219.628 178.375 220.07 177.823 220.643 177.344C221.226 176.854 221.935 176.474 222.768 176.203C223.612 175.922 224.56 175.781 225.612 175.781C227.081 175.781 228.341 176.016 229.393 176.484C230.456 176.953 231.268 177.599 231.831 178.422C232.404 179.234 232.69 180.161 232.69 181.203H228.19C228.19 180.766 228.096 180.375 227.909 180.031C227.732 179.677 227.45 179.401 227.065 179.203C226.69 178.995 226.2 178.891 225.596 178.891C225.096 178.891 224.664 178.979 224.299 179.156C223.935 179.323 223.654 179.552 223.456 179.844C223.268 180.125 223.174 180.438 223.174 180.781C223.174 181.042 223.226 181.276 223.331 181.484C223.445 181.682 223.628 181.865 223.878 182.031C224.128 182.198 224.45 182.354 224.846 182.5C225.253 182.635 225.753 182.76 226.346 182.875C227.565 183.125 228.654 183.453 229.612 183.859C230.57 184.255 231.331 184.797 231.893 185.484C232.456 186.161 232.737 187.052 232.737 188.156C232.737 188.906 232.57 189.594 232.237 190.219C231.904 190.844 231.424 191.391 230.799 191.859C230.174 192.318 229.424 192.677 228.549 192.938C227.685 193.188 226.711 193.312 225.628 193.312C224.055 193.312 222.721 193.031 221.628 192.469C220.544 191.906 219.721 191.193 219.159 190.328C218.607 189.453 218.331 188.557 218.331 187.641H222.596C222.617 188.255 222.773 188.75 223.065 189.125C223.367 189.5 223.747 189.771 224.206 189.938C224.674 190.104 225.18 190.188 225.721 190.188C226.305 190.188 226.789 190.109 227.174 189.953C227.56 189.786 227.851 189.568 228.049 189.297C228.258 189.016 228.362 188.693 228.362 188.328ZM244.9 176.094V179.281H235.056V176.094H244.9ZM237.494 171.922H241.994V187.906C241.994 188.396 242.056 188.771 242.181 189.031C242.317 189.292 242.515 189.474 242.775 189.578C243.035 189.672 243.364 189.719 243.759 189.719C244.041 189.719 244.291 189.708 244.509 189.688C244.739 189.656 244.931 189.625 245.087 189.594L245.103 192.906C244.718 193.031 244.301 193.13 243.853 193.203C243.405 193.276 242.91 193.312 242.369 193.312C241.379 193.312 240.515 193.151 239.775 192.828C239.046 192.495 238.483 191.964 238.087 191.234C237.692 190.505 237.494 189.547 237.494 188.359V171.922ZM247.298 184.719V184.391C247.298 183.151 247.475 182.01 247.829 180.969C248.183 179.917 248.699 179.005 249.376 178.234C250.053 177.464 250.886 176.865 251.876 176.438C252.865 176 254.001 175.781 255.282 175.781C256.563 175.781 257.704 176 258.704 176.438C259.704 176.865 260.542 177.464 261.219 178.234C261.907 179.005 262.428 179.917 262.782 180.969C263.136 182.01 263.313 183.151 263.313 184.391V184.719C263.313 185.948 263.136 187.089 262.782 188.141C262.428 189.182 261.907 190.094 261.219 190.875C260.542 191.646 259.709 192.245 258.719 192.672C257.73 193.099 256.594 193.312 255.313 193.312C254.032 193.312 252.891 193.099 251.891 192.672C250.902 192.245 250.063 191.646 249.376 190.875C248.699 190.094 248.183 189.182 247.829 188.141C247.475 187.089 247.298 185.948 247.298 184.719ZM251.798 184.391V184.719C251.798 185.427 251.86 186.089 251.985 186.703C252.11 187.318 252.308 187.859 252.579 188.328C252.86 188.786 253.225 189.146 253.673 189.406C254.12 189.667 254.667 189.797 255.313 189.797C255.938 189.797 256.475 189.667 256.923 189.406C257.37 189.146 257.73 188.786 258.001 188.328C258.271 187.859 258.469 187.318 258.594 186.703C258.73 186.089 258.798 185.427 258.798 184.719V184.391C258.798 183.703 258.73 183.057 258.594 182.453C258.469 181.839 258.266 181.297 257.985 180.828C257.714 180.349 257.355 179.974 256.907 179.703C256.459 179.432 255.917 179.297 255.282 179.297C254.646 179.297 254.105 179.432 253.657 179.703C253.219 179.974 252.86 180.349 252.579 180.828C252.308 181.297 252.11 181.839 251.985 182.453C251.86 183.057 251.798 183.703 251.798 184.391ZM271.539 179.781V193H267.039V176.094H271.273L271.539 179.781ZM276.633 175.984L276.554 180.156C276.336 180.125 276.07 180.099 275.758 180.078C275.455 180.047 275.179 180.031 274.929 180.031C274.294 180.031 273.742 180.115 273.273 180.281C272.815 180.438 272.429 180.672 272.117 180.984C271.815 181.297 271.586 181.677 271.429 182.125C271.284 182.573 271.2 183.083 271.179 183.656L270.273 183.375C270.273 182.281 270.383 181.276 270.601 180.359C270.82 179.432 271.138 178.625 271.554 177.938C271.981 177.25 272.502 176.719 273.117 176.344C273.731 175.969 274.435 175.781 275.226 175.781C275.476 175.781 275.731 175.802 275.992 175.844C276.252 175.875 276.466 175.922 276.633 175.984ZM288.858 188.328C288.858 188.005 288.764 187.714 288.577 187.453C288.389 187.193 288.04 186.953 287.53 186.734C287.03 186.505 286.306 186.297 285.358 186.109C284.504 185.922 283.707 185.688 282.967 185.406C282.238 185.115 281.603 184.766 281.061 184.359C280.53 183.953 280.113 183.474 279.811 182.922C279.509 182.359 279.358 181.719 279.358 181C279.358 180.292 279.509 179.625 279.811 179C280.124 178.375 280.566 177.823 281.139 177.344C281.723 176.854 282.431 176.474 283.264 176.203C284.108 175.922 285.056 175.781 286.108 175.781C287.577 175.781 288.837 176.016 289.889 176.484C290.952 176.953 291.764 177.599 292.327 178.422C292.9 179.234 293.186 180.161 293.186 181.203H288.686C288.686 180.766 288.592 180.375 288.405 180.031C288.228 179.677 287.947 179.401 287.561 179.203C287.186 178.995 286.697 178.891 286.092 178.891C285.592 178.891 285.16 178.979 284.796 179.156C284.431 179.323 284.15 179.552 283.952 179.844C283.764 180.125 283.671 180.438 283.671 180.781C283.671 181.042 283.723 181.276 283.827 181.484C283.941 181.682 284.124 181.865 284.374 182.031C284.624 182.198 284.947 182.354 285.342 182.5C285.749 182.635 286.249 182.76 286.842 182.875C288.061 183.125 289.15 183.453 290.108 183.859C291.066 184.255 291.827 184.797 292.389 185.484C292.952 186.161 293.233 187.052 293.233 188.156C293.233 188.906 293.066 189.594 292.733 190.219C292.4 190.844 291.921 191.391 291.296 191.859C290.671 192.318 289.921 192.677 289.046 192.938C288.181 193.188 287.207 193.312 286.124 193.312C284.551 193.312 283.217 193.031 282.124 192.469C281.04 191.906 280.217 191.193 279.655 190.328C279.103 189.453 278.827 188.557 278.827 187.641H283.092C283.113 188.255 283.27 188.75 283.561 189.125C283.863 189.5 284.244 189.771 284.702 189.938C285.171 190.104 285.676 190.188 286.217 190.188C286.801 190.188 287.285 190.109 287.671 189.953C288.056 189.786 288.348 189.568 288.546 189.297C288.754 189.016 288.858 188.693 288.858 188.328Z" fill="white"/>
<circle cx="203.5" cy="37.5" r="37.5" fill="#114DFF"/>
<path d="M226 20C226.619 20 227.212 20.2458 227.65 20.6834C228.087 21.121 228.333 21.7145 228.333 22.3333C228.333 22.9522 228.087 23.5457 227.65 23.9832C227.212 24.4208 226.619 24.6667 226 24.6667V45.6667C226 47.5232 225.262 49.3037 223.95 50.6164C222.637 51.9292 220.856 52.6667 219 52.6667H207.333V57.3333H212C212.619 57.3333 213.212 57.5792 213.65 58.0167C214.087 58.4543 214.333 59.0478 214.333 59.6667C214.333 60.2855 214.087 60.879 213.65 61.3166C213.212 61.7542 212.619 62 212 62H198C197.381 62 196.788 61.7542 196.35 61.3166C195.912 60.879 195.667 60.2855 195.667 59.6667C195.667 59.0478 195.912 58.4543 196.35 58.0167C196.788 57.5792 197.381 57.3333 198 57.3333H202.667V52.6667H191C189.143 52.6667 187.363 51.9292 186.05 50.6164C184.737 49.3037 184 47.5232 184 45.6667V24.6667C183.381 24.6667 182.788 24.4208 182.35 23.9832C181.912 23.5457 181.667 22.9522 181.667 22.3333C181.667 21.7145 181.912 21.121 182.35 20.6834C182.788 20.2458 183.381 20 184 20H226ZM215.983 30.017C215.545 29.5796 214.952 29.3338 214.333 29.3338C213.714 29.3338 213.121 29.5796 212.684 30.017L207.333 35.365L204.316 32.3503C203.879 31.9129 203.285 31.6672 202.667 31.6672C202.048 31.6672 201.454 31.9129 201.017 32.3503L194.017 39.3503C193.579 39.7879 193.334 40.3813 193.334 41C193.334 41.6187 193.579 42.2121 194.017 42.6497L194.236 42.8433C194.685 43.1916 195.246 43.3641 195.813 43.3284C196.38 43.2927 196.914 43.0514 197.316 42.6497L202.667 37.3017L205.684 40.3163C206.121 40.7538 206.714 40.9995 207.333 40.9995C207.952 40.9995 208.545 40.7538 208.983 40.3163L215.983 33.3163C216.42 32.8788 216.666 32.2854 216.666 31.6667C216.666 31.0479 216.42 30.4546 215.983 30.017Z" fill="#3CE5A7"/>
<defs>
<filter id="filter0_d_138_1029" x="0" y="38" width="408" height="212" filterUnits="userSpaceOnUse" color-interpolation-filters="sRGB">
<feFlood flood-opacity="0" result="BackgroundImageFix"/>
<feColorMatrix in="SourceAlpha" type="matrix" values="0 0 0 0 0 0 0 0 0 0 0 0 0 0 0 0 0 0 127 0" result="hardAlpha"/>
<feOffset dy="4"/>
<feGaussianBlur stdDeviation="2"/>
<feComposite in2="hardAlpha" operator="out"/>
<feColorMatrix type="matrix" values="0 0 0 0 0 0 0 0 0 0 0 0 0 0 0 0 0 0 0.13 0"/>
<feBlend mode="normal" in2="BackgroundImageFix" result="effect1_dropShadow_138_1029"/>
<feBlend mode="normal" in="SourceGraphic" in2="effect1_dropShadow_138_1029" result="shape"/>
</filter>
</defs>
</svg>
