<svg width="245" height="202" viewBox="0 0 245 202" fill="none" xmlns="http://www.w3.org/2000/svg">
<path d="M90.1473 30.2578V33H81.0653V30.2578H90.1473ZM82.2137 15.9375V33H78.6981V15.9375H82.2137ZM88.9637 22.8867V25.5586H81.0653V22.8867H88.9637ZM90.1356 15.9375V18.6914H81.0653V15.9375H90.1356ZM95.4259 20.3203L97.5236 24.1758L99.6798 20.3203H103.278L99.6916 26.5195L103.442 33H99.8322L97.547 28.9219L95.2619 33H91.6525L95.4025 26.5195L91.8166 20.3203H95.4259ZM111.24 33.2344C110.255 33.2344 109.372 33.0781 108.591 32.7656C107.81 32.4453 107.146 32.0039 106.599 31.4414C106.06 30.8789 105.646 30.2266 105.357 29.4844C105.068 28.7344 104.923 27.9375 104.923 27.0938V26.625C104.923 25.6641 105.06 24.7852 105.333 23.9883C105.607 23.1914 105.997 22.5 106.505 21.9141C107.021 21.3281 107.646 20.8789 108.38 20.5664C109.115 20.2461 109.943 20.0859 110.865 20.0859C111.763 20.0859 112.56 20.2344 113.255 20.5312C113.951 20.8281 114.533 21.25 115.001 21.7969C115.478 22.3438 115.837 23 116.08 23.7656C116.322 24.5234 116.443 25.3672 116.443 26.2969V27.7031H106.365V25.4531H113.126V25.1953C113.126 24.7266 113.04 24.3086 112.869 23.9414C112.705 23.5664 112.455 23.2695 112.119 23.0508C111.783 22.832 111.353 22.7227 110.83 22.7227C110.384 22.7227 110.001 22.8203 109.681 23.0156C109.361 23.2109 109.099 23.4844 108.896 23.8359C108.701 24.1875 108.552 24.6016 108.451 25.0781C108.357 25.5469 108.31 26.0625 108.31 26.625V27.0938C108.31 27.6016 108.38 28.0703 108.521 28.5C108.669 28.9297 108.876 29.3008 109.142 29.6133C109.415 29.9258 109.744 30.168 110.126 30.3398C110.517 30.5117 110.958 30.5977 111.451 30.5977C112.06 30.5977 112.626 30.4805 113.15 30.2461C113.681 30.0039 114.138 29.6406 114.521 29.1562L116.162 30.9375C115.896 31.3203 115.533 31.6875 115.072 32.0391C114.619 32.3906 114.072 32.6797 113.431 32.9062C112.79 33.125 112.06 33.2344 111.24 33.2344ZM124.323 30.5977C124.737 30.5977 125.104 30.5195 125.425 30.3633C125.745 30.1992 125.995 29.9727 126.175 29.6836C126.362 29.3867 126.46 29.0391 126.467 28.6406H129.643C129.635 29.5312 129.397 30.3242 128.928 31.0195C128.46 31.707 127.831 32.25 127.042 32.6484C126.253 33.0391 125.37 33.2344 124.393 33.2344C123.409 33.2344 122.55 33.0703 121.815 32.7422C121.089 32.4141 120.483 31.9609 119.999 31.3828C119.514 30.7969 119.151 30.1172 118.909 29.3438C118.667 28.5625 118.546 27.7266 118.546 26.8359V26.4961C118.546 25.5977 118.667 24.7617 118.909 23.9883C119.151 23.207 119.514 22.5273 119.999 21.9492C120.483 21.3633 121.089 20.9062 121.815 20.5781C122.542 20.25 123.393 20.0859 124.37 20.0859C125.409 20.0859 126.319 20.2852 127.1 20.6836C127.889 21.082 128.507 21.6523 128.952 22.3945C129.405 23.1289 129.635 24 129.643 25.0078H126.467C126.46 24.5859 126.37 24.2031 126.198 23.8594C126.034 23.5156 125.792 23.2422 125.471 23.0391C125.159 22.8281 124.772 22.7227 124.311 22.7227C123.819 22.7227 123.417 22.8281 123.104 23.0391C122.792 23.2422 122.55 23.5234 122.378 23.8828C122.206 24.2344 122.085 24.6367 122.014 25.0898C121.952 25.5352 121.921 26.0039 121.921 26.4961V26.8359C121.921 27.3281 121.952 27.8008 122.014 28.2539C122.077 28.707 122.194 29.1094 122.366 29.4609C122.546 29.8125 122.792 30.0898 123.104 30.293C123.417 30.4961 123.823 30.5977 124.323 30.5977ZM139.82 29.9648V20.3203H143.195V33H140.02L139.82 29.9648ZM140.195 27.3633L141.191 27.3398C141.191 28.1836 141.094 28.9688 140.898 29.6953C140.703 30.4141 140.41 31.0391 140.02 31.5703C139.629 32.0938 139.137 32.5039 138.543 32.8008C137.949 33.0898 137.25 33.2344 136.445 33.2344C135.828 33.2344 135.258 33.1484 134.734 32.9766C134.219 32.7969 133.773 32.5195 133.398 32.1445C133.031 31.7617 132.742 31.2734 132.531 30.6797C132.328 30.0781 132.227 29.3555 132.227 28.5117V20.3203H135.602V28.5352C135.602 28.9102 135.645 29.2266 135.73 29.4844C135.824 29.7422 135.953 29.9531 136.117 30.1172C136.281 30.2812 136.473 30.3984 136.691 30.4688C136.918 30.5391 137.168 30.5742 137.441 30.5742C138.137 30.5742 138.684 30.4336 139.082 30.1523C139.488 29.8711 139.773 29.4883 139.938 29.0039C140.109 28.5117 140.195 27.9648 140.195 27.3633ZM152.704 20.3203V22.7109H145.322V20.3203H152.704ZM147.15 17.1914H150.525V29.1797C150.525 29.5469 150.572 29.8281 150.665 30.0234C150.767 30.2188 150.915 30.3555 151.111 30.4336C151.306 30.5039 151.552 30.5391 151.849 30.5391C152.06 30.5391 152.247 30.5312 152.411 30.5156C152.583 30.4922 152.728 30.4688 152.845 30.4453L152.857 32.9297C152.568 33.0234 152.255 33.0977 151.919 33.1523C151.583 33.207 151.212 33.2344 150.806 33.2344C150.064 33.2344 149.415 33.1133 148.861 32.8711C148.314 32.6211 147.892 32.2227 147.595 31.6758C147.298 31.1289 147.15 30.4102 147.15 29.5195V17.1914ZM158.909 20.3203V33H155.522V20.3203H158.909ZM155.311 17.0156C155.311 16.5234 155.483 16.1172 155.827 15.7969C156.17 15.4766 156.631 15.3164 157.21 15.3164C157.78 15.3164 158.237 15.4766 158.581 15.7969C158.932 16.1172 159.108 16.5234 159.108 17.0156C159.108 17.5078 158.932 17.9141 158.581 18.2344C158.237 18.5547 157.78 18.7148 157.21 18.7148C156.631 18.7148 156.17 18.5547 155.827 18.2344C155.483 17.9141 155.311 17.5078 155.311 17.0156ZM161.879 26.7891V26.543C161.879 25.6133 162.012 24.7578 162.277 23.9766C162.543 23.1875 162.93 22.5039 163.437 21.9258C163.945 21.3477 164.57 20.8984 165.312 20.5781C166.055 20.25 166.906 20.0859 167.867 20.0859C168.828 20.0859 169.683 20.25 170.433 20.5781C171.183 20.8984 171.812 21.3477 172.32 21.9258C172.836 22.5039 173.226 23.1875 173.492 23.9766C173.758 24.7578 173.89 25.6133 173.89 26.543V26.7891C173.89 27.7109 173.758 28.5664 173.492 29.3555C173.226 30.1367 172.836 30.8203 172.32 31.4062C171.812 31.9844 171.187 32.4336 170.445 32.7539C169.703 33.0742 168.851 33.2344 167.89 33.2344C166.93 33.2344 166.074 33.0742 165.324 32.7539C164.582 32.4336 163.953 31.9844 163.437 31.4062C162.93 30.8203 162.543 30.1367 162.277 29.3555C162.012 28.5664 161.879 27.7109 161.879 26.7891ZM165.254 26.543V26.7891C165.254 27.3203 165.301 27.8164 165.394 28.2773C165.488 28.7383 165.637 29.1445 165.84 29.4961C166.051 29.8398 166.324 30.1094 166.66 30.3047C166.996 30.5 167.406 30.5977 167.89 30.5977C168.359 30.5977 168.762 30.5 169.098 30.3047C169.433 30.1094 169.703 29.8398 169.906 29.4961C170.109 29.1445 170.258 28.7383 170.351 28.2773C170.453 27.8164 170.504 27.3203 170.504 26.7891V26.543C170.504 26.0273 170.453 25.543 170.351 25.0898C170.258 24.6289 170.105 24.2227 169.894 23.8711C169.691 23.5117 169.422 23.2305 169.086 23.0273C168.75 22.8242 168.344 22.7227 167.867 22.7227C167.39 22.7227 166.984 22.8242 166.648 23.0273C166.32 23.2305 166.051 23.5117 165.84 23.8711C165.637 24.2227 165.488 24.6289 165.394 25.0898C165.301 25.543 165.254 26.0273 165.254 26.543ZM179.989 23.0273V33H176.614V20.3203H179.778L179.989 23.0273ZM179.497 26.2148H178.583C178.583 25.2773 178.704 24.4336 178.946 23.6836C179.189 22.9258 179.528 22.2812 179.966 21.75C180.403 21.2109 180.923 20.8008 181.525 20.5195C182.134 20.2305 182.814 20.0859 183.564 20.0859C184.157 20.0859 184.7 20.1719 185.193 20.3438C185.685 20.5156 186.107 20.7891 186.458 21.1641C186.818 21.5391 187.091 22.0352 187.278 22.6523C187.474 23.2695 187.571 24.0234 187.571 24.9141V33H184.173V24.9023C184.173 24.3398 184.095 23.9023 183.939 23.5898C183.782 23.2773 183.552 23.0586 183.247 22.9336C182.95 22.8008 182.583 22.7344 182.146 22.7344C181.693 22.7344 181.298 22.8242 180.962 23.0039C180.634 23.1836 180.36 23.4336 180.142 23.7539C179.931 24.0664 179.771 24.4336 179.661 24.8555C179.552 25.2773 179.497 25.7305 179.497 26.2148Z" fill="#114DFF"/>
<path d="M36.158 62.5659V68.0312C35.9734 68.3047 35.6795 68.6123 35.2762 68.9541C34.8728 69.2891 34.3157 69.583 33.6048 69.8359C32.9007 70.082 31.9915 70.2051 30.8772 70.2051C29.9681 70.2051 29.1307 70.0479 28.365 69.7334C27.6062 69.4121 26.9466 68.9473 26.386 68.3389C25.8323 67.7236 25.4017 66.9785 25.094 66.1035C24.7933 65.2217 24.6429 64.2236 24.6429 63.1094V61.9507C24.6429 60.8364 24.7728 59.8418 25.0325 58.9668C25.2991 58.0918 25.6888 57.3501 26.2015 56.7417C26.7142 56.1265 27.3431 55.6616 28.0882 55.3472C28.8333 55.0259 29.6878 54.8652 30.6517 54.8652C31.7933 54.8652 32.7469 55.0635 33.5125 55.46C34.285 55.8496 34.8865 56.3896 35.3172 57.0801C35.7547 57.7705 36.035 58.5566 36.158 59.4385H34.179C34.0901 58.8984 33.9124 58.4062 33.6458 57.9619C33.386 57.5176 33.0135 57.1621 32.5281 56.8955C32.0428 56.6221 31.4173 56.4854 30.6517 56.4854C29.9612 56.4854 29.3631 56.6118 28.8572 56.8647C28.3514 57.1177 27.9344 57.48 27.6062 57.9517C27.2781 58.4233 27.032 58.9941 26.868 59.6641C26.7107 60.334 26.6321 61.0894 26.6321 61.9302V63.1094C26.6321 63.9707 26.7312 64.7397 26.9295 65.4165C27.1346 66.0933 27.4251 66.6709 27.8011 67.1494C28.177 67.6211 28.6248 67.98 29.1443 68.2261C29.6707 68.4722 30.2518 68.5952 30.8875 68.5952C31.5916 68.5952 32.1624 68.5371 32.5999 68.4209C33.0374 68.2979 33.3792 68.1543 33.6253 67.9902C33.8714 67.8193 34.0594 67.6587 34.1893 67.5083V64.1655H30.7337V62.5659H36.158ZM41.8432 58.9053V70H39.936V58.9053H41.8432ZM39.7924 55.9624C39.7924 55.6548 39.8847 55.395 40.0693 55.1831C40.2607 54.9712 40.5409 54.8652 40.9101 54.8652C41.2724 54.8652 41.5492 54.9712 41.7406 55.1831C41.9389 55.395 42.038 55.6548 42.038 55.9624C42.038 56.2563 41.9389 56.5093 41.7406 56.7212C41.5492 56.9263 41.2724 57.0288 40.9101 57.0288C40.5409 57.0288 40.2607 56.9263 40.0693 56.7212C39.8847 56.5093 39.7924 56.2563 39.7924 55.9624ZM48.8921 68.2876L51.9273 58.9053H53.8653L49.8765 70H48.605L48.8921 68.2876ZM46.3594 58.9053L49.4869 68.3389L49.7022 70H48.4307L44.4112 58.9053H46.3594ZM60.7809 70.2051C60.0085 70.2051 59.3078 70.0752 58.6789 69.8154C58.0568 69.5488 57.5202 69.1763 57.069 68.6978C56.6247 68.2192 56.2829 67.6519 56.0436 66.9956C55.8044 66.3394 55.6847 65.6216 55.6847 64.8423V64.4116C55.6847 63.5093 55.818 62.7061 56.0846 62.002C56.3512 61.291 56.7135 60.6895 57.1715 60.1973C57.6295 59.7051 58.1491 59.3325 58.7301 59.0796C59.3112 58.8267 59.9128 58.7002 60.5348 58.7002C61.3278 58.7002 62.0114 58.8369 62.5856 59.1104C63.1667 59.3838 63.6418 59.7666 64.0109 60.2588C64.38 60.7441 64.6535 61.3184 64.8312 61.9814C65.0089 62.6377 65.0978 63.3555 65.0978 64.1348V64.9858H56.8127V63.4375H63.2008V63.2939C63.1735 62.8018 63.071 62.3232 62.8932 61.8584C62.7223 61.3936 62.4489 61.0107 62.0729 60.71C61.6969 60.4092 61.1842 60.2588 60.5348 60.2588C60.1042 60.2588 59.7077 60.3511 59.3454 60.5356C58.9831 60.7134 58.672 60.98 58.4123 61.3354C58.1525 61.6909 57.9508 62.125 57.8073 62.6377C57.6637 63.1504 57.5919 63.7417 57.5919 64.4116V64.8423C57.5919 65.3687 57.6637 65.8643 57.8073 66.3291C57.9577 66.7871 58.173 67.1904 58.4533 67.5391C58.7404 67.8877 59.0856 68.1611 59.4889 68.3594C59.8991 68.5576 60.3639 68.6567 60.8835 68.6567C61.5534 68.6567 62.1208 68.52 62.5856 68.2466C63.0504 67.9731 63.4572 67.6074 63.8058 67.1494L64.9543 68.062C64.715 68.4243 64.4108 68.7695 64.0417 69.0977C63.6725 69.4258 63.2179 69.6924 62.6779 69.8975C62.1447 70.1025 61.5124 70.2051 60.7809 70.2051ZM74.4026 67.0571C74.4026 66.7837 74.3411 66.5308 74.218 66.2983C74.1018 66.0591 73.8592 65.8438 73.49 65.6523C73.1277 65.4541 72.5808 65.2832 71.8494 65.1396C71.2342 65.0098 70.677 64.856 70.178 64.6782C69.6858 64.5005 69.2654 64.2852 68.9168 64.0322C68.575 63.7793 68.3118 63.4819 68.1272 63.1401C67.9427 62.7983 67.8504 62.3984 67.8504 61.9404C67.8504 61.5029 67.9461 61.0894 68.1375 60.6997C68.3357 60.3101 68.6126 59.9648 68.968 59.6641C69.3304 59.3633 69.7644 59.1274 70.2703 58.9565C70.7762 58.7856 71.3401 58.7002 71.9622 58.7002C72.8509 58.7002 73.6096 58.8574 74.2386 59.1719C74.8675 59.4863 75.3494 59.9067 75.6844 60.4331C76.0193 60.9526 76.1868 61.5303 76.1868 62.166H74.2898C74.2898 61.8584 74.1975 61.561 74.013 61.2739C73.8352 60.98 73.5721 60.7373 73.2234 60.5459C72.8816 60.3545 72.4612 60.2588 71.9622 60.2588C71.4358 60.2588 71.0086 60.3408 70.6805 60.5049C70.3592 60.6621 70.1233 60.8638 69.9729 61.1099C69.8294 61.356 69.7576 61.6157 69.7576 61.8892C69.7576 62.0942 69.7918 62.2788 69.8601 62.4429C69.9353 62.6001 70.0652 62.7471 70.2498 62.8838C70.4344 63.0137 70.6941 63.1367 71.0291 63.2529C71.364 63.3691 71.7913 63.4854 72.3108 63.6016C73.22 63.8066 73.9685 64.0527 74.5564 64.3398C75.1443 64.627 75.5818 64.979 75.8689 65.396C76.156 65.813 76.2996 66.3188 76.2996 66.9136C76.2996 67.3989 76.1971 67.8433 75.992 68.2466C75.7937 68.6499 75.5032 68.9985 75.1204 69.2925C74.7444 69.5796 74.2932 69.8052 73.7669 69.9692C73.2473 70.1265 72.6629 70.2051 72.0135 70.2051C71.0359 70.2051 70.2088 70.0308 69.532 69.6821C68.8553 69.3335 68.3426 68.8823 67.9939 68.3286C67.6453 67.7749 67.471 67.1904 67.471 66.5752H69.3782C69.4055 67.0947 69.5559 67.5083 69.8294 67.8159C70.1028 68.1167 70.4378 68.332 70.8343 68.4619C71.2307 68.585 71.6238 68.6465 72.0135 68.6465C72.533 68.6465 72.9671 68.5781 73.3157 68.4414C73.6712 68.3047 73.9412 68.1167 74.1258 67.8774C74.3103 67.6382 74.4026 67.3647 74.4026 67.0571ZM88.3775 68.8516L91.4639 58.9053H93.4942L89.044 71.7124C88.9414 71.9858 88.8047 72.2798 88.6338 72.5942C88.4697 72.9155 88.2578 73.2197 87.9981 73.5068C87.7383 73.7939 87.4238 74.0264 87.0547 74.2041C86.6924 74.3887 86.2583 74.481 85.7525 74.481C85.6021 74.481 85.4107 74.4604 85.1782 74.4194C84.9458 74.3784 84.7818 74.3442 84.6861 74.3169L84.6758 72.7788C84.7305 72.7856 84.8159 72.7925 84.9321 72.7993C85.0552 72.813 85.1406 72.8198 85.1885 72.8198C85.6192 72.8198 85.9849 72.7617 86.2857 72.6455C86.5864 72.5361 86.8394 72.3481 87.0444 72.0815C87.2564 71.8218 87.4375 71.4629 87.5879 71.0049L88.3775 68.8516ZM86.1113 58.9053L88.9927 67.5186L89.4849 69.5181L88.1211 70.2153L84.0401 58.9053H86.1113ZM95.1701 64.5757V64.3398C95.1701 63.54 95.2863 62.7983 95.5187 62.1147C95.7511 61.4243 96.0861 60.8262 96.5236 60.3203C96.9611 59.8076 97.4909 59.4111 98.1129 59.1309C98.735 58.8438 99.4323 58.7002 100.205 58.7002C100.984 58.7002 101.685 58.8438 102.307 59.1309C102.936 59.4111 103.469 59.8076 103.906 60.3203C104.351 60.8262 104.689 61.4243 104.922 62.1147C105.154 62.7983 105.27 63.54 105.27 64.3398V64.5757C105.27 65.3755 105.154 66.1172 104.922 66.8008C104.689 67.4844 104.351 68.0825 103.906 68.5952C103.469 69.1011 102.939 69.4976 102.317 69.7847C101.702 70.0649 101.005 70.2051 100.225 70.2051C99.4459 70.2051 98.7453 70.0649 98.1232 69.7847C97.5011 69.4976 96.9679 69.1011 96.5236 68.5952C96.0861 68.0825 95.7511 67.4844 95.5187 66.8008C95.2863 66.1172 95.1701 65.3755 95.1701 64.5757ZM97.067 64.3398V64.5757C97.067 65.1294 97.132 65.6523 97.2619 66.1445C97.3917 66.6299 97.5866 67.0605 97.8463 67.4365C98.1129 67.8125 98.4445 68.1099 98.841 68.3286C99.2374 68.5405 99.6989 68.6465 100.225 68.6465C100.745 68.6465 101.199 68.5405 101.589 68.3286C101.985 68.1099 102.314 67.8125 102.573 67.4365C102.833 67.0605 103.028 66.6299 103.158 66.1445C103.295 65.6523 103.363 65.1294 103.363 64.5757V64.3398C103.363 63.793 103.295 63.2769 103.158 62.7915C103.028 62.2993 102.83 61.8652 102.563 61.4893C102.303 61.1064 101.975 60.8057 101.579 60.5869C101.189 60.3682 100.731 60.2588 100.205 60.2588C99.6852 60.2588 99.2272 60.3682 98.8307 60.5869C98.4411 60.8057 98.1129 61.1064 97.8463 61.4893C97.5866 61.8652 97.3917 62.2993 97.2619 62.7915C97.132 63.2769 97.067 63.793 97.067 64.3398ZM115.067 67.4365V58.9053H116.974V70H115.159L115.067 67.4365ZM115.426 65.0986L116.216 65.0781C116.216 65.8164 116.137 66.5 115.98 67.1289C115.829 67.751 115.583 68.291 115.241 68.749C114.9 69.207 114.452 69.5659 113.898 69.8257C113.344 70.0786 112.671 70.2051 111.878 70.2051C111.338 70.2051 110.843 70.1265 110.391 69.9692C109.947 69.812 109.564 69.5693 109.243 69.2412C108.922 68.9131 108.672 68.4858 108.494 67.9595C108.323 67.4331 108.238 66.8008 108.238 66.0625V58.9053H110.135V66.083C110.135 66.582 110.19 66.9956 110.299 67.3237C110.415 67.645 110.569 67.9014 110.761 68.0928C110.959 68.2773 111.177 68.4072 111.417 68.4824C111.663 68.5576 111.916 68.5952 112.176 68.5952C112.982 68.5952 113.621 68.4414 114.093 68.1338C114.565 67.8193 114.903 67.3989 115.108 66.8726C115.32 66.3394 115.426 65.748 115.426 65.0986ZM130.98 58.9053V60.3613H124.981V58.9053H130.98ZM127.012 56.2085H128.909V67.252C128.909 67.6279 128.967 67.9116 129.083 68.103C129.199 68.2944 129.35 68.4209 129.534 68.4824C129.719 68.5439 129.917 68.5747 130.129 68.5747C130.286 68.5747 130.45 68.561 130.621 68.5337C130.799 68.4995 130.932 68.4722 131.021 68.4517L131.031 70C130.881 70.0479 130.683 70.0923 130.437 70.1333C130.197 70.1812 129.907 70.2051 129.565 70.2051C129.1 70.2051 128.673 70.1128 128.283 69.9282C127.894 69.7437 127.583 69.436 127.35 69.0054C127.125 68.5679 127.012 67.98 127.012 67.2417V56.2085ZM135.732 54.25V70H133.835V54.25H135.732ZM135.281 64.0322L134.491 64.0015C134.498 63.2427 134.611 62.542 134.83 61.8994C135.048 61.25 135.356 60.686 135.753 60.2075C136.149 59.729 136.621 59.3599 137.168 59.1001C137.721 58.8335 138.333 58.7002 139.003 58.7002C139.55 58.7002 140.042 58.7754 140.48 58.9258C140.917 59.0693 141.29 59.3018 141.597 59.623C141.912 59.9443 142.151 60.3613 142.315 60.874C142.479 61.3799 142.561 61.9985 142.561 62.73V70H140.654V62.7095C140.654 62.1284 140.568 61.6636 140.398 61.3149C140.227 60.9595 139.977 60.7031 139.649 60.5459C139.321 60.3818 138.918 60.2998 138.439 60.2998C137.967 60.2998 137.537 60.3989 137.147 60.5972C136.764 60.7954 136.433 61.0688 136.152 61.4175C135.879 61.7661 135.664 62.166 135.506 62.6172C135.356 63.0615 135.281 63.5332 135.281 64.0322ZM150.635 70.2051C149.863 70.2051 149.162 70.0752 148.533 69.8154C147.911 69.5488 147.375 69.1763 146.924 68.6978C146.479 68.2192 146.137 67.6519 145.898 66.9956C145.659 66.3394 145.539 65.6216 145.539 64.8423V64.4116C145.539 63.5093 145.673 62.7061 145.939 62.002C146.206 61.291 146.568 60.6895 147.026 60.1973C147.484 59.7051 148.004 59.3325 148.585 59.0796C149.166 58.8267 149.767 58.7002 150.389 58.7002C151.182 58.7002 151.866 58.8369 152.44 59.1104C153.021 59.3838 153.496 59.7666 153.865 60.2588C154.235 60.7441 154.508 61.3184 154.686 61.9814C154.864 62.6377 154.952 63.3555 154.952 64.1348V64.9858H146.667V63.4375H153.055V63.2939C153.028 62.8018 152.926 62.3232 152.748 61.8584C152.577 61.3936 152.303 61.0107 151.927 60.71C151.551 60.4092 151.039 60.2588 150.389 60.2588C149.959 60.2588 149.562 60.3511 149.2 60.5356C148.838 60.7134 148.527 60.98 148.267 61.3354C148.007 61.6909 147.805 62.125 147.662 62.6377C147.518 63.1504 147.447 63.7417 147.447 64.4116V64.8423C147.447 65.3687 147.518 65.8643 147.662 66.3291C147.812 66.7871 148.028 67.1904 148.308 67.5391C148.595 67.8877 148.94 68.1611 149.343 68.3594C149.754 68.5576 150.218 68.6567 150.738 68.6567C151.408 68.6567 151.975 68.52 152.44 68.2466C152.905 67.9731 153.312 67.6074 153.66 67.1494L154.809 68.062C154.57 68.4243 154.265 68.7695 153.896 69.0977C153.527 69.4258 153.072 69.6924 152.532 69.8975C151.999 70.1025 151.367 70.2051 150.635 70.2051ZM170.096 67.0571C170.096 66.7837 170.035 66.5308 169.912 66.2983C169.795 66.0591 169.553 65.8438 169.184 65.6523C168.821 65.4541 168.274 65.2832 167.543 65.1396C166.928 65.0098 166.371 64.856 165.872 64.6782C165.379 64.5005 164.959 64.2852 164.61 64.0322C164.269 63.7793 164.005 63.4819 163.821 63.1401C163.636 62.7983 163.544 62.3984 163.544 61.9404C163.544 61.5029 163.64 61.0894 163.831 60.6997C164.029 60.3101 164.306 59.9648 164.662 59.6641C165.024 59.3633 165.458 59.1274 165.964 58.9565C166.47 58.7856 167.034 58.7002 167.656 58.7002C168.544 58.7002 169.303 58.8574 169.932 59.1719C170.561 59.4863 171.043 59.9067 171.378 60.4331C171.713 60.9526 171.88 61.5303 171.88 62.166H169.983C169.983 61.8584 169.891 61.561 169.707 61.2739C169.529 60.98 169.266 60.7373 168.917 60.5459C168.575 60.3545 168.155 60.2588 167.656 60.2588C167.129 60.2588 166.702 60.3408 166.374 60.5049C166.053 60.6621 165.817 60.8638 165.666 61.1099C165.523 61.356 165.451 61.6157 165.451 61.8892C165.451 62.0942 165.485 62.2788 165.554 62.4429C165.629 62.6001 165.759 62.7471 165.943 62.8838C166.128 63.0137 166.388 63.1367 166.723 63.2529C167.058 63.3691 167.485 63.4854 168.004 63.6016C168.914 63.8066 169.662 64.0527 170.25 64.3398C170.838 64.627 171.275 64.979 171.562 65.396C171.85 65.813 171.993 66.3188 171.993 66.9136C171.993 67.3989 171.891 67.8433 171.686 68.2466C171.487 68.6499 171.197 68.9985 170.814 69.2925C170.438 69.5796 169.987 69.8052 169.46 69.9692C168.941 70.1265 168.356 70.2051 167.707 70.2051C166.729 70.2051 165.902 70.0308 165.226 69.6821C164.549 69.3335 164.036 68.8823 163.687 68.3286C163.339 67.7749 163.165 67.1904 163.165 66.5752H165.072C165.099 67.0947 165.249 67.5083 165.523 67.8159C165.796 68.1167 166.131 68.332 166.528 68.4619C166.924 68.585 167.317 68.6465 167.707 68.6465C168.227 68.6465 168.661 68.5781 169.009 68.4414C169.365 68.3047 169.635 68.1167 169.819 67.8774C170.004 67.6382 170.096 67.3647 170.096 67.0571ZM179.76 58.9053V60.3613H173.761V58.9053H179.76ZM175.792 56.2085H177.689V67.252C177.689 67.6279 177.747 67.9116 177.863 68.103C177.979 68.2944 178.129 68.4209 178.314 68.4824C178.499 68.5439 178.697 68.5747 178.909 68.5747C179.066 68.5747 179.23 68.561 179.401 68.5337C179.579 68.4995 179.712 68.4722 179.801 68.4517L179.811 70C179.661 70.0479 179.462 70.0923 179.216 70.1333C178.977 70.1812 178.687 70.2051 178.345 70.2051C177.88 70.2051 177.453 70.1128 177.063 69.9282C176.673 69.7437 176.362 69.436 176.13 69.0054C175.904 68.5679 175.792 67.98 175.792 67.2417V56.2085ZM187.219 70.2051C186.447 70.2051 185.746 70.0752 185.117 69.8154C184.495 69.5488 183.958 69.1763 183.507 68.6978C183.063 68.2192 182.721 67.6519 182.482 66.9956C182.242 66.3394 182.123 65.6216 182.123 64.8423V64.4116C182.123 63.5093 182.256 62.7061 182.523 62.002C182.789 61.291 183.152 60.6895 183.61 60.1973C184.068 59.7051 184.587 59.3325 185.168 59.0796C185.749 58.8267 186.351 58.7002 186.973 58.7002C187.766 58.7002 188.449 58.8369 189.024 59.1104C189.605 59.3838 190.08 59.7666 190.449 60.2588C190.818 60.7441 191.092 61.3184 191.269 61.9814C191.447 62.6377 191.536 63.3555 191.536 64.1348V64.9858H183.251V63.4375H189.639V63.2939C189.612 62.8018 189.509 62.3232 189.331 61.8584C189.16 61.3936 188.887 61.0107 188.511 60.71C188.135 60.4092 187.622 60.2588 186.973 60.2588C186.542 60.2588 186.146 60.3511 185.783 60.5356C185.421 60.7134 185.11 60.98 184.85 61.3354C184.591 61.6909 184.389 62.125 184.245 62.6377C184.102 63.1504 184.03 63.7417 184.03 64.4116V64.8423C184.03 65.3687 184.102 65.8643 184.245 66.3291C184.396 66.7871 184.611 67.1904 184.891 67.5391C185.178 67.8877 185.524 68.1611 185.927 68.3594C186.337 68.5576 186.802 68.6567 187.322 68.6567C187.991 68.6567 188.559 68.52 189.024 68.2466C189.488 67.9731 189.895 67.6074 190.244 67.1494L191.392 68.062C191.153 68.4243 190.849 68.7695 190.48 69.0977C190.111 69.4258 189.656 69.6924 189.116 69.8975C188.583 70.1025 187.95 70.2051 187.219 70.2051ZM196.278 61.0381V74.2656H194.37V58.9053H196.114L196.278 61.0381ZM203.753 64.3604V64.5757C203.753 65.3823 203.657 66.1309 203.466 66.8213C203.274 67.5049 202.994 68.0996 202.625 68.6055C202.263 69.1113 201.815 69.5044 201.282 69.7847C200.748 70.0649 200.137 70.2051 199.446 70.2051C198.742 70.2051 198.12 70.0889 197.58 69.8564C197.04 69.624 196.582 69.2856 196.206 68.8413C195.83 68.397 195.529 67.8638 195.304 67.2417C195.085 66.6196 194.934 65.9189 194.852 65.1396V63.9912C194.934 63.1709 195.088 62.436 195.314 61.7866C195.539 61.1372 195.837 60.5835 196.206 60.1255C196.582 59.6606 197.036 59.3086 197.57 59.0693C198.103 58.8232 198.718 58.7002 199.415 58.7002C200.113 58.7002 200.731 58.8369 201.271 59.1104C201.811 59.377 202.266 59.7598 202.635 60.2588C203.004 60.7578 203.281 61.356 203.466 62.0532C203.657 62.7437 203.753 63.5127 203.753 64.3604ZM201.846 64.5757V64.3604C201.846 63.8066 201.787 63.2871 201.671 62.8018C201.555 62.3096 201.374 61.8789 201.128 61.5098C200.889 61.1338 200.581 60.8398 200.205 60.6279C199.829 60.4092 199.381 60.2998 198.862 60.2998C198.383 60.2998 197.966 60.3818 197.611 60.5459C197.262 60.71 196.965 60.9321 196.719 61.2124C196.473 61.4858 196.271 61.8003 196.114 62.1558C195.963 62.5044 195.85 62.8667 195.775 63.2427V65.8984C195.912 66.377 196.103 66.8281 196.349 67.252C196.596 67.6689 196.924 68.0073 197.334 68.2671C197.744 68.52 198.26 68.6465 198.882 68.6465C199.395 68.6465 199.836 68.5405 200.205 68.3286C200.581 68.1099 200.889 67.8125 201.128 67.4365C201.374 67.0605 201.555 66.6299 201.671 66.1445C201.787 65.6523 201.846 65.1294 201.846 64.5757ZM213.263 67.0571C213.263 66.7837 213.201 66.5308 213.078 66.2983C212.962 66.0591 212.719 65.8438 212.35 65.6523C211.988 65.4541 211.441 65.2832 210.709 65.1396C210.094 65.0098 209.537 64.856 209.038 64.6782C208.546 64.5005 208.125 64.2852 207.777 64.0322C207.435 63.7793 207.172 63.4819 206.987 63.1401C206.803 62.7983 206.71 62.3984 206.71 61.9404C206.71 61.5029 206.806 61.0894 206.998 60.6997C207.196 60.3101 207.473 59.9648 207.828 59.6641C208.19 59.3633 208.624 59.1274 209.13 58.9565C209.636 58.7856 210.2 58.7002 210.822 58.7002C211.711 58.7002 212.47 58.8574 213.099 59.1719C213.727 59.4863 214.209 59.9067 214.544 60.4331C214.879 60.9526 215.047 61.5303 215.047 62.166H213.15C213.15 61.8584 213.058 61.561 212.873 61.2739C212.695 60.98 212.432 60.7373 212.083 60.5459C211.742 60.3545 211.321 60.2588 210.822 60.2588C210.296 60.2588 209.869 60.3408 209.54 60.5049C209.219 60.6621 208.983 60.8638 208.833 61.1099C208.689 61.356 208.618 61.6157 208.618 61.8892C208.618 62.0942 208.652 62.2788 208.72 62.4429C208.795 62.6001 208.925 62.7471 209.11 62.8838C209.294 63.0137 209.554 63.1367 209.889 63.2529C210.224 63.3691 210.651 63.4854 211.171 63.6016C212.08 63.8066 212.829 64.0527 213.416 64.3398C214.004 64.627 214.442 64.979 214.729 65.396C215.016 65.813 215.16 66.3188 215.16 66.9136C215.16 67.3989 215.057 67.8433 214.852 68.2466C214.654 68.6499 214.363 68.9985 213.98 69.2925C213.604 69.5796 213.153 69.8052 212.627 69.9692C212.107 70.1265 211.523 70.2051 210.873 70.2051C209.896 70.2051 209.069 70.0308 208.392 69.6821C207.715 69.3335 207.203 68.8823 206.854 68.3286C206.505 67.7749 206.331 67.1904 206.331 66.5752H208.238C208.266 67.0947 208.416 67.5083 208.689 67.8159C208.963 68.1167 209.298 68.332 209.694 68.4619C210.091 68.585 210.484 68.6465 210.873 68.6465C211.393 68.6465 211.827 68.5781 212.176 68.4414C212.531 68.3047 212.801 68.1167 212.986 67.8774C213.17 67.6382 213.263 67.3647 213.263 67.0571ZM220.004 67.7441V69.272C220.004 69.894 219.847 70.5503 219.532 71.2407C219.218 71.938 218.777 72.519 218.21 72.9839L217.133 72.2354C217.352 71.9346 217.536 71.627 217.687 71.3125C217.837 71.0049 217.95 70.6836 218.025 70.3486C218.107 70.0205 218.148 69.6719 218.148 69.3027V67.7441H220.004ZM34.138 90.0571C34.138 89.7837 34.0765 89.5308 33.9534 89.2983C33.8372 89.0591 33.5945 88.8438 33.2254 88.6523C32.8631 88.4541 32.3162 88.2832 31.5848 88.1396C30.9695 88.0098 30.4124 87.856 29.9134 87.6782C29.4212 87.5005 29.0008 87.2852 28.6521 87.0322C28.3103 86.7793 28.0472 86.4819 27.8626 86.1401C27.678 85.7983 27.5857 85.3984 27.5857 84.9404C27.5857 84.5029 27.6814 84.0894 27.8728 83.6997C28.0711 83.3101 28.3479 82.9648 28.7034 82.6641C29.0657 82.3633 29.4998 82.1274 30.0057 81.9565C30.5115 81.7856 31.0755 81.7002 31.6976 81.7002C32.5862 81.7002 33.345 81.8574 33.9739 82.1719C34.6028 82.4863 35.0848 82.9067 35.4197 83.4331C35.7547 83.9526 35.9222 84.5303 35.9222 85.166H34.0252C34.0252 84.8584 33.9329 84.561 33.7483 84.2739C33.5706 83.98 33.3074 83.7373 32.9588 83.5459C32.617 83.3545 32.1966 83.2588 31.6976 83.2588C31.1712 83.2588 30.7439 83.3408 30.4158 83.5049C30.0945 83.6621 29.8587 83.8638 29.7083 84.1099C29.5647 84.356 29.493 84.6157 29.493 84.8892C29.493 85.0942 29.5271 85.2788 29.5955 85.4429C29.6707 85.6001 29.8006 85.7471 29.9852 85.8838C30.1697 86.0137 30.4295 86.1367 30.7645 86.2529C31.0994 86.3691 31.5267 86.4854 32.0462 86.6016C32.9554 86.8066 33.7039 87.0527 34.2918 87.3398C34.8797 87.627 35.3172 87.979 35.6043 88.396C35.8914 88.813 36.035 89.3188 36.035 89.9136C36.035 90.3989 35.9324 90.8433 35.7273 91.2466C35.5291 91.6499 35.2386 91.9985 34.8558 92.2925C34.4798 92.5796 34.0286 92.8052 33.5022 92.9692C32.9827 93.1265 32.3982 93.2051 31.7488 93.2051C30.7713 93.2051 29.9441 93.0308 29.2674 92.6821C28.5906 92.3335 28.0779 91.8823 27.7293 91.3286C27.3807 90.7749 27.2063 90.1904 27.2063 89.5752H29.1136C29.1409 90.0947 29.2913 90.5083 29.5647 90.8159C29.8382 91.1167 30.1731 91.332 30.5696 91.4619C30.9661 91.585 31.3592 91.6465 31.7488 91.6465C32.2684 91.6465 32.7024 91.5781 33.0511 91.4414C33.4065 91.3047 33.6766 91.1167 33.8611 90.8774C34.0457 90.6382 34.138 90.3647 34.138 90.0571ZM43.8017 81.9053V83.3613H37.8031V81.9053H43.8017ZM39.8334 79.2085H41.7304V90.252C41.7304 90.6279 41.7885 90.9116 41.9047 91.103C42.0209 91.2944 42.1713 91.4209 42.3559 91.4824C42.5404 91.5439 42.7387 91.5747 42.9506 91.5747C43.1078 91.5747 43.2719 91.561 43.4428 91.5337C43.6205 91.4995 43.7538 91.4722 43.8427 91.4517L43.8529 93C43.7026 93.0479 43.5043 93.0923 43.2582 93.1333C43.019 93.1812 42.7284 93.2051 42.3866 93.2051C41.9218 93.2051 41.4945 93.1128 41.1049 92.9282C40.7153 92.7437 40.4042 92.436 40.1718 92.0054C39.9462 91.5679 39.8334 90.98 39.8334 90.2417V79.2085ZM48.5537 83.6484V93H46.6568V81.9053H48.5025L48.5537 83.6484ZM52.0196 81.8438L52.0093 83.6074C51.8521 83.5732 51.7017 83.5527 51.5581 83.5459C51.4214 83.5322 51.2642 83.5254 51.0865 83.5254C50.649 83.5254 50.2627 83.5938 49.9278 83.7305C49.5928 83.8672 49.3091 84.0586 49.0767 84.3047C48.8443 84.5508 48.6597 84.8447 48.523 85.1865C48.3931 85.5215 48.3077 85.8906 48.2666 86.2939L47.7334 86.6016C47.7334 85.9316 47.7984 85.3027 47.9283 84.7148C48.065 84.127 48.2735 83.6074 48.5537 83.1562C48.834 82.6982 49.1895 82.3428 49.6202 82.0898C50.0577 81.8301 50.5772 81.7002 51.1787 81.7002C51.3155 81.7002 51.4727 81.7173 51.6504 81.7515C51.8282 81.7788 51.9512 81.8096 52.0196 81.8438ZM61.1911 90.4365V81.9053H63.0983V93H61.2834L61.1911 90.4365ZM61.55 88.0986L62.3395 88.0781C62.3395 88.8164 62.2609 89.5 62.1037 90.1289C61.9533 90.751 61.7072 91.291 61.3654 91.749C61.0236 92.207 60.5758 92.5659 60.0221 92.8257C59.4684 93.0786 58.7951 93.2051 58.0021 93.2051C57.4621 93.2051 56.9665 93.1265 56.5153 92.9692C56.071 92.812 55.6881 92.5693 55.3669 92.2412C55.0456 91.9131 54.7961 91.4858 54.6183 90.9595C54.4474 90.4331 54.362 89.8008 54.362 89.0625V81.9053H56.2589V89.083C56.2589 89.582 56.3136 89.9956 56.423 90.3237C56.5392 90.645 56.693 90.9014 56.8844 91.0928C57.0827 91.2773 57.3014 91.4072 57.5407 91.4824C57.7868 91.5576 58.0397 91.5952 58.2995 91.5952C59.1061 91.5952 59.7453 91.4414 60.2169 91.1338C60.6886 90.8193 61.027 90.3989 61.2321 89.8726C61.444 89.3394 61.55 88.748 61.55 88.0986ZM71.0598 91.6465C71.511 91.6465 71.928 91.5542 72.3108 91.3696C72.6936 91.1851 73.0081 90.9321 73.2542 90.6108C73.5003 90.2827 73.6404 89.9102 73.6746 89.4932H75.4793C75.4451 90.1494 75.2229 90.7612 74.8128 91.3286C74.4095 91.8892 73.8797 92.3438 73.2234 92.6924C72.5672 93.0342 71.846 93.2051 71.0598 93.2051C70.2259 93.2051 69.4978 93.0581 68.8758 92.7642C68.2605 92.4702 67.7478 92.0669 67.3377 91.5542C66.9344 91.0415 66.6302 90.4536 66.4251 89.7905C66.2268 89.1206 66.1277 88.4131 66.1277 87.668V87.2373C66.1277 86.4922 66.2268 85.7881 66.4251 85.125C66.6302 84.4551 66.9344 83.8638 67.3377 83.3511C67.7478 82.8384 68.2605 82.4351 68.8758 82.1411C69.4978 81.8472 70.2259 81.7002 71.0598 81.7002C71.928 81.7002 72.6868 81.8779 73.3362 82.2334C73.9856 82.582 74.4949 83.0605 74.864 83.6689C75.24 84.2705 75.4451 84.9541 75.4793 85.7197H73.6746C73.6404 85.2617 73.5105 84.8481 73.2849 84.479C73.0662 84.1099 72.7654 83.8159 72.3826 83.5972C72.0066 83.3716 71.5657 83.2588 71.0598 83.2588C70.4788 83.2588 69.99 83.375 69.5935 83.6074C69.2039 83.833 68.8929 84.1406 68.6604 84.5303C68.4348 84.9131 68.2708 85.3403 68.1682 85.812C68.0725 86.2769 68.0247 86.752 68.0247 87.2373V87.668C68.0247 88.1533 68.0725 88.6318 68.1682 89.1035C68.2639 89.5752 68.4246 90.0024 68.6502 90.3853C68.8826 90.7681 69.1936 91.0757 69.5833 91.3081C69.9798 91.5337 70.472 91.6465 71.0598 91.6465ZM82.8871 81.9053V83.3613H76.8886V81.9053H82.8871ZM78.9188 79.2085H80.8158V90.252C80.8158 90.6279 80.8739 90.9116 80.9901 91.103C81.1063 91.2944 81.2567 91.4209 81.4413 91.4824C81.6259 91.5439 81.8241 91.5747 82.036 91.5747C82.1933 91.5747 82.3573 91.561 82.5282 91.5337C82.706 91.4995 82.8393 91.4722 82.9281 91.4517L82.9384 93C82.788 93.0479 82.5897 93.0923 82.3437 93.1333C82.1044 93.1812 81.8139 93.2051 81.4721 93.2051C81.0072 93.2051 80.58 93.1128 80.1903 92.9282C79.8007 92.7437 79.4896 92.436 79.2572 92.0054C79.0316 91.5679 78.9188 90.98 78.9188 90.2417V79.2085ZM92.5303 90.4365V81.9053H94.4375V93H92.6226L92.5303 90.4365ZM92.8892 88.0986L93.6787 88.0781C93.6787 88.8164 93.6001 89.5 93.4429 90.1289C93.2925 90.751 93.0464 91.291 92.7046 91.749C92.3628 92.207 91.9151 92.5659 91.3613 92.8257C90.8076 93.0786 90.1343 93.2051 89.3413 93.2051C88.8013 93.2051 88.3057 93.1265 87.8545 92.9692C87.4102 92.812 87.0274 92.5693 86.7061 92.2412C86.3848 91.9131 86.1353 91.4858 85.9575 90.9595C85.7866 90.4331 85.7012 89.8008 85.7012 89.0625V81.9053H87.5982V89.083C87.5982 89.582 87.6528 89.9956 87.7622 90.3237C87.8784 90.645 88.0322 90.9014 88.2236 91.0928C88.4219 91.2773 88.6406 91.4072 88.8799 91.4824C89.126 91.5576 89.3789 91.5952 89.6387 91.5952C90.4453 91.5952 91.0845 91.4414 91.5562 91.1338C92.0278 90.8193 92.3662 90.3989 92.5713 89.8726C92.7832 89.3394 92.8892 88.748 92.8892 88.0986ZM99.8561 83.6484V93H97.9591V81.9053H99.8048L99.8561 83.6484ZM103.322 81.8438L103.312 83.6074C103.154 83.5732 103.004 83.5527 102.86 83.5459C102.724 83.5322 102.567 83.5254 102.389 83.5254C101.951 83.5254 101.565 83.5938 101.23 83.7305C100.895 83.8672 100.611 84.0586 100.379 84.3047C100.147 84.5508 99.9621 84.8447 99.8253 85.1865C99.6954 85.5215 99.61 85.8906 99.569 86.2939L99.0358 86.6016C99.0358 85.9316 99.1007 85.3027 99.2306 84.7148C99.3673 84.127 99.5758 83.6074 99.8561 83.1562C100.136 82.6982 100.492 82.3428 100.923 82.0898C101.36 81.8301 101.88 81.7002 102.481 81.7002C102.618 81.7002 102.775 81.7173 102.953 81.7515C103.131 81.7788 103.254 81.8096 103.322 81.8438ZM110.104 93.2051C109.332 93.2051 108.631 93.0752 108.002 92.8154C107.38 92.5488 106.844 92.1763 106.392 91.6978C105.948 91.2192 105.606 90.6519 105.367 89.9956C105.128 89.3394 105.008 88.6216 105.008 87.8423V87.4116C105.008 86.5093 105.141 85.7061 105.408 85.002C105.675 84.291 106.037 83.6895 106.495 83.1973C106.953 82.7051 107.472 82.3325 108.053 82.0796C108.635 81.8267 109.236 81.7002 109.858 81.7002C110.651 81.7002 111.335 81.8369 111.909 82.1104C112.49 82.3838 112.965 82.7666 113.334 83.2588C113.703 83.7441 113.977 84.3184 114.155 84.9814C114.332 85.6377 114.421 86.3555 114.421 87.1348V87.9858H106.136V86.4375H112.524V86.2939C112.497 85.8018 112.394 85.3232 112.217 84.8584C112.046 84.3936 111.772 84.0107 111.396 83.71C111.02 83.4092 110.508 83.2588 109.858 83.2588C109.427 83.2588 109.031 83.3511 108.669 83.5356C108.306 83.7134 107.995 83.98 107.736 84.3354C107.476 84.6909 107.274 85.125 107.131 85.6377C106.987 86.1504 106.915 86.7417 106.915 87.4116V87.8423C106.915 88.3687 106.987 88.8643 107.131 89.3291C107.281 89.7871 107.496 90.1904 107.777 90.5391C108.064 90.8877 108.409 91.1611 108.812 91.3594C109.222 91.5576 109.687 91.6567 110.207 91.6567C110.877 91.6567 111.444 91.52 111.909 91.2466C112.374 90.9731 112.781 90.6074 113.129 90.1494L114.278 91.062C114.038 91.4243 113.734 91.7695 113.365 92.0977C112.996 92.4258 112.541 92.6924 112.001 92.8975C111.468 93.1025 110.836 93.2051 110.104 93.2051ZM118.989 90.7441V92.272C118.989 92.894 118.831 93.5503 118.517 94.2407C118.203 94.938 117.762 95.519 117.194 95.9839L116.118 95.2354C116.336 94.9346 116.521 94.627 116.671 94.3125C116.822 94.0049 116.934 93.6836 117.01 93.3486C117.092 93.0205 117.133 92.6719 117.133 92.3027V90.7441H118.989ZM132.523 81.9053V83.3613H126.524V81.9053H132.523ZM128.554 79.2085H130.451V90.252C130.451 90.6279 130.509 90.9116 130.626 91.103C130.742 91.2944 130.892 91.4209 131.077 91.4824C131.261 91.5439 131.46 91.5747 131.672 91.5747C131.829 91.5747 131.993 91.561 132.164 91.5337C132.341 91.4995 132.475 91.4722 132.564 91.4517L132.574 93C132.423 93.0479 132.225 93.0923 131.979 93.1333C131.74 93.1812 131.449 93.2051 131.108 93.2051C130.643 93.2051 130.215 93.1128 129.826 92.9282C129.436 92.7437 129.125 92.436 128.893 92.0054C128.667 91.5679 128.554 90.98 128.554 90.2417V79.2085ZM134.67 87.5757V87.3398C134.67 86.54 134.786 85.7983 135.019 85.1147C135.251 84.4243 135.586 83.8262 136.024 83.3203C136.461 82.8076 136.991 82.4111 137.613 82.1309C138.235 81.8438 138.932 81.7002 139.705 81.7002C140.484 81.7002 141.185 81.8438 141.807 82.1309C142.436 82.4111 142.969 82.8076 143.406 83.3203C143.851 83.8262 144.189 84.4243 144.422 85.1147C144.654 85.7983 144.77 86.54 144.77 87.3398V87.5757C144.77 88.3755 144.654 89.1172 144.422 89.8008C144.189 90.4844 143.851 91.0825 143.406 91.5952C142.969 92.1011 142.439 92.4976 141.817 92.7847C141.202 93.0649 140.505 93.2051 139.725 93.2051C138.946 93.2051 138.245 93.0649 137.623 92.7847C137.001 92.4976 136.468 92.1011 136.024 91.5952C135.586 91.0825 135.251 90.4844 135.019 89.8008C134.786 89.1172 134.67 88.3755 134.67 87.5757ZM136.567 87.3398V87.5757C136.567 88.1294 136.632 88.6523 136.762 89.1445C136.892 89.6299 137.087 90.0605 137.346 90.4365C137.613 90.8125 137.945 91.1099 138.341 91.3286C138.738 91.5405 139.199 91.6465 139.725 91.6465C140.245 91.6465 140.699 91.5405 141.089 91.3286C141.486 91.1099 141.814 90.8125 142.073 90.4365C142.333 90.0605 142.528 89.6299 142.658 89.1445C142.795 88.6523 142.863 88.1294 142.863 87.5757V87.3398C142.863 86.793 142.795 86.2769 142.658 85.7915C142.528 85.2993 142.33 84.8652 142.063 84.4893C141.803 84.1064 141.475 83.8057 141.079 83.5869C140.689 83.3682 140.231 83.2588 139.705 83.2588C139.185 83.2588 138.727 83.3682 138.331 83.5869C137.941 83.8057 137.613 84.1064 137.346 84.4893C137.087 84.8652 136.892 85.2993 136.762 85.7915C136.632 86.2769 136.567 86.793 136.567 87.3398ZM147.277 87.5757V87.3398C147.277 86.54 147.393 85.7983 147.625 85.1147C147.858 84.4243 148.193 83.8262 148.63 83.3203C149.068 82.8076 149.598 82.4111 150.22 82.1309C150.842 81.8438 151.539 81.7002 152.311 81.7002C153.091 81.7002 153.791 81.8438 154.413 82.1309C155.042 82.4111 155.576 82.8076 156.013 83.3203C156.457 83.8262 156.796 84.4243 157.028 85.1147C157.261 85.7983 157.377 86.54 157.377 87.3398V87.5757C157.377 88.3755 157.261 89.1172 157.028 89.8008C156.796 90.4844 156.457 91.0825 156.013 91.5952C155.576 92.1011 155.046 92.4976 154.424 92.7847C153.808 93.0649 153.111 93.2051 152.332 93.2051C151.553 93.2051 150.852 93.0649 150.23 92.7847C149.608 92.4976 149.075 92.1011 148.63 91.5952C148.193 91.0825 147.858 90.4844 147.625 89.8008C147.393 89.1172 147.277 88.3755 147.277 87.5757ZM149.174 87.3398V87.5757C149.174 88.1294 149.239 88.6523 149.369 89.1445C149.498 89.6299 149.693 90.0605 149.953 90.4365C150.22 90.8125 150.551 91.1099 150.948 91.3286C151.344 91.5405 151.806 91.6465 152.332 91.6465C152.851 91.6465 153.306 91.5405 153.696 91.3286C154.092 91.1099 154.42 90.8125 154.68 90.4365C154.94 90.0605 155.135 89.6299 155.265 89.1445C155.401 88.6523 155.47 88.1294 155.47 87.5757V87.3398C155.47 86.793 155.401 86.2769 155.265 85.7915C155.135 85.2993 154.936 84.8652 154.67 84.4893C154.41 84.1064 154.082 83.8057 153.685 83.5869C153.296 83.3682 152.838 83.2588 152.311 83.2588C151.792 83.2588 151.334 83.3682 150.937 83.5869C150.548 83.8057 150.22 84.1064 149.953 84.4893C149.693 84.8652 149.498 85.2993 149.369 85.7915C149.239 86.2769 149.174 86.793 149.174 87.3398ZM162.447 77.25V93H160.54V77.25H162.447ZM172.582 90.0571C172.582 89.7837 172.521 89.5308 172.398 89.2983C172.281 89.0591 172.039 88.8438 171.67 88.6523C171.307 88.4541 170.76 88.2832 170.029 88.1396C169.414 88.0098 168.857 87.856 168.358 87.6782C167.865 87.5005 167.445 87.2852 167.096 87.0322C166.754 86.7793 166.491 86.4819 166.307 86.1401C166.122 85.7983 166.03 85.3984 166.03 84.9404C166.03 84.5029 166.126 84.0894 166.317 83.6997C166.515 83.3101 166.792 82.9648 167.148 82.6641C167.51 82.3633 167.944 82.1274 168.45 81.9565C168.956 81.7856 169.52 81.7002 170.142 81.7002C171.03 81.7002 171.789 81.8574 172.418 82.1719C173.047 82.4863 173.529 82.9067 173.864 83.4331C174.199 83.9526 174.366 84.5303 174.366 85.166H172.469C172.469 84.8584 172.377 84.561 172.192 84.2739C172.015 83.98 171.752 83.7373 171.403 83.5459C171.061 83.3545 170.641 83.2588 170.142 83.2588C169.615 83.2588 169.188 83.3408 168.86 83.5049C168.539 83.6621 168.303 83.8638 168.152 84.1099C168.009 84.356 167.937 84.6157 167.937 84.8892C167.937 85.0942 167.971 85.2788 168.04 85.4429C168.115 85.6001 168.245 85.7471 168.429 85.8838C168.614 86.0137 168.874 86.1367 169.209 86.2529C169.544 86.3691 169.971 86.4854 170.49 86.6016C171.4 86.8066 172.148 87.0527 172.736 87.3398C173.324 87.627 173.761 87.979 174.048 88.396C174.336 88.813 174.479 89.3188 174.479 89.9136C174.479 90.3989 174.377 90.8433 174.171 91.2466C173.973 91.6499 173.683 91.9985 173.3 92.2925C172.924 92.5796 172.473 92.8052 171.946 92.9692C171.427 93.1265 170.842 93.2051 170.193 93.2051C169.215 93.2051 168.388 93.0308 167.712 92.6821C167.035 92.3335 166.522 91.8823 166.173 91.3286C165.825 90.7749 165.65 90.1904 165.65 89.5752H167.558C167.585 90.0947 167.735 90.5083 168.009 90.8159C168.282 91.1167 168.617 91.332 169.014 91.4619C169.41 91.585 169.803 91.6465 170.193 91.6465C170.712 91.6465 171.147 91.5781 171.495 91.4414C171.851 91.3047 172.121 91.1167 172.305 90.8774C172.49 90.6382 172.582 90.3647 172.582 90.0571ZM189.982 91.103V85.3916C189.982 84.9541 189.893 84.5747 189.715 84.2534C189.544 83.9253 189.285 83.6724 188.936 83.4946C188.587 83.3169 188.157 83.228 187.644 83.228C187.165 83.228 186.745 83.3101 186.383 83.4741C186.027 83.6382 185.747 83.8535 185.542 84.1201C185.344 84.3867 185.244 84.6738 185.244 84.9814H183.348C183.348 84.585 183.45 84.1919 183.655 83.8022C183.86 83.4126 184.154 83.0605 184.537 82.7461C184.927 82.4248 185.391 82.1719 185.931 81.9873C186.478 81.7959 187.087 81.7002 187.757 81.7002C188.563 81.7002 189.274 81.8369 189.889 82.1104C190.512 82.3838 190.997 82.7974 191.346 83.3511C191.701 83.8979 191.879 84.585 191.879 85.4121V90.5801C191.879 90.9492 191.91 91.3423 191.971 91.7593C192.039 92.1763 192.139 92.5352 192.268 92.8359V93H190.289C190.194 92.7812 190.118 92.4907 190.064 92.1284C190.009 91.7593 189.982 91.4175 189.982 91.103ZM190.31 86.2734L190.33 87.6064H188.413C187.873 87.6064 187.391 87.6509 186.967 87.7397C186.543 87.8218 186.188 87.9482 185.901 88.1191C185.614 88.29 185.395 88.5054 185.244 88.7651C185.094 89.0181 185.019 89.3154 185.019 89.6572C185.019 90.0059 185.098 90.3237 185.255 90.6108C185.412 90.8979 185.648 91.127 185.962 91.2979C186.284 91.4619 186.677 91.5439 187.141 91.5439C187.723 91.5439 188.235 91.4209 188.68 91.1748C189.124 90.9287 189.476 90.6279 189.736 90.2725C190.002 89.917 190.146 89.5718 190.166 89.2368L190.976 90.1494C190.929 90.4365 190.799 90.7544 190.587 91.103C190.375 91.4517 190.091 91.7866 189.736 92.1079C189.387 92.4224 188.97 92.6855 188.485 92.8975C188.006 93.1025 187.466 93.2051 186.865 93.2051C186.113 93.2051 185.453 93.0581 184.886 92.7642C184.325 92.4702 183.888 92.0771 183.573 91.585C183.265 91.0859 183.112 90.5288 183.112 89.9136C183.112 89.3188 183.228 88.7959 183.46 88.3447C183.693 87.8867 184.028 87.5073 184.465 87.2065C184.903 86.8989 185.429 86.6665 186.044 86.5093C186.66 86.3521 187.347 86.2734 188.105 86.2734H190.31ZM197.39 84.2739V93H195.493V81.9053H197.287L197.39 84.2739ZM196.938 87.0322L196.149 87.0015C196.156 86.2427 196.269 85.542 196.487 84.8994C196.706 84.25 197.014 83.686 197.41 83.2075C197.807 82.729 198.278 82.3599 198.825 82.1001C199.379 81.8335 199.991 81.7002 200.661 81.7002C201.207 81.7002 201.7 81.7754 202.137 81.9258C202.575 82.0693 202.947 82.3018 203.255 82.623C203.569 82.9443 203.809 83.3613 203.973 83.874C204.137 84.3799 204.219 84.9985 204.219 85.73V93H202.311V85.7095C202.311 85.1284 202.226 84.6636 202.055 84.3149C201.884 83.9595 201.635 83.7031 201.307 83.5459C200.978 83.3818 200.575 83.2998 200.097 83.2998C199.625 83.2998 199.194 83.3989 198.805 83.5972C198.422 83.7954 198.09 84.0688 197.81 84.4175C197.537 84.7661 197.321 85.166 197.164 85.6172C197.014 86.0615 196.938 86.5332 196.938 87.0322ZM214.723 90.8467V77.25H216.63V93H214.887L214.723 90.8467ZM207.258 87.5757V87.3604C207.258 86.5127 207.361 85.7437 207.566 85.0532C207.778 84.356 208.075 83.7578 208.458 83.2588C208.848 82.7598 209.309 82.377 209.842 82.1104C210.382 81.8369 210.984 81.7002 211.647 81.7002C212.344 81.7002 212.953 81.8232 213.472 82.0693C213.999 82.3086 214.443 82.6606 214.805 83.1255C215.174 83.5835 215.465 84.1372 215.677 84.7866C215.889 85.436 216.036 86.1709 216.118 86.9912V87.9346C216.043 88.748 215.896 89.4795 215.677 90.1289C215.465 90.7783 215.174 91.332 214.805 91.79C214.443 92.248 213.999 92.6001 213.472 92.8462C212.946 93.0854 212.331 93.2051 211.627 93.2051C210.977 93.2051 210.382 93.0649 209.842 92.7847C209.309 92.5044 208.848 92.1113 208.458 91.6055C208.075 91.0996 207.778 90.5049 207.566 89.8213C207.361 89.1309 207.258 88.3823 207.258 87.5757ZM209.166 87.3604V87.5757C209.166 88.1294 209.22 88.6489 209.33 89.1343C209.446 89.6196 209.624 90.0469 209.863 90.416C210.102 90.7852 210.406 91.0757 210.775 91.2876C211.145 91.4927 211.586 91.5952 212.098 91.5952C212.727 91.5952 213.243 91.4619 213.647 91.1953C214.057 90.9287 214.385 90.5767 214.631 90.1392C214.877 89.7017 215.068 89.2266 215.205 88.7139V86.2427C215.123 85.8667 215.003 85.5044 214.846 85.1558C214.696 84.8003 214.498 84.4858 214.252 84.2124C214.012 83.9321 213.715 83.71 213.359 83.5459C213.011 83.3818 212.597 83.2998 212.119 83.2998C211.599 83.2998 211.151 83.4092 210.775 83.6279C210.406 83.8398 210.102 84.1338 209.863 84.5098C209.624 84.8789 209.446 85.3096 209.33 85.8018C209.22 86.2871 209.166 86.8066 209.166 87.3604ZM37.7593 102.393L32.8169 116H30.7969L36.4878 101.07H37.79L37.7593 102.393ZM41.9018 116L36.9492 102.393L36.9184 101.07H38.2207L43.9321 116H41.9018ZM41.6455 110.473V112.093H33.2578V110.473H41.6455ZM53.4625 104.905H55.1852V115.764C55.1852 116.742 54.9869 117.576 54.5904 118.266C54.1939 118.957 53.6402 119.479 52.9293 119.835C52.2252 120.197 51.4117 120.378 50.4889 120.378C50.1061 120.378 49.6549 120.317 49.1353 120.194C48.6227 120.078 48.1168 119.876 47.6178 119.589C47.1256 119.309 46.712 118.929 46.377 118.451L47.3717 117.323C47.8365 117.883 48.3219 118.273 48.8277 118.492C49.3404 118.71 49.8463 118.82 50.3453 118.82C50.9469 118.82 51.4664 118.707 51.9039 118.481C52.3414 118.256 52.6798 117.921 52.919 117.477C53.1651 117.039 53.2882 116.499 53.2882 115.856V107.346L53.4625 104.905ZM45.8233 110.576V110.36C45.8233 109.513 45.9225 108.744 46.1207 108.053C46.3258 107.356 46.6163 106.758 46.9923 106.259C47.3751 105.76 47.8365 105.377 48.3766 105.11C48.9166 104.837 49.525 104.7 50.2018 104.7C50.899 104.7 51.5074 104.823 52.027 105.069C52.5533 105.309 52.9977 105.661 53.36 106.125C53.7291 106.583 54.0196 107.137 54.2315 107.787C54.4435 108.436 54.5904 109.171 54.6725 109.991V110.935C54.5973 111.748 54.4503 112.479 54.2315 113.129C54.0196 113.778 53.7291 114.332 53.36 114.79C52.9977 115.248 52.5533 115.6 52.027 115.846C51.5006 116.085 50.8853 116.205 50.1812 116.205C49.5182 116.205 48.9166 116.065 48.3766 115.785C47.8434 115.504 47.3853 115.111 47.0025 114.605C46.6197 114.1 46.3258 113.505 46.1207 112.821C45.9225 112.131 45.8233 111.382 45.8233 110.576ZM47.7203 110.36V110.576C47.7203 111.129 47.775 111.649 47.8844 112.134C48.0006 112.62 48.1749 113.047 48.4073 113.416C48.6466 113.785 48.9508 114.076 49.3199 114.288C49.6891 114.493 50.13 114.595 50.6427 114.595C51.2716 114.595 51.7911 114.462 52.2013 114.195C52.6114 113.929 52.9361 113.577 53.1754 113.139C53.4215 112.702 53.6129 112.227 53.7496 111.714V109.243C53.6744 108.867 53.5582 108.504 53.401 108.156C53.2506 107.8 53.0523 107.486 52.8062 107.212C52.567 106.932 52.2696 106.71 51.9142 106.546C51.5587 106.382 51.1417 106.3 50.6632 106.3C50.1437 106.3 49.6959 106.409 49.3199 106.628C48.9508 106.84 48.6466 107.134 48.4073 107.51C48.1749 107.879 48.0006 108.31 47.8844 108.802C47.775 109.287 47.7203 109.807 47.7203 110.36ZM63.3005 116.205C62.528 116.205 61.8274 116.075 61.1985 115.815C60.5764 115.549 60.0398 115.176 59.5886 114.698C59.1443 114.219 58.8025 113.652 58.5632 112.996C58.3239 112.339 58.2043 111.622 58.2043 110.842V110.412C58.2043 109.509 58.3376 108.706 58.6042 108.002C58.8708 107.291 59.2331 106.689 59.6911 106.197C60.1491 105.705 60.6687 105.333 61.2497 105.08C61.8308 104.827 62.4323 104.7 63.0544 104.7C63.8474 104.7 64.531 104.837 65.1052 105.11C65.6862 105.384 66.1613 105.767 66.5305 106.259C66.8996 106.744 67.1731 107.318 67.3508 107.981C67.5285 108.638 67.6174 109.355 67.6174 110.135V110.986H59.3322V109.438H65.7204V109.294C65.6931 108.802 65.5905 108.323 65.4128 107.858C65.2419 107.394 64.9685 107.011 64.5925 106.71C64.2165 106.409 63.7038 106.259 63.0544 106.259C62.6237 106.259 62.2273 106.351 61.865 106.536C61.5027 106.713 61.1916 106.98 60.9319 107.335C60.6721 107.691 60.4704 108.125 60.3269 108.638C60.1833 109.15 60.1115 109.742 60.1115 110.412V110.842C60.1115 111.369 60.1833 111.864 60.3269 112.329C60.4773 112.787 60.6926 113.19 60.9729 113.539C61.26 113.888 61.6052 114.161 62.0085 114.359C62.4187 114.558 62.8835 114.657 63.403 114.657C64.073 114.657 64.6404 114.52 65.1052 114.247C65.57 113.973 65.9768 113.607 66.3254 113.149L67.4738 114.062C67.2346 114.424 66.9304 114.77 66.5612 115.098C66.1921 115.426 65.7375 115.692 65.1975 115.897C64.6643 116.103 64.032 116.205 63.3005 116.205ZM72.3592 107.274V116H70.4622V104.905H72.2567L72.3592 107.274ZM71.908 110.032L71.1185 110.001C71.1253 109.243 71.2381 108.542 71.4569 107.899C71.6756 107.25 71.9832 106.686 72.3797 106.208C72.7762 105.729 73.2479 105.36 73.7948 105.1C74.3485 104.833 74.9603 104.7 75.6302 104.7C76.1771 104.7 76.6693 104.775 77.1068 104.926C77.5443 105.069 77.9168 105.302 78.2244 105.623C78.5389 105.944 78.7782 106.361 78.9422 106.874C79.1063 107.38 79.1883 107.999 79.1883 108.73V116H77.2811V108.709C77.2811 108.128 77.1956 107.664 77.0247 107.315C76.8538 106.959 76.6043 106.703 76.2762 106.546C75.9481 106.382 75.5448 106.3 75.0662 106.3C74.5946 106.3 74.1639 106.399 73.7743 106.597C73.3914 106.795 73.0599 107.069 72.7796 107.417C72.5062 107.766 72.2909 108.166 72.1336 108.617C71.9832 109.062 71.908 109.533 71.908 110.032ZM87.3447 104.905V106.361H81.3461V104.905H87.3447ZM83.3764 102.208H85.2734V113.252C85.2734 113.628 85.3315 113.912 85.4477 114.103C85.5639 114.294 85.7143 114.421 85.8989 114.482C86.0835 114.544 86.2817 114.575 86.4936 114.575C86.6508 114.575 86.8149 114.561 86.9858 114.534C87.1635 114.5 87.2968 114.472 87.3857 114.452L87.396 116C87.2456 116.048 87.0473 116.092 86.8012 116.133C86.562 116.181 86.2714 116.205 85.9296 116.205C85.4648 116.205 85.0376 116.113 84.6479 115.928C84.2583 115.744 83.9472 115.436 83.7148 115.005C83.4892 114.568 83.3764 113.98 83.3764 113.242V102.208ZM96.6597 113.057C96.6597 112.784 96.5982 112.531 96.4752 112.298C96.359 112.059 96.1163 111.844 95.7471 111.652C95.3848 111.454 94.838 111.283 94.1065 111.14C93.4913 111.01 92.9342 110.856 92.4351 110.678C91.9429 110.5 91.5225 110.285 91.1739 110.032C90.8321 109.779 90.5689 109.482 90.3844 109.14C90.1998 108.798 90.1075 108.398 90.1075 107.94C90.1075 107.503 90.2032 107.089 90.3946 106.7C90.5928 106.31 90.8697 105.965 91.2252 105.664C91.5875 105.363 92.0216 105.127 92.5274 104.957C93.0333 104.786 93.5972 104.7 94.2193 104.7C95.108 104.7 95.8668 104.857 96.4957 105.172C97.1246 105.486 97.6065 105.907 97.9415 106.433C98.2764 106.953 98.4439 107.53 98.4439 108.166H96.547C96.547 107.858 96.4547 107.561 96.2701 107.274C96.0924 106.98 95.8292 106.737 95.4805 106.546C95.1387 106.354 94.7183 106.259 94.2193 106.259C93.6929 106.259 93.2657 106.341 92.9376 106.505C92.6163 106.662 92.3804 106.864 92.2301 107.11C92.0865 107.356 92.0147 107.616 92.0147 107.889C92.0147 108.094 92.0489 108.279 92.1173 108.443C92.1925 108.6 92.3223 108.747 92.5069 108.884C92.6915 109.014 92.9512 109.137 93.2862 109.253C93.6212 109.369 94.0484 109.485 94.5679 109.602C95.4771 109.807 96.2257 110.053 96.8136 110.34C97.4014 110.627 97.8389 110.979 98.1261 111.396C98.4132 111.813 98.5567 112.319 98.5567 112.914C98.5567 113.399 98.4542 113.843 98.2491 114.247C98.0509 114.65 97.7603 114.999 97.3775 115.292C97.0015 115.58 96.5504 115.805 96.024 115.969C95.5045 116.126 94.92 116.205 94.2706 116.205C93.293 116.205 92.4659 116.031 91.7891 115.682C91.1124 115.333 90.5997 114.882 90.2511 114.329C89.9024 113.775 89.7281 113.19 89.7281 112.575H91.6353C91.6627 113.095 91.8131 113.508 92.0865 113.816C92.3599 114.117 92.6949 114.332 93.0914 114.462C93.4879 114.585 93.8809 114.646 94.2706 114.646C94.7901 114.646 95.2242 114.578 95.5728 114.441C95.9283 114.305 96.1983 114.117 96.3829 113.877C96.5675 113.638 96.6597 113.365 96.6597 113.057ZM112.162 104.905V106.361H106.164V104.905H112.162ZM108.194 102.208H110.091V113.252C110.091 113.628 110.149 113.912 110.265 114.103C110.382 114.294 110.532 114.421 110.717 114.482C110.901 114.544 111.099 114.575 111.311 114.575C111.469 114.575 111.633 114.561 111.804 114.534C111.981 114.5 112.115 114.472 112.203 114.452L112.214 116C112.063 116.048 111.865 116.092 111.619 116.133C111.38 116.181 111.089 116.205 110.747 116.205C110.283 116.205 109.855 116.113 109.466 115.928C109.076 115.744 108.765 115.436 108.533 115.005C108.307 114.568 108.194 113.98 108.194 113.242V102.208ZM114.31 110.576V110.34C114.31 109.54 114.426 108.798 114.659 108.115C114.891 107.424 115.226 106.826 115.664 106.32C116.101 105.808 116.631 105.411 117.253 105.131C117.875 104.844 118.572 104.7 119.345 104.7C120.124 104.7 120.825 104.844 121.447 105.131C122.076 105.411 122.609 105.808 123.046 106.32C123.491 106.826 123.829 107.424 124.061 108.115C124.294 108.798 124.41 109.54 124.41 110.34V110.576C124.41 111.375 124.294 112.117 124.061 112.801C123.829 113.484 123.491 114.083 123.046 114.595C122.609 115.101 122.079 115.498 121.457 115.785C120.842 116.065 120.144 116.205 119.365 116.205C118.586 116.205 117.885 116.065 117.263 115.785C116.641 115.498 116.108 115.101 115.664 114.595C115.226 114.083 114.891 113.484 114.659 112.801C114.426 112.117 114.31 111.375 114.31 110.576ZM116.207 110.34V110.576C116.207 111.129 116.272 111.652 116.402 112.145C116.532 112.63 116.727 113.061 116.986 113.437C117.253 113.812 117.584 114.11 117.981 114.329C118.377 114.541 118.839 114.646 119.365 114.646C119.885 114.646 120.339 114.541 120.729 114.329C121.125 114.11 121.454 113.812 121.713 113.437C121.973 113.061 122.168 112.63 122.298 112.145C122.435 111.652 122.503 111.129 122.503 110.576V110.34C122.503 109.793 122.435 109.277 122.298 108.792C122.168 108.299 121.97 107.865 121.703 107.489C121.443 107.106 121.115 106.806 120.719 106.587C120.329 106.368 119.871 106.259 119.345 106.259C118.825 106.259 118.367 106.368 117.971 106.587C117.581 106.806 117.253 107.106 116.986 107.489C116.727 107.865 116.532 108.299 116.402 108.792C116.272 109.277 116.207 109.793 116.207 110.34ZM137.862 116.205C137.09 116.205 136.389 116.075 135.76 115.815C135.138 115.549 134.601 115.176 134.15 114.698C133.706 114.219 133.364 113.652 133.125 112.996C132.885 112.339 132.766 111.622 132.766 110.842V110.412C132.766 109.509 132.899 108.706 133.166 108.002C133.432 107.291 133.795 106.689 134.253 106.197C134.711 105.705 135.23 105.333 135.811 105.08C136.392 104.827 136.994 104.7 137.616 104.7C138.409 104.7 139.092 104.837 139.667 105.11C140.248 105.384 140.723 105.767 141.092 106.259C141.461 106.744 141.735 107.318 141.912 107.981C142.09 108.638 142.179 109.355 142.179 110.135V110.986H133.894V109.438H140.282V109.294C140.255 108.802 140.152 108.323 139.974 107.858C139.803 107.394 139.53 107.011 139.154 106.71C138.778 106.409 138.265 106.259 137.616 106.259C137.185 106.259 136.789 106.351 136.426 106.536C136.064 106.713 135.753 106.98 135.493 107.335C135.234 107.691 135.032 108.125 134.888 108.638C134.745 109.15 134.673 109.742 134.673 110.412V110.842C134.673 111.369 134.745 111.864 134.888 112.329C135.039 112.787 135.254 113.19 135.534 113.539C135.821 113.888 136.167 114.161 136.57 114.359C136.98 114.558 137.445 114.657 137.965 114.657C138.634 114.657 139.202 114.52 139.667 114.247C140.132 113.973 140.538 113.607 140.887 113.149L142.035 114.062C141.796 114.424 141.492 114.77 141.123 115.098C140.754 115.426 140.299 115.692 139.759 115.897C139.226 116.103 138.593 116.205 137.862 116.205ZM146.305 104.905L148.736 108.945L151.197 104.905H153.422L149.792 110.381L153.534 116H151.34L148.777 111.837L146.213 116H144.009L147.741 110.381L144.121 104.905H146.305ZM160.471 116.205C159.698 116.205 158.997 116.075 158.369 115.815C157.746 115.549 157.21 115.176 156.759 114.698C156.314 114.219 155.973 113.652 155.733 112.996C155.494 112.339 155.374 111.622 155.374 110.842V110.412C155.374 109.509 155.508 108.706 155.774 108.002C156.041 107.291 156.403 106.689 156.861 106.197C157.319 105.705 157.839 105.333 158.42 105.08C159.001 104.827 159.602 104.7 160.225 104.7C161.017 104.7 161.701 104.837 162.275 105.11C162.856 105.384 163.331 105.767 163.701 106.259C164.07 106.744 164.343 107.318 164.521 107.981C164.699 108.638 164.788 109.355 164.788 110.135V110.986H156.502V109.438H162.891V109.294C162.863 108.802 162.761 108.323 162.583 107.858C162.412 107.394 162.139 107.011 161.763 106.71C161.387 106.409 160.874 106.259 160.225 106.259C159.794 106.259 159.397 106.351 159.035 106.536C158.673 106.713 158.362 106.98 158.102 107.335C157.842 107.691 157.641 108.125 157.497 108.638C157.353 109.15 157.282 109.742 157.282 110.412V110.842C157.282 111.369 157.353 111.864 157.497 112.329C157.647 112.787 157.863 113.19 158.143 113.539C158.43 113.888 158.775 114.161 159.179 114.359C159.589 114.558 160.054 114.657 160.573 114.657C161.243 114.657 161.81 114.52 162.275 114.247C162.74 113.973 163.147 113.607 163.496 113.149L164.644 114.062C164.405 114.424 164.1 114.77 163.731 115.098C163.362 115.426 162.908 115.692 162.368 115.897C161.834 116.103 161.202 116.205 160.471 116.205ZM172.072 114.646C172.523 114.646 172.94 114.554 173.323 114.37C173.706 114.185 174.021 113.932 174.267 113.611C174.513 113.283 174.653 112.91 174.687 112.493H176.492C176.458 113.149 176.235 113.761 175.825 114.329C175.422 114.889 174.892 115.344 174.236 115.692C173.58 116.034 172.858 116.205 172.072 116.205C171.238 116.205 170.51 116.058 169.888 115.764C169.273 115.47 168.76 115.067 168.35 114.554C167.947 114.042 167.643 113.454 167.438 112.791C167.239 112.121 167.14 111.413 167.14 110.668V110.237C167.14 109.492 167.239 108.788 167.438 108.125C167.643 107.455 167.947 106.864 168.35 106.351C168.76 105.838 169.273 105.435 169.888 105.141C170.51 104.847 171.238 104.7 172.072 104.7C172.94 104.7 173.699 104.878 174.349 105.233C174.998 105.582 175.507 106.061 175.876 106.669C176.252 107.271 176.458 107.954 176.492 108.72H174.687C174.653 108.262 174.523 107.848 174.297 107.479C174.079 107.11 173.778 106.816 173.395 106.597C173.019 106.372 172.578 106.259 172.072 106.259C171.491 106.259 171.002 106.375 170.606 106.607C170.216 106.833 169.905 107.141 169.673 107.53C169.447 107.913 169.283 108.34 169.181 108.812C169.085 109.277 169.037 109.752 169.037 110.237V110.668C169.037 111.153 169.085 111.632 169.181 112.104C169.276 112.575 169.437 113.002 169.663 113.385C169.895 113.768 170.206 114.076 170.596 114.308C170.992 114.534 171.484 114.646 172.072 114.646ZM186.043 113.437V104.905H187.95V116H186.135L186.043 113.437ZM186.402 111.099L187.191 111.078C187.191 111.816 187.112 112.5 186.955 113.129C186.805 113.751 186.559 114.291 186.217 114.749C185.875 115.207 185.427 115.566 184.874 115.826C184.32 116.079 183.647 116.205 182.854 116.205C182.314 116.205 181.818 116.126 181.367 115.969C180.923 115.812 180.54 115.569 180.218 115.241C179.897 114.913 179.648 114.486 179.47 113.959C179.299 113.433 179.214 112.801 179.214 112.062V104.905H181.111V112.083C181.111 112.582 181.165 112.996 181.275 113.324C181.391 113.645 181.545 113.901 181.736 114.093C181.934 114.277 182.153 114.407 182.392 114.482C182.638 114.558 182.891 114.595 183.151 114.595C183.958 114.595 184.597 114.441 185.069 114.134C185.54 113.819 185.879 113.399 186.084 112.873C186.296 112.339 186.402 111.748 186.402 111.099ZM196.116 104.905V106.361H190.118V104.905H196.116ZM192.148 102.208H194.045V113.252C194.045 113.628 194.103 113.912 194.22 114.103C194.336 114.294 194.486 114.421 194.671 114.482C194.855 114.544 195.053 114.575 195.265 114.575C195.423 114.575 195.587 114.561 195.758 114.534C195.935 114.5 196.069 114.472 196.158 114.452L196.168 116C196.017 116.048 195.819 116.092 195.573 116.133C195.334 116.181 195.043 116.205 194.701 116.205C194.237 116.205 193.809 116.113 193.42 115.928C193.03 115.744 192.719 115.436 192.487 115.005C192.261 114.568 192.148 113.98 192.148 113.242V102.208ZM203.576 116.205C202.803 116.205 202.102 116.075 201.474 115.815C200.851 115.549 200.315 115.176 199.864 114.698C199.419 114.219 199.078 113.652 198.838 112.996C198.599 112.339 198.479 111.622 198.479 110.842V110.412C198.479 109.509 198.613 108.706 198.879 108.002C199.146 107.291 199.508 106.689 199.966 106.197C200.424 105.705 200.944 105.333 201.525 105.08C202.106 104.827 202.707 104.7 203.329 104.7C204.122 104.7 204.806 104.837 205.38 105.11C205.961 105.384 206.436 105.767 206.806 106.259C207.175 106.744 207.448 107.318 207.626 107.981C207.804 108.638 207.892 109.355 207.892 110.135V110.986H199.607V109.438H205.996V109.294C205.968 108.802 205.866 108.323 205.688 107.858C205.517 107.394 205.244 107.011 204.868 106.71C204.492 106.409 203.979 106.259 203.329 106.259C202.899 106.259 202.502 106.351 202.14 106.536C201.778 106.713 201.467 106.98 201.207 107.335C200.947 107.691 200.746 108.125 200.602 108.638C200.458 109.15 200.387 109.742 200.387 110.412V110.842C200.387 111.369 200.458 111.864 200.602 112.329C200.752 112.787 200.968 113.19 201.248 113.539C201.535 113.888 201.88 114.161 202.284 114.359C202.694 114.558 203.159 114.657 203.678 114.657C204.348 114.657 204.915 114.52 205.38 114.247C205.845 113.973 206.252 113.607 206.6 113.149L207.749 114.062C207.51 114.424 207.205 114.77 206.836 115.098C206.467 115.426 206.013 115.692 205.473 115.897C204.939 116.103 204.307 116.205 203.576 116.205ZM84.0167 137.103V131.392C84.0167 130.954 83.9278 130.575 83.7501 130.253C83.5792 129.925 83.3194 129.672 82.9708 129.495C82.6221 129.317 82.1915 129.228 81.6788 129.228C81.2003 129.228 80.7799 129.31 80.4176 129.474C80.0621 129.638 79.7818 129.854 79.5767 130.12C79.3785 130.387 79.2794 130.674 79.2794 130.981H77.3824C77.3824 130.585 77.4849 130.192 77.69 129.802C77.8951 129.413 78.189 129.061 78.5719 128.746C78.9615 128.425 79.4263 128.172 79.9664 127.987C80.5133 127.796 81.1217 127.7 81.7916 127.7C82.5982 127.7 83.3092 127.837 83.9244 128.11C84.5465 128.384 85.0318 128.797 85.3804 129.351C85.7359 129.898 85.9137 130.585 85.9137 131.412V136.58C85.9137 136.949 85.9444 137.342 86.0059 137.759C86.0743 138.176 86.1734 138.535 86.3033 138.836V139H84.3243C84.2286 138.781 84.1534 138.491 84.0987 138.128C84.044 137.759 84.0167 137.417 84.0167 137.103ZM84.3448 132.273L84.3653 133.606H82.4478C81.9078 133.606 81.4259 133.651 81.002 133.74C80.5782 133.822 80.2227 133.948 79.9356 134.119C79.6485 134.29 79.4298 134.505 79.2794 134.765C79.129 135.018 79.0538 135.315 79.0538 135.657C79.0538 136.006 79.1324 136.324 79.2896 136.611C79.4469 136.898 79.6827 137.127 79.9971 137.298C80.3184 137.462 80.7115 137.544 81.1763 137.544C81.7574 137.544 82.2701 137.421 82.7144 137.175C83.1588 136.929 83.5108 136.628 83.7706 136.272C84.0372 135.917 84.1807 135.572 84.2012 135.237L85.0113 136.149C84.9635 136.437 84.8336 136.754 84.6217 137.103C84.4097 137.452 84.1261 137.787 83.7706 138.108C83.422 138.422 83.005 138.686 82.5196 138.897C82.0411 139.103 81.5011 139.205 80.8995 139.205C80.1475 139.205 79.4879 139.058 78.9205 138.764C78.3599 138.47 77.9224 138.077 77.608 137.585C77.3004 137.086 77.1466 136.529 77.1466 135.914C77.1466 135.319 77.2628 134.796 77.4952 134.345C77.7276 133.887 78.0626 133.507 78.5001 133.207C78.9376 132.899 79.4639 132.667 80.0792 132.509C80.6944 132.352 81.3814 132.273 82.1402 132.273H84.3448ZM91.4245 130.274V139H89.5275V127.905H91.322L91.4245 130.274ZM90.9733 133.032L90.1838 133.001C90.1906 132.243 90.3034 131.542 90.5222 130.899C90.7409 130.25 91.0485 129.686 91.445 129.208C91.8415 128.729 92.3132 128.36 92.8601 128.1C93.4138 127.833 94.0256 127.7 94.6955 127.7C95.2424 127.7 95.7346 127.775 96.1721 127.926C96.6096 128.069 96.9821 128.302 97.2897 128.623C97.6042 128.944 97.8435 129.361 98.0075 129.874C98.1716 130.38 98.2536 130.999 98.2536 131.73V139H96.3464V131.709C96.3464 131.128 96.2609 130.664 96.09 130.315C95.9191 129.959 95.6696 129.703 95.3415 129.546C95.0134 129.382 94.6101 129.3 94.1315 129.3C93.6599 129.3 93.2292 129.399 92.8395 129.597C92.4567 129.795 92.1252 130.069 91.8449 130.417C91.5715 130.766 91.3561 131.166 91.1989 131.617C91.0485 132.062 90.9733 132.533 90.9733 133.032ZM108.758 136.847V123.25H110.665V139H108.922L108.758 136.847ZM101.293 133.576V133.36C101.293 132.513 101.396 131.744 101.601 131.053C101.813 130.356 102.11 129.758 102.493 129.259C102.883 128.76 103.344 128.377 103.877 128.11C104.417 127.837 105.019 127.7 105.682 127.7C106.379 127.7 106.988 127.823 107.507 128.069C108.034 128.309 108.478 128.661 108.84 129.125C109.209 129.583 109.5 130.137 109.712 130.787C109.924 131.436 110.071 132.171 110.153 132.991V133.935C110.077 134.748 109.93 135.479 109.712 136.129C109.5 136.778 109.209 137.332 108.84 137.79C108.478 138.248 108.034 138.6 107.507 138.846C106.981 139.085 106.366 139.205 105.661 139.205C105.012 139.205 104.417 139.065 103.877 138.785C103.344 138.504 102.883 138.111 102.493 137.605C102.11 137.1 101.813 136.505 101.601 135.821C101.396 135.131 101.293 134.382 101.293 133.576ZM103.201 133.36V133.576C103.201 134.129 103.255 134.649 103.365 135.134C103.481 135.62 103.659 136.047 103.898 136.416C104.137 136.785 104.441 137.076 104.81 137.288C105.18 137.493 105.62 137.595 106.133 137.595C106.762 137.595 107.278 137.462 107.681 137.195C108.092 136.929 108.42 136.577 108.666 136.139C108.912 135.702 109.103 135.227 109.24 134.714V132.243C109.158 131.867 109.038 131.504 108.881 131.156C108.731 130.8 108.533 130.486 108.286 130.212C108.047 129.932 107.75 129.71 107.394 129.546C107.046 129.382 106.632 129.3 106.154 129.3C105.634 129.3 105.186 129.409 104.81 129.628C104.441 129.84 104.137 130.134 103.898 130.51C103.659 130.879 103.481 131.31 103.365 131.802C103.255 132.287 103.201 132.807 103.201 133.36ZM121.974 130.11V139H120.067V127.905H121.872L121.974 130.11ZM121.585 133.032L120.703 133.001C120.71 132.243 120.809 131.542 121 130.899C121.191 130.25 121.475 129.686 121.851 129.208C122.227 128.729 122.695 128.36 123.256 128.1C123.816 127.833 124.466 127.7 125.204 127.7C125.724 127.7 126.202 127.775 126.64 127.926C127.077 128.069 127.457 128.298 127.778 128.613C128.099 128.927 128.349 129.331 128.526 129.823C128.704 130.315 128.793 130.91 128.793 131.607V139H126.896V131.699C126.896 131.118 126.797 130.653 126.599 130.305C126.407 129.956 126.134 129.703 125.778 129.546C125.423 129.382 125.006 129.3 124.527 129.3C123.967 129.3 123.499 129.399 123.123 129.597C122.747 129.795 122.446 130.069 122.22 130.417C121.995 130.766 121.831 131.166 121.728 131.617C121.632 132.062 121.585 132.533 121.585 133.032ZM128.773 131.986L127.501 132.376C127.508 131.768 127.607 131.183 127.798 130.623C127.997 130.062 128.28 129.563 128.649 129.125C129.025 128.688 129.487 128.343 130.034 128.09C130.581 127.83 131.206 127.7 131.91 127.7C132.505 127.7 133.031 127.779 133.489 127.936C133.954 128.093 134.344 128.336 134.658 128.664C134.98 128.985 135.222 129.399 135.386 129.905C135.55 130.411 135.632 131.012 135.632 131.709V139H133.725V131.689C133.725 131.067 133.626 130.585 133.428 130.243C133.236 129.895 132.963 129.652 132.607 129.515C132.259 129.372 131.842 129.3 131.357 129.3C130.94 129.3 130.57 129.372 130.249 129.515C129.928 129.659 129.658 129.857 129.439 130.11C129.22 130.356 129.053 130.64 128.937 130.961C128.827 131.282 128.773 131.624 128.773 131.986ZM138.631 133.576V133.34C138.631 132.54 138.747 131.798 138.98 131.115C139.212 130.424 139.547 129.826 139.985 129.32C140.422 128.808 140.952 128.411 141.574 128.131C142.196 127.844 142.893 127.7 143.666 127.7C144.445 127.7 145.146 127.844 145.768 128.131C146.397 128.411 146.93 128.808 147.367 129.32C147.812 129.826 148.15 130.424 148.383 131.115C148.615 131.798 148.731 132.54 148.731 133.34V133.576C148.731 134.375 148.615 135.117 148.383 135.801C148.15 136.484 147.812 137.083 147.367 137.595C146.93 138.101 146.4 138.498 145.778 138.785C145.163 139.065 144.466 139.205 143.686 139.205C142.907 139.205 142.206 139.065 141.584 138.785C140.962 138.498 140.429 138.101 139.985 137.595C139.547 137.083 139.212 136.484 138.98 135.801C138.747 135.117 138.631 134.375 138.631 133.576ZM140.528 133.34V133.576C140.528 134.129 140.593 134.652 140.723 135.145C140.853 135.63 141.048 136.061 141.307 136.437C141.574 136.812 141.905 137.11 142.302 137.329C142.698 137.541 143.16 137.646 143.686 137.646C144.206 137.646 144.66 137.541 145.05 137.329C145.446 137.11 145.775 136.812 146.034 136.437C146.294 136.061 146.489 135.63 146.619 135.145C146.756 134.652 146.824 134.129 146.824 133.576V133.34C146.824 132.793 146.756 132.277 146.619 131.792C146.489 131.299 146.291 130.865 146.024 130.489C145.764 130.106 145.436 129.806 145.04 129.587C144.65 129.368 144.192 129.259 143.666 129.259C143.146 129.259 142.688 129.368 142.292 129.587C141.902 129.806 141.574 130.106 141.307 130.489C141.048 130.865 140.853 131.299 140.723 131.792C140.593 132.277 140.528 132.793 140.528 133.34ZM153.637 129.648V139H151.74V127.905H153.586L153.637 129.648ZM157.103 127.844L157.093 129.607C156.935 129.573 156.785 129.553 156.641 129.546C156.505 129.532 156.347 129.525 156.17 129.525C155.732 129.525 155.346 129.594 155.011 129.73C154.676 129.867 154.392 130.059 154.16 130.305C153.928 130.551 153.743 130.845 153.606 131.187C153.476 131.521 153.391 131.891 153.35 132.294L152.817 132.602C152.817 131.932 152.882 131.303 153.012 130.715C153.148 130.127 153.357 129.607 153.637 129.156C153.917 128.698 154.273 128.343 154.703 128.09C155.141 127.83 155.66 127.7 156.262 127.7C156.399 127.7 156.556 127.717 156.734 127.751C156.911 127.779 157.034 127.81 157.103 127.844ZM163.885 139.205C163.113 139.205 162.412 139.075 161.783 138.815C161.161 138.549 160.624 138.176 160.173 137.698C159.729 137.219 159.387 136.652 159.148 135.996C158.909 135.339 158.789 134.622 158.789 133.842V133.412C158.789 132.509 158.922 131.706 159.189 131.002C159.455 130.291 159.818 129.689 160.276 129.197C160.734 128.705 161.253 128.333 161.834 128.08C162.415 127.827 163.017 127.7 163.639 127.7C164.432 127.7 165.116 127.837 165.69 128.11C166.271 128.384 166.746 128.767 167.115 129.259C167.484 129.744 167.758 130.318 167.935 130.981C168.113 131.638 168.202 132.355 168.202 133.135V133.986H159.917V132.438H166.305V132.294C166.278 131.802 166.175 131.323 165.997 130.858C165.827 130.394 165.553 130.011 165.177 129.71C164.801 129.409 164.288 129.259 163.639 129.259C163.208 129.259 162.812 129.351 162.45 129.536C162.087 129.713 161.776 129.98 161.517 130.335C161.257 130.691 161.055 131.125 160.912 131.638C160.768 132.15 160.696 132.742 160.696 133.412V133.842C160.696 134.369 160.768 134.864 160.912 135.329C161.062 135.787 161.277 136.19 161.558 136.539C161.845 136.888 162.19 137.161 162.593 137.359C163.003 137.558 163.468 137.657 163.988 137.657C164.658 137.657 165.225 137.52 165.69 137.247C166.155 136.973 166.561 136.607 166.91 136.149L168.059 137.062C167.819 137.424 167.515 137.77 167.146 138.098C166.777 138.426 166.322 138.692 165.782 138.897C165.249 139.103 164.617 139.205 163.885 139.205Z" fill="#363636"/>
<g clip-path="url(#clip0_21_220)">
<path d="M67.3348 11.2597C68.1382 14.1349 67.869 17.3734 66.4785 20.2744L63.6905 25.3743C64.2251 25.8048 64.5568 26.4957 64.6705 27.2176C65.0103 29.3786 63.2777 32.5295 61.8656 34.1799C61.4825 34.6276 61.0784 35.1085 60.7968 34.3387L59.7189 29.32L59.4778 29.5329C59.0081 30.0156 58.5346 30.7927 58.0405 31.2173C57.8728 31.3614 57.7204 31.3915 57.5237 31.3775L53.0381 28.9364L52.8663 28.589C52.9898 27.7221 53.3715 26.8669 53.5778 26.0067C53.5261 25.9815 53.0342 26.1504 52.9328 26.1854C51.5913 26.6456 50.1235 27.3967 48.785 27.7523C48.5361 27.8183 48.4045 27.8678 48.2135 27.6575C48.0823 27.5131 48.2714 26.9434 48.3344 26.7403C49.1094 24.2401 51.2812 20.2318 54.0991 20.3681C54.221 20.3741 54.7201 20.4785 54.7707 20.4282L57.4757 15.4863C59.0938 12.7424 61.6858 10.7507 64.4982 9.8446C64.8423 9.73361 66.147 9.36353 66.4108 9.45366C66.5202 9.4909 66.6855 9.58789 66.763 9.67721C66.9379 9.87919 67.2437 10.9356 67.3343 11.2598L67.3348 11.2597ZM63.9033 17.914C64.415 16.9779 64.1623 15.8543 63.3387 15.4041C62.5152 14.9539 61.4329 15.3477 60.9212 16.2838C60.4095 17.2199 60.6623 18.3435 61.4858 18.7937C62.3094 19.2439 63.3916 18.8501 63.9033 17.914Z" fill="url(#paint0_linear_21_220)"/>
<path d="M52.0269 35.6858C52.048 35.7913 52.0844 35.8909 52.0894 36.0036C52.8709 35.7214 53.5371 35.4276 54.1194 34.7326C54.713 34.0239 54.6951 33.6281 55.0267 32.886C55.2801 32.3192 55.7043 32.3739 55.902 32.8679C56.1318 33.4423 56.1816 34.3539 56.0505 35.0001C55.4746 37.8377 52.7097 39.1412 50.4346 39.9963C50.3331 40.0343 49.7959 40.2462 49.7461 40.219C49.6817 40.0757 49.646 39.9029 49.6125 39.7467C49.3154 38.3641 48.9994 36.2059 49.3379 34.7639C49.7237 33.1219 50.9169 31.5353 52.5009 31.1357C52.7876 31.0634 53.1465 30.9658 53.2546 31.3435C53.3627 31.7212 52.9462 31.9534 52.7401 32.2276C51.8727 33.383 51.7711 34.406 52.0268 35.6853L52.0269 35.6858Z" fill="url(#paint1_linear_21_220)"/>
</g>
<defs>
<linearGradient id="paint0_linear_21_220" x1="58.6168" y1="7.78391" x2="72.4806" y2="15.6415" gradientUnits="userSpaceOnUse">
<stop stop-color="#3CE5A7"/>
<stop offset="1" stop-color="#114DFF"/>
</linearGradient>
<linearGradient id="paint1_linear_21_220" x1="51.2092" y1="31.0947" x2="56.7783" y2="34.2552" gradientUnits="userSpaceOnUse">
<stop stop-color="#3CE5A7"/>
<stop offset="1" stop-color="#114DFF"/>
</linearGradient>
<clipPath id="clip0_21_220">
<rect width="15.9891" height="35" fill="white" transform="translate(59.5317 5.67969) rotate(28.6638)"/>
</clipPath>
</defs>
</svg>
