<svg width="313" height="313" viewBox="0 0 313 313" fill="none" xmlns="http://www.w3.org/2000/svg">
<g filter="url(#filter0_d_8_85)">
<rect x="2" y="1" width="299" height="299" rx="149.5" fill="white"/>
<rect x="3.5" y="2.5" width="296" height="296" rx="148" stroke="url(#paint0_linear_8_85)" stroke-width="3"/>
</g>
<path d="M109.53 94.0703V109H106.454V94.0703H109.53ZM115.478 100.448V102.848H108.69V100.448H115.478ZM116.195 94.0703V96.48H108.69V94.0703H116.195ZM117.728 103.565V103.35C117.728 102.537 117.844 101.788 118.076 101.104C118.309 100.414 118.647 99.8159 119.092 99.3101C119.536 98.8042 120.083 98.4111 120.732 98.1309C121.382 97.8438 122.127 97.7002 122.967 97.7002C123.808 97.7002 124.557 97.8438 125.213 98.1309C125.869 98.4111 126.42 98.8042 126.864 99.3101C127.315 99.8159 127.657 100.414 127.889 101.104C128.122 101.788 128.238 102.537 128.238 103.35V103.565C128.238 104.372 128.122 105.121 127.889 105.811C127.657 106.495 127.315 107.093 126.864 107.605C126.42 108.111 125.873 108.504 125.223 108.785C124.574 109.065 123.829 109.205 122.988 109.205C122.147 109.205 121.399 109.065 120.742 108.785C120.093 108.504 119.543 108.111 119.092 107.605C118.647 107.093 118.309 106.495 118.076 105.811C117.844 105.121 117.728 104.372 117.728 103.565ZM120.681 103.35V103.565C120.681 104.03 120.722 104.464 120.804 104.868C120.886 105.271 121.016 105.626 121.194 105.934C121.378 106.235 121.617 106.471 121.911 106.642C122.205 106.812 122.564 106.898 122.988 106.898C123.398 106.898 123.75 106.812 124.044 106.642C124.338 106.471 124.574 106.235 124.752 105.934C124.929 105.626 125.059 105.271 125.141 104.868C125.23 104.464 125.275 104.03 125.275 103.565V103.35C125.275 102.899 125.23 102.475 125.141 102.079C125.059 101.675 124.926 101.32 124.741 101.012C124.564 100.698 124.328 100.452 124.034 100.274C123.74 100.096 123.384 100.007 122.967 100.007C122.55 100.007 122.195 100.096 121.901 100.274C121.614 100.452 121.378 100.698 121.194 101.012C121.016 101.32 120.886 101.675 120.804 102.079C120.722 102.475 120.681 102.899 120.681 103.35ZM137.245 106.344V97.9053H140.199V109H137.42L137.245 106.344ZM137.574 104.068L138.445 104.047C138.445 104.786 138.36 105.473 138.189 106.108C138.018 106.737 137.762 107.284 137.42 107.749C137.078 108.207 136.647 108.566 136.128 108.826C135.608 109.079 134.996 109.205 134.292 109.205C133.752 109.205 133.253 109.13 132.795 108.979C132.344 108.822 131.954 108.58 131.626 108.251C131.305 107.917 131.052 107.489 130.868 106.97C130.69 106.443 130.601 105.811 130.601 105.073V97.9053H133.554V105.093C133.554 105.421 133.592 105.698 133.667 105.924C133.749 106.149 133.862 106.334 134.005 106.478C134.149 106.621 134.316 106.724 134.508 106.785C134.706 106.847 134.925 106.877 135.164 106.877C135.772 106.877 136.251 106.754 136.599 106.508C136.955 106.262 137.204 105.927 137.348 105.503C137.498 105.073 137.574 104.594 137.574 104.068ZM145.976 100.274V109H143.023V97.9053H145.791L145.976 100.274ZM145.545 103.063H144.746C144.746 102.243 144.852 101.504 145.063 100.848C145.275 100.185 145.573 99.6211 145.956 99.1562C146.338 98.6846 146.793 98.3257 147.319 98.0796C147.852 97.8267 148.447 97.7002 149.103 97.7002C149.623 97.7002 150.098 97.7754 150.529 97.9258C150.959 98.0762 151.329 98.3154 151.636 98.6436C151.951 98.9717 152.19 99.4058 152.354 99.9458C152.525 100.486 152.61 101.146 152.61 101.925V109H149.637V101.915C149.637 101.422 149.568 101.04 149.432 100.766C149.295 100.493 149.093 100.301 148.827 100.192C148.567 100.076 148.246 100.018 147.863 100.018C147.466 100.018 147.121 100.096 146.827 100.253C146.54 100.411 146.301 100.629 146.109 100.91C145.925 101.183 145.785 101.504 145.689 101.874C145.593 102.243 145.545 102.639 145.545 103.063ZM162.038 106.58V93.25H165.012V109H162.336L162.038 106.58ZM155.024 103.586V103.371C155.024 102.523 155.12 101.754 155.312 101.063C155.503 100.366 155.783 99.7681 156.152 99.269C156.522 98.77 156.976 98.3838 157.516 98.1104C158.056 97.8369 158.671 97.7002 159.362 97.7002C160.011 97.7002 160.579 97.8369 161.064 98.1104C161.556 98.3838 161.973 98.7734 162.315 99.2793C162.664 99.7783 162.944 100.37 163.156 101.053C163.368 101.73 163.522 102.472 163.617 103.278V103.75C163.522 104.522 163.368 105.24 163.156 105.903C162.944 106.566 162.664 107.147 162.315 107.646C161.973 108.139 161.556 108.521 161.064 108.795C160.572 109.068 159.998 109.205 159.341 109.205C158.651 109.205 158.036 109.065 157.496 108.785C156.962 108.504 156.511 108.111 156.142 107.605C155.78 107.1 155.503 106.505 155.312 105.821C155.12 105.138 155.024 104.393 155.024 103.586ZM157.978 103.371V103.586C157.978 104.044 158.012 104.471 158.08 104.868C158.155 105.264 158.275 105.616 158.439 105.924C158.61 106.225 158.829 106.46 159.095 106.631C159.369 106.795 159.7 106.877 160.09 106.877C160.596 106.877 161.013 106.765 161.341 106.539C161.669 106.307 161.919 105.989 162.089 105.585C162.267 105.182 162.37 104.717 162.397 104.191V102.848C162.377 102.417 162.315 102.031 162.212 101.689C162.117 101.34 161.973 101.043 161.782 100.797C161.597 100.551 161.365 100.359 161.085 100.223C160.811 100.086 160.486 100.018 160.11 100.018C159.728 100.018 159.399 100.106 159.126 100.284C158.853 100.455 158.63 100.691 158.46 100.992C158.295 101.292 158.172 101.648 158.09 102.058C158.015 102.461 157.978 102.899 157.978 103.371ZM173.055 109.205C172.194 109.205 171.422 109.068 170.738 108.795C170.054 108.515 169.473 108.128 168.995 107.636C168.523 107.144 168.161 106.573 167.908 105.924C167.655 105.268 167.528 104.57 167.528 103.832V103.422C167.528 102.581 167.648 101.812 167.887 101.115C168.127 100.417 168.468 99.8125 168.913 99.2998C169.364 98.7871 169.911 98.394 170.553 98.1206C171.196 97.8403 171.921 97.7002 172.727 97.7002C173.513 97.7002 174.211 97.8301 174.819 98.0898C175.427 98.3496 175.937 98.7188 176.347 99.1973C176.764 99.6758 177.078 100.25 177.29 100.92C177.502 101.583 177.608 102.321 177.608 103.135V104.365H168.79V102.396H174.706V102.171C174.706 101.761 174.631 101.395 174.481 101.074C174.337 100.746 174.118 100.486 173.824 100.294C173.53 100.103 173.154 100.007 172.696 100.007C172.307 100.007 171.972 100.093 171.692 100.264C171.411 100.435 171.182 100.674 171.005 100.981C170.834 101.289 170.704 101.651 170.615 102.068C170.533 102.479 170.492 102.93 170.492 103.422V103.832C170.492 104.276 170.553 104.687 170.676 105.062C170.806 105.438 170.987 105.763 171.22 106.037C171.459 106.31 171.746 106.522 172.081 106.672C172.423 106.823 172.809 106.898 173.24 106.898C173.773 106.898 174.269 106.795 174.727 106.59C175.192 106.378 175.591 106.061 175.926 105.637L177.362 107.195C177.13 107.53 176.812 107.852 176.408 108.159C176.012 108.467 175.533 108.72 174.973 108.918C174.412 109.109 173.773 109.205 173.055 109.205ZM182.873 100.325V109H179.92V97.9053H182.699L182.873 100.325ZM186.216 97.8335L186.164 100.571C186.021 100.551 185.846 100.534 185.641 100.52C185.443 100.5 185.262 100.489 185.098 100.489C184.681 100.489 184.319 100.544 184.011 100.653C183.71 100.756 183.457 100.91 183.252 101.115C183.054 101.32 182.904 101.569 182.801 101.863C182.705 102.157 182.651 102.492 182.637 102.868L182.042 102.684C182.042 101.966 182.114 101.306 182.258 100.705C182.401 100.096 182.61 99.5664 182.883 99.1152C183.163 98.6641 183.505 98.3154 183.908 98.0693C184.312 97.8232 184.773 97.7002 185.293 97.7002C185.457 97.7002 185.624 97.7139 185.795 97.7412C185.966 97.7617 186.106 97.7925 186.216 97.8335ZM194.239 105.934C194.239 105.722 194.177 105.531 194.054 105.36C193.931 105.189 193.702 105.032 193.367 104.888C193.039 104.738 192.564 104.601 191.942 104.478C191.381 104.355 190.858 104.201 190.373 104.017C189.894 103.825 189.477 103.596 189.122 103.33C188.773 103.063 188.5 102.749 188.302 102.386C188.103 102.017 188.004 101.597 188.004 101.125C188.004 100.66 188.103 100.223 188.302 99.8125C188.507 99.4023 188.797 99.04 189.173 98.7256C189.556 98.4043 190.021 98.1548 190.568 97.9771C191.122 97.7925 191.744 97.7002 192.434 97.7002C193.398 97.7002 194.225 97.854 194.915 98.1616C195.613 98.4692 196.146 98.8931 196.515 99.4331C196.891 99.9663 197.079 100.575 197.079 101.258H194.126C194.126 100.971 194.064 100.715 193.941 100.489C193.825 100.257 193.641 100.076 193.388 99.9458C193.142 99.8091 192.82 99.7407 192.424 99.7407C192.096 99.7407 191.812 99.7988 191.573 99.915C191.333 100.024 191.149 100.175 191.019 100.366C190.896 100.551 190.834 100.756 190.834 100.981C190.834 101.152 190.869 101.306 190.937 101.443C191.012 101.573 191.132 101.692 191.296 101.802C191.46 101.911 191.672 102.014 191.932 102.109C192.198 102.198 192.526 102.28 192.916 102.355C193.716 102.52 194.43 102.735 195.059 103.001C195.688 103.261 196.187 103.617 196.556 104.068C196.925 104.512 197.11 105.097 197.11 105.821C197.11 106.313 197 106.765 196.782 107.175C196.563 107.585 196.248 107.944 195.838 108.251C195.428 108.552 194.936 108.788 194.362 108.959C193.794 109.123 193.155 109.205 192.444 109.205C191.412 109.205 190.537 109.021 189.819 108.651C189.108 108.282 188.568 107.814 188.199 107.247C187.837 106.672 187.656 106.084 187.656 105.483H190.455C190.469 105.886 190.571 106.211 190.763 106.457C190.961 106.703 191.21 106.881 191.511 106.99C191.819 107.1 192.15 107.154 192.506 107.154C192.889 107.154 193.206 107.103 193.459 107C193.712 106.891 193.904 106.748 194.034 106.57C194.17 106.385 194.239 106.173 194.239 105.934Z" fill="#5F6061"/>
<path d="M83.9464 132.393L79.0041 146H76.984L82.675 131.07H83.9772L83.9464 132.393ZM88.089 146L83.1364 132.393L83.1056 131.07H84.4079L90.1193 146H88.089ZM87.8327 140.473V142.093H79.445V140.473H87.8327ZM96.9016 144.646C97.3528 144.646 97.7698 144.554 98.1526 144.37C98.5354 144.185 98.8499 143.932 99.096 143.611C99.3421 143.283 99.4822 142.91 99.5164 142.493H101.321C101.287 143.149 101.065 143.761 100.655 144.329C100.251 144.889 99.7215 145.344 99.0652 145.692C98.409 146.034 97.6878 146.205 96.9016 146.205C96.0677 146.205 95.3396 146.058 94.7176 145.764C94.1023 145.47 93.5896 145.067 93.1795 144.554C92.7761 144.042 92.472 143.454 92.2669 142.791C92.0686 142.121 91.9695 141.413 91.9695 140.668V140.237C91.9695 139.492 92.0686 138.788 92.2669 138.125C92.472 137.455 92.7761 136.864 93.1795 136.351C93.5896 135.838 94.1023 135.435 94.7176 135.141C95.3396 134.847 96.0677 134.7 96.9016 134.7C97.7698 134.7 98.5286 134.878 99.178 135.233C99.8274 135.582 100.337 136.061 100.706 136.669C101.082 137.271 101.287 137.954 101.321 138.72H99.5164C99.4822 138.262 99.3523 137.848 99.1267 137.479C98.908 137.11 98.6072 136.816 98.2244 136.597C97.8484 136.372 97.4075 136.259 96.9016 136.259C96.3206 136.259 95.8318 136.375 95.4353 136.607C95.0457 136.833 94.7346 137.141 94.5022 137.53C94.2766 137.913 94.1126 138.34 94.01 138.812C93.9143 139.277 93.8665 139.752 93.8665 140.237V140.668C93.8665 141.153 93.9143 141.632 94.01 142.104C94.1057 142.575 94.2664 143.002 94.492 143.385C94.7244 143.768 95.0354 144.076 95.4251 144.308C95.8216 144.534 96.3137 144.646 96.9016 144.646ZM108.524 144.646C108.975 144.646 109.392 144.554 109.775 144.37C110.158 144.185 110.472 143.932 110.718 143.611C110.964 143.283 111.104 142.91 111.139 142.493H112.943C112.909 143.149 112.687 143.761 112.277 144.329C111.873 144.889 111.344 145.344 110.687 145.692C110.031 146.034 109.31 146.205 108.524 146.205C107.69 146.205 106.962 146.058 106.34 145.764C105.725 145.47 105.212 145.067 104.802 144.554C104.398 144.042 104.094 143.454 103.889 142.791C103.691 142.121 103.592 141.413 103.592 140.668V140.237C103.592 139.492 103.691 138.788 103.889 138.125C104.094 137.455 104.398 136.864 104.802 136.351C105.212 135.838 105.725 135.435 106.34 135.141C106.962 134.847 107.69 134.7 108.524 134.7C109.392 134.7 110.151 134.878 110.8 135.233C111.45 135.582 111.959 136.061 112.328 136.669C112.704 137.271 112.909 137.954 112.943 138.72H111.139C111.104 138.262 110.975 137.848 110.749 137.479C110.53 137.11 110.229 136.816 109.847 136.597C109.471 136.372 109.03 136.259 108.524 136.259C107.943 136.259 107.454 136.375 107.058 136.607C106.668 136.833 106.357 137.141 106.124 137.53C105.899 137.913 105.735 138.34 105.632 138.812C105.537 139.277 105.489 139.752 105.489 140.237V140.668C105.489 141.153 105.537 141.632 105.632 142.104C105.728 142.575 105.889 143.002 106.114 143.385C106.347 143.768 106.658 144.076 107.047 144.308C107.444 144.534 107.936 144.646 108.524 144.646ZM120.31 146.205C119.538 146.205 118.837 146.075 118.208 145.815C117.586 145.549 117.049 145.176 116.598 144.698C116.154 144.219 115.812 143.652 115.573 142.996C115.334 142.339 115.214 141.622 115.214 140.842V140.412C115.214 139.509 115.347 138.706 115.614 138.002C115.88 137.291 116.243 136.689 116.701 136.197C117.159 135.705 117.678 135.333 118.259 135.08C118.84 134.827 119.442 134.7 120.064 134.7C120.857 134.7 121.541 134.837 122.115 135.11C122.696 135.384 123.171 135.767 123.54 136.259C123.909 136.744 124.183 137.318 124.36 137.981C124.538 138.638 124.627 139.355 124.627 140.135V140.986H116.342V139.438H122.73V139.294C122.703 138.802 122.6 138.323 122.422 137.858C122.251 137.394 121.978 137.011 121.602 136.71C121.226 136.409 120.713 136.259 120.064 136.259C119.633 136.259 119.237 136.351 118.875 136.536C118.512 136.713 118.201 136.98 117.941 137.335C117.682 137.691 117.48 138.125 117.336 138.638C117.193 139.15 117.121 139.742 117.121 140.412V140.842C117.121 141.369 117.193 141.864 117.336 142.329C117.487 142.787 117.702 143.19 117.982 143.539C118.27 143.888 118.615 144.161 119.018 144.359C119.428 144.558 119.893 144.657 120.413 144.657C121.083 144.657 121.65 144.52 122.115 144.247C122.58 143.973 122.986 143.607 123.335 143.149L124.483 144.062C124.244 144.424 123.94 144.77 123.571 145.098C123.202 145.426 122.747 145.692 122.207 145.897C121.674 146.103 121.042 146.205 120.31 146.205ZM133.932 143.057C133.932 142.784 133.87 142.531 133.747 142.298C133.631 142.059 133.388 141.844 133.019 141.652C132.657 141.454 132.11 141.283 131.379 141.14C130.763 141.01 130.206 140.856 129.707 140.678C129.215 140.5 128.795 140.285 128.446 140.032C128.104 139.779 127.841 139.482 127.656 139.14C127.472 138.798 127.38 138.398 127.38 137.94C127.38 137.503 127.475 137.089 127.667 136.7C127.865 136.31 128.142 135.965 128.497 135.664C128.86 135.363 129.294 135.127 129.799 134.957C130.305 134.786 130.869 134.7 131.491 134.7C132.38 134.7 133.139 134.857 133.768 135.172C134.397 135.486 134.879 135.907 135.214 136.433C135.548 136.953 135.716 137.53 135.716 138.166H133.819C133.819 137.858 133.727 137.561 133.542 137.274C133.364 136.98 133.101 136.737 132.753 136.546C132.411 136.354 131.99 136.259 131.491 136.259C130.965 136.259 130.538 136.341 130.21 136.505C129.888 136.662 129.652 136.864 129.502 137.11C129.359 137.356 129.287 137.616 129.287 137.889C129.287 138.094 129.321 138.279 129.389 138.443C129.464 138.6 129.594 138.747 129.779 138.884C129.964 139.014 130.223 139.137 130.558 139.253C130.893 139.369 131.32 139.485 131.84 139.602C132.749 139.807 133.498 140.053 134.086 140.34C134.673 140.627 135.111 140.979 135.398 141.396C135.685 141.813 135.829 142.319 135.829 142.914C135.829 143.399 135.726 143.843 135.521 144.247C135.323 144.65 135.032 144.999 134.65 145.292C134.274 145.58 133.822 145.805 133.296 145.969C132.777 146.126 132.192 146.205 131.543 146.205C130.565 146.205 129.738 146.031 129.061 145.682C128.384 145.333 127.872 144.882 127.523 144.329C127.174 143.775 127 143.19 127 142.575H128.907C128.935 143.095 129.085 143.508 129.359 143.816C129.632 144.117 129.967 144.332 130.363 144.462C130.76 144.585 131.153 144.646 131.543 144.646C132.062 144.646 132.496 144.578 132.845 144.441C133.2 144.305 133.47 144.117 133.655 143.877C133.839 143.638 133.932 143.365 133.932 143.057ZM145.41 143.057C145.41 142.784 145.349 142.531 145.226 142.298C145.11 142.059 144.867 141.844 144.498 141.652C144.136 141.454 143.589 141.283 142.857 141.14C142.242 141.01 141.685 140.856 141.186 140.678C140.694 140.5 140.273 140.285 139.925 140.032C139.583 139.779 139.32 139.482 139.135 139.14C138.95 138.798 138.858 138.398 138.858 137.94C138.858 137.503 138.954 137.089 139.145 136.7C139.344 136.31 139.62 135.965 139.976 135.664C140.338 135.363 140.772 135.127 141.278 134.957C141.784 134.786 142.348 134.7 142.97 134.7C143.859 134.7 144.617 134.857 145.246 135.172C145.875 135.486 146.357 135.907 146.692 136.433C147.027 136.953 147.195 137.53 147.195 138.166H145.298C145.298 137.858 145.205 137.561 145.021 137.274C144.843 136.98 144.58 136.737 144.231 136.546C143.889 136.354 143.469 136.259 142.97 136.259C142.444 136.259 142.016 136.341 141.688 136.505C141.367 136.662 141.131 136.864 140.981 137.11C140.837 137.356 140.765 137.616 140.765 137.889C140.765 138.094 140.8 138.279 140.868 138.443C140.943 138.6 141.073 138.747 141.258 138.884C141.442 139.014 141.702 139.137 142.037 139.253C142.372 139.369 142.799 139.485 143.319 139.602C144.228 139.807 144.976 140.053 145.564 140.34C146.152 140.627 146.59 140.979 146.877 141.396C147.164 141.813 147.307 142.319 147.307 142.914C147.307 143.399 147.205 143.843 147 144.247C146.802 144.65 146.511 144.999 146.128 145.292C145.752 145.58 145.301 145.805 144.775 145.969C144.255 146.126 143.671 146.205 143.021 146.205C142.044 146.205 141.217 146.031 140.54 145.682C139.863 145.333 139.35 144.882 139.002 144.329C138.653 143.775 138.479 143.19 138.479 142.575H140.386C140.413 143.095 140.564 143.508 140.837 143.816C141.111 144.117 141.446 144.332 141.842 144.462C142.239 144.585 142.632 144.646 143.021 144.646C143.541 144.646 143.975 144.578 144.323 144.441C144.679 144.305 144.949 144.117 145.134 143.877C145.318 143.638 145.41 143.365 145.41 143.057ZM158.165 137.038V150.266H156.258V134.905H158.001L158.165 137.038ZM165.64 140.36V140.576C165.64 141.382 165.544 142.131 165.353 142.821C165.162 143.505 164.881 144.1 164.512 144.605C164.15 145.111 163.702 145.504 163.169 145.785C162.636 146.065 162.024 146.205 161.333 146.205C160.629 146.205 160.007 146.089 159.467 145.856C158.927 145.624 158.469 145.286 158.093 144.841C157.717 144.397 157.417 143.864 157.191 143.242C156.972 142.62 156.822 141.919 156.74 141.14V139.991C156.822 139.171 156.976 138.436 157.201 137.787C157.427 137.137 157.724 136.583 158.093 136.125C158.469 135.661 158.924 135.309 159.457 135.069C159.99 134.823 160.605 134.7 161.303 134.7C162 134.7 162.619 134.837 163.159 135.11C163.699 135.377 164.153 135.76 164.522 136.259C164.892 136.758 165.168 137.356 165.353 138.053C165.544 138.744 165.64 139.513 165.64 140.36ZM163.733 140.576V140.36C163.733 139.807 163.675 139.287 163.559 138.802C163.442 138.31 163.261 137.879 163.015 137.51C162.776 137.134 162.468 136.84 162.092 136.628C161.716 136.409 161.269 136.3 160.749 136.3C160.271 136.3 159.854 136.382 159.498 136.546C159.149 136.71 158.852 136.932 158.606 137.212C158.36 137.486 158.158 137.8 158.001 138.156C157.851 138.504 157.738 138.867 157.663 139.243V141.898C157.799 142.377 157.991 142.828 158.237 143.252C158.483 143.669 158.811 144.007 159.221 144.267C159.631 144.52 160.147 144.646 160.77 144.646C161.282 144.646 161.723 144.541 162.092 144.329C162.468 144.11 162.776 143.812 163.015 143.437C163.261 143.061 163.442 142.63 163.559 142.145C163.675 141.652 163.733 141.129 163.733 140.576ZM173.294 146.205C172.522 146.205 171.821 146.075 171.192 145.815C170.57 145.549 170.033 145.176 169.582 144.698C169.138 144.219 168.796 143.652 168.557 142.996C168.318 142.339 168.198 141.622 168.198 140.842V140.412C168.198 139.509 168.331 138.706 168.598 138.002C168.864 137.291 169.227 136.689 169.685 136.197C170.143 135.705 170.662 135.333 171.243 135.08C171.824 134.827 172.426 134.7 173.048 134.7C173.841 134.7 174.525 134.837 175.099 135.11C175.68 135.384 176.155 135.767 176.524 136.259C176.893 136.744 177.167 137.318 177.344 137.981C177.522 138.638 177.611 139.355 177.611 140.135V140.986H169.326V139.438H175.714V139.294C175.687 138.802 175.584 138.323 175.406 137.858C175.235 137.394 174.962 137.011 174.586 136.71C174.21 136.409 173.697 136.259 173.048 136.259C172.617 136.259 172.221 136.351 171.859 136.536C171.496 136.713 171.185 136.98 170.925 137.335C170.666 137.691 170.464 138.125 170.32 138.638C170.177 139.15 170.105 139.742 170.105 140.412V140.842C170.105 141.369 170.177 141.864 170.32 142.329C170.471 142.787 170.686 143.19 170.966 143.539C171.254 143.888 171.599 144.161 172.002 144.359C172.412 144.558 172.877 144.657 173.397 144.657C174.067 144.657 174.634 144.52 175.099 144.247C175.564 143.973 175.97 143.607 176.319 143.149L177.467 144.062C177.228 144.424 176.924 144.77 176.555 145.098C176.186 145.426 175.731 145.692 175.191 145.897C174.658 146.103 174.026 146.205 173.294 146.205ZM179.953 140.576V140.34C179.953 139.54 180.07 138.798 180.302 138.115C180.534 137.424 180.869 136.826 181.307 136.32C181.744 135.808 182.274 135.411 182.896 135.131C183.518 134.844 184.216 134.7 184.988 134.7C185.767 134.7 186.468 134.844 187.09 135.131C187.719 135.411 188.252 135.808 188.69 136.32C189.134 136.826 189.472 137.424 189.705 138.115C189.937 138.798 190.053 139.54 190.053 140.34V140.576C190.053 141.375 189.937 142.117 189.705 142.801C189.472 143.484 189.134 144.083 188.69 144.595C188.252 145.101 187.722 145.498 187.1 145.785C186.485 146.065 185.788 146.205 185.009 146.205C184.229 146.205 183.529 146.065 182.906 145.785C182.284 145.498 181.751 145.101 181.307 144.595C180.869 144.083 180.534 143.484 180.302 142.801C180.07 142.117 179.953 141.375 179.953 140.576ZM181.85 140.34V140.576C181.85 141.129 181.915 141.652 182.045 142.145C182.175 142.63 182.37 143.061 182.63 143.437C182.896 143.812 183.228 144.11 183.624 144.329C184.021 144.541 184.482 144.646 185.009 144.646C185.528 144.646 185.983 144.541 186.372 144.329C186.769 144.11 187.097 143.812 187.357 143.437C187.616 143.061 187.811 142.63 187.941 142.145C188.078 141.652 188.146 141.129 188.146 140.576V140.34C188.146 139.793 188.078 139.277 187.941 138.792C187.811 138.299 187.613 137.865 187.346 137.489C187.087 137.106 186.759 136.806 186.362 136.587C185.972 136.368 185.514 136.259 184.988 136.259C184.468 136.259 184.01 136.368 183.614 136.587C183.224 136.806 182.896 137.106 182.63 137.489C182.37 137.865 182.175 138.299 182.045 138.792C181.915 139.277 181.85 139.793 181.85 140.34ZM194.959 137.038V150.266H193.052V134.905H194.795L194.959 137.038ZM202.434 140.36V140.576C202.434 141.382 202.339 142.131 202.147 142.821C201.956 143.505 201.676 144.1 201.307 144.605C200.944 145.111 200.496 145.504 199.963 145.785C199.43 146.065 198.818 146.205 198.128 146.205C197.424 146.205 196.802 146.089 196.262 145.856C195.722 145.624 195.264 145.286 194.888 144.841C194.512 144.397 194.211 143.864 193.985 143.242C193.766 142.62 193.616 141.919 193.534 141.14V139.991C193.616 139.171 193.77 138.436 193.995 137.787C194.221 137.137 194.518 136.583 194.888 136.125C195.264 135.661 195.718 135.309 196.251 135.069C196.785 134.823 197.4 134.7 198.097 134.7C198.794 134.7 199.413 134.837 199.953 135.11C200.493 135.377 200.948 135.76 201.317 136.259C201.686 136.758 201.963 137.356 202.147 138.053C202.339 138.744 202.434 139.513 202.434 140.36ZM200.527 140.576V140.36C200.527 139.807 200.469 139.287 200.353 138.802C200.237 138.31 200.056 137.879 199.809 137.51C199.57 137.134 199.263 136.84 198.887 136.628C198.511 136.409 198.063 136.3 197.543 136.3C197.065 136.3 196.648 136.382 196.292 136.546C195.944 136.71 195.646 136.932 195.4 137.212C195.154 137.486 194.952 137.8 194.795 138.156C194.645 138.504 194.532 138.867 194.457 139.243V141.898C194.594 142.377 194.785 142.828 195.031 143.252C195.277 143.669 195.605 144.007 196.015 144.267C196.426 144.52 196.942 144.646 197.564 144.646C198.077 144.646 198.517 144.541 198.887 144.329C199.263 144.11 199.57 143.812 199.809 143.437C200.056 143.061 200.237 142.63 200.353 142.145C200.469 141.652 200.527 141.129 200.527 140.576ZM207.545 130.25V146H205.638V130.25H207.545ZM215.825 146.205C215.052 146.205 214.352 146.075 213.723 145.815C213.101 145.549 212.564 145.176 212.113 144.698C211.669 144.219 211.327 143.652 211.087 142.996C210.848 142.339 210.729 141.622 210.729 140.842V140.412C210.729 139.509 210.862 138.706 211.129 138.002C211.395 137.291 211.757 136.689 212.215 136.197C212.673 135.705 213.193 135.333 213.774 135.08C214.355 134.827 214.957 134.7 215.579 134.7C216.372 134.7 217.055 134.837 217.629 135.11C218.211 135.384 218.686 135.767 219.055 136.259C219.424 136.744 219.697 137.318 219.875 137.981C220.053 138.638 220.142 139.355 220.142 140.135V140.986H211.857V139.438H218.245V139.294C218.217 138.802 218.115 138.323 217.937 137.858C217.766 137.394 217.493 137.011 217.117 136.71C216.741 136.409 216.228 136.259 215.579 136.259C215.148 136.259 214.752 136.351 214.389 136.536C214.027 136.713 213.716 136.98 213.456 137.335C213.196 137.691 212.995 138.125 212.851 138.638C212.708 139.15 212.636 139.742 212.636 140.412V140.842C212.636 141.369 212.708 141.864 212.851 142.329C213.002 142.787 213.217 143.19 213.497 143.539C213.784 143.888 214.129 144.161 214.533 144.359C214.943 144.558 215.408 144.657 215.927 144.657C216.597 144.657 217.165 144.52 217.629 144.247C218.094 143.973 218.501 143.607 218.85 143.149L219.998 144.062C219.759 144.424 219.455 144.77 219.086 145.098C218.716 145.426 218.262 145.692 217.722 145.897C217.189 146.103 216.556 146.205 215.825 146.205ZM224.709 143.744V145.272C224.709 145.894 224.552 146.55 224.238 147.241C223.923 147.938 223.482 148.519 222.915 148.984L221.838 148.235C222.057 147.935 222.241 147.627 222.392 147.312C222.542 147.005 222.655 146.684 222.73 146.349C222.812 146.021 222.853 145.672 222.853 145.303V143.744H224.709ZM80.5581 160.038V173.266H78.6509V157.905H80.3941L80.5581 160.038ZM88.0332 163.36V163.576C88.0332 164.382 87.9375 165.131 87.7461 165.821C87.5547 166.505 87.2745 167.1 86.9053 167.605C86.543 168.111 86.0953 168.504 85.562 168.785C85.0288 169.065 84.417 169.205 83.7266 169.205C83.0225 169.205 82.4004 169.089 81.8604 168.856C81.3204 168.624 80.8623 168.286 80.4864 167.841C80.1104 167.397 79.8096 166.864 79.584 166.242C79.3653 165.62 79.2149 164.919 79.1329 164.14V162.991C79.2149 162.171 79.3687 161.436 79.5943 160.787C79.8199 160.137 80.1172 159.583 80.4864 159.125C80.8623 158.661 81.3169 158.309 81.8501 158.069C82.3833 157.823 82.9986 157.7 83.6958 157.7C84.3931 157.7 85.0118 157.837 85.5518 158.11C86.0918 158.377 86.5464 158.76 86.9156 159.259C87.2847 159.758 87.5616 160.356 87.7461 161.053C87.9375 161.744 88.0332 162.513 88.0332 163.36ZM86.126 163.576V163.36C86.126 162.807 86.0679 162.287 85.9517 161.802C85.8355 161.31 85.6543 160.879 85.4082 160.51C85.169 160.134 84.8614 159.84 84.4854 159.628C84.1094 159.409 83.6617 159.3 83.1421 159.3C82.6636 159.3 82.2466 159.382 81.8912 159.546C81.5425 159.71 81.2452 159.932 80.9991 160.212C80.753 160.486 80.5513 160.8 80.3941 161.156C80.2437 161.504 80.1309 161.867 80.0557 162.243V164.898C80.1924 165.377 80.3838 165.828 80.6299 166.252C80.876 166.669 81.2041 167.007 81.6143 167.267C82.0245 167.52 82.5406 167.646 83.1626 167.646C83.6753 167.646 84.1162 167.541 84.4854 167.329C84.8614 167.11 85.169 166.812 85.4082 166.437C85.6543 166.061 85.8355 165.63 85.9517 165.145C86.0679 164.652 86.126 164.129 86.126 163.576ZM97.6252 167.103V161.392C97.6252 160.954 97.5363 160.575 97.3586 160.253C97.1877 159.925 96.9279 159.672 96.5793 159.495C96.2306 159.317 95.8 159.228 95.2873 159.228C94.8088 159.228 94.3883 159.31 94.026 159.474C93.6706 159.638 93.3903 159.854 93.1852 160.12C92.987 160.387 92.8879 160.674 92.8879 160.981H90.9909C90.9909 160.585 91.0934 160.192 91.2985 159.802C91.5036 159.413 91.7975 159.061 92.1803 158.746C92.57 158.425 93.0348 158.172 93.5749 157.987C94.1217 157.796 94.7301 157.7 95.4001 157.7C96.2067 157.7 96.9176 157.837 97.5329 158.11C98.1549 158.384 98.6403 158.797 98.9889 159.351C99.3444 159.898 99.5221 160.585 99.5221 161.412V166.58C99.5221 166.949 99.5529 167.342 99.6144 167.759C99.6828 168.176 99.7819 168.535 99.9118 168.836V169H97.9328C97.8371 168.781 97.7619 168.491 97.7072 168.128C97.6525 167.759 97.6252 167.417 97.6252 167.103ZM97.9533 162.273L97.9738 163.606H96.0563C95.5163 163.606 95.0343 163.651 94.6105 163.74C94.1867 163.822 93.8312 163.948 93.5441 164.119C93.257 164.29 93.0382 164.505 92.8879 164.765C92.7375 165.018 92.6623 165.315 92.6623 165.657C92.6623 166.006 92.7409 166.324 92.8981 166.611C93.0553 166.898 93.2912 167.127 93.6056 167.298C93.9269 167.462 94.32 167.544 94.7848 167.544C95.3659 167.544 95.8786 167.421 96.3229 167.175C96.7672 166.929 97.1193 166.628 97.3791 166.272C97.6457 165.917 97.7892 165.572 97.8097 165.237L98.6198 166.149C98.5719 166.437 98.4421 166.754 98.2301 167.103C98.0182 167.452 97.7345 167.787 97.3791 168.108C97.0304 168.422 96.6134 168.686 96.1281 168.897C95.6496 169.103 95.1095 169.205 94.508 169.205C93.756 169.205 93.0963 169.058 92.529 168.764C91.9684 168.47 91.5309 168.077 91.2165 167.585C90.9088 167.086 90.755 166.529 90.755 165.914C90.755 165.319 90.8713 164.796 91.1037 164.345C91.3361 163.887 91.6711 163.507 92.1086 163.207C92.5461 162.899 93.0724 162.667 93.6877 162.509C94.3029 162.352 94.9899 162.273 95.7487 162.273H97.9533ZM105.033 159.648V169H103.136V157.905H104.982L105.033 159.648ZM108.499 157.844L108.489 159.607C108.331 159.573 108.181 159.553 108.037 159.546C107.901 159.532 107.743 159.525 107.566 159.525C107.128 159.525 106.742 159.594 106.407 159.73C106.072 159.867 105.788 160.059 105.556 160.305C105.324 160.551 105.139 160.845 105.002 161.187C104.872 161.521 104.787 161.891 104.746 162.294L104.213 162.602C104.213 161.932 104.278 161.303 104.408 160.715C104.544 160.127 104.753 159.607 105.033 159.156C105.313 158.698 105.669 158.343 106.099 158.09C106.537 157.83 107.056 157.7 107.658 157.7C107.795 157.7 107.952 157.717 108.13 157.751C108.307 157.779 108.43 157.81 108.499 157.844ZM116.04 157.905V159.361H110.041V157.905H116.04ZM112.072 155.208H113.969V166.252C113.969 166.628 114.027 166.912 114.143 167.103C114.259 167.294 114.41 167.421 114.594 167.482C114.779 167.544 114.977 167.575 115.189 167.575C115.346 167.575 115.51 167.561 115.681 167.534C115.859 167.5 115.992 167.472 116.081 167.452L116.091 169C115.941 169.048 115.743 169.092 115.496 169.133C115.257 169.181 114.967 169.205 114.625 169.205C114.16 169.205 113.733 169.113 113.343 168.928C112.954 168.744 112.642 168.436 112.41 168.005C112.184 167.568 112.072 166.98 112.072 166.242V155.208ZM120.792 160.274V169H118.895V157.905H120.689L120.792 160.274ZM120.341 163.032L119.551 163.001C119.558 162.243 119.671 161.542 119.89 160.899C120.108 160.25 120.416 159.686 120.813 159.208C121.209 158.729 121.681 158.36 122.228 158.1C122.781 157.833 123.393 157.7 124.063 157.7C124.61 157.7 125.102 157.775 125.54 157.926C125.977 158.069 126.35 158.302 126.657 158.623C126.972 158.944 127.211 159.361 127.375 159.874C127.539 160.38 127.621 160.999 127.621 161.73V169H125.714V161.709C125.714 161.128 125.628 160.664 125.458 160.315C125.287 159.959 125.037 159.703 124.709 159.546C124.381 159.382 123.978 159.3 123.499 159.3C123.027 159.3 122.597 159.399 122.207 159.597C121.824 159.795 121.493 160.069 121.212 160.417C120.939 160.766 120.724 161.166 120.566 161.617C120.416 162.062 120.341 162.533 120.341 163.032ZM135.736 169.205C134.964 169.205 134.263 169.075 133.634 168.815C133.012 168.549 132.476 168.176 132.025 167.698C131.58 167.219 131.238 166.652 130.999 165.996C130.76 165.339 130.64 164.622 130.64 163.842V163.412C130.64 162.509 130.774 161.706 131.04 161.002C131.307 160.291 131.669 159.689 132.127 159.197C132.585 158.705 133.105 158.333 133.686 158.08C134.267 157.827 134.868 157.7 135.49 157.7C136.283 157.7 136.967 157.837 137.541 158.11C138.122 158.384 138.597 158.767 138.966 159.259C139.336 159.744 139.609 160.318 139.787 160.981C139.964 161.638 140.053 162.355 140.053 163.135V163.986H131.768V162.438H138.156V162.294C138.129 161.802 138.027 161.323 137.849 160.858C137.678 160.394 137.404 160.011 137.028 159.71C136.652 159.409 136.14 159.259 135.49 159.259C135.06 159.259 134.663 159.351 134.301 159.536C133.939 159.713 133.628 159.98 133.368 160.335C133.108 160.691 132.906 161.125 132.763 161.638C132.619 162.15 132.548 162.742 132.548 163.412V163.842C132.548 164.369 132.619 164.864 132.763 165.329C132.913 165.787 133.129 166.19 133.409 166.539C133.696 166.888 134.041 167.161 134.444 167.359C134.855 167.558 135.319 167.657 135.839 167.657C136.509 167.657 137.076 167.52 137.541 167.247C138.006 166.973 138.413 166.607 138.761 166.149L139.91 167.062C139.671 167.424 139.366 167.77 138.997 168.098C138.628 168.426 138.173 168.692 137.633 168.897C137.1 169.103 136.468 169.205 135.736 169.205ZM144.795 159.648V169H142.898V157.905H144.744L144.795 159.648ZM148.261 157.844L148.251 159.607C148.094 159.573 147.943 159.553 147.8 159.546C147.663 159.532 147.506 159.525 147.328 159.525C146.89 159.525 146.504 159.594 146.169 159.73C145.834 159.867 145.551 160.059 145.318 160.305C145.086 160.551 144.901 160.845 144.764 161.187C144.635 161.521 144.549 161.891 144.508 162.294L143.975 162.602C143.975 161.932 144.04 161.303 144.17 160.715C144.306 160.127 144.515 159.607 144.795 159.156C145.075 158.698 145.431 158.343 145.862 158.09C146.299 157.83 146.819 157.7 147.42 157.7C147.557 157.7 147.714 157.717 147.892 157.751C148.07 157.779 148.193 157.81 148.261 157.844ZM157.104 166.057C157.104 165.784 157.043 165.531 156.92 165.298C156.804 165.059 156.561 164.844 156.192 164.652C155.829 164.454 155.283 164.283 154.551 164.14C153.936 164.01 153.379 163.856 152.88 163.678C152.388 163.5 151.967 163.285 151.619 163.032C151.277 162.779 151.014 162.482 150.829 162.14C150.644 161.798 150.552 161.398 150.552 160.94C150.552 160.503 150.648 160.089 150.839 159.7C151.037 159.31 151.314 158.965 151.67 158.664C152.032 158.363 152.466 158.127 152.972 157.957C153.478 157.786 154.042 157.7 154.664 157.7C155.553 157.7 156.311 157.857 156.94 158.172C157.569 158.486 158.051 158.907 158.386 159.433C158.721 159.953 158.889 160.53 158.889 161.166H156.992C156.992 160.858 156.899 160.561 156.715 160.274C156.537 159.98 156.274 159.737 155.925 159.546C155.583 159.354 155.163 159.259 154.664 159.259C154.138 159.259 153.71 159.341 153.382 159.505C153.061 159.662 152.825 159.864 152.675 160.11C152.531 160.356 152.459 160.616 152.459 160.889C152.459 161.094 152.494 161.279 152.562 161.443C152.637 161.6 152.767 161.747 152.952 161.884C153.136 162.014 153.396 162.137 153.731 162.253C154.066 162.369 154.493 162.485 155.013 162.602C155.922 162.807 156.67 163.053 157.258 163.34C157.846 163.627 158.284 163.979 158.571 164.396C158.858 164.813 159.001 165.319 159.001 165.914C159.001 166.399 158.899 166.843 158.694 167.247C158.495 167.65 158.205 167.999 157.822 168.292C157.446 168.58 156.995 168.805 156.469 168.969C155.949 169.126 155.365 169.205 154.715 169.205C153.738 169.205 152.911 169.031 152.234 168.682C151.557 168.333 151.044 167.882 150.696 167.329C150.347 166.775 150.173 166.19 150.173 165.575H152.08C152.107 166.095 152.258 166.508 152.531 166.816C152.805 167.117 153.14 167.332 153.536 167.462C153.933 167.585 154.326 167.646 154.715 167.646C155.235 167.646 155.669 167.578 156.017 167.441C156.373 167.305 156.643 167.117 156.828 166.877C157.012 166.638 157.104 166.365 157.104 166.057ZM163.846 166.744V168.272C163.846 168.894 163.688 169.55 163.374 170.241C163.06 170.938 162.619 171.519 162.051 171.984L160.975 171.235C161.193 170.935 161.378 170.627 161.528 170.312C161.679 170.005 161.792 169.684 161.867 169.349C161.949 169.021 161.99 168.672 161.99 168.303V166.744H163.846ZM177.38 157.905V159.361H171.381V157.905H177.38ZM173.411 155.208H175.308V166.252C175.308 166.628 175.366 166.912 175.483 167.103C175.599 167.294 175.749 167.421 175.934 167.482C176.118 167.544 176.317 167.575 176.529 167.575C176.686 167.575 176.85 167.561 177.021 167.534C177.198 167.5 177.332 167.472 177.421 167.452L177.431 169C177.281 169.048 177.082 169.092 176.836 169.133C176.597 169.181 176.306 169.205 175.965 169.205C175.5 169.205 175.073 169.113 174.683 168.928C174.293 168.744 173.982 168.436 173.75 168.005C173.524 167.568 173.411 166.98 173.411 166.242V155.208ZM179.527 163.576V163.34C179.527 162.54 179.643 161.798 179.876 161.115C180.108 160.424 180.443 159.826 180.881 159.32C181.318 158.808 181.848 158.411 182.47 158.131C183.092 157.844 183.789 157.7 184.562 157.7C185.341 157.7 186.042 157.844 186.664 158.131C187.293 158.411 187.826 158.808 188.264 159.32C188.708 159.826 189.046 160.424 189.279 161.115C189.511 161.798 189.627 162.54 189.627 163.34V163.576C189.627 164.375 189.511 165.117 189.279 165.801C189.046 166.484 188.708 167.083 188.264 167.595C187.826 168.101 187.296 168.498 186.674 168.785C186.059 169.065 185.362 169.205 184.582 169.205C183.803 169.205 183.102 169.065 182.48 168.785C181.858 168.498 181.325 168.101 180.881 167.595C180.443 167.083 180.108 166.484 179.876 165.801C179.643 165.117 179.527 164.375 179.527 163.576ZM181.424 163.34V163.576C181.424 164.129 181.489 164.652 181.619 165.145C181.749 165.63 181.944 166.061 182.203 166.437C182.47 166.812 182.802 167.11 183.198 167.329C183.595 167.541 184.056 167.646 184.582 167.646C185.102 167.646 185.557 167.541 185.946 167.329C186.343 167.11 186.671 166.812 186.931 166.437C187.19 166.061 187.385 165.63 187.515 165.145C187.652 164.652 187.72 164.129 187.72 163.576V163.34C187.72 162.793 187.652 162.277 187.515 161.792C187.385 161.299 187.187 160.865 186.92 160.489C186.661 160.106 186.332 159.806 185.936 159.587C185.546 159.368 185.088 159.259 184.562 159.259C184.042 159.259 183.584 159.368 183.188 159.587C182.798 159.806 182.47 160.106 182.203 160.489C181.944 160.865 181.749 161.299 181.619 161.792C181.489 162.277 181.424 162.793 181.424 163.34ZM192.134 163.576V163.34C192.134 162.54 192.25 161.798 192.482 161.115C192.715 160.424 193.05 159.826 193.487 159.32C193.925 158.808 194.455 158.411 195.077 158.131C195.699 157.844 196.396 157.7 197.168 157.7C197.948 157.7 198.648 157.844 199.27 158.131C199.899 158.411 200.433 158.808 200.87 159.32C201.314 159.826 201.653 160.424 201.885 161.115C202.118 161.798 202.234 162.54 202.234 163.34V163.576C202.234 164.375 202.118 165.117 201.885 165.801C201.653 166.484 201.314 167.083 200.87 167.595C200.433 168.101 199.903 168.498 199.281 168.785C198.665 169.065 197.968 169.205 197.189 169.205C196.41 169.205 195.709 169.065 195.087 168.785C194.465 168.498 193.932 168.101 193.487 167.595C193.05 167.083 192.715 166.484 192.482 165.801C192.25 165.117 192.134 164.375 192.134 163.576ZM194.031 163.34V163.576C194.031 164.129 194.096 164.652 194.226 165.145C194.355 165.63 194.55 166.061 194.81 166.437C195.077 166.812 195.408 167.11 195.805 167.329C196.201 167.541 196.663 167.646 197.189 167.646C197.708 167.646 198.163 167.541 198.553 167.329C198.949 167.11 199.277 166.812 199.537 166.437C199.797 166.061 199.992 165.63 200.122 165.145C200.258 164.652 200.327 164.129 200.327 163.576V163.34C200.327 162.793 200.258 162.277 200.122 161.792C199.992 161.299 199.793 160.865 199.527 160.489C199.267 160.106 198.939 159.806 198.542 159.587C198.153 159.368 197.695 159.259 197.168 159.259C196.649 159.259 196.191 159.368 195.794 159.587C195.405 159.806 195.077 160.106 194.81 160.489C194.55 160.865 194.355 161.299 194.226 161.792C194.096 162.277 194.031 162.793 194.031 163.34ZM207.304 153.25V169H205.397V153.25H207.304ZM217.439 166.057C217.439 165.784 217.378 165.531 217.255 165.298C217.138 165.059 216.896 164.844 216.527 164.652C216.164 164.454 215.617 164.283 214.886 164.14C214.271 164.01 213.714 163.856 213.215 163.678C212.722 163.5 212.302 163.285 211.953 163.032C211.612 162.779 211.348 162.482 211.164 162.14C210.979 161.798 210.887 161.398 210.887 160.94C210.887 160.503 210.983 160.089 211.174 159.7C211.372 159.31 211.649 158.965 212.005 158.664C212.367 158.363 212.801 158.127 213.307 157.957C213.813 157.786 214.377 157.7 214.999 157.7C215.887 157.7 216.646 157.857 217.275 158.172C217.904 158.486 218.386 158.907 218.721 159.433C219.056 159.953 219.223 160.53 219.223 161.166H217.326C217.326 160.858 217.234 160.561 217.05 160.274C216.872 159.98 216.609 159.737 216.26 159.546C215.918 159.354 215.498 159.259 214.999 159.259C214.472 159.259 214.045 159.341 213.717 159.505C213.396 159.662 213.16 159.864 213.009 160.11C212.866 160.356 212.794 160.616 212.794 160.889C212.794 161.094 212.828 161.279 212.897 161.443C212.972 161.6 213.102 161.747 213.286 161.884C213.471 162.014 213.731 162.137 214.066 162.253C214.401 162.369 214.828 162.485 215.347 162.602C216.257 162.807 217.005 163.053 217.593 163.34C218.181 163.627 218.618 163.979 218.905 164.396C219.193 164.813 219.336 165.319 219.336 165.914C219.336 166.399 219.234 166.843 219.029 167.247C218.83 167.65 218.54 167.999 218.157 168.292C217.781 168.58 217.33 168.805 216.803 168.969C216.284 169.126 215.699 169.205 215.05 169.205C214.072 169.205 213.245 169.031 212.569 168.682C211.892 168.333 211.379 167.882 211.03 167.329C210.682 166.775 210.508 166.19 210.508 165.575H212.415C212.442 166.095 212.592 166.508 212.866 166.816C213.139 167.117 213.474 167.332 213.871 167.462C214.267 167.585 214.66 167.646 215.05 167.646C215.57 167.646 216.004 167.578 216.352 167.441C216.708 167.305 216.978 167.117 217.162 166.877C217.347 166.638 217.439 166.365 217.439 166.057ZM224.181 166.744V168.272C224.181 168.894 224.023 169.55 223.709 170.241C223.394 170.938 222.953 171.519 222.386 171.984L221.309 171.235C221.528 170.935 221.713 170.627 221.863 170.312C222.014 170.005 222.126 169.684 222.202 169.349C222.284 169.021 222.325 168.672 222.325 168.303V166.744H224.181ZM76.0025 180.905V192H74.0953V180.905H76.0025ZM73.9518 177.962C73.9518 177.655 74.044 177.395 74.2286 177.183C74.42 176.971 74.7003 176.865 75.0694 176.865C75.4317 176.865 75.7086 176.971 75.9 177.183C76.0982 177.395 76.1974 177.655 76.1974 177.962C76.1974 178.256 76.0982 178.509 75.9 178.721C75.7086 178.926 75.4317 179.029 75.0694 179.029C74.7003 179.029 74.42 178.926 74.2286 178.721C74.044 178.509 73.9518 178.256 73.9518 177.962ZM81.5749 183.274V192H79.678V180.905H81.4724L81.5749 183.274ZM81.1238 186.032L80.3342 186.001C80.341 185.243 80.4538 184.542 80.6726 183.899C80.8913 183.25 81.1989 182.686 81.5954 182.208C81.9919 181.729 82.4636 181.36 83.0105 181.1C83.5642 180.833 84.176 180.7 84.8459 180.7C85.3928 180.7 85.885 180.775 86.3225 180.926C86.76 181.069 87.1325 181.302 87.4402 181.623C87.7546 181.944 87.9939 182.361 88.1579 182.874C88.322 183.38 88.404 183.999 88.404 184.73V192H86.4968V184.709C86.4968 184.128 86.4114 183.664 86.2405 183.315C86.0696 182.959 85.82 182.703 85.4919 182.546C85.1638 182.382 84.7605 182.3 84.282 182.3C83.8103 182.3 83.3796 182.399 82.99 182.597C82.6072 182.795 82.2756 183.069 81.9953 183.417C81.7219 183.766 81.5066 184.166 81.3493 184.617C81.1989 185.062 81.1238 185.533 81.1238 186.032ZM96.3553 190.646C96.8065 190.646 97.2235 190.554 97.6063 190.37C97.9891 190.185 98.3036 189.932 98.5497 189.611C98.7957 189.283 98.9359 188.91 98.9701 188.493H100.775C100.741 189.149 100.518 189.761 100.108 190.329C99.7049 190.889 99.1751 191.344 98.5189 191.692C97.8626 192.034 97.1414 192.205 96.3553 192.205C95.5213 192.205 94.7933 192.058 94.1712 191.764C93.556 191.47 93.0433 191.067 92.6331 190.554C92.2298 190.042 91.9256 189.454 91.7206 188.791C91.5223 188.121 91.4232 187.413 91.4232 186.668V186.237C91.4232 185.492 91.5223 184.788 91.7206 184.125C91.9256 183.455 92.2298 182.864 92.6331 182.351C93.0433 181.838 93.556 181.435 94.1712 181.141C94.7933 180.847 95.5213 180.7 96.3553 180.7C97.2235 180.7 97.9823 180.878 98.6317 181.233C99.2811 181.582 99.7904 182.061 100.16 182.669C100.535 183.271 100.741 183.954 100.775 184.72H98.9701C98.9359 184.262 98.806 183.848 98.5804 183.479C98.3617 183.11 98.0609 182.816 97.6781 182.597C97.3021 182.372 96.8612 182.259 96.3553 182.259C95.7743 182.259 95.2855 182.375 94.889 182.607C94.4994 182.833 94.1883 183.141 93.9559 183.53C93.7303 183.913 93.5663 184.34 93.4637 184.812C93.368 185.277 93.3202 185.752 93.3202 186.237V186.668C93.3202 187.153 93.368 187.632 93.4637 188.104C93.5594 188.575 93.7201 189.002 93.9456 189.385C94.1781 189.768 94.4891 190.076 94.8788 190.308C95.2752 190.534 95.7674 190.646 96.3553 190.646ZM110.326 189.437V180.905H112.233V192H110.418L110.326 189.437ZM110.685 187.099L111.474 187.078C111.474 187.816 111.395 188.5 111.238 189.129C111.088 189.751 110.842 190.291 110.5 190.749C110.158 191.207 109.71 191.566 109.157 191.826C108.603 192.079 107.93 192.205 107.137 192.205C106.597 192.205 106.101 192.126 105.65 191.969C105.206 191.812 104.823 191.569 104.501 191.241C104.18 190.913 103.931 190.486 103.753 189.959C103.582 189.433 103.497 188.801 103.497 188.062V180.905H105.394V188.083C105.394 188.582 105.448 188.996 105.558 189.324C105.674 189.645 105.828 189.901 106.019 190.093C106.217 190.277 106.436 190.407 106.675 190.482C106.921 190.558 107.174 190.595 107.434 190.595C108.241 190.595 108.88 190.441 109.352 190.134C109.823 189.819 110.162 189.399 110.367 188.873C110.579 188.339 110.685 187.748 110.685 187.099ZM115.744 176.25H117.651V189.847L117.487 192H115.744V176.25ZM125.147 186.36V186.576C125.147 187.382 125.051 188.131 124.86 188.821C124.669 189.505 124.388 190.1 124.019 190.605C123.65 191.111 123.199 191.504 122.666 191.785C122.132 192.065 121.521 192.205 120.83 192.205C120.126 192.205 119.507 192.085 118.974 191.846C118.448 191.6 118.003 191.248 117.641 190.79C117.279 190.332 116.988 189.778 116.77 189.129C116.558 188.479 116.411 187.748 116.329 186.935V185.991C116.411 185.171 116.558 184.436 116.77 183.787C116.988 183.137 117.279 182.583 117.641 182.125C118.003 181.661 118.448 181.309 118.974 181.069C119.501 180.823 120.112 180.7 120.81 180.7C121.507 180.7 122.126 180.837 122.666 181.11C123.206 181.377 123.657 181.76 124.019 182.259C124.388 182.758 124.669 183.356 124.86 184.053C125.051 184.744 125.147 185.513 125.147 186.36ZM123.24 186.576V186.36C123.24 185.807 123.189 185.287 123.086 184.802C122.983 184.31 122.819 183.879 122.594 183.51C122.368 183.134 122.071 182.84 121.702 182.628C121.333 182.409 120.878 182.3 120.338 182.3C119.859 182.3 119.442 182.382 119.087 182.546C118.738 182.71 118.441 182.932 118.195 183.212C117.949 183.486 117.747 183.8 117.59 184.156C117.44 184.504 117.327 184.867 117.252 185.243V187.714C117.361 188.192 117.539 188.654 117.785 189.098C118.038 189.536 118.373 189.895 118.79 190.175C119.213 190.455 119.736 190.595 120.358 190.595C120.871 190.595 121.309 190.493 121.671 190.288C122.04 190.076 122.337 189.785 122.563 189.416C122.795 189.047 122.966 188.62 123.076 188.134C123.185 187.649 123.24 187.129 123.24 186.576ZM134.718 190.103V184.392C134.718 183.954 134.63 183.575 134.452 183.253C134.281 182.925 134.021 182.672 133.673 182.495C133.324 182.317 132.893 182.228 132.381 182.228C131.902 182.228 131.482 182.31 131.119 182.474C130.764 182.638 130.484 182.854 130.279 183.12C130.08 183.387 129.981 183.674 129.981 183.981H128.084C128.084 183.585 128.187 183.192 128.392 182.802C128.597 182.413 128.891 182.061 129.274 181.746C129.663 181.425 130.128 181.172 130.668 180.987C131.215 180.796 131.823 180.7 132.493 180.7C133.3 180.7 134.011 180.837 134.626 181.11C135.248 181.384 135.734 181.797 136.082 182.351C136.438 182.898 136.615 183.585 136.615 184.412V189.58C136.615 189.949 136.646 190.342 136.708 190.759C136.776 191.176 136.875 191.535 137.005 191.836V192H135.026C134.93 191.781 134.855 191.491 134.8 191.128C134.746 190.759 134.718 190.417 134.718 190.103ZM135.047 185.273L135.067 186.606H133.15C132.61 186.606 132.128 186.651 131.704 186.74C131.28 186.822 130.925 186.948 130.637 187.119C130.35 187.29 130.132 187.505 129.981 187.765C129.831 188.018 129.756 188.315 129.756 188.657C129.756 189.006 129.834 189.324 129.991 189.611C130.149 189.898 130.384 190.127 130.699 190.298C131.02 190.462 131.413 190.544 131.878 190.544C132.459 190.544 132.972 190.421 133.416 190.175C133.861 189.929 134.213 189.628 134.472 189.272C134.739 188.917 134.883 188.572 134.903 188.237L135.713 189.149C135.665 189.437 135.535 189.754 135.323 190.103C135.112 190.452 134.828 190.787 134.472 191.108C134.124 191.422 133.707 191.686 133.221 191.897C132.743 192.103 132.203 192.205 131.601 192.205C130.849 192.205 130.19 192.058 129.622 191.764C129.062 191.47 128.624 191.077 128.31 190.585C128.002 190.086 127.848 189.529 127.848 188.914C127.848 188.319 127.965 187.796 128.197 187.345C128.429 186.887 128.764 186.507 129.202 186.207C129.639 185.899 130.166 185.667 130.781 185.509C131.396 185.352 132.083 185.273 132.842 185.273H135.047ZM144.874 180.905V182.361H138.876V180.905H144.874ZM140.906 178.208H142.803V189.252C142.803 189.628 142.861 189.912 142.977 190.103C143.094 190.294 143.244 190.421 143.429 190.482C143.613 190.544 143.811 190.575 144.023 190.575C144.18 190.575 144.345 190.561 144.515 190.534C144.693 190.5 144.826 190.472 144.915 190.452L144.926 192C144.775 192.048 144.577 192.092 144.331 192.133C144.092 192.181 143.801 192.205 143.459 192.205C142.994 192.205 142.567 192.113 142.178 191.928C141.788 191.744 141.477 191.436 141.244 191.005C141.019 190.568 140.906 189.98 140.906 189.242V178.208ZM147.022 186.576V186.34C147.022 185.54 147.138 184.798 147.371 184.115C147.603 183.424 147.938 182.826 148.375 182.32C148.813 181.808 149.343 181.411 149.965 181.131C150.587 180.844 151.284 180.7 152.057 180.7C152.836 180.7 153.537 180.844 154.159 181.131C154.788 181.411 155.321 181.808 155.758 182.32C156.203 182.826 156.541 183.424 156.773 184.115C157.006 184.798 157.122 185.54 157.122 186.34V186.576C157.122 187.375 157.006 188.117 156.773 188.801C156.541 189.484 156.203 190.083 155.758 190.595C155.321 191.101 154.791 191.498 154.169 191.785C153.554 192.065 152.856 192.205 152.077 192.205C151.298 192.205 150.597 192.065 149.975 191.785C149.353 191.498 148.82 191.101 148.375 190.595C147.938 190.083 147.603 189.484 147.371 188.801C147.138 188.117 147.022 187.375 147.022 186.576ZM148.919 186.34V186.576C148.919 187.129 148.984 187.652 149.114 188.145C149.244 188.63 149.438 189.061 149.698 189.437C149.965 189.812 150.296 190.11 150.693 190.329C151.089 190.541 151.551 190.646 152.077 190.646C152.597 190.646 153.051 190.541 153.441 190.329C153.837 190.11 154.165 189.812 154.425 189.437C154.685 189.061 154.88 188.63 155.01 188.145C155.146 187.652 155.215 187.129 155.215 186.576V186.34C155.215 185.793 155.146 185.277 155.01 184.792C154.88 184.299 154.682 183.865 154.415 183.489C154.155 183.106 153.827 182.806 153.431 182.587C153.041 182.368 152.583 182.259 152.057 182.259C151.537 182.259 151.079 182.368 150.683 182.587C150.293 182.806 149.965 183.106 149.698 183.489C149.438 183.865 149.244 184.299 149.114 184.792C148.984 185.277 148.919 185.793 148.919 186.34ZM162.028 182.648V192H160.131V180.905H161.977L162.028 182.648ZM165.494 180.844L165.483 182.607C165.326 182.573 165.176 182.553 165.032 182.546C164.896 182.532 164.738 182.525 164.561 182.525C164.123 182.525 163.737 182.594 163.402 182.73C163.067 182.867 162.783 183.059 162.551 183.305C162.318 183.551 162.134 183.845 161.997 184.187C161.867 184.521 161.782 184.891 161.741 185.294L161.208 185.602C161.208 184.932 161.273 184.303 161.402 183.715C161.539 183.127 161.748 182.607 162.028 182.156C162.308 181.698 162.664 181.343 163.094 181.09C163.532 180.83 164.051 180.7 164.653 180.7C164.79 180.7 164.947 180.717 165.125 180.751C165.302 180.779 165.425 180.81 165.494 180.844ZM174.337 189.057C174.337 188.784 174.276 188.531 174.153 188.298C174.036 188.059 173.794 187.844 173.424 187.652C173.062 187.454 172.515 187.283 171.784 187.14C171.169 187.01 170.612 186.856 170.112 186.678C169.62 186.5 169.2 186.285 168.851 186.032C168.509 185.779 168.246 185.482 168.062 185.14C167.877 184.798 167.785 184.398 167.785 183.94C167.785 183.503 167.881 183.089 168.072 182.7C168.27 182.31 168.547 181.965 168.903 181.664C169.265 181.363 169.699 181.127 170.205 180.957C170.711 180.786 171.275 180.7 171.897 180.7C172.785 180.7 173.544 180.857 174.173 181.172C174.802 181.486 175.284 181.907 175.619 182.433C175.954 182.953 176.121 183.53 176.121 184.166H174.224C174.224 183.858 174.132 183.561 173.947 183.274C173.77 182.98 173.507 182.737 173.158 182.546C172.816 182.354 172.396 182.259 171.897 182.259C171.37 182.259 170.943 182.341 170.615 182.505C170.294 182.662 170.058 182.864 169.907 183.11C169.764 183.356 169.692 183.616 169.692 183.889C169.692 184.094 169.726 184.279 169.795 184.443C169.87 184.6 170 184.747 170.184 184.884C170.369 185.014 170.629 185.137 170.964 185.253C171.299 185.369 171.726 185.485 172.245 185.602C173.154 185.807 173.903 186.053 174.491 186.34C175.079 186.627 175.516 186.979 175.803 187.396C176.091 187.813 176.234 188.319 176.234 188.914C176.234 189.399 176.132 189.843 175.926 190.247C175.728 190.65 175.438 190.999 175.055 191.292C174.679 191.58 174.228 191.805 173.701 191.969C173.182 192.126 172.597 192.205 171.948 192.205C170.97 192.205 170.143 192.031 169.466 191.682C168.79 191.333 168.277 190.882 167.928 190.329C167.58 189.775 167.405 189.19 167.405 188.575H169.313C169.34 189.095 169.49 189.508 169.764 189.816C170.037 190.117 170.372 190.332 170.769 190.462C171.165 190.585 171.558 190.646 171.948 190.646C172.467 190.646 172.902 190.578 173.25 190.441C173.606 190.305 173.876 190.117 174.06 189.877C174.245 189.638 174.337 189.365 174.337 189.057ZM181.078 189.744V191.272C181.078 191.894 180.921 192.55 180.607 193.241C180.292 193.938 179.851 194.519 179.284 194.984L178.207 194.235C178.426 193.935 178.611 193.627 178.761 193.312C178.911 193.005 179.024 192.684 179.099 192.349C179.181 192.021 179.222 191.672 179.222 191.303V189.744H181.078ZM196.509 190.103V184.392C196.509 183.954 196.42 183.575 196.243 183.253C196.072 182.925 195.812 182.672 195.463 182.495C195.115 182.317 194.684 182.228 194.171 182.228C193.693 182.228 193.272 182.31 192.91 182.474C192.555 182.638 192.274 182.854 192.069 183.12C191.871 183.387 191.772 183.674 191.772 183.981H189.875C189.875 183.585 189.978 183.192 190.183 182.802C190.388 182.413 190.682 182.061 191.064 181.746C191.454 181.425 191.919 181.172 192.459 180.987C193.006 180.796 193.614 180.7 194.284 180.7C195.091 180.7 195.802 180.837 196.417 181.11C197.039 181.384 197.524 181.797 197.873 182.351C198.229 182.898 198.406 183.585 198.406 184.412V189.58C198.406 189.949 198.437 190.342 198.499 190.759C198.567 191.176 198.666 191.535 198.796 191.836V192H196.817C196.721 191.781 196.646 191.491 196.591 191.128C196.537 190.759 196.509 190.417 196.509 190.103ZM196.837 185.273L196.858 186.606H194.94C194.4 186.606 193.918 186.651 193.495 186.74C193.071 186.822 192.715 186.948 192.428 187.119C192.141 187.29 191.922 187.505 191.772 187.765C191.622 188.018 191.546 188.315 191.546 188.657C191.546 189.006 191.625 189.324 191.782 189.611C191.939 189.898 192.175 190.127 192.49 190.298C192.811 190.462 193.204 190.544 193.669 190.544C194.25 190.544 194.763 190.421 195.207 190.175C195.651 189.929 196.003 189.628 196.263 189.272C196.53 188.917 196.673 188.572 196.694 188.237L197.504 189.149C197.456 189.437 197.326 189.754 197.114 190.103C196.902 190.452 196.619 190.787 196.263 191.108C195.915 191.422 195.498 191.686 195.012 191.897C194.534 192.103 193.994 192.205 193.392 192.205C192.64 192.205 191.98 192.058 191.413 191.764C190.853 191.47 190.415 191.077 190.101 190.585C189.793 190.086 189.639 189.529 189.639 188.914C189.639 188.319 189.755 187.796 189.988 187.345C190.22 186.887 190.555 186.507 190.993 186.207C191.43 185.899 191.957 185.667 192.572 185.509C193.187 185.352 193.874 185.273 194.633 185.273H196.837ZM203.917 183.274V192H202.02V180.905H203.815L203.917 183.274ZM203.466 186.032L202.676 186.001C202.683 185.243 202.796 184.542 203.015 183.899C203.234 183.25 203.541 182.686 203.938 182.208C204.334 181.729 204.806 181.36 205.353 181.1C205.906 180.833 206.518 180.7 207.188 180.7C207.735 180.7 208.227 180.775 208.665 180.926C209.102 181.069 209.475 181.302 209.782 181.623C210.097 181.944 210.336 182.361 210.5 182.874C210.664 183.38 210.746 183.999 210.746 184.73V192H208.839V184.709C208.839 184.128 208.754 183.664 208.583 183.315C208.412 182.959 208.162 182.703 207.834 182.546C207.506 182.382 207.103 182.3 206.624 182.3C206.152 182.3 205.722 182.399 205.332 182.597C204.949 182.795 204.618 183.069 204.338 183.417C204.064 183.766 203.849 184.166 203.692 184.617C203.541 185.062 203.466 185.533 203.466 186.032ZM221.251 189.847V176.25H223.158V192H221.415L221.251 189.847ZM213.786 186.576V186.36C213.786 185.513 213.888 184.744 214.094 184.053C214.305 183.356 214.603 182.758 214.986 182.259C215.375 181.76 215.837 181.377 216.37 181.11C216.91 180.837 217.512 180.7 218.175 180.7C218.872 180.7 219.48 180.823 220 181.069C220.526 181.309 220.97 181.661 221.333 182.125C221.702 182.583 221.992 183.137 222.204 183.787C222.416 184.436 222.563 185.171 222.645 185.991V186.935C222.57 187.748 222.423 188.479 222.204 189.129C221.992 189.778 221.702 190.332 221.333 190.79C220.97 191.248 220.526 191.6 220 191.846C219.473 192.085 218.858 192.205 218.154 192.205C217.505 192.205 216.91 192.065 216.37 191.785C215.837 191.504 215.375 191.111 214.986 190.605C214.603 190.1 214.305 189.505 214.094 188.821C213.888 188.131 213.786 187.382 213.786 186.576ZM215.693 186.36V186.576C215.693 187.129 215.748 187.649 215.857 188.134C215.973 188.62 216.151 189.047 216.39 189.416C216.63 189.785 216.934 190.076 217.303 190.288C217.672 190.493 218.113 190.595 218.626 190.595C219.255 190.595 219.771 190.462 220.174 190.195C220.584 189.929 220.912 189.577 221.158 189.139C221.405 188.702 221.596 188.227 221.733 187.714V185.243C221.651 184.867 221.531 184.504 221.374 184.156C221.223 183.8 221.025 183.486 220.779 183.212C220.54 182.932 220.242 182.71 219.887 182.546C219.538 182.382 219.125 182.3 218.646 182.3C218.127 182.3 217.679 182.409 217.303 182.628C216.934 182.84 216.63 183.134 216.39 183.51C216.151 183.879 215.973 184.31 215.857 184.802C215.748 185.287 215.693 185.807 215.693 186.36ZM81.1324 213.646C81.5835 213.646 82.0005 213.554 82.3833 213.37C82.7662 213.185 83.0806 212.932 83.3267 212.611C83.5728 212.283 83.7129 211.91 83.7471 211.493H85.5518C85.5176 212.149 85.2954 212.761 84.8853 213.329C84.482 213.889 83.9522 214.344 83.2959 214.692C82.6397 215.034 81.9185 215.205 81.1324 215.205C80.2984 215.205 79.5704 215.058 78.9483 214.764C78.333 214.47 77.8204 214.067 77.4102 213.554C77.0069 213.042 76.7027 212.454 76.4976 211.791C76.2994 211.121 76.2002 210.413 76.2002 209.668V209.237C76.2002 208.492 76.2994 207.788 76.4976 207.125C76.7027 206.455 77.0069 205.864 77.4102 205.351C77.8204 204.838 78.333 204.435 78.9483 204.141C79.5704 203.847 80.2984 203.7 81.1324 203.7C82.0005 203.7 82.7593 203.878 83.4087 204.233C84.0581 204.582 84.5674 205.061 84.9366 205.669C85.3125 206.271 85.5176 206.954 85.5518 207.72H83.7471C83.7129 207.262 83.583 206.848 83.3575 206.479C83.1387 206.11 82.8379 205.816 82.4551 205.597C82.0791 205.372 81.6382 205.259 81.1324 205.259C80.5513 205.259 80.0625 205.375 79.6661 205.607C79.2764 205.833 78.9654 206.141 78.7329 206.53C78.5074 206.913 78.3433 207.34 78.2408 207.812C78.1451 208.277 78.0972 208.752 78.0972 209.237V209.668C78.0972 210.153 78.1451 210.632 78.2408 211.104C78.3365 211.575 78.4971 212.002 78.7227 212.385C78.9551 212.768 79.2662 213.076 79.6558 213.308C80.0523 213.534 80.5445 213.646 81.1324 213.646ZM94.8566 213.103V207.392C94.8566 206.954 94.7677 206.575 94.59 206.253C94.4191 205.925 94.1593 205.672 93.8107 205.495C93.4621 205.317 93.0314 205.228 92.5187 205.228C92.0402 205.228 91.6198 205.31 91.2575 205.474C90.902 205.638 90.6217 205.854 90.4167 206.12C90.2184 206.387 90.1193 206.674 90.1193 206.981H88.2223C88.2223 206.585 88.3249 206.192 88.5299 205.802C88.735 205.413 89.029 205.061 89.4118 204.746C89.8014 204.425 90.2663 204.172 90.8063 203.987C91.3532 203.796 91.9616 203.7 92.6315 203.7C93.4381 203.7 94.1491 203.837 94.7643 204.11C95.3864 204.384 95.8717 204.797 96.2204 205.351C96.5758 205.898 96.7536 206.585 96.7536 207.412V212.58C96.7536 212.949 96.7843 213.342 96.8459 213.759C96.9142 214.176 97.0133 214.535 97.1432 214.836V215H95.1642C95.0685 214.781 94.9933 214.491 94.9386 214.128C94.8839 213.759 94.8566 213.417 94.8566 213.103ZM95.1847 208.273L95.2052 209.606H93.2878C92.7477 209.606 92.2658 209.651 91.842 209.74C91.4181 209.822 91.0627 209.948 90.7755 210.119C90.4884 210.29 90.2697 210.505 90.1193 210.765C89.9689 211.018 89.8937 211.315 89.8937 211.657C89.8937 212.006 89.9723 212.324 90.1296 212.611C90.2868 212.898 90.5226 213.127 90.8371 213.298C91.1584 213.462 91.5514 213.544 92.0163 213.544C92.5973 213.544 93.11 213.421 93.5544 213.175C93.9987 212.929 94.3507 212.628 94.6105 212.272C94.8771 211.917 95.0207 211.572 95.0412 211.237L95.8512 212.149C95.8034 212.437 95.6735 212.754 95.4616 213.103C95.2497 213.452 94.966 213.787 94.6105 214.108C94.2619 214.422 93.8449 214.686 93.3595 214.897C92.881 215.103 92.341 215.205 91.7394 215.205C90.9875 215.205 90.3278 215.058 89.7604 214.764C89.1999 214.47 88.7624 214.077 88.4479 213.585C88.1403 213.086 87.9865 212.529 87.9865 211.914C87.9865 211.319 88.1027 210.796 88.3351 210.345C88.5675 209.887 88.9025 209.507 89.34 209.207C89.7775 208.899 90.3039 208.667 90.9191 208.509C91.5343 208.352 92.2213 208.273 92.9801 208.273H95.1847ZM102.264 206.038V219.266H100.357V203.905H102.1L102.264 206.038ZM109.74 209.36V209.576C109.74 210.382 109.644 211.131 109.452 211.821C109.261 212.505 108.981 213.1 108.612 213.605C108.249 214.111 107.802 214.504 107.268 214.785C106.735 215.065 106.123 215.205 105.433 215.205C104.729 215.205 104.107 215.089 103.567 214.856C103.027 214.624 102.569 214.286 102.193 213.841C101.817 213.397 101.516 212.864 101.29 212.242C101.072 211.62 100.921 210.919 100.839 210.14V208.991C100.921 208.171 101.075 207.436 101.301 206.787C101.526 206.137 101.824 205.583 102.193 205.125C102.569 204.661 103.023 204.309 103.556 204.069C104.09 203.823 104.705 203.7 105.402 203.7C106.099 203.7 106.718 203.837 107.258 204.11C107.798 204.377 108.253 204.76 108.622 205.259C108.991 205.758 109.268 206.356 109.452 207.053C109.644 207.744 109.74 208.513 109.74 209.36ZM107.832 209.576V209.36C107.832 208.807 107.774 208.287 107.658 207.802C107.542 207.31 107.361 206.879 107.115 206.51C106.875 206.134 106.568 205.84 106.192 205.628C105.816 205.409 105.368 205.3 104.848 205.3C104.37 205.3 103.953 205.382 103.597 205.546C103.249 205.71 102.951 205.932 102.705 206.212C102.459 206.486 102.258 206.8 102.1 207.156C101.95 207.504 101.837 207.867 101.762 208.243V210.898C101.899 211.377 102.09 211.828 102.336 212.252C102.582 212.669 102.91 213.007 103.321 213.267C103.731 213.52 104.247 213.646 104.869 213.646C105.382 213.646 105.823 213.541 106.192 213.329C106.568 213.11 106.875 212.812 107.115 212.437C107.361 212.061 107.542 211.63 107.658 211.145C107.774 210.652 107.832 210.129 107.832 209.576ZM114.85 203.905V215H112.943V203.905H114.85ZM112.8 200.962C112.8 200.655 112.892 200.395 113.077 200.183C113.268 199.971 113.548 199.865 113.917 199.865C114.28 199.865 114.557 199.971 114.748 200.183C114.946 200.395 115.045 200.655 115.045 200.962C115.045 201.256 114.946 201.509 114.748 201.721C114.557 201.926 114.28 202.029 113.917 202.029C113.548 202.029 113.268 201.926 113.077 201.721C112.892 201.509 112.8 201.256 112.8 200.962ZM123.171 203.905V205.361H117.172V203.905H123.171ZM119.203 201.208H121.1V212.252C121.1 212.628 121.158 212.912 121.274 213.103C121.39 213.294 121.541 213.421 121.725 213.482C121.91 213.544 122.108 213.575 122.32 213.575C122.477 213.575 122.641 213.561 122.812 213.534C122.99 213.5 123.123 213.472 123.212 213.452L123.222 215C123.072 215.048 122.874 215.092 122.627 215.133C122.388 215.181 122.098 215.205 121.756 215.205C121.291 215.205 120.864 215.113 120.474 214.928C120.084 214.744 119.773 214.436 119.541 214.005C119.315 213.568 119.203 212.98 119.203 212.242V201.208ZM132.568 213.103V207.392C132.568 206.954 132.479 206.575 132.301 206.253C132.131 205.925 131.871 205.672 131.522 205.495C131.173 205.317 130.743 205.228 130.23 205.228C129.752 205.228 129.331 205.31 128.969 205.474C128.613 205.638 128.333 205.854 128.128 206.12C127.93 206.387 127.831 206.674 127.831 206.981H125.934C125.934 206.585 126.036 206.192 126.241 205.802C126.446 205.413 126.74 205.061 127.123 204.746C127.513 204.425 127.978 204.172 128.518 203.987C129.065 203.796 129.673 203.7 130.343 203.7C131.15 203.7 131.86 203.837 132.476 204.11C133.098 204.384 133.583 204.797 133.932 205.351C134.287 205.898 134.465 206.585 134.465 207.412V212.58C134.465 212.949 134.496 213.342 134.557 213.759C134.626 214.176 134.725 214.535 134.855 214.836V215H132.876C132.78 214.781 132.705 214.491 132.65 214.128C132.595 213.759 132.568 213.417 132.568 213.103ZM132.896 208.273L132.917 209.606H130.999C130.459 209.606 129.977 209.651 129.553 209.74C129.13 209.822 128.774 209.948 128.487 210.119C128.2 210.29 127.981 210.505 127.831 210.765C127.68 211.018 127.605 211.315 127.605 211.657C127.605 212.006 127.684 212.324 127.841 212.611C127.998 212.898 128.234 213.127 128.548 213.298C128.87 213.462 129.263 213.544 129.728 213.544C130.309 213.544 130.821 213.421 131.266 213.175C131.71 212.929 132.062 212.628 132.322 212.272C132.589 211.917 132.732 211.572 132.753 211.237L133.563 212.149C133.515 212.437 133.385 212.754 133.173 213.103C132.961 213.452 132.677 213.787 132.322 214.108C131.973 214.422 131.556 214.686 131.071 214.897C130.592 215.103 130.052 215.205 129.451 215.205C128.699 215.205 128.039 215.058 127.472 214.764C126.911 214.47 126.474 214.077 126.159 213.585C125.852 213.086 125.698 212.529 125.698 211.914C125.698 211.319 125.814 210.796 126.047 210.345C126.279 209.887 126.614 209.507 127.051 209.207C127.489 208.899 128.015 208.667 128.631 208.509C129.246 208.352 129.933 208.273 130.692 208.273H132.896ZM140.14 199.25V215H138.233V199.25H140.14ZM154.299 203.905V205.361H148.301V203.905H154.299ZM150.331 201.208H152.228V212.252C152.228 212.628 152.286 212.912 152.402 213.103C152.519 213.294 152.669 213.421 152.854 213.482C153.038 213.544 153.236 213.575 153.448 213.575C153.605 213.575 153.77 213.561 153.94 213.534C154.118 213.5 154.251 213.472 154.34 213.452L154.351 215C154.2 215.048 154.002 215.092 153.756 215.133C153.517 215.181 153.226 215.205 152.884 215.205C152.419 215.205 151.992 215.113 151.603 214.928C151.213 214.744 150.902 214.436 150.669 214.005C150.444 213.568 150.331 212.98 150.331 212.242V201.208ZM156.447 209.576V209.34C156.447 208.54 156.563 207.798 156.796 207.115C157.028 206.424 157.363 205.826 157.8 205.32C158.238 204.808 158.768 204.411 159.39 204.131C160.012 203.844 160.709 203.7 161.482 203.7C162.261 203.7 162.962 203.844 163.584 204.131C164.213 204.411 164.746 204.808 165.183 205.32C165.628 205.826 165.966 206.424 166.198 207.115C166.431 207.798 166.547 208.54 166.547 209.34V209.576C166.547 210.375 166.431 211.117 166.198 211.801C165.966 212.484 165.628 213.083 165.183 213.595C164.746 214.101 164.216 214.498 163.594 214.785C162.979 215.065 162.281 215.205 161.502 215.205C160.723 215.205 160.022 215.065 159.4 214.785C158.778 214.498 158.245 214.101 157.8 213.595C157.363 213.083 157.028 212.484 156.796 211.801C156.563 211.117 156.447 210.375 156.447 209.576ZM158.344 209.34V209.576C158.344 210.129 158.409 210.652 158.539 211.145C158.669 211.63 158.863 212.061 159.123 212.437C159.39 212.812 159.721 213.11 160.118 213.329C160.514 213.541 160.976 213.646 161.502 213.646C162.022 213.646 162.476 213.541 162.866 213.329C163.262 213.11 163.59 212.812 163.85 212.437C164.11 212.061 164.305 211.63 164.435 211.145C164.571 210.652 164.64 210.129 164.64 209.576V209.34C164.64 208.793 164.571 208.277 164.435 207.792C164.305 207.299 164.107 206.865 163.84 206.489C163.58 206.106 163.252 205.806 162.856 205.587C162.466 205.368 162.008 205.259 161.482 205.259C160.962 205.259 160.504 205.368 160.108 205.587C159.718 205.806 159.39 206.106 159.123 206.489C158.863 206.865 158.669 207.299 158.539 207.792C158.409 208.277 158.344 208.793 158.344 209.34ZM175.385 199.25H177.292V212.847L177.128 215H175.385V199.25ZM184.787 209.36V209.576C184.787 210.382 184.692 211.131 184.5 211.821C184.309 212.505 184.029 213.1 183.66 213.605C183.29 214.111 182.839 214.504 182.306 214.785C181.773 215.065 181.161 215.205 180.471 215.205C179.766 215.205 179.148 215.085 178.615 214.846C178.088 214.6 177.644 214.248 177.282 213.79C176.919 213.332 176.629 212.778 176.41 212.129C176.198 211.479 176.051 210.748 175.969 209.935V208.991C176.051 208.171 176.198 207.436 176.41 206.787C176.629 206.137 176.919 205.583 177.282 205.125C177.644 204.661 178.088 204.309 178.615 204.069C179.141 203.823 179.753 203.7 180.45 203.7C181.147 203.7 181.766 203.837 182.306 204.11C182.846 204.377 183.297 204.76 183.66 205.259C184.029 205.758 184.309 206.356 184.5 207.053C184.692 207.744 184.787 208.513 184.787 209.36ZM182.88 209.576V209.36C182.88 208.807 182.829 208.287 182.726 207.802C182.624 207.31 182.46 206.879 182.234 206.51C182.009 206.134 181.711 205.84 181.342 205.628C180.973 205.409 180.518 205.3 179.978 205.3C179.5 205.3 179.083 205.382 178.727 205.546C178.379 205.71 178.081 205.932 177.835 206.212C177.589 206.486 177.388 206.8 177.23 207.156C177.08 207.504 176.967 207.867 176.892 208.243V210.714C177.001 211.192 177.179 211.654 177.425 212.098C177.678 212.536 178.013 212.895 178.43 213.175C178.854 213.455 179.377 213.595 179.999 213.595C180.512 213.595 180.949 213.493 181.311 213.288C181.681 213.076 181.978 212.785 182.203 212.416C182.436 212.047 182.607 211.62 182.716 211.134C182.826 210.649 182.88 210.129 182.88 209.576ZM194.605 212.437V203.905H196.512V215H194.697L194.605 212.437ZM194.964 210.099L195.753 210.078C195.753 210.816 195.675 211.5 195.518 212.129C195.367 212.751 195.121 213.291 194.779 213.749C194.437 214.207 193.99 214.566 193.436 214.826C192.882 215.079 192.209 215.205 191.416 215.205C190.876 215.205 190.38 215.126 189.929 214.969C189.485 214.812 189.102 214.569 188.781 214.241C188.459 213.913 188.21 213.486 188.032 212.959C187.861 212.433 187.776 211.801 187.776 211.062V203.905H189.673V211.083C189.673 211.582 189.728 211.996 189.837 212.324C189.953 212.645 190.107 212.901 190.298 213.093C190.497 213.277 190.715 213.407 190.955 213.482C191.201 213.558 191.454 213.595 191.713 213.595C192.52 213.595 193.159 213.441 193.631 213.134C194.103 212.819 194.441 212.399 194.646 211.873C194.858 211.339 194.964 210.748 194.964 210.099ZM202.095 203.905V215H200.188V203.905H202.095ZM200.044 200.962C200.044 200.655 200.136 200.395 200.321 200.183C200.512 199.971 200.793 199.865 201.162 199.865C201.524 199.865 201.801 199.971 201.992 200.183C202.191 200.395 202.29 200.655 202.29 200.962C202.29 201.256 202.191 201.509 201.992 201.721C201.801 201.926 201.524 202.029 201.162 202.029C200.793 202.029 200.512 201.926 200.321 201.721C200.136 201.509 200.044 201.256 200.044 200.962ZM207.831 199.25V215H205.924V199.25H207.831ZM218.5 212.847V199.25H220.407V215H218.664L218.5 212.847ZM211.035 209.576V209.36C211.035 208.513 211.138 207.744 211.343 207.053C211.555 206.356 211.852 205.758 212.235 205.259C212.624 204.76 213.086 204.377 213.619 204.11C214.159 203.837 214.761 203.7 215.424 203.7C216.121 203.7 216.729 203.823 217.249 204.069C217.775 204.309 218.22 204.661 218.582 205.125C218.951 205.583 219.242 206.137 219.453 206.787C219.665 207.436 219.812 208.171 219.894 208.991V209.935C219.819 210.748 219.672 211.479 219.453 212.129C219.242 212.778 218.951 213.332 218.582 213.79C218.22 214.248 217.775 214.6 217.249 214.846C216.723 215.085 216.107 215.205 215.403 215.205C214.754 215.205 214.159 215.065 213.619 214.785C213.086 214.504 212.624 214.111 212.235 213.605C211.852 213.1 211.555 212.505 211.343 211.821C211.138 211.131 211.035 210.382 211.035 209.576ZM212.942 209.36V209.576C212.942 210.129 212.997 210.649 213.106 211.134C213.223 211.62 213.4 212.047 213.639 212.416C213.879 212.785 214.183 213.076 214.552 213.288C214.921 213.493 215.362 213.595 215.875 213.595C216.504 213.595 217.02 213.462 217.423 213.195C217.833 212.929 218.161 212.577 218.408 212.139C218.654 211.702 218.845 211.227 218.982 210.714V208.243C218.9 207.867 218.78 207.504 218.623 207.156C218.473 206.8 218.274 206.486 218.028 206.212C217.789 205.932 217.492 205.71 217.136 205.546C216.787 205.382 216.374 205.3 215.895 205.3C215.376 205.3 214.928 205.409 214.552 205.628C214.183 205.84 213.879 206.134 213.639 206.51C213.4 206.879 213.223 207.31 213.106 207.802C212.997 208.287 212.942 208.807 212.942 209.36ZM84.4415 235.057C84.4415 234.784 84.38 234.531 84.2569 234.298C84.1407 234.059 83.898 233.844 83.5289 233.652C83.1666 233.454 82.6197 233.283 81.8883 233.14C81.273 233.01 80.7159 232.856 80.2169 232.678C79.7247 232.5 79.3043 232.285 78.9557 232.032C78.6139 231.779 78.3507 231.482 78.1661 231.14C77.9815 230.798 77.8893 230.398 77.8893 229.94C77.8893 229.503 77.985 229.089 78.1764 228.7C78.3746 228.31 78.6515 227.965 79.0069 227.664C79.3692 227.363 79.8033 227.127 80.3092 226.957C80.815 226.786 81.379 226.7 82.0011 226.7C82.8897 226.7 83.6485 226.857 84.2774 227.172C84.9063 227.486 85.3883 227.907 85.7232 228.433C86.0582 228.953 86.2257 229.53 86.2257 230.166H84.3287C84.3287 229.858 84.2364 229.561 84.0519 229.274C83.8741 228.98 83.6109 228.737 83.2623 228.546C82.9205 228.354 82.5001 228.259 82.0011 228.259C81.4747 228.259 81.0475 228.341 80.7193 228.505C80.398 228.662 80.1622 228.864 80.0118 229.11C79.8683 229.356 79.7965 229.616 79.7965 229.889C79.7965 230.094 79.8307 230.279 79.899 230.443C79.9742 230.6 80.1041 230.747 80.2887 230.884C80.4732 231.014 80.733 231.137 81.068 231.253C81.4029 231.369 81.8302 231.485 82.3497 231.602C83.2589 231.807 84.0074 232.053 84.5953 232.34C85.1832 232.627 85.6207 232.979 85.9078 233.396C86.1949 233.813 86.3385 234.319 86.3385 234.914C86.3385 235.399 86.2359 235.843 86.0309 236.247C85.8326 236.65 85.5421 236.999 85.1593 237.292C84.7833 237.58 84.3321 237.805 83.8058 237.969C83.2862 238.126 82.7018 238.205 82.0523 238.205C81.0748 238.205 80.2477 238.031 79.5709 237.682C78.8941 237.333 78.3814 236.882 78.0328 236.329C77.6842 235.775 77.5099 235.19 77.5099 234.575H79.4171C79.4444 235.095 79.5948 235.508 79.8683 235.816C80.1417 236.117 80.4767 236.332 80.8731 236.462C81.2696 236.585 81.6627 236.646 82.0523 236.646C82.5719 236.646 83.006 236.578 83.3546 236.441C83.7101 236.305 83.9801 236.117 84.1646 235.877C84.3492 235.638 84.4415 235.365 84.4415 235.057ZM91.3469 229.11V238H89.4397V226.905H91.2444L91.3469 229.11ZM90.9572 232.032L90.0754 232.001C90.0822 231.243 90.1814 230.542 90.3728 229.899C90.5642 229.25 90.8479 228.686 91.2239 228.208C91.5998 227.729 92.0681 227.36 92.6286 227.1C93.1892 226.833 93.8386 226.7 94.5769 226.7C95.0964 226.7 95.5749 226.775 96.0124 226.926C96.4499 227.069 96.8293 227.298 97.1506 227.613C97.4719 227.927 97.7214 228.331 97.8991 228.823C98.0769 229.315 98.1657 229.91 98.1657 230.607V238H96.2688V230.699C96.2688 230.118 96.1697 229.653 95.9714 229.305C95.78 228.956 95.5066 228.703 95.1511 228.546C94.7956 228.382 94.3786 228.3 93.9001 228.3C93.3396 228.3 92.8713 228.399 92.4953 228.597C92.1194 228.795 91.8186 229.069 91.593 229.417C91.3674 229.766 91.2033 230.166 91.1008 230.617C91.0051 231.062 90.9572 231.533 90.9572 232.032ZM98.1452 230.986L96.8738 231.376C96.8806 230.768 96.9797 230.183 97.1711 229.623C97.3694 229.062 97.653 228.563 98.0222 228.125C98.3982 227.688 98.8596 227.343 99.4065 227.09C99.9533 226.83 100.579 226.7 101.283 226.7C101.878 226.7 102.404 226.779 102.862 226.936C103.327 227.093 103.717 227.336 104.031 227.664C104.352 227.985 104.595 228.399 104.759 228.905C104.923 229.411 105.005 230.012 105.005 230.709V238H103.098V230.689C103.098 230.067 102.999 229.585 102.801 229.243C102.609 228.895 102.336 228.652 101.98 228.515C101.632 228.372 101.215 228.3 100.729 228.3C100.312 228.3 99.9431 228.372 99.6218 228.515C99.3005 228.659 99.0305 228.857 98.8117 229.11C98.593 229.356 98.4255 229.64 98.3093 229.961C98.1999 230.282 98.1452 230.624 98.1452 230.986ZM115.048 236.103V230.392C115.048 229.954 114.959 229.575 114.782 229.253C114.611 228.925 114.351 228.672 114.002 228.495C113.654 228.317 113.223 228.228 112.71 228.228C112.232 228.228 111.811 228.31 111.449 228.474C111.094 228.638 110.813 228.854 110.608 229.12C110.41 229.387 110.311 229.674 110.311 229.981H108.414C108.414 229.585 108.516 229.192 108.722 228.802C108.927 228.413 109.221 228.061 109.603 227.746C109.993 227.425 110.458 227.172 110.998 226.987C111.545 226.796 112.153 226.7 112.823 226.7C113.63 226.7 114.341 226.837 114.956 227.11C115.578 227.384 116.063 227.797 116.412 228.351C116.767 228.898 116.945 229.585 116.945 230.412V235.58C116.945 235.949 116.976 236.342 117.037 236.759C117.106 237.176 117.205 237.535 117.335 237.836V238H115.356C115.26 237.781 115.185 237.491 115.13 237.128C115.076 236.759 115.048 236.417 115.048 236.103ZM115.376 231.273L115.397 232.606H113.479C112.939 232.606 112.457 232.651 112.034 232.74C111.61 232.822 111.254 232.948 110.967 233.119C110.68 233.29 110.461 233.505 110.311 233.765C110.16 234.018 110.085 234.315 110.085 234.657C110.085 235.006 110.164 235.324 110.321 235.611C110.478 235.898 110.714 236.127 111.029 236.298C111.35 236.462 111.743 236.544 112.208 236.544C112.789 236.544 113.302 236.421 113.746 236.175C114.19 235.929 114.542 235.628 114.802 235.272C115.069 234.917 115.212 234.572 115.233 234.237L116.043 235.149C115.995 235.437 115.865 235.754 115.653 236.103C115.441 236.452 115.158 236.787 114.802 237.108C114.453 237.422 114.036 237.686 113.551 237.897C113.073 238.103 112.533 238.205 111.931 238.205C111.179 238.205 110.519 238.058 109.952 237.764C109.391 237.47 108.954 237.077 108.639 236.585C108.332 236.086 108.178 235.529 108.178 234.914C108.178 234.319 108.294 233.796 108.527 233.345C108.759 232.887 109.094 232.507 109.532 232.207C109.969 231.899 110.495 231.667 111.111 231.509C111.726 231.352 112.413 231.273 113.172 231.273H115.376ZM122.456 228.648V238H120.559V226.905H122.405L122.456 228.648ZM125.922 226.844L125.912 228.607C125.754 228.573 125.604 228.553 125.46 228.546C125.324 228.532 125.166 228.525 124.989 228.525C124.551 228.525 124.165 228.594 123.83 228.73C123.495 228.867 123.211 229.059 122.979 229.305C122.747 229.551 122.562 229.845 122.425 230.187C122.295 230.521 122.21 230.891 122.169 231.294L121.636 231.602C121.636 230.932 121.701 230.303 121.831 229.715C121.967 229.127 122.176 228.607 122.456 228.156C122.736 227.698 123.092 227.343 123.522 227.09C123.96 226.83 124.479 226.7 125.081 226.7C125.218 226.7 125.375 226.717 125.553 226.751C125.73 226.779 125.853 226.81 125.922 226.844ZM133.463 226.905V228.361H127.464V226.905H133.463ZM129.495 224.208H131.392V235.252C131.392 235.628 131.45 235.912 131.566 236.103C131.682 236.294 131.833 236.421 132.017 236.482C132.202 236.544 132.4 236.575 132.612 236.575C132.769 236.575 132.933 236.561 133.104 236.534C133.282 236.5 133.415 236.472 133.504 236.452L133.514 238C133.364 238.048 133.166 238.092 132.92 238.133C132.68 238.181 132.39 238.205 132.048 238.205C131.583 238.205 131.156 238.113 130.766 237.928C130.377 237.744 130.066 237.436 129.833 237.005C129.607 236.568 129.495 235.98 129.495 235.242V224.208ZM140.922 238.205C140.15 238.205 139.449 238.075 138.82 237.815C138.198 237.549 137.661 237.176 137.21 236.698C136.766 236.219 136.424 235.652 136.185 234.996C135.946 234.339 135.826 233.622 135.826 232.842V232.412C135.826 231.509 135.959 230.706 136.226 230.002C136.492 229.291 136.855 228.689 137.313 228.197C137.771 227.705 138.29 227.333 138.871 227.08C139.452 226.827 140.054 226.7 140.676 226.7C141.469 226.7 142.153 226.837 142.727 227.11C143.308 227.384 143.783 227.767 144.152 228.259C144.521 228.744 144.795 229.318 144.972 229.981C145.15 230.638 145.239 231.355 145.239 232.135V232.986H136.954V231.438H143.342V231.294C143.315 230.802 143.212 230.323 143.034 229.858C142.863 229.394 142.59 229.011 142.214 228.71C141.838 228.409 141.325 228.259 140.676 228.259C140.245 228.259 139.849 228.351 139.487 228.536C139.124 228.713 138.813 228.98 138.553 229.335C138.294 229.691 138.092 230.125 137.948 230.638C137.805 231.15 137.733 231.742 137.733 232.412V232.842C137.733 233.369 137.805 233.864 137.948 234.329C138.099 234.787 138.314 235.19 138.594 235.539C138.882 235.888 139.227 236.161 139.63 236.359C140.04 236.558 140.505 236.657 141.025 236.657C141.695 236.657 142.262 236.52 142.727 236.247C143.192 235.973 143.598 235.607 143.947 235.149L145.095 236.062C144.856 236.424 144.552 236.77 144.183 237.098C143.814 237.426 143.359 237.692 142.819 237.897C142.286 238.103 141.654 238.205 140.922 238.205ZM149.981 228.648V238H148.084V226.905H149.93L149.981 228.648ZM153.447 226.844L153.436 228.607C153.279 228.573 153.129 228.553 152.985 228.546C152.848 228.532 152.691 228.525 152.513 228.525C152.076 228.525 151.69 228.594 151.355 228.73C151.02 228.867 150.736 229.059 150.504 229.305C150.271 229.551 150.087 229.845 149.95 230.187C149.82 230.521 149.735 230.891 149.694 231.294L149.16 231.602C149.16 230.932 149.225 230.303 149.355 229.715C149.492 229.127 149.701 228.607 149.981 228.156C150.261 227.698 150.617 227.343 151.047 227.09C151.485 226.83 152.004 226.7 152.606 226.7C152.743 226.7 152.9 226.717 153.077 226.751C153.255 226.779 153.378 226.81 153.447 226.844ZM156.281 235.744V237.272C156.281 237.894 156.124 238.55 155.81 239.241C155.495 239.938 155.054 240.519 154.487 240.984L153.41 240.235C153.629 239.935 153.813 239.627 153.964 239.312C154.114 239.005 154.227 238.684 154.302 238.349C154.384 238.021 154.425 237.672 154.425 237.303V235.744H156.281ZM168 238H166.103V225.736C166.103 224.937 166.247 224.263 166.534 223.716C166.828 223.163 167.248 222.746 167.795 222.465C168.342 222.178 168.991 222.035 169.743 222.035C169.962 222.035 170.181 222.048 170.4 222.076C170.625 222.103 170.844 222.144 171.056 222.199L170.953 223.747C170.81 223.713 170.646 223.689 170.461 223.675C170.283 223.662 170.106 223.655 169.928 223.655C169.525 223.655 169.176 223.737 168.882 223.901C168.595 224.058 168.376 224.291 168.226 224.598C168.075 224.906 168 225.285 168 225.736V238ZM170.359 226.905V228.361H164.35V226.905H170.359ZM179.643 236.103V230.392C179.643 229.954 179.554 229.575 179.376 229.253C179.205 228.925 178.946 228.672 178.597 228.495C178.248 228.317 177.818 228.228 177.305 228.228C176.826 228.228 176.406 228.31 176.044 228.474C175.688 228.638 175.408 228.854 175.203 229.12C175.005 229.387 174.906 229.674 174.906 229.981H173.009C173.009 229.585 173.111 229.192 173.316 228.802C173.521 228.413 173.815 228.061 174.198 227.746C174.588 227.425 175.053 227.172 175.593 226.987C176.139 226.796 176.748 226.7 177.418 226.7C178.224 226.7 178.935 226.837 179.551 227.11C180.173 227.384 180.658 227.797 181.007 228.351C181.362 228.898 181.54 229.585 181.54 230.412V235.58C181.54 235.949 181.571 236.342 181.632 236.759C181.701 237.176 181.8 237.535 181.93 237.836V238H179.951C179.855 237.781 179.78 237.491 179.725 237.128C179.67 236.759 179.643 236.417 179.643 236.103ZM179.971 231.273L179.992 232.606H178.074C177.534 232.606 177.052 232.651 176.628 232.74C176.204 232.822 175.849 232.948 175.562 233.119C175.275 233.29 175.056 233.505 174.906 233.765C174.755 234.018 174.68 234.315 174.68 234.657C174.68 235.006 174.759 235.324 174.916 235.611C175.073 235.898 175.309 236.127 175.623 236.298C175.945 236.462 176.338 236.544 176.803 236.544C177.384 236.544 177.896 236.421 178.341 236.175C178.785 235.929 179.137 235.628 179.397 235.272C179.663 234.917 179.807 234.572 179.827 234.237L180.638 235.149C180.59 235.437 180.46 235.754 180.248 236.103C180.036 236.452 179.752 236.787 179.397 237.108C179.048 237.422 178.631 237.686 178.146 237.897C177.667 238.103 177.127 238.205 176.526 238.205C175.774 238.205 175.114 238.058 174.547 237.764C173.986 237.47 173.549 237.077 173.234 236.585C172.927 236.086 172.773 235.529 172.773 234.914C172.773 234.319 172.889 233.796 173.121 233.345C173.354 232.887 173.689 232.507 174.126 232.207C174.564 231.899 175.09 231.667 175.705 231.509C176.321 231.352 177.008 231.273 177.766 231.273H179.971ZM191.614 235.057C191.614 234.784 191.552 234.531 191.429 234.298C191.313 234.059 191.07 233.844 190.701 233.652C190.339 233.454 189.792 233.283 189.06 233.14C188.445 233.01 187.888 232.856 187.389 232.678C186.897 232.5 186.476 232.285 186.128 232.032C185.786 231.779 185.523 231.482 185.338 231.14C185.154 230.798 185.061 230.398 185.061 229.94C185.061 229.503 185.157 229.089 185.349 228.7C185.547 228.31 185.824 227.965 186.179 227.664C186.541 227.363 186.976 227.127 187.481 226.957C187.987 226.786 188.551 226.7 189.173 226.7C190.062 226.7 190.821 226.857 191.45 227.172C192.079 227.486 192.56 227.907 192.895 228.433C193.23 228.953 193.398 229.53 193.398 230.166H191.501C191.501 229.858 191.409 229.561 191.224 229.274C191.046 228.98 190.783 228.737 190.434 228.546C190.093 228.354 189.672 228.259 189.173 228.259C188.647 228.259 188.22 228.341 187.892 228.505C187.57 228.662 187.334 228.864 187.184 229.11C187.04 229.356 186.969 229.616 186.969 229.889C186.969 230.094 187.003 230.279 187.071 230.443C187.146 230.6 187.276 230.747 187.461 230.884C187.645 231.014 187.905 231.137 188.24 231.253C188.575 231.369 189.002 231.485 189.522 231.602C190.431 231.807 191.18 232.053 191.768 232.34C192.355 232.627 192.793 232.979 193.08 233.396C193.367 233.813 193.511 234.319 193.511 234.914C193.511 235.399 193.408 235.843 193.203 236.247C193.005 236.65 192.714 236.999 192.331 237.292C191.955 237.58 191.504 237.805 190.978 237.969C190.458 238.126 189.874 238.205 189.225 238.205C188.247 238.205 187.42 238.031 186.743 237.682C186.066 237.333 185.554 236.882 185.205 236.329C184.856 235.775 184.682 235.19 184.682 234.575H186.589C186.617 235.095 186.767 235.508 187.04 235.816C187.314 236.117 187.649 236.332 188.045 236.462C188.442 236.585 188.835 236.646 189.225 236.646C189.744 236.646 190.178 236.578 190.527 236.441C190.882 236.305 191.152 236.117 191.337 235.877C191.521 235.638 191.614 235.365 191.614 235.057ZM201.277 226.905V228.361H195.279V226.905H201.277ZM197.309 224.208H199.206V235.252C199.206 235.628 199.264 235.912 199.38 236.103C199.497 236.294 199.647 236.421 199.832 236.482C200.016 236.544 200.214 236.575 200.426 236.575C200.584 236.575 200.748 236.561 200.918 236.534C201.096 236.5 201.23 236.472 201.318 236.452L201.329 238C201.178 238.048 200.98 238.092 200.734 238.133C200.495 238.181 200.204 238.205 199.862 238.205C199.397 238.205 198.97 238.113 198.581 237.928C198.191 237.744 197.88 237.436 197.647 237.005C197.422 236.568 197.309 235.98 197.309 235.242V224.208ZM208.736 238.205C207.964 238.205 207.263 238.075 206.634 237.815C206.012 237.549 205.476 237.176 205.025 236.698C204.58 236.219 204.238 235.652 203.999 234.996C203.76 234.339 203.64 233.622 203.64 232.842V232.412C203.64 231.509 203.774 230.706 204.04 230.002C204.307 229.291 204.669 228.689 205.127 228.197C205.585 227.705 206.105 227.333 206.686 227.08C207.267 226.827 207.868 226.7 208.49 226.7C209.283 226.7 209.967 226.837 210.541 227.11C211.122 227.384 211.597 227.767 211.966 228.259C212.336 228.744 212.609 229.318 212.787 229.981C212.965 230.638 213.053 231.355 213.053 232.135V232.986H204.768V231.438H211.156V231.294C211.129 230.802 211.027 230.323 210.849 229.858C210.678 229.394 210.404 229.011 210.028 228.71C209.652 228.409 209.14 228.259 208.49 228.259C208.06 228.259 207.663 228.351 207.301 228.536C206.939 228.713 206.628 228.98 206.368 229.335C206.108 229.691 205.906 230.125 205.763 230.638C205.619 231.15 205.548 231.742 205.548 232.412V232.842C205.548 233.369 205.619 233.864 205.763 234.329C205.913 234.787 206.129 235.19 206.409 235.539C206.696 235.888 207.041 236.161 207.444 236.359C207.855 236.558 208.319 236.657 208.839 236.657C209.509 236.657 210.076 236.52 210.541 236.247C211.006 235.973 211.413 235.607 211.761 235.149L212.91 236.062C212.671 236.424 212.366 236.77 211.997 237.098C211.628 237.426 211.173 237.692 210.633 237.897C210.1 238.103 209.468 238.205 208.736 238.205ZM217.795 228.648V238H215.898V226.905H217.744L217.795 228.648ZM221.261 226.844L221.251 228.607C221.094 228.573 220.943 228.553 220.8 228.546C220.663 228.532 220.506 228.525 220.328 228.525C219.89 228.525 219.504 228.594 219.169 228.73C218.834 228.867 218.551 229.059 218.318 229.305C218.086 229.551 217.901 229.845 217.764 230.187C217.635 230.521 217.549 230.891 217.508 231.294L216.975 231.602C216.975 230.932 217.04 230.303 217.17 229.715C217.306 229.127 217.515 228.607 217.795 228.156C218.075 227.698 218.431 227.343 218.862 227.09C219.299 226.83 219.819 226.7 220.42 226.7C220.557 226.7 220.714 226.717 220.892 226.751C221.07 226.779 221.193 226.81 221.261 226.844ZM222.404 236.995C222.404 236.674 222.503 236.404 222.701 236.185C222.906 235.959 223.2 235.847 223.583 235.847C223.966 235.847 224.256 235.959 224.454 236.185C224.66 236.404 224.762 236.674 224.762 236.995C224.762 237.31 224.66 237.576 224.454 237.795C224.256 238.014 223.966 238.123 223.583 238.123C223.2 238.123 222.906 238.014 222.701 237.795C222.503 237.576 222.404 237.31 222.404 236.995Z" fill="#4F5052"/>
<circle cx="149" cy="57.5127" r="21" fill="#DBE4FF"/>
<g clip-path="url(#clip0_8_85)">
<path d="M170.03 45.9285C169.633 49.5748 167.847 53.1453 164.935 55.8187L159.426 60.3617C159.839 61.0968 159.902 62.0364 159.702 62.9117C159.102 65.5315 155.686 68.3336 153.322 69.5708C152.68 69.9064 152 70.2703 152.03 69.2637L153.094 63.0474L152.722 63.18C151.965 63.516 151.07 64.1859 150.313 64.4445C150.056 64.5323 149.868 64.4969 149.65 64.3911L145.649 59.5579L145.612 59.0832C146.149 58.1509 146.975 57.3499 147.603 56.4631C147.556 56.4108 146.918 56.3787 146.786 56.3722C145.046 56.2843 143.029 56.4704 141.34 56.2645C141.026 56.226 140.853 56.2224 140.731 55.8952C140.648 55.6706 141.123 55.1072 141.288 54.9045C143.314 52.407 147.622 48.8275 150.774 50.2704C150.91 50.3328 151.432 50.68 151.512 50.6457L156.855 46.2451C159.954 43.8549 163.82 42.7674 167.442 43.0188C167.885 43.0494 169.542 43.2233 169.801 43.4466C169.909 43.5391 170.053 43.7252 170.101 43.8625C170.208 44.1728 170.074 45.5173 170.03 45.9285L170.03 45.9285ZM163.077 51.9503C164.088 51.1164 164.313 49.7195 163.579 48.8298C162.846 47.9401 161.432 47.8949 160.42 48.7287C159.409 49.5625 159.184 50.9594 159.918 51.8491C160.651 52.7388 162.065 52.7841 163.077 51.9503Z" fill="#114DFF"/>
<path d="M141.413 66.7938C141.388 66.9237 141.384 67.0539 141.339 67.1847C142.359 67.2199 143.253 67.1892 144.235 66.6625C145.235 66.1254 145.396 65.6658 146.113 64.9709C146.661 64.4402 147.12 64.6963 147.12 65.3501C147.119 66.1102 146.759 67.1726 146.315 67.8497C144.362 70.823 140.613 71.0465 137.627 70.9825C137.494 70.9795 136.785 70.9757 136.74 70.9219C136.732 70.7291 136.771 70.5156 136.804 70.3222C137.097 68.6096 137.722 66.0039 138.767 64.5139C139.957 62.8173 142.043 61.5529 144.032 61.8208C144.392 61.8693 144.846 61.922 144.797 62.4021C144.747 62.8823 144.166 62.9568 143.806 63.1754C142.289 64.0969 141.706 65.2172 141.413 66.7931L141.413 66.7938Z" fill="#114DFF"/>
</g>
<defs>
<filter id="filter0_d_8_85" x="0.4" y="0.4" width="312.2" height="312.2" filterUnits="userSpaceOnUse" color-interpolation-filters="sRGB">
<feFlood flood-opacity="0" result="BackgroundImageFix"/>
<feColorMatrix in="SourceAlpha" type="matrix" values="0 0 0 0 0 0 0 0 0 0 0 0 0 0 0 0 0 0 127 0" result="hardAlpha"/>
<feOffset dx="5" dy="6"/>
<feGaussianBlur stdDeviation="3.3"/>
<feComposite in2="hardAlpha" operator="out"/>
<feColorMatrix type="matrix" values="0 0 0 0 0 0 0 0 0 0 0 0 0 0 0 0 0 0 0.14 0"/>
<feBlend mode="normal" in2="BackgroundImageFix" result="effect1_dropShadow_8_85"/>
<feBlend mode="normal" in="SourceGraphic" in2="effect1_dropShadow_8_85" result="shape"/>
</filter>
<linearGradient id="paint0_linear_8_85" x1="5.86162" y1="28.6" x2="303.728" y2="35.6776" gradientUnits="userSpaceOnUse">
<stop offset="0.197139" stop-color="#F6F8FF"/>
<stop offset="0.663491" stop-color="#3CE5A7"/>
<stop offset="1" stop-color="#114DFF"/>
</linearGradient>
<clipPath id="clip0_8_85">
<rect width="19.6442" height="43.001" fill="white" transform="translate(163.68 36) rotate(50.4923)"/>
</clipPath>
</defs>
</svg>
