<svg width="187" height="37" viewBox="0 0 187 37" fill="none" xmlns="http://www.w3.org/2000/svg">
<path d="M51.178 17.082V23.8438C50.9123 24.1641 50.5022 24.5117 49.9475 24.8867C49.3928 25.2539 48.678 25.5703 47.803 25.8359C46.928 26.1016 45.8694 26.2344 44.6272 26.2344C43.5256 26.2344 42.5217 26.0547 41.6155 25.6953C40.7092 25.3281 39.928 24.793 39.2717 24.0898C38.6233 23.3867 38.1233 22.5273 37.7717 21.5117C37.4202 20.4883 37.2444 19.3203 37.2444 18.0078V16.9414C37.2444 15.6289 37.4123 14.4609 37.7483 13.4375C38.092 12.4141 38.5803 11.5508 39.2131 10.8477C39.8459 10.1445 40.5998 9.60938 41.4748 9.24219C42.3498 8.875 43.3225 8.69141 44.3928 8.69141C45.8772 8.69141 47.0959 8.93359 48.0491 9.41797C49.0022 9.89453 49.7288 10.5586 50.2288 11.4102C50.7366 12.2539 51.0491 13.2227 51.1663 14.3164H47.7561C47.6702 13.7383 47.5061 13.2344 47.2639 12.8047C47.0217 12.375 46.6741 12.0391 46.2209 11.7969C45.7756 11.5547 45.1975 11.4336 44.4866 11.4336C43.9006 11.4336 43.3772 11.5547 42.9163 11.7969C42.4631 12.0312 42.0803 12.3789 41.7678 12.8398C41.4553 13.3008 41.217 13.8711 41.053 14.5508C40.8889 15.2305 40.8069 16.0195 40.8069 16.918V18.0078C40.8069 18.8984 40.8928 19.6875 41.0647 20.375C41.2366 21.0547 41.4905 21.6289 41.8264 22.0977C42.1702 22.5586 42.592 22.9062 43.092 23.1406C43.592 23.375 44.1741 23.4922 44.8381 23.4922C45.3928 23.4922 45.8538 23.4453 46.2209 23.3516C46.5959 23.2578 46.8967 23.1445 47.1233 23.0117C47.3577 22.8711 47.5373 22.7383 47.6623 22.6133V19.5898H44.4514V17.082H51.178ZM60.3589 26.2344C59.3745 26.2344 58.4917 26.0781 57.7105 25.7656C56.9292 25.4453 56.2652 25.0039 55.7183 24.4414C55.1792 23.8789 54.7652 23.2266 54.4761 22.4844C54.187 21.7344 54.0425 20.9375 54.0425 20.0938V19.625C54.0425 18.6641 54.1792 17.7852 54.4527 16.9883C54.7261 16.1914 55.1167 15.5 55.6245 14.9141C56.1402 14.3281 56.7652 13.8789 57.4995 13.5664C58.2339 13.2461 59.062 13.0859 59.9839 13.0859C60.8823 13.0859 61.6792 13.2344 62.3745 13.5312C63.0698 13.8281 63.6519 14.25 64.1206 14.7969C64.5972 15.3438 64.9566 16 65.1988 16.7656C65.4409 17.5234 65.562 18.3672 65.562 19.2969V20.7031H55.4839V18.4531H62.2456V18.1953C62.2456 17.7266 62.1597 17.3086 61.9878 16.9414C61.8238 16.5664 61.5738 16.2695 61.2378 16.0508C60.9019 15.832 60.4722 15.7227 59.9488 15.7227C59.5034 15.7227 59.1206 15.8203 58.8003 16.0156C58.48 16.2109 58.2183 16.4844 58.0152 16.8359C57.8198 17.1875 57.6714 17.6016 57.5698 18.0781C57.4761 18.5469 57.4292 19.0625 57.4292 19.625V20.0938C57.4292 20.6016 57.4995 21.0703 57.6402 21.5C57.7886 21.9297 57.9956 22.3008 58.2613 22.6133C58.5347 22.9258 58.8628 23.168 59.2456 23.3398C59.6363 23.5117 60.0777 23.5977 60.5698 23.5977C61.1792 23.5977 61.7456 23.4805 62.2691 23.2461C62.8003 23.0039 63.2573 22.6406 63.6402 22.1562L65.2808 23.9375C65.0152 24.3203 64.6519 24.6875 64.1909 25.0391C63.7378 25.3906 63.1909 25.6797 62.5503 25.9062C61.9097 26.125 61.1792 26.2344 60.3589 26.2344ZM74.4148 13.3203V15.7109H67.032V13.3203H74.4148ZM68.8602 10.1914H72.2352V22.1797C72.2352 22.5469 72.282 22.8281 72.3758 23.0234C72.4773 23.2188 72.6258 23.3555 72.8211 23.4336C73.0164 23.5039 73.2625 23.5391 73.5594 23.5391C73.7703 23.5391 73.9578 23.5312 74.1219 23.5156C74.2938 23.4922 74.4383 23.4688 74.5555 23.4453L74.5672 25.9297C74.2781 26.0234 73.9656 26.0977 73.6297 26.1523C73.2938 26.207 72.9227 26.2344 72.5164 26.2344C71.7742 26.2344 71.1258 26.1133 70.5711 25.8711C70.0242 25.6211 69.6023 25.2227 69.3055 24.6758C69.0086 24.1289 68.8602 23.4102 68.8602 22.5195V10.1914ZM87.4798 8.9375V26H83.9642V8.9375H87.4798ZM94.2767 16.2266V18.9688H86.5189V16.2266H94.2767ZM95.097 8.9375V11.6914H86.5189V8.9375H95.097ZM104.887 22.9648V13.3203H108.262V26H105.087L104.887 22.9648ZM105.262 20.3633L106.258 20.3398C106.258 21.1836 106.161 21.9688 105.965 22.6953C105.77 23.4141 105.477 24.0391 105.087 24.5703C104.696 25.0938 104.204 25.5039 103.61 25.8008C103.016 26.0898 102.317 26.2344 101.512 26.2344C100.895 26.2344 100.325 26.1484 99.8014 25.9766C99.2858 25.7969 98.8405 25.5195 98.4655 25.1445C98.0983 24.7617 97.8092 24.2734 97.5983 23.6797C97.3952 23.0781 97.2936 22.3555 97.2936 21.5117V13.3203H100.669V21.5352C100.669 21.9102 100.712 22.2266 100.798 22.4844C100.891 22.7422 101.02 22.9531 101.184 23.1172C101.348 23.2812 101.54 23.3984 101.758 23.4688C101.985 23.5391 102.235 23.5742 102.508 23.5742C103.204 23.5742 103.751 23.4336 104.149 23.1523C104.555 22.8711 104.84 22.4883 105.005 22.0039C105.176 21.5117 105.262 20.9648 105.262 20.3633ZM114.865 16.0273V26H111.49V13.3203H114.654L114.865 16.0273ZM114.373 19.2148H113.459C113.459 18.2773 113.58 17.4336 113.822 16.6836C114.064 15.9258 114.404 15.2812 114.842 14.75C115.279 14.2109 115.799 13.8008 116.4 13.5195C117.01 13.2305 117.689 13.0859 118.439 13.0859C119.033 13.0859 119.576 13.1719 120.068 13.3438C120.56 13.5156 120.982 13.7891 121.334 14.1641C121.693 14.5391 121.967 15.0352 122.154 15.6523C122.35 16.2695 122.447 17.0234 122.447 17.9141V26H119.049V17.9023C119.049 17.3398 118.971 16.9023 118.814 16.5898C118.658 16.2773 118.428 16.0586 118.123 15.9336C117.826 15.8008 117.459 15.7344 117.021 15.7344C116.568 15.7344 116.174 15.8242 115.838 16.0039C115.51 16.1836 115.236 16.4336 115.018 16.7539C114.807 17.0664 114.646 17.4336 114.537 17.8555C114.428 18.2773 114.373 18.7305 114.373 19.2148ZM133.222 23.2344V8H136.62V26H133.562L133.222 23.2344ZM125.206 19.8125V19.5664C125.206 18.5977 125.316 17.7188 125.534 16.9297C125.753 16.1328 126.073 15.4492 126.495 14.8789C126.917 14.3086 127.437 13.8672 128.054 13.5547C128.671 13.2422 129.374 13.0859 130.163 13.0859C130.905 13.0859 131.554 13.2422 132.109 13.5547C132.671 13.8672 133.148 14.3125 133.538 14.8906C133.937 15.4609 134.257 16.1367 134.499 16.918C134.741 17.6914 134.917 18.5391 135.027 19.4609V20C134.917 20.8828 134.741 21.7031 134.499 22.4609C134.257 23.2188 133.937 23.8828 133.538 24.4531C133.148 25.0156 132.671 25.4531 132.109 25.7656C131.546 26.0781 130.89 26.2344 130.14 26.2344C129.351 26.2344 128.648 26.0742 128.03 25.7539C127.421 25.4336 126.905 24.9844 126.484 24.4062C126.07 23.8281 125.753 23.1484 125.534 22.3672C125.316 21.5859 125.206 20.7344 125.206 19.8125ZM128.581 19.5664V19.8125C128.581 20.3359 128.62 20.8242 128.698 21.2773C128.784 21.7305 128.921 22.1328 129.109 22.4844C129.304 22.8281 129.554 23.0977 129.859 23.293C130.171 23.4805 130.55 23.5742 130.995 23.5742C131.573 23.5742 132.05 23.4453 132.425 23.1875C132.8 22.9219 133.085 22.5586 133.28 22.0977C133.484 21.6367 133.601 21.1055 133.632 20.5039V18.9688C133.609 18.4766 133.538 18.0352 133.421 17.6445C133.312 17.2461 133.148 16.9062 132.929 16.625C132.718 16.3438 132.452 16.125 132.132 15.9688C131.82 15.8125 131.448 15.7344 131.019 15.7344C130.581 15.7344 130.206 15.8359 129.894 16.0391C129.581 16.2344 129.327 16.5039 129.132 16.8477C128.945 17.1914 128.804 17.5977 128.71 18.0664C128.624 18.5273 128.581 19.0273 128.581 19.5664ZM145.813 26.2344C144.829 26.2344 143.946 26.0781 143.165 25.7656C142.383 25.4453 141.719 25.0039 141.172 24.4414C140.633 23.8789 140.219 23.2266 139.93 22.4844C139.641 21.7344 139.497 20.9375 139.497 20.0938V19.625C139.497 18.6641 139.633 17.7852 139.907 16.9883C140.18 16.1914 140.571 15.5 141.079 14.9141C141.594 14.3281 142.219 13.8789 142.954 13.5664C143.688 13.2461 144.516 13.0859 145.438 13.0859C146.336 13.0859 147.133 13.2344 147.829 13.5312C148.524 13.8281 149.106 14.25 149.575 14.7969C150.051 15.3438 150.411 16 150.653 16.7656C150.895 17.5234 151.016 18.3672 151.016 19.2969V20.7031H140.938V18.4531H147.7V18.1953C147.7 17.7266 147.614 17.3086 147.442 16.9414C147.278 16.5664 147.028 16.2695 146.692 16.0508C146.356 15.832 145.926 15.7227 145.403 15.7227C144.958 15.7227 144.575 15.8203 144.254 16.0156C143.934 16.2109 143.672 16.4844 143.469 16.8359C143.274 17.1875 143.125 17.6016 143.024 18.0781C142.93 18.5469 142.883 19.0625 142.883 19.625V20.0938C142.883 20.6016 142.954 21.0703 143.094 21.5C143.243 21.9297 143.45 22.3008 143.715 22.6133C143.989 22.9258 144.317 23.168 144.7 23.3398C145.09 23.5117 145.532 23.5977 146.024 23.5977C146.633 23.5977 147.2 23.4805 147.723 23.2461C148.254 23.0039 148.711 22.6406 149.094 22.1562L150.735 23.9375C150.469 24.3203 150.106 24.6875 149.645 25.0391C149.192 25.3906 148.645 25.6797 148.004 25.9062C147.364 26.125 146.633 26.2344 145.813 26.2344ZM161.146 23.2344V8H164.545V26H161.486L161.146 23.2344ZM153.131 19.8125V19.5664C153.131 18.5977 153.24 17.7188 153.459 16.9297C153.678 16.1328 153.998 15.4492 154.42 14.8789C154.842 14.3086 155.361 13.8672 155.978 13.5547C156.595 13.2422 157.299 13.0859 158.088 13.0859C158.83 13.0859 159.478 13.2422 160.033 13.5547C160.595 13.8672 161.072 14.3125 161.463 14.8906C161.861 15.4609 162.181 16.1367 162.424 16.918C162.666 17.6914 162.842 18.5391 162.951 19.4609V20C162.842 20.8828 162.666 21.7031 162.424 22.4609C162.181 23.2188 161.861 23.8828 161.463 24.4531C161.072 25.0156 160.595 25.4531 160.033 25.7656C159.47 26.0781 158.814 26.2344 158.064 26.2344C157.275 26.2344 156.572 26.0742 155.955 25.7539C155.345 25.4336 154.83 24.9844 154.408 24.4062C153.994 23.8281 153.678 23.1484 153.459 22.3672C153.24 21.5859 153.131 20.7344 153.131 19.8125ZM156.506 19.5664V19.8125C156.506 20.3359 156.545 20.8242 156.623 21.2773C156.709 21.7305 156.845 22.1328 157.033 22.4844C157.228 22.8281 157.478 23.0977 157.783 23.293C158.095 23.4805 158.474 23.5742 158.92 23.5742C159.498 23.5742 159.974 23.4453 160.349 23.1875C160.724 22.9219 161.01 22.5586 161.205 22.0977C161.408 21.6367 161.525 21.1055 161.556 20.5039V18.9688C161.533 18.4766 161.463 18.0352 161.345 17.6445C161.236 17.2461 161.072 16.9062 160.853 16.625C160.642 16.3438 160.377 16.125 160.056 15.9688C159.744 15.8125 159.373 15.7344 158.943 15.7344C158.506 15.7344 158.131 15.8359 157.818 16.0391C157.506 16.2344 157.252 16.5039 157.056 16.8477C156.869 17.1914 156.728 17.5977 156.635 18.0664C156.549 18.5273 156.506 19.0273 156.506 19.5664Z" fill="white"/>
<path d="M14.5301 13.1201V17.4101L13.2256 16.8851C12.5669 16.6151 12.1665 16.3601 12.1665 15.0551C12.1665 13.9901 12.851 13.1201 13.6906 13.1201H14.5301Z" fill="#3CE5A7"/>
<path d="M18.8313 22.9453C18.8313 24.0103 18.1467 24.8803 17.3072 24.8803H16.4677V20.5903L17.7722 21.1153C18.4309 21.3853 18.8313 21.6403 18.8313 22.9453Z" fill="#3CE5A7"/>
<path d="M20.9107 4.00049H10.0872C5.38587 4.00049 2.58313 7.25549 2.58313 12.7155V25.2855C2.58313 30.7455 5.38587 34.0005 10.0872 34.0005H20.9107C25.6121 34.0005 28.4148 30.7455 28.4148 25.2855V12.7155C28.4148 7.25549 25.6121 4.00049 20.9107 4.00049ZM18.418 19.0005C19.4254 19.4055 20.7687 20.2605 20.7687 22.9455C20.7687 25.2555 19.2187 27.1305 17.3072 27.1305H16.4677V28.0005C16.4677 28.6155 16.0285 29.1255 15.499 29.1255C14.9694 29.1255 14.5303 28.6155 14.5303 28.0005V27.1305H14.0653C11.9471 27.1305 10.2293 25.0455 10.2293 22.4955C10.2293 21.8805 10.6555 21.3705 11.198 21.3705C11.7276 21.3705 12.1667 21.8805 12.1667 22.4955C12.1667 23.8155 13.0191 24.8805 14.0653 24.8805H14.5303V19.7955L12.58 19.0005C11.5726 18.5955 10.2293 17.7405 10.2293 15.0555C10.2293 12.7455 11.7792 10.8705 13.6908 10.8705H14.5303V10.0005C14.5303 9.38549 14.9694 8.87549 15.499 8.87549C16.0285 8.87549 16.4677 9.38549 16.4677 10.0005V10.8705H16.9326C19.0508 10.8705 20.7687 12.9555 20.7687 15.5055C20.7687 16.1205 20.3424 16.6305 19.8 16.6305C19.2704 16.6305 18.8313 16.1205 18.8313 15.5055C18.8313 14.1855 17.9788 13.1205 16.9326 13.1205H16.4677V18.2055L18.418 19.0005Z" fill="#3CE5A7"/>
</svg>
