<svg width="188" height="108" viewBox="0 0 188 108" fill="none" xmlns="http://www.w3.org/2000/svg">
<path d="M51.0914 59.082V65.8438C50.8258 66.1641 50.4156 66.5117 49.8609 66.8867C49.3063 67.2539 48.5914 67.5703 47.7164 67.8359C46.8414 68.1016 45.7828 68.2344 44.5406 68.2344C43.4391 68.2344 42.4352 68.0547 41.5289 67.6953C40.6227 67.3281 39.8414 66.793 39.1852 66.0898C38.5367 65.3867 38.0367 64.5273 37.6852 63.5117C37.3336 62.4883 37.1578 61.3203 37.1578 60.0078V58.9414C37.1578 57.6289 37.3258 56.4609 37.6617 55.4375C38.0055 54.4141 38.4938 53.5508 39.1266 52.8477C39.7594 52.1445 40.5133 51.6094 41.3883 51.2422C42.2633 50.875 43.2359 50.6914 44.3063 50.6914C45.7906 50.6914 47.0094 50.9336 47.9625 51.418C48.9156 51.8945 49.6422 52.5586 50.1422 53.4102C50.65 54.2539 50.9625 55.2227 51.0797 56.3164H47.6695C47.5836 55.7383 47.4195 55.2344 47.1773 54.8047C46.9352 54.375 46.5875 54.0391 46.1344 53.7969C45.6891 53.5547 45.1109 53.4336 44.4 53.4336C43.8141 53.4336 43.2906 53.5547 42.8297 53.7969C42.3766 54.0312 41.9938 54.3789 41.6813 54.8398C41.3688 55.3008 41.1305 55.8711 40.9664 56.5508C40.8023 57.2305 40.7203 58.0195 40.7203 58.918V60.0078C40.7203 60.8984 40.8063 61.6875 40.9781 62.375C41.15 63.0547 41.4039 63.6289 41.7398 64.0977C42.0836 64.5586 42.5055 64.9062 43.0055 65.1406C43.5055 65.375 44.0875 65.4922 44.7516 65.4922C45.3063 65.4922 45.7672 65.4453 46.1344 65.3516C46.5094 65.2578 46.8102 65.1445 47.0367 65.0117C47.2711 64.8711 47.4508 64.7383 47.5758 64.6133V61.5898H44.3648V59.082H51.0914ZM60.2723 68.2344C59.288 68.2344 58.4052 68.0781 57.6239 67.7656C56.8427 67.4453 56.1786 67.0039 55.6317 66.4414C55.0927 65.8789 54.6786 65.2266 54.3895 64.4844C54.1005 63.7344 53.9559 62.9375 53.9559 62.0938V61.625C53.9559 60.6641 54.0927 59.7852 54.3661 58.9883C54.6395 58.1914 55.0302 57.5 55.538 56.9141C56.0536 56.3281 56.6786 55.8789 57.413 55.5664C58.1473 55.2461 58.9755 55.0859 59.8973 55.0859C60.7958 55.0859 61.5927 55.2344 62.288 55.5312C62.9833 55.8281 63.5653 56.25 64.0341 56.7969C64.5106 57.3438 64.87 58 65.1122 58.7656C65.3544 59.5234 65.4755 60.3672 65.4755 61.2969V62.7031H55.3973V60.4531H62.1591V60.1953C62.1591 59.7266 62.0731 59.3086 61.9013 58.9414C61.7372 58.5664 61.4872 58.2695 61.1513 58.0508C60.8153 57.832 60.3856 57.7227 59.8622 57.7227C59.4169 57.7227 59.0341 57.8203 58.7138 58.0156C58.3934 58.2109 58.1317 58.4844 57.9286 58.8359C57.7333 59.1875 57.5848 59.6016 57.4833 60.0781C57.3895 60.5469 57.3427 61.0625 57.3427 61.625V62.0938C57.3427 62.6016 57.413 63.0703 57.5536 63.5C57.702 63.9297 57.9091 64.3008 58.1747 64.6133C58.4481 64.9258 58.7763 65.168 59.1591 65.3398C59.5497 65.5117 59.9911 65.5977 60.4833 65.5977C61.0927 65.5977 61.6591 65.4805 62.1825 65.2461C62.7138 65.0039 63.1708 64.6406 63.5536 64.1562L65.1942 65.9375C64.9286 66.3203 64.5653 66.6875 64.1044 67.0391C63.6513 67.3906 63.1044 67.6797 62.4638 67.9062C61.8231 68.125 61.0927 68.2344 60.2723 68.2344ZM74.3283 55.3203V57.7109H66.9455V55.3203H74.3283ZM68.7736 52.1914H72.1486V64.1797C72.1486 64.5469 72.1955 64.8281 72.2892 65.0234C72.3908 65.2188 72.5392 65.3555 72.7345 65.4336C72.9298 65.5039 73.1759 65.5391 73.4728 65.5391C73.6838 65.5391 73.8713 65.5312 74.0353 65.5156C74.2072 65.4922 74.3517 65.4688 74.4689 65.4453L74.4806 67.9297C74.1916 68.0234 73.8791 68.0977 73.5431 68.1523C73.2072 68.207 72.8361 68.2344 72.4298 68.2344C71.6877 68.2344 71.0392 68.1133 70.4845 67.8711C69.9377 67.6211 69.5158 67.2227 69.2189 66.6758C68.922 66.1289 68.7736 65.4102 68.7736 64.5195V52.1914ZM90.8152 53.8555L86.1745 68H82.4362L88.7761 50.9375H91.155L90.8152 53.8555ZM94.6706 68L90.0183 53.8555L89.6433 50.9375H92.0456L98.4206 68H94.6706ZM94.4597 61.6484V64.4023H85.448V61.6484H94.4597ZM120.943 59.082V65.8438C120.677 66.1641 120.267 66.5117 119.712 66.8867C119.158 67.2539 118.443 67.5703 117.568 67.8359C116.693 68.1016 115.634 68.2344 114.392 68.2344C113.29 68.2344 112.286 68.0547 111.38 67.6953C110.474 67.3281 109.693 66.793 109.036 66.0898C108.388 65.3867 107.888 64.5273 107.536 63.5117C107.185 62.4883 107.009 61.3203 107.009 60.0078V58.9414C107.009 57.6289 107.177 56.4609 107.513 55.4375C107.857 54.4141 108.345 53.5508 108.978 52.8477C109.611 52.1445 110.365 51.6094 111.24 51.2422C112.115 50.875 113.087 50.6914 114.158 50.6914C115.642 50.6914 116.861 50.9336 117.814 51.418C118.767 51.8945 119.493 52.5586 119.993 53.4102C120.501 54.2539 120.814 55.2227 120.931 56.3164H117.521C117.435 55.7383 117.271 55.2344 117.029 54.8047C116.786 54.375 116.439 54.0391 115.986 53.7969C115.54 53.5547 114.962 53.4336 114.251 53.4336C113.665 53.4336 113.142 53.5547 112.681 53.7969C112.228 54.0312 111.845 54.3789 111.533 54.8398C111.22 55.3008 110.982 55.8711 110.818 56.5508C110.654 57.2305 110.572 58.0195 110.572 58.918V60.0078C110.572 60.8984 110.658 61.6875 110.829 62.375C111.001 63.0547 111.255 63.6289 111.591 64.0977C111.935 64.5586 112.357 64.9062 112.857 65.1406C113.357 65.375 113.939 65.4922 114.603 65.4922C115.158 65.4922 115.618 65.4453 115.986 65.3516C116.361 65.2578 116.661 65.1445 116.888 65.0117C117.122 64.8711 117.302 64.7383 117.427 64.6133V61.5898H114.216V59.082H120.943ZM127.663 58.0859V68H124.288V55.3203H127.463L127.663 58.0859ZM131.483 55.2383L131.424 58.3672C131.26 58.3438 131.061 58.3242 130.827 58.3086C130.6 58.2852 130.393 58.2734 130.206 58.2734C129.729 58.2734 129.315 58.3359 128.963 58.4609C128.62 58.5781 128.331 58.7539 128.096 58.9883C127.87 59.2227 127.698 59.5078 127.581 59.8438C127.471 60.1797 127.409 60.5625 127.393 60.9922L126.713 60.7812C126.713 59.9609 126.795 59.207 126.96 58.5195C127.124 57.8242 127.362 57.2188 127.674 56.7031C127.995 56.1875 128.385 55.7891 128.846 55.5078C129.307 55.2266 129.835 55.0859 130.428 55.0859C130.616 55.0859 130.807 55.1016 131.003 55.1328C131.198 55.1562 131.358 55.1914 131.483 55.2383ZM140.242 65.1406V59.4922C140.242 59.0859 140.176 58.7383 140.043 58.4492C139.91 58.1523 139.703 57.9219 139.422 57.7578C139.148 57.5938 138.793 57.5117 138.355 57.5117C137.98 57.5117 137.656 57.5781 137.383 57.7109C137.109 57.8359 136.898 58.0195 136.75 58.2617C136.601 58.4961 136.527 58.7734 136.527 59.0938H133.152C133.152 58.5547 133.277 58.043 133.527 57.5586C133.777 57.0742 134.14 56.6484 134.617 56.2812C135.094 55.9062 135.66 55.6133 136.316 55.4023C136.98 55.1914 137.723 55.0859 138.543 55.0859C139.527 55.0859 140.402 55.25 141.168 55.5781C141.933 55.9062 142.535 56.3984 142.973 57.0547C143.418 57.7109 143.64 58.5312 143.64 59.5156V64.9414C143.64 65.6367 143.683 66.207 143.769 66.6523C143.855 67.0898 143.98 67.4727 144.144 67.8008V68H140.734C140.57 67.6562 140.445 67.2266 140.359 66.7109C140.281 66.1875 140.242 65.6641 140.242 65.1406ZM140.687 60.2773L140.711 62.1875H138.824C138.379 62.1875 137.992 62.2383 137.664 62.3398C137.336 62.4414 137.066 62.5859 136.855 62.7734C136.644 62.9531 136.488 63.1641 136.387 63.4062C136.293 63.6484 136.246 63.9141 136.246 64.2031C136.246 64.4922 136.312 64.7539 136.445 64.9883C136.578 65.2148 136.769 65.3945 137.019 65.5273C137.269 65.6523 137.562 65.7148 137.898 65.7148C138.406 65.7148 138.848 65.6133 139.223 65.4102C139.598 65.207 139.887 64.957 140.09 64.6602C140.301 64.3633 140.41 64.082 140.418 63.8164L141.308 65.2461C141.183 65.5664 141.012 65.8984 140.793 66.2422C140.582 66.5859 140.312 66.9102 139.984 67.2148C139.656 67.5117 139.262 67.7578 138.801 67.9531C138.34 68.1406 137.793 68.2344 137.16 68.2344C136.355 68.2344 135.625 68.0742 134.969 67.7539C134.32 67.4258 133.805 66.9766 133.422 66.4062C133.047 65.8281 132.859 65.1719 132.859 64.4375C132.859 63.7734 132.984 63.1836 133.234 62.668C133.484 62.1523 133.851 61.7188 134.336 61.3672C134.828 61.0078 135.441 60.7383 136.176 60.5586C136.91 60.3711 137.762 60.2773 138.73 60.2773H140.687ZM150.267 58.0273V68H146.892V55.3203H150.056L150.267 58.0273ZM149.775 61.2148H148.86C148.86 60.2773 148.982 59.4336 149.224 58.6836C149.466 57.9258 149.806 57.2812 150.243 56.75C150.681 56.2109 151.2 55.8008 151.802 55.5195C152.411 55.2305 153.091 55.0859 153.841 55.0859C154.435 55.0859 154.978 55.1719 155.47 55.3438C155.962 55.5156 156.384 55.7891 156.735 56.1641C157.095 56.5391 157.368 57.0352 157.556 57.6523C157.751 58.2695 157.849 59.0234 157.849 59.9141V68H154.45V59.9023C154.45 59.3398 154.372 58.9023 154.216 58.5898C154.06 58.2773 153.829 58.0586 153.525 57.9336C153.228 57.8008 152.86 57.7344 152.423 57.7344C151.97 57.7344 151.575 57.8242 151.239 58.0039C150.911 58.1836 150.638 58.4336 150.419 58.7539C150.208 59.0664 150.048 59.4336 149.939 59.8555C149.829 60.2773 149.775 60.7305 149.775 61.2148ZM167.346 55.3203V57.7109H159.963V55.3203H167.346ZM161.791 52.1914H165.166V64.1797C165.166 64.5469 165.213 64.8281 165.307 65.0234C165.409 65.2188 165.557 65.3555 165.752 65.4336C165.948 65.5039 166.194 65.5391 166.491 65.5391C166.702 65.5391 166.889 65.5312 167.053 65.5156C167.225 65.4922 167.37 65.4688 167.487 65.4453L167.498 67.9297C167.209 68.0234 166.897 68.0977 166.561 68.1523C166.225 68.207 165.854 68.2344 165.448 68.2344C164.705 68.2344 164.057 68.1133 163.502 67.8711C162.955 67.6211 162.534 67.2227 162.237 66.6758C161.94 66.1289 161.791 65.4102 161.791 64.5195V52.1914Z" fill="white"/>
<path d="M101.32 1.38288L103.957 9.85875C104.04 10.1291 104.281 10.3076 104.549 10.3076H113.08C114.937 10.3076 115.708 12.7886 114.207 13.9277L107.306 19.1648C107.089 19.3289 106.997 19.6234 107.08 19.8937L109.717 28.3695C110.29 30.2134 108.271 31.7483 106.77 30.6092L99.8695 25.3721C99.6524 25.208 99.3568 25.208 99.1397 25.3721L92.239 30.6092C90.7378 31.7483 88.7147 30.2134 89.2921 28.3695L91.9295 19.8937C92.0127 19.6234 91.9203 19.3338 91.7032 19.1648L84.7932 13.9326C83.2921 12.7934 84.0634 10.3125 85.9203 10.3125H94.4515C94.7194 10.3125 94.9596 10.1291 95.0427 9.86358L97.6755 1.38288C98.2483 -0.46096 100.747 -0.46096 101.32 1.38288Z" fill="#3CE5A7"/>
</svg>
