<svg width="187" height="79" viewBox="0 0 187 79" fill="none" xmlns="http://www.w3.org/2000/svg">
<path d="M51.178 59.082V65.8438C50.9123 66.1641 50.5022 66.5117 49.9475 66.8867C49.3928 67.2539 48.678 67.5703 47.803 67.8359C46.928 68.1016 45.8694 68.2344 44.6272 68.2344C43.5256 68.2344 42.5217 68.0547 41.6155 67.6953C40.7092 67.3281 39.928 66.793 39.2717 66.0898C38.6233 65.3867 38.1233 64.5273 37.7717 63.5117C37.4202 62.4883 37.2444 61.3203 37.2444 60.0078V58.9414C37.2444 57.6289 37.4123 56.4609 37.7483 55.4375C38.092 54.4141 38.5803 53.5508 39.2131 52.8477C39.8459 52.1445 40.5998 51.6094 41.4748 51.2422C42.3498 50.875 43.3225 50.6914 44.3928 50.6914C45.8772 50.6914 47.0959 50.9336 48.0491 51.418C49.0022 51.8945 49.7288 52.5586 50.2288 53.4102C50.7366 54.2539 51.0491 55.2227 51.1663 56.3164H47.7561C47.6702 55.7383 47.5061 55.2344 47.2639 54.8047C47.0217 54.375 46.6741 54.0391 46.2209 53.7969C45.7756 53.5547 45.1975 53.4336 44.4866 53.4336C43.9006 53.4336 43.3772 53.5547 42.9163 53.7969C42.4631 54.0312 42.0803 54.3789 41.7678 54.8398C41.4553 55.3008 41.217 55.8711 41.053 56.5508C40.8889 57.2305 40.8069 58.0195 40.8069 58.918V60.0078C40.8069 60.8984 40.8928 61.6875 41.0647 62.375C41.2366 63.0547 41.4905 63.6289 41.8264 64.0977C42.1702 64.5586 42.592 64.9062 43.092 65.1406C43.592 65.375 44.1741 65.4922 44.8381 65.4922C45.3928 65.4922 45.8538 65.4453 46.2209 65.3516C46.5959 65.2578 46.8967 65.1445 47.1233 65.0117C47.3577 64.8711 47.5373 64.7383 47.6623 64.6133V61.5898H44.4514V59.082H51.178ZM60.3589 68.2344C59.3745 68.2344 58.4917 68.0781 57.7105 67.7656C56.9292 67.4453 56.2652 67.0039 55.7183 66.4414C55.1792 65.8789 54.7652 65.2266 54.4761 64.4844C54.187 63.7344 54.0425 62.9375 54.0425 62.0938V61.625C54.0425 60.6641 54.1792 59.7852 54.4527 58.9883C54.7261 58.1914 55.1167 57.5 55.6245 56.9141C56.1402 56.3281 56.7652 55.8789 57.4995 55.5664C58.2339 55.2461 59.062 55.0859 59.9839 55.0859C60.8823 55.0859 61.6792 55.2344 62.3745 55.5312C63.0698 55.8281 63.6519 56.25 64.1206 56.7969C64.5972 57.3438 64.9566 58 65.1988 58.7656C65.4409 59.5234 65.562 60.3672 65.562 61.2969V62.7031H55.4839V60.4531H62.2456V60.1953C62.2456 59.7266 62.1597 59.3086 61.9878 58.9414C61.8238 58.5664 61.5738 58.2695 61.2378 58.0508C60.9019 57.832 60.4722 57.7227 59.9488 57.7227C59.5034 57.7227 59.1206 57.8203 58.8003 58.0156C58.48 58.2109 58.2183 58.4844 58.0152 58.8359C57.8198 59.1875 57.6714 59.6016 57.5698 60.0781C57.4761 60.5469 57.4292 61.0625 57.4292 61.625V62.0938C57.4292 62.6016 57.4995 63.0703 57.6402 63.5C57.7886 63.9297 57.9956 64.3008 58.2613 64.6133C58.5347 64.9258 58.8628 65.168 59.2456 65.3398C59.6363 65.5117 60.0777 65.5977 60.5698 65.5977C61.1792 65.5977 61.7456 65.4805 62.2691 65.2461C62.8003 65.0039 63.2573 64.6406 63.6402 64.1562L65.2808 65.9375C65.0152 66.3203 64.6519 66.6875 64.1909 67.0391C63.7378 67.3906 63.1909 67.6797 62.5503 67.9062C61.9097 68.125 61.1792 68.2344 60.3589 68.2344ZM74.4148 55.3203V57.7109H67.032V55.3203H74.4148ZM68.8602 52.1914H72.2352V64.1797C72.2352 64.5469 72.282 64.8281 72.3758 65.0234C72.4773 65.2188 72.6258 65.3555 72.8211 65.4336C73.0164 65.5039 73.2625 65.5391 73.5594 65.5391C73.7703 65.5391 73.9578 65.5312 74.1219 65.5156C74.2938 65.4922 74.4383 65.4688 74.5555 65.4453L74.5672 67.9297C74.2781 68.0234 73.9656 68.0977 73.6297 68.1523C73.2938 68.207 72.9227 68.2344 72.5164 68.2344C71.7742 68.2344 71.1258 68.1133 70.5711 67.8711C70.0242 67.6211 69.6023 67.2227 69.3055 66.6758C69.0086 66.1289 68.8602 65.4102 68.8602 64.5195V52.1914ZM87.4798 50.9375V68H83.9642V50.9375H87.4798ZM94.2767 58.2266V60.9688H86.5189V58.2266H94.2767ZM95.097 50.9375V53.6914H86.5189V50.9375H95.097ZM104.887 64.9648V55.3203H108.262V68H105.087L104.887 64.9648ZM105.262 62.3633L106.258 62.3398C106.258 63.1836 106.161 63.9688 105.965 64.6953C105.77 65.4141 105.477 66.0391 105.087 66.5703C104.696 67.0938 104.204 67.5039 103.61 67.8008C103.016 68.0898 102.317 68.2344 101.512 68.2344C100.895 68.2344 100.325 68.1484 99.8014 67.9766C99.2858 67.7969 98.8405 67.5195 98.4655 67.1445C98.0983 66.7617 97.8092 66.2734 97.5983 65.6797C97.3952 65.0781 97.2936 64.3555 97.2936 63.5117V55.3203H100.669V63.5352C100.669 63.9102 100.712 64.2266 100.798 64.4844C100.891 64.7422 101.02 64.9531 101.184 65.1172C101.348 65.2812 101.54 65.3984 101.758 65.4688C101.985 65.5391 102.235 65.5742 102.508 65.5742C103.204 65.5742 103.751 65.4336 104.149 65.1523C104.555 64.8711 104.84 64.4883 105.005 64.0039C105.176 63.5117 105.262 62.9648 105.262 62.3633ZM114.865 58.0273V68H111.49V55.3203H114.654L114.865 58.0273ZM114.373 61.2148H113.459C113.459 60.2773 113.58 59.4336 113.822 58.6836C114.064 57.9258 114.404 57.2812 114.842 56.75C115.279 56.2109 115.799 55.8008 116.4 55.5195C117.01 55.2305 117.689 55.0859 118.439 55.0859C119.033 55.0859 119.576 55.1719 120.068 55.3438C120.56 55.5156 120.982 55.7891 121.334 56.1641C121.693 56.5391 121.967 57.0352 122.154 57.6523C122.35 58.2695 122.447 59.0234 122.447 59.9141V68H119.049V59.9023C119.049 59.3398 118.971 58.9023 118.814 58.5898C118.658 58.2773 118.428 58.0586 118.123 57.9336C117.826 57.8008 117.459 57.7344 117.021 57.7344C116.568 57.7344 116.174 57.8242 115.838 58.0039C115.51 58.1836 115.236 58.4336 115.018 58.7539C114.807 59.0664 114.646 59.4336 114.537 59.8555C114.428 60.2773 114.373 60.7305 114.373 61.2148ZM133.222 65.2344V50H136.62V68H133.562L133.222 65.2344ZM125.206 61.8125V61.5664C125.206 60.5977 125.316 59.7188 125.534 58.9297C125.753 58.1328 126.073 57.4492 126.495 56.8789C126.917 56.3086 127.437 55.8672 128.054 55.5547C128.671 55.2422 129.374 55.0859 130.163 55.0859C130.905 55.0859 131.554 55.2422 132.109 55.5547C132.671 55.8672 133.148 56.3125 133.538 56.8906C133.937 57.4609 134.257 58.1367 134.499 58.918C134.741 59.6914 134.917 60.5391 135.027 61.4609V62C134.917 62.8828 134.741 63.7031 134.499 64.4609C134.257 65.2188 133.937 65.8828 133.538 66.4531C133.148 67.0156 132.671 67.4531 132.109 67.7656C131.546 68.0781 130.89 68.2344 130.14 68.2344C129.351 68.2344 128.648 68.0742 128.03 67.7539C127.421 67.4336 126.905 66.9844 126.484 66.4062C126.07 65.8281 125.753 65.1484 125.534 64.3672C125.316 63.5859 125.206 62.7344 125.206 61.8125ZM128.581 61.5664V61.8125C128.581 62.3359 128.62 62.8242 128.698 63.2773C128.784 63.7305 128.921 64.1328 129.109 64.4844C129.304 64.8281 129.554 65.0977 129.859 65.293C130.171 65.4805 130.55 65.5742 130.995 65.5742C131.573 65.5742 132.05 65.4453 132.425 65.1875C132.8 64.9219 133.085 64.5586 133.28 64.0977C133.484 63.6367 133.601 63.1055 133.632 62.5039V60.9688C133.609 60.4766 133.538 60.0352 133.421 59.6445C133.312 59.2461 133.148 58.9062 132.929 58.625C132.718 58.3438 132.452 58.125 132.132 57.9688C131.82 57.8125 131.448 57.7344 131.019 57.7344C130.581 57.7344 130.206 57.8359 129.894 58.0391C129.581 58.2344 129.327 58.5039 129.132 58.8477C128.945 59.1914 128.804 59.5977 128.71 60.0664C128.624 60.5273 128.581 61.0273 128.581 61.5664ZM145.813 68.2344C144.829 68.2344 143.946 68.0781 143.165 67.7656C142.383 67.4453 141.719 67.0039 141.172 66.4414C140.633 65.8789 140.219 65.2266 139.93 64.4844C139.641 63.7344 139.497 62.9375 139.497 62.0938V61.625C139.497 60.6641 139.633 59.7852 139.907 58.9883C140.18 58.1914 140.571 57.5 141.079 56.9141C141.594 56.3281 142.219 55.8789 142.954 55.5664C143.688 55.2461 144.516 55.0859 145.438 55.0859C146.336 55.0859 147.133 55.2344 147.829 55.5312C148.524 55.8281 149.106 56.25 149.575 56.7969C150.051 57.3438 150.411 58 150.653 58.7656C150.895 59.5234 151.016 60.3672 151.016 61.2969V62.7031H140.938V60.4531H147.7V60.1953C147.7 59.7266 147.614 59.3086 147.442 58.9414C147.278 58.5664 147.028 58.2695 146.692 58.0508C146.356 57.832 145.926 57.7227 145.403 57.7227C144.958 57.7227 144.575 57.8203 144.254 58.0156C143.934 58.2109 143.672 58.4844 143.469 58.8359C143.274 59.1875 143.125 59.6016 143.024 60.0781C142.93 60.5469 142.883 61.0625 142.883 61.625V62.0938C142.883 62.6016 142.954 63.0703 143.094 63.5C143.243 63.9297 143.45 64.3008 143.715 64.6133C143.989 64.9258 144.317 65.168 144.7 65.3398C145.09 65.5117 145.532 65.5977 146.024 65.5977C146.633 65.5977 147.2 65.4805 147.723 65.2461C148.254 65.0039 148.711 64.6406 149.094 64.1562L150.735 65.9375C150.469 66.3203 150.106 66.6875 149.645 67.0391C149.192 67.3906 148.645 67.6797 148.004 67.9062C147.364 68.125 146.633 68.2344 145.813 68.2344ZM161.146 65.2344V50H164.545V68H161.486L161.146 65.2344ZM153.131 61.8125V61.5664C153.131 60.5977 153.24 59.7188 153.459 58.9297C153.678 58.1328 153.998 57.4492 154.42 56.8789C154.842 56.3086 155.361 55.8672 155.978 55.5547C156.595 55.2422 157.299 55.0859 158.088 55.0859C158.83 55.0859 159.478 55.2422 160.033 55.5547C160.595 55.8672 161.072 56.3125 161.463 56.8906C161.861 57.4609 162.181 58.1367 162.424 58.918C162.666 59.6914 162.842 60.5391 162.951 61.4609V62C162.842 62.8828 162.666 63.7031 162.424 64.4609C162.181 65.2188 161.861 65.8828 161.463 66.4531C161.072 67.0156 160.595 67.4531 160.033 67.7656C159.47 68.0781 158.814 68.2344 158.064 68.2344C157.275 68.2344 156.572 68.0742 155.955 67.7539C155.345 67.4336 154.83 66.9844 154.408 66.4062C153.994 65.8281 153.678 65.1484 153.459 64.3672C153.24 63.5859 153.131 62.7344 153.131 61.8125ZM156.506 61.5664V61.8125C156.506 62.3359 156.545 62.8242 156.623 63.2773C156.709 63.7305 156.845 64.1328 157.033 64.4844C157.228 64.8281 157.478 65.0977 157.783 65.293C158.095 65.4805 158.474 65.5742 158.92 65.5742C159.498 65.5742 159.974 65.4453 160.349 65.1875C160.724 64.9219 161.01 64.5586 161.205 64.0977C161.408 63.6367 161.525 63.1055 161.556 62.5039V60.9688C161.533 60.4766 161.463 60.0352 161.345 59.6445C161.236 59.2461 161.072 58.9062 160.853 58.625C160.642 58.3438 160.377 58.125 160.056 57.9688C159.744 57.8125 159.373 57.7344 158.943 57.7344C158.506 57.7344 158.131 57.8359 157.818 58.0391C157.506 58.2344 157.252 58.5039 157.056 58.8477C156.869 59.1914 156.728 59.5977 156.635 60.0664C156.549 60.5273 156.506 61.0273 156.506 61.5664Z" fill="white"/>
<path d="M103.53 10.4368V14.1309L102.226 13.6789C101.567 13.4464 101.167 13.2268 101.167 12.103C101.167 11.1859 101.851 10.4368 102.691 10.4368H103.53Z" fill="#3CE5A7"/>
<path d="M107.831 18.8973C107.831 19.8144 107.147 20.5636 106.307 20.5636H105.468V16.8694L106.772 17.3215C107.431 17.554 107.831 17.7736 107.831 18.8973Z" fill="#3CE5A7"/>
<path d="M109.911 2.58356H99.0871C94.3857 2.58356 91.583 5.38647 91.583 10.0881V20.9123C91.583 25.614 94.3857 28.4169 99.0871 28.4169H109.911C114.612 28.4169 117.415 25.614 117.415 20.9123V10.0881C117.415 5.38647 114.612 2.58356 109.911 2.58356ZM107.418 15.5002C108.425 15.849 109.769 16.5852 109.769 18.8973C109.769 20.8865 108.219 22.5011 106.307 22.5011H105.468V23.2502C105.468 23.7798 105.028 24.219 104.499 24.219C103.969 24.219 103.53 23.7798 103.53 23.2502V22.5011H103.065C100.947 22.5011 99.2292 20.7056 99.2292 18.5098C99.2292 17.9802 99.6554 17.5411 100.198 17.5411C100.727 17.5411 101.167 17.9802 101.167 18.5098C101.167 19.6465 102.019 20.5636 103.065 20.5636H103.53V16.1848L101.58 15.5002C100.572 15.1515 99.2292 14.4152 99.2292 12.1031C99.2292 10.114 100.779 8.49939 102.691 8.49939H103.53V7.75022C103.53 7.22064 103.969 6.78147 104.499 6.78147C105.028 6.78147 105.468 7.22064 105.468 7.75022V8.49939H105.933C108.051 8.49939 109.769 10.2948 109.769 12.4906C109.769 13.0202 109.342 13.4594 108.8 13.4594C108.27 13.4594 107.831 13.0202 107.831 12.4906C107.831 11.354 106.979 10.4369 105.933 10.4369H105.468V14.8156L107.418 15.5002Z" fill="#3CE5A7"/>
</svg>
