<svg width="192" height="66" viewBox="0 0 192 66" fill="none" xmlns="http://www.w3.org/2000/svg">
<path d="M41.305 17.082V23.8438C41.0394 24.1641 40.6292 24.5117 40.0745 24.8867C39.5198 25.2539 38.805 25.5703 37.93 25.8359C37.055 26.1016 35.9964 26.2344 34.7542 26.2344C33.6527 26.2344 32.6488 26.0547 31.7425 25.6953C30.8363 25.3281 30.055 24.793 29.3988 24.0898C28.7503 23.3867 28.2503 22.5273 27.8988 21.5117C27.5472 20.4883 27.3714 19.3203 27.3714 18.0078V16.9414C27.3714 15.6289 27.5394 14.4609 27.8753 13.4375C28.2191 12.4141 28.7073 11.5508 29.3402 10.8477C29.973 10.1445 30.7269 9.60938 31.6019 9.24219C32.4769 8.875 33.4495 8.69141 34.5198 8.69141C36.0042 8.69141 37.223 8.93359 38.1761 9.41797C39.1292 9.89453 39.8558 10.5586 40.3558 11.4102C40.8636 12.2539 41.1761 13.2227 41.2933 14.3164H37.8831C37.7972 13.7383 37.6331 13.2344 37.3909 12.8047C37.1488 12.375 36.8011 12.0391 36.348 11.7969C35.9027 11.5547 35.3245 11.4336 34.6136 11.4336C34.0277 11.4336 33.5042 11.5547 33.0433 11.7969C32.5902 12.0312 32.2073 12.3789 31.8948 12.8398C31.5823 13.3008 31.3441 13.8711 31.18 14.5508C31.0159 15.2305 30.9339 16.0195 30.9339 16.918V18.0078C30.9339 18.8984 31.0198 19.6875 31.1917 20.375C31.3636 21.0547 31.6175 21.6289 31.9534 22.0977C32.2972 22.5586 32.7191 22.9062 33.2191 23.1406C33.7191 23.375 34.3011 23.4922 34.9652 23.4922C35.5198 23.4922 35.9808 23.4453 36.348 23.3516C36.723 23.2578 37.0238 23.1445 37.2503 23.0117C37.4847 22.8711 37.6644 22.7383 37.7894 22.6133V19.5898H34.5784V17.082H41.305ZM50.4859 26.2344C49.5016 26.2344 48.6187 26.0781 47.8375 25.7656C47.0562 25.4453 46.3922 25.0039 45.8453 24.4414C45.3062 23.8789 44.8922 23.2266 44.6031 22.4844C44.3141 21.7344 44.1695 20.9375 44.1695 20.0938V19.625C44.1695 18.6641 44.3062 17.7852 44.5797 16.9883C44.8531 16.1914 45.2437 15.5 45.7516 14.9141C46.2672 14.3281 46.8922 13.8789 47.6266 13.5664C48.3609 13.2461 49.1891 13.0859 50.1109 13.0859C51.0094 13.0859 51.8062 13.2344 52.5016 13.5312C53.1969 13.8281 53.7789 14.25 54.2477 14.7969C54.7242 15.3438 55.0836 16 55.3258 16.7656C55.568 17.5234 55.6891 18.3672 55.6891 19.2969V20.7031H45.6109V18.4531H52.3727V18.1953C52.3727 17.7266 52.2867 17.3086 52.1148 16.9414C51.9508 16.5664 51.7008 16.2695 51.3648 16.0508C51.0289 15.832 50.5992 15.7227 50.0758 15.7227C49.6305 15.7227 49.2477 15.8203 48.9273 16.0156C48.607 16.2109 48.3453 16.4844 48.1422 16.8359C47.9469 17.1875 47.7984 17.6016 47.6969 18.0781C47.6031 18.5469 47.5562 19.0625 47.5562 19.625V20.0938C47.5562 20.6016 47.6266 21.0703 47.7672 21.5C47.9156 21.9297 48.1227 22.3008 48.3883 22.6133C48.6617 22.9258 48.9898 23.168 49.3727 23.3398C49.7633 23.5117 50.2047 23.5977 50.6969 23.5977C51.3062 23.5977 51.8727 23.4805 52.3961 23.2461C52.9273 23.0039 53.3844 22.6406 53.7672 22.1562L55.4078 23.9375C55.1422 24.3203 54.7789 24.6875 54.318 25.0391C53.8648 25.3906 53.318 25.6797 52.6773 25.9062C52.0367 26.125 51.3062 26.2344 50.4859 26.2344ZM64.5419 13.3203V15.7109H57.1591V13.3203H64.5419ZM58.9872 10.1914H62.3622V22.1797C62.3622 22.5469 62.4091 22.8281 62.5028 23.0234C62.6044 23.2188 62.7528 23.3555 62.9481 23.4336C63.1434 23.5039 63.3895 23.5391 63.6864 23.5391C63.8973 23.5391 64.0848 23.5312 64.2489 23.5156C64.4208 23.4922 64.5653 23.4688 64.6825 23.4453L64.6942 25.9297C64.4052 26.0234 64.0927 26.0977 63.7567 26.1523C63.4208 26.207 63.0497 26.2344 62.6434 26.2344C61.9013 26.2344 61.2528 26.1133 60.6981 25.8711C60.1513 25.6211 59.7294 25.2227 59.4325 24.6758C59.1356 24.1289 58.9872 23.4102 58.9872 22.5195V10.1914ZM77.8295 8.9375V26H74.3256V8.9375H77.8295ZM84.9362 16.0273V26H81.5612V13.3203H84.7253L84.9362 16.0273ZM84.4441 19.2148H83.53C83.53 18.2773 83.6511 17.4336 83.8933 16.6836C84.1355 15.9258 84.4753 15.2812 84.9128 14.75C85.3503 14.2109 85.8698 13.8008 86.4714 13.5195C87.0808 13.2305 87.7605 13.0859 88.5105 13.0859C89.1042 13.0859 89.6472 13.1719 90.1394 13.3438C90.6316 13.5156 91.0534 13.7891 91.405 14.1641C91.7644 14.5391 92.0378 15.0352 92.2253 15.6523C92.4206 16.2695 92.5183 17.0234 92.5183 17.9141V26H89.1198V17.9023C89.1198 17.3398 89.0417 16.9023 88.8855 16.5898C88.7292 16.2773 88.4987 16.0586 88.1941 15.9336C87.8972 15.8008 87.53 15.7344 87.0925 15.7344C86.6394 15.7344 86.2448 15.8242 85.9089 16.0039C85.5808 16.1836 85.3073 16.4336 85.0886 16.7539C84.8777 17.0664 84.7175 17.4336 84.6081 17.8555C84.4987 18.2773 84.4441 18.7305 84.4441 19.2148ZM101.043 23.5977C101.457 23.5977 101.824 23.5195 102.145 23.3633C102.465 23.1992 102.715 22.9727 102.895 22.6836C103.082 22.3867 103.18 22.0391 103.188 21.6406H106.363C106.355 22.5312 106.117 23.3242 105.648 24.0195C105.18 24.707 104.551 25.25 103.762 25.6484C102.973 26.0391 102.09 26.2344 101.113 26.2344C100.129 26.2344 99.2695 26.0703 98.5352 25.7422C97.8086 25.4141 97.2031 24.9609 96.7188 24.3828C96.2344 23.7969 95.8711 23.1172 95.6289 22.3438C95.3867 21.5625 95.2656 20.7266 95.2656 19.8359V19.4961C95.2656 18.5977 95.3867 17.7617 95.6289 16.9883C95.8711 16.207 96.2344 15.5273 96.7188 14.9492C97.2031 14.3633 97.8086 13.9062 98.5352 13.5781C99.2617 13.25 100.113 13.0859 101.09 13.0859C102.129 13.0859 103.039 13.2852 103.82 13.6836C104.609 14.082 105.227 14.6523 105.672 15.3945C106.125 16.1289 106.355 17 106.363 18.0078H103.188C103.18 17.5859 103.09 17.2031 102.918 16.8594C102.754 16.5156 102.512 16.2422 102.191 16.0391C101.879 15.8281 101.492 15.7227 101.031 15.7227C100.539 15.7227 100.137 15.8281 99.8242 16.0391C99.5117 16.2422 99.2695 16.5234 99.0977 16.8828C98.9258 17.2344 98.8047 17.6367 98.7344 18.0898C98.6719 18.5352 98.6406 19.0039 98.6406 19.4961V19.8359C98.6406 20.3281 98.6719 20.8008 98.7344 21.2539C98.7969 21.707 98.9141 22.1094 99.0859 22.4609C99.2656 22.8125 99.5117 23.0898 99.8242 23.293C100.137 23.4961 100.543 23.5977 101.043 23.5977ZM116.54 22.9648V13.3203H119.915V26H116.74L116.54 22.9648ZM116.915 20.3633L117.911 20.3398C117.911 21.1836 117.814 21.9688 117.618 22.6953C117.423 23.4141 117.13 24.0391 116.74 24.5703C116.349 25.0938 115.857 25.5039 115.263 25.8008C114.669 26.0898 113.97 26.2344 113.165 26.2344C112.548 26.2344 111.978 26.1484 111.454 25.9766C110.939 25.7969 110.493 25.5195 110.118 25.1445C109.751 24.7617 109.462 24.2734 109.251 23.6797C109.048 23.0781 108.947 22.3555 108.947 21.5117V13.3203H112.322V21.5352C112.322 21.9102 112.365 22.2266 112.45 22.4844C112.544 22.7422 112.673 22.9531 112.837 23.1172C113.001 23.2812 113.193 23.3984 113.411 23.4688C113.638 23.5391 113.888 23.5742 114.161 23.5742C114.857 23.5742 115.404 23.4336 115.802 23.1523C116.208 22.8711 116.493 22.4883 116.658 22.0039C116.829 21.5117 116.915 20.9648 116.915 20.3633ZM123.213 8H126.588V23.0938L126.249 26H123.213V8ZM134.616 19.5312V19.7773C134.616 20.7227 134.514 21.5898 134.311 22.3789C134.116 23.168 133.811 23.8516 133.397 24.4297C132.983 25 132.467 25.4453 131.85 25.7656C131.241 26.0781 130.522 26.2344 129.694 26.2344C128.92 26.2344 128.249 26.0781 127.678 25.7656C127.116 25.4531 126.643 25.0117 126.26 24.4414C125.878 23.8711 125.569 23.2031 125.335 22.4375C125.1 21.6719 124.924 20.8359 124.807 19.9297V19.3906C124.924 18.4844 125.1 17.6484 125.335 16.8828C125.569 16.1172 125.878 15.4492 126.26 14.8789C126.643 14.3086 127.116 13.8672 127.678 13.5547C128.241 13.2422 128.905 13.0859 129.67 13.0859C130.506 13.0859 131.233 13.2461 131.85 13.5664C132.475 13.8789 132.991 14.3242 133.397 14.9023C133.811 15.4727 134.116 16.1523 134.311 16.9414C134.514 17.7227 134.616 18.5859 134.616 19.5312ZM131.241 19.7773V19.5312C131.241 19.0156 131.202 18.5312 131.124 18.0781C131.053 17.6172 130.928 17.2148 130.749 16.8711C130.569 16.5195 130.323 16.2422 130.01 16.0391C129.706 15.8359 129.311 15.7344 128.827 15.7344C128.366 15.7344 127.975 15.8125 127.655 15.9688C127.335 16.125 127.069 16.3438 126.858 16.625C126.655 16.9062 126.503 17.2422 126.401 17.6328C126.299 18.0156 126.237 18.4375 126.213 18.8984V20.4336C126.237 21.0508 126.338 21.5977 126.518 22.0742C126.706 22.543 126.987 22.9141 127.362 23.1875C127.745 23.4531 128.241 23.5859 128.85 23.5859C129.327 23.5859 129.721 23.4922 130.034 23.3047C130.346 23.1172 130.588 22.8516 130.76 22.5078C130.94 22.1641 131.065 21.7617 131.135 21.3008C131.206 20.832 131.241 20.3242 131.241 19.7773ZM144.277 23.1406V17.4922C144.277 17.0859 144.211 16.7383 144.078 16.4492C143.945 16.1523 143.738 15.9219 143.457 15.7578C143.183 15.5938 142.828 15.5117 142.39 15.5117C142.015 15.5117 141.691 15.5781 141.418 15.7109C141.144 15.8359 140.933 16.0195 140.785 16.2617C140.637 16.4961 140.562 16.7734 140.562 17.0938H137.187C137.187 16.5547 137.312 16.043 137.562 15.5586C137.812 15.0742 138.176 14.6484 138.652 14.2812C139.129 13.9062 139.695 13.6133 140.351 13.4023C141.015 13.1914 141.758 13.0859 142.578 13.0859C143.562 13.0859 144.437 13.25 145.203 13.5781C145.969 13.9062 146.57 14.3984 147.008 15.0547C147.453 15.7109 147.676 16.5312 147.676 17.5156V22.9414C147.676 23.6367 147.719 24.207 147.805 24.6523C147.89 25.0898 148.015 25.4727 148.18 25.8008V26H144.769C144.605 25.6562 144.48 25.2266 144.394 24.7109C144.316 24.1875 144.277 23.6641 144.277 23.1406ZM144.723 18.2773L144.746 20.1875H142.859C142.414 20.1875 142.027 20.2383 141.699 20.3398C141.371 20.4414 141.101 20.5859 140.89 20.7734C140.68 20.9531 140.523 21.1641 140.422 21.4062C140.328 21.6484 140.281 21.9141 140.281 22.2031C140.281 22.4922 140.348 22.7539 140.48 22.9883C140.613 23.2148 140.805 23.3945 141.055 23.5273C141.305 23.6523 141.598 23.7148 141.933 23.7148C142.441 23.7148 142.883 23.6133 143.258 23.4102C143.633 23.207 143.922 22.957 144.125 22.6602C144.336 22.3633 144.445 22.082 144.453 21.8164L145.344 23.2461C145.219 23.5664 145.047 23.8984 144.828 24.2422C144.617 24.5859 144.348 24.9102 144.019 25.2148C143.691 25.5117 143.297 25.7578 142.836 25.9531C142.375 26.1406 141.828 26.2344 141.195 26.2344C140.39 26.2344 139.66 26.0742 139.004 25.7539C138.355 25.4258 137.84 24.9766 137.457 24.4062C137.082 23.8281 136.894 23.1719 136.894 22.4375C136.894 21.7734 137.019 21.1836 137.269 20.668C137.519 20.1523 137.887 19.7188 138.371 19.3672C138.863 19.0078 139.476 18.7383 140.211 18.5586C140.945 18.3711 141.797 18.2773 142.765 18.2773H144.723ZM157.208 13.3203V15.7109H149.825V13.3203H157.208ZM151.653 10.1914H155.028V22.1797C155.028 22.5469 155.075 22.8281 155.169 23.0234C155.271 23.2188 155.419 23.3555 155.614 23.4336C155.81 23.5039 156.056 23.5391 156.353 23.5391C156.564 23.5391 156.751 23.5312 156.915 23.5156C157.087 23.4922 157.232 23.4688 157.349 23.4453L157.36 25.9297C157.071 26.0234 156.759 26.0977 156.423 26.1523C156.087 26.207 155.716 26.2344 155.31 26.2344C154.568 26.2344 153.919 26.1133 153.364 25.8711C152.818 25.6211 152.396 25.2227 152.099 24.6758C151.802 24.1289 151.653 23.4102 151.653 22.5195V10.1914ZM165.686 26.2344C164.702 26.2344 163.819 26.0781 163.038 25.7656C162.256 25.4453 161.592 25.0039 161.045 24.4414C160.506 23.8789 160.092 23.2266 159.803 22.4844C159.514 21.7344 159.37 20.9375 159.37 20.0938V19.625C159.37 18.6641 159.506 17.7852 159.78 16.9883C160.053 16.1914 160.444 15.5 160.952 14.9141C161.467 14.3281 162.092 13.8789 162.827 13.5664C163.561 13.2461 164.389 13.0859 165.311 13.0859C166.209 13.0859 167.006 13.2344 167.702 13.5312C168.397 13.8281 168.979 14.25 169.448 14.7969C169.924 15.3438 170.284 16 170.526 16.7656C170.768 17.5234 170.889 18.3672 170.889 19.2969V20.7031H160.811V18.4531H167.573V18.1953C167.573 17.7266 167.487 17.3086 167.315 16.9414C167.151 16.5664 166.901 16.2695 166.565 16.0508C166.229 15.832 165.799 15.7227 165.276 15.7227C164.83 15.7227 164.448 15.8203 164.127 16.0156C163.807 16.2109 163.545 16.4844 163.342 16.8359C163.147 17.1875 162.998 17.6016 162.897 18.0781C162.803 18.5469 162.756 19.0625 162.756 19.625V20.0938C162.756 20.6016 162.827 21.0703 162.967 21.5C163.116 21.9297 163.323 22.3008 163.588 22.6133C163.862 22.9258 164.19 23.168 164.573 23.3398C164.963 23.5117 165.405 23.5977 165.897 23.5977C166.506 23.5977 167.073 23.4805 167.596 23.2461C168.127 23.0039 168.584 22.6406 168.967 22.1562L170.608 23.9375C170.342 24.3203 169.979 24.6875 169.518 25.0391C169.065 25.3906 168.518 25.6797 167.877 25.9062C167.237 26.125 166.506 26.2344 165.686 26.2344ZM181.019 23.2344V8H184.418V26H181.359L181.019 23.2344ZM173.004 19.8125V19.5664C173.004 18.5977 173.113 17.7188 173.332 16.9297C173.55 16.1328 173.871 15.4492 174.293 14.8789C174.715 14.3086 175.234 13.8672 175.851 13.5547C176.468 13.2422 177.172 13.0859 177.961 13.0859C178.703 13.0859 179.351 13.2422 179.906 13.5547C180.468 13.8672 180.945 14.3125 181.336 14.8906C181.734 15.4609 182.054 16.1367 182.297 16.918C182.539 17.6914 182.715 18.5391 182.824 19.4609V20C182.715 20.8828 182.539 21.7031 182.297 22.4609C182.054 23.2188 181.734 23.8828 181.336 24.4531C180.945 25.0156 180.468 25.4531 179.906 25.7656C179.343 26.0781 178.687 26.2344 177.937 26.2344C177.148 26.2344 176.445 26.0742 175.828 25.7539C175.218 25.4336 174.703 24.9844 174.281 24.4062C173.867 23.8281 173.55 23.1484 173.332 22.3672C173.113 21.5859 173.004 20.7344 173.004 19.8125ZM176.379 19.5664V19.8125C176.379 20.3359 176.418 20.8242 176.496 21.2773C176.582 21.7305 176.718 22.1328 176.906 22.4844C177.101 22.8281 177.351 23.0977 177.656 23.293C177.968 23.4805 178.347 23.5742 178.793 23.5742C179.371 23.5742 179.847 23.4453 180.222 23.1875C180.597 22.9219 180.883 22.5586 181.078 22.0977C181.281 21.6367 181.398 21.1055 181.429 20.5039V18.9688C181.406 18.4766 181.336 18.0352 181.218 17.6445C181.109 17.2461 180.945 16.9062 180.726 16.625C180.515 16.3438 180.25 16.125 179.929 15.9688C179.617 15.8125 179.246 15.7344 178.816 15.7344C178.379 15.7344 178.004 15.8359 177.691 16.0391C177.379 16.2344 177.125 16.5039 176.929 16.8477C176.742 17.1914 176.601 17.5977 176.508 18.0664C176.422 18.5273 176.379 19.0273 176.379 19.5664Z" fill="white"/>
<g clip-path="url(#clip0_21_284)">
<path d="M11.7004 1.41687C14.2609 4.04303 15.8793 7.6928 16.0898 11.6397V18.7806C16.9198 18.9297 17.6846 19.479 18.2326 20.1902C19.8724 22.3196 19.8615 26.7374 19.3118 29.3488C19.1626 30.0572 19.0105 30.8138 18.2532 30.1498L14.1336 25.3747L13.9991 25.7463C13.7772 26.5435 13.7247 27.6603 13.4423 28.4092C13.3465 28.6634 13.1998 28.7856 12.9796 28.8864L6.70538 28.8984L6.31539 28.6251C5.93759 27.6178 5.84514 26.4709 5.56064 25.422C5.49004 25.4253 5.05929 25.8973 4.97062 25.9947C3.79562 27.2815 2.65593 28.9562 1.42252 30.1283C1.19307 30.3461 1.08044 30.477 0.750551 30.3629C0.524041 30.2845 0.392085 29.559 0.340395 29.3029C-0.297531 26.1509 -0.318543 20.5499 2.79965 19.0362C2.93455 18.9708 3.53423 18.7892 3.55903 18.7052L3.56281 11.7835C3.69014 7.87192 5.31059 4.19731 7.80851 1.56303C8.11403 1.24062 9.30247 0.0727461 9.63992 0.014472C9.77986 -0.00988851 10.0152 -0.00272366 10.1514 0.0479079C10.459 0.162546 11.4112 1.1212 11.6999 1.41735L11.7004 1.41687ZM11.9227 10.6127C11.9227 9.30203 10.9881 8.23972 9.83492 8.23972C8.68177 8.23972 7.74715 9.30203 7.74715 10.6127C7.74715 11.9234 8.68177 12.9857 9.83492 12.9857C10.9881 12.9857 11.9227 11.9234 11.9227 10.6127Z" fill="#3CE5A7"/>
<path d="M9.59284 36.7704C9.67773 36.8716 9.77565 36.9576 9.84751 37.0761C10.5237 36.3114 11.0687 35.602 11.2868 34.5096C11.5091 33.3957 11.2566 32.9797 11.1767 31.9843C11.1158 31.2238 11.6054 31.0328 12.1097 31.4488C12.6959 31.9327 13.2868 32.8861 13.5263 33.6599C14.5778 37.0584 12.3652 40.093 10.4165 42.3556C10.3295 42.4564 9.87525 43.0014 9.80549 43.0014C9.65168 42.8849 9.51132 42.7196 9.38314 42.571C8.24807 41.2556 6.6356 39.1152 6.15064 37.3612C5.59887 35.3637 5.95019 32.9501 7.4223 31.5859C7.68873 31.339 8.0182 31.0223 8.35733 31.3657C8.69647 31.7091 8.38423 32.2049 8.32371 32.6219C8.06947 34.3788 8.56283 35.5414 9.59242 36.7699L9.59284 36.7704Z" fill="#3CE5A7"/>
</g>
<defs>
<clipPath id="clip0_21_284">
<rect width="19.6442" height="43.001" fill="white"/>
</clipPath>
</defs>
</svg>
