<svg width="172" height="108" viewBox="0 0 172 108" fill="none" xmlns="http://www.w3.org/2000/svg">
<path d="M21.305 59.082V65.8438C21.0394 66.1641 20.6292 66.5117 20.0745 66.8867C19.5198 67.2539 18.805 67.5703 17.93 67.8359C17.055 68.1016 15.9964 68.2344 14.7542 68.2344C13.6527 68.2344 12.6488 68.0547 11.7425 67.6953C10.8363 67.3281 10.055 66.793 9.39875 66.0898C8.75031 65.3867 8.25031 64.5273 7.89875 63.5117C7.54719 62.4883 7.37141 61.3203 7.37141 60.0078V58.9414C7.37141 57.6289 7.53938 56.4609 7.87531 55.4375C8.21906 54.4141 8.70734 53.5508 9.34016 52.8477C9.97297 52.1445 10.7269 51.6094 11.6019 51.2422C12.4769 50.875 13.4495 50.6914 14.5198 50.6914C16.0042 50.6914 17.223 50.9336 18.1761 51.418C19.1292 51.8945 19.8558 52.5586 20.3558 53.4102C20.8636 54.2539 21.1761 55.2227 21.2933 56.3164H17.8831C17.7972 55.7383 17.6331 55.2344 17.3909 54.8047C17.1488 54.375 16.8011 54.0391 16.348 53.7969C15.9027 53.5547 15.3245 53.4336 14.6136 53.4336C14.0277 53.4336 13.5042 53.5547 13.0433 53.7969C12.5902 54.0312 12.2073 54.3789 11.8948 54.8398C11.5823 55.3008 11.3441 55.8711 11.18 56.5508C11.0159 57.2305 10.9339 58.0195 10.9339 58.918V60.0078C10.9339 60.8984 11.0198 61.6875 11.1917 62.375C11.3636 63.0547 11.6175 63.6289 11.9534 64.0977C12.2972 64.5586 12.7191 64.9062 13.2191 65.1406C13.7191 65.375 14.3011 65.4922 14.9652 65.4922C15.5198 65.4922 15.9808 65.4453 16.348 65.3516C16.723 65.2578 17.0238 65.1445 17.2503 65.0117C17.4847 64.8711 17.6644 64.7383 17.7894 64.6133V61.5898H14.5784V59.082H21.305ZM30.4859 68.2344C29.5016 68.2344 28.6187 68.0781 27.8375 67.7656C27.0562 67.4453 26.3922 67.0039 25.8453 66.4414C25.3062 65.8789 24.8922 65.2266 24.6031 64.4844C24.3141 63.7344 24.1695 62.9375 24.1695 62.0938V61.625C24.1695 60.6641 24.3062 59.7852 24.5797 58.9883C24.8531 58.1914 25.2437 57.5 25.7516 56.9141C26.2672 56.3281 26.8922 55.8789 27.6266 55.5664C28.3609 55.2461 29.1891 55.0859 30.1109 55.0859C31.0094 55.0859 31.8062 55.2344 32.5016 55.5312C33.1969 55.8281 33.7789 56.25 34.2477 56.7969C34.7242 57.3438 35.0836 58 35.3258 58.7656C35.568 59.5234 35.6891 60.3672 35.6891 61.2969V62.7031H25.6109V60.4531H32.3727V60.1953C32.3727 59.7266 32.2867 59.3086 32.1148 58.9414C31.9508 58.5664 31.7008 58.2695 31.3648 58.0508C31.0289 57.832 30.5992 57.7227 30.0758 57.7227C29.6305 57.7227 29.2477 57.8203 28.9273 58.0156C28.607 58.2109 28.3453 58.4844 28.1422 58.8359C27.9469 59.1875 27.7984 59.6016 27.6969 60.0781C27.6031 60.5469 27.5562 61.0625 27.5562 61.625V62.0938C27.5562 62.6016 27.6266 63.0703 27.7672 63.5C27.9156 63.9297 28.1227 64.3008 28.3883 64.6133C28.6617 64.9258 28.9898 65.168 29.3727 65.3398C29.7633 65.5117 30.2047 65.5977 30.6969 65.5977C31.3062 65.5977 31.8727 65.4805 32.3961 65.2461C32.9273 65.0039 33.3844 64.6406 33.7672 64.1562L35.4078 65.9375C35.1422 66.3203 34.7789 66.6875 34.318 67.0391C33.8648 67.3906 33.318 67.6797 32.6773 67.9062C32.0367 68.125 31.3062 68.2344 30.4859 68.2344ZM44.5419 55.3203V57.7109H37.1591V55.3203H44.5419ZM38.9872 52.1914H42.3622V64.1797C42.3622 64.5469 42.4091 64.8281 42.5028 65.0234C42.6044 65.2188 42.7528 65.3555 42.9481 65.4336C43.1434 65.5039 43.3895 65.5391 43.6864 65.5391C43.8973 65.5391 44.0848 65.5312 44.2489 65.5156C44.4208 65.4922 44.5653 65.4688 44.6825 65.4453L44.6942 67.9297C44.4052 68.0234 44.0927 68.0977 43.7567 68.1523C43.4208 68.207 43.0497 68.2344 42.6434 68.2344C41.9013 68.2344 41.2528 68.1133 40.6981 67.8711C40.1513 67.6211 39.7294 67.2227 39.4325 66.6758C39.1356 66.1289 38.9872 65.4102 38.9872 64.5195V52.1914ZM57.8295 50.9375V68H54.3256V50.9375H57.8295ZM64.9362 58.0273V68H61.5612V55.3203H64.7253L64.9362 58.0273ZM64.4441 61.2148H63.53C63.53 60.2773 63.6511 59.4336 63.8933 58.6836C64.1355 57.9258 64.4753 57.2812 64.9128 56.75C65.3503 56.2109 65.8698 55.8008 66.4714 55.5195C67.0808 55.2305 67.7605 55.0859 68.5105 55.0859C69.1042 55.0859 69.6472 55.1719 70.1394 55.3438C70.6316 55.5156 71.0534 55.7891 71.405 56.1641C71.7644 56.5391 72.0378 57.0352 72.2253 57.6523C72.4206 58.2695 72.5183 59.0234 72.5183 59.9141V68H69.1198V59.9023C69.1198 59.3398 69.0417 58.9023 68.8855 58.5898C68.7292 58.2773 68.4987 58.0586 68.1941 57.9336C67.8972 57.8008 67.53 57.7344 67.0925 57.7344C66.6394 57.7344 66.2448 57.8242 65.9089 58.0039C65.5808 58.1836 65.3073 58.4336 65.0886 58.7539C64.8777 59.0664 64.7175 59.4336 64.6081 59.8555C64.4987 60.2773 64.4441 60.7305 64.4441 61.2148ZM81.043 65.5977C81.457 65.5977 81.8242 65.5195 82.1445 65.3633C82.4648 65.1992 82.7148 64.9727 82.8945 64.6836C83.082 64.3867 83.1797 64.0391 83.1875 63.6406H86.3633C86.3555 64.5312 86.1172 65.3242 85.6484 66.0195C85.1797 66.707 84.5508 67.25 83.7617 67.6484C82.9727 68.0391 82.0898 68.2344 81.1133 68.2344C80.1289 68.2344 79.2695 68.0703 78.5352 67.7422C77.8086 67.4141 77.2031 66.9609 76.7188 66.3828C76.2344 65.7969 75.8711 65.1172 75.6289 64.3438C75.3867 63.5625 75.2656 62.7266 75.2656 61.8359V61.4961C75.2656 60.5977 75.3867 59.7617 75.6289 58.9883C75.8711 58.207 76.2344 57.5273 76.7188 56.9492C77.2031 56.3633 77.8086 55.9062 78.5352 55.5781C79.2617 55.25 80.1133 55.0859 81.0898 55.0859C82.1289 55.0859 83.0391 55.2852 83.8203 55.6836C84.6094 56.082 85.2266 56.6523 85.6719 57.3945C86.125 58.1289 86.3555 59 86.3633 60.0078H83.1875C83.1797 59.5859 83.0898 59.2031 82.918 58.8594C82.7539 58.5156 82.5117 58.2422 82.1914 58.0391C81.8789 57.8281 81.4922 57.7227 81.0312 57.7227C80.5391 57.7227 80.1367 57.8281 79.8242 58.0391C79.5117 58.2422 79.2695 58.5234 79.0977 58.8828C78.9258 59.2344 78.8047 59.6367 78.7344 60.0898C78.6719 60.5352 78.6406 61.0039 78.6406 61.4961V61.8359C78.6406 62.3281 78.6719 62.8008 78.7344 63.2539C78.7969 63.707 78.9141 64.1094 79.0859 64.4609C79.2656 64.8125 79.5117 65.0898 79.8242 65.293C80.1367 65.4961 80.543 65.5977 81.043 65.5977ZM96.5403 64.9648V55.3203H99.9153V68H96.7395L96.5403 64.9648ZM96.9153 62.3633L97.9114 62.3398C97.9114 63.1836 97.8138 63.9688 97.6184 64.6953C97.4231 65.4141 97.1302 66.0391 96.7395 66.5703C96.3489 67.0938 95.8567 67.5039 95.263 67.8008C94.6692 68.0898 93.97 68.2344 93.1653 68.2344C92.5481 68.2344 91.9778 68.1484 91.4544 67.9766C90.9388 67.7969 90.4934 67.5195 90.1184 67.1445C89.7513 66.7617 89.4622 66.2734 89.2513 65.6797C89.0481 65.0781 88.9466 64.3555 88.9466 63.5117V55.3203H92.3216V63.5352C92.3216 63.9102 92.3645 64.2266 92.4505 64.4844C92.5442 64.7422 92.6731 64.9531 92.8372 65.1172C93.0013 65.2812 93.1927 65.3984 93.4114 65.4688C93.638 65.5391 93.888 65.5742 94.1614 65.5742C94.8567 65.5742 95.4036 65.4336 95.802 65.1523C96.2083 64.8711 96.4934 64.4883 96.6575 64.0039C96.8294 63.5117 96.9153 62.9648 96.9153 62.3633ZM103.213 50H106.588V65.0938L106.249 68H103.213V50ZM114.616 61.5312V61.7773C114.616 62.7227 114.514 63.5898 114.311 64.3789C114.116 65.168 113.811 65.8516 113.397 66.4297C112.983 67 112.467 67.4453 111.85 67.7656C111.241 68.0781 110.522 68.2344 109.694 68.2344C108.92 68.2344 108.249 68.0781 107.678 67.7656C107.116 67.4531 106.643 67.0117 106.26 66.4414C105.878 65.8711 105.569 65.2031 105.335 64.4375C105.1 63.6719 104.924 62.8359 104.807 61.9297V61.3906C104.924 60.4844 105.1 59.6484 105.335 58.8828C105.569 58.1172 105.878 57.4492 106.26 56.8789C106.643 56.3086 107.116 55.8672 107.678 55.5547C108.241 55.2422 108.905 55.0859 109.67 55.0859C110.506 55.0859 111.233 55.2461 111.85 55.5664C112.475 55.8789 112.991 56.3242 113.397 56.9023C113.811 57.4727 114.116 58.1523 114.311 58.9414C114.514 59.7227 114.616 60.5859 114.616 61.5312ZM111.241 61.7773V61.5312C111.241 61.0156 111.202 60.5312 111.124 60.0781C111.053 59.6172 110.928 59.2148 110.749 58.8711C110.569 58.5195 110.323 58.2422 110.01 58.0391C109.706 57.8359 109.311 57.7344 108.827 57.7344C108.366 57.7344 107.975 57.8125 107.655 57.9688C107.335 58.125 107.069 58.3438 106.858 58.625C106.655 58.9062 106.503 59.2422 106.401 59.6328C106.299 60.0156 106.237 60.4375 106.213 60.8984V62.4336C106.237 63.0508 106.338 63.5977 106.518 64.0742C106.706 64.543 106.987 64.9141 107.362 65.1875C107.745 65.4531 108.241 65.5859 108.85 65.5859C109.327 65.5859 109.721 65.4922 110.034 65.3047C110.346 65.1172 110.588 64.8516 110.76 64.5078C110.94 64.1641 111.065 63.7617 111.135 63.3008C111.206 62.832 111.241 62.3242 111.241 61.7773ZM124.277 65.1406V59.4922C124.277 59.0859 124.211 58.7383 124.078 58.4492C123.945 58.1523 123.738 57.9219 123.457 57.7578C123.183 57.5938 122.828 57.5117 122.39 57.5117C122.015 57.5117 121.691 57.5781 121.418 57.7109C121.144 57.8359 120.933 58.0195 120.785 58.2617C120.637 58.4961 120.562 58.7734 120.562 59.0938H117.187C117.187 58.5547 117.312 58.043 117.562 57.5586C117.812 57.0742 118.176 56.6484 118.652 56.2812C119.129 55.9062 119.695 55.6133 120.351 55.4023C121.015 55.1914 121.758 55.0859 122.578 55.0859C123.562 55.0859 124.437 55.25 125.203 55.5781C125.969 55.9062 126.57 56.3984 127.008 57.0547C127.453 57.7109 127.676 58.5312 127.676 59.5156V64.9414C127.676 65.6367 127.719 66.207 127.805 66.6523C127.89 67.0898 128.015 67.4727 128.18 67.8008V68H124.769C124.605 67.6562 124.48 67.2266 124.394 66.7109C124.316 66.1875 124.277 65.6641 124.277 65.1406ZM124.723 60.2773L124.746 62.1875H122.859C122.414 62.1875 122.027 62.2383 121.699 62.3398C121.371 62.4414 121.101 62.5859 120.89 62.7734C120.68 62.9531 120.523 63.1641 120.422 63.4062C120.328 63.6484 120.281 63.9141 120.281 64.2031C120.281 64.4922 120.348 64.7539 120.48 64.9883C120.613 65.2148 120.805 65.3945 121.055 65.5273C121.305 65.6523 121.598 65.7148 121.933 65.7148C122.441 65.7148 122.883 65.6133 123.258 65.4102C123.633 65.207 123.922 64.957 124.125 64.6602C124.336 64.3633 124.445 64.082 124.453 63.8164L125.344 65.2461C125.219 65.5664 125.047 65.8984 124.828 66.2422C124.617 66.5859 124.348 66.9102 124.019 67.2148C123.691 67.5117 123.297 67.7578 122.836 67.9531C122.375 68.1406 121.828 68.2344 121.195 68.2344C120.39 68.2344 119.66 68.0742 119.004 67.7539C118.355 67.4258 117.84 66.9766 117.457 66.4062C117.082 65.8281 116.894 65.1719 116.894 64.4375C116.894 63.7734 117.019 63.1836 117.269 62.668C117.519 62.1523 117.887 61.7188 118.371 61.3672C118.863 61.0078 119.476 60.7383 120.211 60.5586C120.945 60.3711 121.797 60.2773 122.765 60.2773H124.723ZM137.208 55.3203V57.7109H129.825V55.3203H137.208ZM131.653 52.1914H135.028V64.1797C135.028 64.5469 135.075 64.8281 135.169 65.0234C135.271 65.2188 135.419 65.3555 135.614 65.4336C135.81 65.5039 136.056 65.5391 136.353 65.5391C136.564 65.5391 136.751 65.5312 136.915 65.5156C137.087 65.4922 137.232 65.4688 137.349 65.4453L137.36 67.9297C137.071 68.0234 136.759 68.0977 136.423 68.1523C136.087 68.207 135.716 68.2344 135.31 68.2344C134.568 68.2344 133.919 68.1133 133.364 67.8711C132.818 67.6211 132.396 67.2227 132.099 66.6758C131.802 66.1289 131.653 65.4102 131.653 64.5195V52.1914ZM145.686 68.2344C144.702 68.2344 143.819 68.0781 143.038 67.7656C142.256 67.4453 141.592 67.0039 141.045 66.4414C140.506 65.8789 140.092 65.2266 139.803 64.4844C139.514 63.7344 139.37 62.9375 139.37 62.0938V61.625C139.37 60.6641 139.506 59.7852 139.78 58.9883C140.053 58.1914 140.444 57.5 140.952 56.9141C141.467 56.3281 142.092 55.8789 142.827 55.5664C143.561 55.2461 144.389 55.0859 145.311 55.0859C146.209 55.0859 147.006 55.2344 147.702 55.5312C148.397 55.8281 148.979 56.25 149.448 56.7969C149.924 57.3438 150.284 58 150.526 58.7656C150.768 59.5234 150.889 60.3672 150.889 61.2969V62.7031H140.811V60.4531H147.573V60.1953C147.573 59.7266 147.487 59.3086 147.315 58.9414C147.151 58.5664 146.901 58.2695 146.565 58.0508C146.229 57.832 145.799 57.7227 145.276 57.7227C144.83 57.7227 144.448 57.8203 144.127 58.0156C143.807 58.2109 143.545 58.4844 143.342 58.8359C143.147 59.1875 142.998 59.6016 142.897 60.0781C142.803 60.5469 142.756 61.0625 142.756 61.625V62.0938C142.756 62.6016 142.827 63.0703 142.967 63.5C143.116 63.9297 143.323 64.3008 143.588 64.6133C143.862 64.9258 144.19 65.168 144.573 65.3398C144.963 65.5117 145.405 65.5977 145.897 65.5977C146.506 65.5977 147.073 65.4805 147.596 65.2461C148.127 65.0039 148.584 64.6406 148.967 64.1562L150.608 65.9375C150.342 66.3203 149.979 66.6875 149.518 67.0391C149.065 67.3906 148.518 67.6797 147.877 67.9062C147.237 68.125 146.506 68.2344 145.686 68.2344ZM161.019 65.2344V50H164.418V68H161.359L161.019 65.2344ZM153.004 61.8125V61.5664C153.004 60.5977 153.113 59.7188 153.332 58.9297C153.55 58.1328 153.871 57.4492 154.293 56.8789C154.715 56.3086 155.234 55.8672 155.851 55.5547C156.468 55.2422 157.172 55.0859 157.961 55.0859C158.703 55.0859 159.351 55.2422 159.906 55.5547C160.468 55.8672 160.945 56.3125 161.336 56.8906C161.734 57.4609 162.054 58.1367 162.297 58.918C162.539 59.6914 162.715 60.5391 162.824 61.4609V62C162.715 62.8828 162.539 63.7031 162.297 64.4609C162.054 65.2188 161.734 65.8828 161.336 66.4531C160.945 67.0156 160.468 67.4531 159.906 67.7656C159.343 68.0781 158.687 68.2344 157.937 68.2344C157.148 68.2344 156.445 68.0742 155.828 67.7539C155.218 67.4336 154.703 66.9844 154.281 66.4062C153.867 65.8281 153.55 65.1484 153.332 64.3672C153.113 63.5859 153.004 62.7344 153.004 61.8125ZM156.379 61.5664V61.8125C156.379 62.3359 156.418 62.8242 156.496 63.2773C156.582 63.7305 156.718 64.1328 156.906 64.4844C157.101 64.8281 157.351 65.0977 157.656 65.293C157.968 65.4805 158.347 65.5742 158.793 65.5742C159.371 65.5742 159.847 65.4453 160.222 65.1875C160.597 64.9219 160.883 64.5586 161.078 64.0977C161.281 63.6367 161.398 63.1055 161.429 62.5039V60.9688C161.406 60.4766 161.336 60.0352 161.218 59.6445C161.109 59.2461 160.945 58.9062 160.726 58.625C160.515 58.3438 160.25 58.125 159.929 57.9688C159.617 57.8125 159.246 57.7344 158.816 57.7344C158.379 57.7344 158.004 57.8359 157.691 58.0391C157.379 58.2344 157.125 58.5039 156.929 58.8477C156.742 59.1914 156.601 59.5977 156.508 60.0664C156.422 60.5273 156.379 61.0273 156.379 61.5664Z" fill="white"/>
<g clip-path="url(#clip0_138_845)">
<path d="M87.7003 1.41669C90.2609 4.04284 91.8792 7.69262 92.0898 11.6395V18.7805C92.9197 18.9295 93.6846 19.4788 94.2326 20.19C95.8724 22.3194 95.8614 26.7373 95.3118 29.3486C95.1626 30.057 95.0104 30.8136 94.2532 30.1496L90.1335 25.3745L89.9991 25.7461C89.7772 26.5433 89.7246 27.6601 89.4422 28.4091C89.3464 28.6632 89.1998 28.7855 88.9796 28.8862L82.7053 28.8982L82.3154 28.625C81.9376 27.6176 81.8451 26.4707 81.5606 25.4218C81.49 25.4251 81.0593 25.8971 80.9706 25.9945C79.7956 27.2813 78.6559 28.956 77.4225 30.1282C77.193 30.346 77.0804 30.4768 76.7505 30.3627C76.524 30.2843 76.3921 29.5588 76.3404 29.3028C75.7024 26.1507 75.6814 20.5497 78.7996 19.036C78.9345 18.9706 79.5342 18.7891 79.559 18.705L79.5628 11.7833C79.6901 7.87174 81.3106 4.19713 83.8085 1.56285C84.114 1.24043 85.3024 0.072563 85.6399 0.0142889C85.7798 -0.0100716 86.0152 -0.00290677 86.1513 0.0477248C86.4589 0.162362 87.4112 1.12102 87.6999 1.41717L87.7003 1.41669ZM87.9226 10.6125C87.9226 9.30184 86.988 8.23954 85.8349 8.23954C84.6817 8.23954 83.7471 9.30184 83.7471 10.6125C83.7471 11.9232 84.6817 12.9855 85.8349 12.9855C86.988 12.9855 87.9226 11.9232 87.9226 10.6125Z" fill="#3CE5A7"/>
<path d="M85.593 36.7705C85.6779 36.8718 85.7758 36.9578 85.8476 37.0762C86.5238 36.3115 87.0689 35.6022 87.287 34.5098C87.5093 33.3959 87.2567 32.9798 87.1769 31.9844C87.1159 31.224 87.6055 31.0329 88.1098 31.4489C88.696 31.9328 89.2869 32.8862 89.5264 33.66C90.5779 37.0585 88.3653 40.0931 86.4166 42.3557C86.3296 42.4565 85.8754 43.0015 85.8056 43.0015C85.6518 42.885 85.5114 42.7197 85.3833 42.5712C84.2482 41.2557 82.6357 39.1153 82.1508 37.3614C81.599 35.3638 81.9503 32.9502 83.4224 31.586C83.6889 31.3391 84.0183 31.0224 84.3575 31.3658C84.6966 31.7093 84.3844 32.2051 84.3238 32.6221C84.0696 34.3789 84.563 35.5415 85.5925 36.77L85.593 36.7705Z" fill="#3CE5A7"/>
</g>
<defs>
<clipPath id="clip0_138_845">
<rect width="19.6442" height="43.001" fill="white" transform="translate(76)"/>
</clipPath>
</defs>
</svg>
