<svg width="188" height="66" viewBox="0 0 188 66" fill="none" xmlns="http://www.w3.org/2000/svg">
<path d="M51.0914 17.082V23.8438C50.8258 24.1641 50.4156 24.5117 49.8609 24.8867C49.3063 25.2539 48.5914 25.5703 47.7164 25.8359C46.8414 26.1016 45.7828 26.2344 44.5406 26.2344C43.4391 26.2344 42.4352 26.0547 41.5289 25.6953C40.6227 25.3281 39.8414 24.793 39.1852 24.0898C38.5367 23.3867 38.0367 22.5273 37.6852 21.5117C37.3336 20.4883 37.1578 19.3203 37.1578 18.0078V16.9414C37.1578 15.6289 37.3258 14.4609 37.6617 13.4375C38.0055 12.4141 38.4938 11.5508 39.1266 10.8477C39.7594 10.1445 40.5133 9.60938 41.3883 9.24219C42.2633 8.875 43.2359 8.69141 44.3063 8.69141C45.7906 8.69141 47.0094 8.93359 47.9625 9.41797C48.9156 9.89453 49.6422 10.5586 50.1422 11.4102C50.65 12.2539 50.9625 13.2227 51.0797 14.3164H47.6695C47.5836 13.7383 47.4195 13.2344 47.1773 12.8047C46.9352 12.375 46.5875 12.0391 46.1344 11.7969C45.6891 11.5547 45.1109 11.4336 44.4 11.4336C43.8141 11.4336 43.2906 11.5547 42.8297 11.7969C42.3766 12.0312 41.9938 12.3789 41.6813 12.8398C41.3688 13.3008 41.1305 13.8711 40.9664 14.5508C40.8023 15.2305 40.7203 16.0195 40.7203 16.918V18.0078C40.7203 18.8984 40.8063 19.6875 40.9781 20.375C41.15 21.0547 41.4039 21.6289 41.7398 22.0977C42.0836 22.5586 42.5055 22.9062 43.0055 23.1406C43.5055 23.375 44.0875 23.4922 44.7516 23.4922C45.3063 23.4922 45.7672 23.4453 46.1344 23.3516C46.5094 23.2578 46.8102 23.1445 47.0367 23.0117C47.2711 22.8711 47.4508 22.7383 47.5758 22.6133V19.5898H44.3648V17.082H51.0914ZM60.2723 26.2344C59.288 26.2344 58.4052 26.0781 57.6239 25.7656C56.8427 25.4453 56.1786 25.0039 55.6317 24.4414C55.0927 23.8789 54.6786 23.2266 54.3895 22.4844C54.1005 21.7344 53.9559 20.9375 53.9559 20.0938V19.625C53.9559 18.6641 54.0927 17.7852 54.3661 16.9883C54.6395 16.1914 55.0302 15.5 55.538 14.9141C56.0536 14.3281 56.6786 13.8789 57.413 13.5664C58.1473 13.2461 58.9755 13.0859 59.8973 13.0859C60.7958 13.0859 61.5927 13.2344 62.288 13.5312C62.9833 13.8281 63.5653 14.25 64.0341 14.7969C64.5106 15.3438 64.87 16 65.1122 16.7656C65.3544 17.5234 65.4755 18.3672 65.4755 19.2969V20.7031H55.3973V18.4531H62.1591V18.1953C62.1591 17.7266 62.0731 17.3086 61.9013 16.9414C61.7372 16.5664 61.4872 16.2695 61.1513 16.0508C60.8153 15.832 60.3856 15.7227 59.8622 15.7227C59.4169 15.7227 59.0341 15.8203 58.7138 16.0156C58.3934 16.2109 58.1317 16.4844 57.9286 16.8359C57.7333 17.1875 57.5848 17.6016 57.4833 18.0781C57.3895 18.5469 57.3427 19.0625 57.3427 19.625V20.0938C57.3427 20.6016 57.413 21.0703 57.5536 21.5C57.702 21.9297 57.9091 22.3008 58.1747 22.6133C58.4481 22.9258 58.7763 23.168 59.1591 23.3398C59.5497 23.5117 59.9911 23.5977 60.4833 23.5977C61.0927 23.5977 61.6591 23.4805 62.1825 23.2461C62.7138 23.0039 63.1708 22.6406 63.5536 22.1562L65.1942 23.9375C64.9286 24.3203 64.5653 24.6875 64.1044 25.0391C63.6513 25.3906 63.1044 25.6797 62.4638 25.9062C61.8231 26.125 61.0927 26.2344 60.2723 26.2344ZM74.3283 13.3203V15.7109H66.9455V13.3203H74.3283ZM68.7736 10.1914H72.1486V22.1797C72.1486 22.5469 72.1955 22.8281 72.2892 23.0234C72.3908 23.2188 72.5392 23.3555 72.7345 23.4336C72.9298 23.5039 73.1759 23.5391 73.4728 23.5391C73.6838 23.5391 73.8713 23.5312 74.0353 23.5156C74.2072 23.4922 74.3517 23.4688 74.4689 23.4453L74.4806 25.9297C74.1916 26.0234 73.8791 26.0977 73.5431 26.1523C73.2072 26.207 72.8361 26.2344 72.4298 26.2344C71.6877 26.2344 71.0392 26.1133 70.4845 25.8711C69.9377 25.6211 69.5158 25.2227 69.2189 24.6758C68.922 24.1289 68.7736 23.4102 68.7736 22.5195V10.1914ZM90.8152 11.8555L86.1745 26H82.4362L88.7761 8.9375H91.155L90.8152 11.8555ZM94.6706 26L90.0183 11.8555L89.6433 8.9375H92.0456L98.4206 26H94.6706ZM94.4597 19.6484V22.4023H85.448V19.6484H94.4597ZM120.943 17.082V23.8438C120.677 24.1641 120.267 24.5117 119.712 24.8867C119.158 25.2539 118.443 25.5703 117.568 25.8359C116.693 26.1016 115.634 26.2344 114.392 26.2344C113.29 26.2344 112.286 26.0547 111.38 25.6953C110.474 25.3281 109.693 24.793 109.036 24.0898C108.388 23.3867 107.888 22.5273 107.536 21.5117C107.185 20.4883 107.009 19.3203 107.009 18.0078V16.9414C107.009 15.6289 107.177 14.4609 107.513 13.4375C107.857 12.4141 108.345 11.5508 108.978 10.8477C109.611 10.1445 110.365 9.60938 111.24 9.24219C112.115 8.875 113.087 8.69141 114.158 8.69141C115.642 8.69141 116.861 8.93359 117.814 9.41797C118.767 9.89453 119.493 10.5586 119.993 11.4102C120.501 12.2539 120.814 13.2227 120.931 14.3164H117.521C117.435 13.7383 117.271 13.2344 117.029 12.8047C116.786 12.375 116.439 12.0391 115.986 11.7969C115.54 11.5547 114.962 11.4336 114.251 11.4336C113.665 11.4336 113.142 11.5547 112.681 11.7969C112.228 12.0312 111.845 12.3789 111.533 12.8398C111.22 13.3008 110.982 13.8711 110.818 14.5508C110.654 15.2305 110.572 16.0195 110.572 16.918V18.0078C110.572 18.8984 110.658 19.6875 110.829 20.375C111.001 21.0547 111.255 21.6289 111.591 22.0977C111.935 22.5586 112.357 22.9062 112.857 23.1406C113.357 23.375 113.939 23.4922 114.603 23.4922C115.158 23.4922 115.618 23.4453 115.986 23.3516C116.361 23.2578 116.661 23.1445 116.888 23.0117C117.122 22.8711 117.302 22.7383 117.427 22.6133V19.5898H114.216V17.082H120.943ZM127.663 16.0859V26H124.288V13.3203H127.463L127.663 16.0859ZM131.483 13.2383L131.424 16.3672C131.26 16.3438 131.061 16.3242 130.827 16.3086C130.6 16.2852 130.393 16.2734 130.206 16.2734C129.729 16.2734 129.315 16.3359 128.963 16.4609C128.62 16.5781 128.331 16.7539 128.096 16.9883C127.87 17.2227 127.698 17.5078 127.581 17.8438C127.471 18.1797 127.409 18.5625 127.393 18.9922L126.713 18.7812C126.713 17.9609 126.795 17.207 126.96 16.5195C127.124 15.8242 127.362 15.2188 127.674 14.7031C127.995 14.1875 128.385 13.7891 128.846 13.5078C129.307 13.2266 129.835 13.0859 130.428 13.0859C130.616 13.0859 130.807 13.1016 131.003 13.1328C131.198 13.1562 131.358 13.1914 131.483 13.2383ZM140.242 23.1406V17.4922C140.242 17.0859 140.176 16.7383 140.043 16.4492C139.91 16.1523 139.703 15.9219 139.422 15.7578C139.148 15.5938 138.793 15.5117 138.355 15.5117C137.98 15.5117 137.656 15.5781 137.383 15.7109C137.109 15.8359 136.898 16.0195 136.75 16.2617C136.601 16.4961 136.527 16.7734 136.527 17.0938H133.152C133.152 16.5547 133.277 16.043 133.527 15.5586C133.777 15.0742 134.14 14.6484 134.617 14.2812C135.094 13.9062 135.66 13.6133 136.316 13.4023C136.98 13.1914 137.723 13.0859 138.543 13.0859C139.527 13.0859 140.402 13.25 141.168 13.5781C141.933 13.9062 142.535 14.3984 142.973 15.0547C143.418 15.7109 143.64 16.5312 143.64 17.5156V22.9414C143.64 23.6367 143.683 24.207 143.769 24.6523C143.855 25.0898 143.98 25.4727 144.144 25.8008V26H140.734C140.57 25.6562 140.445 25.2266 140.359 24.7109C140.281 24.1875 140.242 23.6641 140.242 23.1406ZM140.687 18.2773L140.711 20.1875H138.824C138.379 20.1875 137.992 20.2383 137.664 20.3398C137.336 20.4414 137.066 20.5859 136.855 20.7734C136.644 20.9531 136.488 21.1641 136.387 21.4062C136.293 21.6484 136.246 21.9141 136.246 22.2031C136.246 22.4922 136.312 22.7539 136.445 22.9883C136.578 23.2148 136.769 23.3945 137.019 23.5273C137.269 23.6523 137.562 23.7148 137.898 23.7148C138.406 23.7148 138.848 23.6133 139.223 23.4102C139.598 23.207 139.887 22.957 140.09 22.6602C140.301 22.3633 140.41 22.082 140.418 21.8164L141.308 23.2461C141.183 23.5664 141.012 23.8984 140.793 24.2422C140.582 24.5859 140.312 24.9102 139.984 25.2148C139.656 25.5117 139.262 25.7578 138.801 25.9531C138.34 26.1406 137.793 26.2344 137.16 26.2344C136.355 26.2344 135.625 26.0742 134.969 25.7539C134.32 25.4258 133.805 24.9766 133.422 24.4062C133.047 23.8281 132.859 23.1719 132.859 22.4375C132.859 21.7734 132.984 21.1836 133.234 20.668C133.484 20.1523 133.851 19.7188 134.336 19.3672C134.828 19.0078 135.441 18.7383 136.176 18.5586C136.91 18.3711 137.762 18.2773 138.73 18.2773H140.687ZM150.267 16.0273V26H146.892V13.3203H150.056L150.267 16.0273ZM149.775 19.2148H148.86C148.86 18.2773 148.982 17.4336 149.224 16.6836C149.466 15.9258 149.806 15.2812 150.243 14.75C150.681 14.2109 151.2 13.8008 151.802 13.5195C152.411 13.2305 153.091 13.0859 153.841 13.0859C154.435 13.0859 154.978 13.1719 155.47 13.3438C155.962 13.5156 156.384 13.7891 156.735 14.1641C157.095 14.5391 157.368 15.0352 157.556 15.6523C157.751 16.2695 157.849 17.0234 157.849 17.9141V26H154.45V17.9023C154.45 17.3398 154.372 16.9023 154.216 16.5898C154.06 16.2773 153.829 16.0586 153.525 15.9336C153.228 15.8008 152.86 15.7344 152.423 15.7344C151.97 15.7344 151.575 15.8242 151.239 16.0039C150.911 16.1836 150.638 16.4336 150.419 16.7539C150.208 17.0664 150.048 17.4336 149.939 17.8555C149.829 18.2773 149.775 18.7305 149.775 19.2148ZM167.346 13.3203V15.7109H159.963V13.3203H167.346ZM161.791 10.1914H165.166V22.1797C165.166 22.5469 165.213 22.8281 165.307 23.0234C165.409 23.2188 165.557 23.3555 165.752 23.4336C165.948 23.5039 166.194 23.5391 166.491 23.5391C166.702 23.5391 166.889 23.5312 167.053 23.5156C167.225 23.4922 167.37 23.4688 167.487 23.4453L167.498 25.9297C167.209 26.0234 166.897 26.0977 166.561 26.1523C166.225 26.207 165.854 26.2344 165.448 26.2344C164.705 26.2344 164.057 26.1133 163.502 25.8711C162.955 25.6211 162.534 25.2227 162.237 24.6758C161.94 24.1289 161.791 23.4102 161.791 22.5195V10.1914Z" fill="white"/>
<path d="M17.3199 2.33827L19.9573 10.5407C20.0404 10.8023 20.2806 10.9751 20.5485 10.9751H29.0798C30.9366 10.9751 31.7079 13.3761 30.2068 14.4785L23.306 19.5466C23.089 19.7054 22.9966 19.9904 23.0797 20.2519L25.7171 28.4544C26.2899 30.2388 24.2714 31.7242 22.7702 30.6218L15.8695 25.5536C15.6524 25.3948 15.3568 25.3948 15.1397 25.5536L8.23899 30.6218C6.73783 31.7242 4.71472 30.2388 5.29209 28.4544L7.92952 20.2519C8.01266 19.9904 7.92028 19.7101 7.70319 19.5466L0.793224 14.4831C-0.707939 13.3808 0.0634278 10.9798 1.92025 10.9798H10.4515C10.7194 10.9798 10.9596 10.8023 11.0427 10.5454L13.6755 2.33827C14.2483 0.55391 16.7471 0.55391 17.3199 2.33827Z" fill="#3CE5A7"/>
</svg>
