<svg width="50" height="50" viewBox="0 0 50 50" fill="none" xmlns="http://www.w3.org/2000/svg">
<circle cx="25" cy="25" r="25" fill="#114DFF"/>
<path d="M24.5 17L25.1854 16.2718L24.5 15.6268L23.8146 16.2718L24.5 17ZM23.5 33C23.5 33.5523 23.9477 34 24.5 34C25.0523 34 25.5 33.5523 25.5 33L24.5 33L23.5 33ZM33 25L33.6854 24.2718L25.1854 16.2718L24.5 17L23.8146 17.7282L32.3146 25.7282L33 25ZM24.5 17L23.8146 16.2718L15.3146 24.2718L16 25L16.6854 25.7282L25.1854 17.7282L24.5 17ZM24.5 17L23.5 17L23.5 33L24.5 33L25.5 33L25.5 17L24.5 17Z" fill="white"/>
</svg>
