<svg width="313" height="313" viewBox="0 0 313 313" fill="none" xmlns="http://www.w3.org/2000/svg">
<g filter="url(#filter0_d_257_103)">
<rect x="2" y="1" width="299" height="299" rx="149.5" fill="white"/>
<rect x="3.5" y="2.5" width="296" height="296" rx="148" stroke="url(#paint0_linear_257_103)" stroke-width="3"/>
</g>
<path d="M101.712 111H98.4619L98.4824 108.601H101.712C102.519 108.601 103.199 108.419 103.753 108.057C104.307 107.688 104.724 107.151 105.004 106.447C105.291 105.743 105.435 104.892 105.435 103.894V103.166C105.435 102.4 105.353 101.727 105.188 101.146C105.031 100.565 104.795 100.076 104.481 99.6797C104.166 99.2832 103.78 98.9858 103.322 98.7876C102.864 98.5825 102.338 98.48 101.743 98.48H98.4004V96.0703H101.743C102.741 96.0703 103.654 96.2412 104.481 96.583C105.315 96.918 106.036 97.3999 106.644 98.0288C107.253 98.6577 107.721 99.4097 108.049 100.285C108.384 101.153 108.552 102.12 108.552 103.187V103.894C108.552 104.954 108.384 105.921 108.049 106.796C107.721 107.671 107.253 108.423 106.644 109.052C106.043 109.674 105.322 110.156 104.481 110.498C103.647 110.833 102.724 111 101.712 111ZM100.205 96.0703V111H97.1289V96.0703H100.205ZM116.339 111.205C115.478 111.205 114.705 111.068 114.022 110.795C113.338 110.515 112.757 110.128 112.278 109.636C111.807 109.144 111.444 108.573 111.191 107.924C110.939 107.268 110.812 106.57 110.812 105.832V105.422C110.812 104.581 110.932 103.812 111.171 103.115C111.41 102.417 111.752 101.812 112.196 101.3C112.648 100.787 113.194 100.394 113.837 100.121C114.48 99.8403 115.204 99.7002 116.011 99.7002C116.797 99.7002 117.494 99.8301 118.103 100.09C118.711 100.35 119.22 100.719 119.63 101.197C120.047 101.676 120.362 102.25 120.574 102.92C120.786 103.583 120.892 104.321 120.892 105.135V106.365H112.073V104.396H117.99V104.171C117.99 103.761 117.915 103.395 117.764 103.074C117.621 102.746 117.402 102.486 117.108 102.294C116.814 102.103 116.438 102.007 115.98 102.007C115.59 102.007 115.255 102.093 114.975 102.264C114.695 102.435 114.466 102.674 114.288 102.981C114.117 103.289 113.987 103.651 113.899 104.068C113.816 104.479 113.775 104.93 113.775 105.422V105.832C113.775 106.276 113.837 106.687 113.96 107.062C114.09 107.438 114.271 107.763 114.503 108.037C114.743 108.31 115.03 108.522 115.365 108.672C115.707 108.823 116.093 108.898 116.524 108.898C117.057 108.898 117.552 108.795 118.01 108.59C118.475 108.378 118.875 108.061 119.21 107.637L120.646 109.195C120.413 109.53 120.095 109.852 119.692 110.159C119.295 110.467 118.817 110.72 118.256 110.918C117.696 111.109 117.057 111.205 116.339 111.205ZM126.833 108.847L129.294 99.9053H132.381L128.638 111H126.772L126.833 108.847ZM125.141 99.9053L127.613 108.857L127.664 111H125.787L122.045 99.9053H125.141ZM139.296 111.205C138.435 111.205 137.662 111.068 136.979 110.795C136.295 110.515 135.714 110.128 135.236 109.636C134.764 109.144 134.402 108.573 134.149 107.924C133.896 107.268 133.769 106.57 133.769 105.832V105.422C133.769 104.581 133.889 103.812 134.128 103.115C134.368 102.417 134.709 101.812 135.154 101.3C135.605 100.787 136.152 100.394 136.794 100.121C137.437 99.8403 138.161 99.7002 138.968 99.7002C139.754 99.7002 140.451 99.8301 141.06 100.09C141.668 100.35 142.178 100.719 142.588 101.197C143.005 101.676 143.319 102.25 143.531 102.92C143.743 103.583 143.849 104.321 143.849 105.135V106.365H135.031V104.396H140.947V104.171C140.947 103.761 140.872 103.395 140.722 103.074C140.578 102.746 140.359 102.486 140.065 102.294C139.771 102.103 139.395 102.007 138.937 102.007C138.548 102.007 138.213 102.093 137.932 102.264C137.652 102.435 137.423 102.674 137.245 102.981C137.075 103.289 136.945 103.651 136.856 104.068C136.774 104.479 136.733 104.93 136.733 105.422V105.832C136.733 106.276 136.794 106.687 136.917 107.062C137.047 107.438 137.228 107.763 137.461 108.037C137.7 108.31 137.987 108.522 138.322 108.672C138.664 108.823 139.05 108.898 139.481 108.898C140.014 108.898 140.51 108.795 140.968 108.59C141.432 108.378 141.832 108.061 142.167 107.637L143.603 109.195C143.37 109.53 143.053 109.852 142.649 110.159C142.253 110.467 141.774 110.72 141.214 110.918C140.653 111.109 140.014 111.205 139.296 111.205ZM149.278 95.25V111H146.314V95.25H149.278ZM151.877 105.565V105.35C151.877 104.537 151.993 103.788 152.225 103.104C152.458 102.414 152.796 101.816 153.24 101.31C153.685 100.804 154.232 100.411 154.881 100.131C155.53 99.8438 156.275 99.7002 157.116 99.7002C157.957 99.7002 158.706 99.8438 159.362 100.131C160.018 100.411 160.568 100.804 161.013 101.31C161.464 101.816 161.806 102.414 162.038 103.104C162.271 103.788 162.387 104.537 162.387 105.35V105.565C162.387 106.372 162.271 107.121 162.038 107.811C161.806 108.495 161.464 109.093 161.013 109.605C160.568 110.111 160.022 110.504 159.372 110.785C158.723 111.065 157.978 111.205 157.137 111.205C156.296 111.205 155.547 111.065 154.891 110.785C154.242 110.504 153.691 110.111 153.24 109.605C152.796 109.093 152.458 108.495 152.225 107.811C151.993 107.121 151.877 106.372 151.877 105.565ZM154.83 105.35V105.565C154.83 106.03 154.871 106.464 154.953 106.868C155.035 107.271 155.165 107.626 155.342 107.934C155.527 108.235 155.766 108.471 156.06 108.642C156.354 108.812 156.713 108.898 157.137 108.898C157.547 108.898 157.899 108.812 158.193 108.642C158.487 108.471 158.723 108.235 158.9 107.934C159.078 107.626 159.208 107.271 159.29 106.868C159.379 106.464 159.423 106.03 159.423 105.565V105.35C159.423 104.899 159.379 104.475 159.29 104.079C159.208 103.675 159.075 103.32 158.89 103.012C158.712 102.698 158.477 102.452 158.183 102.274C157.889 102.096 157.533 102.007 157.116 102.007C156.699 102.007 156.344 102.096 156.05 102.274C155.763 102.452 155.527 102.698 155.342 103.012C155.165 103.32 155.035 103.675 154.953 104.079C154.871 104.475 154.83 104.899 154.83 105.35ZM167.785 102.038V115.266H164.832V99.9053H167.57L167.785 102.038ZM174.809 105.33V105.545C174.809 106.352 174.713 107.1 174.522 107.791C174.337 108.481 174.064 109.083 173.701 109.595C173.339 110.101 172.888 110.498 172.348 110.785C171.815 111.065 171.199 111.205 170.502 111.205C169.825 111.205 169.237 111.068 168.738 110.795C168.239 110.521 167.819 110.139 167.477 109.646C167.142 109.147 166.872 108.57 166.667 107.914C166.462 107.257 166.305 106.553 166.195 105.801V105.237C166.305 104.431 166.462 103.692 166.667 103.022C166.872 102.346 167.142 101.761 167.477 101.269C167.819 100.77 168.236 100.384 168.728 100.11C169.227 99.8369 169.812 99.7002 170.482 99.7002C171.186 99.7002 171.804 99.8335 172.338 100.1C172.878 100.367 173.329 100.75 173.691 101.249C174.06 101.748 174.337 102.342 174.522 103.033C174.713 103.723 174.809 104.489 174.809 105.33ZM171.845 105.545V105.33C171.845 104.858 171.804 104.424 171.722 104.027C171.647 103.624 171.524 103.272 171.353 102.971C171.189 102.67 170.97 102.438 170.697 102.274C170.43 102.103 170.106 102.018 169.723 102.018C169.32 102.018 168.974 102.083 168.687 102.212C168.407 102.342 168.178 102.53 168 102.776C167.822 103.022 167.689 103.316 167.6 103.658C167.511 104 167.457 104.386 167.436 104.817V106.242C167.47 106.748 167.566 107.203 167.723 107.606C167.881 108.002 168.123 108.317 168.451 108.549C168.779 108.782 169.21 108.898 169.743 108.898C170.133 108.898 170.461 108.812 170.728 108.642C170.994 108.464 171.21 108.221 171.374 107.914C171.545 107.606 171.664 107.25 171.733 106.847C171.808 106.444 171.845 106.01 171.845 105.545ZM182.381 111.205C181.519 111.205 180.747 111.068 180.063 110.795C179.38 110.515 178.799 110.128 178.32 109.636C177.848 109.144 177.486 108.573 177.233 107.924C176.98 107.268 176.854 106.57 176.854 105.832V105.422C176.854 104.581 176.973 103.812 177.213 103.115C177.452 102.417 177.794 101.812 178.238 101.3C178.689 100.787 179.236 100.394 179.879 100.121C180.521 99.8403 181.246 99.7002 182.053 99.7002C182.839 99.7002 183.536 99.8301 184.144 100.09C184.753 100.35 185.262 100.719 185.672 101.197C186.089 101.676 186.404 102.25 186.616 102.92C186.827 103.583 186.933 104.321 186.933 105.135V106.365H178.115V104.396H184.032V104.171C184.032 103.761 183.956 103.395 183.806 103.074C183.662 102.746 183.444 102.486 183.15 102.294C182.856 102.103 182.48 102.007 182.022 102.007C181.632 102.007 181.297 102.093 181.017 102.264C180.737 102.435 180.508 102.674 180.33 102.981C180.159 103.289 180.029 103.651 179.94 104.068C179.858 104.479 179.817 104.93 179.817 105.422V105.832C179.817 106.276 179.879 106.687 180.002 107.062C180.132 107.438 180.313 107.763 180.545 108.037C180.784 108.31 181.072 108.522 181.407 108.672C181.748 108.823 182.135 108.898 182.565 108.898C183.098 108.898 183.594 108.795 184.052 108.59C184.517 108.378 184.917 108.061 185.252 107.637L186.687 109.195C186.455 109.53 186.137 109.852 185.734 110.159C185.337 110.467 184.859 110.72 184.298 110.918C183.738 111.109 183.098 111.205 182.381 111.205ZM192.198 102.325V111H189.245V99.9053H192.024L192.198 102.325ZM195.541 99.8335L195.49 102.571C195.346 102.551 195.172 102.534 194.967 102.52C194.768 102.5 194.587 102.489 194.423 102.489C194.006 102.489 193.644 102.544 193.336 102.653C193.036 102.756 192.783 102.91 192.578 103.115C192.379 103.32 192.229 103.569 192.126 103.863C192.031 104.157 191.976 104.492 191.962 104.868L191.368 104.684C191.368 103.966 191.439 103.306 191.583 102.705C191.726 102.096 191.935 101.566 192.208 101.115C192.489 100.664 192.83 100.315 193.234 100.069C193.637 99.8232 194.099 99.7002 194.618 99.7002C194.782 99.7002 194.95 99.7139 195.121 99.7412C195.291 99.7617 195.432 99.7925 195.541 99.8335ZM203.564 107.934C203.564 107.722 203.502 107.531 203.379 107.36C203.256 107.189 203.027 107.032 202.692 106.888C202.364 106.738 201.889 106.601 201.267 106.478C200.707 106.355 200.184 106.201 199.698 106.017C199.22 105.825 198.803 105.596 198.447 105.33C198.099 105.063 197.825 104.749 197.627 104.386C197.429 104.017 197.33 103.597 197.33 103.125C197.33 102.66 197.429 102.223 197.627 101.812C197.832 101.402 198.123 101.04 198.499 100.726C198.881 100.404 199.346 100.155 199.893 99.9771C200.447 99.7925 201.069 99.7002 201.759 99.7002C202.723 99.7002 203.55 99.854 204.241 100.162C204.938 100.469 205.471 100.893 205.84 101.433C206.216 101.966 206.404 102.575 206.404 103.258H203.451C203.451 102.971 203.39 102.715 203.267 102.489C203.15 102.257 202.966 102.076 202.713 101.946C202.467 101.809 202.146 101.741 201.749 101.741C201.421 101.741 201.137 101.799 200.898 101.915C200.659 102.024 200.474 102.175 200.344 102.366C200.221 102.551 200.16 102.756 200.16 102.981C200.16 103.152 200.194 103.306 200.262 103.443C200.337 103.573 200.457 103.692 200.621 103.802C200.785 103.911 200.997 104.014 201.257 104.109C201.523 104.198 201.852 104.28 202.241 104.355C203.041 104.52 203.755 104.735 204.384 105.001C205.013 105.261 205.512 105.617 205.881 106.068C206.251 106.512 206.435 107.097 206.435 107.821C206.435 108.313 206.326 108.765 206.107 109.175C205.888 109.585 205.574 109.944 205.164 110.251C204.753 110.552 204.261 110.788 203.687 110.959C203.12 111.123 202.48 111.205 201.77 111.205C200.737 111.205 199.862 111.021 199.145 110.651C198.434 110.282 197.894 109.814 197.524 109.247C197.162 108.672 196.981 108.084 196.981 107.483H199.78C199.794 107.886 199.897 108.211 200.088 108.457C200.286 108.703 200.536 108.881 200.836 108.99C201.144 109.1 201.476 109.154 201.831 109.154C202.214 109.154 202.532 109.103 202.785 109C203.038 108.891 203.229 108.748 203.359 108.57C203.496 108.385 203.564 108.173 203.564 107.934Z" fill="#5F6061"/>
<path d="M85.9395 139.489V141.099H77.8594V139.489H85.9395ZM78.167 133.07V148H76.188V133.07H78.167ZM87.6621 133.07V148H85.6934V133.07H87.6621ZM98.0641 146.103V140.392C98.0641 139.954 97.9753 139.575 97.7975 139.253C97.6266 138.925 97.3669 138.672 97.0182 138.495C96.6696 138.317 96.2389 138.228 95.7262 138.228C95.2477 138.228 94.8273 138.31 94.465 138.474C94.1095 138.638 93.8293 138.854 93.6242 139.12C93.4259 139.387 93.3268 139.674 93.3268 139.981H91.4298C91.4298 139.585 91.5324 139.192 91.7375 138.802C91.9425 138.413 92.2365 138.061 92.6193 137.746C93.0089 137.425 93.4738 137.172 94.0138 136.987C94.5607 136.796 95.1691 136.7 95.839 136.7C96.6457 136.7 97.3566 136.837 97.9718 137.11C98.5939 137.384 99.0793 137.797 99.4279 138.351C99.7834 138.898 99.9611 139.585 99.9611 140.412V145.58C99.9611 145.949 99.9919 146.342 100.053 146.759C100.122 147.176 100.221 147.535 100.351 147.836V148H98.3717C98.276 147.781 98.2008 147.491 98.1462 147.128C98.0915 146.759 98.0641 146.417 98.0641 146.103ZM98.3922 141.273L98.4128 142.606H96.4953C95.9552 142.606 95.4733 142.651 95.0495 142.74C94.6256 142.822 94.2702 142.948 93.9831 143.119C93.696 143.29 93.4772 143.505 93.3268 143.765C93.1764 144.018 93.1012 144.315 93.1012 144.657C93.1012 145.006 93.1798 145.324 93.3371 145.611C93.4943 145.898 93.7301 146.127 94.0446 146.298C94.3659 146.462 94.7589 146.544 95.2238 146.544C95.8048 146.544 96.3175 146.421 96.7619 146.175C97.2062 145.929 97.5583 145.628 97.818 145.272C98.0846 144.917 98.2282 144.572 98.2487 144.237L99.0588 145.149C99.0109 145.437 98.881 145.754 98.6691 146.103C98.4572 146.452 98.1735 146.787 97.818 147.108C97.4694 147.422 97.0524 147.686 96.5671 147.897C96.0885 148.103 95.5485 148.205 94.9469 148.205C94.195 148.205 93.5353 148.058 92.9679 147.764C92.4074 147.47 91.9699 147.077 91.6554 146.585C91.3478 146.086 91.194 145.529 91.194 144.914C91.194 144.319 91.3102 143.796 91.5426 143.345C91.7751 142.887 92.11 142.507 92.5475 142.207C92.985 141.899 93.5114 141.667 94.1266 141.509C94.7419 141.352 95.4289 141.273 96.1877 141.273H98.3922ZM106.784 146.288L109.82 136.905H111.758L107.769 148H106.497L106.784 146.288ZM104.252 136.905L107.379 146.339L107.595 148H106.323L102.303 136.905H104.252ZM118.673 148.205C117.901 148.205 117.2 148.075 116.571 147.815C115.949 147.549 115.412 147.176 114.961 146.698C114.517 146.219 114.175 145.652 113.936 144.996C113.697 144.339 113.577 143.622 113.577 142.842V142.412C113.577 141.509 113.71 140.706 113.977 140.002C114.244 139.291 114.606 138.689 115.064 138.197C115.522 137.705 116.041 137.333 116.622 137.08C117.204 136.827 117.805 136.7 118.427 136.7C119.22 136.7 119.904 136.837 120.478 137.11C121.059 137.384 121.534 137.767 121.903 138.259C122.272 138.744 122.546 139.318 122.724 139.981C122.901 140.638 122.99 141.355 122.99 142.135V142.986H114.705V141.438H121.093V141.294C121.066 140.802 120.963 140.323 120.786 139.858C120.615 139.394 120.341 139.011 119.965 138.71C119.589 138.409 119.077 138.259 118.427 138.259C117.996 138.259 117.6 138.351 117.238 138.536C116.875 138.713 116.564 138.98 116.305 139.335C116.045 139.691 115.843 140.125 115.7 140.638C115.556 141.15 115.484 141.742 115.484 142.412V142.842C115.484 143.369 115.556 143.864 115.7 144.329C115.85 144.787 116.065 145.19 116.346 145.539C116.633 145.888 116.978 146.161 117.381 146.359C117.791 146.558 118.256 146.657 118.776 146.657C119.446 146.657 120.013 146.52 120.478 146.247C120.943 145.973 121.35 145.607 121.698 145.149L122.847 146.062C122.607 146.424 122.303 146.77 121.934 147.098C121.565 147.426 121.11 147.692 120.57 147.897C120.037 148.103 119.405 148.205 118.673 148.205ZM134.791 146.852L137.878 136.905H139.908L135.458 149.712C135.355 149.986 135.218 150.28 135.048 150.594C134.883 150.916 134.672 151.22 134.412 151.507C134.152 151.794 133.838 152.026 133.468 152.204C133.106 152.389 132.672 152.481 132.166 152.481C132.016 152.481 131.824 152.46 131.592 152.419C131.36 152.378 131.195 152.344 131.1 152.317L131.089 150.779C131.144 150.786 131.23 150.792 131.346 150.799C131.469 150.813 131.554 150.82 131.602 150.82C132.033 150.82 132.399 150.762 132.699 150.646C133 150.536 133.253 150.348 133.458 150.082C133.67 149.822 133.851 149.463 134.002 149.005L134.791 146.852ZM132.525 136.905L135.406 145.519L135.899 147.518L134.535 148.215L130.454 136.905H132.525ZM141.584 142.576V142.34C141.584 141.54 141.7 140.798 141.932 140.115C142.165 139.424 142.5 138.826 142.937 138.32C143.375 137.808 143.905 137.411 144.527 137.131C145.149 136.844 145.846 136.7 146.618 136.7C147.398 136.7 148.098 136.844 148.72 137.131C149.349 137.411 149.883 137.808 150.32 138.32C150.764 138.826 151.103 139.424 151.335 140.115C151.568 140.798 151.684 141.54 151.684 142.34V142.576C151.684 143.375 151.568 144.117 151.335 144.801C151.103 145.484 150.764 146.083 150.32 146.595C149.883 147.101 149.353 147.498 148.731 147.785C148.115 148.065 147.418 148.205 146.639 148.205C145.86 148.205 145.159 148.065 144.537 147.785C143.915 147.498 143.382 147.101 142.937 146.595C142.5 146.083 142.165 145.484 141.932 144.801C141.7 144.117 141.584 143.375 141.584 142.576ZM143.481 142.34V142.576C143.481 143.129 143.546 143.652 143.676 144.145C143.805 144.63 144 145.061 144.26 145.437C144.527 145.812 144.858 146.11 145.255 146.329C145.651 146.541 146.113 146.646 146.639 146.646C147.158 146.646 147.613 146.541 148.003 146.329C148.399 146.11 148.727 145.812 148.987 145.437C149.247 145.061 149.442 144.63 149.572 144.145C149.708 143.652 149.777 143.129 149.777 142.576V142.34C149.777 141.793 149.708 141.277 149.572 140.792C149.442 140.299 149.243 139.865 148.977 139.489C148.717 139.106 148.389 138.806 147.992 138.587C147.603 138.368 147.145 138.259 146.618 138.259C146.099 138.259 145.641 138.368 145.244 138.587C144.855 138.806 144.527 139.106 144.26 139.489C144 139.865 143.805 140.299 143.676 140.792C143.546 141.277 143.481 141.793 143.481 142.34ZM161.481 145.437V136.905H163.388V148H161.573L161.481 145.437ZM161.84 143.099L162.629 143.078C162.629 143.816 162.551 144.5 162.393 145.129C162.243 145.751 161.997 146.291 161.655 146.749C161.313 147.207 160.866 147.566 160.312 147.826C159.758 148.079 159.085 148.205 158.292 148.205C157.752 148.205 157.256 148.126 156.805 147.969C156.361 147.812 155.978 147.569 155.657 147.241C155.335 146.913 155.086 146.486 154.908 145.959C154.737 145.433 154.652 144.801 154.652 144.062V136.905H156.549V144.083C156.549 144.582 156.603 144.996 156.713 145.324C156.829 145.645 156.983 145.901 157.174 146.093C157.372 146.277 157.591 146.407 157.83 146.482C158.077 146.558 158.329 146.595 158.589 146.595C159.396 146.595 160.035 146.441 160.507 146.134C160.978 145.819 161.317 145.399 161.522 144.873C161.734 144.339 161.84 143.748 161.84 143.099ZM168.807 138.648V148H166.91V136.905H168.755L168.807 138.648ZM172.272 136.844L172.262 138.607C172.105 138.573 171.955 138.553 171.811 138.546C171.674 138.532 171.517 138.525 171.339 138.525C170.902 138.525 170.516 138.594 170.181 138.73C169.846 138.867 169.562 139.059 169.33 139.305C169.097 139.551 168.913 139.845 168.776 140.187C168.646 140.521 168.561 140.891 168.52 141.294L167.986 141.602C167.986 140.932 168.051 140.303 168.181 139.715C168.318 139.127 168.526 138.607 168.807 138.156C169.087 137.698 169.442 137.343 169.873 137.09C170.311 136.83 170.83 136.7 171.432 136.7C171.568 136.7 171.726 136.717 171.903 136.751C172.081 136.779 172.204 136.81 172.272 136.844ZM185.14 136.905V138.361H179.141V136.905H185.14ZM181.172 134.208H183.069V145.252C183.069 145.628 183.127 145.912 183.243 146.103C183.359 146.294 183.51 146.421 183.694 146.482C183.879 146.544 184.077 146.575 184.289 146.575C184.446 146.575 184.61 146.561 184.781 146.534C184.959 146.5 185.092 146.472 185.181 146.452L185.191 148C185.041 148.048 184.843 148.092 184.596 148.133C184.357 148.181 184.067 148.205 183.725 148.205C183.26 148.205 182.833 148.113 182.443 147.928C182.053 147.744 181.742 147.436 181.51 147.005C181.284 146.568 181.172 145.98 181.172 145.242V134.208ZM187.287 142.576V142.34C187.287 141.54 187.404 140.798 187.636 140.115C187.869 139.424 188.203 138.826 188.641 138.32C189.078 137.808 189.608 137.411 190.23 137.131C190.852 136.844 191.55 136.7 192.322 136.7C193.101 136.7 193.802 136.844 194.424 137.131C195.053 137.411 195.586 137.808 196.024 138.32C196.468 138.826 196.807 139.424 197.039 140.115C197.271 140.798 197.388 141.54 197.388 142.34V142.576C197.388 143.375 197.271 144.117 197.039 144.801C196.807 145.484 196.468 146.083 196.024 146.595C195.586 147.101 195.057 147.498 194.434 147.785C193.819 148.065 193.122 148.205 192.343 148.205C191.563 148.205 190.863 148.065 190.241 147.785C189.619 147.498 189.085 147.101 188.641 146.595C188.203 146.083 187.869 145.484 187.636 144.801C187.404 144.117 187.287 143.375 187.287 142.576ZM189.184 142.34V142.576C189.184 143.129 189.249 143.652 189.379 144.145C189.509 144.63 189.704 145.061 189.964 145.437C190.23 145.812 190.562 146.11 190.958 146.329C191.355 146.541 191.816 146.646 192.343 146.646C192.862 146.646 193.317 146.541 193.706 146.329C194.103 146.11 194.431 145.812 194.691 145.437C194.951 145.061 195.145 144.63 195.275 144.145C195.412 143.652 195.48 143.129 195.48 142.576V142.34C195.48 141.793 195.412 141.277 195.275 140.792C195.145 140.299 194.947 139.865 194.681 139.489C194.421 139.106 194.093 138.806 193.696 138.587C193.307 138.368 192.848 138.259 192.322 138.259C191.803 138.259 191.345 138.368 190.948 138.587C190.558 138.806 190.23 139.106 189.964 139.489C189.704 139.865 189.509 140.299 189.379 140.792C189.249 141.277 189.184 141.793 189.184 142.34ZM199.894 142.576V142.34C199.894 141.54 200.01 140.798 200.243 140.115C200.475 139.424 200.81 138.826 201.248 138.32C201.685 137.808 202.215 137.411 202.837 137.131C203.459 136.844 204.156 136.7 204.929 136.7C205.708 136.7 206.409 136.844 207.031 137.131C207.66 137.411 208.193 137.808 208.63 138.32C209.075 138.826 209.413 139.424 209.645 140.115C209.878 140.798 209.994 141.54 209.994 142.34V142.576C209.994 143.375 209.878 144.117 209.645 144.801C209.413 145.484 209.075 146.083 208.63 146.595C208.193 147.101 207.663 147.498 207.041 147.785C206.426 148.065 205.728 148.205 204.949 148.205C204.17 148.205 203.469 148.065 202.847 147.785C202.225 147.498 201.692 147.101 201.248 146.595C200.81 146.083 200.475 145.484 200.243 144.801C200.01 144.117 199.894 143.375 199.894 142.576ZM201.791 142.34V142.576C201.791 143.129 201.856 143.652 201.986 144.145C202.116 144.63 202.311 145.061 202.57 145.437C202.837 145.812 203.168 146.11 203.565 146.329C203.961 146.541 204.423 146.646 204.949 146.646C205.469 146.646 205.923 146.541 206.313 146.329C206.709 146.11 207.038 145.812 207.297 145.437C207.557 145.061 207.752 144.63 207.882 144.145C208.019 143.652 208.087 143.129 208.087 142.576V142.34C208.087 141.793 208.019 141.277 207.882 140.792C207.752 140.299 207.554 139.865 207.287 139.489C207.027 139.106 206.699 138.806 206.303 138.587C205.913 138.368 205.455 138.259 204.929 138.259C204.409 138.259 203.951 138.368 203.555 138.587C203.165 138.806 202.837 139.106 202.57 139.489C202.311 139.865 202.116 140.299 201.986 140.792C201.856 141.277 201.791 141.793 201.791 142.34ZM215.064 132.25V148H213.157V132.25H215.064ZM225.199 145.057C225.199 144.784 225.138 144.531 225.015 144.298C224.899 144.059 224.656 143.844 224.287 143.652C223.925 143.454 223.378 143.283 222.646 143.14C222.031 143.01 221.474 142.856 220.975 142.678C220.483 142.5 220.062 142.285 219.714 142.032C219.372 141.779 219.109 141.482 218.924 141.14C218.739 140.798 218.647 140.398 218.647 139.94C218.647 139.503 218.743 139.089 218.934 138.7C219.133 138.31 219.409 137.965 219.765 137.664C220.127 137.363 220.561 137.127 221.067 136.957C221.573 136.786 222.137 136.7 222.759 136.7C223.648 136.7 224.406 136.857 225.035 137.172C225.664 137.486 226.146 137.907 226.481 138.433C226.816 138.953 226.984 139.53 226.984 140.166H225.087C225.087 139.858 224.994 139.561 224.81 139.274C224.632 138.98 224.369 138.737 224.02 138.546C223.678 138.354 223.258 138.259 222.759 138.259C222.233 138.259 221.805 138.341 221.477 138.505C221.156 138.662 220.92 138.864 220.77 139.11C220.626 139.356 220.554 139.616 220.554 139.889C220.554 140.094 220.589 140.279 220.657 140.443C220.732 140.6 220.862 140.747 221.047 140.884C221.231 141.014 221.491 141.137 221.826 141.253C222.161 141.369 222.588 141.485 223.108 141.602C224.017 141.807 224.765 142.053 225.353 142.34C225.941 142.627 226.379 142.979 226.666 143.396C226.953 143.813 227.096 144.319 227.096 144.914C227.096 145.399 226.994 145.843 226.789 146.247C226.591 146.65 226.3 146.999 225.917 147.292C225.541 147.58 225.09 147.805 224.564 147.969C224.044 148.126 223.46 148.205 222.81 148.205C221.833 148.205 221.006 148.031 220.329 147.682C219.652 147.333 219.139 146.882 218.791 146.329C218.442 145.775 218.268 145.19 218.268 144.575H220.175C220.202 145.095 220.353 145.508 220.626 145.816C220.9 146.117 221.235 146.332 221.631 146.462C222.028 146.585 222.421 146.646 222.81 146.646C223.33 146.646 223.764 146.578 224.113 146.441C224.468 146.305 224.738 146.117 224.923 145.877C225.107 145.638 225.199 145.365 225.199 145.057ZM231.941 145.744V147.272C231.941 147.894 231.784 148.55 231.469 149.241C231.155 149.938 230.714 150.519 230.146 150.984L229.07 150.235C229.288 149.935 229.473 149.627 229.623 149.312C229.774 149.005 229.887 148.684 229.962 148.349C230.044 148.021 230.085 147.672 230.085 147.303V145.744H231.941ZM41.0549 162.038V175.266H39.1476V159.905H40.8908L41.0549 162.038ZM48.53 165.36V165.576C48.53 166.382 48.4343 167.131 48.2429 167.821C48.0514 168.505 47.7712 169.1 47.402 169.605C47.0397 170.111 46.592 170.504 46.0588 170.785C45.5256 171.065 44.9137 171.205 44.2233 171.205C43.5192 171.205 42.8971 171.089 42.3571 170.856C41.8171 170.624 41.3591 170.286 40.9831 169.841C40.6071 169.397 40.3063 168.864 40.0807 168.242C39.862 167.62 39.7116 166.919 39.6296 166.14V164.991C39.7116 164.171 39.8654 163.436 40.091 162.787C40.3166 162.137 40.6139 161.583 40.9831 161.125C41.3591 160.661 41.8137 160.309 42.3469 160.069C42.8801 159.823 43.4953 159.7 44.1926 159.7C44.8898 159.7 45.5085 159.837 46.0485 160.11C46.5886 160.377 47.0431 160.76 47.4123 161.259C47.7814 161.758 48.0583 162.356 48.2429 163.053C48.4343 163.744 48.53 164.513 48.53 165.36ZM46.6227 165.576V165.36C46.6227 164.807 46.5646 164.287 46.4484 163.802C46.3322 163.31 46.1511 162.879 45.905 162.51C45.6657 162.134 45.3581 161.84 44.9821 161.628C44.6061 161.409 44.1584 161.3 43.6388 161.3C43.1603 161.3 42.7433 161.382 42.3879 161.546C42.0392 161.71 41.7419 161.932 41.4958 162.212C41.2497 162.486 41.048 162.8 40.8908 163.156C40.7404 163.504 40.6276 163.867 40.5524 164.243V166.898C40.6891 167.377 40.8805 167.828 41.1266 168.252C41.3727 168.669 41.7009 169.007 42.111 169.267C42.5212 169.52 43.0373 169.646 43.6594 169.646C44.1721 169.646 44.613 169.541 44.9821 169.329C45.3581 169.11 45.6657 168.812 45.905 168.437C46.1511 168.061 46.3322 167.63 46.4484 167.145C46.5646 166.652 46.6227 166.129 46.6227 165.576ZM53.4769 161.648V171H51.5799V159.905H53.4256L53.4769 161.648ZM56.9427 159.844L56.9324 161.607C56.7752 161.573 56.6248 161.553 56.4813 161.546C56.3445 161.532 56.1873 161.525 56.0096 161.525C55.5721 161.525 55.1858 161.594 54.8509 161.73C54.5159 161.867 54.2322 162.059 53.9998 162.305C53.7674 162.551 53.5828 162.845 53.4461 163.187C53.3162 163.521 53.2308 163.891 53.1897 164.294L52.6565 164.602C52.6565 163.932 52.7215 163.303 52.8514 162.715C52.9881 162.127 53.1966 161.607 53.4769 161.156C53.7571 160.698 54.1126 160.343 54.5433 160.09C54.9808 159.83 55.5003 159.7 56.1019 159.7C56.2386 159.7 56.3958 159.717 56.5735 159.751C56.7513 159.779 56.8743 159.81 56.9427 159.844ZM58.6186 165.576V165.34C58.6186 164.54 58.7348 163.798 58.9672 163.115C59.1996 162.424 59.5346 161.826 59.9721 161.32C60.4096 160.808 60.9394 160.411 61.5614 160.131C62.1835 159.844 62.8808 159.7 63.6532 159.7C64.4325 159.7 65.1332 159.844 65.7553 160.131C66.3842 160.411 66.9174 160.808 67.3549 161.32C67.7992 161.826 68.1376 162.424 68.37 163.115C68.6025 163.798 68.7187 164.54 68.7187 165.34V165.576C68.7187 166.375 68.6025 167.117 68.37 167.801C68.1376 168.484 67.7992 169.083 67.3549 169.595C66.9174 170.101 66.3876 170.498 65.7655 170.785C65.1503 171.065 64.453 171.205 63.6737 171.205C62.8945 171.205 62.1938 171.065 61.5717 170.785C60.9496 170.498 60.4164 170.101 59.9721 169.595C59.5346 169.083 59.1996 168.484 58.9672 167.801C58.7348 167.117 58.6186 166.375 58.6186 165.576ZM60.5155 165.34V165.576C60.5155 166.129 60.5805 166.652 60.7104 167.145C60.8403 167.63 61.0351 168.061 61.2948 168.437C61.5614 168.812 61.893 169.11 62.2895 169.329C62.686 169.541 63.1474 169.646 63.6737 169.646C64.1933 169.646 64.6479 169.541 65.0375 169.329C65.434 169.11 65.7621 168.812 66.0219 168.437C66.2817 168.061 66.4765 167.63 66.6064 167.145C66.7431 166.652 66.8114 166.129 66.8114 165.576V165.34C66.8114 164.793 66.7431 164.277 66.6064 163.792C66.4765 163.299 66.2782 162.865 66.0116 162.489C65.7519 162.106 65.4237 161.806 65.0273 161.587C64.6376 161.368 64.1796 161.259 63.6532 161.259C63.1337 161.259 62.6757 161.368 62.2792 161.587C61.8896 161.806 61.5614 162.106 61.2948 162.489C61.0351 162.865 60.8403 163.299 60.7104 163.792C60.5805 164.277 60.5155 164.793 60.5155 165.34ZM78.7207 168.847V155.25H80.628V171H78.8848L78.7207 168.847ZM71.2559 165.576V165.36C71.2559 164.513 71.3584 163.744 71.5635 163.053C71.7754 162.356 72.0728 161.758 72.4556 161.259C72.8453 160.76 73.3067 160.377 73.8399 160.11C74.3799 159.837 74.9815 159.7 75.6446 159.7C76.3418 159.7 76.9502 159.823 77.4698 160.069C77.9961 160.309 78.4405 160.661 78.8028 161.125C79.1719 161.583 79.4624 162.137 79.6744 162.787C79.8863 163.436 80.0332 164.171 80.1153 164.991V165.935C80.0401 166.748 79.8931 167.479 79.6744 168.129C79.4624 168.778 79.1719 169.332 78.8028 169.79C78.4405 170.248 77.9961 170.6 77.4698 170.846C76.9434 171.085 76.3282 171.205 75.6241 171.205C74.9746 171.205 74.3799 171.065 73.8399 170.785C73.3067 170.504 72.8453 170.111 72.4556 169.605C72.0728 169.1 71.7754 168.505 71.5635 167.821C71.3584 167.131 71.2559 166.382 71.2559 165.576ZM73.1631 165.36V165.576C73.1631 166.129 73.2178 166.649 73.3272 167.134C73.4434 167.62 73.6211 168.047 73.8604 168.416C74.0996 168.785 74.4038 169.076 74.773 169.288C75.1421 169.493 75.583 169.595 76.0957 169.595C76.7246 169.595 77.2408 169.462 77.6441 169.195C78.0542 168.929 78.3824 168.577 78.6285 168.139C78.8745 167.702 79.066 167.227 79.2027 166.714V164.243C79.1206 163.867 79.001 163.504 78.8438 163.156C78.6934 162.8 78.4952 162.486 78.2491 162.212C78.0098 161.932 77.7124 161.71 77.357 161.546C77.0083 161.382 76.5948 161.3 76.1162 161.3C75.5967 161.3 75.149 161.409 74.773 161.628C74.4038 161.84 74.0996 162.134 73.8604 162.51C73.6211 162.879 73.4434 163.31 73.3272 163.802C73.2178 164.287 73.1631 164.807 73.1631 165.36ZM90.9992 168.437V159.905H92.9064V171H91.0915L90.9992 168.437ZM91.3581 166.099L92.1476 166.078C92.1476 166.816 92.069 167.5 91.9118 168.129C91.7614 168.751 91.5153 169.291 91.1735 169.749C90.8317 170.207 90.3839 170.566 89.8302 170.826C89.2765 171.079 88.6032 171.205 87.8102 171.205C87.2702 171.205 86.7746 171.126 86.3234 170.969C85.8791 170.812 85.4963 170.569 85.175 170.241C84.8537 169.913 84.6042 169.486 84.4264 168.959C84.2555 168.433 84.1701 167.801 84.1701 167.062V159.905H86.0671V167.083C86.0671 167.582 86.1217 167.996 86.2311 168.324C86.3473 168.645 86.5011 168.901 86.6925 169.093C86.8908 169.277 87.1095 169.407 87.3488 169.482C87.5949 169.558 87.8478 169.595 88.1076 169.595C88.9142 169.595 89.5534 169.441 90.0251 169.134C90.4967 168.819 90.8351 168.399 91.0402 167.873C91.2521 167.339 91.3581 166.748 91.3581 166.099ZM100.868 169.646C101.319 169.646 101.736 169.554 102.119 169.37C102.502 169.185 102.816 168.932 103.062 168.611C103.308 168.283 103.449 167.91 103.483 167.493H105.287C105.253 168.149 105.031 168.761 104.621 169.329C104.218 169.889 103.688 170.344 103.032 170.692C102.375 171.034 101.654 171.205 100.868 171.205C100.034 171.205 99.3059 171.058 98.6839 170.764C98.0686 170.47 97.5559 170.067 97.1458 169.554C96.7425 169.042 96.4383 168.454 96.2332 167.791C96.0349 167.121 95.9358 166.413 95.9358 165.668V165.237C95.9358 164.492 96.0349 163.788 96.2332 163.125C96.4383 162.455 96.7425 161.864 97.1458 161.351C97.5559 160.838 98.0686 160.435 98.6839 160.141C99.3059 159.847 100.034 159.7 100.868 159.7C101.736 159.7 102.495 159.878 103.144 160.233C103.794 160.582 104.303 161.061 104.672 161.669C105.048 162.271 105.253 162.954 105.287 163.72H103.483C103.449 163.262 103.319 162.848 103.093 162.479C102.874 162.11 102.574 161.816 102.191 161.597C101.815 161.372 101.374 161.259 100.868 161.259C100.287 161.259 99.7981 161.375 99.4016 161.607C99.012 161.833 98.701 162.141 98.4685 162.53C98.243 162.913 98.0789 163.34 97.9763 163.812C97.8806 164.277 97.8328 164.752 97.8328 165.237V165.668C97.8328 166.153 97.8806 166.632 97.9763 167.104C98.0721 167.575 98.2327 168.002 98.4583 168.385C98.6907 168.768 99.0017 169.076 99.3914 169.308C99.7879 169.534 100.28 169.646 100.868 169.646ZM112.695 159.905V161.361H106.697V159.905H112.695ZM108.727 157.208H110.624V168.252C110.624 168.628 110.682 168.912 110.798 169.103C110.914 169.294 111.065 169.421 111.249 169.482C111.434 169.544 111.632 169.575 111.844 169.575C112.001 169.575 112.165 169.561 112.336 169.534C112.514 169.5 112.647 169.472 112.736 169.452L112.746 171C112.596 171.048 112.398 171.092 112.152 171.133C111.912 171.181 111.622 171.205 111.28 171.205C110.815 171.205 110.388 171.113 109.998 170.928C109.609 170.744 109.298 170.436 109.065 170.005C108.84 169.568 108.727 168.98 108.727 168.242V157.208ZM122.01 168.057C122.01 167.784 121.949 167.531 121.826 167.298C121.709 167.059 121.467 166.844 121.098 166.652C120.735 166.454 120.188 166.283 119.457 166.14C118.842 166.01 118.285 165.856 117.786 165.678C117.293 165.5 116.873 165.285 116.524 165.032C116.183 164.779 115.919 164.482 115.735 164.14C115.55 163.798 115.458 163.398 115.458 162.94C115.458 162.503 115.554 162.089 115.745 161.7C115.943 161.31 116.22 160.965 116.576 160.664C116.938 160.363 117.372 160.127 117.878 159.957C118.384 159.786 118.948 159.7 119.57 159.7C120.459 159.7 121.217 159.857 121.846 160.172C122.475 160.486 122.957 160.907 123.292 161.433C123.627 161.953 123.794 162.53 123.794 163.166H121.897C121.897 162.858 121.805 162.561 121.621 162.274C121.443 161.98 121.18 161.737 120.831 161.546C120.489 161.354 120.069 161.259 119.57 161.259C119.043 161.259 118.616 161.341 118.288 161.505C117.967 161.662 117.731 161.864 117.581 162.11C117.437 162.356 117.365 162.616 117.365 162.889C117.365 163.094 117.399 163.279 117.468 163.443C117.543 163.6 117.673 163.747 117.857 163.884C118.042 164.014 118.302 164.137 118.637 164.253C118.972 164.369 119.399 164.485 119.918 164.602C120.828 164.807 121.576 165.053 122.164 165.34C122.752 165.627 123.189 165.979 123.477 166.396C123.764 166.813 123.907 167.319 123.907 167.914C123.907 168.399 123.805 168.843 123.6 169.247C123.401 169.65 123.111 169.999 122.728 170.292C122.352 170.58 121.901 170.805 121.375 170.969C120.855 171.126 120.271 171.205 119.621 171.205C118.644 171.205 117.816 171.031 117.14 170.682C116.463 170.333 115.95 169.882 115.602 169.329C115.253 168.775 115.079 168.19 115.079 167.575H116.986C117.013 168.095 117.164 168.508 117.437 168.816C117.71 169.117 118.045 169.332 118.442 169.462C118.838 169.585 119.231 169.646 119.621 169.646C120.141 169.646 120.575 169.578 120.923 169.441C121.279 169.305 121.549 169.117 121.733 168.877C121.918 168.638 122.01 168.365 122.01 168.057ZM139.41 169.103V163.392C139.41 162.954 139.321 162.575 139.143 162.253C138.972 161.925 138.713 161.672 138.364 161.495C138.015 161.317 137.585 161.228 137.072 161.228C136.594 161.228 136.173 161.31 135.811 161.474C135.455 161.638 135.175 161.854 134.97 162.12C134.772 162.387 134.673 162.674 134.673 162.981H132.776C132.776 162.585 132.878 162.192 133.083 161.802C133.288 161.413 133.582 161.061 133.965 160.746C134.355 160.425 134.82 160.172 135.36 159.987C135.907 159.796 136.515 159.7 137.185 159.7C137.991 159.7 138.702 159.837 139.318 160.11C139.94 160.384 140.425 160.797 140.774 161.351C141.129 161.898 141.307 162.585 141.307 163.412V168.58C141.307 168.949 141.338 169.342 141.399 169.759C141.468 170.176 141.567 170.535 141.697 170.836V171H139.718C139.622 170.781 139.547 170.491 139.492 170.128C139.437 169.759 139.41 169.417 139.41 169.103ZM139.738 164.273L139.759 165.606H137.841C137.301 165.606 136.819 165.651 136.395 165.74C135.971 165.822 135.616 165.948 135.329 166.119C135.042 166.29 134.823 166.505 134.673 166.765C134.522 167.018 134.447 167.315 134.447 167.657C134.447 168.006 134.526 168.324 134.683 168.611C134.84 168.898 135.076 169.127 135.39 169.298C135.712 169.462 136.105 169.544 136.57 169.544C137.151 169.544 137.663 169.421 138.108 169.175C138.552 168.929 138.904 168.628 139.164 168.272C139.43 167.917 139.574 167.572 139.594 167.237L140.405 168.149C140.357 168.437 140.227 168.754 140.015 169.103C139.803 169.452 139.519 169.787 139.164 170.108C138.815 170.422 138.398 170.686 137.913 170.897C137.434 171.103 136.894 171.205 136.293 171.205C135.541 171.205 134.881 171.058 134.314 170.764C133.753 170.47 133.316 170.077 133.001 169.585C132.694 169.086 132.54 168.529 132.54 167.914C132.54 167.319 132.656 166.796 132.888 166.345C133.121 165.887 133.456 165.507 133.893 165.207C134.331 164.899 134.857 164.667 135.472 164.509C136.088 164.352 136.775 164.273 137.533 164.273H139.738ZM146.818 162.274V171H144.921V159.905H146.715L146.818 162.274ZM146.367 165.032L145.577 165.001C145.584 164.243 145.697 163.542 145.915 162.899C146.134 162.25 146.442 161.686 146.838 161.208C147.235 160.729 147.706 160.36 148.253 160.1C148.807 159.833 149.419 159.7 150.089 159.7C150.636 159.7 151.128 159.775 151.565 159.926C152.003 160.069 152.375 160.302 152.683 160.623C152.997 160.944 153.237 161.361 153.401 161.874C153.565 162.38 153.647 162.999 153.647 163.73V171H151.74V163.709C151.74 163.128 151.654 162.664 151.483 162.315C151.312 161.959 151.063 161.703 150.735 161.546C150.407 161.382 150.003 161.3 149.525 161.3C149.053 161.3 148.622 161.399 148.233 161.597C147.85 161.795 147.518 162.069 147.238 162.417C146.965 162.766 146.749 163.166 146.592 163.617C146.442 164.062 146.367 164.533 146.367 165.032ZM164.151 168.847V155.25H166.059V171H164.315L164.151 168.847ZM156.687 165.576V165.36C156.687 164.513 156.789 163.744 156.994 163.053C157.206 162.356 157.503 161.758 157.886 161.259C158.276 160.76 158.737 160.377 159.271 160.11C159.811 159.837 160.412 159.7 161.075 159.7C161.772 159.7 162.381 159.823 162.9 160.069C163.427 160.309 163.871 160.661 164.233 161.125C164.603 161.583 164.893 162.137 165.105 162.787C165.317 163.436 165.464 164.171 165.546 164.991V165.935C165.471 166.748 165.324 167.479 165.105 168.129C164.893 168.778 164.603 169.332 164.233 169.79C163.871 170.248 163.427 170.6 162.9 170.846C162.374 171.085 161.759 171.205 161.055 171.205C160.405 171.205 159.811 171.065 159.271 170.785C158.737 170.504 158.276 170.111 157.886 169.605C157.503 169.1 157.206 168.505 156.994 167.821C156.789 167.131 156.687 166.382 156.687 165.576ZM158.594 165.36V165.576C158.594 166.129 158.648 166.649 158.758 167.134C158.874 167.62 159.052 168.047 159.291 168.416C159.53 168.785 159.834 169.076 160.204 169.288C160.573 169.493 161.014 169.595 161.526 169.595C162.155 169.595 162.671 169.462 163.075 169.195C163.485 168.929 163.813 168.577 164.059 168.139C164.305 167.702 164.497 167.227 164.633 166.714V164.243C164.551 163.867 164.432 163.504 164.274 163.156C164.124 162.8 163.926 162.486 163.68 162.212C163.44 161.932 163.143 161.71 162.788 161.546C162.439 161.382 162.025 161.3 161.547 161.3C161.027 161.3 160.58 161.409 160.204 161.628C159.834 161.84 159.53 162.134 159.291 162.51C159.052 162.879 158.874 163.31 158.758 163.802C158.648 164.287 158.594 164.807 158.594 165.36ZM181.295 157.393L176.352 171H174.332L180.023 156.07H181.325L181.295 157.393ZM185.437 171L180.485 157.393L180.454 156.07H181.756L187.468 171H185.437ZM185.181 165.473V167.093H176.793V165.473H185.181ZM192.22 156.07V171H190.241V156.07H192.22ZM207.815 157.393L202.872 171H200.852L206.543 156.07H207.845L207.815 157.393ZM211.957 171L207.004 157.393L206.974 156.07H208.276L213.987 171H211.957ZM211.701 165.473V167.093H203.313V165.473H211.701ZM223.518 159.905H225.24V170.764C225.24 171.742 225.042 172.576 224.646 173.266C224.249 173.957 223.696 174.479 222.985 174.835C222.28 175.197 221.467 175.378 220.544 175.378C220.161 175.378 219.71 175.317 219.191 175.194C218.678 175.078 218.172 174.876 217.673 174.589C217.181 174.309 216.767 173.929 216.432 173.451L217.427 172.323C217.892 172.883 218.377 173.273 218.883 173.492C219.396 173.71 219.902 173.82 220.401 173.82C221.002 173.82 221.522 173.707 221.959 173.481C222.397 173.256 222.735 172.921 222.974 172.477C223.22 172.039 223.343 171.499 223.343 170.856V162.346L223.518 159.905ZM215.879 165.576V165.36C215.879 164.513 215.978 163.744 216.176 163.053C216.381 162.356 216.672 161.758 217.048 161.259C217.43 160.76 217.892 160.377 218.432 160.11C218.972 159.837 219.58 159.7 220.257 159.7C220.954 159.7 221.563 159.823 222.082 160.069C222.609 160.309 223.053 160.661 223.415 161.125C223.784 161.583 224.075 162.137 224.287 162.787C224.499 163.436 224.646 164.171 224.728 164.991V165.935C224.653 166.748 224.506 167.479 224.287 168.129C224.075 168.778 223.784 169.332 223.415 169.79C223.053 170.248 222.609 170.6 222.082 170.846C221.556 171.085 220.941 171.205 220.237 171.205C219.573 171.205 218.972 171.065 218.432 170.785C217.899 170.504 217.441 170.111 217.058 169.605C216.675 169.1 216.381 168.505 216.176 167.821C215.978 167.131 215.879 166.382 215.879 165.576ZM217.776 165.36V165.576C217.776 166.129 217.83 166.649 217.94 167.134C218.056 167.62 218.23 168.047 218.463 168.416C218.702 168.785 219.006 169.076 219.375 169.288C219.744 169.493 220.185 169.595 220.698 169.595C221.327 169.595 221.846 169.462 222.257 169.195C222.667 168.929 222.991 168.577 223.231 168.139C223.477 167.702 223.668 167.227 223.805 166.714V164.243C223.73 163.867 223.613 163.504 223.456 163.156C223.306 162.8 223.108 162.486 222.862 162.212C222.622 161.932 222.325 161.71 221.969 161.546C221.614 161.382 221.197 161.3 220.718 161.3C220.199 161.3 219.751 161.409 219.375 161.628C219.006 161.84 218.702 162.134 218.463 162.51C218.23 162.879 218.056 163.31 217.94 163.802C217.83 164.287 217.776 164.807 217.776 165.36ZM233.356 171.205C232.583 171.205 231.883 171.075 231.254 170.815C230.632 170.549 230.095 170.176 229.644 169.698C229.2 169.219 228.858 168.652 228.618 167.996C228.379 167.339 228.26 166.622 228.26 165.842V165.412C228.26 164.509 228.393 163.706 228.66 163.002C228.926 162.291 229.288 161.689 229.746 161.197C230.204 160.705 230.724 160.333 231.305 160.08C231.886 159.827 232.488 159.7 233.11 159.7C233.903 159.7 234.586 159.837 235.16 160.11C235.742 160.384 236.217 160.767 236.586 161.259C236.955 161.744 237.228 162.318 237.406 162.981C237.584 163.638 237.673 164.355 237.673 165.135V165.986H229.388V164.438H235.776V164.294C235.748 163.802 235.646 163.323 235.468 162.858C235.297 162.394 235.024 162.011 234.648 161.71C234.272 161.409 233.759 161.259 233.11 161.259C232.679 161.259 232.283 161.351 231.92 161.536C231.558 161.713 231.247 161.98 230.987 162.335C230.727 162.691 230.526 163.125 230.382 163.638C230.239 164.15 230.167 164.742 230.167 165.412V165.842C230.167 166.369 230.239 166.864 230.382 167.329C230.533 167.787 230.748 168.19 231.028 168.539C231.315 168.888 231.66 169.161 232.064 169.359C232.474 169.558 232.939 169.657 233.458 169.657C234.128 169.657 234.696 169.52 235.16 169.247C235.625 168.973 236.032 168.607 236.381 168.149L237.529 169.062C237.29 169.424 236.986 169.77 236.617 170.098C236.247 170.426 235.793 170.692 235.253 170.897C234.72 171.103 234.087 171.205 233.356 171.205ZM242.415 162.274V171H240.518V159.905H242.312L242.415 162.274ZM241.963 165.032L241.174 165.001C241.181 164.243 241.293 163.542 241.512 162.899C241.731 162.25 242.039 161.686 242.435 161.208C242.832 160.729 243.303 160.36 243.85 160.1C244.404 159.833 245.016 159.7 245.686 159.7C246.232 159.7 246.725 159.775 247.162 159.926C247.6 160.069 247.972 160.302 248.28 160.623C248.594 160.944 248.833 161.361 248.998 161.874C249.162 162.38 249.244 162.999 249.244 163.73V171H247.336V163.709C247.336 163.128 247.251 162.664 247.08 162.315C246.909 161.959 246.66 161.703 246.332 161.546C246.003 161.382 245.6 161.3 245.122 161.3C244.65 161.3 244.219 161.399 243.83 161.597C243.447 161.795 243.115 162.069 242.835 162.417C242.561 162.766 242.346 163.166 242.189 163.617C242.039 164.062 241.963 164.533 241.963 165.032ZM257.4 159.905V161.361H251.401V159.905H257.4ZM253.432 157.208H255.329V168.252C255.329 168.628 255.387 168.912 255.503 169.103C255.619 169.294 255.77 169.421 255.954 169.482C256.139 169.544 256.337 169.575 256.549 169.575C256.706 169.575 256.87 169.561 257.041 169.534C257.219 169.5 257.352 169.472 257.441 169.452L257.451 171C257.301 171.048 257.103 171.092 256.857 171.133C256.617 171.181 256.327 171.205 255.985 171.205C255.52 171.205 255.093 171.113 254.703 170.928C254.314 170.744 254.003 170.436 253.77 170.005C253.545 169.568 253.432 168.98 253.432 168.242V157.208ZM266.715 168.057C266.715 167.784 266.654 167.531 266.53 167.298C266.414 167.059 266.172 166.844 265.802 166.652C265.44 166.454 264.893 166.283 264.162 166.14C263.547 166.01 262.989 165.856 262.49 165.678C261.998 165.5 261.578 165.285 261.229 165.032C260.887 164.779 260.624 164.482 260.44 164.14C260.255 163.798 260.163 163.398 260.163 162.94C260.163 162.503 260.258 162.089 260.45 161.7C260.648 161.31 260.925 160.965 261.28 160.664C261.643 160.363 262.077 160.127 262.583 159.957C263.089 159.786 263.653 159.7 264.275 159.7C265.163 159.7 265.922 159.857 266.551 160.172C267.18 160.486 267.662 160.907 267.997 161.433C268.332 161.953 268.499 162.53 268.499 163.166H266.602C266.602 162.858 266.51 162.561 266.325 162.274C266.148 161.98 265.884 161.737 265.536 161.546C265.194 161.354 264.774 161.259 264.275 161.259C263.748 161.259 263.321 161.341 262.993 161.505C262.672 161.662 262.436 161.864 262.285 162.11C262.142 162.356 262.07 162.616 262.07 162.889C262.07 163.094 262.104 163.279 262.173 163.443C262.248 163.6 262.378 163.747 262.562 163.884C262.747 164.014 263.007 164.137 263.341 164.253C263.676 164.369 264.104 164.485 264.623 164.602C265.532 164.807 266.281 165.053 266.869 165.34C267.457 165.627 267.894 165.979 268.181 166.396C268.468 166.813 268.612 167.319 268.612 167.914C268.612 168.399 268.509 168.843 268.304 169.247C268.106 169.65 267.816 169.999 267.433 170.292C267.057 170.58 266.606 170.805 266.079 170.969C265.56 171.126 264.975 171.205 264.326 171.205C263.348 171.205 262.521 171.031 261.844 170.682C261.168 170.333 260.655 169.882 260.306 169.329C259.958 168.775 259.783 168.19 259.783 167.575H261.691C261.718 168.095 261.868 168.508 262.142 168.816C262.415 169.117 262.75 169.332 263.147 169.462C263.543 169.585 263.936 169.646 264.326 169.646C264.845 169.646 265.279 169.578 265.628 169.441C265.984 169.305 266.254 169.117 266.438 168.877C266.623 168.638 266.715 168.365 266.715 168.057ZM72.0762 178.25H73.9834V191.847L73.8194 194H72.0762V178.25ZM81.479 188.36V188.576C81.479 189.382 81.3833 190.131 81.1919 190.821C81.0005 191.505 80.7203 192.1 80.3511 192.605C79.982 193.111 79.5308 193.504 78.9976 193.785C78.4644 194.065 77.8526 194.205 77.1621 194.205C76.458 194.205 75.8394 194.085 75.3062 193.846C74.7798 193.6 74.3355 193.248 73.9732 192.79C73.6109 192.332 73.3204 191.778 73.1016 191.129C72.8897 190.479 72.7427 189.748 72.6607 188.935V187.991C72.7427 187.171 72.8897 186.436 73.1016 185.787C73.3204 185.137 73.6109 184.583 73.9732 184.125C74.3355 183.661 74.7798 183.309 75.3062 183.069C75.8326 182.823 76.4444 182.7 77.1416 182.7C77.8389 182.7 78.4576 182.837 78.9976 183.11C79.5376 183.377 79.9888 183.76 80.3511 184.259C80.7203 184.758 81.0005 185.356 81.1919 186.053C81.3833 186.744 81.479 187.513 81.479 188.36ZM79.5718 188.576V188.36C79.5718 187.807 79.5205 187.287 79.418 186.802C79.3155 186.31 79.1514 185.879 78.9258 185.51C78.7002 185.134 78.4029 184.84 78.0337 184.628C77.6646 184.409 77.21 184.3 76.67 184.3C76.1914 184.3 75.7745 184.382 75.419 184.546C75.0704 184.71 74.773 184.932 74.5269 185.212C74.2808 185.486 74.0791 185.8 73.9219 186.156C73.7715 186.504 73.6587 186.867 73.5835 187.243V189.714C73.6929 190.192 73.8706 190.654 74.1167 191.098C74.3697 191.536 74.7046 191.895 75.1216 192.175C75.5454 192.455 76.0684 192.595 76.6905 192.595C77.2032 192.595 77.6407 192.493 78.003 192.288C78.3721 192.076 78.6695 191.785 78.8951 191.416C79.1275 191.047 79.2984 190.62 79.4078 190.134C79.5171 189.649 79.5718 189.129 79.5718 188.576ZM89.1125 194.205C88.34 194.205 87.6393 194.075 87.0104 193.815C86.3883 193.549 85.8517 193.176 85.4005 192.698C84.9562 192.219 84.6144 191.652 84.3752 190.996C84.1359 190.339 84.0163 189.622 84.0163 188.842V188.412C84.0163 187.509 84.1496 186.706 84.4162 186.002C84.6828 185.291 85.0451 184.689 85.5031 184.197C85.9611 183.705 86.4806 183.333 87.0617 183.08C87.6427 182.827 88.2443 182.7 88.8664 182.7C89.6593 182.7 90.3429 182.837 90.9171 183.11C91.4982 183.384 91.9733 183.767 92.3424 184.259C92.7116 184.744 92.985 185.318 93.1628 185.981C93.3405 186.638 93.4294 187.355 93.4294 188.135V188.986H85.1442V187.438H91.5324V187.294C91.505 186.802 91.4025 186.323 91.2248 185.858C91.0539 185.394 90.7804 185.011 90.4045 184.71C90.0285 184.409 89.5158 184.259 88.8664 184.259C88.4357 184.259 88.0392 184.351 87.6769 184.536C87.3146 184.713 87.0036 184.98 86.7438 185.335C86.484 185.691 86.2824 186.125 86.1388 186.638C85.9953 187.15 85.9235 187.742 85.9235 188.412V188.842C85.9235 189.369 85.9953 189.864 86.1388 190.329C86.2892 190.787 86.5046 191.19 86.7848 191.539C87.0719 191.888 87.4171 192.161 87.8205 192.359C88.2306 192.558 88.6955 192.657 89.215 192.657C89.8849 192.657 90.4523 192.52 90.9171 192.247C91.382 191.973 91.7887 191.607 92.1374 191.149L93.2858 192.062C93.0465 192.424 92.7423 192.77 92.3732 193.098C92.0041 193.426 91.5495 193.692 91.0094 193.897C90.4762 194.103 89.8439 194.205 89.1125 194.205ZM109.106 191.847V178.25H111.014V194H109.27L109.106 191.847ZM101.642 188.576V188.36C101.642 187.513 101.744 186.744 101.949 186.053C102.161 185.356 102.458 184.758 102.841 184.259C103.231 183.76 103.692 183.377 104.225 183.11C104.766 182.837 105.367 182.7 106.03 182.7C106.727 182.7 107.336 182.823 107.855 183.069C108.382 183.309 108.826 183.661 109.188 184.125C109.558 184.583 109.848 185.137 110.06 185.787C110.272 186.436 110.419 187.171 110.501 187.991V188.935C110.426 189.748 110.279 190.479 110.06 191.129C109.848 191.778 109.558 192.332 109.188 192.79C108.826 193.248 108.382 193.6 107.855 193.846C107.329 194.085 106.714 194.205 106.01 194.205C105.36 194.205 104.766 194.065 104.225 193.785C103.692 193.504 103.231 193.111 102.841 192.605C102.458 192.1 102.161 191.505 101.949 190.821C101.744 190.131 101.642 189.382 101.642 188.576ZM103.549 188.36V188.576C103.549 189.129 103.603 189.649 103.713 190.134C103.829 190.62 104.007 191.047 104.246 191.416C104.485 191.785 104.789 192.076 105.159 192.288C105.528 192.493 105.969 192.595 106.481 192.595C107.11 192.595 107.626 192.462 108.03 192.195C108.44 191.929 108.768 191.577 109.014 191.139C109.26 190.702 109.452 190.227 109.588 189.714V187.243C109.506 186.867 109.387 186.504 109.229 186.156C109.079 185.8 108.881 185.486 108.635 185.212C108.395 184.932 108.098 184.71 107.743 184.546C107.394 184.382 106.98 184.3 106.502 184.3C105.982 184.3 105.535 184.409 105.159 184.628C104.789 184.84 104.485 185.134 104.246 185.51C104.007 185.879 103.829 186.31 103.713 186.802C103.603 187.287 103.549 187.807 103.549 188.36ZM116.658 182.905V194H114.751V182.905H116.658ZM114.607 179.962C114.607 179.655 114.699 179.395 114.884 179.183C115.075 178.971 115.355 178.865 115.725 178.865C116.087 178.865 116.364 178.971 116.555 179.183C116.753 179.395 116.853 179.655 116.853 179.962C116.853 180.256 116.753 180.509 116.555 180.721C116.364 180.926 116.087 181.029 115.725 181.029C115.355 181.029 115.075 180.926 114.884 180.721C114.699 180.509 114.607 180.256 114.607 179.962ZM126.793 191.057C126.793 190.784 126.732 190.531 126.609 190.298C126.492 190.059 126.25 189.844 125.881 189.652C125.518 189.454 124.971 189.283 124.24 189.14C123.625 189.01 123.068 188.856 122.568 188.678C122.076 188.5 121.656 188.285 121.307 188.032C120.965 187.779 120.702 187.482 120.518 187.14C120.333 186.798 120.241 186.398 120.241 185.94C120.241 185.503 120.337 185.089 120.528 184.7C120.726 184.31 121.003 183.965 121.359 183.664C121.721 183.363 122.155 183.127 122.661 182.957C123.167 182.786 123.731 182.7 124.353 182.7C125.241 182.7 126 182.857 126.629 183.172C127.258 183.486 127.74 183.907 128.075 184.433C128.41 184.953 128.577 185.53 128.577 186.166H126.68C126.68 185.858 126.588 185.561 126.403 185.274C126.226 184.98 125.963 184.737 125.614 184.546C125.272 184.354 124.852 184.259 124.353 184.259C123.826 184.259 123.399 184.341 123.071 184.505C122.75 184.662 122.514 184.864 122.363 185.11C122.22 185.356 122.148 185.616 122.148 185.889C122.148 186.094 122.182 186.279 122.251 186.443C122.326 186.6 122.456 186.747 122.64 186.884C122.825 187.014 123.085 187.137 123.42 187.253C123.755 187.369 124.182 187.485 124.701 187.602C125.61 187.807 126.359 188.053 126.947 188.34C127.535 188.627 127.972 188.979 128.259 189.396C128.547 189.813 128.69 190.319 128.69 190.914C128.69 191.399 128.588 191.843 128.382 192.247C128.184 192.65 127.894 192.999 127.511 193.292C127.135 193.58 126.684 193.805 126.157 193.969C125.638 194.126 125.053 194.205 124.404 194.205C123.426 194.205 122.599 194.031 121.923 193.682C121.246 193.333 120.733 192.882 120.384 192.329C120.036 191.775 119.861 191.19 119.861 190.575H121.769C121.796 191.095 121.946 191.508 122.22 191.816C122.493 192.117 122.828 192.332 123.225 192.462C123.621 192.585 124.014 192.646 124.404 192.646C124.923 192.646 125.358 192.578 125.706 192.441C126.062 192.305 126.332 192.117 126.516 191.877C126.701 191.638 126.793 191.365 126.793 191.057ZM136.252 192.646C136.703 192.646 137.12 192.554 137.503 192.37C137.886 192.185 138.2 191.932 138.446 191.611C138.692 191.283 138.832 190.91 138.866 190.493H140.671C140.637 191.149 140.415 191.761 140.005 192.329C139.601 192.889 139.072 193.344 138.415 193.692C137.759 194.034 137.038 194.205 136.252 194.205C135.418 194.205 134.69 194.058 134.068 193.764C133.452 193.47 132.94 193.067 132.53 192.554C132.126 192.042 131.822 191.454 131.617 190.791C131.419 190.121 131.32 189.413 131.32 188.668V188.237C131.32 187.492 131.419 186.788 131.617 186.125C131.822 185.455 132.126 184.864 132.53 184.351C132.94 183.838 133.452 183.435 134.068 183.141C134.69 182.847 135.418 182.7 136.252 182.7C137.12 182.7 137.879 182.878 138.528 183.233C139.177 183.582 139.687 184.061 140.056 184.669C140.432 185.271 140.637 185.954 140.671 186.72H138.866C138.832 186.262 138.702 185.848 138.477 185.479C138.258 185.11 137.957 184.816 137.574 184.597C137.198 184.372 136.758 184.259 136.252 184.259C135.671 184.259 135.182 184.375 134.785 184.607C134.396 184.833 134.085 185.141 133.852 185.53C133.627 185.913 133.463 186.34 133.36 186.812C133.264 187.277 133.217 187.752 133.217 188.237V188.668C133.217 189.153 133.264 189.632 133.36 190.104C133.456 190.575 133.616 191.002 133.842 191.385C134.074 191.768 134.386 192.076 134.775 192.308C135.172 192.534 135.664 192.646 136.252 192.646ZM142.932 188.576V188.34C142.932 187.54 143.048 186.798 143.28 186.115C143.513 185.424 143.848 184.826 144.285 184.32C144.723 183.808 145.252 183.411 145.874 183.131C146.496 182.844 147.194 182.7 147.966 182.7C148.745 182.7 149.446 182.844 150.068 183.131C150.697 183.411 151.23 183.808 151.668 184.32C152.112 184.826 152.451 185.424 152.683 186.115C152.915 186.798 153.032 187.54 153.032 188.34V188.576C153.032 189.375 152.915 190.117 152.683 190.801C152.451 191.484 152.112 192.083 151.668 192.595C151.23 193.101 150.701 193.498 150.078 193.785C149.463 194.065 148.766 194.205 147.987 194.205C147.207 194.205 146.507 194.065 145.885 193.785C145.263 193.498 144.729 193.101 144.285 192.595C143.848 192.083 143.513 191.484 143.28 190.801C143.048 190.117 142.932 189.375 142.932 188.576ZM144.828 188.34V188.576C144.828 189.129 144.893 189.652 145.023 190.145C145.153 190.63 145.348 191.061 145.608 191.437C145.874 191.812 146.206 192.11 146.602 192.329C146.999 192.541 147.46 192.646 147.987 192.646C148.506 192.646 148.961 192.541 149.35 192.329C149.747 192.11 150.075 191.812 150.335 191.437C150.595 191.061 150.789 190.63 150.919 190.145C151.056 189.652 151.124 189.129 151.124 188.576V188.34C151.124 187.793 151.056 187.277 150.919 186.792C150.789 186.299 150.591 185.865 150.325 185.489C150.065 185.106 149.737 184.806 149.34 184.587C148.951 184.368 148.493 184.259 147.966 184.259C147.447 184.259 146.989 184.368 146.592 184.587C146.203 184.806 145.874 185.106 145.608 185.489C145.348 185.865 145.153 186.299 145.023 186.792C144.893 187.277 144.828 187.793 144.828 188.34ZM159.25 192.288L162.285 182.905H164.223L160.234 194H158.963L159.25 192.288ZM156.717 182.905L159.845 192.339L160.06 194H158.789L154.769 182.905H156.717ZM171.139 194.205C170.366 194.205 169.666 194.075 169.037 193.815C168.415 193.549 167.878 193.176 167.427 192.698C166.983 192.219 166.641 191.652 166.401 190.996C166.162 190.339 166.043 189.622 166.043 188.842V188.412C166.043 187.509 166.176 186.706 166.443 186.002C166.709 185.291 167.071 184.689 167.529 184.197C167.987 183.705 168.507 183.333 169.088 183.08C169.669 182.827 170.271 182.7 170.893 182.7C171.686 182.7 172.369 182.837 172.943 183.11C173.525 183.384 174 183.767 174.369 184.259C174.738 184.744 175.011 185.318 175.189 185.981C175.367 186.638 175.456 187.355 175.456 188.135V188.986H167.171V187.438H173.559V187.294C173.531 186.802 173.429 186.323 173.251 185.858C173.08 185.394 172.807 185.011 172.431 184.71C172.055 184.409 171.542 184.259 170.893 184.259C170.462 184.259 170.066 184.351 169.703 184.536C169.341 184.713 169.03 184.98 168.77 185.335C168.51 185.691 168.309 186.125 168.165 186.638C168.022 187.15 167.95 187.742 167.95 188.412V188.842C167.95 189.369 168.022 189.864 168.165 190.329C168.316 190.787 168.531 191.19 168.811 191.539C169.098 191.888 169.443 192.161 169.847 192.359C170.257 192.558 170.722 192.657 171.241 192.657C171.911 192.657 172.479 192.52 172.943 192.247C173.408 191.973 173.815 191.607 174.164 191.149L175.312 192.062C175.073 192.424 174.769 192.77 174.4 193.098C174.03 193.426 173.576 193.692 173.036 193.897C172.503 194.103 171.87 194.205 171.139 194.205ZM180.198 184.648V194H178.301V182.905H180.146L180.198 184.648ZM183.663 182.844L183.653 184.607C183.496 184.573 183.345 184.553 183.202 184.546C183.065 184.532 182.908 184.525 182.73 184.525C182.293 184.525 181.906 184.594 181.572 184.73C181.237 184.867 180.953 185.059 180.72 185.305C180.488 185.551 180.303 185.845 180.167 186.187C180.037 186.521 179.951 186.891 179.91 187.294L179.377 187.602C179.377 186.932 179.442 186.303 179.572 185.715C179.709 185.127 179.917 184.607 180.198 184.156C180.478 183.698 180.833 183.343 181.264 183.09C181.701 182.83 182.221 182.7 182.823 182.7C182.959 182.7 183.116 182.717 183.294 182.751C183.472 182.779 183.595 182.81 183.663 182.844ZM190.446 194.205C189.673 194.205 188.973 194.075 188.344 193.815C187.722 193.549 187.185 193.176 186.734 192.698C186.289 192.219 185.948 191.652 185.708 190.996C185.469 190.339 185.349 189.622 185.349 188.842V188.412C185.349 187.509 185.483 186.706 185.749 186.002C186.016 185.291 186.378 184.689 186.836 184.197C187.294 183.705 187.814 183.333 188.395 183.08C188.976 182.827 189.577 182.7 190.2 182.7C190.993 182.7 191.676 182.837 192.25 183.11C192.831 183.384 193.307 183.767 193.676 184.259C194.045 184.744 194.318 185.318 194.496 185.981C194.674 186.638 194.763 187.355 194.763 188.135V188.986H186.477V187.438H192.866V187.294C192.838 186.802 192.736 186.323 192.558 185.858C192.387 185.394 192.114 185.011 191.738 184.71C191.362 184.409 190.849 184.259 190.2 184.259C189.769 184.259 189.372 184.351 189.01 184.536C188.648 184.713 188.337 184.98 188.077 185.335C187.817 185.691 187.616 186.125 187.472 186.638C187.328 187.15 187.257 187.742 187.257 188.412V188.842C187.257 189.369 187.328 189.864 187.472 190.329C187.622 190.787 187.838 191.19 188.118 191.539C188.405 191.888 188.75 192.161 189.154 192.359C189.564 192.558 190.029 192.657 190.548 192.657C191.218 192.657 191.786 192.52 192.25 192.247C192.715 191.973 193.122 191.607 193.471 191.149L194.619 192.062C194.38 192.424 194.076 192.77 193.706 193.098C193.337 193.426 192.883 193.692 192.343 193.897C191.809 194.103 191.177 194.205 190.446 194.205ZM204.601 191.847V178.25H206.508V194H204.765L204.601 191.847ZM197.136 188.576V188.36C197.136 187.513 197.238 186.744 197.443 186.053C197.655 185.356 197.953 184.758 198.335 184.259C198.725 183.76 199.186 183.377 199.72 183.11C200.26 182.837 200.861 182.7 201.524 182.7C202.222 182.7 202.83 182.823 203.35 183.069C203.876 183.309 204.32 183.661 204.683 184.125C205.052 184.583 205.342 185.137 205.554 185.787C205.766 186.436 205.913 187.171 205.995 187.991V188.935C205.92 189.748 205.773 190.479 205.554 191.129C205.342 191.778 205.052 192.332 204.683 192.79C204.32 193.248 203.876 193.6 203.35 193.846C202.823 194.085 202.208 194.205 201.504 194.205C200.854 194.205 200.26 194.065 199.72 193.785C199.186 193.504 198.725 193.111 198.335 192.605C197.953 192.1 197.655 191.505 197.443 190.821C197.238 190.131 197.136 189.382 197.136 188.576ZM199.043 188.36V188.576C199.043 189.129 199.098 189.649 199.207 190.134C199.323 190.62 199.501 191.047 199.74 191.416C199.979 191.785 200.284 192.076 200.653 192.288C201.022 192.493 201.463 192.595 201.976 192.595C202.604 192.595 203.121 192.462 203.524 192.195C203.934 191.929 204.262 191.577 204.508 191.139C204.754 190.702 204.946 190.227 205.082 189.714V187.243C205 186.867 204.881 186.504 204.724 186.156C204.573 185.8 204.375 185.486 204.129 185.212C203.89 184.932 203.592 184.71 203.237 184.546C202.888 184.382 202.475 184.3 201.996 184.3C201.477 184.3 201.029 184.409 200.653 184.628C200.284 184.84 199.979 185.134 199.74 185.51C199.501 185.879 199.323 186.31 199.207 186.802C199.098 187.287 199.043 187.807 199.043 188.36ZM215.92 178.25H217.827V191.847L217.663 194H215.92V178.25ZM225.322 188.36V188.576C225.322 189.382 225.227 190.131 225.035 190.821C224.844 191.505 224.564 192.1 224.195 192.605C223.825 193.111 223.374 193.504 222.841 193.785C222.308 194.065 221.696 194.205 221.006 194.205C220.301 194.205 219.683 194.085 219.15 193.846C218.623 193.6 218.179 193.248 217.817 192.79C217.454 192.332 217.164 191.778 216.945 191.129C216.733 190.479 216.586 189.748 216.504 188.935V187.991C216.586 187.171 216.733 186.436 216.945 185.787C217.164 185.137 217.454 184.583 217.817 184.125C218.179 183.661 218.623 183.309 219.15 183.069C219.676 182.823 220.288 182.7 220.985 182.7C221.682 182.7 222.301 182.837 222.841 183.11C223.381 183.377 223.832 183.76 224.195 184.259C224.564 184.758 224.844 185.356 225.035 186.053C225.227 186.744 225.322 187.513 225.322 188.36ZM223.415 188.576V188.36C223.415 187.807 223.364 187.287 223.261 186.802C223.159 186.31 222.995 185.879 222.769 185.51C222.544 185.134 222.246 184.84 221.877 184.628C221.508 184.409 221.053 184.3 220.513 184.3C220.035 184.3 219.618 184.382 219.262 184.546C218.914 184.71 218.616 184.932 218.37 185.212C218.124 185.486 217.923 185.8 217.765 186.156C217.615 186.504 217.502 186.867 217.427 187.243V189.714C217.536 190.192 217.714 190.654 217.96 191.098C218.213 191.536 218.548 191.895 218.965 192.175C219.389 192.455 219.912 192.595 220.534 192.595C221.047 192.595 221.484 192.493 221.846 192.288C222.216 192.076 222.513 191.785 222.738 191.416C222.971 191.047 223.142 190.62 223.251 190.134C223.361 189.649 223.415 189.129 223.415 188.576ZM231.346 192.852L234.432 182.905H236.463L232.013 195.712C231.91 195.986 231.773 196.28 231.602 196.594C231.438 196.916 231.226 197.22 230.967 197.507C230.707 197.794 230.392 198.026 230.023 198.204C229.661 198.389 229.227 198.481 228.721 198.481C228.571 198.481 228.379 198.46 228.147 198.419C227.914 198.378 227.75 198.344 227.655 198.317L227.644 196.779C227.699 196.786 227.785 196.792 227.901 196.799C228.024 196.813 228.109 196.82 228.157 196.82C228.588 196.82 228.953 196.762 229.254 196.646C229.555 196.536 229.808 196.348 230.013 196.082C230.225 195.822 230.406 195.463 230.556 195.005L231.346 192.852ZM229.08 182.905L231.961 191.519L232.453 193.518L231.09 194.215L227.009 182.905H229.08ZM121.741 213.227C121.741 212.878 121.686 212.57 121.577 212.304C121.474 212.03 121.29 211.784 121.023 211.565C120.763 211.347 120.401 211.138 119.936 210.94C119.478 210.742 118.897 210.54 118.193 210.335C117.455 210.116 116.788 209.874 116.193 209.607C115.599 209.333 115.089 209.022 114.666 208.674C114.242 208.325 113.917 207.925 113.691 207.474C113.466 207.023 113.353 206.507 113.353 205.926C113.353 205.345 113.473 204.808 113.712 204.316C113.951 203.824 114.293 203.396 114.737 203.034C115.189 202.665 115.725 202.378 116.347 202.173C116.969 201.968 117.663 201.865 118.429 201.865C119.55 201.865 120.5 202.081 121.279 202.511C122.066 202.935 122.664 203.492 123.074 204.183C123.484 204.866 123.689 205.598 123.689 206.377H121.72C121.72 205.816 121.601 205.321 121.361 204.89C121.122 204.453 120.76 204.111 120.274 203.865C119.789 203.612 119.174 203.485 118.429 203.485C117.725 203.485 117.144 203.591 116.686 203.803C116.228 204.015 115.886 204.302 115.66 204.665C115.441 205.027 115.332 205.44 115.332 205.905C115.332 206.22 115.397 206.507 115.527 206.767C115.664 207.02 115.872 207.255 116.152 207.474C116.44 207.693 116.802 207.895 117.239 208.079C117.684 208.264 118.213 208.441 118.829 208.612C119.676 208.852 120.408 209.118 121.023 209.412C121.638 209.706 122.144 210.038 122.541 210.407C122.944 210.769 123.241 211.183 123.433 211.647C123.631 212.105 123.73 212.625 123.73 213.206C123.73 213.814 123.607 214.365 123.361 214.857C123.115 215.349 122.763 215.77 122.305 216.118C121.847 216.467 121.296 216.737 120.654 216.928C120.018 217.113 119.307 217.205 118.521 217.205C117.831 217.205 117.15 217.109 116.481 216.918C115.817 216.727 115.212 216.439 114.666 216.057C114.126 215.674 113.691 215.202 113.363 214.642C113.042 214.074 112.881 213.418 112.881 212.673H114.85C114.85 213.186 114.949 213.626 115.148 213.996C115.346 214.358 115.616 214.659 115.958 214.898C116.306 215.137 116.699 215.315 117.137 215.431C117.581 215.541 118.043 215.595 118.521 215.595C119.212 215.595 119.796 215.5 120.274 215.308C120.753 215.117 121.115 214.843 121.361 214.488C121.614 214.132 121.741 213.712 121.741 213.227ZM131.24 205.905V207.361H125.242V205.905H131.24ZM127.272 203.208H129.169V214.252C129.169 214.628 129.227 214.912 129.343 215.103C129.46 215.294 129.61 215.421 129.795 215.482C129.979 215.544 130.177 215.575 130.389 215.575C130.547 215.575 130.711 215.561 130.882 215.534C131.059 215.5 131.193 215.472 131.281 215.452L131.292 217C131.141 217.048 130.943 217.092 130.697 217.133C130.458 217.181 130.167 217.205 129.825 217.205C129.361 217.205 128.933 217.113 128.544 216.928C128.154 216.744 127.843 216.436 127.611 216.005C127.385 215.568 127.272 214.98 127.272 214.242V203.208ZM140.638 215.103V209.392C140.638 208.954 140.549 208.575 140.371 208.253C140.2 207.925 139.94 207.672 139.592 207.495C139.243 207.317 138.812 207.228 138.3 207.228C137.821 207.228 137.401 207.31 137.038 207.474C136.683 207.638 136.403 207.854 136.198 208.12C135.999 208.387 135.9 208.674 135.9 208.981H134.003C134.003 208.585 134.106 208.192 134.311 207.802C134.516 207.413 134.81 207.061 135.193 206.746C135.582 206.425 136.047 206.172 136.587 205.987C137.134 205.796 137.743 205.7 138.412 205.7C139.219 205.7 139.93 205.837 140.545 206.11C141.167 206.384 141.653 206.797 142.001 207.351C142.357 207.898 142.534 208.585 142.534 209.412V214.58C142.534 214.949 142.565 215.342 142.627 215.759C142.695 216.176 142.794 216.535 142.924 216.836V217H140.945C140.849 216.781 140.774 216.491 140.72 216.128C140.665 215.759 140.638 215.417 140.638 215.103ZM140.966 210.273L140.986 211.606H139.069C138.529 211.606 138.047 211.651 137.623 211.74C137.199 211.822 136.844 211.948 136.556 212.119C136.269 212.29 136.051 212.505 135.9 212.765C135.75 213.018 135.675 213.315 135.675 213.657C135.675 214.006 135.753 214.324 135.91 214.611C136.068 214.898 136.304 215.127 136.618 215.298C136.939 215.462 137.332 215.544 137.797 215.544C138.378 215.544 138.891 215.421 139.335 215.175C139.78 214.929 140.132 214.628 140.391 214.272C140.658 213.917 140.802 213.572 140.822 213.237L141.632 214.149C141.584 214.437 141.454 214.754 141.243 215.103C141.031 215.452 140.747 215.787 140.391 216.108C140.043 216.422 139.626 216.686 139.14 216.897C138.662 217.103 138.122 217.205 137.52 217.205C136.768 217.205 136.109 217.058 135.541 216.764C134.981 216.47 134.543 216.077 134.229 215.585C133.921 215.086 133.767 214.529 133.767 213.914C133.767 213.319 133.884 212.796 134.116 212.345C134.348 211.887 134.683 211.507 135.121 211.207C135.558 210.899 136.085 210.667 136.7 210.509C137.315 210.352 138.002 210.273 138.761 210.273H140.966ZM148.045 207.648V217H146.148V205.905H147.994L148.045 207.648ZM151.511 205.844L151.501 207.607C151.344 207.573 151.193 207.553 151.05 207.546C150.913 207.532 150.756 207.525 150.578 207.525C150.141 207.525 149.754 207.594 149.419 207.73C149.084 207.867 148.801 208.059 148.568 208.305C148.336 208.551 148.151 208.845 148.015 209.187C147.885 209.521 147.799 209.891 147.758 210.294L147.225 210.602C147.225 209.932 147.29 209.303 147.42 208.715C147.557 208.127 147.765 207.607 148.045 207.156C148.326 206.698 148.681 206.343 149.112 206.09C149.549 205.83 150.069 205.7 150.67 205.7C150.807 205.7 150.964 205.717 151.142 205.751C151.32 205.779 151.443 205.81 151.511 205.844ZM159.052 205.905V207.361H153.054V205.905H159.052ZM155.084 203.208H156.981V214.252C156.981 214.628 157.039 214.912 157.155 215.103C157.272 215.294 157.422 215.421 157.607 215.482C157.791 215.544 157.989 215.575 158.201 215.575C158.358 215.575 158.523 215.561 158.693 215.534C158.871 215.5 159.004 215.472 159.093 215.452L159.104 217C158.953 217.048 158.755 217.092 158.509 217.133C158.27 217.181 157.979 217.205 157.637 217.205C157.172 217.205 156.745 217.113 156.356 216.928C155.966 216.744 155.655 216.436 155.422 216.005C155.197 215.568 155.084 214.98 155.084 214.242V203.208ZM168.695 214.437V205.905H170.603V217H168.788L168.695 214.437ZM169.054 212.099L169.844 212.078C169.844 212.816 169.765 213.5 169.608 214.129C169.458 214.751 169.212 215.291 168.87 215.749C168.528 216.207 168.08 216.566 167.527 216.826C166.973 217.079 166.299 217.205 165.507 217.205C164.966 217.205 164.471 217.126 164.02 216.969C163.575 216.812 163.193 216.569 162.871 216.241C162.55 215.913 162.3 215.486 162.123 214.959C161.952 214.433 161.866 213.801 161.866 213.062V205.905H163.763V213.083C163.763 213.582 163.818 213.996 163.927 214.324C164.044 214.645 164.197 214.901 164.389 215.093C164.587 215.277 164.806 215.407 165.045 215.482C165.291 215.558 165.544 215.595 165.804 215.595C166.611 215.595 167.25 215.441 167.721 215.134C168.193 214.819 168.531 214.399 168.737 213.873C168.948 213.339 169.054 212.748 169.054 212.099ZM176.021 208.038V221.266H174.114V205.905H175.857L176.021 208.038ZM183.496 211.36V211.576C183.496 212.382 183.401 213.131 183.209 213.821C183.018 214.505 182.738 215.1 182.368 215.605C182.006 216.111 181.558 216.504 181.025 216.785C180.492 217.065 179.88 217.205 179.19 217.205C178.486 217.205 177.864 217.089 177.324 216.856C176.783 216.624 176.325 216.286 175.95 215.841C175.574 215.397 175.273 214.864 175.047 214.242C174.828 213.62 174.678 212.919 174.596 212.14V210.991C174.678 210.171 174.832 209.436 175.057 208.787C175.283 208.137 175.58 207.583 175.95 207.125C176.325 206.661 176.78 206.309 177.313 206.069C177.846 205.823 178.462 205.7 179.159 205.7C179.856 205.7 180.475 205.837 181.015 206.11C181.555 206.377 182.01 206.76 182.379 207.259C182.748 207.758 183.025 208.356 183.209 209.053C183.401 209.744 183.496 210.513 183.496 211.36ZM181.589 211.576V211.36C181.589 210.807 181.531 210.287 181.415 209.802C181.299 209.31 181.117 208.879 180.871 208.51C180.632 208.134 180.325 207.84 179.949 207.628C179.573 207.409 179.125 207.3 178.605 207.3C178.127 207.3 177.71 207.382 177.354 207.546C177.006 207.71 176.708 207.932 176.462 208.212C176.216 208.486 176.014 208.8 175.857 209.156C175.707 209.504 175.594 209.867 175.519 210.243V212.898C175.656 213.377 175.847 213.828 176.093 214.252C176.339 214.669 176.667 215.007 177.077 215.267C177.488 215.52 178.004 215.646 178.626 215.646C179.138 215.646 179.579 215.541 179.949 215.329C180.325 215.11 180.632 214.812 180.871 214.437C181.117 214.061 181.299 213.63 181.415 213.145C181.531 212.652 181.589 212.129 181.589 211.576ZM193.006 214.057C193.006 213.784 192.945 213.531 192.822 213.298C192.705 213.059 192.463 212.844 192.094 212.652C191.731 212.454 191.184 212.283 190.453 212.14C189.838 212.01 189.281 211.856 188.782 211.678C188.289 211.5 187.869 211.285 187.52 211.032C187.179 210.779 186.915 210.482 186.731 210.14C186.546 209.798 186.454 209.398 186.454 208.94C186.454 208.503 186.55 208.089 186.741 207.7C186.939 207.31 187.216 206.965 187.572 206.664C187.934 206.363 188.368 206.127 188.874 205.957C189.38 205.786 189.944 205.7 190.566 205.7C191.455 205.7 192.213 205.857 192.842 206.172C193.471 206.486 193.953 206.907 194.288 207.433C194.623 207.953 194.79 208.53 194.79 209.166H192.893C192.893 208.858 192.801 208.561 192.617 208.274C192.439 207.98 192.176 207.737 191.827 207.546C191.485 207.354 191.065 207.259 190.566 207.259C190.039 207.259 189.612 207.341 189.284 207.505C188.963 207.662 188.727 207.864 188.577 208.11C188.433 208.356 188.361 208.616 188.361 208.889C188.361 209.094 188.395 209.279 188.464 209.443C188.539 209.6 188.669 209.747 188.853 209.884C189.038 210.014 189.298 210.137 189.633 210.253C189.968 210.369 190.395 210.485 190.914 210.602C191.824 210.807 192.572 211.053 193.16 211.34C193.748 211.627 194.185 211.979 194.473 212.396C194.76 212.813 194.903 213.319 194.903 213.914C194.903 214.399 194.801 214.843 194.596 215.247C194.397 215.65 194.107 215.999 193.724 216.292C193.348 216.58 192.897 216.805 192.371 216.969C191.851 217.126 191.267 217.205 190.617 217.205C189.64 217.205 188.812 217.031 188.136 216.682C187.459 216.333 186.946 215.882 186.598 215.329C186.249 214.775 186.075 214.19 186.075 213.575H187.982C188.009 214.095 188.16 214.508 188.433 214.816C188.706 215.117 189.041 215.332 189.438 215.462C189.834 215.585 190.227 215.646 190.617 215.646C191.137 215.646 191.571 215.578 191.919 215.441C192.275 215.305 192.545 215.117 192.729 214.877C192.914 214.638 193.006 214.365 193.006 214.057Z" fill="#4F5052"/>
<circle cx="151" cy="58" r="21" fill="#DBE4FF"/>
<path d="M147.4 56.25L150.725 52.925C151.046 52.6042 151.206 52.1958 151.206 51.7C151.206 51.2042 151.046 50.7958 150.725 50.475C150.404 50.1542 149.996 49.9938 149.5 49.9938C149.004 49.9938 148.596 50.1542 148.275 50.475L143.725 55.025C143.375 55.375 143.2 55.7833 143.2 56.25C143.2 56.7167 143.375 57.125 143.725 57.475L148.275 62.025C148.596 62.3458 149.004 62.5063 149.5 62.5063C149.996 62.5063 150.404 62.3458 150.725 62.025C151.046 61.7042 151.206 61.2958 151.206 60.8C151.206 60.3042 151.046 59.8958 150.725 59.575L147.4 56.25ZM172.6 56.25L169.275 59.575C168.954 59.8958 168.794 60.3042 168.794 60.8C168.794 61.2958 168.954 61.7042 169.275 62.025C169.596 62.3458 170.004 62.5063 170.5 62.5063C170.996 62.5063 171.404 62.3458 171.725 62.025L176.275 57.475C176.625 57.125 176.8 56.7167 176.8 56.25C176.8 55.7833 176.625 55.375 176.275 55.025L171.725 50.475C171.404 50.1542 170.996 49.9938 170.5 49.9938C170.004 49.9938 169.596 50.1542 169.275 50.475C168.954 50.7958 168.794 51.2042 168.794 51.7C168.794 52.1958 168.954 52.6042 169.275 52.925L172.6 56.25ZM154.75 73.75C154.254 73.75 153.839 73.582 153.504 73.246C153.169 72.91 153.001 72.4947 153 72V70.25H146C145.037 70.25 144.214 69.9076 143.529 69.2227C142.844 68.5379 142.501 67.7137 142.5 66.75V45.75C142.5 44.7875 142.843 43.9638 143.529 43.279C144.215 42.5942 145.039 42.2512 146 42.25H174C174.963 42.25 175.787 42.593 176.473 43.279C177.159 43.965 177.501 44.7887 177.5 45.75V66.75C177.5 67.7125 177.158 68.5368 176.473 69.2227C175.788 69.9088 174.964 70.2512 174 70.25H167V72C167 72.4958 166.832 72.9117 166.496 73.2477C166.16 73.5837 165.745 73.7512 165.25 73.75H154.75Z" fill="#114DFF"/>
<defs>
<filter id="filter0_d_257_103" x="0.4" y="0.4" width="312.2" height="312.2" filterUnits="userSpaceOnUse" color-interpolation-filters="sRGB">
<feFlood flood-opacity="0" result="BackgroundImageFix"/>
<feColorMatrix in="SourceAlpha" type="matrix" values="0 0 0 0 0 0 0 0 0 0 0 0 0 0 0 0 0 0 127 0" result="hardAlpha"/>
<feOffset dx="5" dy="6"/>
<feGaussianBlur stdDeviation="3.3"/>
<feComposite in2="hardAlpha" operator="out"/>
<feColorMatrix type="matrix" values="0 0 0 0 0 0 0 0 0 0 0 0 0 0 0 0 0 0 0.14 0"/>
<feBlend mode="normal" in2="BackgroundImageFix" result="effect1_dropShadow_257_103"/>
<feBlend mode="normal" in="SourceGraphic" in2="effect1_dropShadow_257_103" result="shape"/>
</filter>
<linearGradient id="paint0_linear_257_103" x1="5.86162" y1="28.6" x2="303.728" y2="35.6776" gradientUnits="userSpaceOnUse">
<stop offset="0.197139" stop-color="#F6F8FF"/>
<stop offset="0.663491" stop-color="#3CE5A7"/>
<stop offset="1" stop-color="#114DFF"/>
</linearGradient>
</defs>
</svg>
