<svg width="407" height="185" viewBox="0 0 407 185" fill="none" xmlns="http://www.w3.org/2000/svg">
<g filter="url(#filter0_d_21_206)">
<rect x="4" y="0.000244141" width="399" height="177" rx="88.5" fill="white"/>
<rect x="5.5" y="1.50024" width="396" height="174" rx="87" stroke="url(#paint0_linear_21_206)" stroke-width="3"/>
</g>
<path d="M64.6129 85.0706H69.5553C70.6764 85.0706 71.6232 85.2415 72.3956 85.5833C73.1749 85.925 73.7663 86.4309 74.1696 87.1008C74.5797 87.7639 74.7848 88.5808 74.7848 89.5515C74.7848 90.2351 74.6447 90.8606 74.3644 91.428C74.091 91.9885 73.6945 92.467 73.1749 92.8635C72.6622 93.2532 72.047 93.5437 71.3292 93.7351L70.7755 93.9504H66.1305L66.11 92.3406H69.6168C70.3278 92.3406 70.9191 92.2175 71.3908 91.9714C71.8624 91.7185 72.2179 91.3801 72.4572 90.9563C72.6964 90.5325 72.8161 90.0642 72.8161 89.5515C72.8161 88.9773 72.7033 88.4749 72.4777 88.0442C72.2521 87.6135 71.8966 87.282 71.4113 87.0496C70.9328 86.8103 70.3141 86.6907 69.5553 86.6907H66.5919V100H64.6129V85.0706ZM73.339 100L69.7091 93.2327L71.7702 93.2224L75.4513 99.8772V100H73.339ZM84.4382 98.1033V92.3918C84.4382 91.9543 84.3494 91.575 84.1716 91.2537C84.0007 90.9255 83.741 90.6726 83.3923 90.4949C83.0437 90.3171 82.613 90.2283 82.1004 90.2283C81.6218 90.2283 81.2014 90.3103 80.8391 90.4744C80.4837 90.6384 80.2034 90.8538 79.9983 91.1204C79.8001 91.387 79.7009 91.6741 79.7009 91.9817H77.804C77.804 91.5852 77.9065 91.1921 78.1116 90.8025C78.3167 90.4128 78.6106 90.0608 78.9934 89.7463C79.3831 89.425 79.8479 89.1721 80.388 88.9875C80.9348 88.7961 81.5432 88.7004 82.2131 88.7004C83.0198 88.7004 83.7307 88.8372 84.346 89.1106C84.968 89.384 85.4534 89.7976 85.802 90.3513C86.1575 90.8982 86.3352 91.5852 86.3352 92.4124V97.5803C86.3352 97.9495 86.366 98.3425 86.4275 98.7595C86.4959 99.1765 86.595 99.5354 86.7249 99.8362V100H84.7459C84.6502 99.7815 84.575 99.491 84.5203 99.1287C84.4656 98.7595 84.4382 98.4177 84.4382 98.1033ZM84.7664 93.2737L84.7869 94.6067H82.8694C82.3294 94.6067 81.8474 94.6511 81.4236 94.74C80.9998 94.822 80.6443 94.9485 80.3572 95.1194C80.0701 95.2903 79.8513 95.5056 79.7009 95.7654C79.5505 96.0183 79.4754 96.3157 79.4754 96.6575C79.4754 97.0061 79.554 97.324 79.7112 97.6111C79.8684 97.8982 80.1043 98.1272 80.4187 98.2981C80.74 98.4622 81.1331 98.5442 81.5979 98.5442C82.179 98.5442 82.6917 98.4211 83.136 98.175C83.5803 97.929 83.9324 97.6282 84.1922 97.2727C84.4588 96.9172 84.6023 96.572 84.6228 96.2371L85.4329 97.1497C85.385 97.4368 85.2551 97.7546 85.0432 98.1033C84.8313 98.4519 84.5476 98.7869 84.1922 99.1082C83.8435 99.4226 83.4265 99.6858 82.9412 99.8977C82.4627 100.103 81.9226 100.205 81.3211 100.205C80.5691 100.205 79.9094 100.058 79.3421 99.7644C78.7815 99.4705 78.344 99.0774 78.0296 98.5852C77.7219 98.0862 77.5681 97.5291 77.5681 96.9138C77.5681 96.3191 77.6843 95.7961 77.9168 95.345C78.1492 94.887 78.4841 94.5076 78.9216 94.2068C79.3591 93.8992 79.8855 93.6667 80.5007 93.5095C81.116 93.3523 81.803 93.2737 82.5618 93.2737H84.7664ZM92.0101 88.9055V100H90.1029V88.9055H92.0101ZM89.9594 85.9626C89.9594 85.655 90.0516 85.3953 90.2362 85.1833C90.4276 84.9714 90.7079 84.8655 91.077 84.8655C91.4393 84.8655 91.7162 84.9714 91.9076 85.1833C92.1058 85.3953 92.205 85.655 92.205 85.9626C92.205 86.2566 92.1058 86.5095 91.9076 86.7214C91.7162 86.9265 91.4393 87.0291 91.077 87.0291C90.7079 87.0291 90.4276 86.9265 90.2362 86.7214C90.0516 86.5095 89.9594 86.2566 89.9594 85.9626ZM102.146 97.0574C102.146 96.7839 102.084 96.531 101.961 96.2986C101.845 96.0593 101.602 95.844 101.233 95.6526C100.871 95.4543 100.324 95.2834 99.5923 95.1399C98.9771 95.01 98.4199 94.8562 97.9209 94.6785C97.4287 94.5007 97.0083 94.2854 96.6597 94.0325C96.3179 93.7795 96.0547 93.4822 95.8701 93.1404C95.6855 92.7986 95.5933 92.3987 95.5933 91.9407C95.5933 91.5032 95.689 91.0896 95.8804 90.7C96.0786 90.3103 96.3555 89.9651 96.7109 89.6643C97.0732 89.3635 97.5073 89.1277 98.0132 88.9568C98.519 88.7859 99.083 88.7004 99.7051 88.7004C100.594 88.7004 101.353 88.8577 101.981 89.1721C102.61 89.4866 103.092 89.907 103.427 90.4333C103.762 90.9529 103.93 91.5305 103.93 92.1663H102.033C102.033 91.8586 101.94 91.5613 101.756 91.2742C101.578 90.9802 101.315 90.7375 100.966 90.5461C100.625 90.3547 100.204 90.259 99.7051 90.259C99.1787 90.259 98.7515 90.3411 98.4233 90.5051C98.1021 90.6624 97.8662 90.864 97.7158 91.1101C97.5723 91.3562 97.5005 91.616 97.5005 91.8894C97.5005 92.0945 97.5347 92.2791 97.603 92.4431C97.6782 92.6003 97.8081 92.7473 97.9927 92.884C98.1772 93.0139 98.437 93.137 98.772 93.2532C99.1069 93.3694 99.5342 93.4856 100.054 93.6018C100.963 93.8069 101.711 94.053 102.299 94.3401C102.887 94.6272 103.325 94.9792 103.612 95.3962C103.899 95.8132 104.042 96.3191 104.042 96.9138C104.042 97.3992 103.94 97.8435 103.735 98.2468C103.537 98.6501 103.246 98.9988 102.863 99.2927C102.487 99.5798 102.036 99.8054 101.51 99.9695C100.99 100.127 100.406 100.205 99.7563 100.205C98.7788 100.205 97.9517 100.031 97.2749 99.6824C96.5981 99.3337 96.0854 98.8826 95.7368 98.3289C95.3882 97.7751 95.2139 97.1907 95.2139 96.5754H97.1211C97.1484 97.095 97.2988 97.5085 97.5723 97.8162C97.8457 98.1169 98.1807 98.3323 98.5771 98.4622C98.9736 98.5852 99.3667 98.6467 99.7563 98.6467C100.276 98.6467 100.71 98.5784 101.059 98.4417C101.414 98.3049 101.684 98.1169 101.869 97.8777C102.053 97.6384 102.146 97.365 102.146 97.0574ZM111.768 100.205C110.996 100.205 110.295 100.075 109.666 99.8157C109.044 99.5491 108.507 99.1765 108.056 98.698C107.612 98.2195 107.27 97.6521 107.031 96.9958C106.792 96.3396 106.672 95.6218 106.672 94.8425V94.4119C106.672 93.5095 106.805 92.7063 107.072 92.0022C107.339 91.2913 107.701 90.6897 108.159 90.1975C108.617 89.7053 109.136 89.3328 109.717 89.0798C110.298 88.8269 110.9 88.7004 111.522 88.7004C112.315 88.7004 112.999 88.8372 113.573 89.1106C114.154 89.384 114.629 89.7668 114.998 90.259C115.367 90.7444 115.641 91.3186 115.818 91.9817C115.996 92.6379 116.085 93.3557 116.085 94.135V94.9861H107.8V93.4377H114.188V93.2942C114.161 92.802 114.058 92.3235 113.88 91.8586C113.71 91.3938 113.436 91.011 113.06 90.7102C112.684 90.4094 112.172 90.259 111.522 90.259C111.091 90.259 110.695 90.3513 110.333 90.5359C109.97 90.7136 109.659 90.9802 109.4 91.3357C109.14 91.6912 108.938 92.1252 108.795 92.6379C108.651 93.1506 108.579 93.7419 108.579 94.4119V94.8425C108.579 95.3689 108.651 95.8645 108.795 96.3293C108.945 96.7874 109.16 97.1907 109.441 97.5393C109.728 97.8879 110.073 98.1614 110.476 98.3596C110.886 98.5579 111.351 98.657 111.871 98.657C112.541 98.657 113.108 98.5203 113.573 98.2468C114.038 97.9734 114.444 97.6077 114.793 97.1497L115.942 98.0623C115.702 98.4246 115.398 98.7698 115.029 99.0979C114.66 99.426 114.205 99.6926 113.665 99.8977C113.132 100.103 112.5 100.205 111.768 100.205ZM129.373 100.205C128.6 100.205 127.9 100.075 127.271 99.8157C126.649 99.5491 126.112 99.1765 125.661 98.698C125.217 98.2195 124.875 97.6521 124.636 96.9958C124.396 96.3396 124.277 95.6218 124.277 94.8425V94.4119C124.277 93.5095 124.41 92.7063 124.677 92.0022C124.943 91.2913 125.306 90.6897 125.764 90.1975C126.222 89.7053 126.741 89.3328 127.322 89.0798C127.903 88.8269 128.505 88.7004 129.127 88.7004C129.92 88.7004 130.603 88.8372 131.178 89.1106C131.759 89.384 132.234 89.7668 132.603 90.259C132.972 90.7444 133.245 91.3186 133.423 91.9817C133.601 92.6379 133.69 93.3557 133.69 94.135V94.9861H125.405V93.4377H131.793V93.2942C131.765 92.802 131.663 92.3235 131.485 91.8586C131.314 91.3938 131.041 91.011 130.665 90.7102C130.289 90.4094 129.776 90.259 129.127 90.259C128.696 90.259 128.3 90.3513 127.937 90.5359C127.575 90.7136 127.264 90.9802 127.004 91.3357C126.744 91.6912 126.543 92.1252 126.399 92.6379C126.256 93.1506 126.184 93.7419 126.184 94.4119V94.8425C126.184 95.3689 126.256 95.8645 126.399 96.3293C126.55 96.7874 126.765 97.1907 127.045 97.5393C127.332 97.8879 127.678 98.1614 128.081 98.3596C128.491 98.5579 128.956 98.657 129.475 98.657C130.145 98.657 130.713 98.5203 131.178 98.2468C131.642 97.9734 132.049 97.6077 132.398 97.1497L133.546 98.0623C133.307 98.4246 133.003 98.7698 132.634 99.0979C132.265 99.426 131.81 99.6926 131.27 99.8977C130.737 100.103 130.104 100.205 129.373 100.205ZM143.518 104.266V91.0383L143.682 88.9055H145.425V104.266H143.518ZM136.063 94.5759V94.3606C136.063 93.5129 136.162 92.7439 136.36 92.0535C136.559 91.3562 136.849 90.7581 137.232 90.259C137.615 89.76 138.076 89.3772 138.616 89.1106C139.163 88.8372 139.785 88.7004 140.482 88.7004C141.18 88.7004 141.791 88.8235 142.318 89.0696C142.851 89.3088 143.302 89.6609 143.671 90.1257C144.047 90.5837 144.345 91.1375 144.563 91.7869C144.782 92.4363 144.933 93.1711 145.015 93.9915V94.9348C144.939 95.7483 144.792 96.4797 144.574 97.1292C144.355 97.7786 144.058 98.3323 143.682 98.7903C143.312 99.2483 142.858 99.6003 142.318 99.8464C141.785 100.086 141.166 100.205 140.462 100.205C139.778 100.205 139.163 100.065 138.616 99.7849C138.076 99.5046 137.615 99.1116 137.232 98.6057C136.856 98.0999 136.565 97.5051 136.36 96.8215C136.162 96.1311 136.063 95.3826 136.063 94.5759ZM137.97 94.3606V94.5759C137.97 95.1296 138.028 95.6526 138.145 96.1448C138.261 96.6301 138.438 97.0608 138.678 97.4368C138.924 97.8127 139.231 98.1101 139.601 98.3289C139.977 98.5408 140.421 98.6467 140.934 98.6467C141.562 98.6467 142.085 98.51 142.502 98.2366C142.926 97.9631 143.265 97.6042 143.518 97.1599C143.77 96.7087 143.965 96.2268 144.102 95.7141V93.2429C144.027 92.8669 143.907 92.5012 143.743 92.1458C143.586 91.7903 143.381 91.4724 143.128 91.1921C142.875 90.905 142.567 90.6794 142.205 90.5154C141.85 90.3445 141.433 90.259 140.954 90.259C140.435 90.259 139.987 90.3684 139.611 90.5872C139.235 90.8059 138.924 91.1067 138.678 91.4895C138.438 91.8655 138.261 92.2996 138.145 92.7917C138.028 93.2839 137.97 93.8069 137.97 94.3606ZM155.888 97.4368V88.9055H157.796V100H155.981L155.888 97.4368ZM156.247 95.0989L157.037 95.0784C157.037 95.8167 156.958 96.5002 156.801 97.1292C156.65 97.7512 156.404 98.2913 156.063 98.7493C155.721 99.2073 155.273 99.5662 154.719 99.8259C154.166 100.079 153.492 100.205 152.699 100.205C152.159 100.205 151.664 100.127 151.213 99.9695C150.768 99.8123 150.385 99.5696 150.064 99.2415C149.743 98.9133 149.493 98.4861 149.316 97.9597C149.145 97.4333 149.059 96.801 149.059 96.0627V88.9055H150.956V96.0833C150.956 96.5823 151.011 96.9958 151.12 97.324C151.236 97.6453 151.39 97.9016 151.582 98.093C151.78 98.2776 151.999 98.4075 152.238 98.4827C152.484 98.5579 152.737 98.5955 152.997 98.5955C153.803 98.5955 154.442 98.4417 154.914 98.134C155.386 97.8196 155.724 97.3992 155.929 96.8728C156.141 96.3396 156.247 95.7483 156.247 95.0989ZM163.378 88.9055V100H161.471V88.9055H163.378ZM161.327 85.9626C161.327 85.655 161.42 85.3953 161.604 85.1833C161.796 84.9714 162.076 84.8655 162.445 84.8655C162.807 84.8655 163.084 84.9714 163.276 85.1833C163.474 85.3953 163.573 85.655 163.573 85.9626C163.573 86.2566 163.474 86.5095 163.276 86.7214C163.084 86.9265 162.807 87.0291 162.445 87.0291C162.076 87.0291 161.796 86.9265 161.604 86.7214C161.42 86.5095 161.327 86.2566 161.327 85.9626ZM171.699 88.9055V90.3616H165.7V88.9055H171.699ZM167.73 86.2087H169.627V97.2522C169.627 97.6282 169.685 97.9119 169.802 98.1033C169.918 98.2947 170.068 98.4211 170.253 98.4827C170.437 98.5442 170.636 98.575 170.848 98.575C171.005 98.575 171.169 98.5613 171.34 98.5339C171.517 98.4998 171.651 98.4724 171.74 98.4519L171.75 100C171.599 100.048 171.401 100.093 171.155 100.134C170.916 100.181 170.625 100.205 170.284 100.205C169.819 100.205 169.391 100.113 169.002 99.9285C168.612 99.7439 168.301 99.4363 168.069 99.0056C167.843 98.5681 167.73 97.9802 167.73 97.2419V86.2087ZM177.671 98.8518L180.757 88.9055H182.788L178.337 101.713C178.235 101.986 178.098 102.28 177.927 102.594C177.763 102.916 177.551 103.22 177.291 103.507C177.032 103.794 176.717 104.027 176.348 104.204C175.986 104.389 175.552 104.481 175.046 104.481C174.895 104.481 174.704 104.461 174.472 104.42C174.239 104.379 174.075 104.344 173.979 104.317L173.969 102.779C174.024 102.786 174.109 102.793 174.226 102.8C174.349 102.813 174.434 102.82 174.482 102.82C174.913 102.82 175.278 102.762 175.579 102.646C175.88 102.536 176.133 102.348 176.338 102.082C176.55 101.822 176.731 101.463 176.881 101.005L177.671 98.8518ZM175.405 88.9055L178.286 97.5188L178.778 99.5183L177.415 100.216L173.333 88.9055H175.405ZM190.467 94.5759V94.3401C190.467 93.5403 190.583 92.7986 190.815 92.115C191.048 91.4246 191.383 90.8264 191.82 90.3206C192.258 89.8079 192.787 89.4114 193.409 89.1311C194.031 88.844 194.729 88.7004 195.501 88.7004C196.28 88.7004 196.981 88.844 197.603 89.1311C198.232 89.4114 198.765 89.8079 199.203 90.3206C199.647 90.8264 199.986 91.4246 200.218 92.115C200.45 92.7986 200.567 93.5403 200.567 94.3401V94.5759C200.567 95.3757 200.45 96.1174 200.218 96.801C199.986 97.4846 199.647 98.0828 199.203 98.5955C198.765 99.1013 198.236 99.4978 197.613 99.7849C196.998 100.065 196.301 100.205 195.522 100.205C194.742 100.205 194.042 100.065 193.42 99.7849C192.798 99.4978 192.264 99.1013 191.82 98.5955C191.383 98.0828 191.048 97.4846 190.815 96.801C190.583 96.1174 190.467 95.3757 190.467 94.5759ZM192.363 94.3401V94.5759C192.363 95.1296 192.428 95.6526 192.558 96.1448C192.688 96.6301 192.883 97.0608 193.143 97.4368C193.409 97.8127 193.741 98.1101 194.137 98.3289C194.534 98.5408 194.995 98.6467 195.522 98.6467C196.041 98.6467 196.496 98.5408 196.885 98.3289C197.282 98.1101 197.61 97.8127 197.87 97.4368C198.13 97.0608 198.324 96.6301 198.454 96.1448C198.591 95.6526 198.659 95.1296 198.659 94.5759V94.3401C198.659 93.7932 198.591 93.2771 198.454 92.7917C198.324 92.2996 198.126 91.8655 197.86 91.4895C197.6 91.1067 197.272 90.8059 196.875 90.5872C196.486 90.3684 196.028 90.259 195.501 90.259C194.982 90.259 194.524 90.3684 194.127 90.5872C193.738 90.8059 193.409 91.1067 193.143 91.4895C192.883 91.8655 192.688 92.2996 192.558 92.7917C192.428 93.2771 192.363 93.7932 192.363 94.3401ZM205.472 90.6487V100H203.576V88.9055H205.421L205.472 90.6487ZM208.938 88.844L208.928 90.6077C208.771 90.5735 208.62 90.553 208.477 90.5461C208.34 90.5325 208.183 90.5256 208.005 90.5256C207.568 90.5256 207.181 90.594 206.847 90.7307C206.512 90.8674 206.228 91.0588 205.995 91.3049C205.763 91.551 205.578 91.845 205.442 92.1868C205.312 92.5217 205.226 92.8909 205.185 93.2942L204.652 93.6018C204.652 92.9319 204.717 92.303 204.847 91.7151C204.984 91.1272 205.192 90.6077 205.472 90.1565C205.753 89.6985 206.108 89.343 206.539 89.0901C206.976 88.8303 207.496 88.7004 208.097 88.7004C208.234 88.7004 208.391 88.7175 208.569 88.7517C208.747 88.7791 208.87 88.8098 208.938 88.844ZM219.97 98.0315L222.821 88.9055H224.072L223.826 90.7205L220.924 100H219.704L219.97 98.0315ZM218.053 88.9055L220.483 98.134L220.657 100H219.376L216.156 88.9055H218.053ZM226.799 98.0623L229.117 88.9055H231.003L227.784 100H226.512L226.799 98.0623ZM224.349 88.9055L227.138 97.8777L227.456 100H226.246L223.262 90.7L223.016 88.9055H224.349ZM233.079 94.5759V94.3401C233.079 93.5403 233.195 92.7986 233.428 92.115C233.66 91.4246 233.995 90.8264 234.433 90.3206C234.87 89.8079 235.4 89.4114 236.022 89.1311C236.644 88.844 237.341 88.7004 238.114 88.7004C238.893 88.7004 239.594 88.844 240.216 89.1311C240.845 89.4114 241.378 89.8079 241.816 90.3206C242.26 90.8264 242.598 91.4246 242.831 92.115C243.063 92.7986 243.179 93.5403 243.179 94.3401V94.5759C243.179 95.3757 243.063 96.1174 242.831 96.801C242.598 97.4846 242.26 98.0828 241.816 98.5955C241.378 99.1013 240.848 99.4978 240.226 99.7849C239.611 100.065 238.914 100.205 238.134 100.205C237.355 100.205 236.654 100.065 236.032 99.7849C235.41 99.4978 234.877 99.1013 234.433 98.5955C233.995 98.0828 233.66 97.4846 233.428 96.801C233.195 96.1174 233.079 95.3757 233.079 94.5759ZM234.976 94.3401V94.5759C234.976 95.1296 235.041 95.6526 235.171 96.1448C235.301 96.6301 235.496 97.0608 235.756 97.4368C236.022 97.8127 236.354 98.1101 236.75 98.3289C237.147 98.5408 237.608 98.6467 238.134 98.6467C238.654 98.6467 239.109 98.5408 239.498 98.3289C239.895 98.1101 240.223 97.8127 240.483 97.4368C240.742 97.0608 240.937 96.6301 241.067 96.1448C241.204 95.6526 241.272 95.1296 241.272 94.5759V94.3401C241.272 93.7932 241.204 93.2771 241.067 92.7917C240.937 92.2996 240.739 91.8655 240.472 91.4895C240.213 91.1067 239.884 90.8059 239.488 90.5872C239.098 90.3684 238.64 90.259 238.114 90.259C237.594 90.259 237.136 90.3684 236.74 90.5872C236.35 90.8059 236.022 91.1067 235.756 91.4895C235.496 91.8655 235.301 92.2996 235.171 92.7917C235.041 93.2771 234.976 93.7932 234.976 94.3401ZM248.085 90.6487V100H246.188V88.9055H248.034L248.085 90.6487ZM251.551 88.844L251.541 90.6077C251.384 90.5735 251.233 90.553 251.09 90.5461C250.953 90.5325 250.796 90.5256 250.618 90.5256C250.18 90.5256 249.794 90.594 249.459 90.7307C249.124 90.8674 248.841 91.0588 248.608 91.3049C248.376 91.551 248.191 91.845 248.054 92.1868C247.925 92.5217 247.839 92.8909 247.798 93.2942L247.265 93.6018C247.265 92.9319 247.33 92.303 247.46 91.7151C247.596 91.1272 247.805 90.6077 248.085 90.1565C248.366 89.6985 248.721 89.343 249.152 89.0901C249.589 88.8303 250.109 88.7004 250.71 88.7004C250.847 88.7004 251.004 88.7175 251.182 88.7517C251.36 88.7791 251.483 88.8098 251.551 88.844ZM255.842 84.2502V100H253.934V84.2502H255.842ZM262.62 88.9055L257.78 94.0837L255.073 96.8933L254.919 94.8733L256.857 92.5559L260.302 88.9055H262.62ZM260.887 100L256.929 94.7092L257.913 93.0173L263.122 100H260.887ZM267.269 88.9055V100H265.362V88.9055H267.269ZM265.218 85.9626C265.218 85.655 265.311 85.3953 265.495 85.1833C265.687 84.9714 265.967 84.8655 266.336 84.8655C266.698 84.8655 266.975 84.9714 267.167 85.1833C267.365 85.3953 267.464 85.655 267.464 85.9626C267.464 86.2566 267.365 86.5095 267.167 86.7214C266.975 86.9265 266.698 87.0291 266.336 87.0291C265.967 87.0291 265.687 86.9265 265.495 86.7214C265.311 86.5095 265.218 86.2566 265.218 85.9626ZM272.841 91.2742V100H270.944V88.9055H272.739L272.841 91.2742ZM272.39 94.0325L271.601 94.0017C271.608 93.2429 271.72 92.5422 271.939 91.8997C272.158 91.2502 272.465 90.6863 272.862 90.2078C273.258 89.7292 273.73 89.3601 274.277 89.1003C274.831 88.8337 275.443 88.7004 276.112 88.7004C276.659 88.7004 277.152 88.7756 277.589 88.926C278.027 89.0696 278.399 89.302 278.707 89.6233C279.021 89.9446 279.26 90.3616 279.424 90.8743C279.589 91.3801 279.671 91.9988 279.671 92.7302V100H277.763V92.7097C277.763 92.1287 277.678 91.6638 277.507 91.3152C277.336 90.9597 277.087 90.7034 276.758 90.5461C276.43 90.3821 276.027 90.3 275.548 90.3C275.077 90.3 274.646 90.3992 274.257 90.5974C273.874 90.7957 273.542 91.0691 273.262 91.4177C272.988 91.7664 272.773 92.1663 272.616 92.6174C272.465 93.0618 272.39 93.5334 272.39 94.0325ZM290.37 88.9055H292.093V99.7644C292.093 100.742 291.894 101.576 291.498 102.266C291.101 102.957 290.548 103.48 289.837 103.835C289.133 104.198 288.319 104.379 287.396 104.379C287.013 104.379 286.562 104.317 286.043 104.194C285.53 104.078 285.024 103.876 284.525 103.589C284.033 103.309 283.619 102.929 283.284 102.451L284.279 101.323C284.744 101.884 285.229 102.273 285.735 102.492C286.248 102.711 286.754 102.82 287.253 102.82C287.854 102.82 288.374 102.707 288.811 102.482C289.249 102.256 289.587 101.921 289.826 101.477C290.073 101.039 290.196 100.499 290.196 99.8567V91.3459L290.37 88.9055ZM282.731 94.5759V94.3606C282.731 93.5129 282.83 92.7439 283.028 92.0535C283.233 91.3562 283.524 90.7581 283.9 90.259C284.283 89.76 284.744 89.3772 285.284 89.1106C285.824 88.8372 286.432 88.7004 287.109 88.7004C287.806 88.7004 288.415 88.8235 288.934 89.0696C289.461 89.3088 289.905 89.6609 290.267 90.1257C290.637 90.5837 290.927 91.1375 291.139 91.7869C291.351 92.4363 291.498 93.1711 291.58 93.9915V94.9348C291.505 95.7483 291.358 96.4797 291.139 97.1292C290.927 97.7786 290.637 98.3323 290.267 98.7903C289.905 99.2483 289.461 99.6003 288.934 99.8464C288.408 100.086 287.793 100.205 287.089 100.205C286.426 100.205 285.824 100.065 285.284 99.7849C284.751 99.5046 284.293 99.1116 283.91 98.6057C283.527 98.0999 283.233 97.5051 283.028 96.8215C282.83 96.1311 282.731 95.3826 282.731 94.5759ZM284.628 94.3606V94.5759C284.628 95.1296 284.682 95.6492 284.792 96.1345C284.908 96.6199 285.082 97.0471 285.315 97.4163C285.554 97.7854 285.858 98.0759 286.227 98.2878C286.596 98.4929 287.037 98.5955 287.55 98.5955C288.179 98.5955 288.699 98.4622 289.109 98.1956C289.519 97.929 289.844 97.5769 290.083 97.1394C290.329 96.7019 290.52 96.2268 290.657 95.7141V93.2429C290.582 92.8669 290.466 92.5046 290.308 92.156C290.158 91.8005 289.96 91.4861 289.714 91.2126C289.474 90.9324 289.177 90.7102 288.822 90.5461C288.466 90.3821 288.049 90.3 287.571 90.3C287.051 90.3 286.603 90.4094 286.227 90.6282C285.858 90.8401 285.554 91.134 285.315 91.51C285.082 91.8792 284.908 92.3098 284.792 92.802C284.682 93.2874 284.628 93.8069 284.628 94.3606ZM305.883 98.6467C306.334 98.6467 306.751 98.5544 307.134 98.3699C307.517 98.1853 307.831 97.9324 308.077 97.6111C308.323 97.283 308.463 96.9104 308.498 96.4934H310.302C310.268 97.1497 310.046 97.7615 309.636 98.3289C309.232 98.8894 308.703 99.344 308.046 99.6926C307.39 100.034 306.669 100.205 305.883 100.205C305.049 100.205 304.321 100.058 303.699 99.7644C303.083 99.4705 302.571 99.0671 302.161 98.5544C301.757 98.0417 301.453 97.4539 301.248 96.7908C301.05 96.1208 300.951 95.4133 300.951 94.6682V94.2375C300.951 93.4924 301.05 92.7883 301.248 92.1252C301.453 91.4553 301.757 90.864 302.161 90.3513C302.571 89.8386 303.083 89.4353 303.699 89.1414C304.321 88.8474 305.049 88.7004 305.883 88.7004C306.751 88.7004 307.51 88.8782 308.159 89.2336C308.809 89.5823 309.318 90.0608 309.687 90.6692C310.063 91.2708 310.268 91.9543 310.302 92.72H308.498C308.463 92.262 308.333 91.8484 308.108 91.4792C307.889 91.1101 307.588 90.8162 307.206 90.5974C306.83 90.3718 306.389 90.259 305.883 90.259C305.302 90.259 304.813 90.3752 304.417 90.6077C304.027 90.8333 303.716 91.1409 303.483 91.5305C303.258 91.9133 303.094 92.3406 302.991 92.8123C302.896 93.2771 302.848 93.7522 302.848 94.2375V94.6682C302.848 95.1536 302.896 95.6321 302.991 96.1038C303.087 96.5754 303.248 97.0027 303.473 97.3855C303.706 97.7683 304.017 98.0759 304.406 98.3083C304.803 98.5339 305.295 98.6467 305.883 98.6467ZM319.607 98.1033V92.3918C319.607 91.9543 319.518 91.575 319.34 91.2537C319.17 90.9255 318.91 90.6726 318.561 90.4949C318.213 90.3171 317.782 90.2283 317.269 90.2283C316.791 90.2283 316.37 90.3103 316.008 90.4744C315.652 90.6384 315.372 90.8538 315.167 91.1204C314.969 91.387 314.87 91.6741 314.87 91.9817H312.973C312.973 91.5852 313.075 91.1921 313.28 90.8025C313.485 90.4128 313.779 90.0608 314.162 89.7463C314.552 89.425 315.017 89.1721 315.557 88.9875C316.104 88.7961 316.712 88.7004 317.382 88.7004C318.189 88.7004 318.9 88.8372 319.515 89.1106C320.137 89.384 320.622 89.7976 320.971 90.3513C321.326 90.8982 321.504 91.5852 321.504 92.4124V97.5803C321.504 97.9495 321.535 98.3425 321.596 98.7595C321.665 99.1765 321.764 99.5354 321.894 99.8362V100H319.915C319.819 99.7815 319.744 99.491 319.689 99.1287C319.634 98.7595 319.607 98.4177 319.607 98.1033ZM319.935 93.2737L319.956 94.6067H318.038C317.498 94.6067 317.016 94.6511 316.592 94.74C316.169 94.822 315.813 94.9485 315.526 95.1194C315.239 95.2903 315.02 95.5056 314.87 95.7654C314.719 96.0183 314.644 96.3157 314.644 96.6575C314.644 97.0061 314.723 97.324 314.88 97.6111C315.037 97.8982 315.273 98.1272 315.588 98.2981C315.909 98.4622 316.302 98.5442 316.767 98.5442C317.348 98.5442 317.86 98.4211 318.305 98.175C318.749 97.929 319.101 97.6282 319.361 97.2727C319.628 96.9172 319.771 96.572 319.792 96.2371L320.602 97.1497C320.554 97.4368 320.424 97.7546 320.212 98.1033C320 98.4519 319.716 98.7869 319.361 99.1082C319.012 99.4226 318.595 99.6858 318.11 99.8977C317.631 100.103 317.091 100.205 316.49 100.205C315.738 100.205 315.078 100.058 314.511 99.7644C313.95 99.4705 313.513 99.0774 313.198 98.5852C312.891 98.0862 312.737 97.5291 312.737 96.9138C312.737 96.3191 312.853 95.7961 313.086 95.345C313.318 94.887 313.653 94.5076 314.09 94.2068C314.528 93.8992 315.054 93.6667 315.67 93.5095C316.285 93.3523 316.972 93.2737 317.731 93.2737H319.935ZM327.015 91.0383V104.266H325.108V88.9055H326.851L327.015 91.0383ZM334.49 94.3606V94.5759C334.49 95.3826 334.394 96.1311 334.203 96.8215C334.011 97.5051 333.731 98.0999 333.362 98.6057C333 99.1116 332.552 99.5046 332.019 99.7849C331.486 100.065 330.874 100.205 330.183 100.205C329.479 100.205 328.857 100.089 328.317 99.8567C327.777 99.6243 327.319 99.2859 326.943 98.8416C326.567 98.3972 326.266 97.864 326.041 97.2419C325.822 96.6199 325.672 95.9192 325.59 95.1399V93.9915C325.672 93.1711 325.825 92.4363 326.051 91.7869C326.277 91.1375 326.574 90.5837 326.943 90.1257C327.319 89.6609 327.774 89.3088 328.307 89.0696C328.84 88.8235 329.455 88.7004 330.153 88.7004C330.85 88.7004 331.469 88.8372 332.009 89.1106C332.549 89.3772 333.003 89.76 333.372 90.259C333.741 90.7581 334.018 91.3562 334.203 92.0535C334.394 92.7439 334.49 93.5129 334.49 94.3606ZM332.583 94.5759V94.3606C332.583 93.8069 332.525 93.2874 332.408 92.802C332.292 92.3098 332.111 91.8792 331.865 91.51C331.626 91.134 331.318 90.8401 330.942 90.6282C330.566 90.4094 330.118 90.3 329.599 90.3C329.12 90.3 328.703 90.3821 328.348 90.5461C327.999 90.7102 327.702 90.9324 327.456 91.2126C327.21 91.4861 327.008 91.8005 326.851 92.156C326.7 92.5046 326.588 92.8669 326.512 93.2429V95.8987C326.649 96.3772 326.841 96.8284 327.087 97.2522C327.333 97.6692 327.661 98.0076 328.071 98.2673C328.481 98.5203 328.997 98.6467 329.619 98.6467C330.132 98.6467 330.573 98.5408 330.942 98.3289C331.318 98.1101 331.626 97.8127 331.865 97.4368C332.111 97.0608 332.292 96.6301 332.408 96.1448C332.525 95.6526 332.583 95.1296 332.583 94.5759ZM339.601 88.9055V100H337.694V88.9055H339.601ZM337.55 85.9626C337.55 85.655 337.642 85.3953 337.827 85.1833C338.018 84.9714 338.299 84.8655 338.668 84.8655C339.03 84.8655 339.307 84.9714 339.498 85.1833C339.697 85.3953 339.796 85.655 339.796 85.9626C339.796 86.2566 339.697 86.5095 339.498 86.7214C339.307 86.9265 339.03 87.0291 338.668 87.0291C338.299 87.0291 338.018 86.9265 337.827 86.7214C337.642 86.5095 337.55 86.2566 337.55 85.9626ZM347.921 88.9055V90.3616H341.923V88.9055H347.921ZM343.953 86.2087H345.85V97.2522C345.85 97.6282 345.908 97.9119 346.024 98.1033C346.141 98.2947 346.291 98.4211 346.476 98.4827C346.66 98.5442 346.858 98.575 347.07 98.575C347.228 98.575 347.392 98.5613 347.562 98.5339C347.74 98.4998 347.874 98.4724 347.962 98.4519L347.973 100C347.822 100.048 347.624 100.093 347.378 100.134C347.139 100.181 346.848 100.205 346.506 100.205C346.042 100.205 345.614 100.113 345.225 99.9285C344.835 99.7439 344.524 99.4363 344.292 99.0056C344.066 98.5681 343.953 97.9802 343.953 97.2419V86.2087ZM357.318 98.1033V92.3918C357.318 91.9543 357.23 91.575 357.052 91.2537C356.881 90.9255 356.621 90.6726 356.273 90.4949C355.924 90.3171 355.493 90.2283 354.981 90.2283C354.502 90.2283 354.082 90.3103 353.719 90.4744C353.364 90.6384 353.084 90.8538 352.879 91.1204C352.68 91.387 352.581 91.6741 352.581 91.9817H350.684C350.684 91.5852 350.787 91.1921 350.992 90.8025C351.197 90.4128 351.491 90.0608 351.874 89.7463C352.263 89.425 352.728 89.1721 353.268 88.9875C353.815 88.7961 354.423 88.7004 355.093 88.7004C355.9 88.7004 356.611 88.8372 357.226 89.1106C357.848 89.384 358.334 89.7976 358.682 90.3513C359.038 90.8982 359.215 91.5852 359.215 92.4124V97.5803C359.215 97.9495 359.246 98.3425 359.308 98.7595C359.376 99.1765 359.475 99.5354 359.605 99.8362V100H357.626C357.53 99.7815 357.455 99.491 357.401 99.1287C357.346 98.7595 357.318 98.4177 357.318 98.1033ZM357.647 93.2737L357.667 94.6067H355.75C355.21 94.6067 354.728 94.6511 354.304 94.74C353.88 94.822 353.525 94.9485 353.237 95.1194C352.95 95.2903 352.732 95.5056 352.581 95.7654C352.431 96.0183 352.356 96.3157 352.356 96.6575C352.356 97.0061 352.434 97.324 352.591 97.6111C352.749 97.8982 352.984 98.1272 353.299 98.2981C353.62 98.4622 354.013 98.5442 354.478 98.5442C355.059 98.5442 355.572 98.4211 356.016 98.175C356.461 97.929 356.813 97.6282 357.072 97.2727C357.339 96.9172 357.483 96.572 357.503 96.2371L358.313 97.1497C358.265 97.4368 358.135 97.7546 357.923 98.1033C357.712 98.4519 357.428 98.7869 357.072 99.1082C356.724 99.4226 356.307 99.6858 355.821 99.8977C355.343 100.103 354.803 100.205 354.201 100.205C353.449 100.205 352.79 100.058 352.222 99.7644C351.662 99.4705 351.224 99.0774 350.91 98.5852C350.602 98.0862 350.448 97.5291 350.448 96.9138C350.448 96.3191 350.565 95.7961 350.797 95.345C351.029 94.887 351.364 94.5076 351.802 94.2068C352.239 93.8992 352.766 93.6667 353.381 93.5095C353.996 93.3523 354.683 93.2737 355.442 93.2737H357.647ZM364.89 84.2502V100H362.983V84.2502H364.89ZM81.0471 111.906V113.362H75.0485V111.906H81.0471ZM77.0788 109.209H78.9758V120.252C78.9758 120.628 79.0339 120.912 79.1501 121.103C79.2663 121.295 79.4167 121.421 79.6013 121.483C79.7858 121.544 79.9841 121.575 80.196 121.575C80.3532 121.575 80.5173 121.561 80.6882 121.534C80.8659 121.5 80.9992 121.472 81.0881 121.452L81.0983 123C80.948 123.048 80.7497 123.093 80.5036 123.134C80.2644 123.181 79.9738 123.205 79.632 123.205C79.1672 123.205 78.7399 123.113 78.3503 122.928C77.9606 122.744 77.6496 122.436 77.4172 122.006C77.1916 121.568 77.0788 120.98 77.0788 120.242V109.209ZM85.7991 107.25V123H83.9022V107.25H85.7991ZM85.348 117.032L84.5584 117.002C84.5653 116.243 84.6781 115.542 84.8968 114.9C85.1156 114.25 85.4232 113.686 85.8197 113.208C86.2161 112.729 86.6878 112.36 87.2347 112.1C87.7884 111.834 88.4002 111.7 89.0701 111.7C89.617 111.7 90.1092 111.776 90.5467 111.926C90.9842 112.07 91.3568 112.302 91.6644 112.623C91.9788 112.945 92.2181 113.362 92.3822 113.874C92.5462 114.38 92.6282 114.999 92.6282 115.73V123H90.721V115.71C90.721 115.129 90.6356 114.664 90.4647 114.315C90.2938 113.96 90.0443 113.703 89.7161 113.546C89.388 113.382 88.9847 113.3 88.5062 113.3C88.0345 113.3 87.6038 113.399 87.2142 113.597C86.8314 113.796 86.4998 114.069 86.2196 114.418C85.9461 114.766 85.7308 115.166 85.5736 115.617C85.4232 116.062 85.348 116.533 85.348 117.032ZM97.9956 113.649V123H96.0986V111.906H97.9443L97.9956 113.649ZM101.461 111.844L101.451 113.608C101.294 113.573 101.144 113.553 101 113.546C100.863 113.532 100.706 113.526 100.528 113.526C100.091 113.526 99.7045 113.594 99.3696 113.731C99.0346 113.867 98.7509 114.059 98.5185 114.305C98.2861 114.551 98.1015 114.845 97.9648 115.187C97.8349 115.522 97.7495 115.891 97.7084 116.294L97.1752 116.602C97.1752 115.932 97.2402 115.303 97.3701 114.715C97.5068 114.127 97.7153 113.608 97.9956 113.156C98.2758 112.698 98.6313 112.343 99.062 112.09C99.4995 111.83 100.019 111.7 100.621 111.7C100.757 111.7 100.914 111.718 101.092 111.752C101.27 111.779 101.393 111.81 101.461 111.844ZM103.137 117.576V117.34C103.137 116.54 103.253 115.799 103.486 115.115C103.718 114.425 104.053 113.826 104.491 113.321C104.928 112.808 105.458 112.411 106.08 112.131C106.702 111.844 107.399 111.7 108.172 111.7C108.951 111.7 109.652 111.844 110.274 112.131C110.903 112.411 111.436 112.808 111.874 113.321C112.318 113.826 112.656 114.425 112.889 115.115C113.121 115.799 113.237 116.54 113.237 117.34V117.576C113.237 118.376 113.121 119.117 112.889 119.801C112.656 120.485 112.318 121.083 111.874 121.595C111.436 122.101 110.906 122.498 110.284 122.785C109.669 123.065 108.972 123.205 108.192 123.205C107.413 123.205 106.712 123.065 106.09 122.785C105.468 122.498 104.935 122.101 104.491 121.595C104.053 121.083 103.718 120.485 103.486 119.801C103.253 119.117 103.137 118.376 103.137 117.576ZM105.034 117.34V117.576C105.034 118.13 105.099 118.653 105.229 119.145C105.359 119.63 105.554 120.061 105.814 120.437C106.08 120.813 106.412 121.11 106.808 121.329C107.205 121.541 107.666 121.647 108.192 121.647C108.712 121.647 109.167 121.541 109.556 121.329C109.953 121.11 110.281 120.813 110.541 120.437C110.8 120.061 110.995 119.63 111.125 119.145C111.262 118.653 111.33 118.13 111.33 117.576V117.34C111.33 116.793 111.262 116.277 111.125 115.792C110.995 115.3 110.797 114.865 110.53 114.49C110.271 114.107 109.942 113.806 109.546 113.587C109.156 113.368 108.698 113.259 108.172 113.259C107.652 113.259 107.194 113.368 106.798 113.587C106.408 113.806 106.08 114.107 105.814 114.49C105.554 114.865 105.359 115.3 105.229 115.792C105.099 116.277 105.034 116.793 105.034 117.34ZM123.034 120.437V111.906H124.942V123H123.127L123.034 120.437ZM123.393 118.099L124.183 118.078C124.183 118.817 124.104 119.5 123.947 120.129C123.797 120.751 123.55 121.291 123.209 121.749C122.867 122.207 122.419 122.566 121.865 122.826C121.312 123.079 120.638 123.205 119.845 123.205C119.305 123.205 118.81 123.127 118.359 122.969C117.914 122.812 117.531 122.57 117.21 122.241C116.889 121.913 116.639 121.486 116.462 120.96C116.291 120.433 116.205 119.801 116.205 119.063V111.906H118.102V119.083C118.102 119.582 118.157 119.996 118.266 120.324C118.383 120.645 118.536 120.902 118.728 121.093C118.926 121.278 119.145 121.407 119.384 121.483C119.63 121.558 119.883 121.595 120.143 121.595C120.949 121.595 121.589 121.442 122.06 121.134C122.532 120.82 122.87 120.399 123.075 119.873C123.287 119.34 123.393 118.748 123.393 118.099ZM135.651 111.906H137.374V122.764C137.374 123.742 137.176 124.576 136.779 125.266C136.383 125.957 135.829 126.48 135.118 126.835C134.414 127.198 133.6 127.379 132.678 127.379C132.295 127.379 131.844 127.317 131.324 127.194C130.811 127.078 130.305 126.876 129.806 126.589C129.314 126.309 128.901 125.929 128.566 125.451L129.56 124.323C130.025 124.884 130.511 125.273 131.016 125.492C131.529 125.711 132.035 125.82 132.534 125.82C133.136 125.82 133.655 125.707 134.093 125.482C134.53 125.256 134.868 124.921 135.108 124.477C135.354 124.039 135.477 123.499 135.477 122.857V114.346L135.651 111.906ZM128.012 117.576V117.361C128.012 116.513 128.111 115.744 128.309 115.053C128.514 114.356 128.805 113.758 129.181 113.259C129.564 112.76 130.025 112.377 130.565 112.111C131.105 111.837 131.714 111.7 132.39 111.7C133.088 111.7 133.696 111.823 134.216 112.07C134.742 112.309 135.186 112.661 135.549 113.126C135.918 113.584 136.208 114.137 136.42 114.787C136.632 115.436 136.779 116.171 136.861 116.991V117.935C136.786 118.748 136.639 119.48 136.42 120.129C136.208 120.779 135.918 121.332 135.549 121.79C135.186 122.248 134.742 122.6 134.216 122.846C133.689 123.086 133.074 123.205 132.37 123.205C131.707 123.205 131.105 123.065 130.565 122.785C130.032 122.505 129.574 122.112 129.191 121.606C128.808 121.1 128.514 120.505 128.309 119.822C128.111 119.131 128.012 118.383 128.012 117.576ZM129.909 117.361V117.576C129.909 118.13 129.964 118.649 130.073 119.135C130.189 119.62 130.364 120.047 130.596 120.416C130.835 120.785 131.139 121.076 131.509 121.288C131.878 121.493 132.319 121.595 132.831 121.595C133.46 121.595 133.98 121.462 134.39 121.196C134.8 120.929 135.125 120.577 135.364 120.139C135.61 119.702 135.802 119.227 135.938 118.714V116.243C135.863 115.867 135.747 115.505 135.59 115.156C135.439 114.801 135.241 114.486 134.995 114.213C134.756 113.932 134.458 113.71 134.103 113.546C133.747 113.382 133.33 113.3 132.852 113.3C132.332 113.3 131.885 113.409 131.509 113.628C131.139 113.84 130.835 114.134 130.596 114.51C130.364 114.879 130.189 115.31 130.073 115.802C129.964 116.287 129.909 116.807 129.909 117.361ZM142.782 107.25V123H140.885V107.25H142.782ZM142.331 117.032L141.541 117.002C141.548 116.243 141.661 115.542 141.88 114.9C142.099 114.25 142.406 113.686 142.803 113.208C143.199 112.729 143.671 112.36 144.218 112.1C144.771 111.834 145.383 111.7 146.053 111.7C146.6 111.7 147.092 111.776 147.53 111.926C147.967 112.07 148.34 112.302 148.647 112.623C148.962 112.945 149.201 113.362 149.365 113.874C149.529 114.38 149.611 114.999 149.611 115.73V123H147.704V115.71C147.704 115.129 147.619 114.664 147.448 114.315C147.277 113.96 147.027 113.703 146.699 113.546C146.371 113.382 145.968 113.3 145.489 113.3C145.018 113.3 144.587 113.399 144.197 113.597C143.814 113.796 143.483 114.069 143.203 114.418C142.929 114.766 142.714 115.166 142.557 115.617C142.406 116.062 142.331 116.533 142.331 117.032ZM165.463 121.103V115.392C165.463 114.954 165.374 114.575 165.196 114.254C165.025 113.926 164.765 113.673 164.417 113.495C164.068 113.317 163.637 113.228 163.125 113.228C162.646 113.228 162.226 113.31 161.863 113.474C161.508 113.638 161.228 113.854 161.023 114.12C160.824 114.387 160.725 114.674 160.725 114.982H158.828C158.828 114.585 158.931 114.192 159.136 113.802C159.341 113.413 159.635 113.061 160.018 112.746C160.407 112.425 160.872 112.172 161.412 111.988C161.959 111.796 162.568 111.7 163.237 111.7C164.044 111.7 164.755 111.837 165.37 112.111C165.992 112.384 166.478 112.798 166.826 113.351C167.182 113.898 167.36 114.585 167.36 115.412V120.58C167.36 120.949 167.39 121.343 167.452 121.76C167.52 122.177 167.619 122.535 167.749 122.836V123H165.77C165.674 122.781 165.599 122.491 165.545 122.129C165.49 121.76 165.463 121.418 165.463 121.103ZM165.791 116.274L165.811 117.607H163.894C163.354 117.607 162.872 117.651 162.448 117.74C162.024 117.822 161.669 117.948 161.382 118.119C161.094 118.29 160.876 118.506 160.725 118.765C160.575 119.018 160.5 119.316 160.5 119.657C160.5 120.006 160.578 120.324 160.736 120.611C160.893 120.898 161.129 121.127 161.443 121.298C161.764 121.462 162.157 121.544 162.622 121.544C163.203 121.544 163.716 121.421 164.16 121.175C164.605 120.929 164.957 120.628 165.216 120.273C165.483 119.917 165.627 119.572 165.647 119.237L166.457 120.15C166.409 120.437 166.279 120.755 166.068 121.103C165.856 121.452 165.572 121.787 165.216 122.108C164.868 122.423 164.451 122.686 163.965 122.898C163.487 123.103 162.947 123.205 162.345 123.205C161.593 123.205 160.934 123.058 160.366 122.764C159.806 122.47 159.368 122.077 159.054 121.585C158.746 121.086 158.592 120.529 158.592 119.914C158.592 119.319 158.709 118.796 158.941 118.345C159.174 117.887 159.508 117.508 159.946 117.207C160.383 116.899 160.91 116.667 161.525 116.51C162.14 116.352 162.827 116.274 163.586 116.274H165.791ZM181.457 111.906V113.362H175.459V111.906H181.457ZM177.489 109.209H179.386V120.252C179.386 120.628 179.444 120.912 179.56 121.103C179.677 121.295 179.827 121.421 180.012 121.483C180.196 121.544 180.394 121.575 180.606 121.575C180.764 121.575 180.928 121.561 181.099 121.534C181.276 121.5 181.41 121.472 181.498 121.452L181.509 123C181.358 123.048 181.16 123.093 180.914 123.134C180.675 123.181 180.384 123.205 180.042 123.205C179.578 123.205 179.15 123.113 178.761 122.928C178.371 122.744 178.06 122.436 177.828 122.006C177.602 121.568 177.489 120.98 177.489 120.242V109.209ZM186.21 113.649V123H184.313V111.906H186.158L186.21 113.649ZM189.675 111.844L189.665 113.608C189.508 113.573 189.357 113.553 189.214 113.546C189.077 113.532 188.92 113.526 188.742 113.526C188.305 113.526 187.918 113.594 187.584 113.731C187.249 113.867 186.965 114.059 186.732 114.305C186.5 114.551 186.315 114.845 186.179 115.187C186.049 115.522 185.963 115.891 185.922 116.294L185.389 116.602C185.389 115.932 185.454 115.303 185.584 114.715C185.721 114.127 185.929 113.608 186.21 113.156C186.49 112.698 186.845 112.343 187.276 112.09C187.713 111.83 188.233 111.7 188.835 111.7C188.971 111.7 189.128 111.718 189.306 111.752C189.484 111.779 189.607 111.81 189.675 111.844ZM198.847 120.437V111.906H200.754V123H198.939L198.847 120.437ZM199.206 118.099L199.995 118.078C199.995 118.817 199.917 119.5 199.759 120.129C199.609 120.751 199.363 121.291 199.021 121.749C198.679 122.207 198.232 122.566 197.678 122.826C197.124 123.079 196.451 123.205 195.658 123.205C195.118 123.205 194.622 123.127 194.171 122.969C193.727 122.812 193.344 122.57 193.023 122.241C192.701 121.913 192.452 121.486 192.274 120.96C192.103 120.433 192.018 119.801 192.018 119.063V111.906H193.915V119.083C193.915 119.582 193.969 119.996 194.079 120.324C194.195 120.645 194.349 120.902 194.54 121.093C194.738 121.278 194.957 121.407 195.196 121.483C195.443 121.558 195.695 121.595 195.955 121.595C196.762 121.595 197.401 121.442 197.873 121.134C198.344 120.82 198.683 120.399 198.888 119.873C199.1 119.34 199.206 118.748 199.206 118.099ZM210.736 120.057C210.736 119.784 210.674 119.531 210.551 119.299C210.435 119.059 210.192 118.844 209.823 118.653C209.461 118.454 208.914 118.283 208.182 118.14C207.567 118.01 207.01 117.856 206.511 117.678C206.019 117.501 205.598 117.285 205.25 117.032C204.908 116.78 204.645 116.482 204.46 116.14C204.276 115.799 204.183 115.399 204.183 114.941C204.183 114.503 204.279 114.09 204.47 113.7C204.669 113.31 204.946 112.965 205.301 112.664C205.663 112.364 206.097 112.128 206.603 111.957C207.109 111.786 207.673 111.7 208.295 111.7C209.184 111.7 209.943 111.858 210.572 112.172C211.2 112.487 211.682 112.907 212.017 113.433C212.352 113.953 212.52 114.531 212.52 115.166H210.623C210.623 114.859 210.531 114.561 210.346 114.274C210.168 113.98 209.905 113.738 209.556 113.546C209.215 113.355 208.794 113.259 208.295 113.259C207.769 113.259 207.342 113.341 207.013 113.505C206.692 113.662 206.456 113.864 206.306 114.11C206.162 114.356 206.091 114.616 206.091 114.889C206.091 115.094 206.125 115.279 206.193 115.443C206.268 115.6 206.398 115.747 206.583 115.884C206.767 116.014 207.027 116.137 207.362 116.253C207.697 116.369 208.124 116.486 208.644 116.602C209.553 116.807 210.302 117.053 210.889 117.34C211.477 117.627 211.915 117.979 212.202 118.396C212.489 118.813 212.633 119.319 212.633 119.914C212.633 120.399 212.53 120.844 212.325 121.247C212.127 121.65 211.836 121.999 211.453 122.293C211.077 122.58 210.626 122.805 210.1 122.969C209.58 123.127 208.996 123.205 208.346 123.205C207.369 123.205 206.542 123.031 205.865 122.682C205.188 122.334 204.676 121.883 204.327 121.329C203.978 120.775 203.804 120.191 203.804 119.575H205.711C205.739 120.095 205.889 120.509 206.162 120.816C206.436 121.117 206.771 121.332 207.167 121.462C207.564 121.585 207.957 121.647 208.346 121.647C208.866 121.647 209.3 121.578 209.649 121.442C210.004 121.305 210.274 121.117 210.459 120.878C210.643 120.638 210.736 120.365 210.736 120.057ZM220.399 111.906V113.362H214.401V111.906H220.399ZM216.431 109.209H218.328V120.252C218.328 120.628 218.386 120.912 218.502 121.103C218.619 121.295 218.769 121.421 218.954 121.483C219.138 121.544 219.336 121.575 219.548 121.575C219.705 121.575 219.87 121.561 220.04 121.534C220.218 121.5 220.351 121.472 220.44 121.452L220.451 123C220.3 123.048 220.102 123.093 219.856 123.134C219.617 123.181 219.326 123.205 218.984 123.205C218.519 123.205 218.092 123.113 217.703 122.928C217.313 122.744 217.002 122.436 216.769 122.006C216.544 121.568 216.431 120.98 216.431 120.242V109.209ZM227.858 123.205C227.086 123.205 226.385 123.075 225.756 122.816C225.134 122.549 224.598 122.177 224.146 121.698C223.702 121.219 223.36 120.652 223.121 119.996C222.882 119.34 222.762 118.622 222.762 117.843V117.412C222.762 116.51 222.896 115.706 223.162 115.002C223.429 114.291 223.791 113.69 224.249 113.198C224.707 112.705 225.227 112.333 225.808 112.08C226.389 111.827 226.99 111.7 227.612 111.7C228.405 111.7 229.089 111.837 229.663 112.111C230.244 112.384 230.719 112.767 231.088 113.259C231.458 113.744 231.731 114.319 231.909 114.982C232.086 115.638 232.175 116.356 232.175 117.135V117.986H223.89V116.438H230.278V116.294C230.251 115.802 230.148 115.323 229.971 114.859C229.8 114.394 229.526 114.011 229.15 113.71C228.774 113.409 228.262 113.259 227.612 113.259C227.182 113.259 226.785 113.351 226.423 113.536C226.061 113.714 225.75 113.98 225.49 114.336C225.23 114.691 225.028 115.125 224.885 115.638C224.741 116.151 224.669 116.742 224.669 117.412V117.843C224.669 118.369 224.741 118.865 224.885 119.329C225.035 119.787 225.25 120.191 225.531 120.539C225.818 120.888 226.163 121.161 226.566 121.36C226.977 121.558 227.441 121.657 227.961 121.657C228.631 121.657 229.198 121.52 229.663 121.247C230.128 120.973 230.535 120.608 230.883 120.15L232.032 121.062C231.792 121.425 231.488 121.77 231.119 122.098C230.75 122.426 230.295 122.693 229.755 122.898C229.222 123.103 228.59 123.205 227.858 123.205ZM242.013 120.847V107.25H243.921V123H242.177L242.013 120.847ZM234.548 117.576V117.361C234.548 116.513 234.651 115.744 234.856 115.053C235.068 114.356 235.365 113.758 235.748 113.259C236.138 112.76 236.599 112.377 237.132 112.111C237.672 111.837 238.274 111.7 238.937 111.7C239.634 111.7 240.243 111.823 240.762 112.07C241.289 112.309 241.733 112.661 242.095 113.126C242.464 113.584 242.755 114.137 242.967 114.787C243.179 115.436 243.326 116.171 243.408 116.991V117.935C243.333 118.748 243.186 119.48 242.967 120.129C242.755 120.779 242.464 121.332 242.095 121.79C241.733 122.248 241.289 122.6 240.762 122.846C240.236 123.086 239.621 123.205 238.917 123.205C238.267 123.205 237.672 123.065 237.132 122.785C236.599 122.505 236.138 122.112 235.748 121.606C235.365 121.1 235.068 120.505 234.856 119.822C234.651 119.131 234.548 118.383 234.548 117.576ZM236.456 117.361V117.576C236.456 118.13 236.51 118.649 236.62 119.135C236.736 119.62 236.914 120.047 237.153 120.416C237.392 120.785 237.696 121.076 238.066 121.288C238.435 121.493 238.876 121.595 239.388 121.595C240.017 121.595 240.533 121.462 240.937 121.196C241.347 120.929 241.675 120.577 241.921 120.139C242.167 119.702 242.359 119.227 242.495 118.714V116.243C242.413 115.867 242.294 115.505 242.136 115.156C241.986 114.801 241.788 114.486 241.542 114.213C241.302 113.932 241.005 113.71 240.65 113.546C240.301 113.382 239.887 113.3 239.409 113.3C238.889 113.3 238.442 113.409 238.066 113.628C237.696 113.84 237.392 114.134 237.153 114.51C236.914 114.879 236.736 115.31 236.62 115.802C236.51 116.287 236.456 116.807 236.456 117.361ZM249.226 120.744V122.272C249.226 122.894 249.069 123.551 248.755 124.241C248.44 124.938 247.999 125.519 247.432 125.984L246.355 125.236C246.574 124.935 246.759 124.627 246.909 124.313C247.059 124.005 247.172 123.684 247.247 123.349C247.329 123.021 247.37 122.672 247.37 122.303V120.744H249.226ZM260.176 111.906V123H258.269V111.906H260.176ZM258.125 108.963C258.125 108.655 258.218 108.395 258.402 108.183C258.594 107.971 258.874 107.865 259.243 107.865C259.605 107.865 259.882 107.971 260.074 108.183C260.272 108.395 260.371 108.655 260.371 108.963C260.371 109.257 260.272 109.51 260.074 109.721C259.882 109.927 259.605 110.029 259.243 110.029C258.874 110.029 258.594 109.927 258.402 109.721C258.218 109.51 258.125 109.257 258.125 108.963ZM265.749 114.274V123H263.852V111.906H265.646L265.749 114.274ZM265.297 117.032L264.508 117.002C264.515 116.243 264.628 115.542 264.846 114.9C265.065 114.25 265.373 113.686 265.769 113.208C266.166 112.729 266.637 112.36 267.184 112.1C267.738 111.834 268.35 111.7 269.02 111.7C269.567 111.7 270.059 111.776 270.496 111.926C270.934 112.07 271.306 112.302 271.614 112.623C271.928 112.945 272.168 113.362 272.332 113.874C272.496 114.38 272.578 114.999 272.578 115.73V123H270.671V115.71C270.671 115.129 270.585 114.664 270.414 114.315C270.243 113.96 269.994 113.703 269.666 113.546C269.338 113.382 268.934 113.3 268.456 113.3C267.984 113.3 267.553 113.399 267.164 113.597C266.781 113.796 266.449 114.069 266.169 114.418C265.896 114.766 265.68 115.166 265.523 115.617C265.373 116.062 265.297 116.533 265.297 117.032ZM280.734 111.906V113.362H274.736V111.906H280.734ZM276.766 109.209H278.663V120.252C278.663 120.628 278.721 120.912 278.837 121.103C278.953 121.295 279.104 121.421 279.288 121.483C279.473 121.544 279.671 121.575 279.883 121.575C280.04 121.575 280.204 121.561 280.375 121.534C280.553 121.5 280.686 121.472 280.775 121.452L280.785 123C280.635 123.048 280.437 123.093 280.191 123.134C279.951 123.181 279.661 123.205 279.319 123.205C278.854 123.205 278.427 123.113 278.037 122.928C277.648 122.744 277.337 122.436 277.104 122.006C276.879 121.568 276.766 120.98 276.766 120.242V109.209ZM288.193 123.205C287.421 123.205 286.72 123.075 286.091 122.816C285.469 122.549 284.932 122.177 284.481 121.698C284.037 121.219 283.695 120.652 283.456 119.996C283.217 119.34 283.097 118.622 283.097 117.843V117.412C283.097 116.51 283.23 115.706 283.497 115.002C283.764 114.291 284.126 113.69 284.584 113.198C285.042 112.705 285.561 112.333 286.142 112.08C286.723 111.827 287.325 111.7 287.947 111.7C288.74 111.7 289.424 111.837 289.998 112.111C290.579 112.384 291.054 112.767 291.423 113.259C291.792 113.744 292.066 114.319 292.243 114.982C292.421 115.638 292.51 116.356 292.51 117.135V117.986H284.225V116.438H290.613V116.294C290.586 115.802 290.483 115.323 290.306 114.859C290.135 114.394 289.861 114.011 289.485 113.71C289.109 113.409 288.597 113.259 287.947 113.259C287.516 113.259 287.12 113.351 286.758 113.536C286.395 113.714 286.084 113.98 285.825 114.336C285.565 114.691 285.363 115.125 285.22 115.638C285.076 116.151 285.004 116.742 285.004 117.412V117.843C285.004 118.369 285.076 118.865 285.22 119.329C285.37 119.787 285.585 120.191 285.866 120.539C286.153 120.888 286.498 121.161 286.901 121.36C287.311 121.558 287.776 121.657 288.296 121.657C288.966 121.657 289.533 121.52 289.998 121.247C290.463 120.973 290.869 120.608 291.218 120.15L292.367 121.062C292.127 121.425 291.823 121.77 291.454 122.098C291.085 122.426 290.63 122.693 290.09 122.898C289.557 123.103 288.925 123.205 288.193 123.205ZM297.416 107.25V123H295.509V107.25H297.416ZM303.152 107.25V123H301.245V107.25H303.152ZM308.889 111.906V123H306.982V111.906H308.889ZM306.838 108.963C306.838 108.655 306.93 108.395 307.115 108.183C307.306 107.971 307.587 107.865 307.956 107.865C308.318 107.865 308.595 107.971 308.786 108.183C308.985 108.395 309.084 108.655 309.084 108.963C309.084 109.257 308.985 109.51 308.786 109.721C308.595 109.927 308.318 110.029 307.956 110.029C307.587 110.029 307.306 109.927 307.115 109.721C306.93 109.51 306.838 109.257 306.838 108.963ZM319.752 111.906H321.475V122.764C321.475 123.742 321.277 124.576 320.88 125.266C320.484 125.957 319.93 126.48 319.219 126.835C318.515 127.198 317.701 127.379 316.779 127.379C316.396 127.379 315.945 127.317 315.425 127.194C314.912 127.078 314.407 126.876 313.908 126.589C313.415 126.309 313.002 125.929 312.667 125.451L313.661 124.323C314.126 124.884 314.612 125.273 315.117 125.492C315.63 125.711 316.136 125.82 316.635 125.82C317.237 125.82 317.756 125.707 318.194 125.482C318.631 125.256 318.97 124.921 319.209 124.477C319.455 124.039 319.578 123.499 319.578 122.857V114.346L319.752 111.906ZM312.113 117.576V117.361C312.113 116.513 312.212 115.744 312.41 115.053C312.616 114.356 312.906 113.758 313.282 113.259C313.665 112.76 314.126 112.377 314.666 112.111C315.206 111.837 315.815 111.7 316.492 111.7C317.189 111.7 317.797 111.823 318.317 112.07C318.843 112.309 319.287 112.661 319.65 113.126C320.019 113.584 320.309 114.137 320.521 114.787C320.733 115.436 320.88 116.171 320.962 116.991V117.935C320.887 118.748 320.74 119.48 320.521 120.129C320.309 120.779 320.019 121.332 319.65 121.79C319.287 122.248 318.843 122.6 318.317 122.846C317.79 123.086 317.175 123.205 316.471 123.205C315.808 123.205 315.206 123.065 314.666 122.785C314.133 122.505 313.675 122.112 313.292 121.606C312.909 121.1 312.616 120.505 312.41 119.822C312.212 119.131 312.113 118.383 312.113 117.576ZM314.01 117.361V117.576C314.01 118.13 314.065 118.649 314.174 119.135C314.29 119.62 314.465 120.047 314.697 120.416C314.936 120.785 315.241 121.076 315.61 121.288C315.979 121.493 316.42 121.595 316.932 121.595C317.561 121.595 318.081 121.462 318.491 121.196C318.901 120.929 319.226 120.577 319.465 120.139C319.711 119.702 319.903 119.227 320.039 118.714V116.243C319.964 115.867 319.848 115.505 319.691 115.156C319.54 114.801 319.342 114.486 319.096 114.213C318.857 113.932 318.559 113.71 318.204 113.546C317.848 113.382 317.431 113.3 316.953 113.3C316.433 113.3 315.986 113.409 315.61 113.628C315.241 113.84 314.936 114.134 314.697 114.51C314.465 114.879 314.29 115.31 314.174 115.802C314.065 116.287 314.01 116.807 314.01 117.361ZM329.59 123.205C328.818 123.205 328.117 123.075 327.488 122.816C326.866 122.549 326.33 122.177 325.878 121.698C325.434 121.219 325.092 120.652 324.853 119.996C324.614 119.34 324.494 118.622 324.494 117.843V117.412C324.494 116.51 324.627 115.706 324.894 115.002C325.161 114.291 325.523 113.69 325.981 113.198C326.439 112.705 326.958 112.333 327.539 112.08C328.121 111.827 328.722 111.7 329.344 111.7C330.137 111.7 330.821 111.837 331.395 112.111C331.976 112.384 332.451 112.767 332.82 113.259C333.189 113.744 333.463 114.319 333.641 114.982C333.818 115.638 333.907 116.356 333.907 117.135V117.986H325.622V116.438H332.01V116.294C331.983 115.802 331.88 115.323 331.703 114.859C331.532 114.394 331.258 114.011 330.882 113.71C330.506 113.409 329.994 113.259 329.344 113.259C328.914 113.259 328.517 113.351 328.155 113.536C327.792 113.714 327.481 113.98 327.222 114.336C326.962 114.691 326.76 115.125 326.617 115.638C326.473 116.151 326.401 116.742 326.401 117.412V117.843C326.401 118.369 326.473 118.865 326.617 119.329C326.767 119.787 326.982 120.191 327.263 120.539C327.55 120.888 327.895 121.161 328.298 121.36C328.708 121.558 329.173 121.657 329.693 121.657C330.363 121.657 330.93 121.52 331.395 121.247C331.86 120.973 332.267 120.608 332.615 120.15L333.764 121.062C333.524 121.425 333.22 121.77 332.851 122.098C332.482 122.426 332.027 122.693 331.487 122.898C330.954 123.103 330.322 123.205 329.59 123.205ZM338.649 114.274V123H336.752V111.906H338.546L338.649 114.274ZM338.198 117.032L337.408 117.002C337.415 116.243 337.528 115.542 337.747 114.9C337.965 114.25 338.273 113.686 338.669 113.208C339.066 112.729 339.538 112.36 340.085 112.1C340.638 111.834 341.25 111.7 341.92 111.7C342.467 111.7 342.959 111.776 343.397 111.926C343.834 112.07 344.207 112.302 344.514 112.623C344.829 112.945 345.068 113.362 345.232 113.874C345.396 114.38 345.478 114.999 345.478 115.73V123H343.571V115.71C343.571 115.129 343.485 114.664 343.315 114.315C343.144 113.96 342.894 113.703 342.566 113.546C342.238 113.382 341.835 113.3 341.356 113.3C340.884 113.3 340.454 113.399 340.064 113.597C339.681 113.796 339.35 114.069 339.069 114.418C338.796 114.766 338.581 115.166 338.423 115.617C338.273 116.062 338.198 116.533 338.198 117.032ZM353.634 111.906V113.362H347.636V111.906H353.634ZM349.666 109.209H351.563V120.252C351.563 120.628 351.621 120.912 351.737 121.103C351.854 121.295 352.004 121.421 352.189 121.483C352.373 121.544 352.571 121.575 352.783 121.575C352.941 121.575 353.105 121.561 353.276 121.534C353.453 121.5 353.587 121.472 353.675 121.452L353.686 123C353.535 123.048 353.337 123.093 353.091 123.134C352.852 123.181 352.561 123.205 352.219 123.205C351.755 123.205 351.327 123.113 350.938 122.928C350.548 122.744 350.237 122.436 350.005 122.006C349.779 121.568 349.666 120.98 349.666 120.242V109.209ZM139.264 146H137.367V133.737C137.367 132.937 137.51 132.263 137.798 131.717C138.091 131.163 138.512 130.746 139.059 130.466C139.606 130.178 140.255 130.035 141.007 130.035C141.226 130.035 141.444 130.049 141.663 130.076C141.889 130.103 142.108 130.144 142.319 130.199L142.217 131.747C142.073 131.713 141.909 131.689 141.725 131.676C141.547 131.662 141.369 131.655 141.192 131.655C140.788 131.655 140.44 131.737 140.146 131.901C139.859 132.058 139.64 132.291 139.489 132.598C139.339 132.906 139.264 133.285 139.264 133.737V146ZM141.622 134.906V136.362H135.613V134.906H141.622ZM151.153 143.437V134.906H153.06V146H151.245L151.153 143.437ZM151.511 141.099L152.301 141.078C152.301 141.817 152.222 142.5 152.065 143.129C151.915 143.751 151.669 144.291 151.327 144.749C150.985 145.207 150.537 145.566 149.984 145.826C149.43 146.079 148.757 146.205 147.964 146.205C147.424 146.205 146.928 146.127 146.477 145.969C146.032 145.812 145.65 145.57 145.328 145.241C145.007 144.913 144.758 144.486 144.58 143.96C144.409 143.433 144.324 142.801 144.324 142.063V134.906H146.22V142.083C146.22 142.582 146.275 142.996 146.385 143.324C146.501 143.645 146.655 143.902 146.846 144.093C147.044 144.278 147.263 144.407 147.502 144.483C147.748 144.558 148.001 144.595 148.261 144.595C149.068 144.595 149.707 144.442 150.178 144.134C150.65 143.82 150.989 143.399 151.194 142.873C151.406 142.34 151.511 141.748 151.511 141.099ZM158.478 137.274V146H156.581V134.906H158.376L158.478 137.274ZM158.027 140.032L157.238 140.002C157.245 139.243 157.357 138.542 157.576 137.9C157.795 137.25 158.102 136.686 158.499 136.208C158.895 135.729 159.367 135.36 159.914 135.1C160.468 134.834 161.079 134.7 161.749 134.7C162.296 134.7 162.788 134.776 163.226 134.926C163.663 135.07 164.036 135.302 164.344 135.623C164.658 135.945 164.897 136.362 165.061 136.874C165.225 137.38 165.308 137.999 165.308 138.73V146H163.4V138.71C163.4 138.129 163.315 137.664 163.144 137.315C162.973 136.96 162.724 136.703 162.395 136.546C162.067 136.382 161.664 136.3 161.185 136.3C160.714 136.3 160.283 136.399 159.893 136.597C159.511 136.796 159.179 137.069 158.899 137.418C158.625 137.766 158.41 138.166 158.253 138.617C158.102 139.062 158.027 139.533 158.027 140.032ZM175.812 143.847V130.25H177.719V146H175.976L175.812 143.847ZM168.347 140.576V140.361C168.347 139.513 168.45 138.744 168.655 138.053C168.867 137.356 169.164 136.758 169.547 136.259C169.937 135.76 170.398 135.377 170.931 135.111C171.471 134.837 172.073 134.7 172.736 134.7C173.433 134.7 174.042 134.823 174.561 135.07C175.087 135.309 175.532 135.661 175.894 136.126C176.263 136.584 176.554 137.137 176.766 137.787C176.978 138.436 177.125 139.171 177.207 139.991V140.935C177.131 141.748 176.984 142.48 176.766 143.129C176.554 143.779 176.263 144.332 175.894 144.79C175.532 145.248 175.087 145.6 174.561 145.846C174.035 146.086 173.419 146.205 172.715 146.205C172.066 146.205 171.471 146.065 170.931 145.785C170.398 145.505 169.937 145.112 169.547 144.606C169.164 144.1 168.867 143.505 168.655 142.822C168.45 142.131 168.347 141.383 168.347 140.576ZM170.254 140.361V140.576C170.254 141.13 170.309 141.649 170.418 142.135C170.535 142.62 170.712 143.047 170.952 143.416C171.191 143.785 171.495 144.076 171.864 144.288C172.233 144.493 172.674 144.595 173.187 144.595C173.816 144.595 174.332 144.462 174.735 144.196C175.146 143.929 175.474 143.577 175.72 143.139C175.966 142.702 176.157 142.227 176.294 141.714V139.243C176.212 138.867 176.092 138.505 175.935 138.156C175.785 137.801 175.586 137.486 175.34 137.213C175.101 136.932 174.804 136.71 174.448 136.546C174.1 136.382 173.686 136.3 173.208 136.3C172.688 136.3 172.24 136.409 171.864 136.628C171.495 136.84 171.191 137.134 170.952 137.51C170.712 137.879 170.535 138.31 170.418 138.802C170.309 139.287 170.254 139.807 170.254 140.361ZM183.363 134.906V146H181.456V134.906H183.363ZM181.313 131.963C181.313 131.655 181.405 131.395 181.589 131.183C181.781 130.971 182.061 130.865 182.43 130.865C182.793 130.865 183.069 130.971 183.261 131.183C183.459 131.395 183.558 131.655 183.558 131.963C183.558 132.257 183.459 132.51 183.261 132.721C183.069 132.927 182.793 133.029 182.43 133.029C182.061 133.029 181.781 132.927 181.589 132.721C181.405 132.51 181.313 132.257 181.313 131.963ZM188.936 137.274V146H187.039V134.906H188.833L188.936 137.274ZM188.485 140.032L187.695 140.002C187.702 139.243 187.815 138.542 188.033 137.9C188.252 137.25 188.56 136.686 188.956 136.208C189.353 135.729 189.824 135.36 190.371 135.1C190.925 134.834 191.537 134.7 192.207 134.7C192.754 134.7 193.246 134.776 193.683 134.926C194.121 135.07 194.493 135.302 194.801 135.623C195.115 135.945 195.355 136.362 195.519 136.874C195.683 137.38 195.765 137.999 195.765 138.73V146H193.858V138.71C193.858 138.129 193.772 137.664 193.601 137.315C193.43 136.96 193.181 136.703 192.853 136.546C192.525 136.382 192.121 136.3 191.643 136.3C191.171 136.3 190.74 136.399 190.351 136.597C189.968 136.796 189.636 137.069 189.356 137.418C189.083 137.766 188.867 138.166 188.71 138.617C188.56 139.062 188.485 139.533 188.485 140.032ZM206.464 134.906H208.187V145.764C208.187 146.742 207.989 147.576 207.592 148.266C207.196 148.957 206.642 149.48 205.931 149.835C205.227 150.198 204.413 150.379 203.491 150.379C203.108 150.379 202.657 150.317 202.137 150.194C201.624 150.078 201.119 149.876 200.62 149.589C200.127 149.309 199.714 148.929 199.379 148.451L200.373 147.323C200.838 147.884 201.324 148.273 201.829 148.492C202.342 148.711 202.848 148.82 203.347 148.82C203.949 148.82 204.468 148.707 204.906 148.482C205.343 148.256 205.682 147.921 205.921 147.477C206.167 147.039 206.29 146.499 206.29 145.857V137.346L206.464 134.906ZM198.825 140.576V140.361C198.825 139.513 198.924 138.744 199.122 138.053C199.328 137.356 199.618 136.758 199.994 136.259C200.377 135.76 200.838 135.377 201.378 135.111C201.918 134.837 202.527 134.7 203.203 134.7C203.901 134.7 204.509 134.823 205.029 135.07C205.555 135.309 205.999 135.661 206.362 136.126C206.731 136.584 207.021 137.137 207.233 137.787C207.445 138.436 207.592 139.171 207.674 139.991V140.935C207.599 141.748 207.452 142.48 207.233 143.129C207.021 143.779 206.731 144.332 206.362 144.79C205.999 145.248 205.555 145.6 205.029 145.846C204.502 146.086 203.887 146.205 203.183 146.205C202.52 146.205 201.918 146.065 201.378 145.785C200.845 145.505 200.387 145.112 200.004 144.606C199.621 144.1 199.328 143.505 199.122 142.822C198.924 142.131 198.825 141.383 198.825 140.576ZM200.722 140.361V140.576C200.722 141.13 200.777 141.649 200.886 142.135C201.002 142.62 201.177 143.047 201.409 143.416C201.648 143.785 201.953 144.076 202.322 144.288C202.691 144.493 203.132 144.595 203.644 144.595C204.273 144.595 204.793 144.462 205.203 144.196C205.613 143.929 205.938 143.577 206.177 143.139C206.423 142.702 206.615 142.227 206.751 141.714V139.243C206.676 138.867 206.56 138.505 206.403 138.156C206.252 137.801 206.054 137.486 205.808 137.213C205.569 136.932 205.271 136.71 204.916 136.546C204.56 136.382 204.143 136.3 203.665 136.3C203.145 136.3 202.698 136.409 202.322 136.628C201.953 136.84 201.648 137.134 201.409 137.51C201.177 137.879 201.002 138.31 200.886 138.802C200.777 139.287 200.722 139.807 200.722 140.361ZM219.434 137.274V146H217.537V134.906H219.332L219.434 137.274ZM218.983 140.032L218.193 140.002C218.2 139.243 218.313 138.542 218.532 137.9C218.751 137.25 219.058 136.686 219.455 136.208C219.851 135.729 220.323 135.36 220.87 135.1C221.423 134.834 222.035 134.7 222.705 134.7C223.252 134.7 223.744 134.776 224.182 134.926C224.619 135.07 224.992 135.302 225.299 135.623C225.614 135.945 225.853 136.362 226.017 136.874C226.181 137.38 226.263 137.999 226.263 138.73V146H224.356V138.71C224.356 138.129 224.271 137.664 224.1 137.315C223.929 136.96 223.679 136.703 223.351 136.546C223.023 136.382 222.62 136.3 222.141 136.3C221.67 136.3 221.239 136.399 220.849 136.597C220.466 136.796 220.135 137.069 219.855 137.418C219.581 137.766 219.366 138.166 219.209 138.617C219.058 139.062 218.983 139.533 218.983 140.032ZM234.379 146.205C233.606 146.205 232.906 146.075 232.277 145.816C231.655 145.549 231.118 145.177 230.667 144.698C230.222 144.219 229.881 143.652 229.641 142.996C229.402 142.34 229.282 141.622 229.282 140.843V140.412C229.282 139.51 229.416 138.706 229.682 138.002C229.949 137.291 230.311 136.69 230.769 136.198C231.227 135.705 231.747 135.333 232.328 135.08C232.909 134.827 233.51 134.7 234.133 134.7C234.926 134.7 235.609 134.837 236.183 135.111C236.764 135.384 237.239 135.767 237.609 136.259C237.978 136.744 238.251 137.319 238.429 137.982C238.607 138.638 238.696 139.356 238.696 140.135V140.986H230.41V139.438H236.799V139.294C236.771 138.802 236.669 138.323 236.491 137.859C236.32 137.394 236.047 137.011 235.671 136.71C235.295 136.409 234.782 136.259 234.133 136.259C233.702 136.259 233.305 136.351 232.943 136.536C232.581 136.714 232.27 136.98 232.01 137.336C231.75 137.691 231.549 138.125 231.405 138.638C231.261 139.151 231.19 139.742 231.19 140.412V140.843C231.19 141.369 231.261 141.865 231.405 142.329C231.555 142.787 231.771 143.191 232.051 143.539C232.338 143.888 232.683 144.161 233.087 144.36C233.497 144.558 233.962 144.657 234.481 144.657C235.151 144.657 235.718 144.52 236.183 144.247C236.648 143.973 237.055 143.608 237.404 143.15L238.552 144.062C238.313 144.425 238.009 144.77 237.639 145.098C237.27 145.426 236.816 145.693 236.276 145.898C235.742 146.103 235.11 146.205 234.379 146.205ZM246.185 134.906V136.362H240.187V134.906H246.185ZM242.217 132.209H244.114V143.252C244.114 143.628 244.172 143.912 244.288 144.103C244.405 144.295 244.555 144.421 244.74 144.483C244.924 144.544 245.122 144.575 245.334 144.575C245.492 144.575 245.656 144.561 245.827 144.534C246.004 144.5 246.138 144.472 246.226 144.452L246.237 146C246.086 146.048 245.888 146.093 245.642 146.134C245.403 146.181 245.112 146.205 244.77 146.205C244.306 146.205 243.878 146.113 243.489 145.928C243.099 145.744 242.788 145.436 242.556 145.006C242.33 144.568 242.217 143.98 242.217 143.242V132.209ZM251.85 144.031L254.701 134.906H255.952L255.706 136.72L252.804 146H251.583L251.85 144.031ZM249.933 134.906L252.363 144.134L252.537 146H251.255L248.036 134.906H249.933ZM258.679 144.062L260.997 134.906H262.883L259.664 146H258.392L258.679 144.062ZM256.228 134.906L259.018 143.878L259.335 146H258.125L255.142 136.7L254.895 134.906H256.228ZM264.959 140.576V140.34C264.959 139.54 265.075 138.799 265.308 138.115C265.54 137.425 265.875 136.826 266.313 136.321C266.75 135.808 267.28 135.411 267.902 135.131C268.524 134.844 269.221 134.7 269.994 134.7C270.773 134.7 271.474 134.844 272.096 135.131C272.725 135.411 273.258 135.808 273.695 136.321C274.14 136.826 274.478 137.425 274.711 138.115C274.943 138.799 275.059 139.54 275.059 140.34V140.576C275.059 141.376 274.943 142.117 274.711 142.801C274.478 143.485 274.14 144.083 273.695 144.595C273.258 145.101 272.728 145.498 272.106 145.785C271.491 146.065 270.794 146.205 270.014 146.205C269.235 146.205 268.534 146.065 267.912 145.785C267.29 145.498 266.757 145.101 266.313 144.595C265.875 144.083 265.54 143.485 265.308 142.801C265.075 142.117 264.959 141.376 264.959 140.576ZM266.856 140.34V140.576C266.856 141.13 266.921 141.653 267.051 142.145C267.181 142.63 267.376 143.061 267.635 143.437C267.902 143.813 268.233 144.11 268.63 144.329C269.026 144.541 269.488 144.647 270.014 144.647C270.534 144.647 270.988 144.541 271.378 144.329C271.775 144.11 272.103 143.813 272.362 143.437C272.622 143.061 272.817 142.63 272.947 142.145C273.084 141.653 273.152 141.13 273.152 140.576V140.34C273.152 139.793 273.084 139.277 272.947 138.792C272.817 138.3 272.619 137.865 272.352 137.49C272.092 137.107 271.764 136.806 271.368 136.587C270.978 136.368 270.52 136.259 269.994 136.259C269.474 136.259 269.016 136.368 268.62 136.587C268.23 136.806 267.902 137.107 267.635 137.49C267.376 137.865 267.181 138.3 267.051 138.792C266.921 139.277 266.856 139.793 266.856 140.34ZM279.965 136.649V146H278.068V134.906H279.914L279.965 136.649ZM283.431 134.844L283.421 136.608C283.263 136.573 283.113 136.553 282.969 136.546C282.833 136.532 282.676 136.526 282.498 136.526C282.06 136.526 281.674 136.594 281.339 136.731C281.004 136.867 280.72 137.059 280.488 137.305C280.256 137.551 280.071 137.845 279.934 138.187C279.804 138.522 279.719 138.891 279.678 139.294L279.145 139.602C279.145 138.932 279.21 138.303 279.34 137.715C279.476 137.127 279.685 136.608 279.965 136.156C280.245 135.698 280.601 135.343 281.031 135.09C281.469 134.83 281.988 134.7 282.59 134.7C282.727 134.7 282.884 134.718 283.062 134.752C283.239 134.779 283.363 134.81 283.431 134.844ZM287.722 130.25V146H285.814V130.25H287.722ZM294.499 134.906L289.66 140.084L286.952 142.893L286.799 140.873L288.737 138.556L292.182 134.906H294.499ZM292.766 146L288.808 140.709L289.793 139.017L295.002 146H292.766Z" fill="#4F5052"/>
<path d="M167.249 45.9377V63.0002H163.745V45.9377H167.249ZM174.356 53.0276V63.0002H170.981V50.3206H174.145L174.356 53.0276ZM173.863 56.2151H172.949C172.949 55.2776 173.07 54.4338 173.313 53.6838C173.555 52.926 173.895 52.2815 174.332 51.7502C174.77 51.2112 175.289 50.801 175.891 50.5198C176.5 50.2307 177.18 50.0862 177.93 50.0862C178.524 50.0862 179.067 50.1721 179.559 50.344C180.051 50.5159 180.473 50.7893 180.824 51.1643C181.184 51.5393 181.457 52.0354 181.645 52.6526C181.84 53.2698 181.938 54.0237 181.938 54.9143V63.0002H178.539V54.9026C178.539 54.3401 178.461 53.9026 178.305 53.5901C178.149 53.2776 177.918 53.0588 177.613 52.9338C177.317 52.801 176.949 52.7346 176.512 52.7346C176.059 52.7346 175.664 52.8245 175.328 53.0042C175 53.1838 174.727 53.4338 174.508 53.7542C174.297 54.0667 174.137 54.4338 174.027 54.8557C173.918 55.2776 173.863 55.7307 173.863 56.2151ZM189.537 60.5393L192.349 50.3206H195.876L191.599 63.0002H189.466L189.537 60.5393ZM187.603 50.3206L190.427 60.551L190.486 63.0002H188.341L184.064 50.3206H187.603ZM203.78 63.2346C202.796 63.2346 201.913 63.0784 201.132 62.7659C200.35 62.4456 199.686 62.0042 199.139 61.4417C198.6 60.8792 198.186 60.2268 197.897 59.4846C197.608 58.7346 197.464 57.9377 197.464 57.094V56.6252C197.464 55.6643 197.6 54.7854 197.874 53.9885C198.147 53.1917 198.538 52.5002 199.046 51.9143C199.561 51.3284 200.186 50.8792 200.921 50.5667C201.655 50.2463 202.483 50.0862 203.405 50.0862C204.303 50.0862 205.1 50.2346 205.796 50.5315C206.491 50.8284 207.073 51.2502 207.542 51.7971C208.018 52.344 208.378 53.0002 208.62 53.7659C208.862 54.5237 208.983 55.3674 208.983 56.2971V57.7034H198.905V55.4534H205.667V55.1956C205.667 54.7268 205.581 54.3088 205.409 53.9417C205.245 53.5667 204.995 53.2698 204.659 53.051C204.323 52.8323 203.893 52.7229 203.37 52.7229C202.925 52.7229 202.542 52.8206 202.221 53.0159C201.901 53.2112 201.639 53.4846 201.436 53.8362C201.241 54.1877 201.092 54.6018 200.991 55.0784C200.897 55.5471 200.85 56.0627 200.85 56.6252V57.094C200.85 57.6018 200.921 58.0706 201.061 58.5002C201.21 58.9299 201.417 59.301 201.682 59.6135C201.956 59.926 202.284 60.1682 202.667 60.3401C203.057 60.512 203.499 60.5979 203.991 60.5979C204.6 60.5979 205.167 60.4807 205.69 60.2463C206.221 60.0042 206.678 59.6409 207.061 59.1565L208.702 60.9377C208.436 61.3206 208.073 61.6877 207.612 62.0393C207.159 62.3909 206.612 62.6799 205.971 62.9065C205.331 63.1252 204.6 63.2346 203.78 63.2346ZM218.48 59.4963C218.48 59.2542 218.41 59.0354 218.27 58.8401C218.129 58.6448 217.867 58.4651 217.484 58.301C217.109 58.1292 216.566 57.9729 215.855 57.8323C215.215 57.6917 214.617 57.5159 214.062 57.3049C213.516 57.0862 213.039 56.8245 212.633 56.5198C212.234 56.2151 211.922 55.8557 211.695 55.4417C211.469 55.0198 211.355 54.5393 211.355 54.0002C211.355 53.469 211.469 52.969 211.695 52.5002C211.93 52.0315 212.262 51.6174 212.691 51.2581C213.129 50.8909 213.66 50.6057 214.285 50.4026C214.918 50.1917 215.629 50.0862 216.418 50.0862C217.52 50.0862 218.465 50.262 219.254 50.6135C220.051 50.9651 220.66 51.4495 221.082 52.0667C221.512 52.676 221.727 53.3713 221.727 54.1526H218.352C218.352 53.8245 218.281 53.5315 218.141 53.2737C218.008 53.0081 217.797 52.801 217.508 52.6526C217.227 52.4963 216.859 52.4182 216.406 52.4182C216.031 52.4182 215.707 52.4846 215.434 52.6174C215.16 52.7424 214.949 52.9143 214.801 53.1331C214.66 53.344 214.59 53.5784 214.59 53.8362C214.59 54.0315 214.629 54.2073 214.707 54.3635C214.793 54.512 214.93 54.6487 215.117 54.7737C215.305 54.8987 215.547 55.0159 215.844 55.1252C216.148 55.2268 216.523 55.3206 216.969 55.4065C217.883 55.594 218.699 55.8401 219.418 56.1448C220.137 56.4417 220.707 56.8479 221.129 57.3635C221.551 57.8713 221.762 58.5393 221.762 59.3674C221.762 59.9299 221.637 60.4456 221.387 60.9143C221.137 61.3831 220.777 61.7932 220.309 62.1448C219.84 62.4885 219.277 62.7581 218.621 62.9534C217.973 63.1409 217.242 63.2346 216.43 63.2346C215.25 63.2346 214.25 63.0237 213.43 62.6018C212.617 62.1799 212 61.6448 211.578 60.9963C211.164 60.3401 210.957 59.6682 210.957 58.9807H214.156C214.172 59.4417 214.289 59.8127 214.508 60.094C214.734 60.3752 215.02 60.5784 215.363 60.7034C215.715 60.8284 216.094 60.8909 216.5 60.8909C216.938 60.8909 217.301 60.8323 217.59 60.7151C217.879 60.5901 218.098 60.426 218.246 60.2229C218.402 60.012 218.48 59.7698 218.48 59.4963ZM230.884 50.3206V52.7112H223.501V50.3206H230.884ZM225.329 47.1917H228.704V59.1799C228.704 59.5471 228.751 59.8284 228.845 60.0237C228.947 60.219 229.095 60.3557 229.29 60.4338C229.486 60.5042 229.732 60.5393 230.029 60.5393C230.24 60.5393 230.427 60.5315 230.591 60.5159C230.763 60.4924 230.908 60.469 231.025 60.4456L231.036 62.9299C230.747 63.0237 230.435 63.0979 230.099 63.1526C229.763 63.2073 229.392 63.2346 228.986 63.2346C228.243 63.2346 227.595 63.1135 227.04 62.8713C226.493 62.6213 226.072 62.2229 225.775 61.676C225.478 61.1292 225.329 60.4104 225.329 59.5198V47.1917ZM232.682 56.7893V56.5432C232.682 55.6135 232.815 54.7581 233.081 53.9768C233.346 53.1877 233.733 52.5042 234.241 51.926C234.749 51.3479 235.374 50.8987 236.116 50.5784C236.858 50.2502 237.71 50.0862 238.67 50.0862C239.631 50.0862 240.487 50.2502 241.237 50.5784C241.987 50.8987 242.616 51.3479 243.124 51.926C243.639 52.5042 244.03 53.1877 244.295 53.9768C244.561 54.7581 244.694 55.6135 244.694 56.5432V56.7893C244.694 57.7112 244.561 58.5667 244.295 59.3557C244.03 60.137 243.639 60.8206 243.124 61.4065C242.616 61.9846 241.991 62.4338 241.249 62.7542C240.506 63.0745 239.655 63.2346 238.694 63.2346C237.733 63.2346 236.878 63.0745 236.128 62.7542C235.385 62.4338 234.756 61.9846 234.241 61.4065C233.733 60.8206 233.346 60.137 233.081 59.3557C232.815 58.5667 232.682 57.7112 232.682 56.7893ZM236.057 56.5432V56.7893C236.057 57.3206 236.104 57.8167 236.198 58.2776C236.292 58.7385 236.44 59.1448 236.643 59.4963C236.854 59.8401 237.128 60.1096 237.463 60.3049C237.799 60.5002 238.21 60.5979 238.694 60.5979C239.163 60.5979 239.565 60.5002 239.901 60.3049C240.237 60.1096 240.506 59.8401 240.71 59.4963C240.913 59.1448 241.061 58.7385 241.155 58.2776C241.256 57.8167 241.307 57.3206 241.307 56.7893V56.5432C241.307 56.0276 241.256 55.5432 241.155 55.0901C241.061 54.6292 240.909 54.2229 240.698 53.8713C240.495 53.512 240.225 53.2307 239.889 53.0276C239.553 52.8245 239.147 52.7229 238.67 52.7229C238.194 52.7229 237.788 52.8245 237.452 53.0276C237.124 53.2307 236.854 53.512 236.643 53.8713C236.44 54.2229 236.292 54.6292 236.198 55.0901C236.104 55.5432 236.057 56.0276 236.057 56.5432ZM250.863 53.0862V63.0002H247.488V50.3206H250.664L250.863 53.0862ZM254.683 50.2385L254.625 53.3674C254.461 53.344 254.262 53.3245 254.027 53.3088C253.801 53.2854 253.594 53.2737 253.406 53.2737C252.93 53.2737 252.515 53.3362 252.164 53.4612C251.82 53.5784 251.531 53.7542 251.297 53.9885C251.07 54.2229 250.898 54.5081 250.781 54.844C250.672 55.1799 250.609 55.5627 250.594 55.9924L249.914 55.7815C249.914 54.9612 249.996 54.2073 250.16 53.5198C250.324 52.8245 250.562 52.219 250.875 51.7034C251.195 51.1877 251.586 50.7893 252.047 50.5081C252.508 50.2268 253.035 50.0862 253.629 50.0862C253.816 50.0862 254.008 50.1018 254.203 50.1331C254.398 50.1565 254.558 50.1917 254.683 50.2385ZM263.853 59.4963C263.853 59.2542 263.782 59.0354 263.642 58.8401C263.501 58.6448 263.239 58.4651 262.857 58.301C262.482 58.1292 261.939 57.9729 261.228 57.8323C260.587 57.6917 259.989 57.5159 259.435 57.3049C258.888 57.0862 258.411 56.8245 258.005 56.5198C257.607 56.2151 257.294 55.8557 257.068 55.4417C256.841 55.0198 256.728 54.5393 256.728 54.0002C256.728 53.469 256.841 52.969 257.068 52.5002C257.302 52.0315 257.634 51.6174 258.064 51.2581C258.501 50.8909 259.032 50.6057 259.657 50.4026C260.29 50.1917 261.001 50.0862 261.79 50.0862C262.892 50.0862 263.837 50.262 264.626 50.6135C265.423 50.9651 266.032 51.4495 266.454 52.0667C266.884 52.676 267.099 53.3713 267.099 54.1526H263.724C263.724 53.8245 263.653 53.5315 263.513 53.2737C263.38 53.0081 263.169 52.801 262.88 52.6526C262.599 52.4963 262.232 52.4182 261.778 52.4182C261.403 52.4182 261.079 52.4846 260.806 52.6174C260.532 52.7424 260.321 52.9143 260.173 53.1331C260.032 53.344 259.962 53.5784 259.962 53.8362C259.962 54.0315 260.001 54.2073 260.079 54.3635C260.165 54.512 260.302 54.6487 260.489 54.7737C260.677 54.8987 260.919 55.0159 261.216 55.1252C261.521 55.2268 261.896 55.3206 262.341 55.4065C263.255 55.594 264.071 55.8401 264.79 56.1448C265.509 56.4417 266.079 56.8479 266.501 57.3635C266.923 57.8713 267.134 58.5393 267.134 59.3674C267.134 59.9299 267.009 60.4456 266.759 60.9143C266.509 61.3831 266.15 61.7932 265.681 62.1448C265.212 62.4885 264.65 62.7581 263.993 62.9534C263.345 63.1409 262.614 63.2346 261.802 63.2346C260.622 63.2346 259.622 63.0237 258.802 62.6018C257.989 62.1799 257.372 61.6448 256.95 60.9963C256.536 60.3401 256.329 59.6682 256.329 58.9807H259.528C259.544 59.4417 259.661 59.8127 259.88 60.094C260.107 60.3752 260.392 60.5784 260.735 60.7034C261.087 60.8284 261.466 60.8909 261.872 60.8909C262.31 60.8909 262.673 60.8323 262.962 60.7151C263.251 60.5901 263.47 60.426 263.618 60.2229C263.775 60.012 263.853 59.7698 263.853 59.4963Z" fill="#114DFF"/>
<g clip-path="url(#clip0_21_206)">
<path d="M136.655 65.2093C135.71 65.0972 135.161 64.3821 135.078 63.4797C134.93 61.88 134.945 58.5418 135.541 57.0869C137.291 52.8116 142.548 53.0635 146.504 53.3154C146.783 53.3332 148.217 53.5236 148.275 53.7676C146.073 56.1537 146.947 59.5435 149.899 60.801C147.926 60.6879 146.45 61.7055 147.284 63.7504L148.276 65.2093H136.655Z" fill="#114DFF"/>
<path d="M143.82 51.9655C146.356 51.9655 148.411 49.9586 148.411 47.4829C148.411 45.0072 146.356 43.0002 143.82 43.0002C141.285 43.0002 139.229 45.0072 139.229 47.4829C139.229 49.9586 141.285 51.9655 143.82 51.9655Z" fill="#114DFF"/>
<path d="M152.755 53.4055C153.996 53.6782 155.577 54.7681 155.765 56.0713C155.896 56.9807 154.858 57.1017 154.16 56.9381C153.726 56.2577 153.64 55.6379 152.795 55.2977C150.675 54.4439 148.845 57.0591 150.983 58.1569C152.195 58.7797 153.6 58.7777 154.771 59.709C156.649 61.2025 156.301 63.9675 154.231 65.1288C153.893 65.3182 152.97 65.5453 152.84 65.6534C152.584 65.8647 152.981 67.0439 151.88 66.9992C150.779 66.9546 151.267 65.8667 151.103 65.6187C151.063 65.5572 149.984 65.1843 149.727 65.0306C148.177 64.1014 146.916 61.503 149.895 61.9443C149.862 64.7222 154.739 64.4167 154.012 61.7391C153.711 60.6323 151.511 60.3903 150.541 59.9767C146.903 58.4277 147.385 54.3318 151.103 53.4055C151.066 52.6716 151.07 51.7939 152.074 51.9377C152.825 52.0458 152.739 52.8402 152.755 53.4055Z" fill="#114DFF"/>
</g>
<defs>
<filter id="filter0_d_21_206" x="0" y="0.000244141" width="407" height="185" filterUnits="userSpaceOnUse" color-interpolation-filters="sRGB">
<feFlood flood-opacity="0" result="BackgroundImageFix"/>
<feColorMatrix in="SourceAlpha" type="matrix" values="0 0 0 0 0 0 0 0 0 0 0 0 0 0 0 0 0 0 127 0" result="hardAlpha"/>
<feOffset dy="4"/>
<feGaussianBlur stdDeviation="2"/>
<feComposite in2="hardAlpha" operator="out"/>
<feColorMatrix type="matrix" values="0 0 0 0 0 0 0 0 0 0 0 0 0 0 0 0 0 0 0.13 0"/>
<feBlend mode="normal" in2="BackgroundImageFix" result="effect1_dropShadow_21_206"/>
<feBlend mode="normal" in="SourceGraphic" in2="effect1_dropShadow_21_206" result="shape"/>
</filter>
<linearGradient id="paint0_linear_21_206" x1="9.15314" y1="16.3387" x2="405.727" y2="37.5805" gradientUnits="userSpaceOnUse">
<stop offset="0.197139" stop-color="#F6F8FF"/>
<stop offset="0.663491" stop-color="#3CE5A7"/>
<stop offset="1" stop-color="#114DFF"/>
</linearGradient>
<clipPath id="clip0_21_206">
<rect width="21" height="24" fill="white" transform="translate(135 43.0002)"/>
</clipPath>
</defs>
</svg>
