<svg width="951" height="165" viewBox="0 0 951 165" fill="none" xmlns="http://www.w3.org/2000/svg">
<g filter="url(#filter0_d_138_903)">
<rect x="4" width="943" height="157" rx="78.5" fill="#06288B"/>
</g>
<path d="M232.691 69.7832L225.73 91H220.123L229.633 65.4062H233.201L232.691 69.7832ZM238.475 91L231.496 69.7832L230.934 65.4062H234.537L244.1 91H238.475ZM238.158 81.4727V85.6035H224.641V81.4727H238.158ZM255.094 87.3965C255.715 87.3965 256.266 87.2793 256.746 87.0449C257.226 86.7988 257.601 86.459 257.871 86.0254C258.152 85.5801 258.299 85.0586 258.31 84.4609H263.074C263.062 85.7969 262.705 86.9863 262.002 88.0293C261.299 89.0605 260.355 89.875 259.172 90.4727C257.988 91.0586 256.664 91.3516 255.199 91.3516C253.723 91.3516 252.434 91.1055 251.332 90.6133C250.242 90.1211 249.334 89.4414 248.607 88.5742C247.881 87.6953 247.336 86.6758 246.973 85.5156C246.609 84.3438 246.428 83.0898 246.428 81.7539V81.2441C246.428 79.8965 246.609 78.6426 246.973 77.4824C247.336 76.3105 247.881 75.291 248.607 74.4238C249.334 73.5449 250.242 72.8594 251.332 72.3672C252.422 71.875 253.699 71.6289 255.164 71.6289C256.723 71.6289 258.088 71.9277 259.26 72.5254C260.443 73.123 261.369 73.9785 262.037 75.0918C262.717 76.1934 263.062 77.5 263.074 79.0117H258.31C258.299 78.3789 258.164 77.8047 257.906 77.2891C257.66 76.7734 257.297 76.3633 256.816 76.0586C256.348 75.7422 255.767 75.584 255.076 75.584C254.338 75.584 253.734 75.7422 253.266 76.0586C252.797 76.3633 252.434 76.7852 252.176 77.3242C251.918 77.8516 251.736 78.4551 251.631 79.1348C251.537 79.8027 251.49 80.5059 251.49 81.2441V81.7539C251.49 82.4922 251.537 83.2012 251.631 83.8809C251.725 84.5605 251.9 85.1641 252.158 85.6914C252.428 86.2188 252.797 86.6348 253.266 86.9395C253.734 87.2441 254.344 87.3965 255.094 87.3965ZM274.947 87.3965C275.568 87.3965 276.119 87.2793 276.599 87.0449C277.08 86.7988 277.455 86.459 277.724 86.0254C278.006 85.5801 278.152 85.0586 278.164 84.4609H282.928C282.916 85.7969 282.558 86.9863 281.855 88.0293C281.152 89.0605 280.209 89.875 279.025 90.4727C277.842 91.0586 276.517 91.3516 275.053 91.3516C273.576 91.3516 272.287 91.1055 271.185 90.6133C270.096 90.1211 269.187 89.4414 268.461 88.5742C267.734 87.6953 267.189 86.6758 266.826 85.5156C266.463 84.3438 266.281 83.0898 266.281 81.7539V81.2441C266.281 79.8965 266.463 78.6426 266.826 77.4824C267.189 76.3105 267.734 75.291 268.461 74.4238C269.187 73.5449 270.096 72.8594 271.185 72.3672C272.275 71.875 273.553 71.6289 275.017 71.6289C276.576 71.6289 277.941 71.9277 279.113 72.5254C280.297 73.123 281.222 73.9785 281.89 75.0918C282.57 76.1934 282.916 77.5 282.928 79.0117H278.164C278.152 78.3789 278.017 77.8047 277.76 77.2891C277.514 76.7734 277.15 76.3633 276.67 76.0586C276.201 75.7422 275.621 75.584 274.93 75.584C274.191 75.584 273.588 75.7422 273.119 76.0586C272.65 76.3633 272.287 76.7852 272.029 77.3242C271.771 77.8516 271.59 78.4551 271.484 79.1348C271.39 79.8027 271.344 80.5059 271.344 81.2441V81.7539C271.344 82.4922 271.39 83.2012 271.484 83.8809C271.578 84.5605 271.754 85.1641 272.012 85.6914C272.281 86.2188 272.65 86.6348 273.119 86.9395C273.588 87.2441 274.197 87.3965 274.947 87.3965ZM295.697 91.3516C294.22 91.3516 292.896 91.1172 291.724 90.6484C290.552 90.168 289.556 89.5059 288.736 88.6621C287.927 87.8184 287.306 86.8398 286.873 85.7266C286.439 84.6016 286.222 83.4062 286.222 82.1406V81.4375C286.222 79.9961 286.427 78.6777 286.838 77.4824C287.248 76.2871 287.834 75.25 288.595 74.3711C289.369 73.4922 290.306 72.8184 291.408 72.3496C292.51 71.8691 293.752 71.6289 295.135 71.6289C296.482 71.6289 297.677 71.8516 298.72 72.2969C299.763 72.7422 300.636 73.375 301.34 74.1953C302.054 75.0156 302.594 76 302.957 77.1484C303.32 78.2852 303.502 79.5508 303.502 80.9453V83.0547H288.385V79.6797H298.527V79.293C298.527 78.5898 298.398 77.9629 298.14 77.4121C297.894 76.8496 297.519 76.4043 297.015 76.0762C296.511 75.748 295.867 75.584 295.082 75.584C294.414 75.584 293.84 75.7305 293.359 76.0234C292.879 76.3164 292.486 76.7266 292.181 77.2539C291.888 77.7812 291.666 78.4023 291.513 79.1172C291.373 79.8203 291.302 80.5938 291.302 81.4375V82.1406C291.302 82.9023 291.408 83.6055 291.619 84.25C291.842 84.8945 292.152 85.4512 292.551 85.9199C292.961 86.3887 293.453 86.752 294.027 87.0098C294.613 87.2676 295.275 87.3965 296.013 87.3965C296.927 87.3965 297.777 87.2207 298.562 86.8691C299.359 86.5059 300.045 85.9609 300.619 85.2344L303.08 87.9062C302.681 88.4805 302.136 89.0312 301.445 89.5586C300.765 90.0859 299.945 90.5195 298.984 90.8594C298.023 91.1875 296.927 91.3516 295.697 91.3516ZM317.748 85.7441C317.748 85.3809 317.642 85.0527 317.431 84.7598C317.22 84.4668 316.828 84.1973 316.254 83.9512C315.691 83.6934 314.877 83.459 313.81 83.248C312.849 83.0371 311.953 82.7734 311.121 82.457C310.3 82.1289 309.586 81.7363 308.976 81.2793C308.379 80.8223 307.91 80.2832 307.57 79.6621C307.23 79.0293 307.06 78.3086 307.06 77.5C307.06 76.7031 307.23 75.9531 307.57 75.25C307.922 74.5469 308.42 73.9258 309.064 73.3867C309.72 72.8359 310.517 72.4082 311.455 72.1035C312.404 71.7871 313.47 71.6289 314.654 71.6289C316.306 71.6289 317.724 71.8926 318.908 72.4199C320.103 72.9473 321.017 73.6738 321.65 74.5996C322.295 75.5137 322.617 76.5566 322.617 77.7285H317.554C317.554 77.2363 317.449 76.7969 317.238 76.4102C317.039 76.0117 316.722 75.7012 316.289 75.4785C315.867 75.2441 315.316 75.127 314.636 75.127C314.074 75.127 313.588 75.2266 313.177 75.4258C312.767 75.6133 312.451 75.8711 312.228 76.1992C312.017 76.5156 311.912 76.8672 311.912 77.2539C311.912 77.5469 311.97 77.8105 312.088 78.0449C312.216 78.2676 312.422 78.4727 312.703 78.6602C312.984 78.8477 313.347 79.0234 313.793 79.1875C314.25 79.3398 314.812 79.4805 315.48 79.6094C316.851 79.8906 318.076 80.2598 319.154 80.7168C320.232 81.1621 321.088 81.7715 321.72 82.5449C322.353 83.3066 322.67 84.3086 322.67 85.5508C322.67 86.3945 322.482 87.168 322.107 87.8711C321.732 88.5742 321.193 89.1895 320.49 89.7168C319.787 90.2324 318.943 90.6367 317.959 90.9297C316.986 91.2109 315.89 91.3516 314.672 91.3516C312.902 91.3516 311.402 91.0352 310.172 90.4023C308.953 89.7695 308.027 88.9668 307.394 87.9941C306.773 87.0098 306.463 86.002 306.463 84.9707H311.261C311.285 85.6621 311.461 86.2188 311.789 86.6406C312.129 87.0625 312.556 87.3672 313.072 87.5547C313.599 87.7422 314.168 87.8359 314.777 87.8359C315.433 87.8359 315.978 87.748 316.412 87.5723C316.845 87.3848 317.174 87.1387 317.396 86.834C317.631 86.5176 317.748 86.1543 317.748 85.7441ZM337.32 85.7441C337.32 85.3809 337.214 85.0527 337.004 84.7598C336.793 84.4668 336.4 84.1973 335.826 83.9512C335.263 83.6934 334.449 83.459 333.382 83.248C332.421 83.0371 331.525 82.7734 330.693 82.457C329.873 82.1289 329.158 81.7363 328.548 81.2793C327.951 80.8223 327.482 80.2832 327.142 79.6621C326.802 79.0293 326.632 78.3086 326.632 77.5C326.632 76.7031 326.802 75.9531 327.142 75.25C327.494 74.5469 327.992 73.9258 328.636 73.3867C329.293 72.8359 330.089 72.4082 331.027 72.1035C331.976 71.7871 333.043 71.6289 334.226 71.6289C335.879 71.6289 337.296 71.8926 338.48 72.4199C339.675 72.9473 340.589 73.6738 341.222 74.5996C341.867 75.5137 342.189 76.5566 342.189 77.7285H337.127C337.127 77.2363 337.021 76.7969 336.81 76.4102C336.611 76.0117 336.295 75.7012 335.861 75.4785C335.439 75.2441 334.888 75.127 334.209 75.127C333.646 75.127 333.16 75.2266 332.75 75.4258C332.339 75.6133 332.023 75.8711 331.8 76.1992C331.589 76.5156 331.484 76.8672 331.484 77.2539C331.484 77.5469 331.543 77.8105 331.66 78.0449C331.789 78.2676 331.994 78.4727 332.275 78.6602C332.556 78.8477 332.92 79.0234 333.365 79.1875C333.822 79.3398 334.384 79.4805 335.052 79.6094C336.423 79.8906 337.648 80.2598 338.726 80.7168C339.804 81.1621 340.66 81.7715 341.293 82.5449C341.925 83.3066 342.242 84.3086 342.242 85.5508C342.242 86.3945 342.054 87.168 341.679 87.8711C341.304 88.5742 340.765 89.1895 340.062 89.7168C339.359 90.2324 338.515 90.6367 337.531 90.9297C336.558 91.2109 335.463 91.3516 334.244 91.3516C332.474 91.3516 330.974 91.0352 329.744 90.4023C328.525 89.7695 327.599 88.9668 326.966 87.9941C326.345 87.0098 326.035 86.002 326.035 84.9707H330.834C330.857 85.6621 331.033 86.2188 331.361 86.6406C331.701 87.0625 332.129 87.3672 332.644 87.5547C333.171 87.7422 333.74 87.8359 334.349 87.8359C335.005 87.8359 335.55 87.748 335.984 87.5723C336.418 87.3848 336.746 87.1387 336.968 86.834C337.203 86.5176 337.32 86.1543 337.32 85.7441ZM365.97 71.9805V75.5664H354.896V71.9805H365.97ZM357.638 67.2871H362.701V85.2695C362.701 85.8203 362.771 86.2422 362.912 86.5352C363.064 86.8281 363.287 87.0332 363.58 87.1504C363.872 87.2559 364.242 87.3086 364.687 87.3086C365.003 87.3086 365.285 87.2969 365.531 87.2734C365.789 87.2383 366.005 87.2031 366.181 87.168L366.199 90.8945C365.765 91.0352 365.296 91.1465 364.792 91.2285C364.289 91.3105 363.732 91.3516 363.122 91.3516C362.009 91.3516 361.037 91.1699 360.205 90.8066C359.384 90.4316 358.751 89.834 358.306 89.0137C357.861 88.1934 357.638 87.1152 357.638 85.7793V67.2871ZM368.667 81.6836V81.3145C368.667 79.9199 368.867 78.6367 369.265 77.4648C369.663 76.2812 370.244 75.2559 371.005 74.3887C371.767 73.5215 372.704 72.8477 373.818 72.3672C374.931 71.875 376.208 71.6289 377.65 71.6289C379.091 71.6289 380.374 71.875 381.499 72.3672C382.624 72.8477 383.568 73.5215 384.329 74.3887C385.103 75.2559 385.689 76.2812 386.087 77.4648C386.486 78.6367 386.685 79.9199 386.685 81.3145V81.6836C386.685 83.0664 386.486 84.3496 386.087 85.5332C385.689 86.7051 385.103 87.7305 384.329 88.6094C383.568 89.4766 382.63 90.1504 381.517 90.6309C380.404 91.1113 379.126 91.3516 377.685 91.3516C376.244 91.3516 374.96 91.1113 373.835 90.6309C372.722 90.1504 371.779 89.4766 371.005 88.6094C370.244 87.7305 369.663 86.7051 369.265 85.5332C368.867 84.3496 368.667 83.0664 368.667 81.6836ZM373.73 81.3145V81.6836C373.73 82.4805 373.8 83.2246 373.941 83.916C374.081 84.6074 374.304 85.2168 374.609 85.7441C374.925 86.2598 375.335 86.6641 375.839 86.957C376.343 87.25 376.958 87.3965 377.685 87.3965C378.388 87.3965 378.992 87.25 379.495 86.957C379.999 86.6641 380.404 86.2598 380.708 85.7441C381.013 85.2168 381.236 84.6074 381.376 83.916C381.529 83.2246 381.605 82.4805 381.605 81.6836V81.3145C381.605 80.541 381.529 79.8145 381.376 79.1348C381.236 78.4434 381.007 77.834 380.691 77.3066C380.386 76.7676 379.982 76.3457 379.478 76.041C378.974 75.7363 378.365 75.584 377.65 75.584C376.935 75.584 376.326 75.7363 375.822 76.041C375.329 76.3457 374.925 76.7676 374.609 77.3066C374.304 77.834 374.081 78.4434 373.941 79.1348C373.8 79.8145 373.73 80.541 373.73 81.3145ZM414.562 84.3027C414.562 83.8457 414.491 83.4355 414.351 83.0723C414.222 82.6973 413.976 82.3574 413.613 82.0527C413.249 81.7363 412.739 81.4258 412.083 81.1211C411.427 80.8164 410.577 80.5 409.534 80.1719C408.374 79.7969 407.273 79.375 406.23 78.9062C405.198 78.4375 404.284 77.8926 403.488 77.2715C402.702 76.6387 402.081 75.9062 401.624 75.0742C401.179 74.2422 400.956 73.2754 400.956 72.1738C400.956 71.1074 401.191 70.1406 401.659 69.2734C402.128 68.3945 402.784 67.6445 403.628 67.0234C404.472 66.3906 405.468 65.9043 406.616 65.5645C407.777 65.2246 409.048 65.0547 410.431 65.0547C412.318 65.0547 413.964 65.3945 415.37 66.0742C416.777 66.7539 417.866 67.6855 418.64 68.8691C419.425 70.0527 419.818 71.4062 419.818 72.9297H414.579C414.579 72.1797 414.421 71.5234 414.105 70.9609C413.8 70.3867 413.331 69.9355 412.698 69.6074C412.077 69.2793 411.292 69.1152 410.343 69.1152C409.429 69.1152 408.667 69.2559 408.058 69.5371C407.448 69.8066 406.991 70.1758 406.687 70.6445C406.382 71.1016 406.23 71.6172 406.23 72.1914C406.23 72.625 406.335 73.0176 406.546 73.3691C406.769 73.7207 407.097 74.0488 407.53 74.3535C407.964 74.6582 408.497 74.9453 409.13 75.2148C409.763 75.4844 410.495 75.748 411.327 76.0059C412.722 76.4277 413.946 76.9023 415.001 77.4297C416.068 77.957 416.958 78.5488 417.673 79.2051C418.388 79.8613 418.927 80.6055 419.29 81.4375C419.654 82.2695 419.835 83.2129 419.835 84.2676C419.835 85.3809 419.618 86.377 419.185 87.2559C418.751 88.1348 418.124 88.8789 417.304 89.4883C416.484 90.0977 415.505 90.5605 414.368 90.877C413.232 91.1934 411.96 91.3516 410.554 91.3516C409.288 91.3516 408.04 91.1875 406.81 90.8594C405.579 90.5195 404.46 90.0098 403.452 89.3301C402.456 88.6504 401.659 87.7832 401.062 86.7285C400.464 85.6738 400.165 84.4258 400.165 82.9844H405.456C405.456 83.7812 405.579 84.4551 405.825 85.0059C406.071 85.5566 406.417 86.002 406.863 86.3418C407.32 86.6816 407.859 86.9277 408.48 87.0801C409.113 87.2324 409.804 87.3086 410.554 87.3086C411.468 87.3086 412.218 87.1797 412.804 86.9219C413.402 86.6641 413.841 86.3066 414.122 85.8496C414.415 85.3926 414.562 84.877 414.562 84.3027ZM433.501 71.9805V75.5664H422.427V71.9805H433.501ZM425.169 67.2871H430.232V85.2695C430.232 85.8203 430.302 86.2422 430.443 86.5352C430.595 86.8281 430.818 87.0332 431.11 87.1504C431.403 87.2559 431.773 87.3086 432.218 87.3086C432.534 87.3086 432.816 87.2969 433.062 87.2734C433.319 87.2383 433.536 87.2031 433.712 87.168L433.73 90.8945C433.296 91.0352 432.827 91.1465 432.323 91.2285C431.819 91.3105 431.263 91.3516 430.653 91.3516C429.54 91.3516 428.568 91.1699 427.735 90.8066C426.915 90.4316 426.282 89.834 425.837 89.0137C425.392 88.1934 425.169 87.1152 425.169 85.7793V67.2871ZM447.73 86.7109V78.2383C447.73 77.6289 447.63 77.1074 447.431 76.6738C447.231 76.2285 446.921 75.8828 446.499 75.6367C446.089 75.3906 445.556 75.2676 444.899 75.2676C444.337 75.2676 443.851 75.3672 443.44 75.5664C443.03 75.7539 442.714 76.0293 442.491 76.3926C442.269 76.7441 442.157 77.1602 442.157 77.6406H437.095C437.095 76.832 437.282 76.0645 437.657 75.3379C438.032 74.6113 438.577 73.9727 439.292 73.4219C440.007 72.8594 440.856 72.4199 441.841 72.1035C442.837 71.7871 443.95 71.6289 445.181 71.6289C446.657 71.6289 447.97 71.875 449.118 72.3672C450.267 72.8594 451.169 73.5977 451.825 74.582C452.493 75.5664 452.827 76.7969 452.827 78.2734V86.4121C452.827 87.4551 452.892 88.3105 453.021 88.9785C453.149 89.6348 453.337 90.209 453.583 90.7012V91H448.468C448.222 90.4844 448.034 89.8398 447.905 89.0664C447.788 88.2812 447.73 87.4961 447.73 86.7109ZM448.398 79.416L448.433 82.2812H445.603C444.935 82.2812 444.355 82.3574 443.862 82.5098C443.37 82.6621 442.966 82.8789 442.649 83.1602C442.333 83.4297 442.099 83.7461 441.946 84.1094C441.806 84.4727 441.735 84.8711 441.735 85.3047C441.735 85.7383 441.835 86.1309 442.034 86.4824C442.233 86.8223 442.521 87.0918 442.896 87.291C443.271 87.4785 443.71 87.5723 444.214 87.5723C444.976 87.5723 445.638 87.4199 446.2 87.1152C446.763 86.8105 447.196 86.4355 447.501 85.9902C447.817 85.5449 447.981 85.123 447.993 84.7246L449.329 86.8691C449.142 87.3496 448.884 87.8477 448.556 88.3633C448.239 88.8789 447.835 89.3652 447.343 89.8223C446.851 90.2676 446.259 90.6367 445.567 90.9297C444.876 91.2109 444.056 91.3516 443.106 91.3516C441.899 91.3516 440.804 91.1113 439.819 90.6309C438.847 90.1387 438.073 89.4648 437.499 88.6094C436.937 87.7422 436.655 86.7578 436.655 85.6562C436.655 84.6602 436.843 83.7754 437.218 83.002C437.593 82.2285 438.144 81.5781 438.87 81.0508C439.608 80.5117 440.528 80.1074 441.63 79.8379C442.731 79.5566 444.009 79.416 445.462 79.416H448.398ZM462.872 76.1289V91H457.81V71.9805H462.573L462.872 76.1289ZM468.602 71.8574L468.515 76.5508C468.269 76.5156 467.97 76.4863 467.618 76.4629C467.278 76.4277 466.968 76.4102 466.686 76.4102C465.972 76.4102 465.351 76.5039 464.823 76.6914C464.308 76.8672 463.874 77.1309 463.522 77.4824C463.183 77.834 462.925 78.2617 462.749 78.7656C462.585 79.2695 462.491 79.8438 462.468 80.4883L461.448 80.1719C461.448 78.9414 461.571 77.8105 461.817 76.7793C462.063 75.7363 462.421 74.8281 462.89 74.0547C463.37 73.2812 463.956 72.6836 464.647 72.2617C465.339 71.8398 466.13 71.6289 467.02 71.6289C467.302 71.6289 467.589 71.6523 467.882 71.6992C468.175 71.7344 468.415 71.7871 468.602 71.8574ZM482.268 71.9805V75.5664H471.194V71.9805H482.268ZM473.936 67.2871H478.999V85.2695C478.999 85.8203 479.069 86.2422 479.21 86.5352C479.362 86.8281 479.585 87.0332 479.878 87.1504C480.171 87.2559 480.54 87.3086 480.985 87.3086C481.302 87.3086 481.583 87.2969 481.829 87.2734C482.087 87.2383 482.304 87.2031 482.479 87.168L482.497 90.8945C482.063 91.0352 481.595 91.1465 481.091 91.2285C480.587 91.3105 480.03 91.3516 479.421 91.3516C478.307 91.3516 477.335 91.1699 476.503 90.8066C475.682 90.4316 475.05 89.834 474.604 89.0137C474.159 88.1934 473.936 87.1152 473.936 85.7793V67.2871ZM497.481 86.4473V71.9805H502.544V91H497.78L497.481 86.4473ZM498.044 82.5449L499.538 82.5098C499.538 83.7754 499.391 84.9531 499.098 86.043C498.805 87.1211 498.366 88.0586 497.78 88.8555C497.194 89.6406 496.456 90.2559 495.565 90.7012C494.675 91.1348 493.626 91.3516 492.419 91.3516C491.493 91.3516 490.638 91.2227 489.852 90.9648C489.079 90.6953 488.411 90.2793 487.848 89.7168C487.298 89.1426 486.864 88.4102 486.548 87.5195C486.243 86.6172 486.091 85.5332 486.091 84.2676V71.9805H491.153V84.3027C491.153 84.8652 491.218 85.3398 491.346 85.7266C491.487 86.1133 491.68 86.4297 491.927 86.6758C492.173 86.9219 492.46 87.0977 492.788 87.2031C493.128 87.3086 493.503 87.3613 493.913 87.3613C494.956 87.3613 495.776 87.1504 496.374 86.7285C496.983 86.3066 497.411 85.7324 497.657 85.0059C497.915 84.2676 498.044 83.4473 498.044 82.5449ZM512.553 75.6367V98.3125H507.491V71.9805H512.184L512.553 75.6367ZM524.594 81.2793V81.6484C524.594 83.0312 524.43 84.3145 524.102 85.498C523.786 86.6816 523.317 87.7129 522.696 88.5918C522.075 89.459 521.301 90.1387 520.376 90.6309C519.462 91.1113 518.407 91.3516 517.212 91.3516C516.051 91.3516 515.044 91.1172 514.188 90.6484C513.333 90.1797 512.612 89.5234 512.026 88.6797C511.452 87.8242 510.989 86.834 510.637 85.709C510.286 84.584 510.016 83.377 509.829 82.0879V81.1211C510.016 79.7383 510.286 78.4727 510.637 77.3242C510.989 76.1641 511.452 75.1621 512.026 74.3184C512.612 73.4629 513.327 72.8008 514.171 72.332C515.026 71.8633 516.028 71.6289 517.176 71.6289C518.384 71.6289 519.444 71.8574 520.358 72.3145C521.284 72.7715 522.057 73.4277 522.678 74.2832C523.311 75.1387 523.786 76.1582 524.102 77.3418C524.43 78.5254 524.594 79.8379 524.594 81.2793ZM519.514 81.6484V81.2793C519.514 80.4707 519.444 79.7266 519.303 79.0469C519.175 78.3555 518.964 77.752 518.671 77.2363C518.389 76.7207 518.014 76.3223 517.546 76.041C517.089 75.748 516.532 75.6016 515.876 75.6016C515.184 75.6016 514.592 75.7129 514.1 75.9355C513.62 76.1582 513.227 76.4805 512.923 76.9023C512.618 77.3242 512.389 77.8281 512.237 78.4141C512.085 79 511.991 79.6621 511.956 80.4004V82.8438C512.014 83.7109 512.178 84.4902 512.448 85.1816C512.717 85.8613 513.134 86.4004 513.696 86.7988C514.259 87.1973 514.997 87.3965 515.911 87.3965C516.579 87.3965 517.141 87.25 517.598 86.957C518.055 86.6523 518.425 86.2363 518.706 85.709C518.999 85.1816 519.204 84.5723 519.321 83.8809C519.45 83.1895 519.514 82.4453 519.514 81.6484ZM549.202 79.7676H542.628L542.592 76.1465H548.112C549.085 76.1465 549.881 76.0234 550.503 75.7773C551.124 75.5195 551.586 75.1504 551.891 74.6699C552.208 74.1777 552.366 73.5801 552.366 72.877C552.366 72.0801 552.213 71.4355 551.909 70.9434C551.616 70.4512 551.153 70.0938 550.52 69.8711C549.899 69.6484 549.096 69.5371 548.112 69.5371H544.456V91H539.182V65.4062H548.112C549.6 65.4062 550.93 65.5469 552.102 65.8281C553.286 66.1094 554.288 66.5371 555.108 67.1113C555.928 67.6855 556.555 68.4121 556.989 69.291C557.422 70.1582 557.639 71.1895 557.639 72.3848C557.639 73.4395 557.399 74.4121 556.919 75.3027C556.45 76.1934 555.706 76.9199 554.686 77.4824C553.678 78.0449 552.36 78.3555 550.731 78.4141L549.202 79.7676ZM548.973 91H541.186L543.243 86.8867H548.973C549.899 86.8867 550.655 86.7402 551.241 86.4473C551.827 86.1426 552.26 85.7324 552.542 85.2168C552.823 84.7012 552.963 84.1094 552.963 83.4414C552.963 82.6914 552.835 82.041 552.577 81.4902C552.331 80.9395 551.932 80.5176 551.381 80.2246C550.831 79.9199 550.104 79.7676 549.202 79.7676H544.122L544.157 76.1465H550.485L551.698 77.5703C553.256 77.5469 554.51 77.8223 555.46 78.3965C556.42 78.959 557.118 79.6914 557.551 80.5938C557.997 81.4961 558.219 82.4629 558.219 83.4941C558.219 85.1348 557.862 86.5176 557.147 87.6426C556.432 88.7559 555.383 89.5938 554.001 90.1562C552.629 90.7188 550.954 91 548.973 91ZM574.188 86.4473V71.9805H579.25V91H574.487L574.188 86.4473ZM574.75 82.5449L576.245 82.5098C576.245 83.7754 576.098 84.9531 575.805 86.043C575.512 87.1211 575.073 88.0586 574.487 88.8555C573.901 89.6406 573.163 90.2559 572.272 90.7012C571.381 91.1348 570.332 91.3516 569.125 91.3516C568.2 91.3516 567.344 91.2227 566.559 90.9648C565.786 90.6953 565.118 90.2793 564.555 89.7168C564.004 89.1426 563.571 88.4102 563.254 87.5195C562.95 86.6172 562.797 85.5332 562.797 84.2676V71.9805H567.86V84.3027C567.86 84.8652 567.924 85.3398 568.053 85.7266C568.194 86.1133 568.387 86.4297 568.633 86.6758C568.879 86.9219 569.166 87.0977 569.495 87.2031C569.834 87.3086 570.209 87.3613 570.62 87.3613C571.663 87.3613 572.483 87.1504 573.081 86.7285C573.69 86.3066 574.118 85.7324 574.364 85.0059C574.622 84.2676 574.75 83.4473 574.75 82.5449ZM589.541 71.9805V91H584.461V71.9805H589.541ZM584.145 67.0234C584.145 66.2852 584.403 65.6758 584.918 65.1953C585.434 64.7148 586.125 64.4746 586.993 64.4746C587.848 64.4746 588.534 64.7148 589.049 65.1953C589.577 65.6758 589.84 66.2852 589.84 67.0234C589.84 67.7617 589.577 68.3711 589.049 68.8516C588.534 69.332 587.848 69.5723 586.993 69.5723C586.125 69.5723 585.434 69.332 584.918 68.8516C584.403 68.3711 584.145 67.7617 584.145 67.0234ZM600.149 64V91H595.069V64H600.149ZM616.645 86.8516V64H621.742V91H617.155L616.645 86.8516ZM604.621 81.7188V81.3496C604.621 79.8965 604.785 78.5781 605.114 77.3945C605.442 76.1992 605.922 75.1738 606.555 74.3184C607.188 73.4629 607.967 72.8008 608.893 72.332C609.819 71.8633 610.873 71.6289 612.057 71.6289C613.17 71.6289 614.143 71.8633 614.975 72.332C615.819 72.8008 616.533 73.4688 617.119 74.3359C617.717 75.1914 618.198 76.2051 618.561 77.377C618.924 78.5371 619.188 79.8086 619.352 81.1914V82C619.188 83.3242 618.924 84.5547 618.561 85.6914C618.198 86.8281 617.717 87.8242 617.119 88.6797C616.533 89.5234 615.819 90.1797 614.975 90.6484C614.131 91.1172 613.147 91.3516 612.022 91.3516C610.838 91.3516 609.783 91.1113 608.858 90.6309C607.944 90.1504 607.17 89.4766 606.537 88.6094C605.916 87.7422 605.442 86.7227 605.114 85.5508C604.785 84.3789 604.621 83.1016 604.621 81.7188ZM609.684 81.3496V81.7188C609.684 82.5039 609.742 83.2363 609.86 83.916C609.989 84.5957 610.194 85.1992 610.475 85.7266C610.768 86.2422 611.143 86.6465 611.6 86.9395C612.069 87.2207 612.637 87.3613 613.305 87.3613C614.172 87.3613 614.887 87.168 615.449 86.7812C616.012 86.3828 616.44 85.8379 616.733 85.1465C617.037 84.4551 617.213 83.6582 617.26 82.7559V80.4531C617.225 79.7148 617.119 79.0527 616.944 78.4668C616.78 77.8691 616.533 77.3594 616.205 76.9375C615.889 76.5156 615.49 76.1875 615.01 75.9531C614.541 75.7188 613.985 75.6016 613.34 75.6016C612.684 75.6016 612.121 75.7539 611.653 76.0586C611.184 76.3516 610.803 76.7559 610.51 77.2715C610.229 77.7871 610.018 78.3965 609.877 79.0996C609.748 79.791 609.684 80.541 609.684 81.3496ZM647.106 81.877H640.584V77.7637H647.106C648.113 77.7637 648.934 77.5996 649.566 77.2715C650.199 76.9316 650.662 76.4629 650.955 75.8652C651.248 75.2676 651.395 74.5938 651.395 73.8438C651.395 73.082 651.248 72.373 650.955 71.7168C650.662 71.0605 650.199 70.5332 649.566 70.1348C648.934 69.7363 648.113 69.5371 647.106 69.5371H642.412V91H637.139V65.4062H647.106C649.109 65.4062 650.826 65.7695 652.256 66.4961C653.697 67.2109 654.799 68.2012 655.561 69.4668C656.322 70.7324 656.703 72.1797 656.703 73.8086C656.703 75.4609 656.322 76.8906 655.561 78.0977C654.799 79.3047 653.697 80.2363 652.256 80.8926C650.826 81.5488 649.109 81.877 647.106 81.877ZM671.16 86.7109V78.2383C671.16 77.6289 671.061 77.1074 670.861 76.6738C670.662 76.2285 670.352 75.8828 669.93 75.6367C669.52 75.3906 668.986 75.2676 668.33 75.2676C667.768 75.2676 667.281 75.3672 666.871 75.5664C666.461 75.7539 666.145 76.0293 665.922 76.3926C665.699 76.7441 665.588 77.1602 665.588 77.6406H660.525C660.525 76.832 660.713 76.0645 661.088 75.3379C661.463 74.6113 662.008 73.9727 662.723 73.4219C663.438 72.8594 664.287 72.4199 665.271 72.1035C666.268 71.7871 667.381 71.6289 668.611 71.6289C670.088 71.6289 671.4 71.875 672.549 72.3672C673.697 72.8594 674.6 73.5977 675.256 74.582C675.924 75.5664 676.258 76.7969 676.258 78.2734V86.4121C676.258 87.4551 676.322 88.3105 676.451 88.9785C676.58 89.6348 676.768 90.209 677.014 90.7012V91H671.898C671.652 90.4844 671.465 89.8398 671.336 89.0664C671.219 88.2812 671.16 87.4961 671.16 86.7109ZM671.828 79.416L671.863 82.2812H669.033C668.365 82.2812 667.785 82.3574 667.293 82.5098C666.801 82.6621 666.396 82.8789 666.08 83.1602C665.764 83.4297 665.529 83.7461 665.377 84.1094C665.236 84.4727 665.166 84.8711 665.166 85.3047C665.166 85.7383 665.266 86.1309 665.465 86.4824C665.664 86.8223 665.951 87.0918 666.326 87.291C666.701 87.4785 667.141 87.5723 667.645 87.5723C668.406 87.5723 669.068 87.4199 669.631 87.1152C670.193 86.8105 670.627 86.4355 670.932 85.9902C671.248 85.5449 671.412 85.123 671.424 84.7246L672.76 86.8691C672.572 87.3496 672.314 87.8477 671.986 88.3633C671.67 88.8789 671.266 89.3652 670.773 89.8223C670.281 90.2676 669.689 90.6367 668.998 90.9297C668.307 91.2109 667.486 91.3516 666.537 91.3516C665.33 91.3516 664.234 91.1113 663.25 90.6309C662.277 90.1387 661.504 89.4648 660.93 88.6094C660.367 87.7422 660.086 86.7578 660.086 85.6562C660.086 84.6602 660.273 83.7754 660.648 83.002C661.023 82.2285 661.574 81.5781 662.301 81.0508C663.039 80.5117 663.959 80.1074 665.061 79.8379C666.162 79.5566 667.439 79.416 668.893 79.416H671.828ZM689.098 87.3965C689.719 87.3965 690.269 87.2793 690.75 87.0449C691.23 86.7988 691.605 86.459 691.875 86.0254C692.156 85.5801 692.303 85.0586 692.314 84.4609H697.078C697.066 85.7969 696.709 86.9863 696.006 88.0293C695.303 89.0605 694.359 89.875 693.176 90.4727C691.992 91.0586 690.668 91.3516 689.203 91.3516C687.726 91.3516 686.437 91.1055 685.336 90.6133C684.246 90.1211 683.338 89.4414 682.611 88.5742C681.885 87.6953 681.34 86.6758 680.976 85.5156C680.613 84.3438 680.432 83.0898 680.432 81.7539V81.2441C680.432 79.8965 680.613 78.6426 680.976 77.4824C681.34 76.3105 681.885 75.291 682.611 74.4238C683.338 73.5449 684.246 72.8594 685.336 72.3672C686.426 71.875 687.703 71.6289 689.168 71.6289C690.726 71.6289 692.092 71.9277 693.264 72.5254C694.447 73.123 695.373 73.9785 696.041 75.0918C696.721 76.1934 697.066 77.5 697.078 79.0117H692.314C692.303 78.3789 692.168 77.8047 691.91 77.2891C691.664 76.7734 691.301 76.3633 690.82 76.0586C690.351 75.7422 689.771 75.584 689.08 75.584C688.342 75.584 687.738 75.7422 687.269 76.0586C686.801 76.3633 686.437 76.7852 686.18 77.3242C685.922 77.8516 685.74 78.4551 685.635 79.1348C685.541 79.8027 685.494 80.5059 685.494 81.2441V81.7539C685.494 82.4922 685.541 83.2012 685.635 83.8809C685.728 84.5605 685.904 85.1641 686.162 85.6914C686.432 86.2188 686.801 86.6348 687.269 86.9395C687.738 87.2441 688.348 87.3965 689.098 87.3965ZM706.156 63.9824V91H701.094V63.9824H706.156ZM718.144 71.9805L709.883 81.4023L705.453 85.8848L703.607 82.2285L707.123 77.7637L712.062 71.9805H718.144ZM712.889 91L707.264 82.2109L710.762 79.1523L718.724 91H712.889Z" fill="white"/>
<circle cx="95.5" cy="78.5" r="53.5" fill="#114DFF"/>
<g clip-path="url(#clip0_138_903)">
<path fill-rule="evenodd" clip-rule="evenodd" d="M110.735 84.315L96.6851 70.265C98.2301 67.68 99.7701 65.005 101.295 62.345C106.375 53.515 111.335 44.895 115.985 40.41C128.605 27.79 145.89 35.11 145.89 35.11C145.89 35.11 153.21 52.395 140.59 65.015C136.14 69.625 127.655 74.515 118.89 79.555C116.16 81.13 113.405 82.715 110.735 84.315ZM121.435 51.655C121.435 49.5572 122.268 47.5452 123.752 46.0618C125.235 44.5784 127.247 43.745 129.345 43.745C131.443 43.745 133.455 44.5784 134.938 46.0618C136.422 47.5452 137.255 49.5572 137.255 51.655C137.203 53.7178 136.347 55.6787 134.87 57.1193C133.393 58.5599 131.411 59.3662 129.348 59.3662C127.284 59.3662 125.302 58.5599 123.825 57.1193C122.348 55.6787 121.487 53.7178 121.435 51.655ZM100.99 50.495C93.9001 48.61 87.2451 52.1 81.3401 57.515C81.0677 57.7716 80.8592 58.0882 80.731 58.4397C80.6028 58.7911 80.5586 59.1677 80.6018 59.5393C80.645 59.9109 80.7745 60.2673 80.98 60.5799C81.1854 60.8926 81.4611 61.1529 81.7851 61.34L91.3101 67.08L91.3201 67.06C92.6951 64.76 94.2301 62.095 95.7901 59.395C97.5651 56.31 99.3701 53.18 100.99 50.495ZM113.925 89.695L119.665 99.22C119.853 99.5436 120.113 99.8189 120.426 100.024C120.739 100.229 121.095 100.358 121.467 100.401C121.839 100.443 122.215 100.399 122.566 100.27C122.918 100.141 123.234 99.9326 123.49 99.66C128.905 93.76 132.4 87.1 130.51 80.01C127.9 81.58 125.16 83.16 122.445 84.725L122.03 84.965C119.29 86.545 116.575 88.105 113.95 89.68L113.925 89.695ZM91.1101 79.715C93.1309 79.6792 95.1152 80.2566 96.8013 81.3711C98.4874 82.4856 99.7963 84.0848 100.555 85.958C101.314 87.8313 101.488 89.8905 101.053 91.8644C100.618 93.8382 99.5958 95.634 98.1201 97.015C97.0101 98.075 95.2751 98.91 93.6701 99.545C91.8694 100.238 90.0335 100.835 88.1701 101.335C86.3351 101.835 84.5851 102.235 83.2601 102.5C82.703 102.614 82.1427 102.713 81.5801 102.795C81.3601 102.825 81.1384 102.847 80.9151 102.86C80.581 102.89 80.2443 102.853 79.9251 102.75C79.4558 102.613 79.0368 102.342 78.7201 101.97C78.448 101.655 78.2589 101.277 78.1701 100.87C78.1068 100.581 78.0866 100.285 78.1101 99.99C78.1251 99.79 78.1551 99.56 78.1851 99.35C78.2501 98.91 78.3501 98.335 78.4851 97.68C78.7501 96.36 79.1601 94.62 79.6601 92.795C80.1601 90.975 80.7701 89.025 81.4551 87.32C82.0951 85.715 82.9251 83.985 83.9851 82.88C84.9002 81.9023 86.0025 81.1183 87.2264 80.5746C88.4503 80.0309 89.771 79.7386 91.1101 79.715Z" fill="#3CE5A7"/>
</g>
<defs>
<filter id="filter0_d_138_903" x="0" y="0" width="951" height="165" filterUnits="userSpaceOnUse" color-interpolation-filters="sRGB">
<feFlood flood-opacity="0" result="BackgroundImageFix"/>
<feColorMatrix in="SourceAlpha" type="matrix" values="0 0 0 0 0 0 0 0 0 0 0 0 0 0 0 0 0 0 127 0" result="hardAlpha"/>
<feOffset dy="4"/>
<feGaussianBlur stdDeviation="2"/>
<feComposite in2="hardAlpha" operator="out"/>
<feColorMatrix type="matrix" values="0 0 0 0 0 0 0 0 0 0 0 0 0 0 0 0 0 0 0.13 0"/>
<feBlend mode="normal" in2="BackgroundImageFix" result="effect1_dropShadow_138_903"/>
<feBlend mode="normal" in="SourceGraphic" in2="effect1_dropShadow_138_903" result="shape"/>
</filter>
<clipPath id="clip0_138_903">
<rect width="70" height="70" fill="white" transform="translate(78 33)"/>
</clipPath>
</defs>
</svg>
