<svg width="586" height="227" viewBox="0 0 586 227" fill="none" xmlns="http://www.w3.org/2000/svg">
<path d="M197.82 152.734L204.617 122.875H208.531L210.078 126.578L202.836 157H198.547L197.82 152.734ZM195.172 122.875L200.867 152.875L199.883 157H195.008L187.602 122.875H195.172ZM214.93 152.711L220.555 122.875H228.102L220.695 157H215.867L214.93 152.711ZM211.086 122.875L217.977 152.898L217.18 157H212.914L205.555 126.555L207.172 122.875H211.086ZM242.445 157.469C240.43 157.469 238.625 157.148 237.031 156.508C235.438 155.867 234.086 154.984 232.977 153.859C231.883 152.719 231.047 151.406 230.469 149.922C229.891 148.438 229.602 146.852 229.602 145.164V144.273C229.602 142.383 229.867 140.641 230.398 139.047C230.93 137.453 231.703 136.07 232.719 134.898C233.75 133.711 235.016 132.797 236.516 132.156C238.016 131.5 239.727 131.172 241.648 131.172C243.445 131.172 245.047 131.469 246.453 132.062C247.859 132.641 249.047 133.477 250.016 134.57C250.984 135.648 251.719 136.953 252.219 138.484C252.734 140 252.992 141.703 252.992 143.594V146.594H232.555V141.883H245.82V141.32C245.82 140.43 245.656 139.648 245.328 138.977C245.016 138.305 244.547 137.789 243.922 137.43C243.312 137.055 242.539 136.867 241.602 136.867C240.711 136.867 239.969 137.055 239.375 137.43C238.781 137.805 238.305 138.336 237.945 139.023C237.602 139.695 237.352 140.484 237.195 141.391C237.039 142.281 236.961 143.242 236.961 144.273V145.164C236.961 146.148 237.094 147.047 237.359 147.859C237.625 148.672 238.016 149.367 238.531 149.945C239.047 150.523 239.672 150.977 240.406 151.305C241.141 151.633 241.977 151.797 242.914 151.797C244.07 151.797 245.172 151.578 246.219 151.141C247.266 150.688 248.172 149.984 248.938 149.031L252.359 152.945C251.844 153.695 251.117 154.422 250.18 155.125C249.258 155.812 248.148 156.375 246.852 156.812C245.555 157.25 244.086 157.469 242.445 157.469ZM264.266 121V157H256.93V121H264.266ZM280.133 151.773C280.914 151.773 281.594 151.625 282.172 151.328C282.75 151.031 283.195 150.617 283.508 150.086C283.836 149.539 284 148.883 284 148.117H290.891C290.891 149.961 290.414 151.586 289.461 152.992C288.523 154.398 287.258 155.5 285.664 156.297C284.07 157.078 282.273 157.469 280.273 157.469C278.305 157.469 276.586 157.148 275.117 156.508C273.648 155.852 272.422 154.938 271.438 153.766C270.453 152.594 269.711 151.234 269.211 149.688C268.727 148.125 268.484 146.438 268.484 144.625V144.016C268.484 142.219 268.727 140.539 269.211 138.977C269.711 137.414 270.453 136.047 271.438 134.875C272.422 133.703 273.641 132.797 275.094 132.156C276.562 131.5 278.281 131.172 280.25 131.172C282.328 131.172 284.164 131.57 285.758 132.367C287.367 133.164 288.625 134.312 289.531 135.812C290.438 137.297 290.891 139.086 290.891 141.18H284C284 140.367 283.852 139.641 283.555 139C283.273 138.344 282.836 137.828 282.242 137.453C281.664 137.062 280.945 136.867 280.086 136.867C279.195 136.867 278.461 137.062 277.883 137.453C277.32 137.828 276.891 138.352 276.594 139.023C276.297 139.695 276.094 140.461 275.984 141.32C275.875 142.164 275.82 143.062 275.82 144.016V144.625C275.82 145.594 275.875 146.516 275.984 147.391C276.094 148.25 276.297 149.008 276.594 149.664C276.906 150.32 277.344 150.836 277.906 151.211C278.469 151.586 279.211 151.773 280.133 151.773ZM293.469 144.578V144.086C293.469 142.227 293.734 140.516 294.266 138.953C294.797 137.375 295.578 136.008 296.609 134.852C297.641 133.695 298.906 132.797 300.406 132.156C301.906 131.5 303.625 131.172 305.562 131.172C307.531 131.172 309.266 131.5 310.766 132.156C312.281 132.797 313.555 133.695 314.586 134.852C315.617 136.008 316.398 137.375 316.93 138.953C317.461 140.516 317.727 142.227 317.727 144.086V144.578C317.727 146.422 317.461 148.133 316.93 149.711C316.398 151.273 315.617 152.641 314.586 153.812C313.555 154.969 312.289 155.867 310.789 156.508C309.289 157.148 307.562 157.469 305.609 157.469C303.672 157.469 301.945 157.148 300.43 156.508C298.914 155.867 297.641 154.969 296.609 153.812C295.578 152.641 294.797 151.273 294.266 149.711C293.734 148.133 293.469 146.422 293.469 144.578ZM300.805 144.086V144.578C300.805 145.578 300.883 146.516 301.039 147.391C301.211 148.266 301.484 149.031 301.859 149.688C302.234 150.344 302.727 150.859 303.336 151.234C303.961 151.594 304.719 151.773 305.609 151.773C306.5 151.773 307.25 151.594 307.859 151.234C308.469 150.859 308.961 150.344 309.336 149.688C309.711 149.031 309.977 148.266 310.133 147.391C310.305 146.516 310.391 145.578 310.391 144.578V144.086C310.391 143.102 310.305 142.18 310.133 141.32C309.977 140.445 309.711 139.672 309.336 139C308.961 138.328 308.461 137.805 307.836 137.43C307.227 137.055 306.469 136.867 305.562 136.867C304.688 136.867 303.945 137.055 303.336 137.43C302.727 137.805 302.234 138.328 301.859 139C301.484 139.672 301.211 140.445 301.039 141.32C300.883 142.18 300.805 143.102 300.805 144.086ZM328.906 136.961V157H321.594V131.641H328.461L328.906 136.961ZM327.969 143.43L326.117 143.477C326.117 141.695 326.328 140.062 326.75 138.578C327.188 137.078 327.82 135.773 328.648 134.664C329.477 133.555 330.5 132.695 331.719 132.086C332.953 131.477 334.375 131.172 335.984 131.172C337.109 131.172 338.133 131.344 339.055 131.688C339.977 132.016 340.766 132.539 341.422 133.258C342.094 133.961 342.609 134.883 342.969 136.023C343.328 137.148 343.508 138.5 343.508 140.078V157H336.195V140.969C336.195 139.844 336.055 138.992 335.773 138.414C335.508 137.82 335.117 137.414 334.602 137.195C334.086 136.977 333.469 136.867 332.75 136.867C331.969 136.867 331.273 137.039 330.664 137.383C330.07 137.711 329.57 138.172 329.164 138.766C328.758 139.359 328.453 140.055 328.25 140.852C328.062 141.648 327.969 142.508 327.969 143.43ZM342.758 143.055L340.438 143.242C340.438 141.523 340.641 139.93 341.047 138.461C341.453 136.992 342.062 135.719 342.875 134.641C343.688 133.547 344.695 132.695 345.898 132.086C347.117 131.477 348.531 131.172 350.141 131.172C351.328 131.172 352.406 131.344 353.375 131.688C354.359 132.031 355.203 132.586 355.906 133.352C356.625 134.117 357.18 135.125 357.57 136.375C357.961 137.609 358.156 139.125 358.156 140.922V157H350.797V140.922C350.797 139.812 350.656 138.969 350.375 138.391C350.109 137.812 349.719 137.414 349.203 137.195C348.703 136.977 348.102 136.867 347.398 136.867C346.617 136.867 345.938 137.031 345.359 137.359C344.781 137.672 344.297 138.109 343.906 138.672C343.516 139.219 343.227 139.867 343.039 140.617C342.852 141.367 342.758 142.18 342.758 143.055ZM375.008 157.469C372.992 157.469 371.188 157.148 369.594 156.508C368 155.867 366.648 154.984 365.539 153.859C364.445 152.719 363.609 151.406 363.031 149.922C362.453 148.438 362.164 146.852 362.164 145.164V144.273C362.164 142.383 362.43 140.641 362.961 139.047C363.492 137.453 364.266 136.07 365.281 134.898C366.312 133.711 367.578 132.797 369.078 132.156C370.578 131.5 372.289 131.172 374.211 131.172C376.008 131.172 377.609 131.469 379.016 132.062C380.422 132.641 381.609 133.477 382.578 134.57C383.547 135.648 384.281 136.953 384.781 138.484C385.297 140 385.555 141.703 385.555 143.594V146.594H365.117V141.883H378.383V141.32C378.383 140.43 378.219 139.648 377.891 138.977C377.578 138.305 377.109 137.789 376.484 137.43C375.875 137.055 375.102 136.867 374.164 136.867C373.273 136.867 372.531 137.055 371.938 137.43C371.344 137.805 370.867 138.336 370.508 139.023C370.164 139.695 369.914 140.484 369.758 141.391C369.602 142.281 369.523 143.242 369.523 144.273V145.164C369.523 146.148 369.656 147.047 369.922 147.859C370.188 148.672 370.578 149.367 371.094 149.945C371.609 150.523 372.234 150.977 372.969 151.305C373.703 151.633 374.539 151.797 375.477 151.797C376.633 151.797 377.734 151.578 378.781 151.141C379.828 150.688 380.734 149.984 381.5 149.031L384.922 152.945C384.406 153.695 383.68 154.422 382.742 155.125C381.82 155.812 380.711 156.375 379.414 156.812C378.117 157.25 376.648 157.469 375.008 157.469ZM396.125 151.164L396.078 155.945C396.078 157.758 395.633 159.562 394.742 161.359C393.852 163.172 392.734 164.656 391.391 165.812L387.641 163.961C388 163.242 388.367 162.516 388.742 161.781C389.133 161.062 389.453 160.266 389.703 159.391C389.969 158.516 390.102 157.492 390.102 156.32V151.164H396.125Z" fill="#3CE5A7"/>
<path d="M113.727 180.875V215H106.086V180.875H113.727ZM127.156 195.266V201.172H111.594V195.266H127.156ZM128.656 180.875V186.805H111.594V180.875H128.656ZM130.438 202.578V202.086C130.438 200.227 130.703 198.516 131.234 196.953C131.766 195.375 132.547 194.008 133.578 192.852C134.609 191.695 135.875 190.797 137.375 190.156C138.875 189.5 140.594 189.172 142.531 189.172C144.5 189.172 146.234 189.5 147.734 190.156C149.25 190.797 150.523 191.695 151.555 192.852C152.586 194.008 153.367 195.375 153.898 196.953C154.43 198.516 154.695 200.227 154.695 202.086V202.578C154.695 204.422 154.43 206.133 153.898 207.711C153.367 209.273 152.586 210.641 151.555 211.812C150.523 212.969 149.258 213.867 147.758 214.508C146.258 215.148 144.531 215.469 142.578 215.469C140.641 215.469 138.914 215.148 137.398 214.508C135.883 213.867 134.609 212.969 133.578 211.812C132.547 210.641 131.766 209.273 131.234 207.711C130.703 206.133 130.438 204.422 130.438 202.578ZM137.773 202.086V202.578C137.773 203.578 137.852 204.516 138.008 205.391C138.18 206.266 138.453 207.031 138.828 207.688C139.203 208.344 139.695 208.859 140.305 209.234C140.93 209.594 141.688 209.773 142.578 209.773C143.469 209.773 144.219 209.594 144.828 209.234C145.438 208.859 145.93 208.344 146.305 207.688C146.68 207.031 146.945 206.266 147.102 205.391C147.273 204.516 147.359 203.578 147.359 202.578V202.086C147.359 201.102 147.273 200.18 147.102 199.32C146.945 198.445 146.68 197.672 146.305 197C145.93 196.328 145.43 195.805 144.805 195.43C144.195 195.055 143.438 194.867 142.531 194.867C141.656 194.867 140.914 195.055 140.305 195.43C139.695 195.805 139.203 196.328 138.828 197C138.453 197.672 138.18 198.445 138.008 199.32C137.852 200.18 137.773 201.102 137.773 202.086ZM173.422 208.883V189.641H180.781V215H173.891L173.422 208.883ZM174.195 203.703L176.211 203.656C176.211 205.359 176.008 206.93 175.602 208.367C175.211 209.805 174.617 211.055 173.82 212.117C173.039 213.18 172.062 214.008 170.891 214.602C169.734 215.18 168.383 215.469 166.836 215.469C165.586 215.469 164.438 215.297 163.391 214.953C162.359 214.594 161.469 214.039 160.719 213.289C159.969 212.523 159.391 211.547 158.984 210.359C158.578 209.156 158.375 207.719 158.375 206.047V189.641H165.688V206.094C165.688 206.75 165.766 207.312 165.922 207.781C166.094 208.234 166.32 208.609 166.602 208.906C166.898 209.203 167.258 209.422 167.68 209.562C168.117 209.703 168.594 209.773 169.109 209.773C170.406 209.773 171.422 209.508 172.156 208.977C172.906 208.43 173.43 207.703 173.727 206.797C174.039 205.875 174.195 204.844 174.195 203.703ZM192.711 195.055V215H185.375V189.641H192.266L192.711 195.055ZM191.75 201.43L189.922 201.477C189.922 199.57 190.156 197.859 190.625 196.344C191.094 194.828 191.758 193.539 192.617 192.477C193.492 191.398 194.531 190.578 195.734 190.016C196.953 189.453 198.297 189.172 199.766 189.172C200.953 189.172 202.039 189.344 203.023 189.688C204.008 190.031 204.852 190.586 205.555 191.352C206.273 192.102 206.82 193.102 207.195 194.352C207.57 195.586 207.758 197.109 207.758 198.922V215H200.398V198.898C200.398 197.836 200.25 197.016 199.953 196.438C199.656 195.859 199.219 195.453 198.641 195.219C198.078 194.984 197.391 194.867 196.578 194.867C195.719 194.867 194.984 195.039 194.375 195.383C193.766 195.711 193.266 196.172 192.875 196.766C192.484 197.359 192.195 198.055 192.008 198.852C191.836 199.648 191.75 200.508 191.75 201.43ZM227.305 209.328V179H234.664V215H228.055L227.305 209.328ZM211.508 202.625V202.133C211.508 200.211 211.719 198.461 212.141 196.883C212.578 195.289 213.211 193.922 214.039 192.781C214.883 191.625 215.922 190.734 217.156 190.109C218.391 189.484 219.805 189.172 221.398 189.172C222.867 189.172 224.148 189.5 225.242 190.156C226.336 190.797 227.266 191.703 228.031 192.875C228.812 194.031 229.445 195.398 229.93 196.977C230.414 198.539 230.781 200.234 231.031 202.062V202.906C230.797 204.656 230.43 206.289 229.93 207.805C229.445 209.32 228.812 210.656 228.031 211.812C227.266 212.953 226.328 213.852 225.219 214.508C224.125 215.148 222.836 215.469 221.352 215.469C219.758 215.469 218.344 215.148 217.109 214.508C215.891 213.867 214.867 212.969 214.039 211.812C213.211 210.656 212.578 209.297 212.141 207.734C211.719 206.172 211.508 204.469 211.508 202.625ZM218.82 202.133V202.625C218.82 203.625 218.891 204.555 219.031 205.414C219.188 206.273 219.438 207.031 219.781 207.688C220.125 208.344 220.578 208.859 221.141 209.234C221.703 209.594 222.391 209.773 223.203 209.773C224.297 209.773 225.195 209.523 225.898 209.023C226.602 208.508 227.133 207.797 227.492 206.891C227.852 205.984 228.039 204.93 228.055 203.727V201.266C228.055 200.266 227.953 199.367 227.75 198.57C227.547 197.773 227.242 197.102 226.836 196.555C226.445 196.008 225.953 195.594 225.359 195.312C224.766 195.016 224.062 194.867 223.25 194.867C222.453 194.867 221.773 195.055 221.211 195.43C220.648 195.789 220.188 196.297 219.828 196.953C219.484 197.609 219.227 198.383 219.055 199.273C218.898 200.148 218.82 201.102 218.82 202.133ZM247.25 189.641V215H239.914V189.641H247.25ZM239.469 183.078C239.469 182.016 239.844 181.148 240.594 180.477C241.344 179.789 242.328 179.445 243.547 179.445C244.766 179.445 245.75 179.789 246.5 180.477C247.266 181.148 247.648 182.016 247.648 183.078C247.648 184.125 247.266 184.992 246.5 185.68C245.75 186.352 244.766 186.688 243.547 186.688C242.328 186.688 241.344 186.352 240.594 185.68C239.844 184.992 239.469 184.125 239.469 183.078ZM259.695 195.055V215H252.359V189.641H259.25L259.695 195.055ZM258.734 201.43L256.906 201.477C256.906 199.57 257.141 197.859 257.609 196.344C258.078 194.828 258.742 193.539 259.602 192.477C260.477 191.398 261.516 190.578 262.719 190.016C263.938 189.453 265.281 189.172 266.75 189.172C267.938 189.172 269.023 189.344 270.008 189.688C270.992 190.031 271.836 190.586 272.539 191.352C273.258 192.102 273.805 193.102 274.18 194.352C274.555 195.586 274.742 197.109 274.742 198.922V215H267.383V198.898C267.383 197.836 267.234 197.016 266.938 196.438C266.641 195.859 266.203 195.453 265.625 195.219C265.062 194.984 264.375 194.867 263.562 194.867C262.703 194.867 261.969 195.039 261.359 195.383C260.75 195.711 260.25 196.172 259.859 196.766C259.469 197.359 259.18 198.055 258.992 198.852C258.82 199.648 258.734 200.508 258.734 201.43ZM295.508 189.641H302.164V214.086C302.164 216.414 301.633 218.391 300.57 220.016C299.523 221.641 298.062 222.875 296.188 223.719C294.312 224.562 292.117 224.984 289.602 224.984C288.508 224.984 287.367 224.836 286.18 224.539C284.992 224.258 283.875 223.828 282.828 223.25C281.781 222.688 280.906 221.969 280.203 221.094L283.32 216.781C284.039 217.594 284.898 218.25 285.898 218.75C286.898 219.266 288.039 219.523 289.32 219.523C290.492 219.523 291.484 219.312 292.297 218.891C293.109 218.469 293.727 217.852 294.148 217.039C294.586 216.227 294.805 215.242 294.805 214.086V195.57L295.508 189.641ZM278.562 202.625V202.133C278.562 200.211 278.797 198.461 279.266 196.883C279.734 195.289 280.414 193.922 281.305 192.781C282.211 191.625 283.297 190.734 284.562 190.109C285.844 189.484 287.281 189.172 288.875 189.172C290.594 189.172 292.016 189.5 293.141 190.156C294.266 190.797 295.18 191.703 295.883 192.875C296.586 194.031 297.141 195.398 297.547 196.977C297.953 198.539 298.281 200.234 298.531 202.062V202.906C298.281 204.656 297.922 206.289 297.453 207.805C296.984 209.32 296.375 210.656 295.625 211.812C294.875 212.953 293.938 213.852 292.812 214.508C291.703 215.148 290.375 215.469 288.828 215.469C287.25 215.469 285.828 215.148 284.562 214.508C283.297 213.867 282.211 212.969 281.305 211.812C280.414 210.656 279.734 209.297 279.266 207.734C278.797 206.172 278.562 204.469 278.562 202.625ZM285.875 202.133V202.625C285.875 203.625 285.969 204.555 286.156 205.414C286.359 206.273 286.656 207.031 287.047 207.688C287.453 208.344 287.953 208.859 288.547 209.234C289.156 209.594 289.867 209.773 290.68 209.773C291.867 209.773 292.828 209.523 293.562 209.023C294.312 208.508 294.859 207.797 295.203 206.891C295.562 205.984 295.75 204.93 295.766 203.727V201.266C295.766 200.266 295.664 199.367 295.461 198.57C295.258 197.773 294.953 197.102 294.547 196.555C294.156 196.008 293.641 195.594 293 195.312C292.375 195.016 291.617 194.867 290.727 194.867C289.93 194.867 289.227 195.055 288.617 195.43C288.008 195.789 287.5 196.297 287.094 196.953C286.688 197.609 286.383 198.383 286.18 199.273C285.977 200.148 285.875 201.102 285.875 202.133ZM323.023 180.875H329.352L337.555 205.273L345.734 180.875H352.062L340.109 215H334.977L323.023 180.875ZM319.367 180.875H325.812L327.008 206.164V215H319.367V180.875ZM349.273 180.875H355.742V215H348.078V206.164L349.273 180.875ZM372.992 215.469C370.977 215.469 369.172 215.148 367.578 214.508C365.984 213.867 364.633 212.984 363.523 211.859C362.43 210.719 361.594 209.406 361.016 207.922C360.438 206.438 360.148 204.852 360.148 203.164V202.273C360.148 200.383 360.414 198.641 360.945 197.047C361.477 195.453 362.25 194.07 363.266 192.898C364.297 191.711 365.562 190.797 367.062 190.156C368.562 189.5 370.273 189.172 372.195 189.172C373.992 189.172 375.594 189.469 377 190.062C378.406 190.641 379.594 191.477 380.562 192.57C381.531 193.648 382.266 194.953 382.766 196.484C383.281 198 383.539 199.703 383.539 201.594V204.594H363.102V199.883H376.367V199.32C376.367 198.43 376.203 197.648 375.875 196.977C375.562 196.305 375.094 195.789 374.469 195.43C373.859 195.055 373.086 194.867 372.148 194.867C371.258 194.867 370.516 195.055 369.922 195.43C369.328 195.805 368.852 196.336 368.492 197.023C368.148 197.695 367.898 198.484 367.742 199.391C367.586 200.281 367.508 201.242 367.508 202.273V203.164C367.508 204.148 367.641 205.047 367.906 205.859C368.172 206.672 368.562 207.367 369.078 207.945C369.594 208.523 370.219 208.977 370.953 209.305C371.688 209.633 372.523 209.797 373.461 209.797C374.617 209.797 375.719 209.578 376.766 209.141C377.812 208.688 378.719 207.984 379.484 207.031L382.906 210.945C382.391 211.695 381.664 212.422 380.727 213.125C379.805 213.812 378.695 214.375 377.398 214.812C376.102 215.25 374.633 215.469 372.992 215.469ZM394.273 195.055V215H386.938V189.641H393.828L394.273 195.055ZM393.312 201.43L391.484 201.477C391.484 199.57 391.719 197.859 392.188 196.344C392.656 194.828 393.32 193.539 394.18 192.477C395.055 191.398 396.094 190.578 397.297 190.016C398.516 189.453 399.859 189.172 401.328 189.172C402.516 189.172 403.602 189.344 404.586 189.688C405.57 190.031 406.414 190.586 407.117 191.352C407.836 192.102 408.383 193.102 408.758 194.352C409.133 195.586 409.32 197.109 409.32 198.922V215H401.961V198.898C401.961 197.836 401.812 197.016 401.516 196.438C401.219 195.859 400.781 195.453 400.203 195.219C399.641 194.984 398.953 194.867 398.141 194.867C397.281 194.867 396.547 195.039 395.938 195.383C395.328 195.711 394.828 196.172 394.438 196.766C394.047 197.359 393.758 198.055 393.57 198.852C393.398 199.648 393.312 200.508 393.312 201.43ZM426.992 189.641V194.773H411.945V189.641H426.992ZM415.391 183.359H422.727V207.055C422.727 207.758 422.812 208.297 422.984 208.672C423.156 209.047 423.438 209.312 423.828 209.469C424.219 209.609 424.719 209.68 425.328 209.68C425.766 209.68 426.141 209.664 426.453 209.633C426.766 209.602 427.055 209.562 427.32 209.516V214.812C426.695 215.016 426.031 215.172 425.328 215.281C424.625 215.406 423.859 215.469 423.031 215.469C421.453 215.469 420.086 215.211 418.93 214.695C417.789 214.18 416.914 213.367 416.305 212.258C415.695 211.133 415.391 209.672 415.391 207.875V183.359ZM428.797 202.578V202.086C428.797 200.227 429.062 198.516 429.594 196.953C430.125 195.375 430.906 194.008 431.938 192.852C432.969 191.695 434.234 190.797 435.734 190.156C437.234 189.5 438.953 189.172 440.891 189.172C442.859 189.172 444.594 189.5 446.094 190.156C447.609 190.797 448.883 191.695 449.914 192.852C450.945 194.008 451.727 195.375 452.258 196.953C452.789 198.516 453.055 200.227 453.055 202.086V202.578C453.055 204.422 452.789 206.133 452.258 207.711C451.727 209.273 450.945 210.641 449.914 211.812C448.883 212.969 447.617 213.867 446.117 214.508C444.617 215.148 442.891 215.469 440.938 215.469C439 215.469 437.273 215.148 435.758 214.508C434.242 213.867 432.969 212.969 431.938 211.812C430.906 210.641 430.125 209.273 429.594 207.711C429.062 206.133 428.797 204.422 428.797 202.578ZM436.133 202.086V202.578C436.133 203.578 436.211 204.516 436.367 205.391C436.539 206.266 436.812 207.031 437.188 207.688C437.562 208.344 438.055 208.859 438.664 209.234C439.289 209.594 440.047 209.773 440.938 209.773C441.828 209.773 442.578 209.594 443.188 209.234C443.797 208.859 444.289 208.344 444.664 207.688C445.039 207.031 445.305 206.266 445.461 205.391C445.633 204.516 445.719 203.578 445.719 202.578V202.086C445.719 201.102 445.633 200.18 445.461 199.32C445.305 198.445 445.039 197.672 444.664 197C444.289 196.328 443.789 195.805 443.164 195.43C442.555 195.055 441.797 194.867 440.891 194.867C440.016 194.867 439.273 195.055 438.664 195.43C438.055 195.805 437.562 196.328 437.188 197C436.812 197.672 436.539 198.445 436.367 199.32C436.211 200.18 436.133 201.102 436.133 202.086ZM464.234 195.547V215H456.922V189.641H463.789L464.234 195.547ZM471.805 189.453L471.688 196.273C471.375 196.227 470.969 196.188 470.469 196.156C469.969 196.109 469.539 196.086 469.18 196.086C468.242 196.086 467.43 196.203 466.742 196.438C466.07 196.656 465.508 196.984 465.055 197.422C464.617 197.859 464.289 198.406 464.07 199.062C463.852 199.703 463.742 200.445 463.742 201.289L462.359 200.609C462.359 198.938 462.523 197.406 462.852 196.016C463.18 194.625 463.656 193.422 464.281 192.406C464.906 191.375 465.672 190.578 466.578 190.016C467.484 189.453 468.516 189.172 469.672 189.172C470.047 189.172 470.43 189.195 470.82 189.242C471.211 189.289 471.539 189.359 471.805 189.453ZM471.312 211.531C471.312 210.469 471.688 209.578 472.438 208.859C473.203 208.141 474.195 207.781 475.414 207.781C476.648 207.781 477.633 208.141 478.367 208.859C479.117 209.578 479.492 210.469 479.492 211.531C479.492 212.578 479.117 213.461 478.367 214.18C477.633 214.898 476.648 215.258 475.414 215.258C474.195 215.258 473.203 214.898 472.438 214.18C471.688 213.461 471.312 212.578 471.312 211.531Z" fill="#114DFF"/>
<g clip-path="url(#clip0_210_6594)">
<path d="M269.148 49.3767C269.734 48.1132 271.401 47.8215 272.382 48.8107L291.924 68.5182C292.898 69.5001 292.605 71.1502 291.353 71.7373L284.852 74.7855C284.087 75.1437 283.181 74.9838 282.585 74.3857L266.486 58.216C265.895 57.6221 265.736 56.7226 266.089 55.9625L269.148 49.3767Z" fill="#114DFF"/>
<path d="M254.095 89.5602C252.395 90.3742 250.616 88.6 251.425 86.8977L259.122 70.7062C259.718 69.4519 261.38 69.1722 262.354 70.1623L270.717 78.6639C271.68 79.6425 271.393 81.2776 270.155 81.8704L254.095 89.5602Z" fill="#114DFF"/>
<path d="M279.446 74.5031C280.43 75.4952 280.119 77.165 278.844 77.7366L276.013 79.006C275.253 79.3466 274.362 79.1809 273.775 78.5901L261.52 66.2459C261.426 66.1513 261.365 66.0292 261.346 65.8973C261.329 65.7775 261.346 65.6552 261.397 65.5453L263.108 61.8591C263.694 60.5953 265.361 60.3033 266.342 61.2924L279.446 74.5031Z" fill="#114DFF"/>
<path d="M293.732 21.8188C294.923 21.6862 295.902 22.7267 295.814 23.9129C295.753 24.7387 295.263 26.2119 295.03 27.0738C292.967 34.6585 288.699 43.5411 282.678 48.6834C282.02 49.2442 280.507 50.5662 279.678 50.5881C278.963 50.6067 277.96 49.9254 277.813 49.2048C277.435 47.357 278.981 46.8751 280.12 45.8861C285.538 41.1885 289.106 33.6027 291.178 26.8055C291.517 25.696 291.801 23.7782 292.25 22.8472C292.531 22.2634 293.095 21.89 293.734 21.8188H293.732Z" fill="#114DFF"/>
<path d="M294.037 55.9198C299.064 51.1291 305.874 47.8554 312.467 45.8598C313.463 45.5586 316.249 44.6682 317.12 44.8423C318.809 45.1808 319.192 47.5323 317.662 48.3592C316.819 48.8148 314.722 49.1456 313.662 49.4742C306.745 51.6198 299.471 55.0644 294.678 60.6733C294.139 61.303 293.474 62.6075 292.729 62.8704C291.026 63.4717 289.529 61.8507 290.327 60.2297C290.973 58.9186 292.953 56.9526 294.037 55.9187V55.9198Z" fill="#114DFF"/>
<path d="M305.14 33.3168C306.777 33.1537 307.806 35.1284 306.791 36.4143L291.585 51.7501C289.759 53.2561 287.51 51.231 288.76 49.231L303.912 33.9488C304.248 33.6443 304.682 33.3639 305.141 33.3179L305.14 33.3168Z" fill="#3CE5A7"/>
<path d="M284.305 24.0936C284.113 25.4737 283.19 26.9041 283.812 28.26C283.975 28.616 285.385 30.6247 285.284 30.7726C283.945 31.1603 282.268 30.594 281.208 31.6477C280.866 31.9883 279.615 33.7363 279.362 33.8393C279.148 33.8831 279.23 33.7944 279.176 33.7013C278.696 32.8733 278.381 31.18 277.734 30.5546C277.218 30.0563 274.632 29.2721 274.53 29.1286C274.495 28.9752 274.552 28.9489 274.635 28.8537C275.215 28.1888 276.714 27.3542 277.089 26.6182C277.559 25.6993 277.357 24.0422 277.572 22.9973C277.668 22.8779 279.923 24.4573 280.19 24.5734C281.448 25.1232 282.992 24.1429 284.306 24.0925L284.305 24.0936Z" fill="#3CE5A7"/>
<path d="M304.293 1.09308C304.23 2.47092 303.283 3.88381 303.84 5.21894C303.973 5.53985 305.525 7.75009 305.379 7.88262C304.358 7.99105 302.814 7.8651 301.878 8.24077C301.239 8.49597 300.312 9.94172 299.787 10.5134C299.706 10.6011 299.427 10.9384 299.298 10.8398C299.024 10.1257 298.777 9.37547 298.446 8.68545C298.006 7.76762 297.996 7.60004 297.053 7.13237C296.517 6.86622 295.1 6.46316 294.741 6.17839C294.633 6.09296 294.595 6.06667 294.625 5.91334C295.214 5.52561 295.963 4.94403 296.473 4.43473C297.916 2.99227 297.264 2.04267 297.557 0.270534C297.578 0.142389 297.615 0.0744821 297.72 4.1744e-06C297.891 -0.00875794 300.058 1.64509 300.661 1.74257C301.766 1.92 303.171 1.18289 304.293 1.09308Z" fill="#3CE5A7"/>
<path d="M331.671 35.4855C331.527 36.4898 330.806 38.0714 330.919 39.033C330.99 39.6486 332.785 42.1524 332.648 42.2739C331.699 42.4108 330.596 42.3276 329.671 42.5028C328.329 42.7569 327.639 44.6058 326.566 45.3407C326.176 44.4217 325.825 42.9147 325.209 42.1622C324.517 41.3167 322.771 41.136 321.896 40.4667C321.894 40.2806 324.256 38.5884 324.546 37.8841C324.788 37.2971 324.797 34.6454 324.936 34.4976C325.938 34.7747 327.279 36.1766 328.262 36.2456C328.83 36.2861 331.533 35.3771 331.672 35.4844L331.671 35.4855Z" fill="#114DFF"/>
<path d="M324.935 50.599C324.846 51.7293 324.004 53.2693 324.295 54.3656C324.446 54.933 325.961 56.9943 325.914 57.2221C325.896 57.3119 325.738 57.371 325.643 57.3886C325.043 57.4959 324.106 57.4127 323.471 57.4992C322.372 57.6503 322.241 57.8223 321.512 58.5912C321.211 58.9088 320.256 60.2297 319.991 60.3447C319.816 60.4203 319.845 60.2823 319.807 60.2067C319.383 59.3611 319.016 57.6799 318.367 57.0545C317.715 56.4258 316.013 56.0272 315.158 55.634C315.041 55.4828 317.626 53.5431 317.863 52.9407C318.213 52.0524 318.076 50.4807 318.2 49.5016C318.317 49.3669 320.763 51.1598 321.301 51.2463C322.447 51.4303 323.779 50.6582 324.934 50.5968L324.935 50.599Z" fill="#114DFF"/>
<path d="M315.56 30.3476C315.685 30.3147 315.78 30.3476 315.868 30.4385L320.798 35.4439L315.646 40.6354L310.493 35.5238L315.559 30.3476H315.56Z" fill="#3CE5A7"/>
<path d="M302.197 24.6062C302.122 24.6741 302.003 24.742 301.902 24.6982L296.806 19.6425L301.958 14.348L307.116 19.5483L302.197 24.6073V24.6062Z" fill="#114DFF"/>
<path d="M316.109 21.2744C319.534 20.7826 320.082 25.7321 317.033 26.2568C313.621 26.8438 312.993 21.7213 316.109 21.2744Z" fill="#3CE5A7"/>
<path d="M307.746 58.5123C311.352 58.0775 311.529 64.1978 307.416 63.4969C304.848 63.0588 304.907 58.854 307.746 58.5123Z" fill="#3CE5A7"/>
<path d="M291.555 12.2889C294.835 11.6164 295.93 16.1398 293.085 17.1179C291.223 17.7575 289.481 16.2691 289.748 14.2998C289.855 13.5079 290.78 12.4477 291.556 12.2889H291.555Z" fill="#114DFF"/>
<path d="M334.366 26.5273C337.735 26.3378 337.953 31.5885 334.549 31.5885C331.263 31.5885 331.285 26.7004 334.366 26.5273Z" fill="#114DFF"/>
</g>
<defs>
<clipPath id="clip0_210_6594">
<rect width="88" height="92" fill="white" transform="translate(249)"/>
</clipPath>
</defs>
</svg>
