<svg width="215" height="243" viewBox="0 0 215 243" fill="none" xmlns="http://www.w3.org/2000/svg">
<path d="M29.9809 107.227C29.9809 106.878 29.9262 106.57 29.8168 106.304C29.7143 106.03 29.5297 105.784 29.2631 105.565C29.0033 105.347 28.641 105.138 28.1762 104.94C27.7182 104.742 27.1371 104.54 26.433 104.335C25.6947 104.116 25.0282 103.874 24.4335 103.607C23.8388 103.333 23.3295 103.022 22.9057 102.674C22.4819 102.325 22.1572 101.925 21.9316 101.474C21.706 101.023 21.5932 100.507 21.5932 99.9258C21.5932 99.3447 21.7128 98.8081 21.9521 98.3159C22.1913 97.8237 22.5331 97.3965 22.9775 97.0342C23.4286 96.665 23.9653 96.3779 24.5873 96.1729C25.2094 95.9678 25.9032 95.8652 26.6689 95.8652C27.79 95.8652 28.7402 96.0806 29.5195 96.5112C30.3056 96.9351 30.9037 97.4922 31.3139 98.1826C31.724 98.8662 31.9291 99.5977 31.9291 100.377H29.9604C29.9604 99.8164 29.8407 99.3208 29.6015 98.8901C29.3622 98.4526 28.9999 98.1108 28.5146 97.8647C28.0292 97.6118 27.414 97.4854 26.6689 97.4854C25.9648 97.4854 25.3837 97.5913 24.9257 97.8032C24.4677 98.0151 24.1259 98.3022 23.9003 98.6646C23.6816 99.0269 23.5722 99.4404 23.5722 99.9053C23.5722 100.22 23.6371 100.507 23.767 100.767C23.9037 101.02 24.1122 101.255 24.3925 101.474C24.6796 101.693 25.0419 101.895 25.4794 102.079C25.9238 102.264 26.4535 102.441 27.0688 102.612C27.9164 102.852 28.6479 103.118 29.2631 103.412C29.8783 103.706 30.3842 104.038 30.7807 104.407C31.184 104.769 31.4814 105.183 31.6728 105.647C31.871 106.105 31.9701 106.625 31.9701 107.206C31.9701 107.814 31.8471 108.365 31.601 108.857C31.3549 109.349 31.0029 109.77 30.5448 110.118C30.0868 110.467 29.5365 110.737 28.894 110.928C28.2582 111.113 27.5473 111.205 26.7612 111.205C26.0707 111.205 25.3905 111.109 24.7206 110.918C24.0575 110.727 23.4526 110.439 22.9057 110.057C22.3656 109.674 21.9316 109.202 21.6034 108.642C21.2822 108.074 21.1215 107.418 21.1215 106.673H23.0903C23.0903 107.186 23.1894 107.626 23.3876 107.996C23.5859 108.358 23.8559 108.659 24.1977 108.898C24.5463 109.137 24.9394 109.315 25.3769 109.431C25.8212 109.541 26.2826 109.595 26.7612 109.595C27.4516 109.595 28.0361 109.5 28.5146 109.308C28.9931 109.117 29.3554 108.843 29.6015 108.488C29.8544 108.132 29.9809 107.712 29.9809 107.227ZM34.333 105.576V105.34C34.333 104.54 34.4493 103.798 34.6817 103.115C34.9141 102.424 35.2491 101.826 35.6866 101.32C36.1241 100.808 36.6539 100.411 37.2759 100.131C37.898 99.8438 38.5953 99.7002 39.3677 99.7002C40.147 99.7002 40.8477 99.8438 41.4698 100.131C42.0987 100.411 42.6319 100.808 43.0694 101.32C43.5137 101.826 43.8521 102.424 44.0845 103.115C44.3169 103.798 44.4331 104.54 44.4331 105.34V105.576C44.4331 106.375 44.3169 107.117 44.0845 107.801C43.8521 108.484 43.5137 109.083 43.0694 109.595C42.6319 110.101 42.1021 110.498 41.48 110.785C40.8648 111.065 40.1675 111.205 39.3882 111.205C38.6089 111.205 37.9082 111.065 37.2862 110.785C36.6641 110.498 36.1309 110.101 35.6866 109.595C35.2491 109.083 34.9141 108.484 34.6817 107.801C34.4493 107.117 34.333 106.375 34.333 105.576ZM36.23 105.34V105.576C36.23 106.129 36.295 106.652 36.4248 107.145C36.5547 107.63 36.7496 108.061 37.0093 108.437C37.2759 108.812 37.6075 109.11 38.0039 109.329C38.4004 109.541 38.8619 109.646 39.3882 109.646C39.9078 109.646 40.3623 109.541 40.752 109.329C41.1485 109.11 41.4766 108.812 41.7364 108.437C41.9961 108.061 42.191 107.63 42.3208 107.145C42.4576 106.652 42.5259 106.129 42.5259 105.576V105.34C42.5259 104.793 42.4576 104.277 42.3208 103.792C42.191 103.299 41.9927 102.865 41.7261 102.489C41.4664 102.106 41.1382 101.806 40.7417 101.587C40.3521 101.368 39.8941 101.259 39.3677 101.259C38.8482 101.259 38.3902 101.368 37.9937 101.587C37.604 101.806 37.2759 102.106 37.0093 102.489C36.7496 102.865 36.5547 103.299 36.4248 103.792C36.295 104.277 36.23 104.793 36.23 105.34ZM54.2301 108.437V99.9053H56.1374V111H54.3224L54.2301 108.437ZM54.589 106.099L55.3786 106.078C55.3786 106.816 55.3 107.5 55.1427 108.129C54.9923 108.751 54.7463 109.291 54.4045 109.749C54.0627 110.207 53.6149 110.566 53.0612 110.826C52.5075 111.079 51.8341 111.205 51.0412 111.205C50.5011 111.205 50.0055 111.126 49.5544 110.969C49.11 110.812 48.7272 110.569 48.4059 110.241C48.0846 109.913 47.8351 109.486 47.6574 108.959C47.4865 108.433 47.401 107.801 47.401 107.062V99.9053H49.298V107.083C49.298 107.582 49.3527 107.996 49.4621 108.324C49.5783 108.645 49.7321 108.901 49.9235 109.093C50.1217 109.277 50.3405 109.407 50.5798 109.482C50.8258 109.558 51.0788 109.595 51.3385 109.595C52.1452 109.595 52.7843 109.441 53.256 109.134C53.7277 108.819 54.0661 108.399 54.2712 107.873C54.4831 107.339 54.589 106.748 54.589 106.099ZM61.5559 101.648V111H59.659V99.9053H61.5047L61.5559 101.648ZM65.0218 99.8438L65.0115 101.607C64.8543 101.573 64.7039 101.553 64.5603 101.546C64.4236 101.532 64.2664 101.525 64.0887 101.525C63.6512 101.525 63.2649 101.594 62.93 101.73C62.595 101.867 62.3113 102.059 62.0789 102.305C61.8465 102.551 61.6619 102.845 61.5252 103.187C61.3953 103.521 61.3098 103.891 61.2688 104.294L60.7356 104.602C60.7356 103.932 60.8006 103.303 60.9305 102.715C61.0672 102.127 61.2757 101.607 61.5559 101.156C61.8362 100.698 62.1917 100.343 62.6223 100.09C63.0598 99.8301 63.5794 99.7002 64.1809 99.7002C64.3177 99.7002 64.4749 99.7173 64.6526 99.7515C64.8304 99.7788 64.9534 99.8096 65.0218 99.8438ZM71.64 109.646C72.0912 109.646 72.5082 109.554 72.891 109.37C73.2738 109.185 73.5883 108.932 73.8344 108.611C74.0805 108.283 74.2206 107.91 74.2548 107.493H76.0595C76.0253 108.149 75.8031 108.761 75.393 109.329C74.9897 109.889 74.4599 110.344 73.8036 110.692C73.1474 111.034 72.4262 111.205 71.64 111.205C70.8061 111.205 70.078 111.058 69.456 110.764C68.8407 110.47 68.328 110.067 67.9179 109.554C67.5146 109.042 67.2104 108.454 67.0053 107.791C66.807 107.121 66.7079 106.413 66.7079 105.668V105.237C66.7079 104.492 66.807 103.788 67.0053 103.125C67.2104 102.455 67.5146 101.864 67.9179 101.351C68.328 100.838 68.8407 100.435 69.456 100.141C70.078 99.8472 70.8061 99.7002 71.64 99.7002C72.5082 99.7002 73.267 99.8779 73.9164 100.233C74.5658 100.582 75.0751 101.061 75.4442 101.669C75.8202 102.271 76.0253 102.954 76.0595 103.72H74.2548C74.2206 103.262 74.0907 102.848 73.8651 102.479C73.6464 102.11 73.3456 101.816 72.9628 101.597C72.5868 101.372 72.1459 101.259 71.64 101.259C71.059 101.259 70.5702 101.375 70.1737 101.607C69.7841 101.833 69.4731 102.141 69.2406 102.53C69.015 102.913 68.851 103.34 68.7484 103.812C68.6527 104.277 68.6049 104.752 68.6049 105.237V105.668C68.6049 106.153 68.6527 106.632 68.7484 107.104C68.8441 107.575 69.0048 108.002 69.2304 108.385C69.4628 108.768 69.7738 109.076 70.1635 109.308C70.56 109.534 71.0522 109.646 71.64 109.646ZM83.4263 111.205C82.6538 111.205 81.9531 111.075 81.3242 110.815C80.7022 110.549 80.1656 110.176 79.7144 109.698C79.27 109.219 78.9282 108.652 78.689 107.996C78.4497 107.339 78.3301 106.622 78.3301 105.842V105.412C78.3301 104.509 78.4634 103.706 78.73 103.002C78.9966 102.291 79.3589 101.689 79.8169 101.197C80.2749 100.705 80.7945 100.333 81.3755 100.08C81.9566 99.8267 82.5581 99.7002 83.1802 99.7002C83.9732 99.7002 84.6568 99.8369 85.231 100.11C85.812 100.384 86.2871 100.767 86.6563 101.259C87.0254 101.744 87.2989 102.318 87.4766 102.981C87.6543 103.638 87.7432 104.355 87.7432 105.135V105.986H79.458V104.438H85.8462V104.294C85.8189 103.802 85.7163 103.323 85.5386 102.858C85.3677 102.394 85.0943 102.011 84.7183 101.71C84.3423 101.409 83.8296 101.259 83.1802 101.259C82.7495 101.259 82.3531 101.351 81.9907 101.536C81.6284 101.713 81.3174 101.98 81.0576 102.335C80.7979 102.691 80.5962 103.125 80.4527 103.638C80.3091 104.15 80.2373 104.742 80.2373 105.412V105.842C80.2373 106.369 80.3091 106.864 80.4527 107.329C80.6031 107.787 80.8184 108.19 81.0987 108.539C81.3858 108.888 81.731 109.161 82.1343 109.359C82.5445 109.558 83.0093 109.657 83.5288 109.657C84.1988 109.657 84.7661 109.52 85.231 109.247C85.6958 108.973 86.1026 108.607 86.4512 108.149L87.5996 109.062C87.3604 109.424 87.0562 109.77 86.687 110.098C86.3179 110.426 85.8633 110.692 85.3233 110.897C84.7901 111.103 84.1577 111.205 83.4263 111.205ZM101.072 99.9053V101.361H95.0735V99.9053H101.072ZM97.1038 97.2085H99.0007V108.252C99.0007 108.628 99.0589 108.912 99.1751 109.103C99.2913 109.294 99.4417 109.421 99.6262 109.482C99.8108 109.544 100.009 109.575 100.221 109.575C100.378 109.575 100.542 109.561 100.713 109.534C100.891 109.5 101.024 109.472 101.113 109.452L101.123 111C100.973 111.048 100.775 111.092 100.529 111.133C100.289 111.181 99.9988 111.205 99.657 111.205C99.1922 111.205 98.7649 111.113 98.3753 110.928C97.9856 110.744 97.6746 110.436 97.4422 110.005C97.2166 109.568 97.1038 108.98 97.1038 108.242V97.2085ZM103.22 105.576V105.34C103.22 104.54 103.336 103.798 103.568 103.115C103.801 102.424 104.136 101.826 104.573 101.32C105.011 100.808 105.54 100.411 106.162 100.131C106.785 99.8438 107.482 99.7002 108.254 99.7002C109.034 99.7002 109.734 99.8438 110.356 100.131C110.985 100.411 111.518 100.808 111.956 101.32C112.4 101.826 112.739 102.424 112.971 103.115C113.203 103.798 113.32 104.54 113.32 105.34V105.576C113.32 106.375 113.203 107.117 112.971 107.801C112.739 108.484 112.4 109.083 111.956 109.595C111.518 110.101 110.989 110.498 110.367 110.785C109.751 111.065 109.054 111.205 108.275 111.205C107.495 111.205 106.795 111.065 106.173 110.785C105.551 110.498 105.017 110.101 104.573 109.595C104.136 109.083 103.801 108.484 103.568 107.801C103.336 107.117 103.22 106.375 103.22 105.576ZM105.117 105.34V105.576C105.117 106.129 105.182 106.652 105.311 107.145C105.441 107.63 105.636 108.061 105.896 108.437C106.162 108.812 106.494 109.11 106.891 109.329C107.287 109.541 107.748 109.646 108.275 109.646C108.794 109.646 109.249 109.541 109.639 109.329C110.035 109.11 110.363 108.812 110.623 108.437C110.883 108.061 111.078 107.63 111.207 107.145C111.344 106.652 111.412 106.129 111.412 105.576V105.34C111.412 104.793 111.344 104.277 111.207 103.792C111.078 103.299 110.879 102.865 110.613 102.489C110.353 102.106 110.025 101.806 109.628 101.587C109.239 101.368 108.781 101.259 108.254 101.259C107.735 101.259 107.277 101.368 106.88 101.587C106.491 101.806 106.162 102.106 105.896 102.489C105.636 102.865 105.441 103.299 105.311 103.792C105.182 104.277 105.117 104.793 105.117 105.34ZM118.226 102.038V115.266H116.318V99.9053H118.062L118.226 102.038ZM125.701 105.36V105.576C125.701 106.382 125.605 107.131 125.414 107.821C125.222 108.505 124.942 109.1 124.573 109.605C124.21 110.111 123.763 110.504 123.229 110.785C122.696 111.065 122.084 111.205 121.394 111.205C120.69 111.205 120.068 111.089 119.528 110.856C118.988 110.624 118.53 110.286 118.154 109.841C117.778 109.397 117.477 108.864 117.251 108.242C117.033 107.62 116.882 106.919 116.8 106.14V104.991C116.882 104.171 117.036 103.436 117.262 102.787C117.487 102.137 117.785 101.583 118.154 101.125C118.53 100.661 118.984 100.309 119.518 100.069C120.051 99.8232 120.666 99.7002 121.363 99.7002C122.061 99.7002 122.679 99.8369 123.219 100.11C123.759 100.377 124.214 100.76 124.583 101.259C124.952 101.758 125.229 102.356 125.414 103.053C125.605 103.744 125.701 104.513 125.701 105.36ZM123.793 105.576V105.36C123.793 104.807 123.735 104.287 123.619 103.802C123.503 103.31 123.322 102.879 123.076 102.51C122.836 102.134 122.529 101.84 122.153 101.628C121.777 101.409 121.329 101.3 120.81 101.3C120.331 101.3 119.914 101.382 119.559 101.546C119.21 101.71 118.913 101.932 118.667 102.212C118.42 102.486 118.219 102.8 118.062 103.156C117.911 103.504 117.798 103.867 117.723 104.243V106.898C117.86 107.377 118.051 107.828 118.297 108.252C118.543 108.669 118.872 109.007 119.282 109.267C119.692 109.52 120.208 109.646 120.83 109.646C121.343 109.646 121.784 109.541 122.153 109.329C122.529 109.11 122.836 108.812 123.076 108.437C123.322 108.061 123.503 107.63 123.619 107.145C123.735 106.652 123.793 106.129 123.793 105.576ZM139.235 99.9053V101.361H133.236V99.9053H139.235ZM135.266 97.2085H137.163V108.252C137.163 108.628 137.221 108.912 137.338 109.103C137.454 109.294 137.604 109.421 137.789 109.482C137.973 109.544 138.172 109.575 138.384 109.575C138.541 109.575 138.705 109.561 138.876 109.534C139.053 109.5 139.187 109.472 139.276 109.452L139.286 111C139.135 111.048 138.937 111.092 138.691 111.133C138.452 111.181 138.161 111.205 137.82 111.205C137.355 111.205 136.927 111.113 136.538 110.928C136.148 110.744 135.837 110.436 135.605 110.005C135.379 109.568 135.266 108.98 135.266 108.242V97.2085ZM148.632 109.103V103.392C148.632 102.954 148.543 102.575 148.365 102.253C148.194 101.925 147.934 101.672 147.586 101.495C147.237 101.317 146.807 101.228 146.294 101.228C145.815 101.228 145.395 101.31 145.033 101.474C144.677 101.638 144.397 101.854 144.192 102.12C143.994 102.387 143.894 102.674 143.894 102.981H141.997C141.997 102.585 142.1 102.192 142.305 101.802C142.51 101.413 142.804 101.061 143.187 100.746C143.577 100.425 144.041 100.172 144.581 99.9873C145.128 99.7959 145.737 99.7002 146.407 99.7002C147.213 99.7002 147.924 99.8369 148.539 100.11C149.161 100.384 149.647 100.797 149.995 101.351C150.351 101.898 150.529 102.585 150.529 103.412V108.58C150.529 108.949 150.559 109.342 150.621 109.759C150.689 110.176 150.788 110.535 150.918 110.836V111H148.939C148.844 110.781 148.768 110.491 148.714 110.128C148.659 109.759 148.632 109.417 148.632 109.103ZM148.96 104.273L148.98 105.606H147.063C146.523 105.606 146.041 105.651 145.617 105.74C145.193 105.822 144.838 105.948 144.551 106.119C144.264 106.29 144.045 106.505 143.894 106.765C143.744 107.018 143.669 107.315 143.669 107.657C143.669 108.006 143.747 108.324 143.905 108.611C144.062 108.898 144.298 109.127 144.612 109.298C144.933 109.462 145.327 109.544 145.791 109.544C146.372 109.544 146.885 109.421 147.329 109.175C147.774 108.929 148.126 108.628 148.386 108.272C148.652 107.917 148.796 107.572 148.816 107.237L149.626 108.149C149.578 108.437 149.449 108.754 149.237 109.103C149.025 109.452 148.741 109.787 148.386 110.108C148.037 110.422 147.62 110.686 147.135 110.897C146.656 111.103 146.116 111.205 145.515 111.205C144.763 111.205 144.103 111.058 143.536 110.764C142.975 110.47 142.537 110.077 142.223 109.585C141.915 109.086 141.762 108.529 141.762 107.914C141.762 107.319 141.878 106.796 142.11 106.345C142.343 105.887 142.678 105.507 143.115 105.207C143.553 104.899 144.079 104.667 144.694 104.509C145.309 104.352 145.996 104.273 146.755 104.273H148.96ZM156.204 95.25V111H154.296V95.25H156.204ZM164.483 111.205C163.711 111.205 163.01 111.075 162.381 110.815C161.759 110.549 161.222 110.176 160.771 109.698C160.327 109.219 159.985 108.652 159.746 107.996C159.506 107.339 159.387 106.622 159.387 105.842V105.412C159.387 104.509 159.52 103.706 159.787 103.002C160.053 102.291 160.416 101.689 160.874 101.197C161.332 100.705 161.851 100.333 162.432 100.08C163.013 99.8267 163.615 99.7002 164.237 99.7002C165.03 99.7002 165.713 99.8369 166.288 100.11C166.869 100.384 167.344 100.767 167.713 101.259C168.082 101.744 168.356 102.318 168.533 102.981C168.711 103.638 168.8 104.355 168.8 105.135V105.986H160.515V104.438H166.903V104.294C166.876 103.802 166.773 103.323 166.595 102.858C166.424 102.394 166.151 102.011 165.775 101.71C165.399 101.409 164.886 101.259 164.237 101.259C163.806 101.259 163.41 101.351 163.047 101.536C162.685 101.713 162.374 101.98 162.114 102.335C161.855 102.691 161.653 103.125 161.509 103.638C161.366 104.15 161.294 104.742 161.294 105.412V105.842C161.294 106.369 161.366 106.864 161.509 107.329C161.66 107.787 161.875 108.19 162.155 108.539C162.442 108.888 162.788 109.161 163.191 109.359C163.601 109.558 164.066 109.657 164.586 109.657C165.255 109.657 165.823 109.52 166.288 109.247C166.753 108.973 167.159 108.607 167.508 108.149L168.656 109.062C168.417 109.424 168.113 109.77 167.744 110.098C167.375 110.426 166.92 110.692 166.38 110.897C165.847 111.103 165.214 111.205 164.483 111.205ZM173.542 102.274V111H171.645V99.9053H173.439L173.542 102.274ZM173.091 105.032L172.301 105.001C172.308 104.243 172.421 103.542 172.639 102.899C172.858 102.25 173.166 101.686 173.562 101.208C173.959 100.729 174.43 100.36 174.977 100.1C175.531 99.8335 176.143 99.7002 176.813 99.7002C177.36 99.7002 177.852 99.7754 178.289 99.9258C178.727 100.069 179.099 100.302 179.407 100.623C179.721 100.944 179.961 101.361 180.125 101.874C180.289 102.38 180.371 102.999 180.371 103.73V111H178.464V103.709C178.464 103.128 178.378 102.664 178.207 102.315C178.036 101.959 177.787 101.703 177.459 101.546C177.131 101.382 176.727 101.3 176.249 101.3C175.777 101.3 175.346 101.399 174.957 101.597C174.574 101.795 174.242 102.069 173.962 102.417C173.689 102.766 173.473 103.166 173.316 103.617C173.166 104.062 173.091 104.533 173.091 105.032ZM188.527 99.9053V101.361H182.529V99.9053H188.527ZM184.559 97.2085H186.456V108.252C186.456 108.628 186.514 108.912 186.63 109.103C186.746 109.294 186.897 109.421 187.081 109.482C187.266 109.544 187.464 109.575 187.676 109.575C187.833 109.575 187.997 109.561 188.168 109.534C188.346 109.5 188.479 109.472 188.568 109.452L188.578 111C188.428 111.048 188.23 111.092 187.984 111.133C187.744 111.181 187.454 111.205 187.112 111.205C186.647 111.205 186.22 111.113 185.83 110.928C185.441 110.744 185.13 110.436 184.897 110.005C184.672 109.568 184.559 108.98 184.559 108.242V97.2085ZM193.105 108.744V110.272C193.105 110.894 192.948 111.55 192.633 112.241C192.319 112.938 191.878 113.519 191.311 113.984L190.234 113.235C190.453 112.935 190.637 112.627 190.788 112.312C190.938 112.005 191.051 111.684 191.126 111.349C191.208 111.021 191.249 110.672 191.249 110.303V108.744H193.105ZM45.4192 125.038V138.266H43.5119V122.905H45.2551L45.4192 125.038ZM52.8943 128.36V128.576C52.8943 129.382 52.7986 130.131 52.6071 130.821C52.4157 131.505 52.1355 132.1 51.7663 132.605C51.404 133.111 50.9563 133.504 50.4231 133.785C49.8899 134.065 49.278 134.205 48.5876 134.205C47.8835 134.205 47.2614 134.089 46.7214 133.856C46.1814 133.624 45.7234 133.286 45.3474 132.841C44.9714 132.397 44.6706 131.864 44.445 131.242C44.2263 130.62 44.0759 129.919 43.9939 129.14V127.991C44.0759 127.171 44.2297 126.436 44.4553 125.787C44.6809 125.137 44.9782 124.583 45.3474 124.125C45.7234 123.661 46.1779 123.309 46.7112 123.069C47.2444 122.823 47.8596 122.7 48.5569 122.7C49.2541 122.7 49.8728 122.837 50.4128 123.11C50.9529 123.377 51.4074 123.76 51.7766 124.259C52.1457 124.758 52.4226 125.356 52.6071 126.053C52.7986 126.744 52.8943 127.513 52.8943 128.36ZM50.987 128.576V128.36C50.987 127.807 50.9289 127.287 50.8127 126.802C50.6965 126.31 50.5154 125.879 50.2693 125.51C50.03 125.134 49.7224 124.84 49.3464 124.628C48.9704 124.409 48.5227 124.3 48.0031 124.3C47.5246 124.3 47.1076 124.382 46.7522 124.546C46.4035 124.71 46.1062 124.932 45.8601 125.212C45.614 125.486 45.4123 125.8 45.2551 126.156C45.1047 126.504 44.9919 126.867 44.9167 127.243V129.898C45.0534 130.377 45.2448 130.828 45.4909 131.252C45.737 131.669 46.0652 132.007 46.4753 132.267C46.8855 132.52 47.4016 132.646 48.0237 132.646C48.5363 132.646 48.9773 132.541 49.3464 132.329C49.7224 132.11 50.03 131.812 50.2693 131.437C50.5154 131.061 50.6965 130.63 50.8127 130.145C50.9289 129.652 50.987 129.129 50.987 128.576ZM62.4862 132.103V126.392C62.4862 125.954 62.3973 125.575 62.2196 125.253C62.0487 124.925 61.7889 124.672 61.4403 124.495C61.0916 124.317 60.661 124.228 60.1483 124.228C59.6698 124.228 59.2494 124.31 58.8871 124.474C58.5316 124.638 58.2513 124.854 58.0462 125.12C57.848 125.387 57.7489 125.674 57.7489 125.981H55.8519C55.8519 125.585 55.9544 125.192 56.1595 124.802C56.3646 124.413 56.6585 124.061 57.0413 123.746C57.431 123.425 57.8958 123.172 58.4359 122.987C58.9828 122.796 59.5912 122.7 60.2611 122.7C61.0677 122.7 61.7787 122.837 62.3939 123.11C63.016 123.384 63.5013 123.797 63.8499 124.351C64.2054 124.898 64.3831 125.585 64.3831 126.412V131.58C64.3831 131.949 64.4139 132.342 64.4754 132.759C64.5438 133.176 64.6429 133.535 64.7728 133.836V134H62.7938C62.6981 133.781 62.6229 133.491 62.5682 133.128C62.5135 132.759 62.4862 132.417 62.4862 132.103ZM62.8143 127.273L62.8348 128.606H60.9173C60.3773 128.606 59.8954 128.651 59.4715 128.74C59.0477 128.822 58.6922 128.948 58.4051 129.119C58.118 129.29 57.8993 129.505 57.7489 129.765C57.5985 130.018 57.5233 130.315 57.5233 130.657C57.5233 131.006 57.6019 131.324 57.7591 131.611C57.9163 131.898 58.1522 132.127 58.4666 132.298C58.7879 132.462 59.181 132.544 59.6458 132.544C60.2269 132.544 60.7396 132.421 61.1839 132.175C61.6283 131.929 61.9803 131.628 62.2401 131.272C62.5067 130.917 62.6502 130.572 62.6707 130.237L63.4808 131.149C63.4329 131.437 63.3031 131.754 63.0912 132.103C62.8792 132.452 62.5955 132.787 62.2401 133.108C61.8914 133.422 61.4745 133.686 60.9891 133.897C60.5106 134.103 59.9705 134.205 59.369 134.205C58.617 134.205 57.9574 134.058 57.39 133.764C56.8294 133.47 56.3919 133.077 56.0775 132.585C55.7699 132.086 55.6161 131.529 55.6161 130.914C55.6161 130.319 55.7323 129.796 55.9647 129.345C56.1971 128.887 56.5321 128.507 56.9696 128.207C57.4071 127.899 57.9334 127.667 58.5487 127.509C59.1639 127.352 59.8509 127.273 60.6097 127.273H62.8143ZM69.894 124.648V134H67.997V122.905H69.8427L69.894 124.648ZM73.3598 122.844L73.3496 124.607C73.1923 124.573 73.042 124.553 72.8984 124.546C72.7617 124.532 72.6045 124.525 72.4267 124.525C71.9892 124.525 71.603 124.594 71.268 124.73C70.9331 124.867 70.6494 125.059 70.417 125.305C70.1845 125.551 70 125.845 69.8632 126.187C69.7334 126.521 69.6479 126.891 69.6069 127.294L69.0737 127.602C69.0737 126.932 69.1386 126.303 69.2685 125.715C69.4052 125.127 69.6137 124.607 69.894 124.156C70.1743 123.698 70.5297 123.343 70.9604 123.09C71.3979 122.83 71.9174 122.7 72.519 122.7C72.6557 122.7 72.813 122.717 72.9907 122.751C73.1684 122.779 73.2915 122.81 73.3598 122.844ZM80.901 122.905V124.361H74.9024V122.905H80.901ZM76.9327 120.208H78.8297V131.252C78.8297 131.628 78.8878 131.912 79.004 132.103C79.1202 132.294 79.2706 132.421 79.4552 132.482C79.6397 132.544 79.838 132.575 80.0499 132.575C80.2071 132.575 80.3712 132.561 80.5421 132.534C80.7198 132.5 80.8531 132.472 80.942 132.452L80.9522 134C80.8018 134.048 80.6036 134.092 80.3575 134.133C80.1182 134.181 79.8277 134.205 79.4859 134.205C79.0211 134.205 78.5938 134.113 78.2042 133.928C77.8145 133.744 77.5035 133.436 77.2711 133.005C77.0455 132.568 76.9327 131.98 76.9327 131.242V120.208ZM85.653 125.274V134H83.7561V122.905H85.5505L85.653 125.274ZM85.2019 128.032L84.4123 128.001C84.4191 127.243 84.5319 126.542 84.7507 125.899C84.9694 125.25 85.2771 124.686 85.6735 124.208C86.07 123.729 86.5417 123.36 87.0886 123.1C87.6423 122.833 88.2541 122.7 88.924 122.7C89.4709 122.7 89.9631 122.775 90.4006 122.926C90.8381 123.069 91.2106 123.302 91.5183 123.623C91.8327 123.944 92.072 124.361 92.236 124.874C92.4001 125.38 92.4821 125.999 92.4821 126.73V134H90.5749V126.709C90.5749 126.128 90.4895 125.664 90.3186 125.315C90.1477 124.959 89.8981 124.703 89.57 124.546C89.2419 124.382 88.8386 124.3 88.3601 124.3C87.8884 124.3 87.4577 124.399 87.0681 124.597C86.6853 124.795 86.3537 125.069 86.0734 125.417C85.8 125.766 85.5847 126.166 85.4274 126.617C85.2771 127.062 85.2019 127.533 85.2019 128.032ZM100.597 134.205C99.825 134.205 99.1243 134.075 98.4954 133.815C97.8734 133.549 97.3367 133.176 96.8856 132.698C96.4412 132.219 96.0994 131.652 95.8602 130.996C95.6209 130.339 95.5013 129.622 95.5013 128.842V128.412C95.5013 127.509 95.6346 126.706 95.9012 126.002C96.1678 125.291 96.5301 124.689 96.9881 124.197C97.4461 123.705 97.9656 123.333 98.5467 123.08C99.1278 122.827 99.7293 122.7 100.351 122.7C101.144 122.7 101.828 122.837 102.402 123.11C102.983 123.384 103.458 123.767 103.827 124.259C104.197 124.744 104.47 125.318 104.648 125.981C104.826 126.638 104.914 127.355 104.914 128.135V128.986H96.6292V127.438H103.017V127.294C102.99 126.802 102.888 126.323 102.71 125.858C102.539 125.394 102.265 125.011 101.889 124.71C101.513 124.409 101.001 124.259 100.351 124.259C99.9207 124.259 99.5242 124.351 99.1619 124.536C98.7996 124.713 98.4886 124.98 98.2288 125.335C97.9691 125.691 97.7674 126.125 97.6238 126.638C97.4803 127.15 97.4085 127.742 97.4085 128.412V128.842C97.4085 129.369 97.4803 129.864 97.6238 130.329C97.7742 130.787 97.9896 131.19 98.2698 131.539C98.557 131.888 98.9022 132.161 99.3055 132.359C99.7156 132.558 100.18 132.657 100.7 132.657C101.37 132.657 101.937 132.52 102.402 132.247C102.867 131.973 103.274 131.607 103.622 131.149L104.771 132.062C104.532 132.424 104.227 132.77 103.858 133.098C103.489 133.426 103.034 133.692 102.494 133.897C101.961 134.103 101.329 134.205 100.597 134.205ZM109.656 124.648V134H107.759V122.905H109.605L109.656 124.648ZM113.122 122.844L113.112 124.607C112.955 124.573 112.804 124.553 112.661 124.546C112.524 124.532 112.367 124.525 112.189 124.525C111.751 124.525 111.365 124.594 111.03 124.73C110.695 124.867 110.412 125.059 110.179 125.305C109.947 125.551 109.762 125.845 109.625 126.187C109.496 126.521 109.41 126.891 109.369 127.294L108.836 127.602C108.836 126.932 108.901 126.303 109.031 125.715C109.167 125.127 109.376 124.607 109.656 124.156C109.936 123.698 110.292 123.343 110.723 123.09C111.16 122.83 111.68 122.7 112.281 122.7C112.418 122.7 112.575 122.717 112.753 122.751C112.931 122.779 113.054 122.81 113.122 122.844ZM121.965 131.057C121.965 130.784 121.904 130.531 121.781 130.298C121.665 130.059 121.422 129.844 121.053 129.652C120.69 129.454 120.144 129.283 119.412 129.14C118.797 129.01 118.24 128.856 117.741 128.678C117.249 128.5 116.828 128.285 116.48 128.032C116.138 127.779 115.875 127.482 115.69 127.14C115.505 126.798 115.413 126.398 115.413 125.94C115.413 125.503 115.509 125.089 115.7 124.7C115.898 124.31 116.175 123.965 116.531 123.664C116.893 123.363 117.327 123.127 117.833 122.957C118.339 122.786 118.903 122.7 119.525 122.7C120.414 122.7 121.172 122.857 121.801 123.172C122.43 123.486 122.912 123.907 123.247 124.433C123.582 124.953 123.75 125.53 123.75 126.166H121.853C121.853 125.858 121.76 125.561 121.576 125.274C121.398 124.98 121.135 124.737 120.786 124.546C120.444 124.354 120.024 124.259 119.525 124.259C118.999 124.259 118.571 124.341 118.243 124.505C117.922 124.662 117.686 124.864 117.536 125.11C117.392 125.356 117.32 125.616 117.32 125.889C117.32 126.094 117.355 126.279 117.423 126.443C117.498 126.6 117.628 126.747 117.813 126.884C117.997 127.014 118.257 127.137 118.592 127.253C118.927 127.369 119.354 127.485 119.874 127.602C120.783 127.807 121.531 128.053 122.119 128.34C122.707 128.627 123.145 128.979 123.432 129.396C123.719 129.813 123.862 130.319 123.862 130.914C123.862 131.399 123.76 131.843 123.555 132.247C123.357 132.65 123.066 132.999 122.683 133.292C122.307 133.58 121.856 133.805 121.33 133.969C120.81 134.126 120.226 134.205 119.576 134.205C118.599 134.205 117.772 134.031 117.095 133.682C116.418 133.333 115.905 132.882 115.557 132.329C115.208 131.775 115.034 131.19 115.034 130.575H116.941C116.968 131.095 117.119 131.508 117.392 131.816C117.666 132.117 118.001 132.332 118.397 132.462C118.794 132.585 119.187 132.646 119.576 132.646C120.096 132.646 120.53 132.578 120.878 132.441C121.234 132.305 121.504 132.117 121.689 131.877C121.873 131.638 121.965 131.365 121.965 131.057ZM128.707 131.744V133.272C128.707 133.894 128.549 134.55 128.235 135.241C127.921 135.938 127.48 136.519 126.912 136.984L125.836 136.235C126.054 135.935 126.239 135.627 126.389 135.312C126.54 135.005 126.653 134.684 126.728 134.349C126.81 134.021 126.851 133.672 126.851 133.303V131.744H128.707ZM144.138 132.103V126.392C144.138 125.954 144.049 125.575 143.871 125.253C143.7 124.925 143.44 124.672 143.092 124.495C142.743 124.317 142.312 124.228 141.8 124.228C141.321 124.228 140.901 124.31 140.538 124.474C140.183 124.638 139.903 124.854 139.698 125.12C139.499 125.387 139.4 125.674 139.4 125.981H137.503C137.503 125.585 137.606 125.192 137.811 124.802C138.016 124.413 138.31 124.061 138.693 123.746C139.082 123.425 139.547 123.172 140.087 122.987C140.634 122.796 141.243 122.7 141.913 122.7C142.719 122.7 143.43 122.837 144.045 123.11C144.667 123.384 145.153 123.797 145.501 124.351C145.857 124.898 146.035 125.585 146.035 126.412V131.58C146.035 131.949 146.065 132.342 146.127 132.759C146.195 133.176 146.294 133.535 146.424 133.836V134H144.445C144.35 133.781 144.274 133.491 144.22 133.128C144.165 132.759 144.138 132.417 144.138 132.103ZM144.466 127.273L144.486 128.606H142.569C142.029 128.606 141.547 128.651 141.123 128.74C140.699 128.822 140.344 128.948 140.057 129.119C139.769 129.29 139.551 129.505 139.4 129.765C139.25 130.018 139.175 130.315 139.175 130.657C139.175 131.006 139.253 131.324 139.411 131.611C139.568 131.898 139.804 132.127 140.118 132.298C140.439 132.462 140.832 132.544 141.297 132.544C141.878 132.544 142.391 132.421 142.835 132.175C143.28 131.929 143.632 131.628 143.892 131.272C144.158 130.917 144.302 130.572 144.322 130.237L145.132 131.149C145.084 131.437 144.955 131.754 144.743 132.103C144.531 132.452 144.247 132.787 143.892 133.108C143.543 133.422 143.126 133.686 142.641 133.897C142.162 134.103 141.622 134.205 141.02 134.205C140.268 134.205 139.609 134.058 139.041 133.764C138.481 133.47 138.043 133.077 137.729 132.585C137.421 132.086 137.268 131.529 137.268 130.914C137.268 130.319 137.384 129.796 137.616 129.345C137.849 128.887 138.184 128.507 138.621 128.207C139.059 127.899 139.585 127.667 140.2 127.509C140.815 127.352 141.502 127.273 142.261 127.273H144.466ZM151.545 125.274V134H149.648V122.905H151.443L151.545 125.274ZM151.094 128.032L150.305 128.001C150.312 127.243 150.424 126.542 150.643 125.899C150.862 125.25 151.169 124.686 151.566 124.208C151.962 123.729 152.434 123.36 152.981 123.1C153.535 122.833 154.147 122.7 154.816 122.7C155.363 122.7 155.855 122.775 156.293 122.926C156.73 123.069 157.103 123.302 157.411 123.623C157.725 123.944 157.964 124.361 158.128 124.874C158.293 125.38 158.375 125.999 158.375 126.73V134H156.467V126.709C156.467 126.128 156.382 125.664 156.211 125.315C156.04 124.959 155.791 124.703 155.462 124.546C155.134 124.382 154.731 124.3 154.252 124.3C153.781 124.3 153.35 124.399 152.96 124.597C152.578 124.795 152.246 125.069 151.966 125.417C151.692 125.766 151.477 126.166 151.32 126.617C151.169 127.062 151.094 127.533 151.094 128.032ZM168.879 131.847V118.25H170.786V134H169.043L168.879 131.847ZM161.414 128.576V128.36C161.414 127.513 161.517 126.744 161.722 126.053C161.934 125.356 162.231 124.758 162.614 124.259C163.004 123.76 163.465 123.377 163.998 123.11C164.538 122.837 165.14 122.7 165.803 122.7C166.5 122.7 167.109 122.823 167.628 123.069C168.154 123.309 168.599 123.661 168.961 124.125C169.33 124.583 169.621 125.137 169.833 125.787C170.045 126.436 170.192 127.171 170.274 127.991V128.935C170.198 129.748 170.051 130.479 169.833 131.129C169.621 131.778 169.33 132.332 168.961 132.79C168.599 133.248 168.154 133.6 167.628 133.846C167.102 134.085 166.486 134.205 165.782 134.205C165.133 134.205 164.538 134.065 163.998 133.785C163.465 133.504 163.004 133.111 162.614 132.605C162.231 132.1 161.934 131.505 161.722 130.821C161.517 130.131 161.414 129.382 161.414 128.576ZM163.321 128.36V128.576C163.321 129.129 163.376 129.649 163.486 130.134C163.602 130.62 163.779 131.047 164.019 131.416C164.258 131.785 164.562 132.076 164.931 132.288C165.3 132.493 165.741 132.595 166.254 132.595C166.883 132.595 167.399 132.462 167.802 132.195C168.213 131.929 168.541 131.577 168.787 131.139C169.033 130.702 169.224 130.227 169.361 129.714V127.243C169.279 126.867 169.159 126.504 169.002 126.156C168.852 125.8 168.653 125.486 168.407 125.212C168.168 124.932 167.871 124.71 167.515 124.546C167.167 124.382 166.753 124.3 166.275 124.3C165.755 124.3 165.307 124.409 164.931 124.628C164.562 124.84 164.258 125.134 164.019 125.51C163.779 125.879 163.602 126.31 163.486 126.802C163.376 127.287 163.321 127.807 163.321 128.36ZM57.3535 155.646C57.8046 155.646 58.2216 155.554 58.6045 155.37C58.9873 155.185 59.3017 154.932 59.5478 154.611C59.7939 154.283 59.934 153.91 59.9682 153.493H61.7729C61.7387 154.149 61.5166 154.761 61.1064 155.329C60.7031 155.889 60.1733 156.344 59.5171 156.692C58.8608 157.034 58.1396 157.205 57.3535 157.205C56.5195 157.205 55.7915 157.058 55.1694 156.764C54.5542 156.47 54.0415 156.067 53.6313 155.554C53.228 155.042 52.9238 154.454 52.7187 153.791C52.5205 153.121 52.4213 152.413 52.4213 151.668V151.237C52.4213 150.492 52.5205 149.788 52.7187 149.125C52.9238 148.455 53.228 147.864 53.6313 147.351C54.0415 146.838 54.5542 146.435 55.1694 146.141C55.7915 145.847 56.5195 145.7 57.3535 145.7C58.2216 145.7 58.9804 145.878 59.6298 146.233C60.2793 146.582 60.7885 147.061 61.1577 147.669C61.5337 148.271 61.7387 148.954 61.7729 149.72H59.9682C59.934 149.262 59.8042 148.848 59.5786 148.479C59.3598 148.11 59.059 147.816 58.6762 147.597C58.3003 147.372 57.8593 147.259 57.3535 147.259C56.7724 147.259 56.2837 147.375 55.8872 147.607C55.4975 147.833 55.1865 148.141 54.9541 148.53C54.7285 148.913 54.5644 149.34 54.4619 149.812C54.3662 150.277 54.3183 150.752 54.3183 151.237V151.668C54.3183 152.153 54.3662 152.632 54.4619 153.104C54.5576 153.575 54.7182 154.002 54.9438 154.385C55.1762 154.768 55.4873 155.076 55.8769 155.308C56.2734 155.534 56.7656 155.646 57.3535 155.646ZM64.0333 151.576V151.34C64.0333 150.54 64.1495 149.798 64.3819 149.115C64.6143 148.424 64.9493 147.826 65.3868 147.32C65.8243 146.808 66.3541 146.411 66.9762 146.131C67.5982 145.844 68.2955 145.7 69.068 145.7C69.8472 145.7 70.5479 145.844 71.17 146.131C71.7989 146.411 72.3321 146.808 72.7696 147.32C73.2139 147.826 73.5523 148.424 73.7847 149.115C74.0172 149.798 74.1334 150.54 74.1334 151.34V151.576C74.1334 152.375 74.0172 153.117 73.7847 153.801C73.5523 154.484 73.2139 155.083 72.7696 155.595C72.3321 156.101 71.8023 156.498 71.1803 156.785C70.565 157.065 69.8678 157.205 69.0885 157.205C68.3092 157.205 67.6085 157.065 66.9864 156.785C66.3643 156.498 65.8311 156.101 65.3868 155.595C64.9493 155.083 64.6143 154.484 64.3819 153.801C64.1495 153.117 64.0333 152.375 64.0333 151.576ZM65.9303 151.34V151.576C65.9303 152.129 65.9952 152.652 66.1251 153.145C66.255 153.63 66.4498 154.061 66.7096 154.437C66.9762 154.812 67.3077 155.11 67.7042 155.329C68.1007 155.541 68.5621 155.646 69.0885 155.646C69.608 155.646 70.0626 155.541 70.4522 155.329C70.8487 155.11 71.1768 154.812 71.4366 154.437C71.6964 154.061 71.8912 153.63 72.0211 153.145C72.1578 152.652 72.2262 152.129 72.2262 151.576V151.34C72.2262 150.793 72.1578 150.277 72.0211 149.792C71.8912 149.299 71.693 148.865 71.4263 148.489C71.1666 148.106 70.8385 147.806 70.442 147.587C70.0523 147.368 69.5943 147.259 69.068 147.259C68.5484 147.259 68.0904 147.368 67.6939 147.587C67.3043 147.806 66.9762 148.106 66.7096 148.489C66.4498 148.865 66.255 149.299 66.1251 149.792C65.9952 150.277 65.9303 150.793 65.9303 151.34ZM79.9724 157H78.0754V144.736C78.0754 143.937 78.2189 143.263 78.5061 142.716C78.8 142.163 79.2204 141.746 79.7673 141.465C80.3142 141.178 80.9636 141.035 81.7155 141.035C81.9343 141.035 82.153 141.048 82.3718 141.076C82.5974 141.103 82.8161 141.144 83.028 141.199L82.9255 142.747C82.7819 142.713 82.6179 142.689 82.4333 142.675C82.2556 142.662 82.0778 142.655 81.9001 142.655C81.4968 142.655 81.1481 142.737 80.8542 142.901C80.5671 143.058 80.3483 143.291 80.198 143.598C80.0476 143.906 79.9724 144.285 79.9724 144.736V157ZM82.3308 145.905V147.361H76.322V145.905H82.3308ZM84.5706 151.576V151.34C84.5706 150.54 84.6868 149.798 84.9193 149.115C85.1517 148.424 85.4866 147.826 85.9241 147.32C86.3616 146.808 86.8914 146.411 87.5135 146.131C88.1356 145.844 88.8328 145.7 89.6053 145.7C90.3846 145.7 91.0853 145.844 91.7073 146.131C92.3363 146.411 92.8695 146.808 93.307 147.32C93.7513 147.826 94.0897 148.424 94.3221 149.115C94.5545 149.798 94.6707 150.54 94.6707 151.34V151.576C94.6707 152.375 94.5545 153.117 94.3221 153.801C94.0897 154.484 93.7513 155.083 93.307 155.595C92.8695 156.101 92.3397 156.498 91.7176 156.785C91.1024 157.065 90.4051 157.205 89.6258 157.205C88.8465 157.205 88.1458 157.065 87.5238 156.785C86.9017 156.498 86.3685 156.101 85.9241 155.595C85.4866 155.083 85.1517 154.484 84.9193 153.801C84.6868 153.117 84.5706 152.375 84.5706 151.576ZM86.4676 151.34V151.576C86.4676 152.129 86.5325 152.652 86.6624 153.145C86.7923 153.63 86.9871 154.061 87.2469 154.437C87.5135 154.812 87.845 155.11 88.2415 155.329C88.638 155.541 89.0994 155.646 89.6258 155.646C90.1453 155.646 90.5999 155.541 90.9896 155.329C91.3861 155.11 91.7142 154.812 91.9739 154.437C92.2337 154.061 92.4285 153.63 92.5584 153.145C92.6951 152.652 92.7635 152.129 92.7635 151.576V151.34C92.7635 150.793 92.6951 150.277 92.5584 149.792C92.4285 149.299 92.2303 148.865 91.9637 148.489C91.7039 148.106 91.3758 147.806 90.9793 147.587C90.5897 147.368 90.1317 147.259 89.6053 147.259C89.0858 147.259 88.6278 147.368 88.2313 147.587C87.8416 147.806 87.5135 148.106 87.2469 148.489C86.9871 148.865 86.7923 149.299 86.6624 149.792C86.5325 150.277 86.4676 150.793 86.4676 151.34ZM104.468 154.437V145.905H106.375V157H104.56L104.468 154.437ZM104.827 152.099L105.616 152.078C105.616 152.816 105.538 153.5 105.38 154.129C105.23 154.751 104.984 155.291 104.642 155.749C104.3 156.207 103.852 156.566 103.299 156.826C102.745 157.079 102.072 157.205 101.279 157.205C100.739 157.205 100.243 157.126 99.7919 156.969C99.3476 156.812 98.9648 156.569 98.6435 156.241C98.3222 155.913 98.0727 155.486 97.895 154.959C97.7241 154.433 97.6386 153.801 97.6386 153.062V145.905H99.5356V153.083C99.5356 153.582 99.5903 153.996 99.6996 154.324C99.8159 154.645 99.9697 154.901 100.161 155.093C100.359 155.277 100.578 155.407 100.817 155.482C101.063 155.558 101.316 155.595 101.576 155.595C102.383 155.595 103.022 155.441 103.494 155.134C103.965 154.819 104.304 154.399 104.509 153.873C104.721 153.339 104.827 152.748 104.827 152.099ZM111.794 148.274V157H109.897V145.905H111.691L111.794 148.274ZM111.342 151.032L110.553 151.001C110.56 150.243 110.672 149.542 110.891 148.899C111.11 148.25 111.418 147.686 111.814 147.208C112.211 146.729 112.682 146.36 113.229 146.1C113.783 145.833 114.395 145.7 115.065 145.7C115.611 145.7 116.104 145.775 116.541 145.926C116.979 146.069 117.351 146.302 117.659 146.623C117.973 146.944 118.212 147.361 118.377 147.874C118.541 148.38 118.623 148.999 118.623 149.73V157H116.715V149.709C116.715 149.128 116.63 148.664 116.459 148.315C116.288 147.959 116.039 147.703 115.711 147.546C115.382 147.382 114.979 147.3 114.501 147.3C114.029 147.3 113.598 147.399 113.209 147.597C112.826 147.795 112.494 148.069 112.214 148.417C111.94 148.766 111.725 149.166 111.568 149.617C111.418 150.062 111.342 150.533 111.342 151.032ZM129.127 154.847V141.25H131.034V157H129.291L129.127 154.847ZM121.662 151.576V151.36C121.662 150.513 121.765 149.744 121.97 149.053C122.182 148.356 122.479 147.758 122.862 147.259C123.252 146.76 123.713 146.377 124.246 146.11C124.786 145.837 125.388 145.7 126.051 145.7C126.748 145.7 127.357 145.823 127.876 146.069C128.403 146.309 128.847 146.661 129.209 147.125C129.578 147.583 129.869 148.137 130.081 148.787C130.293 149.436 130.44 150.171 130.522 150.991V151.935C130.446 152.748 130.299 153.479 130.081 154.129C129.869 154.778 129.578 155.332 129.209 155.79C128.847 156.248 128.403 156.6 127.876 156.846C127.35 157.085 126.735 157.205 126.03 157.205C125.381 157.205 124.786 157.065 124.246 156.785C123.713 156.504 123.252 156.111 122.862 155.605C122.479 155.1 122.182 154.505 121.97 153.821C121.765 153.131 121.662 152.382 121.662 151.576ZM123.57 151.36V151.576C123.57 152.129 123.624 152.649 123.734 153.134C123.85 153.62 124.028 154.047 124.267 154.416C124.506 154.785 124.81 155.076 125.179 155.288C125.549 155.493 125.989 155.595 126.502 155.595C127.131 155.595 127.647 155.462 128.05 155.195C128.461 154.929 128.789 154.577 129.035 154.139C129.281 153.702 129.472 153.227 129.609 152.714V150.243C129.527 149.867 129.407 149.504 129.25 149.156C129.1 148.8 128.902 148.486 128.655 148.212C128.416 147.932 128.119 147.71 127.763 147.546C127.415 147.382 127.001 147.3 126.523 147.3C126.003 147.3 125.555 147.409 125.179 147.628C124.81 147.84 124.506 148.134 124.267 148.51C124.028 148.879 123.85 149.31 123.734 149.802C123.624 150.287 123.57 150.807 123.57 151.36ZM139.221 157.205C138.449 157.205 137.748 157.075 137.119 156.815C136.497 156.549 135.961 156.176 135.51 155.698C135.065 155.219 134.723 154.652 134.484 153.996C134.245 153.339 134.125 152.622 134.125 151.842V151.412C134.125 150.509 134.259 149.706 134.525 149.002C134.792 148.291 135.154 147.689 135.612 147.197C136.07 146.705 136.59 146.333 137.171 146.08C137.752 145.827 138.353 145.7 138.975 145.7C139.768 145.7 140.452 145.837 141.026 146.11C141.607 146.384 142.082 146.767 142.451 147.259C142.821 147.744 143.094 148.318 143.272 148.981C143.45 149.638 143.538 150.355 143.538 151.135V151.986H135.253V150.438H141.641V150.294C141.614 149.802 141.512 149.323 141.334 148.858C141.163 148.394 140.889 148.011 140.513 147.71C140.138 147.409 139.625 147.259 138.975 147.259C138.545 147.259 138.148 147.351 137.786 147.536C137.424 147.713 137.113 147.98 136.853 148.335C136.593 148.691 136.391 149.125 136.248 149.638C136.104 150.15 136.033 150.742 136.033 151.412V151.842C136.033 152.369 136.104 152.864 136.248 153.329C136.398 153.787 136.614 154.19 136.894 154.539C137.181 154.888 137.526 155.161 137.93 155.359C138.34 155.558 138.805 155.657 139.324 155.657C139.994 155.657 140.561 155.52 141.026 155.247C141.491 154.973 141.898 154.607 142.246 154.149L143.395 155.062C143.156 155.424 142.851 155.77 142.482 156.098C142.113 156.426 141.659 156.692 141.118 156.897C140.585 157.103 139.953 157.205 139.221 157.205ZM148.28 147.648V157H146.383V145.905H148.229L148.28 147.648ZM151.746 145.844L151.736 147.607C151.579 147.573 151.428 147.553 151.285 147.546C151.148 147.532 150.991 147.525 150.813 147.525C150.375 147.525 149.989 147.594 149.654 147.73C149.319 147.867 149.036 148.059 148.803 148.305C148.571 148.551 148.386 148.845 148.249 149.187C148.12 149.521 148.034 149.891 147.993 150.294L147.46 150.602C147.46 149.932 147.525 149.303 147.655 148.715C147.791 148.127 148 147.607 148.28 147.156C148.56 146.698 148.916 146.343 149.347 146.09C149.784 145.83 150.304 145.7 150.905 145.7C151.042 145.7 151.199 145.717 151.377 145.751C151.555 145.779 151.678 145.81 151.746 145.844ZM160.589 154.057C160.589 153.784 160.528 153.531 160.405 153.298C160.289 153.059 160.046 152.844 159.677 152.652C159.314 152.454 158.768 152.283 158.036 152.14C157.421 152.01 156.864 151.856 156.365 151.678C155.873 151.5 155.452 151.285 155.104 151.032C154.762 150.779 154.499 150.482 154.314 150.14C154.129 149.798 154.037 149.398 154.037 148.94C154.037 148.503 154.133 148.089 154.324 147.7C154.522 147.31 154.799 146.965 155.155 146.664C155.517 146.363 155.951 146.127 156.457 145.957C156.963 145.786 157.527 145.7 158.149 145.7C159.038 145.7 159.796 145.857 160.425 146.172C161.054 146.486 161.536 146.907 161.871 147.433C162.206 147.953 162.374 148.53 162.374 149.166H160.477C160.477 148.858 160.384 148.561 160.2 148.274C160.022 147.98 159.759 147.737 159.41 147.546C159.068 147.354 158.648 147.259 158.149 147.259C157.623 147.259 157.195 147.341 156.867 147.505C156.546 147.662 156.31 147.864 156.16 148.11C156.016 148.356 155.944 148.616 155.944 148.889C155.944 149.094 155.979 149.279 156.047 149.443C156.122 149.6 156.252 149.747 156.437 149.884C156.621 150.014 156.881 150.137 157.216 150.253C157.551 150.369 157.978 150.485 158.498 150.602C159.407 150.807 160.155 151.053 160.743 151.34C161.331 151.627 161.769 151.979 162.056 152.396C162.343 152.813 162.486 153.319 162.486 153.914C162.486 154.399 162.384 154.843 162.179 155.247C161.98 155.65 161.69 155.999 161.307 156.292C160.931 156.58 160.48 156.805 159.954 156.969C159.434 157.126 158.85 157.205 158.2 157.205C157.223 157.205 156.396 157.031 155.719 156.682C155.042 156.333 154.529 155.882 154.181 155.329C153.832 154.775 153.658 154.19 153.658 153.575H155.565C155.592 154.095 155.743 154.508 156.016 154.816C156.29 155.117 156.625 155.332 157.021 155.462C157.418 155.585 157.811 155.646 158.2 155.646C158.72 155.646 159.154 155.578 159.502 155.441C159.858 155.305 160.128 155.117 160.313 154.877C160.497 154.638 160.589 154.365 160.589 154.057Z" fill="#363636"/>
<path d="M58.663 75H54.9481L54.9716 72.2578H58.663C59.5848 72.2578 60.3622 72.0508 60.995 71.6367C61.6278 71.2148 62.1044 70.6016 62.4247 69.7969C62.7528 68.9922 62.9169 68.0195 62.9169 66.8789V66.0469C62.9169 65.1719 62.8231 64.4023 62.6356 63.7383C62.4559 63.0742 62.1864 62.5156 61.827 62.0625C61.4677 61.6094 61.0262 61.2695 60.5028 61.043C59.9794 60.8086 59.3778 60.6914 58.6981 60.6914H54.8778V57.9375H58.6981C59.8387 57.9375 60.8817 58.1328 61.827 58.5234C62.7802 58.9062 63.6044 59.457 64.2997 60.1758C64.995 60.8945 65.5302 61.7539 65.9052 62.7539C66.288 63.7461 66.4794 64.8516 66.4794 66.0703V66.8789C66.4794 68.0898 66.288 69.1953 65.9052 70.1953C65.5302 71.1953 64.995 72.0547 64.2997 72.7734C63.6122 73.4844 62.788 74.0352 61.827 74.4258C60.8739 74.8086 59.8192 75 58.663 75ZM56.9403 57.9375V75H53.4247V57.9375H56.9403ZM75.3791 75.2344C74.3947 75.2344 73.5119 75.0781 72.7306 74.7656C71.9494 74.4453 71.2853 74.0039 70.7384 73.4414C70.1994 72.8789 69.7853 72.2266 69.4962 71.4844C69.2072 70.7344 69.0627 69.9375 69.0627 69.0938V68.625C69.0627 67.6641 69.1994 66.7852 69.4728 65.9883C69.7462 65.1914 70.1369 64.5 70.6447 63.9141C71.1603 63.3281 71.7853 62.8789 72.5197 62.5664C73.2541 62.2461 74.0822 62.0859 75.0041 62.0859C75.9025 62.0859 76.6994 62.2344 77.3947 62.5312C78.09 62.8281 78.672 63.25 79.1408 63.7969C79.6173 64.3438 79.9767 65 80.2189 65.7656C80.4611 66.5234 80.5822 67.3672 80.5822 68.2969V69.7031H70.5041V67.4531H77.2658V67.1953C77.2658 66.7266 77.1798 66.3086 77.008 65.9414C76.8439 65.5664 76.5939 65.2695 76.258 65.0508C75.922 64.832 75.4923 64.7227 74.9689 64.7227C74.5236 64.7227 74.1408 64.8203 73.8205 65.0156C73.5002 65.2109 73.2384 65.4844 73.0353 65.8359C72.84 66.1875 72.6916 66.6016 72.59 67.0781C72.4962 67.5469 72.4494 68.0625 72.4494 68.625V69.0938C72.4494 69.6016 72.5197 70.0703 72.6603 70.5C72.8087 70.9297 73.0158 71.3008 73.2814 71.6133C73.5548 71.9258 73.883 72.168 74.2658 72.3398C74.6564 72.5117 75.0978 72.5977 75.59 72.5977C76.1994 72.5977 76.7658 72.4805 77.2892 72.2461C77.8205 72.0039 78.2775 71.6406 78.6603 71.1562L80.3009 72.9375C80.0353 73.3203 79.672 73.6875 79.2111 74.0391C78.758 74.3906 78.2111 74.6797 77.5705 74.9062C76.9298 75.125 76.1994 75.2344 75.3791 75.2344ZM90.0678 72.1406V66.4922C90.0678 66.0859 90.0014 65.7383 89.8686 65.4492C89.7358 65.1523 89.5287 64.9219 89.2475 64.7578C88.9741 64.5938 88.6186 64.5117 88.1811 64.5117C87.8061 64.5117 87.4819 64.5781 87.2084 64.7109C86.935 64.8359 86.7241 65.0195 86.5756 65.2617C86.4272 65.4961 86.353 65.7734 86.353 66.0938H82.978C82.978 65.5547 83.103 65.043 83.353 64.5586C83.603 64.0742 83.9662 63.6484 84.4428 63.2812C84.9194 62.9062 85.4858 62.6133 86.142 62.4023C86.8061 62.1914 87.5483 62.0859 88.3686 62.0859C89.353 62.0859 90.228 62.25 90.9936 62.5781C91.7592 62.9062 92.3608 63.3984 92.7983 64.0547C93.2436 64.7109 93.4662 65.5312 93.4662 66.5156V71.9414C93.4662 72.6367 93.5092 73.207 93.5952 73.6523C93.6811 74.0898 93.8061 74.4727 93.9702 74.8008V75H90.56C90.3959 74.6562 90.2709 74.2266 90.185 73.7109C90.1069 73.1875 90.0678 72.6641 90.0678 72.1406ZM90.5131 67.2773L90.5366 69.1875H88.6498C88.2045 69.1875 87.8178 69.2383 87.4897 69.3398C87.1616 69.4414 86.892 69.5859 86.6811 69.7734C86.4702 69.9531 86.3139 70.1641 86.2123 70.4062C86.1186 70.6484 86.0717 70.9141 86.0717 71.2031C86.0717 71.4922 86.1381 71.7539 86.2709 71.9883C86.4037 72.2148 86.5952 72.3945 86.8452 72.5273C87.0952 72.6523 87.3881 72.7148 87.7241 72.7148C88.2319 72.7148 88.6733 72.6133 89.0483 72.4102C89.4233 72.207 89.7123 71.957 89.9155 71.6602C90.1264 71.3633 90.2358 71.082 90.2436 70.8164L91.1342 72.2461C91.0092 72.5664 90.8373 72.8984 90.6186 73.2422C90.4077 73.5859 90.1381 73.9102 89.81 74.2148C89.4819 74.5117 89.0873 74.7578 88.6264 74.9531C88.1655 75.1406 87.6186 75.2344 86.9858 75.2344C86.1811 75.2344 85.4506 75.0742 84.7944 74.7539C84.1459 74.4258 83.6303 73.9766 83.2475 73.4062C82.8725 72.8281 82.685 72.1719 82.685 71.4375C82.685 70.7734 82.81 70.1836 83.06 69.668C83.31 69.1523 83.6772 68.7188 84.1616 68.3672C84.6537 68.0078 85.267 67.7383 86.0014 67.5586C86.7358 67.3711 87.5873 67.2773 88.5561 67.2773H90.5131ZM100.35 57V75H96.9636V57H100.35ZM114.283 57.9375V75H110.767V57.9375H114.283ZM121.079 65.2266V67.9688H113.322V65.2266H121.079ZM121.9 57.9375V60.6914H113.322V57.9375H121.9ZM128.01 57V75H124.624V57H128.01ZM130.98 68.7891V68.543C130.98 67.6133 131.113 66.7578 131.379 65.9766C131.644 65.1875 132.031 64.5039 132.539 63.9258C133.047 63.3477 133.672 62.8984 134.414 62.5781C135.156 62.25 136.008 62.0859 136.969 62.0859C137.93 62.0859 138.785 62.25 139.535 62.5781C140.285 62.8984 140.914 63.3477 141.422 63.9258C141.937 64.5039 142.328 65.1875 142.594 65.9766C142.859 66.7578 142.992 67.6133 142.992 68.543V68.7891C142.992 69.7109 142.859 70.5664 142.594 71.3555C142.328 72.1367 141.937 72.8203 141.422 73.4062C140.914 73.9844 140.289 74.4336 139.547 74.7539C138.805 75.0742 137.953 75.2344 136.992 75.2344C136.031 75.2344 135.176 75.0742 134.426 74.7539C133.683 74.4336 133.055 73.9844 132.539 73.4062C132.031 72.8203 131.644 72.1367 131.379 71.3555C131.113 70.5664 130.98 69.7109 130.98 68.7891ZM134.355 68.543V68.7891C134.355 69.3203 134.402 69.8164 134.496 70.2773C134.59 70.7383 134.738 71.1445 134.941 71.4961C135.152 71.8398 135.426 72.1094 135.762 72.3047C136.098 72.5 136.508 72.5977 136.992 72.5977C137.461 72.5977 137.863 72.5 138.199 72.3047C138.535 72.1094 138.805 71.8398 139.008 71.4961C139.211 71.1445 139.359 70.7383 139.453 70.2773C139.555 69.8164 139.605 69.3203 139.605 68.7891V68.543C139.605 68.0273 139.555 67.543 139.453 67.0898C139.359 66.6289 139.207 66.2227 138.996 65.8711C138.793 65.5117 138.523 65.2305 138.187 65.0273C137.851 64.8242 137.445 64.7227 136.969 64.7227C136.492 64.7227 136.086 64.8242 135.75 65.0273C135.422 65.2305 135.152 65.5117 134.941 65.8711C134.738 66.2227 134.59 66.6289 134.496 67.0898C134.402 67.543 134.355 68.0273 134.355 68.543ZM149.407 71.7188L152.044 62.3203H154.189L153.497 66.0117L150.86 75H149.068L149.407 71.7188ZM148.071 62.3203L149.958 71.707L150.134 75H148.025L144.814 62.3203H148.071ZM156.603 71.5547L158.443 62.3203H161.712L158.501 75H156.403L156.603 71.5547ZM154.482 62.3203L157.107 71.6484L157.47 75H155.665L153.028 66.0234L152.36 62.3203H154.482Z" fill="#114DFF"/>
<path d="M113.125 24.5H111.743L111.253 24.0275C113.027 21.9696 114.002 19.3422 114 16.625C114 14.3752 113.333 12.176 112.083 10.3054C110.833 8.43478 109.057 6.97682 106.978 6.11588C104.9 5.25493 102.612 5.02967 100.406 5.46857C98.1993 5.90748 96.1725 6.99084 94.5817 8.58167C92.9908 10.1725 91.9075 12.1993 91.4686 14.4059C91.0297 16.6124 91.2549 18.8995 92.1159 20.978C92.9768 23.0565 94.4348 24.8331 96.3054 26.083C98.176 27.3329 100.375 28 102.625 28C105.443 28 108.033 26.9675 110.028 25.2525L110.5 25.7425V27.125L119.25 35.8575L121.858 33.25L113.125 24.5ZM102.625 24.5C98.2675 24.5 94.75 20.9825 94.75 16.625C94.75 12.2675 98.2675 8.75001 102.625 8.75001C106.983 8.75001 110.5 12.2675 110.5 16.625C110.5 20.9825 106.983 24.5 102.625 24.5Z" fill="#3CE5A7"/>
</svg>
