<svg width="215" height="243" viewBox="0 0 215 243" fill="none" xmlns="http://www.w3.org/2000/svg">
<path d="M25.7563 104.017H21.9726L21.9521 102.428H25.3871C25.9545 102.428 26.4501 102.332 26.8739 102.141C27.2978 101.949 27.6259 101.676 27.8583 101.32C28.0976 100.958 28.2172 100.527 28.2172 100.028C28.2172 99.4814 28.1113 99.0371 27.8993 98.6953C27.6943 98.3467 27.3764 98.0938 26.9457 97.9365C26.5219 97.7725 25.9819 97.6904 25.3256 97.6904H22.4135V111H20.4345V96.0703H25.3256C26.0912 96.0703 26.7748 96.1489 27.3764 96.3062C27.978 96.4565 28.4872 96.6958 28.9042 97.0239C29.328 97.3452 29.6493 97.7554 29.8681 98.2544C30.0868 98.7534 30.1962 99.3516 30.1962 100.049C30.1962 100.664 30.039 101.221 29.7245 101.72C29.4101 102.212 28.9726 102.616 28.412 102.93C27.8583 103.245 27.2089 103.446 26.4638 103.535L25.7563 104.017ZM25.664 111H21.1933L22.311 109.39H25.664C26.2929 109.39 26.8261 109.281 27.2636 109.062C27.7079 108.843 28.0463 108.536 28.2787 108.139C28.5112 107.736 28.6274 107.261 28.6274 106.714C28.6274 106.16 28.5282 105.682 28.33 105.278C28.1318 104.875 27.8207 104.564 27.3969 104.345C26.9731 104.126 26.4262 104.017 25.7563 104.017H22.9364L22.957 102.428H26.8124L27.2328 103.002C27.9506 103.063 28.559 103.269 29.058 103.617C29.5571 103.959 29.9364 104.396 30.1962 104.93C30.4628 105.463 30.5961 106.051 30.5961 106.693C30.5961 107.623 30.391 108.409 29.9809 109.052C29.5776 109.688 29.0068 110.173 28.2685 110.508C27.5302 110.836 26.662 111 25.664 111ZM38.4654 111.205C37.6929 111.205 36.9922 111.075 36.3633 110.815C35.7413 110.549 35.2046 110.176 34.7535 109.698C34.3091 109.219 33.9673 108.652 33.7281 107.996C33.4888 107.339 33.3692 106.622 33.3692 105.842V105.412C33.3692 104.509 33.5025 103.706 33.7691 103.002C34.0357 102.291 34.398 101.689 34.856 101.197C35.314 100.705 35.8335 100.333 36.4146 100.08C36.9956 99.8267 37.5972 99.7002 38.2193 99.7002C39.0122 99.7002 39.6958 99.8369 40.2701 100.11C40.8511 100.384 41.3262 100.767 41.6954 101.259C42.0645 101.744 42.3379 102.318 42.5157 102.981C42.6934 103.638 42.7823 104.355 42.7823 105.135V105.986H34.4971V104.438H40.8853V104.294C40.858 103.802 40.7554 103.323 40.5777 102.858C40.4068 102.394 40.1333 102.011 39.7574 101.71C39.3814 101.409 38.8687 101.259 38.2193 101.259C37.7886 101.259 37.3921 101.351 37.0298 101.536C36.6675 101.713 36.3565 101.98 36.0967 102.335C35.837 102.691 35.6353 103.125 35.4917 103.638C35.3482 104.15 35.2764 104.742 35.2764 105.412V105.842C35.2764 106.369 35.3482 106.864 35.4917 107.329C35.6421 107.787 35.8575 108.19 36.1377 108.539C36.4248 108.888 36.7701 109.161 37.1734 109.359C37.5835 109.558 38.0484 109.657 38.5679 109.657C39.2378 109.657 39.8052 109.52 40.2701 109.247C40.7349 108.973 41.1416 108.607 41.4903 108.149L42.6387 109.062C42.3995 109.424 42.0953 109.77 41.7261 110.098C41.357 110.426 40.9024 110.692 40.3623 110.897C39.8291 111.103 39.1968 111.205 38.4654 111.205ZM57.9261 108.057C57.9261 107.784 57.8645 107.531 57.7415 107.298C57.6253 107.059 57.3826 106.844 57.0135 106.652C56.6512 106.454 56.1043 106.283 55.3728 106.14C54.7576 106.01 54.2005 105.856 53.7014 105.678C53.2093 105.5 52.7888 105.285 52.4402 105.032C52.0984 104.779 51.8352 104.482 51.6507 104.14C51.4661 103.798 51.3738 103.398 51.3738 102.94C51.3738 102.503 51.4695 102.089 51.6609 101.7C51.8592 101.31 52.136 100.965 52.4915 100.664C52.8538 100.363 53.2879 100.127 53.7937 99.9565C54.2996 99.7856 54.8636 99.7002 55.4856 99.7002C56.3743 99.7002 57.1331 99.8574 57.762 100.172C58.3909 100.486 58.8728 100.907 59.2078 101.433C59.5428 101.953 59.7102 102.53 59.7102 103.166H57.8133C57.8133 102.858 57.721 102.561 57.5364 102.274C57.3587 101.98 57.0955 101.737 56.7469 101.546C56.4051 101.354 55.9846 101.259 55.4856 101.259C54.9593 101.259 54.532 101.341 54.2039 101.505C53.8826 101.662 53.6468 101.864 53.4964 102.11C53.3528 102.356 53.281 102.616 53.281 102.889C53.281 103.094 53.3152 103.279 53.3836 103.443C53.4588 103.6 53.5887 103.747 53.7732 103.884C53.9578 104.014 54.2176 104.137 54.5525 104.253C54.8875 104.369 55.3147 104.485 55.8343 104.602C56.7434 104.807 57.492 105.053 58.0799 105.34C58.6678 105.627 59.1053 105.979 59.3924 106.396C59.6795 106.813 59.823 107.319 59.823 107.914C59.823 108.399 59.7205 108.843 59.5154 109.247C59.3172 109.65 59.0266 109.999 58.6438 110.292C58.2679 110.58 57.8167 110.805 57.2903 110.969C56.7708 111.126 56.1863 111.205 55.5369 111.205C54.5594 111.205 53.7322 111.031 53.0555 110.682C52.3787 110.333 51.866 109.882 51.5174 109.329C51.1687 108.775 50.9944 108.19 50.9944 107.575H52.9016C52.929 108.095 53.0794 108.508 53.3528 108.816C53.6263 109.117 53.9612 109.332 54.3577 109.462C54.7542 109.585 55.1472 109.646 55.5369 109.646C56.0564 109.646 56.4905 109.578 56.8391 109.441C57.1946 109.305 57.4646 109.117 57.6492 108.877C57.8338 108.638 57.9261 108.365 57.9261 108.057ZM64.8417 102.038V115.266H62.9345V99.9053H64.6776L64.8417 102.038ZM72.3168 105.36V105.576C72.3168 106.382 72.2211 107.131 72.0297 107.821C71.8383 108.505 71.558 109.1 71.1889 109.605C70.8266 110.111 70.3788 110.504 69.8456 110.785C69.3124 111.065 68.7006 111.205 68.0102 111.205C67.3061 111.205 66.684 111.089 66.1439 110.856C65.6039 110.624 65.1459 110.286 64.7699 109.841C64.3939 109.397 64.0932 108.864 63.8676 108.242C63.6488 107.62 63.4984 106.919 63.4164 106.14V104.991C63.4984 104.171 63.6522 103.436 63.8778 102.787C64.1034 102.137 64.4008 101.583 64.7699 101.125C65.1459 100.661 65.6005 100.309 66.1337 100.069C66.6669 99.8232 67.2821 99.7002 67.9794 99.7002C68.6767 99.7002 69.2953 99.8369 69.8354 100.11C70.3754 100.377 70.83 100.76 71.1991 101.259C71.5683 101.758 71.8451 102.356 72.0297 103.053C72.2211 103.744 72.3168 104.513 72.3168 105.36ZM70.4096 105.576V105.36C70.4096 104.807 70.3515 104.287 70.2353 103.802C70.119 103.31 69.9379 102.879 69.6918 102.51C69.4525 102.134 69.1449 101.84 68.7689 101.628C68.393 101.409 67.9452 101.3 67.4257 101.3C66.9472 101.3 66.5302 101.382 66.1747 101.546C65.8261 101.71 65.5287 101.932 65.2826 102.212C65.0365 102.486 64.8349 102.8 64.6776 103.156C64.5272 103.504 64.4145 103.867 64.3393 104.243V106.898C64.476 107.377 64.6674 107.828 64.9135 108.252C65.1596 108.669 65.4877 109.007 65.8979 109.267C66.308 109.52 66.8241 109.646 67.4462 109.646C67.9589 109.646 68.3998 109.541 68.7689 109.329C69.1449 109.11 69.4525 108.812 69.6918 108.437C69.9379 108.061 70.119 107.63 70.2353 107.145C70.3515 106.652 70.4096 106.129 70.4096 105.576ZM74.8643 105.576V105.34C74.8643 104.54 74.9805 103.798 75.2129 103.115C75.4453 102.424 75.7803 101.826 76.2178 101.32C76.6553 100.808 77.1851 100.411 77.8072 100.131C78.4292 99.8438 79.1265 99.7002 79.8989 99.7002C80.6782 99.7002 81.3789 99.8438 82.001 100.131C82.6299 100.411 83.1631 100.808 83.6006 101.32C84.0449 101.826 84.3833 102.424 84.6157 103.115C84.8482 103.798 84.9644 104.54 84.9644 105.34V105.576C84.9644 106.375 84.8482 107.117 84.6157 107.801C84.3833 108.484 84.0449 109.083 83.6006 109.595C83.1631 110.101 82.6333 110.498 82.0113 110.785C81.396 111.065 80.6988 111.205 79.9195 111.205C79.1402 111.205 78.4395 111.065 77.8174 110.785C77.1953 110.498 76.6621 110.101 76.2178 109.595C75.7803 109.083 75.4453 108.484 75.2129 107.801C74.9805 107.117 74.8643 106.375 74.8643 105.576ZM76.7613 105.34V105.576C76.7613 106.129 76.8262 106.652 76.9561 107.145C77.086 107.63 77.2808 108.061 77.5406 108.437C77.8072 108.812 78.1387 109.11 78.5352 109.329C78.9317 109.541 79.3931 109.646 79.9195 109.646C80.439 109.646 80.8936 109.541 81.2832 109.329C81.6797 109.11 82.0078 108.812 82.2676 108.437C82.5274 108.061 82.7222 107.63 82.8521 107.145C82.9888 106.652 83.0572 106.129 83.0572 105.576V105.34C83.0572 104.793 82.9888 104.277 82.8521 103.792C82.7222 103.299 82.5239 102.865 82.2573 102.489C81.9976 102.106 81.6695 101.806 81.273 101.587C80.8833 101.368 80.4253 101.259 79.8989 101.259C79.3794 101.259 78.9214 101.368 78.5249 101.587C78.1353 101.806 77.8072 102.106 77.5406 102.489C77.2808 102.865 77.086 103.299 76.9561 103.792C76.8262 104.277 76.7613 104.793 76.7613 105.34ZM92.6183 99.9053V101.361H86.6198V99.9053H92.6183ZM88.65 97.2085H90.547V108.252C90.547 108.628 90.6051 108.912 90.7213 109.103C90.8375 109.294 90.9879 109.421 91.1725 109.482C91.3571 109.544 91.5553 109.575 91.7672 109.575C91.9245 109.575 92.0885 109.561 92.2594 109.534C92.4371 109.5 92.5704 109.472 92.6593 109.452L92.6696 111C92.5192 111.048 92.3209 111.092 92.0748 111.133C91.8356 111.181 91.5451 111.205 91.2033 111.205C90.7384 111.205 90.3112 111.113 89.9215 110.928C89.5319 110.744 89.2208 110.436 88.9884 110.005C88.7628 109.568 88.65 108.98 88.65 108.242V97.2085ZM97.5344 95.25V111H95.6272V95.25H97.5344ZM103.271 99.9053V111H101.364V99.9053H103.271ZM101.22 96.9624C101.22 96.6548 101.312 96.395 101.497 96.1831C101.688 95.9712 101.969 95.8652 102.338 95.8652C102.7 95.8652 102.977 95.9712 103.168 96.1831C103.367 96.395 103.466 96.6548 103.466 96.9624C103.466 97.2563 103.367 97.5093 103.168 97.7212C102.977 97.9263 102.7 98.0288 102.338 98.0288C101.969 98.0288 101.688 97.9263 101.497 97.7212C101.312 97.5093 101.22 97.2563 101.22 96.9624ZM114.134 99.9053H115.857V110.764C115.857 111.742 115.659 112.576 115.262 113.266C114.866 113.957 114.312 114.479 113.601 114.835C112.897 115.197 112.083 115.378 111.161 115.378C110.778 115.378 110.327 115.317 109.807 115.194C109.294 115.078 108.789 114.876 108.29 114.589C107.797 114.309 107.384 113.929 107.049 113.451L108.043 112.323C108.508 112.883 108.994 113.273 109.5 113.492C110.012 113.71 110.518 113.82 111.017 113.82C111.619 113.82 112.138 113.707 112.576 113.481C113.013 113.256 113.352 112.921 113.591 112.477C113.837 112.039 113.96 111.499 113.96 110.856V102.346L114.134 99.9053ZM106.495 105.576V105.36C106.495 104.513 106.594 103.744 106.792 103.053C106.998 102.356 107.288 101.758 107.664 101.259C108.047 100.76 108.508 100.377 109.048 100.11C109.588 99.8369 110.197 99.7002 110.874 99.7002C111.571 99.7002 112.179 99.8232 112.699 100.069C113.225 100.309 113.669 100.661 114.032 101.125C114.401 101.583 114.691 102.137 114.903 102.787C115.115 103.436 115.262 104.171 115.344 104.991V105.935C115.269 106.748 115.122 107.479 114.903 108.129C114.691 108.778 114.401 109.332 114.032 109.79C113.669 110.248 113.225 110.6 112.699 110.846C112.172 111.085 111.557 111.205 110.853 111.205C110.19 111.205 109.588 111.065 109.048 110.785C108.515 110.504 108.057 110.111 107.674 109.605C107.292 109.1 106.998 108.505 106.792 107.821C106.594 107.131 106.495 106.382 106.495 105.576ZM108.392 105.36V105.576C108.392 106.129 108.447 106.649 108.556 107.134C108.672 107.62 108.847 108.047 109.079 108.416C109.318 108.785 109.623 109.076 109.992 109.288C110.361 109.493 110.802 109.595 111.314 109.595C111.943 109.595 112.463 109.462 112.873 109.195C113.283 108.929 113.608 108.577 113.847 108.139C114.093 107.702 114.285 107.227 114.421 106.714V104.243C114.346 103.867 114.23 103.504 114.073 103.156C113.922 102.8 113.724 102.486 113.478 102.212C113.239 101.932 112.941 101.71 112.586 101.546C112.23 101.382 111.813 101.3 111.335 101.3C110.815 101.3 110.368 101.409 109.992 101.628C109.623 101.84 109.318 102.134 109.079 102.51C108.847 102.879 108.672 103.31 108.556 103.802C108.447 104.287 108.392 104.807 108.392 105.36ZM121.265 95.25V111H119.368V95.25H121.265ZM120.814 105.032L120.025 105.001C120.031 104.243 120.144 103.542 120.363 102.899C120.582 102.25 120.889 101.686 121.286 101.208C121.682 100.729 122.154 100.36 122.701 100.1C123.255 99.8335 123.866 99.7002 124.536 99.7002C125.083 99.7002 125.575 99.7754 126.013 99.9258C126.45 100.069 126.823 100.302 127.13 100.623C127.445 100.944 127.684 101.361 127.848 101.874C128.012 102.38 128.094 102.999 128.094 103.73V111H126.187V103.709C126.187 103.128 126.102 102.664 125.931 102.315C125.76 101.959 125.51 101.703 125.182 101.546C124.854 101.382 124.451 101.3 123.972 101.3C123.501 101.3 123.07 101.399 122.68 101.597C122.297 101.795 121.966 102.069 121.686 102.417C121.412 102.766 121.197 103.166 121.04 103.617C120.889 104.062 120.814 104.533 120.814 105.032ZM136.21 99.9053V101.361H130.211V99.9053H136.21ZM132.241 97.2085H134.138V108.252C134.138 108.628 134.197 108.912 134.313 109.103C134.429 109.294 134.579 109.421 134.764 109.482C134.948 109.544 135.147 109.575 135.359 109.575C135.516 109.575 135.68 109.561 135.851 109.534C136.029 109.5 136.162 109.472 136.251 109.452L136.261 111C136.111 111.048 135.912 111.092 135.666 111.133C135.427 111.181 135.136 111.205 134.795 111.205C134.33 111.205 133.903 111.113 133.513 110.928C133.123 110.744 132.812 110.436 132.58 110.005C132.354 109.568 132.241 108.98 132.241 108.242V97.2085ZM143.669 111.205C142.896 111.205 142.196 111.075 141.567 110.815C140.945 110.549 140.408 110.176 139.957 109.698C139.513 109.219 139.171 108.652 138.932 107.996C138.692 107.339 138.573 106.622 138.573 105.842V105.412C138.573 104.509 138.706 103.706 138.973 103.002C139.239 102.291 139.601 101.689 140.059 101.197C140.517 100.705 141.037 100.333 141.618 100.08C142.199 99.8267 142.801 99.7002 143.423 99.7002C144.216 99.7002 144.899 99.8369 145.473 100.11C146.055 100.384 146.53 100.767 146.899 101.259C147.268 101.744 147.541 102.318 147.719 102.981C147.897 103.638 147.986 104.355 147.986 105.135V105.986H139.701V104.438H146.089V104.294C146.061 103.802 145.959 103.323 145.781 102.858C145.61 102.394 145.337 102.011 144.961 101.71C144.585 101.409 144.072 101.259 143.423 101.259C142.992 101.259 142.596 101.351 142.233 101.536C141.871 101.713 141.56 101.98 141.3 102.335C141.04 102.691 140.839 103.125 140.695 103.638C140.552 104.15 140.48 104.742 140.48 105.412V105.842C140.48 106.369 140.552 106.864 140.695 107.329C140.846 107.787 141.061 108.19 141.341 108.539C141.628 108.888 141.973 109.161 142.377 109.359C142.787 109.558 143.252 109.657 143.771 109.657C144.441 109.657 145.009 109.52 145.473 109.247C145.938 108.973 146.345 108.607 146.694 108.149L147.842 109.062C147.603 109.424 147.299 109.77 146.93 110.098C146.56 110.426 146.106 110.692 145.566 110.897C145.033 111.103 144.4 111.205 143.669 111.205ZM157.824 108.847V95.25H159.731V111H157.988L157.824 108.847ZM150.359 105.576V105.36C150.359 104.513 150.461 103.744 150.666 103.053C150.878 102.356 151.176 101.758 151.559 101.259C151.948 100.76 152.41 100.377 152.943 100.11C153.483 99.8369 154.084 99.7002 154.748 99.7002C155.445 99.7002 156.053 99.8232 156.573 100.069C157.099 100.309 157.543 100.661 157.906 101.125C158.275 101.583 158.565 102.137 158.777 102.787C158.989 103.436 159.136 104.171 159.218 104.991V105.935C159.143 106.748 158.996 107.479 158.777 108.129C158.565 108.778 158.275 109.332 157.906 109.79C157.543 110.248 157.099 110.6 156.573 110.846C156.046 111.085 155.431 111.205 154.727 111.205C154.078 111.205 153.483 111.065 152.943 110.785C152.41 110.504 151.948 110.111 151.559 109.605C151.176 109.1 150.878 108.505 150.666 107.821C150.461 107.131 150.359 106.382 150.359 105.576ZM152.266 105.36V105.576C152.266 106.129 152.321 106.649 152.43 107.134C152.546 107.62 152.724 108.047 152.963 108.416C153.203 108.785 153.507 109.076 153.876 109.288C154.245 109.493 154.686 109.595 155.199 109.595C155.828 109.595 156.344 109.462 156.747 109.195C157.157 108.929 157.485 108.577 157.731 108.139C157.978 107.702 158.169 107.227 158.306 106.714V104.243C158.224 103.867 158.104 103.504 157.947 103.156C157.796 102.8 157.598 102.486 157.352 102.212C157.113 101.932 156.815 101.71 156.46 101.546C156.111 101.382 155.698 101.3 155.219 101.3C154.7 101.3 154.252 101.409 153.876 101.628C153.507 101.84 153.203 102.134 152.963 102.51C152.724 102.879 152.546 103.31 152.43 103.802C152.321 104.287 152.266 104.807 152.266 105.36ZM172.527 109.288L175.562 99.9053H177.5L173.511 111H172.239L172.527 109.288ZM169.994 99.9053L173.121 109.339L173.337 111H172.065L168.046 99.9053H169.994ZM182.016 99.9053V111H180.109V99.9053H182.016ZM179.965 96.9624C179.965 96.6548 180.057 96.395 180.242 96.1831C180.433 95.9712 180.714 95.8652 181.083 95.8652C181.445 95.8652 181.722 95.9712 181.913 96.1831C182.112 96.395 182.211 96.6548 182.211 96.9624C182.211 97.2563 182.112 97.5093 181.913 97.7212C181.722 97.9263 181.445 98.0288 181.083 98.0288C180.714 98.0288 180.433 97.9263 180.242 97.7212C180.057 97.5093 179.965 97.2563 179.965 96.9624ZM192.233 109.103V103.392C192.233 102.954 192.145 102.575 191.967 102.253C191.796 101.925 191.536 101.672 191.187 101.495C190.839 101.317 190.408 101.228 189.895 101.228C189.417 101.228 188.997 101.31 188.634 101.474C188.279 101.638 187.999 101.854 187.793 102.12C187.595 102.387 187.496 102.674 187.496 102.981H185.599C185.599 102.585 185.702 102.192 185.907 101.802C186.112 101.413 186.406 101.061 186.789 100.746C187.178 100.425 187.643 100.172 188.183 99.9873C188.73 99.7959 189.338 99.7002 190.008 99.7002C190.815 99.7002 191.526 99.8369 192.141 100.11C192.763 100.384 193.249 100.797 193.597 101.351C193.953 101.898 194.13 102.585 194.13 103.412V108.58C194.13 108.949 194.161 109.342 194.223 109.759C194.291 110.176 194.39 110.535 194.52 110.836V111H192.541C192.445 110.781 192.37 110.491 192.315 110.128C192.261 109.759 192.233 109.417 192.233 109.103ZM192.561 104.273L192.582 105.606H190.665C190.124 105.606 189.643 105.651 189.219 105.74C188.795 105.822 188.439 105.948 188.152 106.119C187.865 106.29 187.646 106.505 187.496 106.765C187.346 107.018 187.27 107.315 187.27 107.657C187.27 108.006 187.349 108.324 187.506 108.611C187.664 108.898 187.899 109.127 188.214 109.298C188.535 109.462 188.928 109.544 189.393 109.544C189.974 109.544 190.487 109.421 190.931 109.175C191.375 108.929 191.728 108.628 191.987 108.272C192.254 107.917 192.397 107.572 192.418 107.237L193.228 108.149C193.18 108.437 193.05 108.754 192.838 109.103C192.626 109.452 192.343 109.787 191.987 110.108C191.639 110.422 191.222 110.686 190.736 110.897C190.258 111.103 189.718 111.205 189.116 111.205C188.364 111.205 187.705 111.058 187.137 110.764C186.577 110.47 186.139 110.077 185.825 109.585C185.517 109.086 185.363 108.529 185.363 107.914C185.363 107.319 185.479 106.796 185.712 106.345C185.944 105.887 186.279 105.507 186.717 105.207C187.154 104.899 187.681 104.667 188.296 104.509C188.911 104.352 189.598 104.273 190.357 104.273H192.561ZM62.6342 125.038V138.266H60.727V122.905H62.4702L62.6342 125.038ZM70.1093 128.36V128.576C70.1093 129.382 70.0136 130.131 69.8222 130.821C69.6308 131.505 69.3505 132.1 68.9814 132.605C68.6191 133.111 68.1713 133.504 67.6381 133.785C67.1049 134.065 66.4931 134.205 65.8027 134.205C65.0986 134.205 64.4765 134.089 63.9365 133.856C63.3964 133.624 62.9384 133.286 62.5625 132.841C62.1865 132.397 61.8857 131.864 61.6601 131.242C61.4414 130.62 61.291 129.919 61.2089 129.14V127.991C61.291 127.171 61.4448 126.436 61.6704 125.787C61.896 125.137 62.1933 124.583 62.5625 124.125C62.9384 123.661 63.393 123.309 63.9262 123.069C64.4594 122.823 65.0747 122.7 65.7719 122.7C66.4692 122.7 67.0879 122.837 67.6279 123.11C68.1679 123.377 68.6225 123.76 68.9917 124.259C69.3608 124.758 69.6377 125.356 69.8222 126.053C70.0136 126.744 70.1093 127.513 70.1093 128.36ZM68.2021 128.576V128.36C68.2021 127.807 68.144 127.287 68.0278 126.802C67.9116 126.31 67.7304 125.879 67.4843 125.51C67.2451 125.134 66.9375 124.84 66.5615 124.628C66.1855 124.409 65.7378 124.3 65.2182 124.3C64.7397 124.3 64.3227 124.382 63.9672 124.546C63.6186 124.71 63.3213 124.932 63.0752 125.212C62.8291 125.486 62.6274 125.8 62.4702 126.156C62.3198 126.504 62.207 126.867 62.1318 127.243V129.898C62.2685 130.377 62.4599 130.828 62.706 131.252C62.9521 131.669 63.2802 132.007 63.6904 132.267C64.1005 132.52 64.6167 132.646 65.2387 132.646C65.7514 132.646 66.1923 132.541 66.5615 132.329C66.9375 132.11 67.2451 131.812 67.4843 131.437C67.7304 131.061 67.9116 130.63 68.0278 130.145C68.144 129.652 68.2021 129.129 68.2021 128.576ZM72.6568 128.576V128.34C72.6568 127.54 72.773 126.798 73.0054 126.115C73.2379 125.424 73.5728 124.826 74.0103 124.32C74.4478 123.808 74.9776 123.411 75.5997 123.131C76.2218 122.844 76.919 122.7 77.6915 122.7C78.4708 122.7 79.1715 122.844 79.7935 123.131C80.4224 123.411 80.9556 123.808 81.3931 124.32C81.8375 124.826 82.1759 125.424 82.4083 126.115C82.6407 126.798 82.7569 127.54 82.7569 128.34V128.576C82.7569 129.375 82.6407 130.117 82.4083 130.801C82.1759 131.484 81.8375 132.083 81.3931 132.595C80.9556 133.101 80.4259 133.498 79.8038 133.785C79.1886 134.065 78.4913 134.205 77.712 134.205C76.9327 134.205 76.232 134.065 75.6099 133.785C74.9879 133.498 74.4547 133.101 74.0103 132.595C73.5728 132.083 73.2379 131.484 73.0054 130.801C72.773 130.117 72.6568 129.375 72.6568 128.576ZM74.5538 128.34V128.576C74.5538 129.129 74.6187 129.652 74.7486 130.145C74.8785 130.63 75.0733 131.061 75.3331 131.437C75.5997 131.812 75.9312 132.11 76.3277 132.329C76.7242 132.541 77.1856 132.646 77.712 132.646C78.2315 132.646 78.6861 132.541 79.0758 132.329C79.4722 132.11 79.8004 131.812 80.0601 131.437C80.3199 131.061 80.5147 130.63 80.6446 130.145C80.7813 129.652 80.8497 129.129 80.8497 128.576V128.34C80.8497 127.793 80.7813 127.277 80.6446 126.792C80.5147 126.299 80.3165 125.865 80.0499 125.489C79.7901 125.106 79.462 124.806 79.0655 124.587C78.6759 124.368 78.2178 124.259 77.6915 124.259C77.172 124.259 76.7139 124.368 76.3175 124.587C75.9278 124.806 75.5997 125.106 75.3331 125.489C75.0733 125.865 74.8785 126.299 74.7486 126.792C74.6187 127.277 74.5538 127.793 74.5538 128.34ZM92.759 131.847V118.25H94.6662V134H92.923L92.759 131.847ZM85.2941 128.576V128.36C85.2941 127.513 85.3967 126.744 85.6018 126.053C85.8137 125.356 86.111 124.758 86.4939 124.259C86.8835 123.76 87.3449 123.377 87.8781 123.11C88.4182 122.837 89.0197 122.7 89.6828 122.7C90.3801 122.7 90.9885 122.823 91.508 123.069C92.0344 123.309 92.4787 123.661 92.841 124.125C93.2102 124.583 93.5007 125.137 93.7126 125.787C93.9245 126.436 94.0715 127.171 94.1535 127.991V128.935C94.0783 129.748 93.9314 130.479 93.7126 131.129C93.5007 131.778 93.2102 132.332 92.841 132.79C92.4787 133.248 92.0344 133.6 91.508 133.846C90.9816 134.085 90.3664 134.205 89.6623 134.205C89.0129 134.205 88.4182 134.065 87.8781 133.785C87.3449 133.504 86.8835 133.111 86.4939 132.605C86.111 132.1 85.8137 131.505 85.6018 130.821C85.3967 130.131 85.2941 129.382 85.2941 128.576ZM87.2014 128.36V128.576C87.2014 129.129 87.2561 129.649 87.3654 130.134C87.4816 130.62 87.6594 131.047 87.8986 131.416C88.1379 131.785 88.4421 132.076 88.8112 132.288C89.1804 132.493 89.6213 132.595 90.134 132.595C90.7629 132.595 91.279 132.462 91.6823 132.195C92.0925 131.929 92.4206 131.577 92.6667 131.139C92.9128 130.702 93.1042 130.227 93.2409 129.714V127.243C93.1589 126.867 93.0393 126.504 92.882 126.156C92.7316 125.8 92.5334 125.486 92.2873 125.212C92.048 124.932 91.7507 124.71 91.3952 124.546C91.0466 124.382 90.633 124.3 90.1545 124.3C89.635 124.3 89.1872 124.409 88.8112 124.628C88.4421 124.84 88.1379 125.134 87.8986 125.51C87.6594 125.879 87.4816 126.31 87.3654 126.802C87.2561 127.287 87.2014 127.807 87.2014 128.36ZM102.689 132.646C103.14 132.646 103.557 132.554 103.94 132.37C104.323 132.185 104.638 131.932 104.884 131.611C105.13 131.283 105.27 130.91 105.304 130.493H107.109C107.075 131.149 106.852 131.761 106.442 132.329C106.039 132.889 105.509 133.344 104.853 133.692C104.197 134.034 103.475 134.205 102.689 134.205C101.855 134.205 101.127 134.058 100.505 133.764C99.89 133.47 99.3773 133.067 98.9671 132.554C98.5638 132.042 98.2596 131.454 98.0545 130.791C97.8563 130.121 97.7571 129.413 97.7571 128.668V128.237C97.7571 127.492 97.8563 126.788 98.0545 126.125C98.2596 125.455 98.5638 124.864 98.9671 124.351C99.3773 123.838 99.89 123.435 100.505 123.141C101.127 122.847 101.855 122.7 102.689 122.7C103.557 122.7 104.316 122.878 104.966 123.233C105.615 123.582 106.124 124.061 106.493 124.669C106.869 125.271 107.075 125.954 107.109 126.72H105.304C105.27 126.262 105.14 125.848 104.914 125.479C104.696 125.11 104.395 124.816 104.012 124.597C103.636 124.372 103.195 124.259 102.689 124.259C102.108 124.259 101.619 124.375 101.223 124.607C100.833 124.833 100.522 125.141 100.29 125.53C100.064 125.913 99.9002 126.34 99.7977 126.812C99.702 127.277 99.6541 127.752 99.6541 128.237V128.668C99.6541 129.153 99.702 129.632 99.7977 130.104C99.8934 130.575 100.054 131.002 100.28 131.385C100.512 131.768 100.823 132.076 101.213 132.308C101.609 132.534 102.101 132.646 102.689 132.646ZM116.414 132.103V126.392C116.414 125.954 116.325 125.575 116.147 125.253C115.976 124.925 115.716 124.672 115.368 124.495C115.019 124.317 114.588 124.228 114.076 124.228C113.597 124.228 113.177 124.31 112.814 124.474C112.459 124.638 112.179 124.854 111.974 125.12C111.775 125.387 111.676 125.674 111.676 125.981H109.779C109.779 125.585 109.882 125.192 110.087 124.802C110.292 124.413 110.586 124.061 110.969 123.746C111.358 123.425 111.823 123.172 112.363 122.987C112.91 122.796 113.518 122.7 114.188 122.7C114.995 122.7 115.706 122.837 116.321 123.11C116.943 123.384 117.429 123.797 117.777 124.351C118.133 124.898 118.31 125.585 118.31 126.412V131.58C118.31 131.949 118.341 132.342 118.403 132.759C118.471 133.176 118.57 133.535 118.7 133.836V134H116.721C116.625 133.781 116.55 133.491 116.496 133.128C116.441 132.759 116.414 132.417 116.414 132.103ZM116.742 127.273L116.762 128.606H114.845C114.305 128.606 113.823 128.651 113.399 128.74C112.975 128.822 112.62 128.948 112.332 129.119C112.045 129.29 111.827 129.505 111.676 129.765C111.526 130.018 111.451 130.315 111.451 130.657C111.451 131.006 111.529 131.324 111.686 131.611C111.844 131.898 112.08 132.127 112.394 132.298C112.715 132.462 113.108 132.544 113.573 132.544C114.154 132.544 114.667 132.421 115.111 132.175C115.556 131.929 115.908 131.628 116.167 131.272C116.434 130.917 116.578 130.572 116.598 130.237L117.408 131.149C117.36 131.437 117.23 131.754 117.018 132.103C116.807 132.452 116.523 132.787 116.167 133.108C115.819 133.422 115.402 133.686 114.916 133.897C114.438 134.103 113.898 134.205 113.296 134.205C112.544 134.205 111.885 134.058 111.317 133.764C110.757 133.47 110.319 133.077 110.005 132.585C109.697 132.086 109.543 131.529 109.543 130.914C109.543 130.319 109.66 129.796 109.892 129.345C110.124 128.887 110.459 128.507 110.897 128.207C111.334 127.899 111.861 127.667 112.476 127.509C113.091 127.352 113.778 127.273 114.537 127.273H116.742ZM128.384 131.057C128.384 130.784 128.323 130.531 128.2 130.298C128.084 130.059 127.841 129.844 127.472 129.652C127.109 129.454 126.563 129.283 125.831 129.14C125.216 129.01 124.659 128.856 124.16 128.678C123.668 128.5 123.247 128.285 122.898 128.032C122.557 127.779 122.294 127.482 122.109 127.14C121.924 126.798 121.832 126.398 121.832 125.94C121.832 125.503 121.928 125.089 122.119 124.7C122.317 124.31 122.594 123.965 122.95 123.664C123.312 123.363 123.746 123.127 124.252 122.957C124.758 122.786 125.322 122.7 125.944 122.7C126.833 122.7 127.591 122.857 128.22 123.172C128.849 123.486 129.331 123.907 129.666 124.433C130.001 124.953 130.169 125.53 130.169 126.166H128.272C128.272 125.858 128.179 125.561 127.995 125.274C127.817 124.98 127.554 124.737 127.205 124.546C126.863 124.354 126.443 124.259 125.944 124.259C125.418 124.259 124.99 124.341 124.662 124.505C124.341 124.662 124.105 124.864 123.955 125.11C123.811 125.356 123.739 125.616 123.739 125.889C123.739 126.094 123.773 126.279 123.842 126.443C123.917 126.6 124.047 126.747 124.232 126.884C124.416 127.014 124.676 127.137 125.011 127.253C125.346 127.369 125.773 127.485 126.293 127.602C127.202 127.807 127.95 128.053 128.538 128.34C129.126 128.627 129.564 128.979 129.851 129.396C130.138 129.813 130.281 130.319 130.281 130.914C130.281 131.399 130.179 131.843 129.974 132.247C129.775 132.65 129.485 132.999 129.102 133.292C128.726 133.58 128.275 133.805 127.749 133.969C127.229 134.126 126.645 134.205 125.995 134.205C125.018 134.205 124.19 134.031 123.514 133.682C122.837 133.333 122.324 132.882 121.976 132.329C121.627 131.775 121.453 131.19 121.453 130.575H123.36C123.387 131.095 123.538 131.508 123.811 131.816C124.085 132.117 124.419 132.332 124.816 132.462C125.212 132.585 125.606 132.646 125.995 132.646C126.515 132.646 126.949 132.578 127.297 132.441C127.653 132.305 127.923 132.117 128.107 131.877C128.292 131.638 128.384 131.365 128.384 131.057ZM138.048 122.905V124.361H132.049V122.905H138.048ZM134.08 120.208H135.977V131.252C135.977 131.628 136.035 131.912 136.151 132.103C136.267 132.294 136.418 132.421 136.602 132.482C136.787 132.544 136.985 132.575 137.197 132.575C137.354 132.575 137.518 132.561 137.689 132.534C137.867 132.5 138 132.472 138.089 132.452L138.099 134C137.949 134.048 137.751 134.092 137.505 134.133C137.265 134.181 136.975 134.205 136.633 134.205C136.168 134.205 135.741 134.113 135.351 133.928C134.962 133.744 134.651 133.436 134.418 133.005C134.193 132.568 134.08 131.98 134.08 131.242V120.208ZM147.363 131.057C147.363 130.784 147.302 130.531 147.179 130.298C147.062 130.059 146.82 129.844 146.451 129.652C146.088 129.454 145.541 129.283 144.81 129.14C144.195 129.01 143.638 128.856 143.138 128.678C142.646 128.5 142.226 128.285 141.877 128.032C141.535 127.779 141.272 127.482 141.088 127.14C140.903 126.798 140.811 126.398 140.811 125.94C140.811 125.503 140.907 125.089 141.098 124.7C141.296 124.31 141.573 123.965 141.929 123.664C142.291 123.363 142.725 123.127 143.231 122.957C143.737 122.786 144.301 122.7 144.923 122.7C145.811 122.7 146.57 122.857 147.199 123.172C147.828 123.486 148.31 123.907 148.645 124.433C148.98 124.953 149.147 125.53 149.147 126.166H147.25C147.25 125.858 147.158 125.561 146.973 125.274C146.796 124.98 146.533 124.737 146.184 124.546C145.842 124.354 145.422 124.259 144.923 124.259C144.396 124.259 143.969 124.341 143.641 124.505C143.32 124.662 143.084 124.864 142.933 125.11C142.79 125.356 142.718 125.616 142.718 125.889C142.718 126.094 142.752 126.279 142.821 126.443C142.896 126.6 143.026 126.747 143.21 126.884C143.395 127.014 143.655 127.137 143.99 127.253C144.325 127.369 144.752 127.485 145.271 127.602C146.18 127.807 146.929 128.053 147.517 128.34C148.105 128.627 148.542 128.979 148.829 129.396C149.117 129.813 149.26 130.319 149.26 130.914C149.26 131.399 149.158 131.843 148.952 132.247C148.754 132.65 148.464 132.999 148.081 133.292C147.705 133.58 147.254 133.805 146.727 133.969C146.208 134.126 145.623 134.205 144.974 134.205C143.996 134.205 143.169 134.031 142.492 133.682C141.816 133.333 141.303 132.882 140.954 132.329C140.606 131.775 140.431 131.19 140.431 130.575H142.339C142.366 131.095 142.516 131.508 142.79 131.816C143.063 132.117 143.398 132.332 143.795 132.462C144.191 132.585 144.584 132.646 144.974 132.646C145.493 132.646 145.928 132.578 146.276 132.441C146.632 132.305 146.902 132.117 147.086 131.877C147.271 131.638 147.363 131.365 147.363 131.057ZM154.104 131.744V133.272C154.104 133.894 153.947 134.55 153.633 135.241C153.318 135.938 152.877 136.519 152.31 136.984L151.233 136.235C151.452 135.935 151.637 135.627 151.787 135.312C151.937 135.005 152.05 134.684 152.125 134.349C152.207 134.021 152.248 133.672 152.248 133.303V131.744H154.104ZM26.8477 148.274V157H24.9507V145.905H26.7452L26.8477 148.274ZM26.3965 151.032L25.607 151.001C25.6138 150.243 25.7266 149.542 25.9454 148.899C26.1641 148.25 26.4717 147.686 26.8682 147.208C27.2647 146.729 27.7364 146.36 28.2832 146.1C28.837 145.833 29.4488 145.7 30.1187 145.7C30.6656 145.7 31.1578 145.775 31.5953 145.926C32.0328 146.069 32.4053 146.302 32.7129 146.623C33.0274 146.944 33.2666 147.361 33.4307 147.874C33.5948 148.38 33.6768 148.999 33.6768 149.73V157H31.7696V149.709C31.7696 149.128 31.6841 148.664 31.5132 148.315C31.3423 147.959 31.0928 147.703 30.7647 147.546C30.4366 147.382 30.0332 147.3 29.5547 147.3C29.083 147.3 28.6524 147.399 28.2627 147.597C27.8799 147.795 27.5484 148.069 27.2681 148.417C26.9947 148.766 26.7793 149.166 26.6221 149.617C26.4717 150.062 26.3965 150.533 26.3965 151.032ZM41.7921 157.205C41.0197 157.205 40.319 157.075 39.6901 156.815C39.068 156.549 38.5314 156.176 38.0802 155.698C37.6359 155.219 37.2941 154.652 37.0548 153.996C36.8156 153.339 36.696 152.622 36.696 151.842V151.412C36.696 150.509 36.8293 149.706 37.0959 149.002C37.3625 148.291 37.7248 147.689 38.1828 147.197C38.6408 146.705 39.1603 146.333 39.7414 146.08C40.3224 145.827 40.924 145.7 41.5461 145.7C42.339 145.7 43.0226 145.837 43.5968 146.11C44.1779 146.384 44.653 146.767 45.0221 147.259C45.3913 147.744 45.6647 148.318 45.8424 148.981C46.0202 149.638 46.109 150.355 46.109 151.135V151.986H37.8239V150.438H44.2121V150.294C44.1847 149.802 44.0822 149.323 43.9045 148.858C43.7336 148.394 43.4601 148.011 43.0841 147.71C42.7082 147.409 42.1955 147.259 41.5461 147.259C41.1154 147.259 40.7189 147.351 40.3566 147.536C39.9943 147.713 39.6833 147.98 39.4235 148.335C39.1637 148.691 38.9621 149.125 38.8185 149.638C38.675 150.15 38.6032 150.742 38.6032 151.412V151.842C38.6032 152.369 38.675 152.864 38.8185 153.329C38.9689 153.787 39.1842 154.19 39.4645 154.539C39.7516 154.888 40.0968 155.161 40.5002 155.359C40.9103 155.558 41.3752 155.657 41.8947 155.657C42.5646 155.657 43.132 155.52 43.5968 155.247C44.0617 154.973 44.4684 154.607 44.8171 154.149L45.9655 155.062C45.7262 155.424 45.422 155.77 45.0529 156.098C44.6838 156.426 44.2292 156.692 43.6891 156.897C43.1559 157.103 42.5236 157.205 41.7921 157.205ZM51.7635 155.031L54.614 145.905H55.865L55.6189 147.72L52.7171 157H51.4969L51.7635 155.031ZM49.846 145.905L52.2762 155.134L52.4505 157H51.1687L47.949 145.905H49.846ZM58.5926 155.062L60.9099 145.905H62.7967L59.5769 157H58.3055L58.5926 155.062ZM56.1419 145.905L58.9309 154.877L59.2488 157H58.0388L55.055 147.7L54.8089 145.905H56.1419ZM71.8349 154.057C71.8349 153.784 71.7733 153.531 71.6503 153.298C71.5341 153.059 71.2914 152.844 70.9223 152.652C70.56 152.454 70.0131 152.283 69.2816 152.14C68.6664 152.01 68.1093 151.856 67.6103 151.678C67.1181 151.5 66.6977 151.285 66.349 151.032C66.0072 150.779 65.744 150.482 65.5595 150.14C65.3749 149.798 65.2826 149.398 65.2826 148.94C65.2826 148.503 65.3783 148.089 65.5697 147.7C65.768 147.31 66.0448 146.965 66.4003 146.664C66.7626 146.363 67.1967 146.127 67.7025 145.957C68.2084 145.786 68.7724 145.7 69.3944 145.7C70.2831 145.7 71.0419 145.857 71.6708 146.172C72.2997 146.486 72.7816 146.907 73.1166 147.433C73.4516 147.953 73.619 148.53 73.619 149.166H71.7221C71.7221 148.858 71.6298 148.561 71.4452 148.274C71.2675 147.98 71.0043 147.737 70.6557 147.546C70.3139 147.354 69.8935 147.259 69.3944 147.259C68.8681 147.259 68.4408 147.341 68.1127 147.505C67.7914 147.662 67.5556 147.864 67.4052 148.11C67.2616 148.356 67.1898 148.616 67.1898 148.889C67.1898 149.094 67.224 149.279 67.2924 149.443C67.3676 149.6 67.4975 149.747 67.682 149.884C67.8666 150.014 68.1264 150.137 68.4613 150.253C68.7963 150.369 69.2235 150.485 69.7431 150.602C70.6522 150.807 71.4008 151.053 71.9887 151.34C72.5766 151.627 73.0141 151.979 73.3012 152.396C73.5883 152.813 73.7318 153.319 73.7318 153.914C73.7318 154.399 73.6293 154.843 73.4242 155.247C73.226 155.65 72.9354 155.999 72.5526 156.292C72.1767 156.58 71.7255 156.805 71.1991 156.969C70.6796 157.126 70.0951 157.205 69.4457 157.205C68.4682 157.205 67.641 157.031 66.9643 156.682C66.2875 156.333 65.7748 155.882 65.4262 155.329C65.0775 154.775 64.9032 154.19 64.9032 153.575H66.8104C66.8378 154.095 66.9882 154.508 67.2616 154.816C67.5351 155.117 67.87 155.332 68.2665 155.462C68.663 155.585 69.0561 155.646 69.4457 155.646C69.9652 155.646 70.3993 155.578 70.7479 155.441C71.1034 155.305 71.3734 155.117 71.558 154.877C71.7426 154.638 71.8349 154.365 71.8349 154.057ZM78.9146 141.25V157H77.0073V141.25H78.9146ZM87.194 157.205C86.4215 157.205 85.7208 157.075 85.0919 156.815C84.4699 156.549 83.9332 156.176 83.4821 155.698C83.0377 155.219 82.6959 154.652 82.4567 153.996C82.2174 153.339 82.0978 152.622 82.0978 151.842V151.412C82.0978 150.509 82.2311 149.706 82.4977 149.002C82.7643 148.291 83.1266 147.689 83.5846 147.197C84.0426 146.705 84.5621 146.333 85.1432 146.08C85.7243 145.827 86.3258 145.7 86.9479 145.7C87.7409 145.7 88.4245 145.837 88.9987 146.11C89.5797 146.384 90.0548 146.767 90.424 147.259C90.7931 147.744 91.0665 148.318 91.2443 148.981C91.422 149.638 91.5109 150.355 91.5109 151.135V151.986H83.2257V150.438H89.6139V150.294C89.5866 149.802 89.484 149.323 89.3063 148.858C89.1354 148.394 88.862 148.011 88.486 147.71C88.11 147.409 87.5973 147.259 86.9479 147.259C86.5172 147.259 86.1207 147.351 85.7584 147.536C85.3961 147.713 85.0851 147.98 84.8253 148.335C84.5656 148.691 84.3639 149.125 84.2204 149.638C84.0768 150.15 84.005 150.742 84.005 151.412V151.842C84.005 152.369 84.0768 152.864 84.2204 153.329C84.3707 153.787 84.5861 154.19 84.8663 154.539C85.1535 154.888 85.4987 155.161 85.902 155.359C86.3121 155.558 86.777 155.657 87.2965 155.657C87.9664 155.657 88.5338 155.52 88.9987 155.247C89.4635 154.973 89.8703 154.607 90.2189 154.149L91.3673 155.062C91.1281 155.424 90.8239 155.77 90.4547 156.098C90.0856 156.426 89.631 156.692 89.091 156.897C88.5578 157.103 87.9254 157.205 87.194 157.205ZM99.0007 145.905V147.361H93.0022V145.905H99.0007ZM95.0325 143.208H96.9295V154.252C96.9295 154.628 96.9876 154.912 97.1038 155.103C97.22 155.294 97.3704 155.421 97.5549 155.482C97.7395 155.544 97.9378 155.575 98.1497 155.575C98.3069 155.575 98.471 155.561 98.6419 155.534C98.8196 155.5 98.9529 155.472 99.0418 155.452L99.052 157C98.9016 157.048 98.7034 157.092 98.4573 157.133C98.218 157.181 97.9275 157.205 97.5857 157.205C97.1209 157.205 96.6936 157.113 96.304 156.928C95.9143 156.744 95.6033 156.436 95.3709 156.005C95.1453 155.568 95.0325 154.98 95.0325 154.242V143.208ZM106.501 145.905V147.361H100.502V145.905H106.501ZM102.533 143.208H104.43V154.252C104.43 154.628 104.488 154.912 104.604 155.103C104.72 155.294 104.87 155.421 105.055 155.482C105.24 155.544 105.438 155.575 105.65 155.575C105.807 155.575 105.971 155.561 106.142 155.534C106.32 155.5 106.453 155.472 106.542 155.452L106.552 157C106.402 157.048 106.203 157.092 105.957 157.133C105.718 157.181 105.428 157.205 105.086 157.205C104.621 157.205 104.194 157.113 103.804 156.928C103.414 156.744 103.103 156.436 102.871 156.005C102.645 155.568 102.533 154.98 102.533 154.242V143.208ZM113.96 157.205C113.188 157.205 112.487 157.075 111.858 156.815C111.236 156.549 110.699 156.176 110.248 155.698C109.804 155.219 109.462 154.652 109.223 153.996C108.983 153.339 108.864 152.622 108.864 151.842V151.412C108.864 150.509 108.997 149.706 109.264 149.002C109.53 148.291 109.893 147.689 110.351 147.197C110.809 146.705 111.328 146.333 111.909 146.08C112.49 145.827 113.092 145.7 113.714 145.7C114.507 145.7 115.19 145.837 115.765 146.11C116.346 146.384 116.821 146.767 117.19 147.259C117.559 147.744 117.833 148.318 118.01 148.981C118.188 149.638 118.277 150.355 118.277 151.135V151.986H109.992V150.438H116.38V150.294C116.353 149.802 116.25 149.323 116.072 148.858C115.901 148.394 115.628 148.011 115.252 147.71C114.876 147.409 114.363 147.259 113.714 147.259C113.283 147.259 112.887 147.351 112.524 147.536C112.162 147.713 111.851 147.98 111.591 148.335C111.332 148.691 111.13 149.125 110.986 149.638C110.843 150.15 110.771 150.742 110.771 151.412V151.842C110.771 152.369 110.843 152.864 110.986 153.329C111.137 153.787 111.352 154.19 111.632 154.539C111.919 154.888 112.265 155.161 112.668 155.359C113.078 155.558 113.543 155.657 114.062 155.657C114.732 155.657 115.3 155.52 115.765 155.247C116.229 154.973 116.636 154.607 116.985 154.149L118.133 155.062C117.894 155.424 117.59 155.77 117.221 156.098C116.852 156.426 116.397 156.692 115.857 156.897C115.324 157.103 114.691 157.205 113.96 157.205ZM123.019 147.648V157H121.122V145.905H122.967L123.019 147.648ZM126.484 145.844L126.474 147.607C126.317 147.573 126.167 147.553 126.023 147.546C125.886 147.532 125.729 147.525 125.551 147.525C125.114 147.525 124.728 147.594 124.393 147.73C124.058 147.867 123.774 148.059 123.542 148.305C123.309 148.551 123.125 148.845 122.988 149.187C122.858 149.521 122.773 149.891 122.732 150.294L122.198 150.602C122.198 149.932 122.263 149.303 122.393 148.715C122.53 148.127 122.738 147.607 123.019 147.156C123.299 146.698 123.654 146.343 124.085 146.09C124.523 145.83 125.042 145.7 125.644 145.7C125.78 145.7 125.938 145.717 126.115 145.751C126.293 145.779 126.416 145.81 126.484 145.844ZM135.328 154.057C135.328 153.784 135.266 153.531 135.143 153.298C135.027 153.059 134.784 152.844 134.415 152.652C134.053 152.454 133.506 152.283 132.775 152.14C132.159 152.01 131.602 151.856 131.103 151.678C130.611 151.5 130.191 151.285 129.842 151.032C129.5 150.779 129.237 150.482 129.052 150.14C128.868 149.798 128.776 149.398 128.776 148.94C128.776 148.503 128.871 148.089 129.063 147.7C129.261 147.31 129.538 146.965 129.893 146.664C130.256 146.363 130.69 146.127 131.196 145.957C131.701 145.786 132.265 145.7 132.887 145.7C133.776 145.7 134.535 145.857 135.164 146.172C135.793 146.486 136.275 146.907 136.61 147.433C136.945 147.953 137.112 148.53 137.112 149.166H135.215C135.215 148.858 135.123 148.561 134.938 148.274C134.76 147.98 134.497 147.737 134.149 147.546C133.807 147.354 133.386 147.259 132.887 147.259C132.361 147.259 131.934 147.341 131.606 147.505C131.284 147.662 131.049 147.864 130.898 148.11C130.755 148.356 130.683 148.616 130.683 148.889C130.683 149.094 130.717 149.279 130.785 149.443C130.861 149.6 130.99 149.747 131.175 149.884C131.36 150.014 131.619 150.137 131.954 150.253C132.289 150.369 132.717 150.485 133.236 150.602C134.145 150.807 134.894 151.053 135.482 151.34C136.07 151.627 136.507 151.979 136.794 152.396C137.081 152.813 137.225 153.319 137.225 153.914C137.225 154.399 137.122 154.843 136.917 155.247C136.719 155.65 136.428 155.999 136.046 156.292C135.67 156.58 135.218 156.805 134.692 156.969C134.173 157.126 133.588 157.205 132.939 157.205C131.961 157.205 131.134 157.031 130.457 156.682C129.781 156.333 129.268 155.882 128.919 155.329C128.571 154.775 128.396 154.19 128.396 153.575H130.303C130.331 154.095 130.481 154.508 130.755 154.816C131.028 155.117 131.363 155.332 131.76 155.462C132.156 155.585 132.549 155.646 132.939 155.646C133.458 155.646 133.892 155.578 134.241 155.441C134.596 155.305 134.866 155.117 135.051 154.877C135.236 154.638 135.328 154.365 135.328 154.057ZM142.069 154.744V156.272C142.069 156.894 141.912 157.55 141.598 158.241C141.283 158.938 140.842 159.519 140.275 159.984L139.198 159.235C139.417 158.935 139.601 158.627 139.752 158.312C139.902 158.005 140.015 157.684 140.09 157.349C140.172 157.021 140.213 156.672 140.213 156.303V154.744H142.069ZM157.5 155.103V149.392C157.5 148.954 157.411 148.575 157.233 148.253C157.063 147.925 156.803 147.672 156.454 147.495C156.106 147.317 155.675 147.228 155.162 147.228C154.684 147.228 154.263 147.31 153.901 147.474C153.546 147.638 153.265 147.854 153.06 148.12C152.862 148.387 152.763 148.674 152.763 148.981H150.866C150.866 148.585 150.968 148.192 151.173 147.802C151.379 147.413 151.672 147.061 152.055 146.746C152.445 146.425 152.91 146.172 153.45 145.987C153.997 145.796 154.605 145.7 155.275 145.7C156.082 145.7 156.793 145.837 157.408 146.11C158.03 146.384 158.515 146.797 158.864 147.351C159.219 147.898 159.397 148.585 159.397 149.412V154.58C159.397 154.949 159.428 155.342 159.489 155.759C159.558 156.176 159.657 156.535 159.787 156.836V157H157.808C157.712 156.781 157.637 156.491 157.582 156.128C157.527 155.759 157.5 155.417 157.5 155.103ZM157.828 150.273L157.849 151.606H155.931C155.391 151.606 154.909 151.651 154.485 151.74C154.062 151.822 153.706 151.948 153.419 152.119C153.132 152.29 152.913 152.505 152.763 152.765C152.612 153.018 152.537 153.315 152.537 153.657C152.537 154.006 152.616 154.324 152.773 154.611C152.93 154.898 153.166 155.127 153.481 155.298C153.802 155.462 154.195 155.544 154.66 155.544C155.241 155.544 155.754 155.421 156.198 155.175C156.642 154.929 156.994 154.628 157.254 154.272C157.521 153.917 157.664 153.572 157.685 153.237L158.495 154.149C158.447 154.437 158.317 154.754 158.105 155.103C157.893 155.452 157.609 155.787 157.254 156.108C156.905 156.422 156.488 156.686 156.003 156.897C155.525 157.103 154.984 157.205 154.383 157.205C153.631 157.205 152.971 157.058 152.404 156.764C151.843 156.47 151.406 156.077 151.091 155.585C150.784 155.086 150.63 154.529 150.63 153.914C150.63 153.319 150.746 152.796 150.979 152.345C151.211 151.887 151.546 151.507 151.983 151.207C152.421 150.899 152.947 150.667 153.563 150.509C154.178 150.352 154.865 150.273 155.624 150.273H157.828ZM164.908 148.274V157H163.011V145.905H164.805L164.908 148.274ZM164.457 151.032L163.667 151.001C163.674 150.243 163.787 149.542 164.006 148.899C164.224 148.25 164.532 147.686 164.928 147.208C165.325 146.729 165.797 146.36 166.343 146.1C166.897 145.833 167.509 145.7 168.179 145.7C168.726 145.7 169.218 145.775 169.655 145.926C170.093 146.069 170.466 146.302 170.773 146.623C171.088 146.944 171.327 147.361 171.491 147.874C171.655 148.38 171.737 148.999 171.737 149.73V157H169.83V149.709C169.83 149.128 169.744 148.664 169.573 148.315C169.403 147.959 169.153 147.703 168.825 147.546C168.497 147.382 168.093 147.3 167.615 147.3C167.143 147.3 166.713 147.399 166.323 147.597C165.94 147.795 165.609 148.069 165.328 148.417C165.055 148.766 164.84 149.166 164.682 149.617C164.532 150.062 164.457 150.533 164.457 151.032ZM182.242 154.847V141.25H184.149V157H182.406L182.242 154.847ZM174.777 151.576V151.36C174.777 150.513 174.879 149.744 175.084 149.053C175.296 148.356 175.594 147.758 175.976 147.259C176.366 146.76 176.827 146.377 177.361 146.11C177.901 145.837 178.502 145.7 179.165 145.7C179.863 145.7 180.471 145.823 180.991 146.069C181.517 146.309 181.961 146.661 182.324 147.125C182.693 147.583 182.983 148.137 183.195 148.787C183.407 149.436 183.554 150.171 183.636 150.991V151.935C183.561 152.748 183.414 153.479 183.195 154.129C182.983 154.778 182.693 155.332 182.324 155.79C181.961 156.248 181.517 156.6 180.991 156.846C180.464 157.085 179.849 157.205 179.145 157.205C178.495 157.205 177.901 157.065 177.361 156.785C176.827 156.504 176.366 156.111 175.976 155.605C175.594 155.1 175.296 154.505 175.084 153.821C174.879 153.131 174.777 152.382 174.777 151.576ZM176.684 151.36V151.576C176.684 152.129 176.739 152.649 176.848 153.134C176.964 153.62 177.142 154.047 177.381 154.416C177.62 154.785 177.925 155.076 178.294 155.288C178.663 155.493 179.104 155.595 179.617 155.595C180.245 155.595 180.762 155.462 181.165 155.195C181.575 154.929 181.903 154.577 182.149 154.139C182.395 153.702 182.587 153.227 182.723 152.714V150.243C182.641 149.867 182.522 149.504 182.365 149.156C182.214 148.8 182.016 148.486 181.77 148.212C181.531 147.932 181.233 147.71 180.878 147.546C180.529 147.382 180.116 147.3 179.637 147.3C179.118 147.3 178.67 147.409 178.294 147.628C177.925 147.84 177.62 148.134 177.381 148.51C177.142 148.879 176.964 149.31 176.848 149.802C176.739 150.287 176.684 150.807 176.684 151.36ZM61.373 165.07V180H59.4248V165.07H61.373ZM66.1718 165.07V166.69H54.6362V165.07H66.1718ZM67.2017 174.576V174.34C67.2017 173.54 67.3179 172.798 67.5504 172.115C67.7828 171.424 68.1178 170.826 68.5553 170.32C68.9928 169.808 69.5225 169.411 70.1446 169.131C70.7667 168.844 71.4639 168.7 72.2364 168.7C73.0157 168.7 73.7164 168.844 74.3385 169.131C74.9674 169.411 75.5006 169.808 75.9381 170.32C76.3824 170.826 76.7208 171.424 76.9532 172.115C77.1856 172.798 77.3018 173.54 77.3018 174.34V174.576C77.3018 175.375 77.1856 176.117 76.9532 176.801C76.7208 177.484 76.3824 178.083 75.9381 178.595C75.5006 179.101 74.9708 179.498 74.3487 179.785C73.7335 180.065 73.0362 180.205 72.2569 180.205C71.4776 180.205 70.7769 180.065 70.1549 179.785C69.5328 179.498 68.9996 179.101 68.5553 178.595C68.1178 178.083 67.7828 177.484 67.5504 176.801C67.3179 176.117 67.2017 175.375 67.2017 174.576ZM69.0987 174.34V174.576C69.0987 175.129 69.1637 175.652 69.2935 176.145C69.4234 176.63 69.6182 177.061 69.878 177.437C70.1446 177.812 70.4762 178.11 70.8726 178.329C71.2691 178.541 71.7305 178.646 72.2569 178.646C72.7764 178.646 73.231 178.541 73.6207 178.329C74.0172 178.11 74.3453 177.812 74.6051 177.437C74.8648 177.061 75.0596 176.63 75.1895 176.145C75.3262 175.652 75.3946 175.129 75.3946 174.576V174.34C75.3946 173.793 75.3262 173.277 75.1895 172.792C75.0596 172.299 74.8614 171.865 74.5948 171.489C74.335 171.106 74.0069 170.806 73.6104 170.587C73.2208 170.368 72.7628 170.259 72.2364 170.259C71.7169 170.259 71.2589 170.368 70.8624 170.587C70.4727 170.806 70.1446 171.106 69.878 171.489C69.6182 171.865 69.4234 172.299 69.2935 172.792C69.1637 173.277 69.0987 173.793 69.0987 174.34ZM79.8083 174.576V174.34C79.8083 173.54 79.9245 172.798 80.1569 172.115C80.3894 171.424 80.7243 170.826 81.1618 170.32C81.5993 169.808 82.1291 169.411 82.7512 169.131C83.3732 168.844 84.0705 168.7 84.843 168.7C85.6223 168.7 86.323 168.844 86.945 169.131C87.5739 169.411 88.1071 169.808 88.5446 170.32C88.989 170.826 89.3273 171.424 89.5598 172.115C89.7922 172.798 89.9084 173.54 89.9084 174.34V174.576C89.9084 175.375 89.7922 176.117 89.5598 176.801C89.3273 177.484 88.989 178.083 88.5446 178.595C88.1071 179.101 87.5773 179.498 86.9553 179.785C86.34 180.065 85.6428 180.205 84.8635 180.205C84.0842 180.205 83.3835 180.065 82.7614 179.785C82.1394 179.498 81.6062 179.101 81.1618 178.595C80.7243 178.083 80.3894 177.484 80.1569 176.801C79.9245 176.117 79.8083 175.375 79.8083 174.576ZM81.7053 174.34V174.576C81.7053 175.129 81.7702 175.652 81.9001 176.145C82.03 176.63 82.2248 177.061 82.4846 177.437C82.7512 177.812 83.0827 178.11 83.4792 178.329C83.8757 178.541 84.3371 178.646 84.8635 178.646C85.383 178.646 85.8376 178.541 86.2272 178.329C86.6237 178.11 86.9519 177.812 87.2116 177.437C87.4714 177.061 87.6662 176.63 87.7961 176.145C87.9328 175.652 88.0012 175.129 88.0012 174.576V174.34C88.0012 173.793 87.9328 173.277 87.7961 172.792C87.6662 172.299 87.468 171.865 87.2014 171.489C86.9416 171.106 86.6135 170.806 86.217 170.587C85.8273 170.368 85.3693 170.259 84.843 170.259C84.3234 170.259 83.8654 170.368 83.4689 170.587C83.0793 170.806 82.7512 171.106 82.4846 171.489C82.2248 171.865 82.03 172.299 81.9001 172.792C81.7702 173.277 81.7053 173.793 81.7053 174.34ZM94.9783 164.25V180H93.0711V164.25H94.9783ZM108.82 180H105.703L105.723 178.39H108.82C109.886 178.39 110.775 178.168 111.486 177.724C112.197 177.272 112.73 176.644 113.086 175.837C113.448 175.023 113.629 174.073 113.629 172.986V172.074C113.629 171.219 113.526 170.46 113.321 169.797C113.116 169.127 112.815 168.563 112.419 168.105C112.023 167.641 111.537 167.289 110.963 167.049C110.396 166.81 109.743 166.69 109.004 166.69H105.641V165.07H109.004C109.982 165.07 110.874 165.234 111.681 165.562C112.487 165.884 113.181 166.352 113.762 166.967C114.35 167.576 114.801 168.314 115.116 169.182C115.43 170.043 115.587 171.014 115.587 172.094V172.986C115.587 174.066 115.43 175.041 115.116 175.909C114.801 176.77 114.347 177.505 113.752 178.113C113.164 178.722 112.453 179.19 111.619 179.518C110.792 179.839 109.859 180 108.82 180ZM106.759 165.07V180H104.78V165.07H106.759ZM120.801 170.648V180H118.904V168.905H120.75L120.801 170.648ZM124.267 168.844L124.257 170.607C124.099 170.573 123.949 170.553 123.805 170.546C123.669 170.532 123.511 170.525 123.334 170.525C122.896 170.525 122.51 170.594 122.175 170.73C121.84 170.867 121.556 171.059 121.324 171.305C121.091 171.551 120.907 171.845 120.77 172.187C120.64 172.521 120.555 172.891 120.514 173.294L119.981 173.602C119.981 172.932 120.046 172.303 120.175 171.715C120.312 171.127 120.521 170.607 120.801 170.156C121.081 169.698 121.437 169.343 121.867 169.09C122.305 168.83 122.824 168.7 123.426 168.7C123.563 168.7 123.72 168.717 123.898 168.751C124.075 168.779 124.198 168.81 124.267 168.844ZM125.943 174.576V174.34C125.943 173.54 126.059 172.798 126.291 172.115C126.524 171.424 126.859 170.826 127.296 170.32C127.734 169.808 128.263 169.411 128.886 169.131C129.508 168.844 130.205 168.7 130.977 168.7C131.757 168.7 132.457 168.844 133.079 169.131C133.708 169.411 134.242 169.808 134.679 170.32C135.123 170.826 135.462 171.424 135.694 172.115C135.927 172.798 136.043 173.54 136.043 174.34V174.576C136.043 175.375 135.927 176.117 135.694 176.801C135.462 177.484 135.123 178.083 134.679 178.595C134.242 179.101 133.712 179.498 133.09 179.785C132.474 180.065 131.777 180.205 130.998 180.205C130.219 180.205 129.518 180.065 128.896 179.785C128.274 179.498 127.741 179.101 127.296 178.595C126.859 178.083 126.524 177.484 126.291 176.801C126.059 176.117 125.943 175.375 125.943 174.576ZM127.84 174.34V174.576C127.84 175.129 127.905 175.652 128.034 176.145C128.164 176.63 128.359 177.061 128.619 177.437C128.886 177.812 129.217 178.11 129.614 178.329C130.01 178.541 130.471 178.646 130.998 178.646C131.517 178.646 131.972 178.541 132.362 178.329C132.758 178.11 133.086 177.812 133.346 177.437C133.606 177.061 133.801 176.63 133.93 176.145C134.067 175.652 134.136 175.129 134.136 174.576V174.34C134.136 173.793 134.067 173.277 133.93 172.792C133.801 172.299 133.602 171.865 133.336 171.489C133.076 171.106 132.748 170.806 132.351 170.587C131.962 170.368 131.504 170.259 130.977 170.259C130.458 170.259 130 170.368 129.603 170.587C129.214 170.806 128.886 171.106 128.619 171.489C128.359 171.865 128.164 172.299 128.034 172.792C127.905 173.277 127.84 173.793 127.84 174.34ZM140.949 171.038V184.266H139.041V168.905H140.785L140.949 171.038ZM148.424 174.36V174.576C148.424 175.382 148.328 176.131 148.137 176.821C147.945 177.505 147.665 178.1 147.296 178.605C146.934 179.111 146.486 179.504 145.953 179.785C145.419 180.065 144.808 180.205 144.117 180.205C143.413 180.205 142.791 180.089 142.251 179.856C141.711 179.624 141.253 179.286 140.877 178.841C140.501 178.397 140.2 177.864 139.975 177.242C139.756 176.62 139.605 175.919 139.523 175.14V173.991C139.605 173.171 139.759 172.436 139.985 171.787C140.21 171.137 140.508 170.583 140.877 170.125C141.253 169.661 141.707 169.309 142.241 169.069C142.774 168.823 143.389 168.7 144.086 168.7C144.784 168.7 145.402 168.837 145.942 169.11C146.482 169.377 146.937 169.76 147.306 170.259C147.675 170.758 147.952 171.356 148.137 172.053C148.328 172.744 148.424 173.513 148.424 174.36ZM146.517 174.576V174.36C146.517 173.807 146.458 173.287 146.342 172.802C146.226 172.31 146.045 171.879 145.799 171.51C145.559 171.134 145.252 170.84 144.876 170.628C144.5 170.409 144.052 170.3 143.533 170.3C143.054 170.3 142.637 170.382 142.282 170.546C141.933 170.71 141.636 170.932 141.39 171.212C141.143 171.486 140.942 171.8 140.785 172.156C140.634 172.504 140.521 172.867 140.446 173.243V175.898C140.583 176.377 140.774 176.828 141.02 177.252C141.267 177.669 141.595 178.007 142.005 178.267C142.415 178.52 142.931 178.646 143.553 178.646C144.066 178.646 144.507 178.541 144.876 178.329C145.252 178.11 145.559 177.812 145.799 177.437C146.045 177.061 146.226 176.63 146.342 176.145C146.458 175.652 146.517 175.129 146.517 174.576ZM157.934 177.057C157.934 176.784 157.872 176.531 157.749 176.298C157.633 176.059 157.39 175.844 157.021 175.652C156.659 175.454 156.112 175.283 155.38 175.14C154.765 175.01 154.208 174.856 153.709 174.678C153.217 174.5 152.796 174.285 152.448 174.032C152.106 173.779 151.843 173.482 151.658 173.14C151.474 172.798 151.381 172.398 151.381 171.94C151.381 171.503 151.477 171.089 151.668 170.7C151.867 170.31 152.144 169.965 152.499 169.664C152.861 169.363 153.295 169.127 153.801 168.957C154.307 168.786 154.871 168.7 155.493 168.7C156.382 168.7 157.141 168.857 157.77 169.172C158.398 169.486 158.88 169.907 159.215 170.433C159.55 170.953 159.718 171.53 159.718 172.166H157.821C157.821 171.858 157.729 171.561 157.544 171.274C157.366 170.98 157.103 170.737 156.754 170.546C156.413 170.354 155.992 170.259 155.493 170.259C154.967 170.259 154.54 170.341 154.211 170.505C153.89 170.662 153.654 170.864 153.504 171.11C153.36 171.356 153.289 171.616 153.289 171.889C153.289 172.094 153.323 172.279 153.391 172.443C153.466 172.6 153.596 172.747 153.781 172.884C153.965 173.014 154.225 173.137 154.56 173.253C154.895 173.369 155.322 173.485 155.842 173.602C156.751 173.807 157.5 174.053 158.087 174.34C158.675 174.627 159.113 174.979 159.4 175.396C159.687 175.813 159.831 176.319 159.831 176.914C159.831 177.399 159.728 177.843 159.523 178.247C159.325 178.65 159.034 178.999 158.651 179.292C158.275 179.58 157.824 179.805 157.298 179.969C156.778 180.126 156.194 180.205 155.544 180.205C154.567 180.205 153.74 180.031 153.063 179.682C152.386 179.333 151.874 178.882 151.525 178.329C151.176 177.775 151.002 177.19 151.002 176.575H152.909C152.937 177.095 153.087 177.508 153.36 177.816C153.634 178.117 153.969 178.332 154.365 178.462C154.762 178.585 155.155 178.646 155.544 178.646C156.064 178.646 156.498 178.578 156.847 178.441C157.202 178.305 157.472 178.117 157.657 177.877C157.841 177.638 157.934 177.365 157.934 177.057Z" fill="#363636"/>
<path d="M64.6897 71.4375L68.7092 57.9375H72.6233L66.6819 75H64.1037L64.6897 71.4375ZM60.9866 57.9375L64.9944 71.4375L65.6037 75H63.0022L57.0959 57.9375H60.9866ZM78.2886 62.3203V75H74.9019V62.3203H78.2886ZM74.6909 59.0156C74.6909 58.5234 74.8628 58.1172 75.2066 57.7969C75.5503 57.4766 76.0112 57.3164 76.5894 57.3164C77.1597 57.3164 77.6167 57.4766 77.9605 57.7969C78.312 58.1172 78.4878 58.5234 78.4878 59.0156C78.4878 59.5078 78.312 59.9141 77.9605 60.2344C77.6167 60.5547 77.1597 60.7148 76.5894 60.7148C76.0112 60.7148 75.5503 60.5547 75.2066 60.2344C74.8628 59.9141 74.6909 59.5078 74.6909 59.0156ZM88.6531 71.4961C88.6531 71.2539 88.5828 71.0352 88.4422 70.8398C88.3016 70.6445 88.0398 70.4648 87.657 70.3008C87.282 70.1289 86.7391 69.9727 86.0281 69.832C85.3875 69.6914 84.7898 69.5156 84.2352 69.3047C83.6883 69.0859 83.2117 68.8242 82.8055 68.5195C82.407 68.2148 82.0945 67.8555 81.868 67.4414C81.6414 67.0195 81.5281 66.5391 81.5281 66C81.5281 65.4688 81.6414 64.9688 81.868 64.5C82.1023 64.0312 82.4344 63.6172 82.8641 63.2578C83.3016 62.8906 83.8328 62.6055 84.4578 62.4023C85.0906 62.1914 85.8016 62.0859 86.5906 62.0859C87.6922 62.0859 88.6375 62.2617 89.4266 62.6133C90.2234 62.9648 90.8328 63.4492 91.2547 64.0664C91.6844 64.6758 91.8992 65.3711 91.8992 66.1523H88.5242C88.5242 65.8242 88.4539 65.5312 88.3133 65.2734C88.1805 65.0078 87.9695 64.8008 87.6805 64.6523C87.3992 64.4961 87.032 64.418 86.5789 64.418C86.2039 64.418 85.8797 64.4844 85.6062 64.6172C85.3328 64.7422 85.1219 64.9141 84.9734 65.1328C84.8328 65.3438 84.7625 65.5781 84.7625 65.8359C84.7625 66.0312 84.8016 66.207 84.8797 66.3633C84.9656 66.5117 85.1023 66.6484 85.2898 66.7734C85.4773 66.8984 85.7195 67.0156 86.0164 67.125C86.3211 67.2266 86.6961 67.3203 87.1414 67.4062C88.0555 67.5938 88.8719 67.8398 89.5906 68.1445C90.3094 68.4414 90.8797 68.8477 91.3016 69.3633C91.7234 69.8711 91.9344 70.5391 91.9344 71.3672C91.9344 71.9297 91.8094 72.4453 91.5594 72.9141C91.3094 73.3828 90.95 73.793 90.4812 74.1445C90.0125 74.4883 89.45 74.7578 88.7937 74.9531C88.1453 75.1406 87.4148 75.2344 86.6023 75.2344C85.4227 75.2344 84.4227 75.0234 83.6023 74.6016C82.7898 74.1797 82.1727 73.6445 81.7508 72.9961C81.3367 72.3398 81.1297 71.668 81.1297 70.9805H84.3289C84.3445 71.4414 84.4617 71.8125 84.6805 72.0938C84.907 72.375 85.1922 72.5781 85.5359 72.7031C85.8875 72.8281 86.2664 72.8906 86.6727 72.8906C87.1102 72.8906 87.4734 72.832 87.7625 72.7148C88.0516 72.5898 88.2703 72.4258 88.4187 72.2227C88.575 72.0117 88.6531 71.7695 88.6531 71.4961ZM98.4083 62.3203V75H95.0216V62.3203H98.4083ZM94.8106 59.0156C94.8106 58.5234 94.9825 58.1172 95.3262 57.7969C95.67 57.4766 96.1309 57.3164 96.7091 57.3164C97.2794 57.3164 97.7364 57.4766 98.0802 57.7969C98.4317 58.1172 98.6075 58.5234 98.6075 59.0156C98.6075 59.5078 98.4317 59.9141 98.0802 60.2344C97.7364 60.5547 97.2794 60.7148 96.7091 60.7148C96.1309 60.7148 95.67 60.5547 95.3262 60.2344C94.9825 59.9141 94.8106 59.5078 94.8106 59.0156ZM101.917 57H105.292V72.0938L104.952 75H101.917V57ZM113.32 68.5312V68.7773C113.32 69.7227 113.218 70.5898 113.015 71.3789C112.82 72.168 112.515 72.8516 112.101 73.4297C111.687 74 111.171 74.4453 110.554 74.7656C109.945 75.0781 109.226 75.2344 108.398 75.2344C107.624 75.2344 106.952 75.0781 106.382 74.7656C105.82 74.4531 105.347 74.0117 104.964 73.4414C104.581 72.8711 104.273 72.2031 104.038 71.4375C103.804 70.6719 103.628 69.8359 103.511 68.9297V68.3906C103.628 67.4844 103.804 66.6484 104.038 65.8828C104.273 65.1172 104.581 64.4492 104.964 63.8789C105.347 63.3086 105.82 62.8672 106.382 62.5547C106.945 62.2422 107.609 62.0859 108.374 62.0859C109.21 62.0859 109.937 62.2461 110.554 62.5664C111.179 62.8789 111.695 63.3242 112.101 63.9023C112.515 64.4727 112.82 65.1523 113.015 65.9414C113.218 66.7227 113.32 67.5859 113.32 68.5312ZM109.945 68.7773V68.5312C109.945 68.0156 109.906 67.5312 109.827 67.0781C109.757 66.6172 109.632 66.2148 109.452 65.8711C109.273 65.5195 109.027 65.2422 108.714 65.0391C108.41 64.8359 108.015 64.7344 107.531 64.7344C107.07 64.7344 106.679 64.8125 106.359 64.9688C106.038 65.125 105.773 65.3438 105.562 65.625C105.359 65.9062 105.206 66.2422 105.105 66.6328C105.003 67.0156 104.941 67.4375 104.917 67.8984V69.4336C104.941 70.0508 105.042 70.5977 105.222 71.0742C105.41 71.543 105.691 71.9141 106.066 72.1875C106.449 72.4531 106.945 72.5859 107.554 72.5859C108.031 72.5859 108.425 72.4922 108.738 72.3047C109.05 72.1172 109.292 71.8516 109.464 71.5078C109.644 71.1641 109.769 70.7617 109.839 70.3008C109.91 69.832 109.945 69.3242 109.945 68.7773ZM119.7 62.3203V75H116.313V62.3203H119.7ZM116.102 59.0156C116.102 58.5234 116.274 58.1172 116.618 57.7969C116.962 57.4766 117.423 57.3164 118.001 57.3164C118.571 57.3164 119.028 57.4766 119.372 57.7969C119.723 58.1172 119.899 58.5234 119.899 59.0156C119.899 59.5078 119.723 59.9141 119.372 60.2344C119.028 60.5547 118.571 60.7148 118.001 60.7148C117.423 60.7148 116.962 60.5547 116.618 60.2344C116.274 59.9141 116.102 59.5078 116.102 59.0156ZM126.771 57V75H123.385V57H126.771ZM133.843 62.3203V75H130.456V62.3203H133.843ZM130.245 59.0156C130.245 58.5234 130.417 58.1172 130.761 57.7969C131.105 57.4766 131.566 57.3164 132.144 57.3164C132.714 57.3164 133.171 57.4766 133.515 57.7969C133.866 58.1172 134.042 58.5234 134.042 59.0156C134.042 59.5078 133.866 59.9141 133.515 60.2344C133.171 60.5547 132.714 60.7148 132.144 60.7148C131.566 60.7148 131.105 60.5547 130.761 60.2344C130.417 59.9141 130.245 59.5078 130.245 59.0156ZM143.563 62.3203V64.7109H136.18V62.3203H143.563ZM138.008 59.1914H141.383V71.1797C141.383 71.5469 141.43 71.8281 141.524 72.0234C141.625 72.2188 141.774 72.3555 141.969 72.4336C142.165 72.5039 142.411 72.5391 142.708 72.5391C142.918 72.5391 143.106 72.5312 143.27 72.5156C143.442 72.4922 143.586 72.4688 143.704 72.4453L143.715 74.9297C143.426 75.0234 143.114 75.0977 142.778 75.1523C142.442 75.207 142.071 75.2344 141.665 75.2344C140.922 75.2344 140.274 75.1133 139.719 74.8711C139.172 74.6211 138.75 74.2227 138.454 73.6758C138.157 73.1289 138.008 72.4102 138.008 71.5195V59.1914ZM149.967 73.5703L153.33 62.3203H156.951L151.853 76.9102C151.744 77.2305 151.595 77.5742 151.408 77.9414C151.228 78.3086 150.982 78.6562 150.67 78.9844C150.365 79.3203 149.978 79.5938 149.51 79.8047C149.049 80.0156 148.482 80.1211 147.81 80.1211C147.49 80.1211 147.228 80.1016 147.025 80.0625C146.822 80.0234 146.58 79.9688 146.299 79.8984V77.4258C146.385 77.4258 146.474 77.4258 146.568 77.4258C146.662 77.4336 146.752 77.4375 146.838 77.4375C147.283 77.4375 147.646 77.3867 147.928 77.2852C148.209 77.1836 148.435 77.0273 148.607 76.8164C148.779 76.6133 148.916 76.3477 149.017 76.0195L149.967 73.5703ZM148.56 62.3203L151.314 71.5078L151.795 75.082L149.498 75.3281L144.939 62.3203H148.56Z" fill="#114DFF"/>
<path d="M117.371 3.86408C118.165 3.55928 119.023 3.45239 119.868 3.55263C120.714 3.65287 121.522 3.95722 122.224 4.43946C122.925 4.9217 123.499 5.56735 123.896 6.32074C124.292 7.07414 124.5 7.91268 124.5 8.76408V29.7571C124.499 30.5829 124.304 31.397 123.93 32.1332C123.555 32.8693 123.013 33.5068 122.346 33.9938C121.679 34.4807 120.906 34.8035 120.091 34.9358C119.276 35.068 118.441 35.0061 117.654 34.7551L110.437 32.4521C110.199 34.2126 109.301 35.8169 107.924 36.9398C106.547 38.0626 104.795 38.62 103.023 38.4989C101.251 38.3778 99.5905 37.5874 98.3792 36.2878C97.168 34.9881 96.4962 33.2766 96.5 31.5001V28.0106L93.154 26.9431C92.0939 26.6048 91.1686 25.9384 90.5118 25.04C89.8551 24.1417 89.5007 23.0579 89.5 21.9451V18.1581C89.4997 17.0957 89.8217 16.0582 90.4235 15.1827C91.0253 14.3072 91.8785 13.6349 92.8705 13.2546L117.371 3.86408ZM100 29.1271V31.5001C100 32.4283 100.369 33.3186 101.025 33.9749C101.682 34.6313 102.572 35.0001 103.5 35.0001C104.428 35.0001 105.318 34.6313 105.975 33.9749C106.631 33.3186 107 32.4283 107 31.5001V31.3601L100 29.1271Z" fill="#3CE5A7"/>
</svg>
