<svg width="215" height="243" viewBox="0 0 215 243" fill="none" xmlns="http://www.w3.org/2000/svg">
<path d="M11.197 104.017H7.41326L7.39275 102.428H10.8278C11.3952 102.428 11.8908 102.332 12.3146 102.141C12.7385 101.949 13.0666 101.676 13.299 101.32C13.5383 100.958 13.6579 100.527 13.6579 100.028C13.6579 99.4814 13.5519 99.0371 13.34 98.6953C13.1349 98.3467 12.8171 98.0938 12.3864 97.9365C11.9626 97.7725 11.4225 97.6904 10.7663 97.6904H7.85418V111H5.87518V96.0703H10.7663C11.5319 96.0703 12.2155 96.1489 12.8171 96.3062C13.4186 96.4565 13.9279 96.6958 14.3449 97.0239C14.7687 97.3452 15.09 97.7554 15.3088 98.2544C15.5275 98.7534 15.6369 99.3516 15.6369 100.049C15.6369 100.664 15.4797 101.221 15.1652 101.72C14.8508 102.212 14.4133 102.616 13.8527 102.93C13.299 103.245 12.6496 103.446 11.9045 103.535L11.197 104.017ZM11.1047 111H6.63396L7.75164 109.39H11.1047C11.7336 109.39 12.2668 109.281 12.7043 109.062C13.1486 108.843 13.487 108.536 13.7194 108.139C13.9518 107.736 14.068 107.261 14.068 106.714C14.068 106.16 13.9689 105.682 13.7707 105.278C13.5724 104.875 13.2614 104.564 12.8376 104.345C12.4137 104.126 11.8669 104.017 11.197 104.017H8.37713L8.39764 102.428H12.2531L12.6735 103.002C13.3913 103.063 13.9997 103.269 14.4987 103.617C14.9977 103.959 15.3771 104.396 15.6369 104.93C15.9035 105.463 16.0368 106.051 16.0368 106.693C16.0368 107.623 15.8317 108.409 15.4216 109.052C15.0182 109.688 14.4474 110.173 13.7092 110.508C12.9709 110.836 12.1027 111 11.1047 111ZM26.0901 108.437V99.9053H27.9974V111H26.1824L26.0901 108.437ZM26.449 106.099L27.2386 106.078C27.2386 106.816 27.16 107.5 27.0027 108.129C26.8523 108.751 26.6063 109.291 26.2645 109.749C25.9227 110.207 25.4749 110.566 24.9212 110.826C24.3675 111.079 23.6941 111.205 22.9012 111.205C22.3611 111.205 21.8655 111.126 21.4144 110.969C20.97 110.812 20.5872 110.569 20.2659 110.241C19.9446 109.913 19.6951 109.486 19.5174 108.959C19.3465 108.433 19.261 107.801 19.261 107.062V99.9053H21.158V107.083C21.158 107.582 21.2127 107.996 21.3221 108.324C21.4383 108.645 21.5921 108.901 21.7835 109.093C21.9817 109.277 22.2005 109.407 22.4397 109.482C22.6858 109.558 22.9388 109.595 23.1985 109.595C24.0052 109.595 24.6443 109.441 25.116 109.134C25.5877 108.819 25.9261 108.399 26.1312 107.873C26.3431 107.339 26.449 106.748 26.449 106.099ZM33.58 99.9053V111H31.6728V99.9053H33.58ZM31.5292 96.9624C31.5292 96.6548 31.6215 96.395 31.8061 96.1831C31.9975 95.9712 32.2778 95.8652 32.6469 95.8652C33.0092 95.8652 33.2861 95.9712 33.4775 96.1831C33.6757 96.395 33.7748 96.6548 33.7748 96.9624C33.7748 97.2563 33.6757 97.5093 33.4775 97.7212C33.2861 97.9263 33.0092 98.0288 32.6469 98.0288C32.2778 98.0288 31.9975 97.9263 31.8061 97.7212C31.6215 97.5093 31.5292 97.2563 31.5292 96.9624ZM39.3164 95.25V111H37.4092V95.25H39.3164ZM49.985 108.847V95.25H51.8922V111H50.1491L49.985 108.847ZM42.5202 105.576V105.36C42.5202 104.513 42.6227 103.744 42.8278 103.053C43.0397 102.356 43.3371 101.758 43.7199 101.259C44.1095 100.76 44.571 100.377 45.1042 100.11C45.6442 99.8369 46.2458 99.7002 46.9088 99.7002C47.6061 99.7002 48.2145 99.8232 48.734 100.069C49.2604 100.309 49.7047 100.661 50.0671 101.125C50.4362 101.583 50.7267 102.137 50.9386 102.787C51.1505 103.436 51.2975 104.171 51.3796 104.991V105.935C51.3044 106.748 51.1574 107.479 50.9386 108.129C50.7267 108.778 50.4362 109.332 50.0671 109.79C49.7047 110.248 49.2604 110.6 48.734 110.846C48.2077 111.085 47.5924 111.205 46.8883 111.205C46.2389 111.205 45.6442 111.065 45.1042 110.785C44.571 110.504 44.1095 110.111 43.7199 109.605C43.3371 109.1 43.0397 108.505 42.8278 107.821C42.6227 107.131 42.5202 106.382 42.5202 105.576ZM44.4274 105.36V105.576C44.4274 106.129 44.4821 106.649 44.5915 107.134C44.7077 107.62 44.8854 108.047 45.1247 108.416C45.3639 108.785 45.6681 109.076 46.0373 109.288C46.4064 109.493 46.8473 109.595 47.36 109.595C47.9889 109.595 48.505 109.462 48.9084 109.195C49.3185 108.929 49.6466 108.577 49.8927 108.139C50.1388 107.702 50.3302 107.227 50.467 106.714V104.243C50.3849 103.867 50.2653 103.504 50.1081 103.156C49.9577 102.8 49.7594 102.486 49.5133 102.212C49.2741 101.932 48.9767 101.71 48.6213 101.546C48.2726 101.382 47.859 101.3 47.3805 101.3C46.861 101.3 46.4132 101.409 46.0373 101.628C45.6681 101.84 45.3639 102.134 45.1247 102.51C44.8854 102.879 44.7077 103.31 44.5915 103.802C44.4821 104.287 44.4274 104.807 44.4274 105.36ZM67.8563 109.103V103.392C67.8563 102.954 67.7675 102.575 67.5897 102.253C67.4188 101.925 67.1591 101.672 66.8104 101.495C66.4618 101.317 66.0312 101.228 65.5185 101.228C65.0399 101.228 64.6195 101.31 64.2572 101.474C63.9018 101.638 63.6215 101.854 63.4164 102.12C63.2182 102.387 63.119 102.674 63.119 102.981H61.2221C61.2221 102.585 61.3246 102.192 61.5297 101.802C61.7348 101.413 62.0287 101.061 62.4115 100.746C62.8012 100.425 63.266 100.172 63.8061 99.9873C64.3529 99.7959 64.9613 99.7002 65.6312 99.7002C66.4379 99.7002 67.1488 99.8369 67.7641 100.11C68.3861 100.384 68.8715 100.797 69.2201 101.351C69.5756 101.898 69.7533 102.585 69.7533 103.412V108.58C69.7533 108.949 69.7841 109.342 69.8456 109.759C69.914 110.176 70.0131 110.535 70.143 110.836V111H68.164C68.0683 110.781 67.9931 110.491 67.9384 110.128C67.8837 109.759 67.8563 109.417 67.8563 109.103ZM68.1845 104.273L68.205 105.606H66.2875C65.7475 105.606 65.2655 105.651 64.8417 105.74C64.4179 105.822 64.0624 105.948 63.7753 106.119C63.4882 106.29 63.2694 106.505 63.119 106.765C62.9687 107.018 62.8935 107.315 62.8935 107.657C62.8935 108.006 62.9721 108.324 63.1293 108.611C63.2865 108.898 63.5224 109.127 63.8368 109.298C64.1581 109.462 64.5512 109.544 65.016 109.544C65.5971 109.544 66.1098 109.421 66.5541 109.175C66.9984 108.929 67.3505 108.628 67.6103 108.272C67.8769 107.917 68.0204 107.572 68.0409 107.237L68.851 108.149C68.8031 108.437 68.6732 108.754 68.4613 109.103C68.2494 109.452 67.9657 109.787 67.6103 110.108C67.2616 110.422 66.8446 110.686 66.3593 110.897C65.8808 111.103 65.3407 111.205 64.7392 111.205C63.9872 111.205 63.3275 111.058 62.7602 110.764C62.1996 110.47 61.7621 110.077 61.4477 109.585C61.14 109.086 60.9862 108.529 60.9862 107.914C60.9862 107.319 61.1024 106.796 61.3349 106.345C61.5673 105.887 61.9022 105.507 62.3397 105.207C62.7772 104.899 63.3036 104.667 63.9188 104.509C64.5341 104.352 65.2211 104.273 65.9799 104.273H68.1845ZM81.1032 102.038V115.266H79.1959V99.9053H80.9391L81.1032 102.038ZM88.5783 105.36V105.576C88.5783 106.382 88.4826 107.131 88.2912 107.821C88.0997 108.505 87.8195 109.1 87.4503 109.605C87.088 110.111 86.6403 110.504 86.1071 110.785C85.5739 111.065 84.9621 111.205 84.2716 111.205C83.5675 111.205 82.9454 111.089 82.4054 110.856C81.8654 110.624 81.4074 110.286 81.0314 109.841C80.6554 109.397 80.3546 108.864 80.129 108.242C79.9103 107.62 79.7599 106.919 79.6779 106.14V104.991C79.7599 104.171 79.9137 103.436 80.1393 102.787C80.3649 102.137 80.6622 101.583 81.0314 101.125C81.4074 100.661 81.862 100.309 82.3952 100.069C82.9284 99.8232 83.5436 99.7002 84.2409 99.7002C84.9381 99.7002 85.5568 99.8369 86.0968 100.11C86.6369 100.377 87.0914 100.76 87.4606 101.259C87.8297 101.758 88.1066 102.356 88.2912 103.053C88.4826 103.744 88.5783 104.513 88.5783 105.36ZM86.671 105.576V105.36C86.671 104.807 86.6129 104.287 86.4967 103.802C86.3805 103.31 86.1994 102.879 85.9533 102.51C85.714 102.134 85.4064 101.84 85.0304 101.628C84.6544 101.409 84.2067 101.3 83.6871 101.3C83.2086 101.3 82.7916 101.382 82.4362 101.546C82.0875 101.71 81.7902 101.932 81.5441 102.212C81.298 102.486 81.0963 102.8 80.9391 103.156C80.7887 103.504 80.6759 103.867 80.6007 104.243V106.898C80.7374 107.377 80.9288 107.828 81.1749 108.252C81.421 108.669 81.7492 109.007 82.1593 109.267C82.5695 109.52 83.0856 109.646 83.7077 109.646C84.2204 109.646 84.6613 109.541 85.0304 109.329C85.4064 109.11 85.714 108.812 85.9533 108.437C86.1994 108.061 86.3805 107.63 86.4967 107.145C86.6129 106.652 86.671 106.129 86.671 105.576ZM91.1257 105.576V105.34C91.1257 104.54 91.242 103.798 91.4744 103.115C91.7068 102.424 92.0418 101.826 92.4793 101.32C92.9168 100.808 93.4465 100.411 94.0686 100.131C94.6907 99.8438 95.3879 99.7002 96.1604 99.7002C96.9397 99.7002 97.6404 99.8438 98.2625 100.131C98.8914 100.411 99.4246 100.808 99.8621 101.32C100.306 101.826 100.645 102.424 100.877 103.115C101.11 103.798 101.226 104.54 101.226 105.34V105.576C101.226 106.375 101.11 107.117 100.877 107.801C100.645 108.484 100.306 109.083 99.8621 109.595C99.4246 110.101 98.8948 110.498 98.2727 110.785C97.6575 111.065 96.9602 111.205 96.1809 111.205C95.4016 111.205 94.7009 111.065 94.0789 110.785C93.4568 110.498 92.9236 110.101 92.4793 109.595C92.0418 109.083 91.7068 108.484 91.4744 107.801C91.242 107.117 91.1257 106.375 91.1257 105.576ZM93.0227 105.34V105.576C93.0227 106.129 93.0877 106.652 93.2175 107.145C93.3474 107.63 93.5422 108.061 93.802 108.437C94.0686 108.812 94.4002 109.11 94.7966 109.329C95.1931 109.541 95.6545 109.646 96.1809 109.646C96.7004 109.646 97.155 109.541 97.5447 109.329C97.9412 109.11 98.2693 108.812 98.5291 108.437C98.7888 108.061 98.9837 107.63 99.1135 107.145C99.2503 106.652 99.3186 106.129 99.3186 105.576V105.34C99.3186 104.793 99.2503 104.277 99.1135 103.792C98.9837 103.299 98.7854 102.865 98.5188 102.489C98.259 102.106 97.9309 101.806 97.5344 101.587C97.1448 101.368 96.6868 101.259 96.1604 101.259C95.6409 101.259 95.1829 101.368 94.7864 101.587C94.3967 101.806 94.0686 102.106 93.802 102.489C93.5422 102.865 93.3474 103.299 93.2175 103.792C93.0877 104.277 93.0227 104.793 93.0227 105.34ZM106.132 101.648V111H104.235V99.9053H106.08L106.132 101.648ZM109.598 99.8438L109.587 101.607C109.43 101.573 109.28 101.553 109.136 101.546C108.999 101.532 108.842 101.525 108.664 101.525C108.227 101.525 107.841 101.594 107.506 101.73C107.171 101.867 106.887 102.059 106.655 102.305C106.422 102.551 106.238 102.845 106.101 103.187C105.971 103.521 105.886 103.891 105.845 104.294L105.311 104.602C105.311 103.932 105.376 103.303 105.506 102.715C105.643 102.127 105.851 101.607 106.132 101.156C106.412 100.698 106.767 100.343 107.198 100.09C107.636 99.8301 108.155 99.7002 108.757 99.7002C108.893 99.7002 109.051 99.7173 109.228 99.7515C109.406 99.7788 109.529 99.8096 109.598 99.8438ZM117.139 99.9053V101.361H111.14V99.9053H117.139ZM113.17 97.2085H115.067V108.252C115.067 108.628 115.125 108.912 115.242 109.103C115.358 109.294 115.508 109.421 115.693 109.482C115.877 109.544 116.076 109.575 116.288 109.575C116.445 109.575 116.609 109.561 116.78 109.534C116.958 109.5 117.091 109.472 117.18 109.452L117.19 111C117.04 111.048 116.841 111.092 116.595 111.133C116.356 111.181 116.065 111.205 115.724 111.205C115.259 111.205 114.832 111.113 114.442 110.928C114.052 110.744 113.741 110.436 113.509 110.005C113.283 109.568 113.17 108.98 113.17 108.242V97.2085ZM122.824 111H120.927V98.7363C120.927 97.9365 121.07 97.2632 121.358 96.7163C121.651 96.1626 122.072 95.7456 122.619 95.4653C123.166 95.1782 123.815 95.0347 124.567 95.0347C124.786 95.0347 125.005 95.0483 125.223 95.0757C125.449 95.103 125.668 95.144 125.88 95.1987L125.777 96.7471C125.633 96.7129 125.469 96.689 125.285 96.6753C125.107 96.6616 124.929 96.6548 124.752 96.6548C124.348 96.6548 124 96.7368 123.706 96.9009C123.419 97.0581 123.2 97.2905 123.049 97.5981C122.899 97.9058 122.824 98.2852 122.824 98.7363V111ZM125.182 99.9053V101.361H119.173V99.9053H125.182ZM127.422 105.576V105.34C127.422 104.54 127.538 103.798 127.771 103.115C128.003 102.424 128.338 101.826 128.776 101.32C129.213 100.808 129.743 100.411 130.365 100.131C130.987 99.8438 131.684 99.7002 132.457 99.7002C133.236 99.7002 133.937 99.8438 134.559 100.131C135.188 100.411 135.721 100.808 136.158 101.32C136.603 101.826 136.941 102.424 137.174 103.115C137.406 103.798 137.522 104.54 137.522 105.34V105.576C137.522 106.375 137.406 107.117 137.174 107.801C136.941 108.484 136.603 109.083 136.158 109.595C135.721 110.101 135.191 110.498 134.569 110.785C133.954 111.065 133.257 111.205 132.477 111.205C131.698 111.205 130.997 111.065 130.375 110.785C129.753 110.498 129.22 110.101 128.776 109.595C128.338 109.083 128.003 108.484 127.771 107.801C127.538 107.117 127.422 106.375 127.422 105.576ZM129.319 105.34V105.576C129.319 106.129 129.384 106.652 129.514 107.145C129.644 107.63 129.839 108.061 130.098 108.437C130.365 108.812 130.697 109.11 131.093 109.329C131.489 109.541 131.951 109.646 132.477 109.646C132.997 109.646 133.451 109.541 133.841 109.329C134.238 109.11 134.566 108.812 134.825 108.437C135.085 108.061 135.28 107.63 135.41 107.145C135.547 106.652 135.615 106.129 135.615 105.576V105.34C135.615 104.793 135.547 104.277 135.41 103.792C135.28 103.299 135.082 102.865 134.815 102.489C134.555 102.106 134.227 101.806 133.831 101.587C133.441 101.368 132.983 101.259 132.457 101.259C131.937 101.259 131.479 101.368 131.083 101.587C130.693 101.806 130.365 102.106 130.098 102.489C129.839 102.865 129.644 103.299 129.514 103.792C129.384 104.277 129.319 104.793 129.319 105.34ZM142.592 95.25V111H140.685V95.25H142.592ZM148.329 99.9053V111H146.421V99.9053H148.329ZM146.278 96.9624C146.278 96.6548 146.37 96.395 146.555 96.1831C146.746 95.9712 147.026 95.8652 147.395 95.8652C147.758 95.8652 148.035 95.9712 148.226 96.1831C148.424 96.395 148.523 96.6548 148.523 96.9624C148.523 97.2563 148.424 97.5093 148.226 97.7212C148.035 97.9263 147.758 98.0288 147.395 98.0288C147.026 98.0288 146.746 97.9263 146.555 97.7212C146.37 97.5093 146.278 97.2563 146.278 96.9624ZM151.502 105.576V105.34C151.502 104.54 151.618 103.798 151.85 103.115C152.083 102.424 152.418 101.826 152.855 101.32C153.293 100.808 153.822 100.411 154.444 100.131C155.066 99.8438 155.764 99.7002 156.536 99.7002C157.316 99.7002 158.016 99.8438 158.638 100.131C159.267 100.411 159.8 100.808 160.238 101.32C160.682 101.826 161.021 102.424 161.253 103.115C161.485 103.798 161.602 104.54 161.602 105.34V105.576C161.602 106.375 161.485 107.117 161.253 107.801C161.021 108.484 160.682 109.083 160.238 109.595C159.8 110.101 159.271 110.498 158.649 110.785C158.033 111.065 157.336 111.205 156.557 111.205C155.777 111.205 155.077 111.065 154.455 110.785C153.833 110.498 153.299 110.101 152.855 109.595C152.418 109.083 152.083 108.484 151.85 107.801C151.618 107.117 151.502 106.375 151.502 105.576ZM153.399 105.34V105.576C153.399 106.129 153.463 106.652 153.593 107.145C153.723 107.63 153.918 108.061 154.178 108.437C154.444 108.812 154.776 109.11 155.172 109.329C155.569 109.541 156.03 109.646 156.557 109.646C157.076 109.646 157.531 109.541 157.921 109.329C158.317 109.11 158.645 108.812 158.905 108.437C159.165 108.061 159.359 107.63 159.489 107.145C159.626 106.652 159.694 106.129 159.694 105.576V105.34C159.694 104.793 159.626 104.277 159.489 103.792C159.359 103.299 159.161 102.865 158.895 102.489C158.635 102.106 158.307 101.806 157.91 101.587C157.521 101.368 157.063 101.259 156.536 101.259C156.017 101.259 155.559 101.368 155.162 101.587C154.773 101.806 154.444 102.106 154.178 102.489C153.918 102.865 153.723 103.299 153.593 103.792C153.463 104.277 153.399 104.793 153.399 105.34ZM173.259 109.031L176.11 99.9053H177.361L177.115 101.72L174.213 111H172.993L173.259 109.031ZM171.342 99.9053L173.772 109.134L173.946 111H172.664L169.445 99.9053H171.342ZM180.088 109.062L182.406 99.9053H184.292L181.073 111H179.801L180.088 109.062ZM177.638 99.9053L180.427 108.877L180.744 111H179.535L176.551 101.7L176.305 99.9053H177.638ZM188.932 99.9053V111H187.024V99.9053H188.932ZM186.881 96.9624C186.881 96.6548 186.973 96.395 187.158 96.1831C187.349 95.9712 187.629 95.8652 187.999 95.8652C188.361 95.8652 188.638 95.9712 188.829 96.1831C189.027 96.395 189.126 96.6548 189.126 96.9624C189.126 97.2563 189.027 97.5093 188.829 97.7212C188.638 97.9263 188.361 98.0288 187.999 98.0288C187.629 98.0288 187.349 97.9263 187.158 97.7212C186.973 97.5093 186.881 97.2563 186.881 96.9624ZM197.252 99.9053V101.361H191.254V99.9053H197.252ZM193.284 97.2085H195.181V108.252C195.181 108.628 195.239 108.912 195.355 109.103C195.471 109.294 195.622 109.421 195.806 109.482C195.991 109.544 196.189 109.575 196.401 109.575C196.558 109.575 196.722 109.561 196.893 109.534C197.071 109.5 197.204 109.472 197.293 109.452L197.303 111C197.153 111.048 196.955 111.092 196.709 111.133C196.469 111.181 196.179 111.205 195.837 111.205C195.372 111.205 194.945 111.113 194.555 110.928C194.166 110.744 193.855 110.436 193.622 110.005C193.397 109.568 193.284 108.98 193.284 108.242V97.2085ZM202.004 95.25V111H200.107V95.25H202.004ZM201.553 105.032L200.763 105.001C200.77 104.243 200.883 103.542 201.102 102.899C201.32 102.25 201.628 101.686 202.025 101.208C202.421 100.729 202.893 100.36 203.44 100.1C203.993 99.8335 204.605 99.7002 205.275 99.7002C205.822 99.7002 206.314 99.7754 206.752 99.9258C207.189 100.069 207.562 100.302 207.869 100.623C208.184 100.944 208.423 101.361 208.587 101.874C208.751 102.38 208.833 102.999 208.833 103.73V111H206.926V103.709C206.926 103.128 206.841 102.664 206.67 102.315C206.499 101.959 206.249 101.703 205.921 101.546C205.593 101.382 205.19 101.3 204.711 101.3C204.239 101.3 203.809 101.399 203.419 101.597C203.036 101.795 202.705 102.069 202.424 102.417C202.151 102.766 201.936 103.166 201.779 103.617C201.628 104.062 201.553 104.533 201.553 105.032ZM53.0116 131.057C53.0116 130.784 52.95 130.531 52.827 130.298C52.7108 130.059 52.4681 129.844 52.099 129.652C51.7367 129.454 51.1898 129.283 50.4583 129.14C49.8431 129.01 49.286 128.856 48.787 128.678C48.2948 128.5 47.8744 128.285 47.5257 128.032C47.1839 127.779 46.9207 127.482 46.7362 127.14C46.5516 126.798 46.4593 126.398 46.4593 125.94C46.4593 125.503 46.555 125.089 46.7464 124.7C46.9447 124.31 47.2215 123.965 47.577 123.664C47.9393 123.363 48.3734 123.127 48.8792 122.957C49.3851 122.786 49.9491 122.7 50.5711 122.7C51.4598 122.7 52.2186 122.857 52.8475 123.172C53.4764 123.486 53.9583 123.907 54.2933 124.433C54.6283 124.953 54.7957 125.53 54.7957 126.166H52.8988C52.8988 125.858 52.8065 125.561 52.6219 125.274C52.4442 124.98 52.181 124.737 51.8324 124.546C51.4906 124.354 51.0702 124.259 50.5711 124.259C50.0448 124.259 49.6175 124.341 49.2894 124.505C48.9681 124.662 48.7323 124.864 48.5819 125.11C48.4383 125.356 48.3665 125.616 48.3665 125.889C48.3665 126.094 48.4007 126.279 48.4691 126.443C48.5443 126.6 48.6742 126.747 48.8587 126.884C49.0433 127.014 49.3031 127.137 49.638 127.253C49.973 127.369 50.4002 127.485 50.9198 127.602C51.8289 127.807 52.5775 128.053 53.1654 128.34C53.7533 128.627 54.1908 128.979 54.4779 129.396C54.765 129.813 54.9085 130.319 54.9085 130.914C54.9085 131.399 54.806 131.843 54.6009 132.247C54.4027 132.65 54.1121 132.999 53.7293 133.292C53.3534 133.58 52.9022 133.805 52.3758 133.969C51.8563 134.126 51.2718 134.205 50.6224 134.205C49.6449 134.205 48.8177 134.031 48.141 133.682C47.4642 133.333 46.9515 132.882 46.6029 132.329C46.2542 131.775 46.0799 131.19 46.0799 130.575H47.9871C48.0145 131.095 48.1649 131.508 48.4383 131.816C48.7118 132.117 49.0467 132.332 49.4432 132.462C49.8397 132.585 50.2328 132.646 50.6224 132.646C51.1419 132.646 51.576 132.578 51.9246 132.441C52.2801 132.305 52.5501 132.117 52.7347 131.877C52.9193 131.638 53.0116 131.365 53.0116 131.057ZM60.8398 132.031L63.6904 122.905H64.9414L64.6953 124.72L61.7934 134H60.5732L60.8398 132.031ZM58.9223 122.905L61.3525 132.134L61.5268 134H60.2451L57.0254 122.905H58.9223ZM67.6689 132.062L69.9863 122.905H71.873L68.6533 134H67.3818L67.6689 132.062ZM65.2182 122.905L68.0073 131.877L68.3252 134H67.1152L64.1313 124.7L63.8852 122.905H65.2182ZM79.0553 134.205C78.2828 134.205 77.5821 134.075 76.9532 133.815C76.3311 133.549 75.7945 133.176 75.3433 132.698C74.899 132.219 74.5572 131.652 74.3179 130.996C74.0787 130.339 73.9591 129.622 73.9591 128.842V128.412C73.9591 127.509 74.0924 126.706 74.359 126.002C74.6256 125.291 74.9879 124.689 75.4459 124.197C75.9039 123.705 76.4234 123.333 77.0045 123.08C77.5855 122.827 78.1871 122.7 78.8092 122.7C79.6021 122.7 80.2857 122.837 80.8599 123.11C81.441 123.384 81.9161 123.767 82.2852 124.259C82.6544 124.744 82.9278 125.318 83.1055 125.981C83.2833 126.638 83.3721 127.355 83.3721 128.135V128.986H75.087V127.438H81.4752V127.294C81.4478 126.802 81.3453 126.323 81.1676 125.858C80.9967 125.394 80.7232 125.011 80.3472 124.71C79.9713 124.409 79.4586 124.259 78.8092 124.259C78.3785 124.259 77.982 124.351 77.6197 124.536C77.2574 124.713 76.9464 124.98 76.6866 125.335C76.4268 125.691 76.2252 126.125 76.0816 126.638C75.9381 127.15 75.8663 127.742 75.8663 128.412V128.842C75.8663 129.369 75.9381 129.864 76.0816 130.329C76.232 130.787 76.4473 131.19 76.7276 131.539C77.0147 131.888 77.3599 132.161 77.7633 132.359C78.1734 132.558 78.6383 132.657 79.1578 132.657C79.8277 132.657 80.3951 132.52 80.8599 132.247C81.3248 131.973 81.7315 131.607 82.0802 131.149L83.2286 132.062C82.9893 132.424 82.6851 132.77 82.316 133.098C81.9469 133.426 81.4923 133.692 80.9522 133.897C80.419 134.103 79.7867 134.205 79.0553 134.205ZM92.759 132.103V126.392C92.759 125.954 92.6701 125.575 92.4924 125.253C92.3215 124.925 92.0617 124.672 91.7131 124.495C91.3645 124.317 90.9338 124.228 90.4211 124.228C89.9426 124.228 89.5222 124.31 89.1599 124.474C88.8044 124.638 88.5241 124.854 88.319 125.12C88.1208 125.387 88.0217 125.674 88.0217 125.981H86.1247C86.1247 125.585 86.2272 125.192 86.4323 124.802C86.6374 124.413 86.9314 124.061 87.3142 123.746C87.7038 123.425 88.1687 123.172 88.7087 122.987C89.2556 122.796 89.864 122.7 90.5339 122.7C91.3405 122.7 92.0515 122.837 92.6667 123.11C93.2888 123.384 93.7741 123.797 94.1228 124.351C94.4782 124.898 94.656 125.585 94.656 126.412V131.58C94.656 131.949 94.6867 132.342 94.7482 132.759C94.8166 133.176 94.9157 133.535 95.0456 133.836V134H93.0666C92.9709 133.781 92.8957 133.491 92.841 133.128C92.7863 132.759 92.759 132.417 92.759 132.103ZM93.0871 127.273L93.1076 128.606H91.1901C90.6501 128.606 90.1682 128.651 89.7443 128.74C89.3205 128.822 88.965 128.948 88.6779 129.119C88.3908 129.29 88.1721 129.505 88.0217 129.765C87.8713 130.018 87.7961 130.315 87.7961 130.657C87.7961 131.006 87.8747 131.324 88.0319 131.611C88.1892 131.898 88.425 132.127 88.7395 132.298C89.0607 132.462 89.4538 132.544 89.9187 132.544C90.4997 132.544 91.0124 132.421 91.4567 132.175C91.9011 131.929 92.2531 131.628 92.5129 131.272C92.7795 130.917 92.923 130.572 92.9436 130.237L93.7536 131.149C93.7058 131.437 93.5759 131.754 93.364 132.103C93.1521 132.452 92.8684 132.787 92.5129 133.108C92.1643 133.422 91.7473 133.686 91.2619 133.897C90.7834 134.103 90.2434 134.205 89.6418 134.205C88.8898 134.205 88.2302 134.058 87.6628 133.764C87.1022 133.47 86.6647 133.077 86.3503 132.585C86.0427 132.086 85.8889 131.529 85.8889 130.914C85.8889 130.319 86.0051 129.796 86.2375 129.345C86.4699 128.887 86.8049 128.507 87.2424 128.207C87.6799 127.899 88.2063 127.667 88.8215 127.509C89.4367 127.352 90.1237 127.273 90.8825 127.273H93.0871ZM102.915 122.905V124.361H96.9163V122.905H102.915ZM98.9466 120.208H100.844V131.252C100.844 131.628 100.902 131.912 101.018 132.103C101.134 132.294 101.284 132.421 101.469 132.482C101.654 132.544 101.852 132.575 102.064 132.575C102.221 132.575 102.385 132.561 102.556 132.534C102.734 132.5 102.867 132.472 102.956 132.452L102.966 134C102.816 134.048 102.618 134.092 102.371 134.133C102.132 134.181 101.842 134.205 101.5 134.205C101.035 134.205 100.608 134.113 100.218 133.928C99.8284 133.744 99.5174 133.436 99.285 133.005C99.0594 132.568 98.9466 131.98 98.9466 131.242V120.208ZM116.213 134.205C115.44 134.205 114.74 134.075 114.111 133.815C113.489 133.549 112.952 133.176 112.501 132.698C112.057 132.219 111.715 131.652 111.476 130.996C111.236 130.339 111.117 129.622 111.117 128.842V128.412C111.117 127.509 111.25 126.706 111.517 126.002C111.783 125.291 112.146 124.689 112.604 124.197C113.062 123.705 113.581 123.333 114.162 123.08C114.743 122.827 115.345 122.7 115.967 122.7C116.76 122.7 117.443 122.837 118.018 123.11C118.599 123.384 119.074 123.767 119.443 124.259C119.812 124.744 120.086 125.318 120.263 125.981C120.441 126.638 120.53 127.355 120.53 128.135V128.986H112.245V127.438H118.633V127.294C118.606 126.802 118.503 126.323 118.325 125.858C118.154 125.394 117.881 125.011 117.505 124.71C117.129 124.409 116.616 124.259 115.967 124.259C115.536 124.259 115.14 124.351 114.777 124.536C114.415 124.713 114.104 124.98 113.844 125.335C113.585 125.691 113.383 126.125 113.239 126.638C113.096 127.15 113.024 127.742 113.024 128.412V128.842C113.024 129.369 113.096 129.864 113.239 130.329C113.39 130.787 113.605 131.19 113.885 131.539C114.172 131.888 114.518 132.161 114.921 132.359C115.331 132.558 115.796 132.657 116.315 132.657C116.985 132.657 117.553 132.52 118.018 132.247C118.482 131.973 118.889 131.607 119.238 131.149L120.386 132.062C120.147 132.424 119.843 132.77 119.474 133.098C119.105 133.426 118.65 133.692 118.11 133.897C117.577 134.103 116.944 134.205 116.213 134.205ZM130.358 138.266V125.038L130.522 122.905H132.265V138.266H130.358ZM122.903 128.576V128.36C122.903 127.513 123.002 126.744 123.2 126.053C123.399 125.356 123.689 124.758 124.072 124.259C124.455 123.76 124.916 123.377 125.456 123.11C126.003 122.837 126.625 122.7 127.322 122.7C128.02 122.7 128.632 122.823 129.158 123.069C129.691 123.309 130.142 123.661 130.511 124.125C130.887 124.583 131.185 125.137 131.404 125.787C131.622 126.436 131.773 127.171 131.855 127.991V128.935C131.779 129.748 131.633 130.479 131.414 131.129C131.195 131.778 130.898 132.332 130.522 132.79C130.153 133.248 129.698 133.6 129.158 133.846C128.625 134.085 128.006 134.205 127.302 134.205C126.618 134.205 126.003 134.065 125.456 133.785C124.916 133.504 124.455 133.111 124.072 132.605C123.696 132.1 123.405 131.505 123.2 130.821C123.002 130.131 122.903 129.382 122.903 128.576ZM124.81 128.36V128.576C124.81 129.129 124.868 129.652 124.985 130.145C125.101 130.63 125.279 131.061 125.518 131.437C125.764 131.812 126.071 132.11 126.441 132.329C126.817 132.541 127.261 132.646 127.774 132.646C128.403 132.646 128.925 132.51 129.342 132.236C129.766 131.963 130.105 131.604 130.358 131.16C130.611 130.708 130.805 130.227 130.942 129.714V127.243C130.867 126.867 130.747 126.501 130.583 126.146C130.426 125.79 130.221 125.472 129.968 125.192C129.715 124.905 129.407 124.679 129.045 124.515C128.69 124.344 128.273 124.259 127.794 124.259C127.275 124.259 126.827 124.368 126.451 124.587C126.075 124.806 125.764 125.106 125.518 125.489C125.279 125.865 125.101 126.299 124.985 126.792C124.868 127.284 124.81 127.807 124.81 128.36ZM142.728 131.437V122.905H144.636V134H142.821L142.728 131.437ZM143.087 129.099L143.877 129.078C143.877 129.816 143.798 130.5 143.641 131.129C143.491 131.751 143.244 132.291 142.903 132.749C142.561 133.207 142.113 133.566 141.559 133.826C141.006 134.079 140.332 134.205 139.539 134.205C138.999 134.205 138.504 134.126 138.053 133.969C137.608 133.812 137.225 133.569 136.904 133.241C136.583 132.913 136.333 132.486 136.156 131.959C135.985 131.433 135.899 130.801 135.899 130.062V122.905H137.796V130.083C137.796 130.582 137.851 130.996 137.96 131.324C138.076 131.645 138.23 131.901 138.422 132.093C138.62 132.277 138.839 132.407 139.078 132.482C139.324 132.558 139.577 132.595 139.837 132.595C140.643 132.595 141.283 132.441 141.754 132.134C142.226 131.819 142.564 131.399 142.769 130.873C142.981 130.339 143.087 129.748 143.087 129.099ZM150.218 122.905V134H148.311V122.905H150.218ZM148.167 119.962C148.167 119.655 148.26 119.395 148.444 119.183C148.636 118.971 148.916 118.865 149.285 118.865C149.647 118.865 149.924 118.971 150.116 119.183C150.314 119.395 150.413 119.655 150.413 119.962C150.413 120.256 150.314 120.509 150.116 120.721C149.924 120.926 149.647 121.029 149.285 121.029C148.916 121.029 148.636 120.926 148.444 120.721C148.26 120.509 148.167 120.256 148.167 119.962ZM158.539 122.905V124.361H152.54V122.905H158.539ZM154.57 120.208H156.467V131.252C156.467 131.628 156.525 131.912 156.642 132.103C156.758 132.294 156.908 132.421 157.093 132.482C157.277 132.544 157.476 132.575 157.688 132.575C157.845 132.575 158.009 132.561 158.18 132.534C158.357 132.5 158.491 132.472 158.58 132.452L158.59 134C158.439 134.048 158.241 134.092 157.995 134.133C157.756 134.181 157.465 134.205 157.124 134.205C156.659 134.205 156.231 134.113 155.842 133.928C155.452 133.744 155.141 133.436 154.909 133.005C154.683 132.568 154.57 131.98 154.57 131.242V120.208ZM164.511 132.852L167.597 122.905H169.628L165.177 135.712C165.075 135.986 164.938 136.28 164.767 136.594C164.603 136.916 164.391 137.22 164.132 137.507C163.872 137.794 163.557 138.026 163.188 138.204C162.826 138.389 162.392 138.481 161.886 138.481C161.736 138.481 161.544 138.46 161.312 138.419C161.079 138.378 160.915 138.344 160.819 138.317L160.809 136.779C160.864 136.786 160.949 136.792 161.066 136.799C161.189 136.813 161.274 136.82 161.322 136.82C161.753 136.82 162.118 136.762 162.419 136.646C162.72 136.536 162.973 136.348 163.178 136.082C163.39 135.822 163.571 135.463 163.721 135.005L164.511 132.852ZM162.245 122.905L165.126 131.519L165.618 133.518L164.255 134.215L160.173 122.905H162.245Z" fill="#363636"/>
<path d="M84.7508 72.2578V75H75.6688V72.2578H84.7508ZM76.8172 57.9375V75H73.3016V57.9375H76.8172ZM83.5672 64.8867V67.5586H75.6688V64.8867H83.5672ZM84.7391 57.9375V60.6914H75.6688V57.9375H84.7391ZM94.5645 79.875V64.9102L94.9981 62.3203H97.963V79.875H94.5645ZM86.5489 68.7891V68.543C86.5489 67.5742 86.6544 66.6953 86.8653 65.9062C87.0841 65.1094 87.4044 64.4297 87.8263 63.8672C88.2481 63.2969 88.7638 62.8594 89.3731 62.5547C89.9903 62.2422 90.7013 62.0859 91.5059 62.0859C92.2794 62.0859 92.9473 62.2422 93.5098 62.5547C94.0723 62.8672 94.545 63.3086 94.9278 63.8789C95.3184 64.4492 95.6309 65.1211 95.8653 65.8945C96.0997 66.668 96.2794 67.5156 96.4044 68.4375V68.9766C96.2872 69.8594 96.1075 70.6797 95.8653 71.4375C95.6309 72.1953 95.3184 72.8594 94.9278 73.4297C94.545 74 94.0684 74.4453 93.4981 74.7656C92.9356 75.0781 92.2638 75.2344 91.4825 75.2344C90.6934 75.2344 89.9903 75.0742 89.3731 74.7539C88.7638 74.4258 88.2481 73.9727 87.8263 73.3945C87.4044 72.8164 87.0841 72.1367 86.8653 71.3555C86.6544 70.5664 86.5489 69.7109 86.5489 68.7891ZM89.9239 68.543V68.7891C89.9239 69.3125 89.9669 69.8047 90.0528 70.2656C90.1388 70.7188 90.2755 71.1211 90.463 71.4727C90.6583 71.8242 90.9083 72.1016 91.213 72.3047C91.5177 72.5 91.8927 72.5977 92.338 72.5977C92.9552 72.5977 93.4513 72.4648 93.8263 72.1992C94.2091 71.9258 94.4903 71.5547 94.67 71.0859C94.8575 70.6172 94.9669 70.082 94.9981 69.4805V67.9453C94.9747 67.4531 94.9083 67.0117 94.7989 66.6211C94.6973 66.2227 94.5411 65.8828 94.3302 65.6016C94.127 65.3203 93.8614 65.1055 93.5333 64.957C93.213 64.8008 92.8223 64.7227 92.3614 64.7227C91.9239 64.7227 91.5489 64.8203 91.2364 65.0156C90.9239 65.2109 90.67 65.4844 90.4747 65.8359C90.2872 66.1797 90.1466 66.582 90.0528 67.043C89.9669 67.5039 89.9239 68.0039 89.9239 68.543ZM108.843 71.9648V62.3203H112.218V75H109.042L108.843 71.9648ZM109.218 69.3633L110.214 69.3398C110.214 70.1836 110.117 70.9688 109.921 71.6953C109.726 72.4141 109.433 73.0391 109.042 73.5703C108.652 74.0938 108.16 74.5039 107.566 74.8008C106.972 75.0898 106.273 75.2344 105.468 75.2344C104.851 75.2344 104.281 75.1484 103.757 74.9766C103.242 74.7969 102.796 74.5195 102.421 74.1445C102.054 73.7617 101.765 73.2734 101.554 72.6797C101.351 72.0781 101.249 71.3555 101.249 70.5117V62.3203H104.624V70.5352C104.624 70.9102 104.667 71.2266 104.753 71.4844C104.847 71.7422 104.976 71.9531 105.14 72.1172C105.304 72.2812 105.495 72.3984 105.714 72.4688C105.941 72.5391 106.191 72.5742 106.464 72.5742C107.16 72.5742 107.706 72.4336 108.105 72.1523C108.511 71.8711 108.796 71.4883 108.96 71.0039C109.132 70.5117 109.218 69.9648 109.218 69.3633ZM119.079 62.3203V75H115.692V62.3203H119.079ZM115.481 59.0156C115.481 58.5234 115.653 58.1172 115.997 57.7969C116.34 57.4766 116.801 57.3164 117.38 57.3164C117.95 57.3164 118.407 57.4766 118.751 57.7969C119.102 58.1172 119.278 58.5234 119.278 59.0156C119.278 59.5078 119.102 59.9141 118.751 60.2344C118.407 60.5547 117.95 60.7148 117.38 60.7148C116.801 60.7148 116.34 60.5547 115.997 60.2344C115.653 59.9141 115.481 59.5078 115.481 59.0156ZM128.799 62.3203V64.7109H121.416V62.3203H128.799ZM123.244 59.1914H126.619V71.1797C126.619 71.5469 126.666 71.8281 126.76 72.0234C126.861 72.2188 127.01 72.3555 127.205 72.4336C127.4 72.5039 127.646 72.5391 127.943 72.5391C128.154 72.5391 128.342 72.5312 128.506 72.5156C128.678 72.4922 128.822 72.4688 128.939 72.4453L128.951 74.9297C128.662 75.0234 128.35 75.0977 128.014 75.1523C127.678 75.207 127.307 75.2344 126.9 75.2344C126.158 75.2344 125.51 75.1133 124.955 74.8711C124.408 74.6211 123.986 74.2227 123.689 73.6758C123.393 73.1289 123.244 72.4102 123.244 71.5195V59.1914ZM135.202 73.5703L138.566 62.3203H142.187L137.089 76.9102C136.98 77.2305 136.831 77.5742 136.644 77.9414C136.464 78.3086 136.218 78.6562 135.905 78.9844C135.601 79.3203 135.214 79.5938 134.745 79.8047C134.284 80.0156 133.718 80.1211 133.046 80.1211C132.726 80.1211 132.464 80.1016 132.261 80.0625C132.058 80.0234 131.816 79.9688 131.534 79.8984V77.4258C131.62 77.4258 131.71 77.4258 131.804 77.4258C131.898 77.4336 131.988 77.4375 132.073 77.4375C132.519 77.4375 132.882 77.3867 133.163 77.2852C133.445 77.1836 133.671 77.0273 133.843 76.8164C134.015 76.6133 134.152 76.3477 134.253 76.0195L135.202 73.5703ZM133.796 62.3203L136.55 71.5078L137.03 75.082L134.734 75.3281L130.175 62.3203H133.796Z" fill="#114DFF"/>
<path d="M107 38.5C116.665 38.5 124.5 30.665 124.5 21C124.5 11.335 116.665 3.5 107 3.5C97.335 3.5 89.5 11.335 89.5 21C89.5 30.665 97.335 38.5 107 38.5Z" stroke="#3CE5A7" stroke-width="3.5" stroke-linecap="round" stroke-linejoin="round"/>
<path d="M107 3.5C109.298 3.5 111.574 3.95265 113.697 4.83211C115.82 5.71157 117.749 7.00061 119.374 8.62563C120.999 10.2507 122.288 12.1798 123.168 14.303C124.047 16.4262 124.5 18.7019 124.5 21H107V3.5Z" fill="#3CE5A7" stroke="#3CE5A7" stroke-width="3.5" stroke-linecap="round" stroke-linejoin="round"/>
</svg>
