<svg width="215" height="243" viewBox="0 0 215 243" fill="none" xmlns="http://www.w3.org/2000/svg">
<path d="M27.0015 97.3931L22.0591 111H20.0391L25.73 96.0703H27.0323L27.0015 97.3931ZM31.1441 111L26.1914 97.3931L26.1607 96.0703H27.4629L33.1744 111H31.1441ZM30.8877 105.473V107.093H22.5V105.473H30.8877ZM39.9567 109.646C40.4079 109.646 40.8249 109.554 41.2077 109.37C41.5905 109.185 41.9049 108.932 42.151 108.611C42.3971 108.283 42.5373 107.91 42.5714 107.493H44.3761C44.342 108.149 44.1198 108.761 43.7096 109.329C43.3063 109.889 42.7765 110.344 42.1203 110.692C41.464 111.034 40.7428 111.205 39.9567 111.205C39.1227 111.205 38.3947 111.058 37.7726 110.764C37.1574 110.47 36.6447 110.067 36.2345 109.554C35.8312 109.042 35.527 108.454 35.3219 107.791C35.1237 107.121 35.0246 106.413 35.0246 105.668V105.237C35.0246 104.492 35.1237 103.788 35.3219 103.125C35.527 102.455 35.8312 101.864 36.2345 101.351C36.6447 100.838 37.1574 100.435 37.7726 100.141C38.3947 99.8472 39.1227 99.7002 39.9567 99.7002C40.8249 99.7002 41.5837 99.8779 42.2331 100.233C42.8825 100.582 43.3918 101.061 43.7609 101.669C44.1369 102.271 44.342 102.954 44.3761 103.72H42.5714C42.5373 103.262 42.4074 102.848 42.1818 102.479C41.963 102.11 41.6623 101.816 41.2795 101.597C40.9035 101.372 40.4626 101.259 39.9567 101.259C39.3756 101.259 38.8869 101.375 38.4904 101.607C38.1007 101.833 37.7897 102.141 37.5573 102.53C37.3317 102.913 37.1676 103.34 37.0651 103.812C36.9694 104.277 36.9215 104.752 36.9215 105.237V105.668C36.9215 106.153 36.9694 106.632 37.0651 107.104C37.1608 107.575 37.3214 108.002 37.547 108.385C37.7795 108.768 38.0905 109.076 38.4801 109.308C38.8766 109.534 39.3688 109.646 39.9567 109.646ZM51.5789 109.646C52.0301 109.646 52.4471 109.554 52.8299 109.37C53.2127 109.185 53.5271 108.932 53.7732 108.611C54.0193 108.283 54.1595 107.91 54.1936 107.493H55.9983C55.9641 108.149 55.742 108.761 55.3318 109.329C54.9285 109.889 54.3987 110.344 53.7425 110.692C53.0862 111.034 52.365 111.205 51.5789 111.205C50.7449 111.205 50.0169 111.058 49.3948 110.764C48.7796 110.47 48.2669 110.067 47.8567 109.554C47.4534 109.042 47.1492 108.454 46.9441 107.791C46.7459 107.121 46.6468 106.413 46.6468 105.668V105.237C46.6468 104.492 46.7459 103.788 46.9441 103.125C47.1492 102.455 47.4534 101.864 47.8567 101.351C48.2669 100.838 48.7796 100.435 49.3948 100.141C50.0169 99.8472 50.7449 99.7002 51.5789 99.7002C52.4471 99.7002 53.2058 99.8779 53.8553 100.233C54.5047 100.582 55.0139 101.061 55.3831 101.669C55.7591 102.271 55.9641 102.954 55.9983 103.72H54.1936C54.1595 103.262 54.0296 102.848 53.804 102.479C53.5852 102.11 53.2845 101.816 52.9016 101.597C52.5257 101.372 52.0847 101.259 51.5789 101.259C50.9978 101.259 50.5091 101.375 50.1126 101.607C49.7229 101.833 49.4119 102.141 49.1795 102.53C48.9539 102.913 48.7898 103.34 48.6873 103.812C48.5916 104.277 48.5437 104.752 48.5437 105.237V105.668C48.5437 106.153 48.5916 106.632 48.6873 107.104C48.783 107.575 48.9436 108.002 49.1692 108.385C49.4016 108.768 49.7127 109.076 50.1023 109.308C50.4988 109.534 50.991 109.646 51.5789 109.646ZM63.3651 111.205C62.5927 111.205 61.892 111.075 61.2631 110.815C60.641 110.549 60.1044 110.176 59.6532 109.698C59.2089 109.219 58.8671 108.652 58.6278 107.996C58.3886 107.339 58.2689 106.622 58.2689 105.842V105.412C58.2689 104.509 58.4022 103.706 58.6688 103.002C58.9354 102.291 59.2978 101.689 59.7558 101.197C60.2138 100.705 60.7333 100.333 61.3144 100.08C61.8954 99.8267 62.497 99.7002 63.119 99.7002C63.912 99.7002 64.5956 99.8369 65.1698 100.11C65.7509 100.384 66.226 100.767 66.5951 101.259C66.9643 101.744 67.2377 102.318 67.4154 102.981C67.5932 103.638 67.682 104.355 67.682 105.135V105.986H59.3969V104.438H65.7851V104.294C65.7577 103.802 65.6552 103.323 65.4774 102.858C65.3065 102.394 65.0331 102.011 64.6571 101.71C64.2812 101.409 63.7685 101.259 63.119 101.259C62.6884 101.259 62.2919 101.351 61.9296 101.536C61.5673 101.713 61.2562 101.98 60.9965 102.335C60.7367 102.691 60.5351 103.125 60.3915 103.638C60.2479 104.15 60.1762 104.742 60.1762 105.412V105.842C60.1762 106.369 60.2479 106.864 60.3915 107.329C60.5419 107.787 60.7572 108.19 61.0375 108.539C61.3246 108.888 61.6698 109.161 62.0731 109.359C62.4833 109.558 62.9481 109.657 63.4677 109.657C64.1376 109.657 64.705 109.52 65.1698 109.247C65.6347 108.973 66.0414 108.607 66.39 108.149L67.5385 109.062C67.2992 109.424 66.995 109.77 66.6259 110.098C66.2567 110.426 65.8021 110.692 65.2621 110.897C64.7289 111.103 64.0966 111.205 63.3651 111.205ZM72.5879 95.25V111H70.6807V95.25H72.5879ZM80.8673 111.205C80.0949 111.205 79.3942 111.075 78.7653 110.815C78.1432 110.549 77.6066 110.176 77.1554 109.698C76.7111 109.219 76.3693 108.652 76.13 107.996C75.8908 107.339 75.7711 106.622 75.7711 105.842V105.412C75.7711 104.509 75.9044 103.706 76.171 103.002C76.4376 102.291 76.7999 101.689 77.2579 101.197C77.716 100.705 78.2355 100.333 78.8165 100.08C79.3976 99.8267 79.9992 99.7002 80.6212 99.7002C81.4142 99.7002 82.0978 99.8369 82.672 100.11C83.2531 100.384 83.7282 100.767 84.0973 101.259C84.4664 101.744 84.7399 102.318 84.9176 102.981C85.0954 103.638 85.1842 104.355 85.1842 105.135V105.986H76.8991V104.438H83.2872V104.294C83.2599 103.802 83.1574 103.323 82.9796 102.858C82.8087 102.394 82.5353 102.011 82.1593 101.71C81.7833 101.409 81.2706 101.259 80.6212 101.259C80.1906 101.259 79.7941 101.351 79.4318 101.536C79.0695 101.713 78.7584 101.98 78.4987 102.335C78.2389 102.691 78.0372 103.125 77.8937 103.638C77.7501 104.15 77.6784 104.742 77.6784 105.412V105.842C77.6784 106.369 77.7501 106.864 77.8937 107.329C78.0441 107.787 78.2594 108.19 78.5397 108.539C78.8268 108.888 79.172 109.161 79.5753 109.359C79.9855 109.558 80.4503 109.657 80.9699 109.657C81.6398 109.657 82.2072 109.52 82.672 109.247C83.1369 108.973 83.5436 108.607 83.8922 108.149L85.0407 109.062C84.8014 109.424 84.4972 109.77 84.1281 110.098C83.7589 110.426 83.3043 110.692 82.7643 110.897C82.2311 111.103 81.5988 111.205 80.8673 111.205ZM89.926 101.648V111H88.0291V99.9053H89.8748L89.926 101.648ZM93.3919 99.8438L93.3816 101.607C93.2244 101.573 93.074 101.553 92.9304 101.546C92.7937 101.532 92.6365 101.525 92.4587 101.525C92.0212 101.525 91.635 101.594 91.3001 101.73C90.9651 101.867 90.6814 102.059 90.449 102.305C90.2166 102.551 90.032 102.845 89.8953 103.187C89.7654 103.521 89.6799 103.891 89.6389 104.294L89.1057 104.602C89.1057 103.932 89.1707 103.303 89.3005 102.715C89.4373 102.127 89.6458 101.607 89.926 101.156C90.2063 100.698 90.5618 100.343 90.9924 100.09C91.4299 99.8301 91.9495 99.7002 92.551 99.7002C92.6878 99.7002 92.845 99.7173 93.0227 99.7515C93.2004 99.7788 93.3235 99.8096 93.3919 99.8438ZM101.907 109.103V103.392C101.907 102.954 101.818 102.575 101.641 102.253C101.47 101.925 101.21 101.672 100.861 101.495C100.513 101.317 100.082 101.228 99.5692 101.228C99.0907 101.228 98.6703 101.31 98.308 101.474C97.9525 101.638 97.6722 101.854 97.4672 102.12C97.2689 102.387 97.1698 102.674 97.1698 102.981H95.2728C95.2728 102.585 95.3754 102.192 95.5805 101.802C95.7855 101.413 96.0795 101.061 96.4623 100.746C96.8519 100.425 97.3168 100.172 97.8568 99.9873C98.4037 99.7959 99.0121 99.7002 99.682 99.7002C100.489 99.7002 101.2 99.8369 101.815 100.11C102.437 100.384 102.922 100.797 103.271 101.351C103.626 101.898 103.804 102.585 103.804 103.412V108.58C103.804 108.949 103.835 109.342 103.896 109.759C103.965 110.176 104.064 110.535 104.194 110.836V111H102.215C102.119 110.781 102.044 110.491 101.989 110.128C101.934 109.759 101.907 109.417 101.907 109.103ZM102.235 104.273L102.256 105.606H100.338C99.7982 105.606 99.3163 105.651 98.8925 105.74C98.4686 105.822 98.1132 105.948 97.8261 106.119C97.5389 106.29 97.3202 106.505 97.1698 106.765C97.0194 107.018 96.9442 107.315 96.9442 107.657C96.9442 108.006 97.0228 108.324 97.1801 108.611C97.3373 108.898 97.5731 109.127 97.8876 109.298C98.2089 109.462 98.6019 109.544 99.0668 109.544C99.6478 109.544 100.161 109.421 100.605 109.175C101.049 108.929 101.401 108.628 101.661 108.272C101.928 107.917 102.071 107.572 102.092 107.237L102.902 108.149C102.854 108.437 102.724 108.754 102.512 109.103C102.3 109.452 102.016 109.787 101.661 110.108C101.312 110.422 100.895 110.686 100.41 110.897C99.9315 111.103 99.3915 111.205 98.7899 111.205C98.038 111.205 97.3783 111.058 96.8109 110.764C96.2504 110.47 95.8129 110.077 95.4984 109.585C95.1908 109.086 95.037 108.529 95.037 107.914C95.037 107.319 95.1532 106.796 95.3856 106.345C95.618 105.887 95.953 105.507 96.3905 105.207C96.828 104.899 97.3544 104.667 97.9696 104.509C98.5848 104.352 99.2719 104.273 100.031 104.273H102.235ZM112.063 99.9053V101.361H106.064V99.9053H112.063ZM108.095 97.2085H109.992V108.252C109.992 108.628 110.05 108.912 110.166 109.103C110.282 109.294 110.433 109.421 110.617 109.482C110.802 109.544 111 109.575 111.212 109.575C111.369 109.575 111.533 109.561 111.704 109.534C111.882 109.5 112.015 109.472 112.104 109.452L112.114 111C111.964 111.048 111.766 111.092 111.52 111.133C111.28 111.181 110.99 111.205 110.648 111.205C110.183 111.205 109.756 111.113 109.366 110.928C108.977 110.744 108.666 110.436 108.433 110.005C108.208 109.568 108.095 108.98 108.095 108.242V97.2085ZM119.522 111.205C118.75 111.205 118.049 111.075 117.42 110.815C116.798 110.549 116.261 110.176 115.81 109.698C115.366 109.219 115.024 108.652 114.785 107.996C114.546 107.339 114.426 106.622 114.426 105.842V105.412C114.426 104.509 114.559 103.706 114.826 103.002C115.092 102.291 115.455 101.689 115.913 101.197C116.371 100.705 116.89 100.333 117.471 100.08C118.052 99.8267 118.654 99.7002 119.276 99.7002C120.069 99.7002 120.753 99.8369 121.327 100.11C121.908 100.384 122.383 100.767 122.752 101.259C123.121 101.744 123.395 102.318 123.572 102.981C123.75 103.638 123.839 104.355 123.839 105.135V105.986H115.554V104.438H121.942V104.294C121.915 103.802 121.812 103.323 121.634 102.858C121.463 102.394 121.19 102.011 120.814 101.71C120.438 101.409 119.925 101.259 119.276 101.259C118.845 101.259 118.449 101.351 118.087 101.536C117.724 101.713 117.413 101.98 117.153 102.335C116.894 102.691 116.692 103.125 116.548 103.638C116.405 104.15 116.333 104.742 116.333 105.412V105.842C116.333 106.369 116.405 106.864 116.548 107.329C116.699 107.787 116.914 108.19 117.194 108.539C117.482 108.888 117.827 109.161 118.23 109.359C118.64 109.558 119.105 109.657 119.625 109.657C120.295 109.657 120.862 109.52 121.327 109.247C121.792 108.973 122.198 108.607 122.547 108.149L123.695 109.062C123.456 109.424 123.152 109.77 122.783 110.098C122.414 110.426 121.959 110.692 121.419 110.897C120.886 111.103 120.254 111.205 119.522 111.205ZM138.552 95.9883V111H136.655V98.3569L132.83 99.7515V98.0391L138.255 95.9883H138.552ZM154.132 102.346V104.622C154.132 105.846 154.023 106.878 153.804 107.719C153.585 108.56 153.271 109.236 152.861 109.749C152.451 110.262 151.955 110.634 151.374 110.867C150.8 111.092 150.15 111.205 149.426 111.205C148.852 111.205 148.322 111.133 147.836 110.99C147.351 110.846 146.914 110.617 146.524 110.303C146.141 109.981 145.813 109.564 145.54 109.052C145.266 108.539 145.058 107.917 144.914 107.186C144.77 106.454 144.699 105.6 144.699 104.622V102.346C144.699 101.122 144.808 100.097 145.027 99.2695C145.252 98.4424 145.57 97.7793 145.98 97.2803C146.391 96.7744 146.883 96.4121 147.457 96.1934C148.038 95.9746 148.687 95.8652 149.405 95.8652C149.986 95.8652 150.52 95.937 151.005 96.0806C151.497 96.2173 151.935 96.4395 152.317 96.7471C152.7 97.0479 153.025 97.4512 153.291 97.957C153.565 98.4561 153.773 99.0679 153.917 99.7925C154.061 100.517 154.132 101.368 154.132 102.346ZM152.225 104.93V102.028C152.225 101.358 152.184 100.77 152.102 100.264C152.027 99.7515 151.914 99.314 151.764 98.9517C151.613 98.5894 151.422 98.2954 151.189 98.0698C150.964 97.8442 150.701 97.6802 150.4 97.5776C150.106 97.4683 149.774 97.4136 149.405 97.4136C148.954 97.4136 148.554 97.499 148.206 97.6699C147.857 97.834 147.563 98.0972 147.324 98.4595C147.091 98.8218 146.914 99.2969 146.79 99.8848C146.667 100.473 146.606 101.187 146.606 102.028V104.93C146.606 105.6 146.644 106.191 146.719 106.704C146.801 107.216 146.92 107.661 147.078 108.037C147.235 108.406 147.426 108.71 147.652 108.949C147.877 109.188 148.137 109.366 148.431 109.482C148.732 109.592 149.063 109.646 149.426 109.646C149.891 109.646 150.297 109.558 150.646 109.38C150.995 109.202 151.285 108.925 151.518 108.549C151.757 108.167 151.935 107.678 152.051 107.083C152.167 106.481 152.225 105.764 152.225 104.93ZM167.898 102.766V104.325H157.623V102.766H167.898ZM174.013 103.894L172.496 103.504L173.244 96.0703H180.904V97.8237H174.854L174.403 101.884C174.676 101.727 175.022 101.58 175.439 101.443C175.863 101.307 176.348 101.238 176.895 101.238C177.585 101.238 178.204 101.358 178.751 101.597C179.298 101.83 179.762 102.165 180.145 102.602C180.535 103.04 180.832 103.566 181.037 104.181C181.242 104.796 181.345 105.483 181.345 106.242C181.345 106.96 181.246 107.62 181.048 108.221C180.856 108.823 180.566 109.349 180.176 109.8C179.786 110.245 179.294 110.59 178.699 110.836C178.112 111.082 177.418 111.205 176.618 111.205C176.016 111.205 175.446 111.123 174.905 110.959C174.372 110.788 173.894 110.532 173.47 110.19C173.053 109.841 172.711 109.411 172.445 108.898C172.185 108.378 172.021 107.77 171.952 107.073H173.757C173.839 107.633 174.003 108.105 174.249 108.488C174.495 108.871 174.817 109.161 175.213 109.359C175.616 109.551 176.085 109.646 176.618 109.646C177.069 109.646 177.469 109.568 177.818 109.411C178.166 109.253 178.46 109.028 178.699 108.734C178.939 108.44 179.12 108.084 179.243 107.667C179.373 107.25 179.438 106.782 179.438 106.263C179.438 105.791 179.373 105.354 179.243 104.95C179.113 104.547 178.918 104.195 178.658 103.894C178.405 103.593 178.094 103.361 177.725 103.197C177.356 103.026 176.932 102.94 176.454 102.94C175.818 102.94 175.336 103.026 175.008 103.197C174.687 103.368 174.355 103.6 174.013 103.894ZM193.429 102.346V104.622C193.429 105.846 193.319 106.878 193.1 107.719C192.882 108.56 192.567 109.236 192.157 109.749C191.747 110.262 191.251 110.634 190.67 110.867C190.096 111.092 189.447 111.205 188.722 111.205C188.148 111.205 187.618 111.133 187.133 110.99C186.647 110.846 186.21 110.617 185.82 110.303C185.437 109.981 185.109 109.564 184.836 109.052C184.562 108.539 184.354 107.917 184.21 107.186C184.067 106.454 183.995 105.6 183.995 104.622V102.346C183.995 101.122 184.104 100.097 184.323 99.2695C184.549 98.4424 184.867 97.7793 185.277 97.2803C185.687 96.7744 186.179 96.4121 186.753 96.1934C187.334 95.9746 187.984 95.8652 188.702 95.8652C189.283 95.8652 189.816 95.937 190.301 96.0806C190.793 96.2173 191.231 96.4395 191.614 96.7471C191.996 97.0479 192.321 97.4512 192.588 97.957C192.861 98.4561 193.07 99.0679 193.213 99.7925C193.357 100.517 193.429 101.368 193.429 102.346ZM191.521 104.93V102.028C191.521 101.358 191.48 100.77 191.398 100.264C191.323 99.7515 191.21 99.314 191.06 98.9517C190.91 98.5894 190.718 98.2954 190.486 98.0698C190.26 97.8442 189.997 97.6802 189.696 97.5776C189.402 97.4683 189.071 97.4136 188.702 97.4136C188.25 97.4136 187.85 97.499 187.502 97.6699C187.153 97.834 186.859 98.0972 186.62 98.4595C186.388 98.8218 186.21 99.2969 186.087 99.8848C185.964 100.473 185.902 101.187 185.902 102.028V104.93C185.902 105.6 185.94 106.191 186.015 106.704C186.097 107.216 186.217 107.661 186.374 108.037C186.531 108.406 186.723 108.71 186.948 108.949C187.174 109.188 187.433 109.366 187.727 109.482C188.028 109.592 188.36 109.646 188.722 109.646C189.187 109.646 189.594 109.558 189.942 109.38C190.291 109.202 190.581 108.925 190.814 108.549C191.053 108.167 191.231 107.678 191.347 107.083C191.463 106.481 191.521 105.764 191.521 104.93ZM31.2261 134H29.3291V121.736C29.3291 120.937 29.4727 120.263 29.7598 119.716C30.0537 119.163 30.4742 118.746 31.021 118.465C31.5679 118.178 32.2173 118.035 32.9693 118.035C33.188 118.035 33.4068 118.048 33.6255 118.076C33.8511 118.103 34.0699 118.144 34.2818 118.199L34.1792 119.747C34.0357 119.713 33.8716 119.689 33.687 119.675C33.5093 119.662 33.3316 119.655 33.1538 119.655C32.7505 119.655 32.4019 119.737 32.1079 119.901C31.8208 120.058 31.6021 120.291 31.4517 120.598C31.3013 120.906 31.2261 121.285 31.2261 121.736V134ZM33.5845 122.905V124.361H27.5757V122.905H33.5845ZM35.8244 128.576V128.34C35.8244 127.54 35.9406 126.798 36.173 126.115C36.4054 125.424 36.7404 124.826 37.1779 124.32C37.6154 123.808 38.1452 123.411 38.7672 123.131C39.3893 122.844 40.0866 122.7 40.859 122.7C41.6383 122.7 42.339 122.844 42.9611 123.131C43.59 123.411 44.1232 123.808 44.5607 124.32C45.005 124.826 45.3434 125.424 45.5758 126.115C45.8083 126.798 45.9245 127.54 45.9245 128.34V128.576C45.9245 129.375 45.8083 130.117 45.5758 130.801C45.3434 131.484 45.005 132.083 44.5607 132.595C44.1232 133.101 43.5934 133.498 42.9713 133.785C42.3561 134.065 41.6588 134.205 40.8796 134.205C40.1003 134.205 39.3996 134.065 38.7775 133.785C38.1554 133.498 37.6222 133.101 37.1779 132.595C36.7404 132.083 36.4054 131.484 36.173 130.801C35.9406 130.117 35.8244 129.375 35.8244 128.576ZM37.7213 128.34V128.576C37.7213 129.129 37.7863 129.652 37.9162 130.145C38.0461 130.63 38.2409 131.061 38.5006 131.437C38.7672 131.812 39.0988 132.11 39.4953 132.329C39.8918 132.541 40.3532 132.646 40.8796 132.646C41.3991 132.646 41.8537 132.541 42.2433 132.329C42.6398 132.11 42.9679 131.812 43.2277 131.437C43.4875 131.061 43.6823 130.63 43.8122 130.145C43.9489 129.652 44.0172 129.129 44.0172 128.576V128.34C44.0172 127.793 43.9489 127.277 43.8122 126.792C43.6823 126.299 43.484 125.865 43.2174 125.489C42.9577 125.106 42.6296 124.806 42.2331 124.587C41.8434 124.368 41.3854 124.259 40.859 124.259C40.3395 124.259 39.8815 124.368 39.485 124.587C39.0954 124.806 38.7672 125.106 38.5006 125.489C38.2409 125.865 38.0461 126.299 37.9162 126.792C37.7863 127.277 37.7213 127.793 37.7213 128.34ZM55.7215 131.437V122.905H57.6287V134H55.8138L55.7215 131.437ZM56.0804 129.099L56.8699 129.078C56.8699 129.816 56.7913 130.5 56.6341 131.129C56.4837 131.751 56.2376 132.291 55.8958 132.749C55.554 133.207 55.1062 133.566 54.5525 133.826C53.9988 134.079 53.3255 134.205 52.5325 134.205C51.9925 134.205 51.4969 134.126 51.0457 133.969C50.6013 133.812 50.2185 133.569 49.8972 133.241C49.576 132.913 49.3264 132.486 49.1487 131.959C48.9778 131.433 48.8924 130.801 48.8924 130.062V122.905H50.7893V130.083C50.7893 130.582 50.844 130.996 50.9534 131.324C51.0696 131.645 51.2234 131.901 51.4148 132.093C51.6131 132.277 51.8318 132.407 52.0711 132.482C52.3172 132.558 52.5701 132.595 52.8299 132.595C53.6365 132.595 54.2757 132.441 54.7473 132.134C55.219 131.819 55.5574 131.399 55.7625 130.873C55.9744 130.339 56.0804 129.748 56.0804 129.099ZM63.0473 125.274V134H61.1503V122.905H62.9447L63.0473 125.274ZM62.5961 128.032L61.8065 128.001C61.8134 127.243 61.9262 126.542 62.1449 125.899C62.3637 125.25 62.6713 124.686 63.0678 124.208C63.4643 123.729 63.9359 123.36 64.4828 123.1C65.0365 122.833 65.6483 122.7 66.3183 122.7C66.8651 122.7 67.3573 122.775 67.7948 122.926C68.2323 123.069 68.6049 123.302 68.9125 123.623C69.227 123.944 69.4662 124.361 69.6303 124.874C69.7943 125.38 69.8764 125.999 69.8764 126.73V134H67.9691V126.709C67.9691 126.128 67.8837 125.664 67.7128 125.315C67.5419 124.959 67.2924 124.703 66.9643 124.546C66.6361 124.382 66.2328 124.3 65.7543 124.3C65.2826 124.3 64.852 124.399 64.4623 124.597C64.0795 124.795 63.7479 125.069 63.4677 125.417C63.1942 125.766 62.9789 126.166 62.8217 126.617C62.6713 127.062 62.5961 127.533 62.5961 128.032ZM80.3809 131.847V118.25H82.2881V134H80.5449L80.3809 131.847ZM72.916 128.576V128.36C72.916 127.513 73.0186 126.744 73.2236 126.053C73.4356 125.356 73.7329 124.758 74.1157 124.259C74.5054 123.76 74.9668 123.377 75.5 123.11C76.0401 122.837 76.6416 122.7 77.3047 122.7C78.002 122.7 78.6104 122.823 79.1299 123.069C79.6563 123.309 80.1006 123.661 80.4629 124.125C80.832 124.583 81.1226 125.137 81.3345 125.787C81.5464 126.436 81.6934 127.171 81.7754 127.991V128.935C81.7002 129.748 81.5532 130.479 81.3345 131.129C81.1226 131.778 80.832 132.332 80.4629 132.79C80.1006 133.248 79.6563 133.6 79.1299 133.846C78.6035 134.085 77.9883 134.205 77.2842 134.205C76.6348 134.205 76.0401 134.065 75.5 133.785C74.9668 133.504 74.5054 133.111 74.1157 132.605C73.7329 132.1 73.4356 131.505 73.2236 130.821C73.0186 130.131 72.916 129.382 72.916 128.576ZM74.8233 128.36V128.576C74.8233 129.129 74.8779 129.649 74.9873 130.134C75.1035 130.62 75.2813 131.047 75.5205 131.416C75.7598 131.785 76.064 132.076 76.4331 132.288C76.8023 132.493 77.2432 132.595 77.7559 132.595C78.3848 132.595 78.9009 132.462 79.3042 132.195C79.7144 131.929 80.0425 131.577 80.2886 131.139C80.5347 130.702 80.7261 130.227 80.8628 129.714V127.243C80.7808 126.867 80.6611 126.504 80.5039 126.156C80.3535 125.8 80.1553 125.486 79.9092 125.212C79.6699 124.932 79.3726 124.71 79.0171 124.546C78.6685 124.382 78.2549 124.3 77.7764 124.3C77.2569 124.3 76.8091 124.409 76.4331 124.628C76.064 124.84 75.7598 125.134 75.5205 125.51C75.2813 125.879 75.1035 126.31 74.9873 126.802C74.8779 127.287 74.8233 127.807 74.8233 128.36ZM90.4752 134.205C89.7028 134.205 89.0021 134.075 88.3732 133.815C87.7511 133.549 87.2145 133.176 86.7633 132.698C86.319 132.219 85.9772 131.652 85.7379 130.996C85.4987 130.339 85.379 129.622 85.379 128.842V128.412C85.379 127.509 85.5123 126.706 85.7789 126.002C86.0455 125.291 86.4079 124.689 86.8659 124.197C87.3239 123.705 87.8434 123.333 88.4245 123.08C89.0055 122.827 89.6071 122.7 90.2291 122.7C91.0221 122.7 91.7057 122.837 92.2799 123.11C92.861 123.384 93.3361 123.767 93.7052 124.259C94.0744 124.744 94.3478 125.318 94.5255 125.981C94.7033 126.638 94.7921 127.355 94.7921 128.135V128.986H86.507V127.438H92.8952V127.294C92.8678 126.802 92.7653 126.323 92.5875 125.858C92.4166 125.394 92.1432 125.011 91.7672 124.71C91.3913 124.409 90.8786 124.259 90.2291 124.259C89.7985 124.259 89.402 124.351 89.0397 124.536C88.6774 124.713 88.3663 124.98 88.1066 125.335C87.8468 125.691 87.6452 126.125 87.5016 126.638C87.358 127.15 87.2863 127.742 87.2863 128.412V128.842C87.2863 129.369 87.358 129.864 87.5016 130.329C87.652 130.787 87.8673 131.19 88.1476 131.539C88.4347 131.888 88.7799 132.161 89.1832 132.359C89.5934 132.558 90.0582 132.657 90.5778 132.657C91.2477 132.657 91.8151 132.52 92.2799 132.247C92.7448 131.973 93.1515 131.607 93.5001 131.149L94.6486 132.062C94.4093 132.424 94.1051 132.77 93.736 133.098C93.3668 133.426 92.9122 133.692 92.3722 133.897C91.839 134.103 91.2067 134.205 90.4752 134.205ZM99.5339 124.648V134H97.637V122.905H99.4827L99.5339 124.648ZM103 122.844L102.99 124.607C102.832 124.573 102.682 124.553 102.538 124.546C102.402 124.532 102.244 124.525 102.067 124.525C101.629 124.525 101.243 124.594 100.908 124.73C100.573 124.867 100.289 125.059 100.057 125.305C99.8245 125.551 99.6399 125.845 99.5032 126.187C99.3733 126.521 99.2878 126.891 99.2468 127.294L98.7136 127.602C98.7136 126.932 98.7786 126.303 98.9085 125.715C99.0452 125.127 99.2537 124.607 99.5339 124.156C99.8142 123.698 100.17 123.343 100.6 123.09C101.038 122.83 101.557 122.7 102.159 122.7C102.296 122.7 102.453 122.717 102.631 122.751C102.808 122.779 102.931 122.81 103 122.844ZM111.843 131.057C111.843 130.784 111.782 130.531 111.659 130.298C111.542 130.059 111.3 129.844 110.931 129.652C110.568 129.454 110.021 129.283 109.29 129.14C108.675 129.01 108.118 128.856 107.619 128.678C107.126 128.5 106.706 128.285 106.357 128.032C106.016 127.779 105.752 127.482 105.568 127.14C105.383 126.798 105.291 126.398 105.291 125.94C105.291 125.503 105.387 125.089 105.578 124.7C105.776 124.31 106.053 123.965 106.409 123.664C106.771 123.363 107.205 123.127 107.711 122.957C108.217 122.786 108.781 122.7 109.403 122.7C110.291 122.7 111.05 122.857 111.679 123.172C112.308 123.486 112.79 123.907 113.125 124.433C113.46 124.953 113.627 125.53 113.627 126.166H111.73C111.73 125.858 111.638 125.561 111.453 125.274C111.276 124.98 111.013 124.737 110.664 124.546C110.322 124.354 109.902 124.259 109.403 124.259C108.876 124.259 108.449 124.341 108.121 124.505C107.8 124.662 107.564 124.864 107.413 125.11C107.27 125.356 107.198 125.616 107.198 125.889C107.198 126.094 107.232 126.279 107.301 126.443C107.376 126.6 107.506 126.747 107.69 126.884C107.875 127.014 108.135 127.137 108.47 127.253C108.805 127.369 109.232 127.485 109.751 127.602C110.661 127.807 111.409 128.053 111.997 128.34C112.585 128.627 113.022 128.979 113.309 129.396C113.597 129.813 113.74 130.319 113.74 130.914C113.74 131.399 113.638 131.843 113.433 132.247C113.234 132.65 112.944 132.999 112.561 133.292C112.185 133.58 111.734 133.805 111.207 133.969C110.688 134.126 110.103 134.205 109.454 134.205C108.476 134.205 107.649 134.031 106.973 133.682C106.296 133.333 105.783 132.882 105.434 132.329C105.086 131.775 104.912 131.19 104.912 130.575H106.819C106.846 131.095 106.996 131.508 107.27 131.816C107.543 132.117 107.878 132.332 108.275 132.462C108.671 132.585 109.064 132.646 109.454 132.646C109.974 132.646 110.408 132.578 110.756 132.441C111.112 132.305 111.382 132.117 111.566 131.877C111.751 131.638 111.843 131.365 111.843 131.057ZM124.762 122.905V134H122.855V122.905H124.762ZM122.711 119.962C122.711 119.655 122.803 119.395 122.988 119.183C123.179 118.971 123.46 118.865 123.829 118.865C124.191 118.865 124.468 118.971 124.659 119.183C124.858 119.395 124.957 119.655 124.957 119.962C124.957 120.256 124.858 120.509 124.659 120.721C124.468 120.926 124.191 121.029 123.829 121.029C123.46 121.029 123.179 120.926 122.988 120.721C122.803 120.509 122.711 120.256 122.711 119.962ZM130.334 125.274V134H128.437V122.905H130.232L130.334 125.274ZM129.883 128.032L129.093 128.001C129.1 127.243 129.213 126.542 129.432 125.899C129.651 125.25 129.958 124.686 130.355 124.208C130.751 123.729 131.223 123.36 131.77 123.1C132.323 122.833 132.935 122.7 133.605 122.7C134.152 122.7 134.644 122.775 135.082 122.926C135.519 123.069 135.892 123.302 136.199 123.623C136.514 123.944 136.753 124.361 136.917 124.874C137.081 125.38 137.163 125.999 137.163 126.73V134H135.256V126.709C135.256 126.128 135.171 125.664 135 125.315C134.829 124.959 134.579 124.703 134.251 124.546C133.923 124.382 133.52 124.3 133.041 124.3C132.57 124.3 132.139 124.399 131.749 124.597C131.366 124.795 131.035 125.069 130.755 125.417C130.481 125.766 130.266 126.166 130.109 126.617C129.958 127.062 129.883 127.533 129.883 128.032ZM149.631 132.852L152.717 122.905H154.748L150.297 135.712C150.195 135.986 150.058 136.28 149.887 136.594C149.723 136.916 149.511 137.22 149.251 137.507C148.992 137.794 148.677 138.026 148.308 138.204C147.946 138.389 147.512 138.481 147.006 138.481C146.855 138.481 146.664 138.46 146.432 138.419C146.199 138.378 146.035 138.344 145.939 138.317L145.929 136.779C145.984 136.786 146.069 136.792 146.186 136.799C146.309 136.813 146.394 136.82 146.442 136.82C146.873 136.82 147.238 136.762 147.539 136.646C147.84 136.536 148.093 136.348 148.298 136.082C148.51 135.822 148.691 135.463 148.841 135.005L149.631 132.852ZM147.365 122.905L150.246 131.519L150.738 133.518L149.374 134.215L145.293 122.905H147.365ZM156.423 128.576V128.34C156.423 127.54 156.54 126.798 156.772 126.115C157.004 125.424 157.339 124.826 157.777 124.32C158.214 123.808 158.744 123.411 159.366 123.131C159.988 122.844 160.686 122.7 161.458 122.7C162.237 122.7 162.938 122.844 163.56 123.131C164.189 123.411 164.722 123.808 165.16 124.32C165.604 124.826 165.942 125.424 166.175 126.115C166.407 126.798 166.524 127.54 166.524 128.34V128.576C166.524 129.375 166.407 130.117 166.175 130.801C165.942 131.484 165.604 132.083 165.16 132.595C164.722 133.101 164.192 133.498 163.57 133.785C162.955 134.065 162.258 134.205 161.479 134.205C160.699 134.205 159.999 134.065 159.377 133.785C158.754 133.498 158.221 133.101 157.777 132.595C157.339 132.083 157.004 131.484 156.772 130.801C156.54 130.117 156.423 129.375 156.423 128.576ZM158.32 128.34V128.576C158.32 129.129 158.385 129.652 158.515 130.145C158.645 130.63 158.84 131.061 159.1 131.437C159.366 131.812 159.698 132.11 160.094 132.329C160.491 132.541 160.952 132.646 161.479 132.646C161.998 132.646 162.453 132.541 162.842 132.329C163.239 132.11 163.567 131.812 163.827 131.437C164.087 131.061 164.281 130.63 164.411 130.145C164.548 129.652 164.616 129.129 164.616 128.576V128.34C164.616 127.793 164.548 127.277 164.411 126.792C164.281 126.299 164.083 125.865 163.816 125.489C163.557 125.106 163.229 124.806 162.832 124.587C162.442 124.368 161.984 124.259 161.458 124.259C160.939 124.259 160.481 124.368 160.084 124.587C159.694 124.806 159.366 125.106 159.1 125.489C158.84 125.865 158.645 126.299 158.515 126.792C158.385 127.277 158.32 127.793 158.32 128.34ZM176.321 131.437V122.905H178.228V134H176.413L176.321 131.437ZM176.679 129.099L177.469 129.078C177.469 129.816 177.39 130.5 177.233 131.129C177.083 131.751 176.837 132.291 176.495 132.749C176.153 133.207 175.705 133.566 175.152 133.826C174.598 134.079 173.925 134.205 173.132 134.205C172.592 134.205 172.096 134.126 171.645 133.969C171.2 133.812 170.818 133.569 170.496 133.241C170.175 132.913 169.926 132.486 169.748 131.959C169.577 131.433 169.491 130.801 169.491 130.062V122.905H171.388V130.083C171.388 130.582 171.443 130.996 171.552 131.324C171.669 131.645 171.822 131.901 172.014 132.093C172.212 132.277 172.431 132.407 172.67 132.482C172.916 132.558 173.169 132.595 173.429 132.595C174.236 132.595 174.875 132.441 175.346 132.134C175.818 131.819 176.156 131.399 176.362 130.873C176.573 130.339 176.679 129.748 176.679 129.099ZM183.646 124.648V134H181.749V122.905H183.595L183.646 124.648ZM187.112 122.844L187.102 124.607C186.945 124.573 186.794 124.553 186.651 124.546C186.514 124.532 186.357 124.525 186.179 124.525C185.742 124.525 185.355 124.594 185.02 124.73C184.685 124.867 184.402 125.059 184.169 125.305C183.937 125.551 183.752 125.845 183.616 126.187C183.486 126.521 183.4 126.891 183.359 127.294L182.826 127.602C182.826 126.932 182.891 126.303 183.021 125.715C183.158 125.127 183.366 124.607 183.646 124.156C183.927 123.698 184.282 123.343 184.713 123.09C185.15 122.83 185.67 122.7 186.271 122.7C186.408 122.7 186.565 122.717 186.743 122.751C186.921 122.779 187.044 122.81 187.112 122.844ZM79.1726 154.847V141.25H81.0798V157H79.3366L79.1726 154.847ZM71.7077 151.576V151.36C71.7077 150.513 71.8103 149.744 72.0153 149.053C72.2272 148.356 72.5246 147.758 72.9074 147.259C73.2971 146.76 73.7585 146.377 74.2917 146.11C74.8317 145.837 75.4333 145.7 76.0964 145.7C76.7937 145.7 77.4021 145.823 77.9216 146.069C78.448 146.309 78.8923 146.661 79.2546 147.125C79.6237 147.583 79.9143 148.137 80.1262 148.787C80.3381 149.436 80.4851 150.171 80.5671 150.991V151.935C80.4919 152.748 80.3449 153.479 80.1262 154.129C79.9143 154.778 79.6237 155.332 79.2546 155.79C78.8923 156.248 78.448 156.6 77.9216 156.846C77.3952 157.085 76.78 157.205 76.0759 157.205C75.4265 157.205 74.8317 157.065 74.2917 156.785C73.7585 156.504 73.2971 156.111 72.9074 155.605C72.5246 155.1 72.2272 154.505 72.0153 153.821C71.8103 153.131 71.7077 152.382 71.7077 151.576ZM73.6149 151.36V151.576C73.6149 152.129 73.6696 152.649 73.779 153.134C73.8952 153.62 74.073 154.047 74.3122 154.416C74.5515 154.785 74.8557 155.076 75.2248 155.288C75.5939 155.493 76.0349 155.595 76.5476 155.595C77.1765 155.595 77.6926 155.462 78.0959 155.195C78.5061 154.929 78.8342 154.577 79.0803 154.139C79.3264 153.702 79.5178 153.227 79.6545 152.714V150.243C79.5725 149.867 79.4528 149.504 79.2956 149.156C79.1452 148.8 78.947 148.486 78.7009 148.212C78.4616 147.932 78.1643 147.71 77.8088 147.546C77.4602 147.382 77.0466 147.3 76.5681 147.3C76.0485 147.3 75.6008 147.409 75.2248 147.628C74.8557 147.84 74.5515 148.134 74.3122 148.51C74.073 148.879 73.8952 149.31 73.779 149.802C73.6696 150.287 73.6149 150.807 73.6149 151.36ZM84.1605 151.576V151.34C84.1605 150.54 84.2767 149.798 84.5091 149.115C84.7415 148.424 85.0765 147.826 85.514 147.32C85.9515 146.808 86.4813 146.411 87.1033 146.131C87.7254 145.844 88.4227 145.7 89.1951 145.7C89.9744 145.7 90.6751 145.844 91.2972 146.131C91.9261 146.411 92.4593 146.808 92.8968 147.32C93.3411 147.826 93.6795 148.424 93.9119 149.115C94.1444 149.798 94.2606 150.54 94.2606 151.34V151.576C94.2606 152.375 94.1444 153.117 93.9119 153.801C93.6795 154.484 93.3411 155.083 92.8968 155.595C92.4593 156.101 91.9295 156.498 91.3074 156.785C90.6922 157.065 89.9949 157.205 89.2156 157.205C88.4363 157.205 87.7357 157.065 87.1136 156.785C86.4915 156.498 85.9583 156.101 85.514 155.595C85.0765 155.083 84.7415 154.484 84.5091 153.801C84.2767 153.117 84.1605 152.375 84.1605 151.576ZM86.0574 151.34V151.576C86.0574 152.129 86.1224 152.652 86.2523 153.145C86.3821 153.63 86.577 154.061 86.8367 154.437C87.1033 154.812 87.4349 155.11 87.8314 155.329C88.2279 155.541 88.6893 155.646 89.2156 155.646C89.7352 155.646 90.1898 155.541 90.5794 155.329C90.9759 155.11 91.304 154.812 91.5638 154.437C91.8236 154.061 92.0184 153.63 92.1483 153.145C92.285 152.652 92.3533 152.129 92.3533 151.576V151.34C92.3533 150.793 92.285 150.277 92.1483 149.792C92.0184 149.299 91.8201 148.865 91.5535 148.489C91.2938 148.106 90.9656 147.806 90.5692 147.587C90.1795 147.368 89.7215 147.259 89.1951 147.259C88.6756 147.259 88.2176 147.368 87.8211 147.587C87.4315 147.806 87.1033 148.106 86.8367 148.489C86.577 148.865 86.3821 149.299 86.2523 149.792C86.1224 150.277 86.0574 150.793 86.0574 151.34ZM99.1562 148.11V157H97.249V145.905H99.0537L99.1562 148.11ZM98.7665 151.032L97.8847 151.001C97.8915 150.243 97.9907 149.542 98.1821 148.899C98.3735 148.25 98.6572 147.686 99.0331 147.208C99.4091 146.729 99.8774 146.36 100.438 146.1C100.998 145.833 101.648 145.7 102.386 145.7C102.906 145.7 103.384 145.775 103.822 145.926C104.259 146.069 104.639 146.298 104.96 146.613C105.281 146.927 105.531 147.331 105.708 147.823C105.886 148.315 105.975 148.91 105.975 149.607V157H104.078V149.699C104.078 149.118 103.979 148.653 103.781 148.305C103.589 147.956 103.316 147.703 102.96 147.546C102.605 147.382 102.188 147.3 101.709 147.3C101.149 147.3 100.681 147.399 100.305 147.597C99.9287 147.795 99.6279 148.069 99.4023 148.417C99.1767 148.766 99.0126 149.166 98.9101 149.617C98.8144 150.062 98.7665 150.533 98.7665 151.032ZM105.955 149.986L104.683 150.376C104.69 149.768 104.789 149.183 104.98 148.623C105.179 148.062 105.462 147.563 105.831 147.125C106.207 146.688 106.669 146.343 107.216 146.09C107.763 145.83 108.388 145.7 109.092 145.7C109.687 145.7 110.213 145.779 110.671 145.936C111.136 146.093 111.526 146.336 111.84 146.664C112.162 146.985 112.404 147.399 112.568 147.905C112.732 148.411 112.814 149.012 112.814 149.709V157H110.907V149.689C110.907 149.067 110.808 148.585 110.61 148.243C110.418 147.895 110.145 147.652 109.789 147.515C109.441 147.372 109.024 147.3 108.539 147.3C108.122 147.3 107.752 147.372 107.431 147.515C107.11 147.659 106.84 147.857 106.621 148.11C106.402 148.356 106.235 148.64 106.119 148.961C106.009 149.282 105.955 149.624 105.955 149.986ZM122.857 155.103V149.392C122.857 148.954 122.769 148.575 122.591 148.253C122.42 147.925 122.16 147.672 121.812 147.495C121.463 147.317 121.032 147.228 120.52 147.228C120.041 147.228 119.621 147.31 119.258 147.474C118.903 147.638 118.623 147.854 118.418 148.12C118.219 148.387 118.12 148.674 118.12 148.981H116.223C116.223 148.585 116.326 148.192 116.531 147.802C116.736 147.413 117.03 147.061 117.413 146.746C117.802 146.425 118.267 146.172 118.807 145.987C119.354 145.796 119.962 145.7 120.632 145.7C121.439 145.7 122.15 145.837 122.765 146.11C123.387 146.384 123.873 146.797 124.221 147.351C124.577 147.898 124.754 148.585 124.754 149.412V154.58C124.754 154.949 124.785 155.342 124.847 155.759C124.915 156.176 125.014 156.535 125.144 156.836V157H123.165C123.069 156.781 122.994 156.491 122.94 156.128C122.885 155.759 122.857 155.417 122.857 155.103ZM123.186 150.273L123.206 151.606H121.289C120.749 151.606 120.267 151.651 119.843 151.74C119.419 151.822 119.064 151.948 118.776 152.119C118.489 152.29 118.271 152.505 118.12 152.765C117.97 153.018 117.895 153.315 117.895 153.657C117.895 154.006 117.973 154.324 118.13 154.611C118.288 154.898 118.523 155.127 118.838 155.298C119.159 155.462 119.552 155.544 120.017 155.544C120.598 155.544 121.111 155.421 121.555 155.175C122 154.929 122.352 154.628 122.611 154.272C122.878 153.917 123.022 153.572 123.042 153.237L123.852 154.149C123.804 154.437 123.674 154.754 123.462 155.103C123.251 155.452 122.967 155.787 122.611 156.108C122.263 156.422 121.846 156.686 121.36 156.897C120.882 157.103 120.342 157.205 119.74 157.205C118.988 157.205 118.329 157.058 117.761 156.764C117.201 156.47 116.763 156.077 116.449 155.585C116.141 155.086 115.987 154.529 115.987 153.914C115.987 153.319 116.104 152.796 116.336 152.345C116.568 151.887 116.903 151.507 117.341 151.207C117.778 150.899 118.305 150.667 118.92 150.509C119.535 150.352 120.222 150.273 120.981 150.273H123.186ZM130.429 145.905V157H128.522V145.905H130.429ZM128.379 142.962C128.379 142.655 128.471 142.395 128.655 142.183C128.847 141.971 129.127 141.865 129.496 141.865C129.859 141.865 130.135 141.971 130.327 142.183C130.525 142.395 130.624 142.655 130.624 142.962C130.624 143.256 130.525 143.509 130.327 143.721C130.135 143.926 129.859 144.029 129.496 144.029C129.127 144.029 128.847 143.926 128.655 143.721C128.471 143.509 128.379 143.256 128.379 142.962ZM136.002 148.274V157H134.105V145.905H135.899L136.002 148.274ZM135.551 151.032L134.761 151.001C134.768 150.243 134.881 149.542 135.099 148.899C135.318 148.25 135.626 147.686 136.022 147.208C136.419 146.729 136.89 146.36 137.437 146.1C137.991 145.833 138.603 145.7 139.273 145.7C139.82 145.7 140.312 145.775 140.749 145.926C141.187 146.069 141.559 146.302 141.867 146.623C142.181 146.944 142.421 147.361 142.585 147.874C142.749 148.38 142.831 148.999 142.831 149.73V157H140.924V149.709C140.924 149.128 140.838 148.664 140.667 148.315C140.496 147.959 140.247 147.703 139.919 147.546C139.591 147.382 139.187 147.3 138.709 147.3C138.237 147.3 137.806 147.399 137.417 147.597C137.034 147.795 136.702 148.069 136.422 148.417C136.149 148.766 135.933 149.166 135.776 149.617C135.626 150.062 135.551 150.533 135.551 151.032Z" fill="#363636"/>
<path d="M73.0555 57.9375V75H69.5516V57.9375H73.0555ZM80.2325 64.9453V75H76.8458V62.3203H80.0216L80.2325 64.9453ZM79.7638 68.2148H78.8263C78.8263 67.332 78.9317 66.5195 79.1427 65.7773C79.3614 65.0273 79.6778 64.3789 80.0919 63.832C80.5138 63.2773 81.0333 62.8477 81.6505 62.543C82.2677 62.2383 82.9825 62.0859 83.795 62.0859C84.3575 62.0859 84.8731 62.1719 85.3419 62.3438C85.8106 62.5078 86.213 62.7695 86.5489 63.1289C86.8927 63.4805 87.1583 63.9414 87.3458 64.5117C87.5333 65.0742 87.627 65.75 87.627 66.5391V75H84.252V66.9141C84.252 66.3359 84.1739 65.8906 84.0177 65.5781C83.8614 65.2656 83.6388 65.0469 83.3497 64.9219C83.0684 64.7969 82.7286 64.7344 82.3302 64.7344C81.8927 64.7344 81.5098 64.8242 81.1817 65.0039C80.8614 65.1836 80.5958 65.4336 80.3848 65.7539C80.1739 66.0664 80.0177 66.4336 79.9161 66.8555C79.8145 67.2773 79.7638 67.7305 79.7638 68.2148ZM87.3106 67.8281L86.1036 67.9805C86.1036 67.1523 86.2052 66.3828 86.4083 65.6719C86.6192 64.9609 86.9278 64.3359 87.3341 63.7969C87.7481 63.2578 88.2598 62.8398 88.8692 62.543C89.4786 62.2383 90.1817 62.0859 90.9786 62.0859C91.588 62.0859 92.1427 62.1758 92.6427 62.3555C93.1427 62.5273 93.5684 62.8047 93.92 63.1875C94.2794 63.5625 94.5528 64.0547 94.7403 64.6641C94.9356 65.2734 95.0333 66.0195 95.0333 66.9023V75H91.6466V66.9023C91.6466 66.3164 91.5684 65.8711 91.4122 65.5664C91.2638 65.2539 91.045 65.0391 90.7559 64.9219C90.4747 64.7969 90.1388 64.7344 89.7481 64.7344C89.3419 64.7344 88.9864 64.8164 88.6817 64.9805C88.377 65.1367 88.1231 65.3555 87.92 65.6367C87.7169 65.918 87.5645 66.2461 87.463 66.6211C87.3614 66.9883 87.3106 67.3906 87.3106 67.8281ZM101.742 64.7578V79.875H98.3666V62.3203H101.495L101.742 64.7578ZM109.769 68.5195V68.7656C109.769 69.6875 109.66 70.543 109.441 71.332C109.23 72.1211 108.917 72.8086 108.503 73.3945C108.089 73.9727 107.574 74.4258 106.956 74.7539C106.347 75.0742 105.644 75.2344 104.847 75.2344C104.074 75.2344 103.402 75.0781 102.831 74.7656C102.261 74.4531 101.781 74.0156 101.39 73.4531C101.007 72.8828 100.699 72.2227 100.464 71.4727C100.23 70.7227 100.05 69.918 99.9252 69.0586V68.4141C100.05 67.4922 100.23 66.6484 100.464 65.8828C100.699 65.1094 101.007 64.4414 101.39 63.8789C101.781 63.3086 102.257 62.8672 102.82 62.5547C103.39 62.2422 104.058 62.0859 104.824 62.0859C105.628 62.0859 106.335 62.2383 106.945 62.543C107.562 62.8477 108.077 63.2852 108.492 63.8555C108.913 64.4258 109.23 65.1055 109.441 65.8945C109.66 66.6836 109.769 67.5586 109.769 68.5195ZM106.382 68.7656V68.5195C106.382 67.9805 106.335 67.4844 106.242 67.0312C106.156 66.5703 106.015 66.168 105.82 65.8242C105.632 65.4805 105.382 65.2148 105.07 65.0273C104.765 64.832 104.394 64.7344 103.956 64.7344C103.495 64.7344 103.101 64.8086 102.773 64.957C102.452 65.1055 102.191 65.3203 101.988 65.6016C101.785 65.8828 101.632 66.2188 101.531 66.6094C101.429 67 101.367 67.4414 101.343 67.9336V69.5625C101.382 70.1406 101.492 70.6602 101.671 71.1211C101.851 71.5742 102.128 71.9336 102.503 72.1992C102.878 72.4648 103.37 72.5977 103.98 72.5977C104.425 72.5977 104.8 72.5 105.105 72.3047C105.41 72.1016 105.656 71.8242 105.843 71.4727C106.038 71.1211 106.175 70.7148 106.253 70.2539C106.339 69.793 106.382 69.2969 106.382 68.7656ZM119.43 72.1406V66.4922C119.43 66.0859 119.364 65.7383 119.231 65.4492C119.098 65.1523 118.891 64.9219 118.61 64.7578C118.337 64.5938 117.981 64.5117 117.544 64.5117C117.169 64.5117 116.844 64.5781 116.571 64.7109C116.298 64.8359 116.087 65.0195 115.938 65.2617C115.79 65.4961 115.715 65.7734 115.715 66.0938H112.34C112.34 65.5547 112.465 65.043 112.715 64.5586C112.965 64.0742 113.329 63.6484 113.805 63.2812C114.282 62.9062 114.848 62.6133 115.505 62.4023C116.169 62.1914 116.911 62.0859 117.731 62.0859C118.715 62.0859 119.59 62.25 120.356 62.5781C121.122 62.9062 121.723 63.3984 122.161 64.0547C122.606 64.7109 122.829 65.5312 122.829 66.5156V71.9414C122.829 72.6367 122.872 73.207 122.958 73.6523C123.044 74.0898 123.169 74.4727 123.333 74.8008V75H119.923C119.758 74.6562 119.633 74.2266 119.548 73.7109C119.469 73.1875 119.43 72.6641 119.43 72.1406ZM119.876 67.2773L119.899 69.1875H118.012C117.567 69.1875 117.18 69.2383 116.852 69.3398C116.524 69.4414 116.255 69.5859 116.044 69.7734C115.833 69.9531 115.676 70.1641 115.575 70.4062C115.481 70.6484 115.434 70.9141 115.434 71.2031C115.434 71.4922 115.501 71.7539 115.633 71.9883C115.766 72.2148 115.958 72.3945 116.208 72.5273C116.458 72.6523 116.751 72.7148 117.087 72.7148C117.594 72.7148 118.036 72.6133 118.411 72.4102C118.786 72.207 119.075 71.957 119.278 71.6602C119.489 71.3633 119.598 71.082 119.606 70.8164L120.497 72.2461C120.372 72.5664 120.2 72.8984 119.981 73.2422C119.77 73.5859 119.501 73.9102 119.173 74.2148C118.844 74.5117 118.45 74.7578 117.989 74.9531C117.528 75.1406 116.981 75.2344 116.348 75.2344C115.544 75.2344 114.813 75.0742 114.157 74.7539C113.508 74.4258 112.993 73.9766 112.61 73.4062C112.235 72.8281 112.048 72.1719 112.048 71.4375C112.048 70.7734 112.173 70.1836 112.423 69.668C112.673 69.1523 113.04 68.7188 113.524 68.3672C114.016 68.0078 114.63 67.7383 115.364 67.5586C116.098 67.3711 116.95 67.2773 117.919 67.2773H119.876ZM131.389 72.5977C131.803 72.5977 132.17 72.5195 132.49 72.3633C132.81 72.1992 133.06 71.9727 133.24 71.6836C133.428 71.3867 133.525 71.0391 133.533 70.6406H136.709C136.701 71.5312 136.463 72.3242 135.994 73.0195C135.525 73.707 134.896 74.25 134.107 74.6484C133.318 75.0391 132.435 75.2344 131.459 75.2344C130.475 75.2344 129.615 75.0703 128.881 74.7422C128.154 74.4141 127.549 73.9609 127.064 73.3828C126.58 72.7969 126.217 72.1172 125.975 71.3438C125.732 70.5625 125.611 69.7266 125.611 68.8359V68.4961C125.611 67.5977 125.732 66.7617 125.975 65.9883C126.217 65.207 126.58 64.5273 127.064 63.9492C127.549 63.3633 128.154 62.9062 128.881 62.5781C129.607 62.25 130.459 62.0859 131.435 62.0859C132.475 62.0859 133.385 62.2852 134.166 62.6836C134.955 63.082 135.572 63.6523 136.018 64.3945C136.471 65.1289 136.701 66 136.709 67.0078H133.533C133.525 66.5859 133.435 66.2031 133.264 65.8594C133.1 65.5156 132.857 65.2422 132.537 65.0391C132.225 64.8281 131.838 64.7227 131.377 64.7227C130.885 64.7227 130.482 64.8281 130.17 65.0391C129.857 65.2422 129.615 65.5234 129.443 65.8828C129.271 66.2344 129.15 66.6367 129.08 67.0898C129.018 67.5352 128.986 68.0039 128.986 68.4961V68.8359C128.986 69.3281 129.018 69.8008 129.08 70.2539C129.143 70.707 129.26 71.1094 129.432 71.4609C129.611 71.8125 129.857 72.0898 130.17 72.293C130.482 72.4961 130.889 72.5977 131.389 72.5977ZM145.597 62.3203V64.7109H138.214V62.3203H145.597ZM140.042 59.1914H143.417V71.1797C143.417 71.5469 143.464 71.8281 143.558 72.0234C143.659 72.2188 143.808 72.3555 144.003 72.4336C144.198 72.5039 144.445 72.5391 144.741 72.5391C144.952 72.5391 145.14 72.5312 145.304 72.5156C145.476 72.4922 145.62 72.4688 145.738 72.4453L145.749 74.9297C145.46 75.0234 145.148 75.0977 144.812 75.1523C144.476 75.207 144.105 75.2344 143.698 75.2344C142.956 75.2344 142.308 75.1133 141.753 74.8711C141.206 74.6211 140.784 74.2227 140.488 73.6758C140.191 73.1289 140.042 72.4102 140.042 71.5195V59.1914Z" fill="#114DFF"/>
<g clip-path="url(#clip0_206_4227)">
<path fill-rule="evenodd" clip-rule="evenodd" d="M119.399 0.0541243C119.655 0.124648 119.887 0.261771 120.073 0.451504C120.258 0.641237 120.39 0.876789 120.455 1.13412L121.736 6.26412L126.866 7.54513C127.124 7.60989 127.359 7.74182 127.549 7.92743C127.739 8.11304 127.876 8.34569 127.946 8.60162C128.017 8.85755 128.018 9.12759 127.95 9.38418C127.882 9.64077 127.747 9.87472 127.559 10.0621L121.559 16.0621C121.376 16.2446 121.149 16.3767 120.9 16.4455C120.651 16.5144 120.388 16.5177 120.137 16.4551L115.385 15.2701L108.326 22.3261C107.974 22.6778 107.497 22.8754 107 22.8754C106.503 22.8754 106.026 22.6778 105.674 22.3261C105.322 21.9744 105.125 21.4975 105.125 21.0001C105.125 20.5028 105.322 20.0258 105.674 19.6741L112.73 12.6151L111.542 7.86312C111.479 7.61188 111.482 7.34858 111.551 7.09885C111.62 6.84913 111.752 6.62149 111.935 6.43812L117.935 0.438124C118.123 0.250596 118.357 0.116246 118.614 0.0487842C118.87 -0.0186772 119.14 -0.0168345 119.396 0.0541243M105.806 3.83412C106.303 3.80071 106.765 3.57143 107.093 3.19673C107.42 2.82204 107.586 2.33261 107.552 1.83612C107.519 1.33964 107.289 0.876764 106.915 0.549325C106.54 0.221886 106.051 0.056707 105.554 0.0901243C101.561 0.368115 97.7312 1.78651 94.5202 4.17682C91.3092 6.56713 88.8518 9.82888 87.44 13.5746C86.0281 17.3204 85.7211 21.3926 86.5554 25.3077C87.3897 29.2228 89.3303 32.8161 92.1466 35.6608C94.9628 38.5055 98.5365 40.4821 102.443 41.3557C106.35 42.2292 110.425 41.9631 114.184 40.5889C117.944 39.2147 121.23 36.7902 123.653 33.6034C126.075 30.4166 127.532 26.6015 127.85 22.6111C127.89 22.1154 127.731 21.6242 127.409 21.2456C127.086 20.867 126.627 20.6319 126.131 20.5921C125.635 20.5523 125.144 20.7111 124.766 21.0335C124.387 21.3559 124.152 21.8154 124.112 22.3111C123.852 25.5868 122.657 28.7189 120.669 31.3354C118.681 33.9519 115.984 35.9427 112.898 37.0715C109.812 38.2002 106.467 38.4193 103.26 37.7027C100.053 36.9862 97.1197 35.3642 94.8076 33.0293C92.4955 30.6944 90.9022 27.7449 90.2171 24.5312C89.532 21.3175 89.7838 17.9746 90.9427 14.8998C92.1016 11.825 94.1187 9.14752 96.7546 7.18542C99.3904 5.22332 102.534 4.05912 105.812 3.83112M105.527 12.1411C105.617 12.3704 105.661 12.6151 105.656 12.8614C105.651 13.1076 105.598 13.3505 105.499 13.5761C105.401 13.8018 105.259 14.0058 105.081 14.1765C104.904 14.3472 104.694 14.4813 104.465 14.5711C103.395 14.9897 102.446 15.6684 101.705 16.5459C100.963 17.4233 100.452 18.4718 100.217 19.5966C99.9822 20.7213 100.032 21.8868 100.361 22.9876C100.69 24.0884 101.288 25.0899 102.101 25.9014C102.915 26.7128 103.918 27.3088 105.019 27.6352C106.121 27.9617 107.286 28.0084 108.411 27.7711C109.535 27.5338 110.582 27.0201 111.458 26.2763C112.334 25.5325 113.01 24.5821 113.426 23.5111C113.614 23.0596 113.972 22.6996 114.422 22.5078C114.872 22.316 115.379 22.3077 115.835 22.4847C116.291 22.6616 116.66 23.0098 116.863 23.4549C117.066 23.9 117.087 24.4068 116.921 24.8671C116.28 26.5207 115.237 27.9885 113.886 29.1375C112.535 30.2864 110.919 31.0804 109.184 31.4475C107.449 31.8146 105.65 31.7432 103.95 31.2398C102.249 30.7365 100.701 29.817 99.4452 28.5646C98.1896 27.3122 97.266 25.7665 96.7582 24.0673C96.2504 22.3681 96.1744 20.5691 96.5369 18.8331C96.8995 17.0971 97.6892 15.4789 98.8347 14.125C99.9801 12.7711 101.445 11.7242 103.097 11.0791C103.326 10.9893 103.571 10.9455 103.817 10.9502C104.064 10.955 104.306 11.0082 104.532 11.1068C104.758 11.2054 104.962 11.3475 105.132 11.525C105.303 11.7025 105.437 11.9118 105.527 12.1411Z" fill="#3CE5A7"/>
</g>
<defs>
<clipPath id="clip0_206_4227">
<rect width="42" height="42" fill="white" transform="translate(86)"/>
</clipPath>
</defs>
</svg>
