<svg width="313" height="313" viewBox="0 0 313 313" fill="none" xmlns="http://www.w3.org/2000/svg">
<g filter="url(#filter0_d_8_107)">
<rect x="2" y="1" width="299" height="299" rx="149.5" fill="white"/>
<rect x="3.5" y="2.5" width="296" height="296" rx="148" stroke="url(#paint0_linear_8_107)" stroke-width="3"/>
</g>
<path d="M113.718 84.0703V99H110.652V84.0703H113.718ZM119.936 90.2739V99H116.983V87.9053H119.752L119.936 90.2739ZM119.506 93.063H118.706C118.706 92.2427 118.812 91.5044 119.024 90.8481C119.235 90.1851 119.533 89.6211 119.916 89.1562C120.298 88.6846 120.753 88.3257 121.279 88.0796C121.813 87.8267 122.407 87.7002 123.064 87.7002C123.583 87.7002 124.058 87.7754 124.489 87.9258C124.92 88.0762 125.289 88.3154 125.596 88.6436C125.911 88.9717 126.15 89.4058 126.314 89.9458C126.485 90.4858 126.57 91.1455 126.57 91.9248V99H123.597V91.9146C123.597 91.4224 123.528 91.0396 123.392 90.7661C123.255 90.4927 123.053 90.3013 122.787 90.1919C122.527 90.0757 122.206 90.0176 121.823 90.0176C121.426 90.0176 121.081 90.0962 120.787 90.2534C120.5 90.4106 120.261 90.6294 120.069 90.9097C119.885 91.1831 119.745 91.5044 119.649 91.8735C119.553 92.2427 119.506 92.6392 119.506 93.063ZM133.219 96.8467L135.68 87.9053H138.767L135.024 99H133.158L133.219 96.8467ZM131.528 87.9053L133.999 96.8569L134.05 99H132.174L128.431 87.9053H131.528ZM145.682 99.2051C144.821 99.2051 144.049 99.0684 143.365 98.7949C142.682 98.5146 142.1 98.1284 141.622 97.6362C141.15 97.144 140.788 96.5732 140.535 95.9238C140.282 95.2676 140.156 94.5703 140.156 93.832V93.4219C140.156 92.5811 140.275 91.812 140.515 91.1147C140.754 90.4175 141.096 89.8125 141.54 89.2998C141.991 88.7871 142.538 88.394 143.181 88.1206C143.823 87.8403 144.548 87.7002 145.354 87.7002C146.141 87.7002 146.838 87.8301 147.446 88.0898C148.055 88.3496 148.564 88.7188 148.974 89.1973C149.391 89.6758 149.705 90.25 149.917 90.9199C150.129 91.583 150.235 92.3213 150.235 93.1348V94.3652H141.417V92.3965H147.333V92.1709C147.333 91.7607 147.258 91.395 147.108 91.0737C146.964 90.7456 146.745 90.4858 146.452 90.2944C146.158 90.103 145.782 90.0073 145.324 90.0073C144.934 90.0073 144.599 90.0928 144.319 90.2637C144.038 90.4346 143.809 90.6738 143.632 90.9814C143.461 91.2891 143.331 91.6514 143.242 92.0684C143.16 92.4785 143.119 92.9297 143.119 93.4219V93.832C143.119 94.2764 143.181 94.6865 143.304 95.0625C143.433 95.4385 143.615 95.7632 143.847 96.0366C144.086 96.3101 144.373 96.522 144.708 96.6724C145.05 96.8228 145.436 96.8979 145.867 96.8979C146.4 96.8979 146.896 96.7954 147.354 96.5903C147.819 96.3784 148.219 96.0605 148.554 95.6367L149.989 97.1953C149.757 97.5303 149.439 97.8516 149.036 98.1592C148.639 98.4668 148.161 98.7197 147.6 98.918C147.039 99.1094 146.4 99.2051 145.682 99.2051ZM158.545 95.9341C158.545 95.7222 158.484 95.5308 158.361 95.3599C158.238 95.189 158.009 95.0317 157.674 94.8882C157.346 94.7378 156.871 94.6011 156.249 94.478C155.688 94.355 155.165 94.2012 154.68 94.0166C154.201 93.8252 153.784 93.5962 153.429 93.3296C153.08 93.063 152.807 92.7485 152.608 92.3862C152.41 92.0171 152.311 91.5967 152.311 91.125C152.311 90.6602 152.41 90.2227 152.608 89.8125C152.813 89.4023 153.104 89.04 153.48 88.7256C153.863 88.4043 154.328 88.1548 154.875 87.9771C155.428 87.7925 156.05 87.7002 156.741 87.7002C157.705 87.7002 158.532 87.854 159.222 88.1616C159.919 88.4692 160.453 88.8931 160.822 89.4331C161.198 89.9663 161.386 90.5747 161.386 91.2583H158.433C158.433 90.9712 158.371 90.7148 158.248 90.4893C158.132 90.2568 157.947 90.0757 157.694 89.9458C157.448 89.8091 157.127 89.7407 156.73 89.7407C156.402 89.7407 156.119 89.7988 155.879 89.915C155.64 90.0244 155.456 90.1748 155.326 90.3662C155.203 90.5508 155.141 90.7559 155.141 90.9814C155.141 91.1523 155.175 91.3062 155.244 91.4429C155.319 91.5728 155.438 91.6924 155.603 91.8018C155.767 91.9111 155.979 92.0137 156.238 92.1094C156.505 92.1982 156.833 92.2803 157.223 92.3555C158.022 92.5195 158.737 92.7349 159.366 93.0015C159.995 93.2612 160.494 93.6167 160.863 94.0679C161.232 94.5122 161.417 95.0967 161.417 95.8213C161.417 96.3135 161.307 96.7646 161.088 97.1748C160.87 97.585 160.555 97.9438 160.145 98.2515C159.735 98.5522 159.243 98.7881 158.668 98.959C158.101 99.123 157.462 99.2051 156.751 99.2051C155.719 99.2051 154.844 99.0205 154.126 98.6514C153.415 98.2822 152.875 97.814 152.506 97.2466C152.144 96.6724 151.962 96.0845 151.962 95.4829H154.762C154.775 95.8862 154.878 96.2109 155.069 96.457C155.268 96.7031 155.517 96.8809 155.818 96.9902C156.125 97.0996 156.457 97.1543 156.812 97.1543C157.195 97.1543 157.513 97.103 157.766 97.0005C158.019 96.8911 158.21 96.7476 158.34 96.5698C158.477 96.3853 158.545 96.1733 158.545 95.9341ZM169.399 87.9053V89.9971H162.939V87.9053H169.399ZM164.538 85.1675H167.491V95.6572C167.491 95.9785 167.532 96.2246 167.614 96.3955C167.703 96.5664 167.833 96.686 168.004 96.7544C168.175 96.8159 168.39 96.8467 168.65 96.8467C168.835 96.8467 168.999 96.8398 169.142 96.8262C169.293 96.8057 169.419 96.7852 169.522 96.7646L169.532 98.9385C169.279 99.0205 169.005 99.0854 168.712 99.1333C168.418 99.1812 168.093 99.2051 167.737 99.2051C167.088 99.2051 166.521 99.0991 166.035 98.8872C165.557 98.6685 165.188 98.3198 164.928 97.8413C164.668 97.3628 164.538 96.7339 164.538 95.9546V85.1675ZM170.972 93.5654V93.3501C170.972 92.5366 171.088 91.7881 171.321 91.1045C171.553 90.4141 171.891 89.8159 172.336 89.3101C172.78 88.8042 173.327 88.4111 173.976 88.1309C174.626 87.8438 175.371 87.7002 176.212 87.7002C177.052 87.7002 177.801 87.8438 178.457 88.1309C179.114 88.4111 179.664 88.8042 180.108 89.3101C180.559 89.8159 180.901 90.4141 181.134 91.1045C181.366 91.7881 181.482 92.5366 181.482 93.3501V93.5654C181.482 94.3721 181.366 95.1206 181.134 95.811C180.901 96.4946 180.559 97.0928 180.108 97.6055C179.664 98.1113 179.117 98.5044 178.468 98.7847C177.818 99.0649 177.073 99.2051 176.232 99.2051C175.391 99.2051 174.643 99.0649 173.987 98.7847C173.337 98.5044 172.787 98.1113 172.336 97.6055C171.891 97.0928 171.553 96.4946 171.321 95.811C171.088 95.1206 170.972 94.3721 170.972 93.5654ZM173.925 93.3501V93.5654C173.925 94.0303 173.966 94.4644 174.048 94.8677C174.13 95.271 174.26 95.6265 174.438 95.9341C174.622 96.2349 174.862 96.4707 175.156 96.6416C175.449 96.8125 175.808 96.8979 176.232 96.8979C176.642 96.8979 176.994 96.8125 177.288 96.6416C177.582 96.4707 177.818 96.2349 177.996 95.9341C178.174 95.6265 178.303 95.271 178.385 94.8677C178.474 94.4644 178.519 94.0303 178.519 93.5654V93.3501C178.519 92.8989 178.474 92.4751 178.385 92.0786C178.303 91.6753 178.17 91.3198 177.986 91.0122C177.808 90.6978 177.572 90.4517 177.278 90.2739C176.984 90.0962 176.629 90.0073 176.212 90.0073C175.795 90.0073 175.439 90.0962 175.145 90.2739C174.858 90.4517 174.622 90.6978 174.438 91.0122C174.26 91.3198 174.13 91.6753 174.048 92.0786C173.966 92.4751 173.925 92.8989 173.925 93.3501ZM186.88 90.3252V99H183.927V87.9053H186.706L186.88 90.3252ZM190.223 87.8335L190.172 90.5713C190.028 90.5508 189.854 90.5337 189.649 90.52C189.451 90.4995 189.269 90.4893 189.105 90.4893C188.688 90.4893 188.326 90.5439 188.018 90.6533C187.718 90.7559 187.465 90.9097 187.26 91.1147C187.061 91.3198 186.911 91.5693 186.808 91.8633C186.713 92.1572 186.658 92.4922 186.644 92.8682L186.05 92.6836C186.05 91.9658 186.121 91.3062 186.265 90.7046C186.409 90.0962 186.617 89.5664 186.89 89.1152C187.171 88.6641 187.513 88.3154 187.916 88.0693C188.319 87.8232 188.781 87.7002 189.3 87.7002C189.464 87.7002 189.632 87.7139 189.803 87.7412C189.973 87.7617 190.114 87.7925 190.223 87.8335ZM198.246 95.9341C198.246 95.7222 198.185 95.5308 198.062 95.3599C197.938 95.189 197.709 95.0317 197.374 94.8882C197.046 94.7378 196.571 94.6011 195.949 94.478C195.389 94.355 194.866 94.2012 194.38 94.0166C193.902 93.8252 193.485 93.5962 193.129 93.3296C192.781 93.063 192.507 92.7485 192.309 92.3862C192.111 92.0171 192.012 91.5967 192.012 91.125C192.012 90.6602 192.111 90.2227 192.309 89.8125C192.514 89.4023 192.805 89.04 193.181 88.7256C193.563 88.4043 194.028 88.1548 194.575 87.9771C195.129 87.7925 195.751 87.7002 196.441 87.7002C197.405 87.7002 198.232 87.854 198.923 88.1616C199.62 88.4692 200.153 88.8931 200.522 89.4331C200.898 89.9663 201.086 90.5747 201.086 91.2583H198.133C198.133 90.9712 198.072 90.7148 197.949 90.4893C197.833 90.2568 197.648 90.0757 197.395 89.9458C197.149 89.8091 196.828 89.7407 196.431 89.7407C196.103 89.7407 195.819 89.7988 195.58 89.915C195.341 90.0244 195.156 90.1748 195.026 90.3662C194.903 90.5508 194.842 90.7559 194.842 90.9814C194.842 91.1523 194.876 91.3062 194.944 91.4429C195.02 91.5728 195.139 91.6924 195.303 91.8018C195.467 91.9111 195.679 92.0137 195.939 92.1094C196.206 92.1982 196.534 92.2803 196.923 92.3555C197.723 92.5195 198.437 92.7349 199.066 93.0015C199.695 93.2612 200.194 93.6167 200.563 94.0679C200.933 94.5122 201.117 95.0967 201.117 95.8213C201.117 96.3135 201.008 96.7646 200.789 97.1748C200.57 97.585 200.256 97.9438 199.846 98.2515C199.436 98.5522 198.943 98.7881 198.369 98.959C197.802 99.123 197.163 99.2051 196.452 99.2051C195.419 99.2051 194.544 99.0205 193.827 98.6514C193.116 98.2822 192.576 97.814 192.207 97.2466C191.844 96.6724 191.663 96.0845 191.663 95.4829H194.462C194.476 95.8862 194.579 96.2109 194.77 96.457C194.968 96.7031 195.218 96.8809 195.519 96.9902C195.826 97.0996 196.158 97.1543 196.513 97.1543C196.896 97.1543 197.214 97.103 197.467 97.0005C197.72 96.8911 197.911 96.7476 198.041 96.5698C198.178 96.3853 198.246 96.1733 198.246 95.9341Z" fill="#5F6061"/>
<path d="M70.6391 143.642V133.07H72.6078V143.642C72.6078 144.626 72.4062 145.457 72.0029 146.134C71.5995 146.811 71.0424 147.327 70.3315 147.682C69.6274 148.031 68.8173 148.205 67.9013 148.205C66.9853 148.205 66.1718 148.048 65.4609 147.733C64.7499 147.419 64.1928 146.94 63.7895 146.298C63.3862 145.655 63.1845 144.845 63.1845 143.868H65.1635C65.1635 144.497 65.2797 145.013 65.5121 145.416C65.7446 145.819 66.0658 146.117 66.476 146.308C66.893 146.5 67.3681 146.595 67.9013 146.595C68.4208 146.595 68.8857 146.486 69.2958 146.267C69.7128 146.042 70.0409 145.71 70.2802 145.272C70.5195 144.828 70.6391 144.285 70.6391 143.642ZM75.8013 142.576V142.34C75.8013 141.54 75.9175 140.798 76.1499 140.115C76.3824 139.424 76.7173 138.826 77.1548 138.32C77.5923 137.808 78.1221 137.411 78.7442 137.131C79.3663 136.844 80.0635 136.7 80.836 136.7C81.6153 136.7 82.316 136.844 82.938 137.131C83.5669 137.411 84.1001 137.808 84.5376 138.32C84.982 138.826 85.3204 139.424 85.5528 140.115C85.7852 140.798 85.9014 141.54 85.9014 142.34V142.576C85.9014 143.375 85.7852 144.117 85.5528 144.801C85.3204 145.484 84.982 146.083 84.5376 146.595C84.1001 147.101 83.5704 147.498 82.9483 147.785C82.333 148.065 81.6358 148.205 80.8565 148.205C80.0772 148.205 79.3765 148.065 78.7544 147.785C78.1324 147.498 77.5992 147.101 77.1548 146.595C76.7173 146.083 76.3824 145.484 76.1499 144.801C75.9175 144.117 75.8013 143.375 75.8013 142.576ZM77.6983 142.34V142.576C77.6983 143.129 77.7632 143.652 77.8931 144.145C78.023 144.63 78.2178 145.061 78.4776 145.437C78.7442 145.812 79.0757 146.11 79.4722 146.329C79.8687 146.541 80.3301 146.646 80.8565 146.646C81.376 146.646 81.8306 146.541 82.2203 146.329C82.6167 146.11 82.9449 145.812 83.2046 145.437C83.4644 145.061 83.6592 144.63 83.7891 144.145C83.9258 143.652 83.9942 143.129 83.9942 142.576V142.34C83.9942 141.793 83.9258 141.277 83.7891 140.792C83.6592 140.299 83.461 139.865 83.1944 139.489C82.9346 139.106 82.6065 138.806 82.21 138.587C81.8204 138.368 81.3623 138.259 80.836 138.259C80.3164 138.259 79.8584 138.368 79.462 138.587C79.0723 138.806 78.7442 139.106 78.4776 139.489C78.2178 139.865 78.023 140.299 77.8931 140.792C77.7632 141.277 77.6983 141.793 77.6983 142.34ZM90.9714 136.905V148H89.0641V136.905H90.9714ZM88.9206 133.962C88.9206 133.655 89.0129 133.395 89.1974 133.183C89.3888 132.971 89.6691 132.865 90.0382 132.865C90.4006 132.865 90.6774 132.971 90.8688 133.183C91.0671 133.395 91.1662 133.655 91.1662 133.962C91.1662 134.256 91.0671 134.509 90.8688 134.721C90.6774 134.926 90.4006 135.029 90.0382 135.029C89.6691 135.029 89.3888 134.926 89.1974 134.721C89.0129 134.509 88.9206 134.256 88.9206 133.962ZM96.5437 139.274V148H94.6468V136.905H96.4412L96.5437 139.274ZM96.0926 142.032L95.303 142.001C95.3098 141.243 95.4226 140.542 95.6414 139.899C95.8601 139.25 96.1678 138.686 96.5642 138.208C96.9607 137.729 97.4324 137.36 97.9793 137.1C98.533 136.833 99.1448 136.7 99.8147 136.7C100.362 136.7 100.854 136.775 101.291 136.926C101.729 137.069 102.101 137.302 102.409 137.623C102.723 137.944 102.963 138.361 103.127 138.874C103.291 139.38 103.373 139.999 103.373 140.73V148H101.466V140.709C101.466 140.128 101.38 139.664 101.209 139.315C101.038 138.959 100.789 138.703 100.461 138.546C100.133 138.382 99.7293 138.3 99.2508 138.3C98.7791 138.3 98.3484 138.399 97.9588 138.597C97.576 138.795 97.2444 139.069 96.9641 139.417C96.6907 139.766 96.4754 140.166 96.3181 140.617C96.1678 141.062 96.0926 141.533 96.0926 142.032ZM124.043 140.566V146.031C123.859 146.305 123.565 146.612 123.162 146.954C122.758 147.289 122.201 147.583 121.49 147.836C120.786 148.082 119.877 148.205 118.763 148.205C117.854 148.205 117.016 148.048 116.251 147.733C115.492 147.412 114.832 146.947 114.272 146.339C113.718 145.724 113.287 144.979 112.98 144.104C112.679 143.222 112.528 142.224 112.528 141.109V139.951C112.528 138.836 112.658 137.842 112.918 136.967C113.185 136.092 113.574 135.35 114.087 134.742C114.6 134.126 115.229 133.662 115.974 133.347C116.719 133.026 117.573 132.865 118.537 132.865C119.679 132.865 120.632 133.063 121.398 133.46C122.17 133.85 122.772 134.39 123.203 135.08C123.64 135.771 123.92 136.557 124.043 137.438H122.064C121.976 136.898 121.798 136.406 121.531 135.962C121.272 135.518 120.899 135.162 120.414 134.896C119.928 134.622 119.303 134.485 118.537 134.485C117.847 134.485 117.249 134.612 116.743 134.865C116.237 135.118 115.82 135.48 115.492 135.952C115.164 136.423 114.918 136.994 114.753 137.664C114.596 138.334 114.518 139.089 114.518 139.93V141.109C114.518 141.971 114.617 142.74 114.815 143.417C115.02 144.093 115.311 144.671 115.687 145.149C116.063 145.621 116.51 145.98 117.03 146.226C117.556 146.472 118.137 146.595 118.773 146.595C119.477 146.595 120.048 146.537 120.485 146.421C120.923 146.298 121.265 146.154 121.511 145.99C121.757 145.819 121.945 145.659 122.075 145.508V142.166H118.619V140.566H124.043ZM133.461 142.145H129.472V140.535H133.461C134.234 140.535 134.859 140.412 135.338 140.166C135.816 139.92 136.165 139.578 136.383 139.141C136.609 138.703 136.722 138.204 136.722 137.644C136.722 137.131 136.609 136.649 136.383 136.198C136.165 135.747 135.816 135.384 135.338 135.111C134.859 134.831 134.234 134.69 133.461 134.69H129.934V148H127.955V133.07H133.461C134.589 133.07 135.543 133.265 136.322 133.655C137.101 134.044 137.693 134.584 138.096 135.275C138.499 135.958 138.701 136.741 138.701 137.623C138.701 138.58 138.499 139.397 138.096 140.074C137.693 140.75 137.101 141.267 136.322 141.622C135.543 141.971 134.589 142.145 133.461 142.145ZM148.006 145.057C148.006 144.784 147.944 144.531 147.821 144.298C147.705 144.059 147.462 143.844 147.093 143.652C146.731 143.454 146.184 143.283 145.452 143.14C144.837 143.01 144.28 142.856 143.781 142.678C143.289 142.5 142.868 142.285 142.52 142.032C142.178 141.779 141.915 141.482 141.73 141.14C141.546 140.798 141.453 140.398 141.453 139.94C141.453 139.503 141.549 139.089 141.74 138.7C141.939 138.31 142.216 137.965 142.571 137.664C142.933 137.363 143.367 137.127 143.873 136.957C144.379 136.786 144.943 136.7 145.565 136.7C146.454 136.7 147.213 136.857 147.842 137.172C148.47 137.486 148.952 137.907 149.287 138.433C149.622 138.953 149.79 139.53 149.79 140.166H147.893C147.893 139.858 147.801 139.561 147.616 139.274C147.438 138.98 147.175 138.737 146.826 138.546C146.485 138.354 146.064 138.259 145.565 138.259C145.039 138.259 144.612 138.341 144.283 138.505C143.962 138.662 143.726 138.864 143.576 139.11C143.432 139.356 143.361 139.616 143.361 139.889C143.361 140.094 143.395 140.279 143.463 140.443C143.538 140.6 143.668 140.747 143.853 140.884C144.037 141.014 144.297 141.137 144.632 141.253C144.967 141.369 145.394 141.485 145.914 141.602C146.823 141.807 147.572 142.053 148.159 142.34C148.747 142.627 149.185 142.979 149.472 143.396C149.759 143.813 149.903 144.319 149.903 144.914C149.903 145.399 149.8 145.843 149.595 146.247C149.397 146.65 149.106 146.999 148.723 147.292C148.347 147.58 147.896 147.805 147.37 147.969C146.85 148.126 146.266 148.205 145.616 148.205C144.639 148.205 143.812 148.031 143.135 147.682C142.458 147.333 141.946 146.882 141.597 146.329C141.248 145.775 141.074 145.19 141.074 144.575H142.981C143.009 145.095 143.159 145.508 143.432 145.816C143.706 146.117 144.041 146.332 144.437 146.462C144.834 146.585 145.227 146.646 145.616 146.646C146.136 146.646 146.57 146.578 146.919 146.441C147.274 146.305 147.544 146.117 147.729 145.877C147.913 145.638 148.006 145.365 148.006 145.057ZM154.747 145.744V147.272C154.747 147.894 154.59 148.55 154.275 149.241C153.961 149.938 153.52 150.519 152.953 150.984L151.876 150.235C152.095 149.935 152.279 149.627 152.43 149.312C152.58 149.005 152.693 148.684 152.768 148.349C152.85 148.021 152.891 147.672 152.891 147.303V145.744H154.747ZM165.902 133.07V148H163.923V133.07H165.902ZM172.157 139.787V141.407H165.471V139.787H172.157ZM173.172 133.07V134.69H165.471V133.07H173.172ZM182.436 145.437V136.905H184.343V148H182.528L182.436 145.437ZM182.795 143.099L183.584 143.078C183.584 143.816 183.506 144.5 183.348 145.129C183.198 145.751 182.952 146.291 182.61 146.749C182.268 147.207 181.821 147.566 181.267 147.826C180.713 148.079 180.04 148.205 179.247 148.205C178.707 148.205 178.211 148.126 177.76 147.969C177.316 147.812 176.933 147.569 176.612 147.241C176.29 146.913 176.041 146.486 175.863 145.959C175.692 145.433 175.607 144.801 175.607 144.062V136.905H177.504V144.083C177.504 144.582 177.558 144.996 177.668 145.324C177.784 145.645 177.938 145.901 178.129 146.093C178.327 146.277 178.546 146.407 178.785 146.482C179.031 146.558 179.284 146.595 179.544 146.595C180.351 146.595 180.99 146.441 181.462 146.134C181.933 145.819 182.272 145.399 182.477 144.873C182.689 144.339 182.795 143.748 182.795 143.099ZM189.762 139.274V148H187.865V136.905H189.659L189.762 139.274ZM189.31 142.032L188.521 142.001C188.528 141.243 188.64 140.542 188.859 139.899C189.078 139.25 189.386 138.686 189.782 138.208C190.179 137.729 190.65 137.36 191.197 137.1C191.751 136.833 192.363 136.7 193.033 136.7C193.579 136.7 194.072 136.775 194.509 136.926C194.947 137.069 195.319 137.302 195.627 137.623C195.941 137.944 196.181 138.361 196.345 138.874C196.509 139.38 196.591 139.999 196.591 140.73V148H194.683V140.709C194.683 140.128 194.598 139.664 194.427 139.315C194.256 138.959 194.007 138.703 193.679 138.546C193.35 138.382 192.947 138.3 192.469 138.3C191.997 138.3 191.566 138.399 191.177 138.597C190.794 138.795 190.462 139.069 190.182 139.417C189.909 139.766 189.693 140.166 189.536 140.617C189.386 141.062 189.31 141.533 189.31 142.032ZM207.095 145.847V132.25H209.002V148H207.259L207.095 145.847ZM199.63 142.576V142.36C199.63 141.513 199.733 140.744 199.938 140.053C200.15 139.356 200.447 138.758 200.83 138.259C201.22 137.76 201.681 137.377 202.214 137.11C202.754 136.837 203.356 136.7 204.019 136.7C204.716 136.7 205.325 136.823 205.844 137.069C206.371 137.309 206.815 137.661 207.177 138.125C207.546 138.583 207.837 139.137 208.049 139.787C208.261 140.436 208.408 141.171 208.49 141.991V142.935C208.415 143.748 208.268 144.479 208.049 145.129C207.837 145.778 207.546 146.332 207.177 146.79C206.815 147.248 206.371 147.6 205.844 147.846C205.318 148.085 204.703 148.205 203.999 148.205C203.349 148.205 202.754 148.065 202.214 147.785C201.681 147.504 201.22 147.111 200.83 146.605C200.447 146.1 200.15 145.505 199.938 144.821C199.733 144.131 199.63 143.382 199.63 142.576ZM201.538 142.36V142.576C201.538 143.129 201.592 143.649 201.702 144.134C201.818 144.62 201.996 145.047 202.235 145.416C202.474 145.785 202.778 146.076 203.147 146.288C203.517 146.493 203.958 146.595 204.47 146.595C205.099 146.595 205.615 146.462 206.019 146.195C206.429 145.929 206.757 145.577 207.003 145.139C207.249 144.702 207.44 144.227 207.577 143.714V141.243C207.495 140.867 207.375 140.504 207.218 140.156C207.068 139.8 206.87 139.486 206.624 139.212C206.384 138.932 206.087 138.71 205.731 138.546C205.383 138.382 204.969 138.3 204.491 138.3C203.971 138.3 203.523 138.409 203.147 138.628C202.778 138.84 202.474 139.134 202.235 139.51C201.996 139.879 201.818 140.31 201.702 140.802C201.592 141.287 201.538 141.807 201.538 142.36ZM219.046 145.057C219.046 144.784 218.984 144.531 218.861 144.298C218.745 144.059 218.502 143.844 218.133 143.652C217.771 143.454 217.224 143.283 216.492 143.14C215.877 143.01 215.32 142.856 214.821 142.678C214.329 142.5 213.908 142.285 213.56 142.032C213.218 141.779 212.955 141.482 212.77 141.14C212.586 140.798 212.493 140.398 212.493 139.94C212.493 139.503 212.589 139.089 212.78 138.7C212.979 138.31 213.255 137.965 213.611 137.664C213.973 137.363 214.407 137.127 214.913 136.957C215.419 136.786 215.983 136.7 216.605 136.7C217.494 136.7 218.253 136.857 218.881 137.172C219.51 137.486 219.992 137.907 220.327 138.433C220.662 138.953 220.83 139.53 220.83 140.166H218.933C218.933 139.858 218.84 139.561 218.656 139.274C218.478 138.98 218.215 138.737 217.866 138.546C217.525 138.354 217.104 138.259 216.605 138.259C216.079 138.259 215.651 138.341 215.323 138.505C215.002 138.662 214.766 138.864 214.616 139.11C214.472 139.356 214.4 139.616 214.4 139.889C214.4 140.094 214.435 140.279 214.503 140.443C214.578 140.6 214.708 140.747 214.893 140.884C215.077 141.014 215.337 141.137 215.672 141.253C216.007 141.369 216.434 141.485 216.954 141.602C217.863 141.807 218.611 142.053 219.199 142.34C219.787 142.627 220.225 142.979 220.512 143.396C220.799 143.813 220.942 144.319 220.942 144.914C220.942 145.399 220.84 145.843 220.635 146.247C220.437 146.65 220.146 146.999 219.763 147.292C219.387 147.58 218.936 147.805 218.41 147.969C217.89 148.126 217.306 148.205 216.656 148.205C215.679 148.205 214.852 148.031 214.175 147.682C213.498 147.333 212.985 146.882 212.637 146.329C212.288 145.775 212.114 145.19 212.114 144.575H214.021C214.048 145.095 214.199 145.508 214.472 145.816C214.746 146.117 215.081 146.332 215.477 146.462C215.874 146.585 216.267 146.646 216.656 146.646C217.176 146.646 217.61 146.578 217.959 146.441C218.314 146.305 218.584 146.117 218.769 145.877C218.953 145.638 219.046 145.365 219.046 145.057ZM234.548 136.905V138.361H228.55V136.905H234.548ZM230.58 134.208H232.477V145.252C232.477 145.628 232.535 145.912 232.651 146.103C232.767 146.294 232.918 146.421 233.102 146.482C233.287 146.544 233.485 146.575 233.697 146.575C233.854 146.575 234.018 146.561 234.189 146.534C234.367 146.5 234.5 146.472 234.589 146.452L234.599 148C234.449 148.048 234.251 148.092 234.005 148.133C233.765 148.181 233.475 148.205 233.133 148.205C232.668 148.205 232.241 148.113 231.851 147.928C231.462 147.744 231.151 147.436 230.918 147.005C230.693 146.568 230.58 145.98 230.58 145.242V134.208ZM236.696 142.576V142.34C236.696 141.54 236.812 140.798 237.044 140.115C237.277 139.424 237.612 138.826 238.049 138.32C238.487 137.808 239.017 137.411 239.639 137.131C240.261 136.844 240.958 136.7 241.73 136.7C242.51 136.7 243.21 136.844 243.832 137.131C244.461 137.411 244.995 137.808 245.432 138.32C245.876 138.826 246.215 139.424 246.447 140.115C246.68 140.798 246.796 141.54 246.796 142.34V142.576C246.796 143.375 246.68 144.117 246.447 144.801C246.215 145.484 245.876 146.083 245.432 146.595C244.995 147.101 244.465 147.498 243.843 147.785C243.228 148.065 242.53 148.205 241.751 148.205C240.972 148.205 240.271 148.065 239.649 147.785C239.027 147.498 238.494 147.101 238.049 146.595C237.612 146.083 237.277 145.484 237.044 144.801C236.812 144.117 236.696 143.375 236.696 142.576ZM238.593 142.34V142.576C238.593 143.129 238.658 143.652 238.788 144.145C238.917 144.63 239.112 145.061 239.372 145.437C239.639 145.812 239.97 146.11 240.367 146.329C240.763 146.541 241.225 146.646 241.751 146.646C242.27 146.646 242.725 146.541 243.115 146.329C243.511 146.11 243.839 145.812 244.099 145.437C244.359 145.061 244.554 144.63 244.684 144.145C244.82 143.652 244.889 143.129 244.889 142.576V142.34C244.889 141.793 244.82 141.277 244.684 140.792C244.554 140.299 244.355 139.865 244.089 139.489C243.829 139.106 243.501 138.806 243.104 138.587C242.715 138.368 242.257 138.259 241.73 138.259C241.211 138.259 240.753 138.368 240.356 138.587C239.967 138.806 239.639 139.106 239.372 139.489C239.112 139.865 238.917 140.299 238.788 140.792C238.658 141.277 238.593 141.793 238.593 142.34ZM69.2679 159.905V171H67.3607V159.905H69.2679ZM67.2171 156.962C67.2171 156.655 67.3094 156.395 67.494 156.183C67.6854 155.971 67.9657 155.865 68.3348 155.865C68.6971 155.865 68.974 155.971 69.1654 156.183C69.3636 156.395 69.4628 156.655 69.4628 156.962C69.4628 157.256 69.3636 157.509 69.1654 157.721C68.974 157.926 68.6971 158.029 68.3348 158.029C67.9657 158.029 67.6854 157.926 67.494 157.721C67.3094 157.509 67.2171 157.256 67.2171 156.962ZM74.8403 162.274V171H72.9433V159.905H74.7378L74.8403 162.274ZM74.3891 165.032L73.5996 165.001C73.6064 164.243 73.7192 163.542 73.938 162.899C74.1567 162.25 74.4643 161.686 74.8608 161.208C75.2573 160.729 75.729 160.36 76.2759 160.1C76.8296 159.833 77.4414 159.7 78.1113 159.7C78.6582 159.7 79.1504 159.775 79.5879 159.926C80.0254 160.069 80.3979 160.302 80.7055 160.623C81.02 160.944 81.2593 161.361 81.4233 161.874C81.5874 162.38 81.6694 162.999 81.6694 163.73V171H79.7622V163.709C79.7622 163.128 79.6767 162.664 79.5058 162.315C79.3349 161.959 79.0854 161.703 78.7573 161.546C78.4292 161.382 78.0259 161.3 77.5473 161.3C77.0757 161.3 76.645 161.399 76.2554 161.597C75.8725 161.795 75.541 162.069 75.2607 162.417C74.9873 162.766 74.772 163.166 74.6147 163.617C74.4643 164.062 74.3891 164.533 74.3891 165.032ZM88.5543 169.288L91.5895 159.905H93.5274L89.5387 171H88.2672L88.5543 169.288ZM86.0216 159.905L89.149 169.339L89.3644 171H88.0929L84.0733 159.905H86.0216ZM100.443 171.205C99.6706 171.205 98.9699 171.075 98.341 170.815C97.719 170.549 97.1823 170.176 96.7312 169.698C96.2868 169.219 95.945 168.652 95.7058 167.996C95.4665 167.339 95.3469 166.622 95.3469 165.842V165.412C95.3469 164.509 95.4802 163.706 95.7468 163.002C96.0134 162.291 96.3757 161.689 96.8337 161.197C97.2917 160.705 97.8112 160.333 98.3923 160.08C98.9734 159.827 99.5749 159.7 100.197 159.7C100.99 159.7 101.674 159.837 102.248 160.11C102.829 160.384 103.304 160.767 103.673 161.259C104.042 161.744 104.316 162.318 104.493 162.981C104.671 163.638 104.76 164.355 104.76 165.135V165.986H96.4748V164.438H102.863V164.294C102.836 163.802 102.733 163.323 102.555 162.858C102.384 162.394 102.111 162.011 101.735 161.71C101.359 161.409 100.846 161.259 100.197 161.259C99.7663 161.259 99.3698 161.351 99.0075 161.536C98.6452 161.713 98.3342 161.98 98.0744 162.335C97.8147 162.691 97.613 163.125 97.4695 163.638C97.3259 164.15 97.2541 164.742 97.2541 165.412V165.842C97.2541 166.369 97.3259 166.864 97.4695 167.329C97.6198 167.787 97.8352 168.19 98.1154 168.539C98.4026 168.888 98.7478 169.161 99.1511 169.359C99.5612 169.558 100.026 169.657 100.546 169.657C101.216 169.657 101.783 169.52 102.248 169.247C102.713 168.973 103.119 168.607 103.468 168.149L104.616 169.062C104.377 169.424 104.073 169.77 103.704 170.098C103.335 170.426 102.88 170.692 102.34 170.897C101.807 171.103 101.175 171.205 100.443 171.205ZM114.065 168.057C114.065 167.784 114.003 167.531 113.88 167.298C113.764 167.059 113.521 166.844 113.152 166.652C112.79 166.454 112.243 166.283 111.512 166.14C110.896 166.01 110.339 165.856 109.84 165.678C109.348 165.5 108.928 165.285 108.579 165.032C108.237 164.779 107.974 164.482 107.789 164.14C107.605 163.798 107.513 163.398 107.513 162.94C107.513 162.503 107.608 162.089 107.8 161.7C107.998 161.31 108.275 160.965 108.63 160.664C108.993 160.363 109.427 160.127 109.932 159.957C110.438 159.786 111.002 159.7 111.624 159.7C112.513 159.7 113.272 159.857 113.901 160.172C114.53 160.486 115.012 160.907 115.347 161.433C115.681 161.953 115.849 162.53 115.849 163.166H113.952C113.952 162.858 113.86 162.561 113.675 162.274C113.497 161.98 113.234 161.737 112.886 161.546C112.544 161.354 112.123 161.259 111.624 161.259C111.098 161.259 110.671 161.341 110.343 161.505C110.021 161.662 109.785 161.864 109.635 162.11C109.492 162.356 109.42 162.616 109.42 162.889C109.42 163.094 109.454 163.279 109.522 163.443C109.598 163.6 109.727 163.747 109.912 163.884C110.097 164.014 110.356 164.137 110.691 164.253C111.026 164.369 111.453 164.485 111.973 164.602C112.882 164.807 113.631 165.053 114.219 165.34C114.806 165.627 115.244 165.979 115.531 166.396C115.818 166.813 115.962 167.319 115.962 167.914C115.962 168.399 115.859 168.843 115.654 169.247C115.456 169.65 115.165 169.999 114.783 170.292C114.407 170.58 113.955 170.805 113.429 170.969C112.91 171.126 112.325 171.205 111.676 171.205C110.698 171.205 109.871 171.031 109.194 170.682C108.517 170.333 108.005 169.882 107.656 169.329C107.307 168.775 107.133 168.19 107.133 167.575H109.04C109.068 168.095 109.218 168.508 109.492 168.816C109.765 169.117 110.1 169.332 110.496 169.462C110.893 169.585 111.286 169.646 111.676 169.646C112.195 169.646 112.629 169.578 112.978 169.441C113.333 169.305 113.603 169.117 113.788 168.877C113.973 168.638 114.065 168.365 114.065 168.057ZM123.728 159.905V161.361H117.73V159.905H123.728ZM119.76 157.208H121.657V168.252C121.657 168.628 121.715 168.912 121.832 169.103C121.948 169.294 122.098 169.421 122.283 169.482C122.467 169.544 122.665 169.575 122.877 169.575C123.035 169.575 123.199 169.561 123.37 169.534C123.547 169.5 123.681 169.472 123.769 169.452L123.78 171C123.629 171.048 123.431 171.092 123.185 171.133C122.946 171.181 122.655 171.205 122.313 171.205C121.849 171.205 121.421 171.113 121.032 170.928C120.642 170.744 120.331 170.436 120.099 170.005C119.873 169.568 119.76 168.98 119.76 168.242V157.208ZM134.484 159.905V171H132.576V159.905H134.484ZM132.433 156.962C132.433 156.655 132.525 156.395 132.71 156.183C132.901 155.971 133.181 155.865 133.55 155.865C133.913 155.865 134.19 155.971 134.381 156.183C134.579 156.395 134.678 156.655 134.678 156.962C134.678 157.256 134.579 157.509 134.381 157.721C134.19 157.926 133.913 158.029 133.55 158.029C133.181 158.029 132.901 157.926 132.71 157.721C132.525 157.509 132.433 157.256 132.433 156.962ZM140.056 162.274V171H138.159V159.905H139.953L140.056 162.274ZM139.605 165.032L138.815 165.001C138.822 164.243 138.935 163.542 139.154 162.899C139.372 162.25 139.68 161.686 140.076 161.208C140.473 160.729 140.945 160.36 141.492 160.1C142.045 159.833 142.657 159.7 143.327 159.7C143.874 159.7 144.366 159.775 144.804 159.926C145.241 160.069 145.614 160.302 145.921 160.623C146.236 160.944 146.475 161.361 146.639 161.874C146.803 162.38 146.885 162.999 146.885 163.73V171H144.978V163.709C144.978 163.128 144.892 162.664 144.722 162.315C144.551 161.959 144.301 161.703 143.973 161.546C143.645 161.382 143.242 161.3 142.763 161.3C142.291 161.3 141.861 161.399 141.471 161.597C141.088 161.795 140.757 162.069 140.476 162.417C140.203 162.766 139.988 163.166 139.83 163.617C139.68 164.062 139.605 164.533 139.605 165.032ZM159.609 169.288L162.644 159.905H164.582L160.593 171H159.322L159.609 169.288ZM157.076 159.905L160.204 169.339L160.419 171H159.148L155.128 159.905H157.076ZM173.415 169.103V163.392C173.415 162.954 173.326 162.575 173.149 162.253C172.978 161.925 172.718 161.672 172.369 161.495C172.021 161.317 171.59 161.228 171.077 161.228C170.599 161.228 170.178 161.31 169.816 161.474C169.461 161.638 169.18 161.854 168.975 162.12C168.777 162.387 168.678 162.674 168.678 162.981H166.781C166.781 162.585 166.883 162.192 167.089 161.802C167.294 161.413 167.588 161.061 167.97 160.746C168.36 160.425 168.825 160.172 169.365 159.987C169.912 159.796 170.52 159.7 171.19 159.7C171.997 159.7 172.708 159.837 173.323 160.11C173.945 160.384 174.43 160.797 174.779 161.351C175.134 161.898 175.312 162.585 175.312 163.412V168.58C175.312 168.949 175.343 169.342 175.404 169.759C175.473 170.176 175.572 170.535 175.702 170.836V171H173.723C173.627 170.781 173.552 170.491 173.497 170.128C173.443 169.759 173.415 169.417 173.415 169.103ZM173.743 164.273L173.764 165.606H171.846C171.306 165.606 170.824 165.651 170.401 165.74C169.977 165.822 169.621 165.948 169.334 166.119C169.047 166.29 168.828 166.505 168.678 166.765C168.528 167.018 168.452 167.315 168.452 167.657C168.452 168.006 168.531 168.324 168.688 168.611C168.845 168.898 169.081 169.127 169.396 169.298C169.717 169.462 170.11 169.544 170.575 169.544C171.156 169.544 171.669 169.421 172.113 169.175C172.557 168.929 172.909 168.628 173.169 168.272C173.436 167.917 173.579 167.572 173.6 167.237L174.41 168.149C174.362 168.437 174.232 168.754 174.02 169.103C173.808 169.452 173.525 169.787 173.169 170.108C172.82 170.422 172.404 170.686 171.918 170.897C171.44 171.103 170.9 171.205 170.298 171.205C169.546 171.205 168.886 171.058 168.319 170.764C167.758 170.47 167.321 170.077 167.007 169.585C166.699 169.086 166.545 168.529 166.545 167.914C166.545 167.319 166.661 166.796 166.894 166.345C167.126 165.887 167.461 165.507 167.899 165.207C168.336 164.899 168.862 164.667 169.478 164.509C170.093 164.352 170.78 164.273 171.539 164.273H173.743ZM180.987 155.25V171H179.08V155.25H180.987ZM186.724 159.905V171H184.816V159.905H186.724ZM184.673 156.962C184.673 156.655 184.765 156.395 184.95 156.183C185.141 155.971 185.421 155.865 185.79 155.865C186.153 155.865 186.43 155.971 186.621 156.183C186.819 156.395 186.918 156.655 186.918 156.962C186.918 157.256 186.819 157.509 186.621 157.721C186.43 157.926 186.153 158.029 185.79 158.029C185.421 158.029 185.141 157.926 184.95 157.721C184.765 157.509 184.673 157.256 184.673 156.962ZM197.392 168.847V155.25H199.299V171H197.556L197.392 168.847ZM189.927 165.576V165.36C189.927 164.513 190.03 163.744 190.235 163.053C190.447 162.356 190.744 161.758 191.127 161.259C191.517 160.76 191.978 160.377 192.511 160.11C193.051 159.837 193.653 159.7 194.316 159.7C195.013 159.7 195.622 159.823 196.141 160.069C196.668 160.309 197.112 160.661 197.474 161.125C197.843 161.583 198.134 162.137 198.346 162.787C198.558 163.436 198.705 164.171 198.787 164.991V165.935C198.711 166.748 198.564 167.479 198.346 168.129C198.134 168.778 197.843 169.332 197.474 169.79C197.112 170.248 196.668 170.6 196.141 170.846C195.615 171.085 195 171.205 194.295 171.205C193.646 171.205 193.051 171.065 192.511 170.785C191.978 170.504 191.517 170.111 191.127 169.605C190.744 169.1 190.447 168.505 190.235 167.821C190.03 167.131 189.927 166.382 189.927 165.576ZM191.835 165.36V165.576C191.835 166.129 191.889 166.649 191.999 167.134C192.115 167.62 192.293 168.047 192.532 168.416C192.771 168.785 193.075 169.076 193.444 169.288C193.814 169.493 194.254 169.595 194.767 169.595C195.396 169.595 195.912 169.462 196.315 169.195C196.726 168.929 197.054 168.577 197.3 168.139C197.546 167.702 197.737 167.227 197.874 166.714V164.243C197.792 163.867 197.672 163.504 197.515 163.156C197.365 162.8 197.167 162.486 196.92 162.212C196.681 161.932 196.384 161.71 196.028 161.546C195.68 161.382 195.266 161.3 194.788 161.3C194.268 161.3 193.82 161.409 193.444 161.628C193.075 161.84 192.771 162.134 192.532 162.51C192.293 162.879 192.115 163.31 191.999 163.802C191.889 164.287 191.835 164.807 191.835 165.36ZM209.424 169.103V163.392C209.424 162.954 209.336 162.575 209.158 162.253C208.987 161.925 208.727 161.672 208.379 161.495C208.03 161.317 207.599 161.228 207.087 161.228C206.608 161.228 206.188 161.31 205.825 161.474C205.47 161.638 205.19 161.854 204.985 162.12C204.786 162.387 204.687 162.674 204.687 162.981H202.79C202.79 162.585 202.893 162.192 203.098 161.802C203.303 161.413 203.597 161.061 203.98 160.746C204.369 160.425 204.834 160.172 205.374 159.987C205.921 159.796 206.529 159.7 207.199 159.7C208.006 159.7 208.717 159.837 209.332 160.11C209.954 160.384 210.44 160.797 210.788 161.351C211.144 161.898 211.321 162.585 211.321 163.412V168.58C211.321 168.949 211.352 169.342 211.414 169.759C211.482 170.176 211.581 170.535 211.711 170.836V171H209.732C209.636 170.781 209.561 170.491 209.507 170.128C209.452 169.759 209.424 169.417 209.424 169.103ZM209.753 164.273L209.773 165.606H207.856C207.316 165.606 206.834 165.651 206.41 165.74C205.986 165.822 205.631 165.948 205.343 166.119C205.056 166.29 204.838 166.505 204.687 166.765C204.537 167.018 204.462 167.315 204.462 167.657C204.462 168.006 204.54 168.324 204.697 168.611C204.855 168.898 205.09 169.127 205.405 169.298C205.726 169.462 206.119 169.544 206.584 169.544C207.165 169.544 207.678 169.421 208.122 169.175C208.567 168.929 208.919 168.628 209.178 168.272C209.445 167.917 209.589 167.572 209.609 167.237L210.419 168.149C210.371 168.437 210.241 168.754 210.029 169.103C209.818 169.452 209.534 169.787 209.178 170.108C208.83 170.422 208.413 170.686 207.927 170.897C207.449 171.103 206.909 171.205 206.307 171.205C205.555 171.205 204.896 171.058 204.328 170.764C203.768 170.47 203.33 170.077 203.016 169.585C202.708 169.086 202.554 168.529 202.554 167.914C202.554 167.319 202.671 166.796 202.903 166.345C203.135 165.887 203.47 165.507 203.908 165.207C204.345 164.899 204.872 164.667 205.487 164.509C206.102 164.352 206.789 164.273 207.548 164.273H209.753ZM219.58 159.905V161.361H213.582V159.905H219.58ZM215.612 157.208H217.509V168.252C217.509 168.628 217.567 168.912 217.683 169.103C217.8 169.294 217.95 169.421 218.135 169.482C218.319 169.544 218.517 169.575 218.729 169.575C218.887 169.575 219.051 169.561 219.221 169.534C219.399 169.5 219.533 169.472 219.621 169.452L219.632 171C219.481 171.048 219.283 171.092 219.037 171.133C218.798 171.181 218.507 171.205 218.165 171.205C217.7 171.205 217.273 171.113 216.884 170.928C216.494 170.744 216.183 170.436 215.95 170.005C215.725 169.568 215.612 168.98 215.612 168.242V157.208ZM227.039 171.205C226.267 171.205 225.566 171.075 224.937 170.815C224.315 170.549 223.779 170.176 223.328 169.698C222.883 169.219 222.541 168.652 222.302 167.996C222.063 167.339 221.943 166.622 221.943 165.842V165.412C221.943 164.509 222.077 163.706 222.343 163.002C222.61 162.291 222.972 161.689 223.43 161.197C223.888 160.705 224.408 160.333 224.989 160.08C225.57 159.827 226.171 159.7 226.793 159.7C227.586 159.7 228.27 159.837 228.844 160.11C229.425 160.384 229.9 160.767 230.269 161.259C230.639 161.744 230.912 162.318 231.09 162.981C231.267 163.638 231.356 164.355 231.356 165.135V165.986H223.071V164.438H229.459V164.294C229.432 163.802 229.329 163.323 229.152 162.858C228.981 162.394 228.707 162.011 228.331 161.71C227.955 161.409 227.443 161.259 226.793 161.259C226.363 161.259 225.966 161.351 225.604 161.536C225.242 161.713 224.931 161.98 224.671 162.335C224.411 162.691 224.209 163.125 224.066 163.638C223.922 164.15 223.85 164.742 223.85 165.412V165.842C223.85 166.369 223.922 166.864 224.066 167.329C224.216 167.787 224.432 168.19 224.712 168.539C224.999 168.888 225.344 169.161 225.747 169.359C226.158 169.558 226.622 169.657 227.142 169.657C227.812 169.657 228.379 169.52 228.844 169.247C229.309 168.973 229.716 168.607 230.064 168.149L231.213 169.062C230.974 169.424 230.669 169.77 230.3 170.098C229.931 170.426 229.476 170.692 228.936 170.897C228.403 171.103 227.771 171.205 227.039 171.205ZM241.194 168.847V155.25H243.102V171H241.358L241.194 168.847ZM233.73 165.576V165.36C233.73 164.513 233.832 163.744 234.037 163.053C234.249 162.356 234.546 161.758 234.929 161.259C235.319 160.76 235.78 160.377 236.313 160.11C236.854 159.837 237.455 159.7 238.118 159.7C238.815 159.7 239.424 159.823 239.943 160.069C240.47 160.309 240.914 160.661 241.276 161.125C241.646 161.583 241.936 162.137 242.148 162.787C242.36 163.436 242.507 164.171 242.589 164.991V165.935C242.514 166.748 242.367 167.479 242.148 168.129C241.936 168.778 241.646 169.332 241.276 169.79C240.914 170.248 240.47 170.6 239.943 170.846C239.417 171.085 238.802 171.205 238.098 171.205C237.448 171.205 236.854 171.065 236.313 170.785C235.78 170.504 235.319 170.111 234.929 169.605C234.546 169.1 234.249 168.505 234.037 167.821C233.832 167.131 233.73 166.382 233.73 165.576ZM235.637 165.36V165.576C235.637 166.129 235.691 166.649 235.801 167.134C235.917 167.62 236.095 168.047 236.334 168.416C236.573 168.785 236.877 169.076 237.247 169.288C237.616 169.493 238.057 169.595 238.569 169.595C239.198 169.595 239.714 169.462 240.118 169.195C240.528 168.929 240.856 168.577 241.102 168.139C241.348 167.702 241.54 167.227 241.676 166.714V164.243C241.594 163.867 241.475 163.504 241.317 163.156C241.167 162.8 240.969 162.486 240.723 162.212C240.483 161.932 240.186 161.71 239.831 161.546C239.482 161.382 239.068 161.3 238.59 161.3C238.07 161.3 237.623 161.409 237.247 161.628C236.877 161.84 236.573 162.134 236.334 162.51C236.095 162.879 235.917 163.31 235.801 163.802C235.691 164.287 235.637 164.807 235.637 165.36ZM54.5035 191.057C54.5035 190.784 54.442 190.531 54.319 190.298C54.2028 190.059 53.9601 189.844 53.5909 189.652C53.2286 189.454 52.6818 189.283 51.9503 189.14C51.3351 189.01 50.7779 188.856 50.2789 188.678C49.7867 188.5 49.3663 188.285 49.0177 188.032C48.6759 187.779 48.4127 187.482 48.2281 187.14C48.0436 186.798 47.9513 186.398 47.9513 185.94C47.9513 185.503 48.047 185.089 48.2384 184.7C48.4366 184.31 48.7135 183.965 49.069 183.664C49.4313 183.363 49.8653 183.127 50.3712 182.957C50.8771 182.786 51.441 182.7 52.0631 182.7C52.9518 182.7 53.7106 182.857 54.3395 183.172C54.9684 183.486 55.4503 183.907 55.7853 184.433C56.1202 184.953 56.2877 185.53 56.2877 186.166H54.3907C54.3907 185.858 54.2985 185.561 54.1139 185.274C53.9361 184.98 53.673 184.737 53.3243 184.546C52.9825 184.354 52.5621 184.259 52.0631 184.259C51.5367 184.259 51.1095 184.341 50.7814 184.505C50.4601 184.662 50.2242 184.864 50.0738 185.11C49.9303 185.356 49.8585 185.616 49.8585 185.889C49.8585 186.094 49.8927 186.279 49.9611 186.443C50.0362 186.6 50.1661 186.747 50.3507 186.884C50.5353 187.014 50.795 187.137 51.13 187.253C51.465 187.369 51.8922 187.485 52.4117 187.602C53.3209 187.807 54.0695 188.053 54.6573 188.34C55.2452 188.627 55.6827 188.979 55.9698 189.396C56.257 189.813 56.4005 190.319 56.4005 190.914C56.4005 191.399 56.298 191.843 56.0929 192.247C55.8946 192.65 55.6041 192.999 55.2213 193.292C54.8453 193.58 54.3942 193.805 53.8678 193.969C53.3483 194.126 52.7638 194.205 52.1144 194.205C51.1368 194.205 50.3097 194.031 49.6329 193.682C48.9562 193.333 48.4435 192.882 48.0948 192.329C47.7462 191.775 47.5719 191.19 47.5719 190.575H49.4791C49.5065 191.095 49.6569 191.508 49.9303 191.816C50.2037 192.117 50.5387 192.332 50.9352 192.462C51.3317 192.585 51.7247 192.646 52.1144 192.646C52.6339 192.646 53.068 192.578 53.4166 192.441C53.7721 192.305 54.0421 192.117 54.2267 191.877C54.4112 191.638 54.5035 191.365 54.5035 191.057ZM64.1672 182.905V184.361H58.1687V182.905H64.1672ZM60.199 180.208H62.0959V191.252C62.0959 191.628 62.154 191.912 62.2703 192.103C62.3865 192.294 62.5369 192.421 62.7214 192.482C62.906 192.544 63.1042 192.575 63.3162 192.575C63.4734 192.575 63.6374 192.561 63.8083 192.534C63.9861 192.5 64.1194 192.472 64.2082 192.452L64.2185 194C64.0681 194.048 63.8699 194.092 63.6238 194.133C63.3845 194.181 63.094 194.205 62.7522 194.205C62.2873 194.205 61.8601 194.113 61.4704 193.928C61.0808 193.744 60.7698 193.436 60.5373 193.005C60.3118 192.568 60.199 191.98 60.199 191.242V180.208ZM73.5643 192.103V186.392C73.5643 185.954 73.4754 185.575 73.2977 185.253C73.1268 184.925 72.867 184.672 72.5184 184.495C72.1698 184.317 71.7391 184.228 71.2264 184.228C70.7479 184.228 70.3275 184.31 69.9652 184.474C69.6097 184.638 69.3295 184.854 69.1244 185.12C68.9261 185.387 68.827 185.674 68.827 185.981H66.93C66.93 185.585 67.0326 185.192 67.2377 184.802C67.4427 184.413 67.7367 184.061 68.1195 183.746C68.5091 183.425 68.974 183.172 69.514 182.987C70.0609 182.796 70.6693 182.7 71.3392 182.7C72.1459 182.7 72.8568 182.837 73.472 183.11C74.0941 183.384 74.5795 183.797 74.9281 184.351C75.2836 184.898 75.4613 185.585 75.4613 186.412V191.58C75.4613 191.949 75.492 192.342 75.5536 192.759C75.6219 193.176 75.7211 193.535 75.8509 193.836V194H73.8719C73.7762 193.781 73.701 193.491 73.6463 193.128C73.5917 192.759 73.5643 192.417 73.5643 192.103ZM73.8924 187.273L73.9129 188.606H71.9955C71.4554 188.606 70.9735 188.651 70.5497 188.74C70.1258 188.822 69.7704 188.948 69.4833 189.119C69.1961 189.29 68.9774 189.505 68.827 189.765C68.6766 190.018 68.6014 190.315 68.6014 190.657C68.6014 191.006 68.68 191.324 68.8373 191.611C68.9945 191.898 69.2303 192.127 69.5448 192.298C69.8661 192.462 70.2591 192.544 70.724 192.544C71.305 192.544 71.8177 192.421 72.2621 192.175C72.7064 191.929 73.0585 191.628 73.3182 191.272C73.5848 190.917 73.7284 190.572 73.7489 190.237L74.5589 191.149C74.5111 191.437 74.3812 191.754 74.1693 192.103C73.9574 192.452 73.6737 192.787 73.3182 193.108C72.9696 193.422 72.5526 193.686 72.0672 193.897C71.5887 194.103 71.0487 194.205 70.4471 194.205C69.6952 194.205 69.0355 194.058 68.4681 193.764C67.9076 193.47 67.4701 193.077 67.1556 192.585C66.848 192.086 66.6942 191.529 66.6942 190.914C66.6942 190.319 66.8104 189.796 67.0428 189.345C67.2753 188.887 67.6102 188.507 68.0477 188.207C68.4852 187.899 69.0116 187.667 69.6268 187.509C70.242 187.352 70.9291 187.273 71.6878 187.273H73.8924ZM80.9721 184.648V194H79.0752V182.905H80.9209L80.9721 184.648ZM84.438 182.844L84.4277 184.607C84.2705 184.573 84.1201 184.553 83.9765 184.546C83.8398 184.532 83.6826 184.525 83.5049 184.525C83.0674 184.525 82.6811 184.594 82.3462 184.73C82.0112 184.867 81.7275 185.059 81.4951 185.305C81.2627 185.551 81.0781 185.845 80.9414 186.187C80.8115 186.521 80.7261 186.891 80.685 187.294L80.1518 187.602C80.1518 186.932 80.2168 186.303 80.3467 185.715C80.4834 185.127 80.6919 184.607 80.9721 184.156C81.2524 183.698 81.6079 183.343 82.0386 183.09C82.4761 182.83 82.9956 182.7 83.5971 182.7C83.7339 182.7 83.8911 182.717 84.0688 182.751C84.2466 182.779 84.3696 182.81 84.438 182.844ZM91.9791 182.905V184.361H85.9806V182.905H91.9791ZM88.0108 180.208H89.9078V191.252C89.9078 191.628 89.9659 191.912 90.0821 192.103C90.1983 192.294 90.3487 192.421 90.5333 192.482C90.7179 192.544 90.9161 192.575 91.128 192.575C91.2853 192.575 91.4493 192.561 91.6202 192.534C91.7979 192.5 91.9312 192.472 92.0201 192.452L92.0304 194C91.88 194.048 91.6817 194.092 91.4356 194.133C91.1964 194.181 90.9059 194.205 90.5641 194.205C90.0992 194.205 89.672 194.113 89.2823 193.928C88.8927 193.744 88.5816 193.436 88.3492 193.005C88.1236 192.568 88.0108 191.98 88.0108 191.242V180.208ZM101.622 191.437V182.905H103.53V194H101.715L101.622 191.437ZM101.981 189.099L102.771 189.078C102.771 189.816 102.692 190.5 102.535 191.129C102.384 191.751 102.138 192.291 101.797 192.749C101.455 193.207 101.007 193.566 100.453 193.826C99.8996 194.079 99.2263 194.205 98.4333 194.205C97.8933 194.205 97.3977 194.126 96.9465 193.969C96.5022 193.812 96.1194 193.569 95.7981 193.241C95.4768 192.913 95.2273 192.486 95.0495 191.959C94.8786 191.433 94.7932 190.801 94.7932 190.062V182.905H96.6902V190.083C96.6902 190.582 96.7448 190.996 96.8542 191.324C96.9704 191.645 97.1242 191.901 97.3156 192.093C97.5139 192.277 97.7326 192.407 97.9719 192.482C98.218 192.558 98.4709 192.595 98.7307 192.595C99.5373 192.595 100.176 192.441 100.648 192.134C101.12 191.819 101.458 191.399 101.663 190.873C101.875 190.339 101.981 189.748 101.981 189.099ZM108.948 185.038V198.266H107.041V182.905H108.784L108.948 185.038ZM116.423 188.36V188.576C116.423 189.382 116.327 190.131 116.136 190.821C115.945 191.505 115.664 192.1 115.295 192.605C114.933 193.111 114.485 193.504 113.952 193.785C113.419 194.065 112.807 194.205 112.117 194.205C111.412 194.205 110.79 194.089 110.25 193.856C109.71 193.624 109.252 193.286 108.876 192.841C108.5 192.397 108.2 191.864 107.974 191.242C107.755 190.62 107.605 189.919 107.523 189.14V187.991C107.605 187.171 107.759 186.436 107.984 185.787C108.21 185.137 108.507 184.583 108.876 184.125C109.252 183.661 109.707 183.309 110.24 183.069C110.773 182.823 111.389 182.7 112.086 182.7C112.783 182.7 113.402 182.837 113.942 183.11C114.482 183.377 114.936 183.76 115.306 184.259C115.675 184.758 115.951 185.356 116.136 186.053C116.327 186.744 116.423 187.513 116.423 188.36ZM114.516 188.576V188.36C114.516 187.807 114.458 187.287 114.342 186.802C114.225 186.31 114.044 185.879 113.798 185.51C113.559 185.134 113.251 184.84 112.875 184.628C112.499 184.409 112.052 184.3 111.532 184.3C111.054 184.3 110.637 184.382 110.281 184.546C109.932 184.71 109.635 184.932 109.389 185.212C109.143 185.486 108.941 185.8 108.784 186.156C108.634 186.504 108.521 186.867 108.446 187.243V189.898C108.582 190.377 108.774 190.828 109.02 191.252C109.266 191.669 109.594 192.007 110.004 192.267C110.414 192.52 110.931 192.646 111.553 192.646C112.065 192.646 112.506 192.541 112.875 192.329C113.251 192.11 113.559 191.812 113.798 191.437C114.044 191.061 114.225 190.63 114.342 190.145C114.458 189.652 114.516 189.129 114.516 188.576ZM125.933 191.057C125.933 190.784 125.872 190.531 125.748 190.298C125.632 190.059 125.39 189.844 125.02 189.652C124.658 189.454 124.111 189.283 123.38 189.14C122.765 189.01 122.207 188.856 121.708 188.678C121.216 188.5 120.796 188.285 120.447 188.032C120.105 187.779 119.842 187.482 119.658 187.14C119.473 186.798 119.381 186.398 119.381 185.94C119.381 185.503 119.477 185.089 119.668 184.7C119.866 184.31 120.143 183.965 120.498 183.664C120.861 183.363 121.295 183.127 121.801 182.957C122.307 182.786 122.871 182.7 123.493 182.7C124.381 182.7 125.14 182.857 125.769 183.172C126.398 183.486 126.88 183.907 127.215 184.433C127.55 184.953 127.717 185.53 127.717 186.166H125.82C125.82 185.858 125.728 185.561 125.543 185.274C125.366 184.98 125.103 184.737 124.754 184.546C124.412 184.354 123.992 184.259 123.493 184.259C122.966 184.259 122.539 184.341 122.211 184.505C121.89 184.662 121.654 184.864 121.503 185.11C121.36 185.356 121.288 185.616 121.288 185.889C121.288 186.094 121.322 186.279 121.391 186.443C121.466 186.6 121.596 186.747 121.78 186.884C121.965 187.014 122.225 187.137 122.56 187.253C122.894 187.369 123.322 187.485 123.841 187.602C124.75 187.807 125.499 188.053 126.087 188.34C126.675 188.627 127.112 188.979 127.399 189.396C127.686 189.813 127.83 190.319 127.83 190.914C127.83 191.399 127.728 191.843 127.522 192.247C127.324 192.65 127.034 192.999 126.651 193.292C126.275 193.58 125.824 193.805 125.297 193.969C124.778 194.126 124.193 194.205 123.544 194.205C122.566 194.205 121.739 194.031 121.062 193.682C120.386 193.333 119.873 192.882 119.524 192.329C119.176 191.775 119.001 191.19 119.001 190.575H120.909C120.936 191.095 121.086 191.508 121.36 191.816C121.633 192.117 121.968 192.332 122.365 192.462C122.761 192.585 123.154 192.646 123.544 192.646C124.063 192.646 124.498 192.578 124.846 192.441C125.202 192.305 125.472 192.117 125.656 191.877C125.841 191.638 125.933 191.365 125.933 191.057ZM139.6 192.031L142.451 182.905H143.702L143.456 184.72L140.554 194H139.334L139.6 192.031ZM137.683 182.905L140.113 192.134L140.287 194H139.006L135.786 182.905H137.683ZM146.429 192.062L148.747 182.905H150.633L147.414 194H146.142L146.429 192.062ZM143.979 182.905L146.768 191.877L147.086 194H145.876L142.892 184.7L142.646 182.905H143.979ZM155.273 182.905V194H153.366V182.905H155.273ZM153.222 179.962C153.222 179.655 153.314 179.395 153.499 179.183C153.69 178.971 153.971 178.865 154.34 178.865C154.702 178.865 154.979 178.971 155.17 179.183C155.368 179.395 155.468 179.655 155.468 179.962C155.468 180.256 155.368 180.509 155.17 180.721C154.979 180.926 154.702 181.029 154.34 181.029C153.971 181.029 153.69 180.926 153.499 180.721C153.314 180.509 153.222 180.256 153.222 179.962ZM163.593 182.905V184.361H157.595V182.905H163.593ZM159.625 180.208H161.522V191.252C161.522 191.628 161.58 191.912 161.696 192.103C161.812 192.294 161.963 192.421 162.147 192.482C162.332 192.544 162.53 192.575 162.742 192.575C162.899 192.575 163.063 192.561 163.234 192.534C163.412 192.5 163.545 192.472 163.634 192.452L163.644 194C163.494 194.048 163.296 194.092 163.05 194.133C162.81 194.181 162.52 194.205 162.178 194.205C161.713 194.205 161.286 194.113 160.896 193.928C160.507 193.744 160.196 193.436 159.963 193.005C159.738 192.568 159.625 191.98 159.625 191.242V180.208ZM168.345 178.25V194H166.448V178.25H168.345ZM167.894 188.032L167.105 188.001C167.111 187.243 167.224 186.542 167.443 185.899C167.662 185.25 167.969 184.686 168.366 184.208C168.762 183.729 169.234 183.36 169.781 183.1C170.335 182.833 170.946 182.7 171.616 182.7C172.163 182.7 172.655 182.775 173.093 182.926C173.53 183.069 173.903 183.302 174.211 183.623C174.525 183.944 174.764 184.361 174.928 184.874C175.092 185.38 175.174 185.999 175.174 186.73V194H173.267V186.709C173.267 186.128 173.182 185.664 173.011 185.315C172.84 184.959 172.59 184.703 172.262 184.546C171.934 184.382 171.531 184.3 171.052 184.3C170.581 184.3 170.15 184.399 169.76 184.597C169.378 184.795 169.046 185.069 168.766 185.417C168.492 185.766 168.277 186.166 168.12 186.617C167.969 187.062 167.894 187.533 167.894 188.032ZM189.129 182.905V184.361H183.13V182.905H189.129ZM185.16 180.208H187.057V191.252C187.057 191.628 187.116 191.912 187.232 192.103C187.348 192.294 187.498 192.421 187.683 192.482C187.867 192.544 188.066 192.575 188.278 192.575C188.435 192.575 188.599 192.561 188.77 192.534C188.948 192.5 189.081 192.472 189.17 192.452L189.18 194C189.03 194.048 188.831 194.092 188.585 194.133C188.346 194.181 188.055 194.205 187.714 194.205C187.249 194.205 186.822 194.113 186.432 193.928C186.042 193.744 185.731 193.436 185.499 193.005C185.273 192.568 185.16 191.98 185.16 191.242V180.208ZM193.881 184.648V194H191.984V182.905H193.829L193.881 184.648ZM197.347 182.844L197.336 184.607C197.179 184.573 197.029 184.553 196.885 184.546C196.748 184.532 196.591 184.525 196.413 184.525C195.976 184.525 195.59 184.594 195.255 184.73C194.92 184.867 194.636 185.059 194.404 185.305C194.171 185.551 193.987 185.845 193.85 186.187C193.72 186.521 193.635 186.891 193.594 187.294L193.06 187.602C193.06 186.932 193.125 186.303 193.255 185.715C193.392 185.127 193.6 184.607 193.881 184.156C194.161 183.698 194.517 183.343 194.947 183.09C195.385 182.83 195.904 182.7 196.506 182.7C196.642 182.7 196.8 182.717 196.977 182.751C197.155 182.779 197.278 182.81 197.347 182.844ZM205.862 192.103V186.392C205.862 185.954 205.773 185.575 205.595 185.253C205.424 184.925 205.165 184.672 204.816 184.495C204.467 184.317 204.037 184.228 203.524 184.228C203.045 184.228 202.625 184.31 202.263 184.474C201.907 184.638 201.627 184.854 201.422 185.12C201.224 185.387 201.125 185.674 201.125 185.981H199.228C199.228 185.585 199.33 185.192 199.535 184.802C199.74 184.413 200.034 184.061 200.417 183.746C200.807 183.425 201.272 183.172 201.812 182.987C202.358 182.796 202.967 182.7 203.637 182.7C204.443 182.7 205.154 182.837 205.77 183.11C206.392 183.384 206.877 183.797 207.226 184.351C207.581 184.898 207.759 185.585 207.759 186.412V191.58C207.759 191.949 207.79 192.342 207.851 192.759C207.919 193.176 208.019 193.535 208.148 193.836V194H206.169C206.074 193.781 205.999 193.491 205.944 193.128C205.889 192.759 205.862 192.417 205.862 192.103ZM206.19 187.273L206.21 188.606H204.293C203.753 188.606 203.271 188.651 202.847 188.74C202.423 188.822 202.068 188.948 201.781 189.119C201.494 189.29 201.275 189.505 201.125 189.765C200.974 190.018 200.899 190.315 200.899 190.657C200.899 191.006 200.978 191.324 201.135 191.611C201.292 191.898 201.528 192.127 201.842 192.298C202.164 192.462 202.557 192.544 203.022 192.544C203.603 192.544 204.115 192.421 204.56 192.175C205.004 191.929 205.356 191.628 205.616 191.272C205.882 190.917 206.026 190.572 206.046 190.237L206.856 191.149C206.809 191.437 206.679 191.754 206.467 192.103C206.255 192.452 205.971 192.787 205.616 193.108C205.267 193.422 204.85 193.686 204.365 193.897C203.886 194.103 203.346 194.205 202.745 194.205C201.993 194.205 201.333 194.058 200.766 193.764C200.205 193.47 199.768 193.077 199.453 192.585C199.146 192.086 198.992 191.529 198.992 190.914C198.992 190.319 199.108 189.796 199.34 189.345C199.573 188.887 199.908 188.507 200.345 188.207C200.783 187.899 201.309 187.667 201.924 187.509C202.54 187.352 203.227 187.273 203.985 187.273H206.19ZM215.813 192.646C216.264 192.646 216.681 192.554 217.064 192.37C217.446 192.185 217.761 191.932 218.007 191.611C218.253 191.283 218.393 190.91 218.427 190.493H220.232C220.198 191.149 219.976 191.761 219.566 192.329C219.162 192.889 218.632 193.344 217.976 193.692C217.32 194.034 216.599 194.205 215.813 194.205C214.979 194.205 214.251 194.058 213.629 193.764C213.013 193.47 212.501 193.067 212.09 192.554C211.687 192.042 211.383 191.454 211.178 190.791C210.98 190.121 210.881 189.413 210.881 188.668V188.237C210.881 187.492 210.98 186.788 211.178 186.125C211.383 185.455 211.687 184.864 212.09 184.351C212.501 183.838 213.013 183.435 213.629 183.141C214.251 182.847 214.979 182.7 215.813 182.7C216.681 182.7 217.44 182.878 218.089 183.233C218.738 183.582 219.248 184.061 219.617 184.669C219.993 185.271 220.198 185.954 220.232 186.72H218.427C218.393 186.262 218.263 185.848 218.038 185.479C217.819 185.11 217.518 184.816 217.135 184.597C216.759 184.372 216.319 184.259 215.813 184.259C215.232 184.259 214.743 184.375 214.346 184.607C213.957 184.833 213.646 185.141 213.413 185.53C213.188 185.913 213.024 186.34 212.921 186.812C212.825 187.277 212.777 187.752 212.777 188.237V188.668C212.777 189.153 212.825 189.632 212.921 190.104C213.017 190.575 213.177 191.002 213.403 191.385C213.635 191.768 213.946 192.076 214.336 192.308C214.733 192.534 215.225 192.646 215.813 192.646ZM227.64 182.905V184.361H221.641V182.905H227.64ZM223.672 180.208H225.569V191.252C225.569 191.628 225.627 191.912 225.743 192.103C225.859 192.294 226.01 192.421 226.194 192.482C226.379 192.544 226.577 192.575 226.789 192.575C226.946 192.575 227.11 192.561 227.281 192.534C227.459 192.5 227.592 192.472 227.681 192.452L227.691 194C227.541 194.048 227.343 194.092 227.096 194.133C226.857 194.181 226.567 194.205 226.225 194.205C225.76 194.205 225.333 194.113 224.943 193.928C224.553 193.744 224.242 193.436 224.01 193.005C223.784 192.568 223.672 191.98 223.672 191.242V180.208ZM232.556 182.905V194H230.649V182.905H232.556ZM230.505 179.962C230.505 179.655 230.598 179.395 230.782 179.183C230.974 178.971 231.254 178.865 231.623 178.865C231.985 178.865 232.262 178.971 232.454 179.183C232.652 179.395 232.751 179.655 232.751 179.962C232.751 180.256 232.652 180.509 232.454 180.721C232.262 180.926 231.985 181.029 231.623 181.029C231.254 181.029 230.974 180.926 230.782 180.721C230.598 180.509 230.505 180.256 230.505 179.962ZM235.729 188.576V188.34C235.729 187.54 235.845 186.798 236.078 186.115C236.31 185.424 236.645 184.826 237.083 184.32C237.52 183.808 238.05 183.411 238.672 183.131C239.294 182.844 239.991 182.7 240.764 182.7C241.543 182.7 242.244 182.844 242.866 183.131C243.495 183.411 244.028 183.808 244.465 184.32C244.91 184.826 245.248 185.424 245.48 186.115C245.713 186.798 245.829 187.54 245.829 188.34V188.576C245.829 189.375 245.713 190.117 245.48 190.801C245.248 191.484 244.91 192.083 244.465 192.595C244.028 193.101 243.498 193.498 242.876 193.785C242.261 194.065 241.564 194.205 240.784 194.205C240.005 194.205 239.304 194.065 238.682 193.785C238.06 193.498 237.527 193.101 237.083 192.595C236.645 192.083 236.31 191.484 236.078 190.801C235.845 190.117 235.729 189.375 235.729 188.576ZM237.626 188.34V188.576C237.626 189.129 237.691 189.652 237.821 190.145C237.951 190.63 238.146 191.061 238.405 191.437C238.672 191.812 239.003 192.11 239.4 192.329C239.796 192.541 240.258 192.646 240.784 192.646C241.304 192.646 241.758 192.541 242.148 192.329C242.544 192.11 242.873 191.812 243.132 191.437C243.392 191.061 243.587 190.63 243.717 190.145C243.854 189.652 243.922 189.129 243.922 188.576V188.34C243.922 187.793 243.854 187.277 243.717 186.792C243.587 186.299 243.389 185.865 243.122 185.489C242.862 185.106 242.534 184.806 242.138 184.587C241.748 184.368 241.29 184.259 240.764 184.259C240.244 184.259 239.786 184.368 239.39 184.587C239 184.806 238.672 185.106 238.405 185.489C238.146 185.865 237.951 186.299 237.821 186.792C237.691 187.277 237.626 187.793 237.626 188.34ZM250.735 185.274V194H248.838V182.905H250.632L250.735 185.274ZM250.284 188.032L249.494 188.001C249.501 187.243 249.614 186.542 249.833 185.899C250.051 185.25 250.359 184.686 250.755 184.208C251.152 183.729 251.624 183.36 252.171 183.1C252.724 182.833 253.336 182.7 254.006 182.7C254.553 182.7 255.045 182.775 255.483 182.926C255.92 183.069 256.293 183.302 256.6 183.623C256.915 183.944 257.154 184.361 257.318 184.874C257.482 185.38 257.564 185.999 257.564 186.73V194H255.657V186.709C255.657 186.128 255.571 185.664 255.401 185.315C255.23 184.959 254.98 184.703 254.652 184.546C254.324 184.382 253.921 184.3 253.442 184.3C252.97 184.3 252.54 184.399 252.15 184.597C251.767 184.795 251.436 185.069 251.155 185.417C250.882 185.766 250.667 186.166 250.509 186.617C250.359 187.062 250.284 187.533 250.284 188.032ZM262.798 191.744V193.272C262.798 193.894 262.641 194.55 262.326 195.241C262.012 195.938 261.571 196.519 261.004 196.984L259.927 196.235C260.146 195.935 260.33 195.627 260.481 195.312C260.631 195.005 260.744 194.684 260.819 194.349C260.901 194.021 260.942 193.672 260.942 193.303V191.744H262.798ZM94.9191 214.057C94.9191 213.784 94.8576 213.531 94.7345 213.298C94.6183 213.059 94.3756 212.844 94.0065 212.652C93.6442 212.454 93.0973 212.283 92.3659 212.14C91.7506 212.01 91.1935 211.856 90.6945 211.678C90.2023 211.5 89.7819 211.285 89.4333 211.032C89.0915 210.779 88.8283 210.482 88.6437 210.14C88.4591 209.798 88.3669 209.398 88.3669 208.94C88.3669 208.503 88.4626 208.089 88.654 207.7C88.8522 207.31 89.1291 206.965 89.4845 206.664C89.8468 206.363 90.2809 206.127 90.7868 205.957C91.2926 205.786 91.8566 205.7 92.4787 205.7C93.3673 205.7 94.1261 205.857 94.755 206.172C95.3839 206.486 95.8659 206.907 96.2008 207.433C96.5358 207.953 96.7033 208.53 96.7033 209.166H94.8063C94.8063 208.858 94.714 208.561 94.5294 208.274C94.3517 207.98 94.0885 207.737 93.7399 207.546C93.3981 207.354 92.9777 207.259 92.4787 207.259C91.9523 207.259 91.5251 207.341 91.1969 207.505C90.8756 207.662 90.6398 207.864 90.4894 208.11C90.3459 208.356 90.2741 208.616 90.2741 208.889C90.2741 209.094 90.3083 209.279 90.3766 209.443C90.4518 209.6 90.5817 209.747 90.7663 209.884C90.9508 210.014 91.2106 210.137 91.5456 210.253C91.8805 210.369 92.3078 210.485 92.8273 210.602C93.7365 210.807 94.485 211.053 95.0729 211.34C95.6608 211.627 96.0983 211.979 96.3854 212.396C96.6725 212.813 96.8161 213.319 96.8161 213.914C96.8161 214.399 96.7135 214.843 96.5085 215.247C96.3102 215.65 96.0197 215.999 95.6369 216.292C95.2609 216.58 94.8097 216.805 94.2834 216.969C93.7638 217.126 93.1794 217.205 92.5299 217.205C91.5524 217.205 90.7253 217.031 90.0485 216.682C89.3717 216.333 88.859 215.882 88.5104 215.329C88.1618 214.775 87.9875 214.19 87.9875 213.575H89.8947C89.922 214.095 90.0724 214.508 90.3459 214.816C90.6193 215.117 90.9543 215.332 91.3507 215.462C91.7472 215.585 92.1403 215.646 92.5299 215.646C93.0495 215.646 93.4836 215.578 93.8322 215.441C94.1877 215.305 94.4577 215.117 94.6422 214.877C94.8268 214.638 94.9191 214.365 94.9191 214.057ZM104.583 205.905V207.361H98.5843V205.905H104.583ZM100.615 203.208H102.511V214.252C102.511 214.628 102.57 214.912 102.686 215.103C102.802 215.294 102.952 215.421 103.137 215.482C103.322 215.544 103.52 215.575 103.732 215.575C103.889 215.575 104.053 215.561 104.224 215.534C104.402 215.5 104.535 215.472 104.624 215.452L104.634 217C104.484 217.048 104.285 217.092 104.039 217.133C103.8 217.181 103.51 217.205 103.168 217.205C102.703 217.205 102.276 217.113 101.886 216.928C101.496 216.744 101.185 216.436 100.953 216.005C100.727 215.568 100.615 214.98 100.615 214.242V203.208ZM109.335 207.648V217H107.438V205.905H109.284L109.335 207.648ZM112.801 205.844L112.79 207.607C112.633 207.573 112.483 207.553 112.339 207.546C112.203 207.532 112.045 207.525 111.868 207.525C111.43 207.525 111.044 207.594 110.709 207.73C110.374 207.867 110.09 208.059 109.858 208.305C109.625 208.551 109.441 208.845 109.304 209.187C109.174 209.521 109.089 209.891 109.048 210.294L108.515 210.602C108.515 209.932 108.579 209.303 108.709 208.715C108.846 208.127 109.055 207.607 109.335 207.156C109.615 206.698 109.971 206.343 110.401 206.09C110.839 205.83 111.358 205.7 111.96 205.7C112.097 205.7 112.254 205.717 112.432 205.751C112.609 205.779 112.732 205.81 112.801 205.844ZM121.972 214.437V205.905H123.879V217H122.064L121.972 214.437ZM122.331 212.099L123.121 212.078C123.121 212.816 123.042 213.5 122.885 214.129C122.734 214.751 122.488 215.291 122.146 215.749C121.805 216.207 121.357 216.566 120.803 216.826C120.25 217.079 119.576 217.205 118.783 217.205C118.243 217.205 117.748 217.126 117.296 216.969C116.852 216.812 116.469 216.569 116.148 216.241C115.827 215.913 115.577 215.486 115.399 214.959C115.229 214.433 115.143 213.801 115.143 213.062V205.905H117.04V213.083C117.04 213.582 117.095 213.996 117.204 214.324C117.32 214.645 117.474 214.901 117.666 215.093C117.864 215.277 118.083 215.407 118.322 215.482C118.568 215.558 118.821 215.595 119.081 215.595C119.887 215.595 120.526 215.441 120.998 215.134C121.47 214.819 121.808 214.399 122.013 213.873C122.225 213.339 122.331 212.748 122.331 212.099ZM131.841 215.646C132.292 215.646 132.709 215.554 133.092 215.37C133.475 215.185 133.789 214.932 134.035 214.611C134.281 214.283 134.422 213.91 134.456 213.493H136.26C136.226 214.149 136.004 214.761 135.594 215.329C135.191 215.889 134.661 216.344 134.005 216.692C133.348 217.034 132.627 217.205 131.841 217.205C131.007 217.205 130.279 217.058 129.657 216.764C129.042 216.47 128.529 216.067 128.119 215.554C127.715 215.042 127.411 214.454 127.206 213.791C127.008 213.121 126.909 212.413 126.909 211.668V211.237C126.909 210.492 127.008 209.788 127.206 209.125C127.411 208.455 127.715 207.864 128.119 207.351C128.529 206.838 129.042 206.435 129.657 206.141C130.279 205.847 131.007 205.7 131.841 205.7C132.709 205.7 133.468 205.878 134.117 206.233C134.767 206.582 135.276 207.061 135.645 207.669C136.021 208.271 136.226 208.954 136.26 209.72H134.456C134.422 209.262 134.292 208.848 134.066 208.479C133.847 208.11 133.547 207.816 133.164 207.597C132.788 207.372 132.347 207.259 131.841 207.259C131.26 207.259 130.771 207.375 130.375 207.607C129.985 207.833 129.674 208.141 129.442 208.53C129.216 208.913 129.052 209.34 128.949 209.812C128.854 210.277 128.806 210.752 128.806 211.237V211.668C128.806 212.153 128.854 212.632 128.949 213.104C129.045 213.575 129.206 214.002 129.431 214.385C129.664 214.768 129.975 215.076 130.364 215.308C130.761 215.534 131.253 215.646 131.841 215.646ZM143.668 205.905V207.361H137.67V205.905H143.668ZM139.7 203.208H141.597V214.252C141.597 214.628 141.655 214.912 141.771 215.103C141.887 215.294 142.038 215.421 142.222 215.482C142.407 215.544 142.605 215.575 142.817 215.575C142.974 215.575 143.138 215.561 143.309 215.534C143.487 215.5 143.62 215.472 143.709 215.452L143.719 217C143.569 217.048 143.371 217.092 143.125 217.133C142.886 217.181 142.595 217.205 142.253 217.205C141.788 217.205 141.361 217.113 140.971 216.928C140.582 216.744 140.271 216.436 140.038 216.005C139.813 215.568 139.7 214.98 139.7 214.242V203.208ZM153.311 214.437V205.905H155.219V217H153.404L153.311 214.437ZM153.67 212.099L154.46 212.078C154.46 212.816 154.381 213.5 154.224 214.129C154.074 214.751 153.828 215.291 153.486 215.749C153.144 216.207 152.696 216.566 152.142 216.826C151.589 217.079 150.915 217.205 150.122 217.205C149.582 217.205 149.087 217.126 148.636 216.969C148.191 216.812 147.808 216.569 147.487 216.241C147.166 215.913 146.916 215.486 146.739 214.959C146.568 214.433 146.482 213.801 146.482 213.062V205.905H148.379V213.083C148.379 213.582 148.434 213.996 148.543 214.324C148.66 214.645 148.813 214.901 149.005 215.093C149.203 215.277 149.422 215.407 149.661 215.482C149.907 215.558 150.16 215.595 150.42 215.595C151.226 215.595 151.866 215.441 152.337 215.134C152.809 214.819 153.147 214.399 153.352 213.873C153.564 213.339 153.67 212.748 153.67 212.099ZM160.637 207.648V217H158.74V205.905H160.586L160.637 207.648ZM164.103 205.844L164.093 207.607C163.936 207.573 163.785 207.553 163.642 207.546C163.505 207.532 163.348 207.525 163.17 207.525C162.732 207.525 162.346 207.594 162.011 207.73C161.676 207.867 161.393 208.059 161.16 208.305C160.928 208.551 160.743 208.845 160.606 209.187C160.477 209.521 160.391 209.891 160.35 210.294L159.817 210.602C159.817 209.932 159.882 209.303 160.012 208.715C160.148 208.127 160.357 207.607 160.637 207.156C160.917 206.698 161.273 206.343 161.704 206.09C162.141 205.83 162.661 205.7 163.262 205.7C163.399 205.7 163.556 205.717 163.734 205.751C163.912 205.779 164.035 205.81 164.103 205.844ZM170.885 217.205C170.113 217.205 169.412 217.075 168.783 216.815C168.161 216.549 167.625 216.176 167.173 215.698C166.729 215.219 166.387 214.652 166.148 213.996C165.909 213.339 165.789 212.622 165.789 211.842V211.412C165.789 210.509 165.922 209.706 166.189 209.002C166.456 208.291 166.818 207.689 167.276 207.197C167.734 206.705 168.254 206.333 168.835 206.08C169.416 205.827 170.017 205.7 170.639 205.7C171.432 205.7 172.116 205.837 172.69 206.11C173.271 206.384 173.746 206.767 174.115 207.259C174.484 207.744 174.758 208.318 174.936 208.981C175.113 209.638 175.202 210.355 175.202 211.135V211.986H166.917V210.438H173.305V210.294C173.278 209.802 173.175 209.323 172.998 208.858C172.827 208.394 172.553 208.011 172.177 207.71C171.801 207.409 171.289 207.259 170.639 207.259C170.209 207.259 169.812 207.351 169.45 207.536C169.088 207.713 168.776 207.98 168.517 208.335C168.257 208.691 168.055 209.125 167.912 209.638C167.768 210.15 167.696 210.742 167.696 211.412V211.842C167.696 212.369 167.768 212.864 167.912 213.329C168.062 213.787 168.277 214.19 168.558 214.539C168.845 214.888 169.19 215.161 169.593 215.359C170.004 215.558 170.468 215.657 170.988 215.657C171.658 215.657 172.225 215.52 172.69 215.247C173.155 214.973 173.562 214.607 173.91 214.149L175.059 215.062C174.819 215.424 174.515 215.77 174.146 216.098C173.777 216.426 173.322 216.692 172.782 216.897C172.249 217.103 171.617 217.205 170.885 217.205ZM179.77 214.744V216.272C179.77 216.894 179.613 217.55 179.298 218.241C178.984 218.938 178.543 219.519 177.975 219.984L176.899 219.235C177.117 218.935 177.302 218.627 177.452 218.312C177.603 218.005 177.716 217.684 177.791 217.349C177.873 217.021 177.914 216.672 177.914 216.303V214.744H179.77ZM195.201 215.103V209.392C195.201 208.954 195.112 208.575 194.934 208.253C194.763 207.925 194.503 207.672 194.155 207.495C193.806 207.317 193.375 207.228 192.863 207.228C192.384 207.228 191.964 207.31 191.602 207.474C191.246 207.638 190.966 207.854 190.761 208.12C190.562 208.387 190.463 208.674 190.463 208.981H188.566C188.566 208.585 188.669 208.192 188.874 207.802C189.079 207.413 189.373 207.061 189.756 206.746C190.145 206.425 190.61 206.172 191.15 205.987C191.697 205.796 192.306 205.7 192.976 205.7C193.782 205.7 194.493 205.837 195.108 206.11C195.73 206.384 196.216 206.797 196.564 207.351C196.92 207.898 197.098 208.585 197.098 209.412V214.58C197.098 214.949 197.128 215.342 197.19 215.759C197.258 216.176 197.357 216.535 197.487 216.836V217H195.508C195.413 216.781 195.337 216.491 195.283 216.128C195.228 215.759 195.201 215.417 195.201 215.103ZM195.529 210.273L195.549 211.606H193.632C193.092 211.606 192.61 211.651 192.186 211.74C191.762 211.822 191.407 211.948 191.12 212.119C190.832 212.29 190.614 212.505 190.463 212.765C190.313 213.018 190.238 213.315 190.238 213.657C190.238 214.006 190.316 214.324 190.474 214.611C190.631 214.898 190.867 215.127 191.181 215.298C191.502 215.462 191.895 215.544 192.36 215.544C192.941 215.544 193.454 215.421 193.898 215.175C194.343 214.929 194.695 214.628 194.955 214.272C195.221 213.917 195.365 213.572 195.385 213.237L196.195 214.149C196.147 214.437 196.018 214.754 195.806 215.103C195.594 215.452 195.31 215.787 194.955 216.108C194.606 216.422 194.189 216.686 193.704 216.897C193.225 217.103 192.685 217.205 192.083 217.205C191.332 217.205 190.672 217.058 190.104 216.764C189.544 216.47 189.106 216.077 188.792 215.585C188.484 215.086 188.331 214.529 188.331 213.914C188.331 213.319 188.447 212.796 188.679 212.345C188.912 211.887 189.247 211.507 189.684 211.207C190.122 210.899 190.648 210.667 191.263 210.509C191.878 210.352 192.565 210.273 193.324 210.273H195.529ZM202.608 208.274V217H200.712V205.905H202.506L202.608 208.274ZM202.157 211.032L201.368 211.001C201.375 210.243 201.487 209.542 201.706 208.899C201.925 208.25 202.233 207.686 202.629 207.208C203.025 206.729 203.497 206.36 204.044 206.1C204.598 205.833 205.21 205.7 205.879 205.7C206.426 205.7 206.919 205.775 207.356 205.926C207.794 206.069 208.166 206.302 208.474 206.623C208.788 206.944 209.027 207.361 209.191 207.874C209.356 208.38 209.438 208.999 209.438 209.73V217H207.53V209.709C207.53 209.128 207.445 208.664 207.274 208.315C207.103 207.959 206.854 207.703 206.525 207.546C206.197 207.382 205.794 207.3 205.316 207.3C204.844 207.3 204.413 207.399 204.024 207.597C203.641 207.795 203.309 208.069 203.029 208.417C202.755 208.766 202.54 209.166 202.383 209.617C202.233 210.062 202.157 210.533 202.157 211.032ZM219.942 214.847V201.25H221.849V217H220.106L219.942 214.847ZM212.477 211.576V211.36C212.477 210.513 212.58 209.744 212.785 209.053C212.997 208.356 213.294 207.758 213.677 207.259C214.067 206.76 214.528 206.377 215.061 206.11C215.601 205.837 216.203 205.7 216.866 205.7C217.563 205.7 218.172 205.823 218.691 206.069C219.217 206.309 219.662 206.661 220.024 207.125C220.393 207.583 220.684 208.137 220.896 208.787C221.108 209.436 221.255 210.171 221.337 210.991V211.935C221.261 212.748 221.114 213.479 220.896 214.129C220.684 214.778 220.393 215.332 220.024 215.79C219.662 216.248 219.217 216.6 218.691 216.846C218.165 217.085 217.55 217.205 216.845 217.205C216.196 217.205 215.601 217.065 215.061 216.785C214.528 216.504 214.067 216.111 213.677 215.605C213.294 215.1 212.997 214.505 212.785 213.821C212.58 213.131 212.477 212.382 212.477 211.576ZM214.384 211.36V211.576C214.384 212.129 214.439 212.649 214.549 213.134C214.665 213.62 214.842 214.047 215.082 214.416C215.321 214.785 215.625 215.076 215.994 215.288C216.363 215.493 216.804 215.595 217.317 215.595C217.946 215.595 218.462 215.462 218.865 215.195C219.276 214.929 219.604 214.577 219.85 214.139C220.096 213.702 220.287 213.227 220.424 212.714V210.243C220.342 209.867 220.222 209.504 220.065 209.156C219.915 208.8 219.717 208.486 219.47 208.212C219.231 207.932 218.934 207.71 218.578 207.546C218.23 207.382 217.816 207.3 217.338 207.3C216.818 207.3 216.37 207.409 215.994 207.628C215.625 207.84 215.321 208.134 215.082 208.51C214.842 208.879 214.665 209.31 214.549 209.802C214.439 210.287 214.384 210.807 214.384 211.36ZM107.804 230.648V240H105.907V228.905H107.753L107.804 230.648ZM111.27 228.844L111.26 230.607C111.103 230.573 110.952 230.553 110.809 230.546C110.672 230.532 110.515 230.525 110.337 230.525C109.899 230.525 109.513 230.594 109.178 230.73C108.843 230.867 108.56 231.059 108.327 231.305C108.095 231.551 107.91 231.845 107.773 232.187C107.644 232.521 107.558 232.891 107.517 233.294L106.984 233.602C106.984 232.932 107.049 232.303 107.179 231.715C107.315 231.127 107.524 230.607 107.804 230.156C108.084 229.698 108.44 229.343 108.871 229.09C109.308 228.83 109.828 228.7 110.429 228.7C110.566 228.7 110.723 228.717 110.901 228.751C111.079 228.779 111.202 228.81 111.27 228.844ZM118.052 240.205C117.28 240.205 116.579 240.075 115.95 239.815C115.328 239.549 114.792 239.176 114.34 238.698C113.896 238.219 113.554 237.652 113.315 236.996C113.076 236.339 112.956 235.622 112.956 234.842V234.412C112.956 233.509 113.089 232.706 113.356 232.002C113.623 231.291 113.985 230.689 114.443 230.197C114.901 229.705 115.42 229.333 116.002 229.08C116.583 228.827 117.184 228.7 117.806 228.7C118.599 228.7 119.283 228.837 119.857 229.11C120.438 229.384 120.913 229.767 121.282 230.259C121.651 230.744 121.925 231.318 122.103 231.981C122.28 232.638 122.369 233.355 122.369 234.135V234.986H114.084V233.438H120.472V233.294C120.445 232.802 120.342 232.323 120.165 231.858C119.994 231.394 119.72 231.011 119.344 230.71C118.968 230.409 118.456 230.259 117.806 230.259C117.376 230.259 116.979 230.351 116.617 230.536C116.254 230.713 115.943 230.98 115.684 231.335C115.424 231.691 115.222 232.125 115.079 232.638C114.935 233.15 114.863 233.742 114.863 234.412V234.842C114.863 235.369 114.935 235.864 115.079 236.329C115.229 236.787 115.444 237.19 115.725 237.539C116.012 237.888 116.357 238.161 116.76 238.359C117.17 238.558 117.635 238.657 118.155 238.657C118.825 238.657 119.392 238.52 119.857 238.247C120.322 237.973 120.729 237.607 121.077 237.149L122.226 238.062C121.986 238.424 121.682 238.77 121.313 239.098C120.944 239.426 120.489 239.692 119.949 239.897C119.416 240.103 118.784 240.205 118.052 240.205ZM131.756 238.103V232.392C131.756 231.954 131.667 231.575 131.489 231.253C131.319 230.925 131.059 230.672 130.71 230.495C130.362 230.317 129.931 230.228 129.418 230.228C128.94 230.228 128.519 230.31 128.157 230.474C127.801 230.638 127.521 230.854 127.316 231.12C127.118 231.387 127.019 231.674 127.019 231.981H125.122C125.122 231.585 125.224 231.192 125.429 230.802C125.634 230.413 125.928 230.061 126.311 229.746C126.701 229.425 127.166 229.172 127.706 228.987C128.253 228.796 128.861 228.7 129.531 228.7C130.338 228.7 131.049 228.837 131.664 229.11C132.286 229.384 132.771 229.797 133.12 230.351C133.475 230.898 133.653 231.585 133.653 232.412V237.58C133.653 237.949 133.684 238.342 133.745 238.759C133.814 239.176 133.913 239.535 134.043 239.836V240H132.064C131.968 239.781 131.893 239.491 131.838 239.128C131.783 238.759 131.756 238.417 131.756 238.103ZM132.084 233.273L132.105 234.606H130.187C129.647 234.606 129.165 234.651 128.741 234.74C128.318 234.822 127.962 234.948 127.675 235.119C127.388 235.29 127.169 235.505 127.019 235.765C126.868 236.018 126.793 236.315 126.793 236.657C126.793 237.006 126.872 237.324 127.029 237.611C127.186 237.898 127.422 238.127 127.737 238.298C128.058 238.462 128.451 238.544 128.916 238.544C129.497 238.544 130.009 238.421 130.454 238.175C130.898 237.929 131.25 237.628 131.51 237.272C131.777 236.917 131.92 236.572 131.941 236.237L132.751 237.149C132.703 237.437 132.573 237.754 132.361 238.103C132.149 238.452 131.865 238.787 131.51 239.108C131.161 239.422 130.744 239.686 130.259 239.897C129.78 240.103 129.24 240.205 128.639 240.205C127.887 240.205 127.227 240.058 126.66 239.764C126.099 239.47 125.662 239.077 125.347 238.585C125.04 238.086 124.886 237.529 124.886 236.914C124.886 236.319 125.002 235.796 125.235 235.345C125.467 234.887 125.802 234.507 126.239 234.207C126.677 233.899 127.203 233.667 127.819 233.509C128.434 233.352 129.121 233.273 129.88 233.273H132.084ZM144.26 237.847V224.25H146.167V240H144.424L144.26 237.847ZM136.795 234.576V234.36C136.795 233.513 136.898 232.744 137.103 232.053C137.315 231.356 137.612 230.758 137.995 230.259C138.385 229.76 138.846 229.377 139.379 229.11C139.919 228.837 140.521 228.7 141.184 228.7C141.881 228.7 142.49 228.823 143.009 229.069C143.535 229.309 143.98 229.661 144.342 230.125C144.711 230.583 145.002 231.137 145.214 231.787C145.426 232.436 145.573 233.171 145.655 233.991V234.935C145.579 235.748 145.432 236.479 145.214 237.129C145.002 237.778 144.711 238.332 144.342 238.79C143.98 239.248 143.535 239.6 143.009 239.846C142.483 240.085 141.868 240.205 141.163 240.205C140.514 240.205 139.919 240.065 139.379 239.785C138.846 239.504 138.385 239.111 137.995 238.605C137.612 238.1 137.315 237.505 137.103 236.821C136.898 236.131 136.795 235.382 136.795 234.576ZM138.702 234.36V234.576C138.702 235.129 138.757 235.649 138.867 236.134C138.983 236.62 139.16 237.047 139.4 237.416C139.639 237.785 139.943 238.076 140.312 238.288C140.681 238.493 141.122 238.595 141.635 238.595C142.264 238.595 142.78 238.462 143.183 238.195C143.594 237.929 143.922 237.577 144.168 237.139C144.414 236.702 144.605 236.227 144.742 235.714V233.243C144.66 232.867 144.54 232.504 144.383 232.156C144.233 231.8 144.034 231.486 143.788 231.212C143.549 230.932 143.252 230.71 142.896 230.546C142.548 230.382 142.134 230.3 141.656 230.3C141.136 230.3 140.688 230.409 140.312 230.628C139.943 230.84 139.639 231.134 139.4 231.51C139.16 231.879 138.983 232.31 138.867 232.802C138.757 233.287 138.702 233.807 138.702 234.36ZM151.811 228.905V240H149.904V228.905H151.811ZM149.761 225.962C149.761 225.655 149.853 225.395 150.038 225.183C150.229 224.971 150.509 224.865 150.878 224.865C151.241 224.865 151.518 224.971 151.709 225.183C151.907 225.395 152.006 225.655 152.006 225.962C152.006 226.256 151.907 226.509 151.709 226.721C151.518 226.926 151.241 227.029 150.878 227.029C150.509 227.029 150.229 226.926 150.038 226.721C149.853 226.509 149.761 226.256 149.761 225.962ZM157.384 231.274V240H155.487V228.905H157.281L157.384 231.274ZM156.933 234.032L156.143 234.001C156.15 233.243 156.263 232.542 156.482 231.899C156.7 231.25 157.008 230.686 157.404 230.208C157.801 229.729 158.273 229.36 158.819 229.1C159.373 228.833 159.985 228.7 160.655 228.7C161.202 228.7 161.694 228.775 162.131 228.926C162.569 229.069 162.941 229.302 163.249 229.623C163.564 229.944 163.803 230.361 163.967 230.874C164.131 231.38 164.213 231.999 164.213 232.73V240H162.306V232.709C162.306 232.128 162.22 231.664 162.049 231.315C161.878 230.959 161.629 230.703 161.301 230.546C160.973 230.382 160.569 230.3 160.091 230.3C159.619 230.3 159.189 230.399 158.799 230.597C158.416 230.795 158.085 231.069 157.804 231.417C157.531 231.766 157.315 232.166 157.158 232.617C157.008 233.062 156.933 233.533 156.933 234.032ZM172.328 240.205C171.556 240.205 170.855 240.075 170.226 239.815C169.604 239.549 169.068 239.176 168.616 238.698C168.172 238.219 167.83 237.652 167.591 236.996C167.352 236.339 167.232 235.622 167.232 234.842V234.412C167.232 233.509 167.365 232.706 167.632 232.002C167.899 231.291 168.261 230.689 168.719 230.197C169.177 229.705 169.696 229.333 170.278 229.08C170.859 228.827 171.46 228.7 172.082 228.7C172.875 228.7 173.559 228.837 174.133 229.11C174.714 229.384 175.189 229.767 175.558 230.259C175.927 230.744 176.201 231.318 176.379 231.981C176.556 232.638 176.645 233.355 176.645 234.135V234.986H168.36V233.438H174.748V233.294C174.721 232.802 174.618 232.323 174.441 231.858C174.27 231.394 173.996 231.011 173.62 230.71C173.244 230.409 172.732 230.259 172.082 230.259C171.652 230.259 171.255 230.351 170.893 230.536C170.53 230.713 170.219 230.98 169.96 231.335C169.7 231.691 169.498 232.125 169.355 232.638C169.211 233.15 169.139 233.742 169.139 234.412V234.842C169.139 235.369 169.211 235.864 169.355 236.329C169.505 236.787 169.72 237.19 170.001 237.539C170.288 237.888 170.633 238.161 171.036 238.359C171.446 238.558 171.911 238.657 172.431 238.657C173.101 238.657 173.668 238.52 174.133 238.247C174.598 237.973 175.005 237.607 175.353 237.149L176.502 238.062C176.262 238.424 175.958 238.77 175.589 239.098C175.22 239.426 174.765 239.692 174.225 239.897C173.692 240.103 173.06 240.205 172.328 240.205ZM185.95 237.057C185.95 236.784 185.888 236.531 185.765 236.298C185.649 236.059 185.407 235.844 185.037 235.652C184.675 235.454 184.128 235.283 183.397 235.14C182.782 235.01 182.224 234.856 181.725 234.678C181.233 234.5 180.813 234.285 180.464 234.032C180.122 233.779 179.859 233.482 179.675 233.14C179.49 232.798 179.398 232.398 179.398 231.94C179.398 231.503 179.493 231.089 179.685 230.7C179.883 230.31 180.16 229.965 180.515 229.664C180.878 229.363 181.312 229.127 181.818 228.957C182.324 228.786 182.888 228.7 183.51 228.7C184.398 228.7 185.157 228.857 185.786 229.172C186.415 229.486 186.897 229.907 187.232 230.433C187.567 230.953 187.734 231.53 187.734 232.166H185.837C185.837 231.858 185.745 231.561 185.56 231.274C185.383 230.98 185.119 230.737 184.771 230.546C184.429 230.354 184.009 230.259 183.51 230.259C182.983 230.259 182.556 230.341 182.228 230.505C181.907 230.662 181.671 230.864 181.52 231.11C181.377 231.356 181.305 231.616 181.305 231.889C181.305 232.094 181.339 232.279 181.408 232.443C181.483 232.6 181.613 232.747 181.797 232.884C181.982 233.014 182.242 233.137 182.576 233.253C182.911 233.369 183.339 233.485 183.858 233.602C184.767 233.807 185.516 234.053 186.104 234.34C186.692 234.627 187.129 234.979 187.416 235.396C187.703 235.813 187.847 236.319 187.847 236.914C187.847 237.399 187.744 237.843 187.539 238.247C187.341 238.65 187.051 238.999 186.668 239.292C186.292 239.58 185.841 239.805 185.314 239.969C184.795 240.126 184.21 240.205 183.561 240.205C182.583 240.205 181.756 240.031 181.079 239.682C180.403 239.333 179.89 238.882 179.541 238.329C179.193 237.775 179.018 237.19 179.018 236.575H180.926C180.953 237.095 181.103 237.508 181.377 237.816C181.65 238.117 181.985 238.332 182.382 238.462C182.778 238.585 183.171 238.646 183.561 238.646C184.08 238.646 184.514 238.578 184.863 238.441C185.219 238.305 185.489 238.117 185.673 237.877C185.858 237.638 185.95 237.365 185.95 237.057ZM197.429 237.057C197.429 236.784 197.367 236.531 197.244 236.298C197.128 236.059 196.885 235.844 196.516 235.652C196.154 235.454 195.607 235.283 194.875 235.14C194.26 235.01 193.703 234.856 193.204 234.678C192.712 234.5 192.291 234.285 191.943 234.032C191.601 233.779 191.338 233.482 191.153 233.14C190.969 232.798 190.876 232.398 190.876 231.94C190.876 231.503 190.972 231.089 191.163 230.7C191.362 230.31 191.639 229.965 191.994 229.664C192.356 229.363 192.79 229.127 193.296 228.957C193.802 228.786 194.366 228.7 194.988 228.7C195.877 228.7 196.636 228.857 197.265 229.172C197.893 229.486 198.375 229.907 198.71 230.433C199.045 230.953 199.213 231.53 199.213 232.166H197.316C197.316 231.858 197.224 231.561 197.039 231.274C196.861 230.98 196.598 230.737 196.249 230.546C195.908 230.354 195.487 230.259 194.988 230.259C194.462 230.259 194.035 230.341 193.706 230.505C193.385 230.662 193.149 230.864 192.999 231.11C192.855 231.356 192.784 231.616 192.784 231.889C192.784 232.094 192.818 232.279 192.886 232.443C192.961 232.6 193.091 232.747 193.276 232.884C193.46 233.014 193.72 233.137 194.055 233.253C194.39 233.369 194.817 233.485 195.337 233.602C196.246 233.807 196.995 234.053 197.582 234.34C198.17 234.627 198.608 234.979 198.895 235.396C199.182 235.813 199.326 236.319 199.326 236.914C199.326 237.399 199.223 237.843 199.018 238.247C198.82 238.65 198.529 238.999 198.146 239.292C197.77 239.58 197.319 239.805 196.793 239.969C196.273 240.126 195.689 240.205 195.039 240.205C194.062 240.205 193.235 240.031 192.558 239.682C191.881 239.333 191.369 238.882 191.02 238.329C190.671 237.775 190.497 237.19 190.497 236.575H192.404C192.432 237.095 192.582 237.508 192.855 237.816C193.129 238.117 193.464 238.332 193.86 238.462C194.257 238.585 194.65 238.646 195.039 238.646C195.559 238.646 195.993 238.578 196.342 238.441C196.697 238.305 196.967 238.117 197.152 237.877C197.336 237.638 197.429 237.365 197.429 237.057ZM202.478 238.995C202.478 238.674 202.577 238.404 202.775 238.185C202.98 237.959 203.274 237.847 203.657 237.847C204.04 237.847 204.331 237.959 204.529 238.185C204.734 238.404 204.836 238.674 204.836 238.995C204.836 239.31 204.734 239.576 204.529 239.795C204.331 240.014 204.04 240.123 203.657 240.123C203.274 240.123 202.98 240.014 202.775 239.795C202.577 239.576 202.478 239.31 202.478 238.995Z" fill="#4F5052"/>
<circle cx="152" cy="54" r="21" fill="#DBE4FF"/>
<path d="M158.53 51.1201V55.4101L157.226 54.8851C156.567 54.6151 156.167 54.3601 156.167 53.0551C156.167 51.9901 156.851 51.1201 157.691 51.1201H158.53Z" fill="#114DFF"/>
<path d="M162.831 60.9453C162.831 62.0103 162.147 62.8803 161.307 62.8803H160.468V58.5903L161.772 59.1153C162.431 59.3853 162.831 59.6403 162.831 60.9453Z" fill="#114DFF"/>
<path d="M164.911 42.0005H154.087C149.386 42.0005 146.583 45.2555 146.583 50.7155V63.2855C146.583 68.7455 149.386 72.0005 154.087 72.0005H164.911C169.612 72.0005 172.415 68.7455 172.415 63.2855V50.7155C172.415 45.2555 169.612 42.0005 164.911 42.0005ZM162.418 57.0005C163.425 57.4055 164.769 58.2605 164.769 60.9455C164.769 63.2555 163.219 65.1305 161.307 65.1305H160.468V66.0005C160.468 66.6155 160.029 67.1255 159.499 67.1255C158.969 67.1255 158.53 66.6155 158.53 66.0005V65.1305H158.065C155.947 65.1305 154.229 63.0455 154.229 60.4955C154.229 59.8805 154.656 59.3705 155.198 59.3705C155.728 59.3705 156.167 59.8805 156.167 60.4955C156.167 61.8155 157.019 62.8805 158.065 62.8805H158.53V57.7955L156.58 57.0005C155.573 56.5955 154.229 55.7405 154.229 53.0555C154.229 50.7455 155.779 48.8705 157.691 48.8705H158.53V48.0005C158.53 47.3855 158.969 46.8755 159.499 46.8755C160.029 46.8755 160.468 47.3855 160.468 48.0005V48.8705H160.933C163.051 48.8705 164.769 50.9555 164.769 53.5055C164.769 54.1205 164.342 54.6305 163.8 54.6305C163.27 54.6305 162.831 54.1205 162.831 53.5055C162.831 52.1855 161.979 51.1205 160.933 51.1205H160.468V56.2055L162.418 57.0005Z" fill="#114DFF"/>
<defs>
<filter id="filter0_d_8_107" x="0.4" y="0.4" width="312.2" height="312.2" filterUnits="userSpaceOnUse" color-interpolation-filters="sRGB">
<feFlood flood-opacity="0" result="BackgroundImageFix"/>
<feColorMatrix in="SourceAlpha" type="matrix" values="0 0 0 0 0 0 0 0 0 0 0 0 0 0 0 0 0 0 127 0" result="hardAlpha"/>
<feOffset dx="5" dy="6"/>
<feGaussianBlur stdDeviation="3.3"/>
<feComposite in2="hardAlpha" operator="out"/>
<feColorMatrix type="matrix" values="0 0 0 0 0 0 0 0 0 0 0 0 0 0 0 0 0 0 0.14 0"/>
<feBlend mode="normal" in2="BackgroundImageFix" result="effect1_dropShadow_8_107"/>
<feBlend mode="normal" in="SourceGraphic" in2="effect1_dropShadow_8_107" result="shape"/>
</filter>
<linearGradient id="paint0_linear_8_107" x1="5.86162" y1="28.6" x2="303.728" y2="35.6776" gradientUnits="userSpaceOnUse">
<stop offset="0.197139" stop-color="#F6F8FF"/>
<stop offset="0.663491" stop-color="#3CE5A7"/>
<stop offset="1" stop-color="#114DFF"/>
</linearGradient>
</defs>
</svg>
