<svg width="407" height="185" viewBox="0 0 407 185" fill="none" xmlns="http://www.w3.org/2000/svg">
<g filter="url(#filter0_d_65_384)">
<rect x="4" y="0.000244141" width="399" height="177" rx="88.5" fill="white"/>
<rect x="5.5" y="1.50024" width="396" height="174" rx="87" stroke="url(#paint0_linear_65_384)" stroke-width="3"/>
</g>
<path d="M98.8045 45.9377H101.781L106.164 58.4651L110.547 45.9377H113.523L107.359 63.0002H104.969L98.8045 45.9377ZM97.1991 45.9377H100.164L100.703 58.1487V63.0002H97.1991V45.9377ZM112.164 45.9377H115.14V63.0002H111.625V58.1487L112.164 45.9377ZM124.567 63.2346C123.583 63.2346 122.7 63.0784 121.919 62.7659C121.138 62.4456 120.474 62.0042 119.927 61.4417C119.388 60.8792 118.974 60.2268 118.685 59.4846C118.396 58.7346 118.251 57.9377 118.251 57.094V56.6252C118.251 55.6643 118.388 54.7854 118.661 53.9885C118.935 53.1917 119.325 52.5002 119.833 51.9143C120.349 51.3284 120.974 50.8792 121.708 50.5667C122.442 50.2463 123.271 50.0862 124.192 50.0862C125.091 50.0862 125.888 50.2346 126.583 50.5315C127.278 50.8284 127.86 51.2502 128.329 51.7971C128.806 52.344 129.165 53.0002 129.407 53.7659C129.65 54.5237 129.771 55.3674 129.771 56.2971V57.7034H119.692V55.4534H126.454V55.1956C126.454 54.7268 126.368 54.3088 126.196 53.9417C126.032 53.5667 125.782 53.2698 125.446 53.051C125.11 52.8323 124.681 52.7229 124.157 52.7229C123.712 52.7229 123.329 52.8206 123.009 53.0159C122.689 53.2112 122.427 53.4846 122.224 53.8362C122.028 54.1877 121.88 54.6018 121.778 55.0784C121.685 55.5471 121.638 56.0627 121.638 56.6252V57.094C121.638 57.6018 121.708 58.0706 121.849 58.5002C121.997 58.9299 122.204 59.301 122.47 59.6135C122.743 59.926 123.071 60.1682 123.454 60.3401C123.845 60.512 124.286 60.5979 124.778 60.5979C125.388 60.5979 125.954 60.4807 126.478 60.2463C127.009 60.0042 127.466 59.6409 127.849 59.1565L129.489 60.9377C129.224 61.3206 128.86 61.6877 128.4 62.0393C127.946 62.3909 127.4 62.6799 126.759 62.9065C126.118 63.1252 125.388 63.2346 124.567 63.2346ZM135.717 53.0276V63.0002H132.342V50.3206H135.506L135.717 53.0276ZM135.225 56.2151H134.311C134.311 55.2776 134.432 54.4338 134.674 53.6838C134.916 52.926 135.256 52.2815 135.694 51.7502C136.131 51.2112 136.651 50.801 137.252 50.5198C137.862 50.2307 138.541 50.0862 139.291 50.0862C139.885 50.0862 140.428 50.1721 140.92 50.344C141.412 50.5159 141.834 50.7893 142.186 51.1643C142.545 51.5393 142.819 52.0354 143.006 52.6526C143.202 53.2698 143.299 54.0237 143.299 54.9143V63.0002H139.901V54.9026C139.901 54.3401 139.823 53.9026 139.666 53.5901C139.51 53.2776 139.28 53.0588 138.975 52.9338C138.678 52.801 138.311 52.7346 137.873 52.7346C137.42 52.7346 137.026 52.8245 136.69 53.0042C136.362 53.1838 136.088 53.4338 135.87 53.7542C135.659 54.0667 135.498 54.4338 135.389 54.8557C135.28 55.2776 135.225 55.7307 135.225 56.2151ZM152.797 50.3206V52.7112H145.414V50.3206H152.797ZM147.242 47.1917H150.617V59.1799C150.617 59.5471 150.664 59.8284 150.757 60.0237C150.859 60.219 151.007 60.3557 151.203 60.4338C151.398 60.5042 151.644 60.5393 151.941 60.5393C152.152 60.5393 152.34 60.5315 152.504 60.5159C152.675 60.4924 152.82 60.469 152.937 60.4456L152.949 62.9299C152.66 63.0237 152.347 63.0979 152.011 63.1526C151.675 63.2073 151.304 63.2346 150.898 63.2346C150.156 63.2346 149.507 63.1135 148.953 62.8713C148.406 62.6213 147.984 62.2229 147.687 61.676C147.39 61.1292 147.242 60.4104 147.242 59.5198V47.1917ZM154.595 56.7893V56.5432C154.595 55.6135 154.727 54.7581 154.993 53.9768C155.259 53.1877 155.645 52.5042 156.153 51.926C156.661 51.3479 157.286 50.8987 158.028 50.5784C158.77 50.2502 159.622 50.0862 160.583 50.0862C161.544 50.0862 162.399 50.2502 163.149 50.5784C163.899 50.8987 164.528 51.3479 165.036 51.926C165.552 52.5042 165.942 53.1877 166.208 53.9768C166.474 54.7581 166.606 55.6135 166.606 56.5432V56.7893C166.606 57.7112 166.474 58.5667 166.208 59.3557C165.942 60.137 165.552 60.8206 165.036 61.4065C164.528 61.9846 163.903 62.4338 163.161 62.7542C162.419 63.0745 161.567 63.2346 160.606 63.2346C159.645 63.2346 158.79 63.0745 158.04 62.7542C157.298 62.4338 156.669 61.9846 156.153 61.4065C155.645 60.8206 155.259 60.137 154.993 59.3557C154.727 58.5667 154.595 57.7112 154.595 56.7893ZM157.97 56.5432V56.7893C157.97 57.3206 158.017 57.8167 158.11 58.2776C158.204 58.7385 158.352 59.1448 158.556 59.4963C158.767 59.8401 159.04 60.1096 159.376 60.3049C159.712 60.5002 160.122 60.5979 160.606 60.5979C161.075 60.5979 161.477 60.5002 161.813 60.3049C162.149 60.1096 162.419 59.8401 162.622 59.4963C162.825 59.1448 162.974 58.7385 163.067 58.2776C163.169 57.8167 163.22 57.3206 163.22 56.7893V56.5432C163.22 56.0276 163.169 55.5432 163.067 55.0901C162.974 54.6292 162.821 54.2229 162.61 53.8713C162.407 53.512 162.138 53.2307 161.802 53.0276C161.466 52.8245 161.06 52.7229 160.583 52.7229C160.106 52.7229 159.7 52.8245 159.364 53.0276C159.036 53.2307 158.767 53.512 158.556 53.8713C158.352 54.2229 158.204 54.6292 158.11 55.0901C158.017 55.5432 157.97 56.0276 157.97 56.5432ZM172.776 53.0862V63.0002H169.401V50.3206H172.576L172.776 53.0862ZM176.596 50.2385L176.537 53.3674C176.373 53.344 176.174 53.3245 175.94 53.3088C175.713 53.2854 175.506 53.2737 175.319 53.2737C174.842 53.2737 174.428 53.3362 174.076 53.4612C173.733 53.5784 173.444 53.7542 173.209 53.9885C172.983 54.2229 172.811 54.5081 172.694 54.844C172.584 55.1799 172.522 55.5627 172.506 55.9924L171.826 55.7815C171.826 54.9612 171.908 54.2073 172.072 53.5198C172.237 52.8245 172.475 52.219 172.787 51.7034C173.108 51.1877 173.498 50.7893 173.959 50.5081C174.42 50.2268 174.947 50.0862 175.541 50.0862C175.729 50.0862 175.92 50.1018 176.115 50.1331C176.311 50.1565 176.471 50.1917 176.596 50.2385ZM185.765 59.4963C185.765 59.2542 185.695 59.0354 185.554 58.8401C185.414 58.6448 185.152 58.4651 184.769 58.301C184.394 58.1292 183.851 57.9729 183.14 57.8323C182.5 57.6917 181.902 57.5159 181.347 57.3049C180.8 57.0862 180.324 56.8245 179.917 56.5198C179.519 56.2151 179.207 55.8557 178.98 55.4417C178.753 55.0198 178.64 54.5393 178.64 54.0002C178.64 53.469 178.753 52.969 178.98 52.5002C179.214 52.0315 179.546 51.6174 179.976 51.2581C180.414 50.8909 180.945 50.6057 181.57 50.4026C182.203 50.1917 182.914 50.0862 183.703 50.0862C184.804 50.0862 185.75 50.262 186.539 50.6135C187.335 50.9651 187.945 51.4495 188.367 52.0667C188.796 52.676 189.011 53.3713 189.011 54.1526H185.636C185.636 53.8245 185.566 53.5315 185.425 53.2737C185.292 53.0081 185.082 52.801 184.792 52.6526C184.511 52.4963 184.144 52.4182 183.691 52.4182C183.316 52.4182 182.992 52.4846 182.718 52.6174C182.445 52.7424 182.234 52.9143 182.085 53.1331C181.945 53.344 181.875 53.5784 181.875 53.8362C181.875 54.0315 181.914 54.2073 181.992 54.3635C182.078 54.512 182.214 54.6487 182.402 54.7737C182.589 54.8987 182.832 55.0159 183.128 55.1252C183.433 55.2268 183.808 55.3206 184.253 55.4065C185.167 55.594 185.984 55.8401 186.703 56.1448C187.421 56.4417 187.992 56.8479 188.414 57.3635C188.835 57.8713 189.046 58.5393 189.046 59.3674C189.046 59.9299 188.921 60.4456 188.671 60.9143C188.421 61.3831 188.062 61.7932 187.593 62.1448C187.125 62.4885 186.562 62.7581 185.906 62.9534C185.257 63.1409 184.527 63.2346 183.714 63.2346C182.535 63.2346 181.535 63.0237 180.714 62.6018C179.902 62.1799 179.285 61.6448 178.863 60.9963C178.449 60.3401 178.242 59.6682 178.242 58.9807H181.441C181.457 59.4417 181.574 59.8127 181.792 60.094C182.019 60.3752 182.304 60.5784 182.648 60.7034C183 60.8284 183.378 60.8909 183.785 60.8909C184.222 60.8909 184.585 60.8323 184.875 60.7151C185.164 60.5901 185.382 60.426 185.531 60.2229C185.687 60.012 185.765 59.7698 185.765 59.4963ZM201.338 53.8713L204.619 51.7502C205.104 51.4299 205.428 51.1213 205.592 50.8245C205.756 50.5276 205.838 50.1956 205.838 49.8284C205.838 49.4612 205.701 49.1213 205.428 48.8088C205.154 48.4885 204.772 48.3284 204.279 48.3284C203.928 48.3284 203.631 48.4104 203.389 48.5745C203.147 48.7307 202.963 48.9417 202.838 49.2073C202.721 49.4729 202.662 49.7698 202.662 50.0979C202.662 50.4495 202.756 50.8088 202.943 51.176C203.131 51.5354 203.385 51.9182 203.705 52.3245C204.025 52.7229 204.381 53.1565 204.772 53.6252L212.822 63.0002H208.99L202.428 55.4065C201.873 54.719 201.389 54.0901 200.975 53.5198C200.561 52.9417 200.236 52.3792 200.002 51.8323C199.768 51.2854 199.65 50.7229 199.65 50.1448C199.65 49.2542 199.842 48.4768 200.225 47.8127C200.607 47.1409 201.147 46.6213 201.842 46.2542C202.537 45.8792 203.354 45.6917 204.291 45.6917C205.174 45.6917 205.94 45.8752 206.588 46.2424C207.236 46.6018 207.736 47.0784 208.088 47.6721C208.447 48.2659 208.627 48.9182 208.627 49.6292C208.627 50.1604 208.529 50.6526 208.334 51.1057C208.139 51.551 207.869 51.9651 207.525 52.3479C207.182 52.7229 206.787 53.0706 206.342 53.3909L202.604 56.051C202.315 56.3167 202.096 56.5784 201.947 56.8362C201.799 57.094 201.697 57.3401 201.643 57.5745C201.588 57.801 201.561 58.0198 201.561 58.2307C201.561 58.6838 201.658 59.0901 201.854 59.4495C202.049 59.8088 202.322 60.0901 202.674 60.2932C203.025 60.4963 203.436 60.5979 203.904 60.5979C204.545 60.5979 205.166 60.4573 205.768 60.176C206.369 59.8948 206.908 59.4924 207.385 58.969C207.861 58.4377 208.24 57.8088 208.522 57.0823C208.803 56.3557 208.943 55.5549 208.943 54.6799H211.803C211.803 55.5549 211.717 56.387 211.545 57.176C211.373 57.9573 211.096 58.6838 210.713 59.3557C210.33 60.0198 209.822 60.6096 209.19 61.1252C209.143 61.1643 209.076 61.2229 208.99 61.301C208.912 61.3713 208.846 61.426 208.791 61.4651C208.041 62.0667 207.26 62.5159 206.447 62.8127C205.635 63.1018 204.729 63.2463 203.729 63.2463C202.588 63.2463 201.6 63.0393 200.764 62.6252C199.936 62.2112 199.295 61.6409 198.842 60.9143C198.397 60.1877 198.174 59.3557 198.174 58.4182C198.174 57.7307 198.307 57.1331 198.572 56.6252C198.846 56.1096 199.221 55.6331 199.697 55.1956C200.174 54.7581 200.721 54.3167 201.338 53.8713ZM225.817 45.9377V63.0002H222.313V45.9377H225.817ZM232.924 53.0276V63.0002H229.549V50.3206H232.713L232.924 53.0276ZM232.432 56.2151H231.517C231.517 55.2776 231.639 54.4338 231.881 53.6838C232.123 52.926 232.463 52.2815 232.9 51.7502C233.338 51.2112 233.857 50.801 234.459 50.5198C235.068 50.2307 235.748 50.0862 236.498 50.0862C237.092 50.0862 237.635 50.1721 238.127 50.344C238.619 50.5159 239.041 50.7893 239.392 51.1643C239.752 51.5393 240.025 52.0354 240.213 52.6526C240.408 53.2698 240.506 54.0237 240.506 54.9143V63.0002H237.107V54.9026C237.107 54.3401 237.029 53.9026 236.873 53.5901C236.717 53.2776 236.486 53.0588 236.182 52.9338C235.885 52.801 235.517 52.7346 235.08 52.7346C234.627 52.7346 234.232 52.8245 233.896 53.0042C233.568 53.1838 233.295 53.4338 233.076 53.7542C232.865 54.0667 232.705 54.4338 232.596 54.8557C232.486 55.2776 232.432 55.7307 232.432 56.2151ZM249.03 60.5979C249.445 60.5979 249.812 60.5198 250.132 60.3635C250.452 60.1995 250.702 59.9729 250.882 59.6838C251.07 59.387 251.167 59.0393 251.175 58.6409H254.351C254.343 59.5315 254.105 60.3245 253.636 61.0198C253.167 61.7073 252.538 62.2502 251.749 62.6487C250.96 63.0393 250.077 63.2346 249.101 63.2346C248.116 63.2346 247.257 63.0706 246.523 62.7424C245.796 62.4143 245.191 61.9612 244.706 61.3831C244.222 60.7971 243.859 60.1174 243.616 59.344C243.374 58.5627 243.253 57.7268 243.253 56.8362V56.4963C243.253 55.5979 243.374 54.762 243.616 53.9885C243.859 53.2073 244.222 52.5276 244.706 51.9495C245.191 51.3635 245.796 50.9065 246.523 50.5784C247.249 50.2502 248.101 50.0862 249.077 50.0862C250.116 50.0862 251.027 50.2854 251.808 50.6838C252.597 51.0823 253.214 51.6526 253.659 52.3948C254.112 53.1292 254.343 54.0002 254.351 55.0081H251.175C251.167 54.5862 251.077 54.2034 250.905 53.8596C250.741 53.5159 250.499 53.2424 250.179 53.0393C249.866 52.8284 249.48 52.7229 249.019 52.7229C248.527 52.7229 248.124 52.8284 247.812 53.0393C247.499 53.2424 247.257 53.5237 247.085 53.8831C246.913 54.2346 246.792 54.637 246.722 55.0901C246.659 55.5354 246.628 56.0042 246.628 56.4963V56.8362C246.628 57.3284 246.659 57.801 246.722 58.2542C246.784 58.7073 246.902 59.1096 247.073 59.4612C247.253 59.8127 247.499 60.0901 247.812 60.2932C248.124 60.4963 248.53 60.5979 249.03 60.5979ZM264.528 59.9651V50.3206H267.903V63.0002H264.727L264.528 59.9651ZM264.903 57.3635L265.899 57.3401C265.899 58.1838 265.801 58.969 265.606 59.6956C265.411 60.4143 265.118 61.0393 264.727 61.5706C264.336 62.094 263.844 62.5042 263.25 62.801C262.657 63.0901 261.957 63.2346 261.153 63.2346C260.536 63.2346 259.965 63.1487 259.442 62.9768C258.926 62.7971 258.481 62.5198 258.106 62.1448C257.739 61.762 257.45 61.2737 257.239 60.6799C257.036 60.0784 256.934 59.3557 256.934 58.512V50.3206H260.309V58.5354C260.309 58.9104 260.352 59.2268 260.438 59.4846C260.532 59.7424 260.661 59.9534 260.825 60.1174C260.989 60.2815 261.18 60.3987 261.399 60.469C261.625 60.5393 261.875 60.5745 262.149 60.5745C262.844 60.5745 263.391 60.4338 263.79 60.1526C264.196 59.8713 264.481 59.4885 264.645 59.0042C264.817 58.512 264.903 57.9651 264.903 57.3635ZM271.201 45.0002H274.576V60.094L274.236 63.0002H271.201V45.0002ZM282.603 56.5315V56.7776C282.603 57.7229 282.502 58.5901 282.299 59.3792C282.103 60.1682 281.799 60.8518 281.385 61.4299C280.97 62.0002 280.455 62.4456 279.838 62.7659C279.228 63.0784 278.51 63.2346 277.681 63.2346C276.908 63.2346 276.236 63.0784 275.666 62.7659C275.103 62.4534 274.631 62.012 274.248 61.4417C273.865 60.8713 273.556 60.2034 273.322 59.4377C273.088 58.6721 272.912 57.8362 272.795 56.9299V56.3909C272.912 55.4846 273.088 54.6487 273.322 53.8831C273.556 53.1174 273.865 52.4495 274.248 51.8792C274.631 51.3088 275.103 50.8674 275.666 50.5549C276.228 50.2424 276.892 50.0862 277.658 50.0862C278.494 50.0862 279.22 50.2463 279.838 50.5667C280.463 50.8792 280.978 51.3245 281.385 51.9026C281.799 52.4729 282.103 53.1526 282.299 53.9417C282.502 54.7229 282.603 55.5862 282.603 56.5315ZM279.228 56.7776V56.5315C279.228 56.0159 279.189 55.5315 279.111 55.0784C279.041 54.6174 278.916 54.2151 278.736 53.8713C278.556 53.5198 278.31 53.2424 277.998 53.0393C277.693 52.8362 277.299 52.7346 276.814 52.7346C276.353 52.7346 275.963 52.8127 275.642 52.969C275.322 53.1252 275.056 53.344 274.845 53.6252C274.642 53.9065 274.49 54.2424 274.388 54.6331C274.287 55.0159 274.224 55.4377 274.201 55.8987V57.4338C274.224 58.051 274.326 58.5979 274.506 59.0745C274.693 59.5432 274.974 59.9143 275.349 60.1877C275.732 60.4534 276.228 60.5862 276.838 60.5862C277.314 60.5862 277.709 60.4924 278.021 60.3049C278.334 60.1174 278.576 59.8518 278.748 59.5081C278.927 59.1643 279.052 58.762 279.123 58.301C279.193 57.8323 279.228 57.3245 279.228 56.7776ZM292.265 60.1409V54.4924C292.265 54.0862 292.198 53.7385 292.065 53.4495C291.933 53.1526 291.726 52.9221 291.444 52.7581C291.171 52.594 290.815 52.512 290.378 52.512C290.003 52.512 289.679 52.5784 289.405 52.7112C289.132 52.8362 288.921 53.0198 288.772 53.262C288.624 53.4963 288.55 53.7737 288.55 54.094H285.175C285.175 53.5549 285.3 53.0432 285.55 52.5588C285.8 52.0745 286.163 51.6487 286.64 51.2815C287.116 50.9065 287.683 50.6135 288.339 50.4026C289.003 50.1917 289.745 50.0862 290.565 50.0862C291.55 50.0862 292.425 50.2502 293.19 50.5784C293.956 50.9065 294.558 51.3987 294.995 52.0549C295.44 52.7112 295.663 53.5315 295.663 54.5159V59.9417C295.663 60.637 295.706 61.2073 295.792 61.6526C295.878 62.0901 296.003 62.4729 296.167 62.801V63.0002H292.757C292.593 62.6565 292.468 62.2268 292.382 61.7112C292.304 61.1877 292.265 60.6643 292.265 60.1409ZM292.71 55.2776L292.733 57.1877H290.847C290.401 57.1877 290.015 57.2385 289.687 57.3401C289.358 57.4417 289.089 57.5862 288.878 57.7737C288.667 57.9534 288.511 58.1643 288.409 58.4065C288.315 58.6487 288.269 58.9143 288.269 59.2034C288.269 59.4924 288.335 59.7542 288.468 59.9885C288.601 60.2151 288.792 60.3948 289.042 60.5276C289.292 60.6526 289.585 60.7151 289.921 60.7151C290.429 60.7151 290.87 60.6135 291.245 60.4104C291.62 60.2073 291.909 59.9573 292.112 59.6604C292.323 59.3635 292.433 59.0823 292.44 58.8167L293.331 60.2463C293.206 60.5667 293.034 60.8987 292.815 61.2424C292.605 61.5862 292.335 61.9104 292.007 62.2151C291.679 62.512 291.284 62.7581 290.823 62.9534C290.362 63.1409 289.815 63.2346 289.183 63.2346C288.378 63.2346 287.647 63.0745 286.991 62.7542C286.343 62.426 285.827 61.9768 285.444 61.4065C285.069 60.8284 284.882 60.1721 284.882 59.4377C284.882 58.7737 285.007 58.1838 285.257 57.6682C285.507 57.1526 285.874 56.719 286.358 56.3674C286.851 56.0081 287.464 55.7385 288.198 55.5588C288.933 55.3713 289.784 55.2776 290.753 55.2776H292.71ZM305.196 50.3206V52.7112H297.813V50.3206H305.196ZM299.641 47.1917H303.016V59.1799C303.016 59.5471 303.063 59.8284 303.157 60.0237C303.258 60.219 303.407 60.3557 303.602 60.4338C303.797 60.5042 304.043 60.5393 304.34 60.5393C304.551 60.5393 304.739 60.5315 304.903 60.5159C305.075 60.4924 305.219 60.469 305.336 60.4456L305.348 62.9299C305.059 63.0237 304.746 63.0979 304.41 63.1526C304.075 63.2073 303.703 63.2346 303.297 63.2346C302.555 63.2346 301.907 63.1135 301.352 62.8713C300.805 62.6213 300.383 62.2229 300.086 61.676C299.789 61.1292 299.641 60.4104 299.641 59.5198V47.1917ZM306.994 56.7893V56.5432C306.994 55.6135 307.127 54.7581 307.392 53.9768C307.658 53.1877 308.045 52.5042 308.552 51.926C309.06 51.3479 309.685 50.8987 310.427 50.5784C311.17 50.2502 312.021 50.0862 312.982 50.0862C313.943 50.0862 314.798 50.2502 315.548 50.5784C316.298 50.8987 316.927 51.3479 317.435 51.926C317.951 52.5042 318.341 53.1877 318.607 53.9768C318.873 54.7581 319.005 55.6135 319.005 56.5432V56.7893C319.005 57.7112 318.873 58.5667 318.607 59.3557C318.341 60.137 317.951 60.8206 317.435 61.4065C316.927 61.9846 316.302 62.4338 315.56 62.7542C314.818 63.0745 313.966 63.2346 313.005 63.2346C312.045 63.2346 311.189 63.0745 310.439 62.7542C309.697 62.4338 309.068 61.9846 308.552 61.4065C308.045 60.8206 307.658 60.137 307.392 59.3557C307.127 58.5667 306.994 57.7112 306.994 56.7893ZM310.369 56.5432V56.7893C310.369 57.3206 310.416 57.8167 310.509 58.2776C310.603 58.7385 310.752 59.1448 310.955 59.4963C311.166 59.8401 311.439 60.1096 311.775 60.3049C312.111 60.5002 312.521 60.5979 313.005 60.5979C313.474 60.5979 313.877 60.5002 314.212 60.3049C314.548 60.1096 314.818 59.8401 315.021 59.4963C315.224 59.1448 315.373 58.7385 315.466 58.2776C315.568 57.8167 315.619 57.3206 315.619 56.7893V56.5432C315.619 56.0276 315.568 55.5432 315.466 55.0901C315.373 54.6292 315.22 54.2229 315.009 53.8713C314.806 53.512 314.537 53.2307 314.201 53.0276C313.865 52.8245 313.459 52.7229 312.982 52.7229C312.505 52.7229 312.099 52.8245 311.763 53.0276C311.435 53.2307 311.166 53.512 310.955 53.8713C310.752 54.2229 310.603 54.6292 310.509 55.0901C310.416 55.5432 310.369 56.0276 310.369 56.5432ZM325.175 53.0862V63.0002H321.8V50.3206H324.975L325.175 53.0862ZM328.995 50.2385L328.936 53.3674C328.772 53.344 328.573 53.3245 328.339 53.3088C328.112 53.2854 327.905 53.2737 327.718 53.2737C327.241 53.2737 326.827 53.3362 326.475 53.4612C326.132 53.5784 325.843 53.7542 325.608 53.9885C325.382 54.2229 325.21 54.5081 325.093 54.844C324.983 55.1799 324.921 55.5627 324.905 55.9924L324.225 55.7815C324.225 54.9612 324.307 54.2073 324.472 53.5198C324.636 52.8245 324.874 52.219 325.186 51.7034C325.507 51.1877 325.897 50.7893 326.358 50.5081C326.819 50.2268 327.347 50.0862 327.94 50.0862C328.128 50.0862 328.319 50.1018 328.515 50.1331C328.71 50.1565 328.87 50.1917 328.995 50.2385ZM338.164 59.4963C338.164 59.2542 338.094 59.0354 337.953 58.8401C337.813 58.6448 337.551 58.4651 337.168 58.301C336.793 58.1292 336.25 57.9729 335.539 57.8323C334.899 57.6917 334.301 57.5159 333.746 57.3049C333.199 57.0862 332.723 56.8245 332.317 56.5198C331.918 56.2151 331.606 55.8557 331.379 55.4417C331.152 55.0198 331.039 54.5393 331.039 54.0002C331.039 53.469 331.152 52.969 331.379 52.5002C331.613 52.0315 331.945 51.6174 332.375 51.2581C332.813 50.8909 333.344 50.6057 333.969 50.4026C334.602 50.1917 335.313 50.0862 336.102 50.0862C337.203 50.0862 338.149 50.262 338.938 50.6135C339.735 50.9651 340.344 51.4495 340.766 52.0667C341.195 52.676 341.41 53.3713 341.41 54.1526H338.035C338.035 53.8245 337.965 53.5315 337.824 53.2737C337.692 53.0081 337.481 52.801 337.192 52.6526C336.91 52.4963 336.543 52.4182 336.09 52.4182C335.715 52.4182 335.391 52.4846 335.117 52.6174C334.844 52.7424 334.633 52.9143 334.485 53.1331C334.344 53.344 334.274 53.5784 334.274 53.8362C334.274 54.0315 334.313 54.2073 334.391 54.3635C334.477 54.512 334.613 54.6487 334.801 54.7737C334.988 54.8987 335.231 55.0159 335.527 55.1252C335.832 55.2268 336.207 55.3206 336.652 55.4065C337.567 55.594 338.383 55.8401 339.102 56.1448C339.82 56.4417 340.391 56.8479 340.813 57.3635C341.235 57.8713 341.445 58.5393 341.445 59.3674C341.445 59.9299 341.32 60.4456 341.07 60.9143C340.82 61.3831 340.461 61.7932 339.992 62.1448C339.524 62.4885 338.961 62.7581 338.305 62.9534C337.656 63.1409 336.926 63.2346 336.113 63.2346C334.934 63.2346 333.934 63.0237 333.113 62.6018C332.301 62.1799 331.684 61.6448 331.262 60.9963C330.848 60.3401 330.641 59.6682 330.641 58.9807H333.84C333.856 59.4417 333.973 59.8127 334.192 60.094C334.418 60.3752 334.703 60.5784 335.047 60.7034C335.399 60.8284 335.777 60.8909 336.184 60.8909C336.621 60.8909 336.985 60.8323 337.274 60.7151C337.563 60.5901 337.781 60.426 337.93 60.2229C338.086 60.012 338.164 59.7698 338.164 59.4963Z" fill="#114DFF"/>
<g clip-path="url(#clip0_65_384)">
<path d="M76.7346 42.8942L78.5214 48.3612C78.5777 48.5355 78.7404 48.6507 78.9219 48.6507H84.7015C85.9595 48.6507 86.482 50.251 85.465 50.9857L80.79 54.3637C80.643 54.4695 80.5804 54.6594 80.6367 54.8338L82.4235 60.3008C82.8115 61.4901 81.444 62.4801 80.427 61.7453L75.752 58.3674C75.605 58.2615 75.4047 58.2615 75.2576 58.3674L70.5826 61.7453C69.5656 62.4801 68.195 61.4901 68.5862 60.3008L70.373 54.8338C70.4293 54.6594 70.3667 54.4726 70.2196 54.3637L65.5384 50.9888C64.5214 50.2541 65.0439 48.6538 66.3019 48.6538H72.0815C72.263 48.6538 72.4257 48.5355 72.482 48.3643L74.2657 42.8942C74.6537 41.7049 76.3466 41.7049 76.7346 42.8942Z" fill="#114DFF"/>
</g>
<path d="M70.2772 99.5662V105.031C70.0926 105.305 69.7986 105.613 69.3953 105.954C68.992 106.289 68.4349 106.583 67.7239 106.836C67.0198 107.082 66.1107 107.205 64.9964 107.205C64.0872 107.205 63.2498 107.048 62.4842 106.734C61.7254 106.412 61.0657 105.948 60.5052 105.339C59.9515 104.724 59.5208 103.979 59.2132 103.104C58.9124 102.222 58.762 101.224 58.762 100.11V98.9509C58.762 97.8367 58.8919 96.842 59.1517 95.967C59.4183 95.092 59.8079 94.3503 60.3206 93.7419C60.8333 93.1267 61.4622 92.6619 62.2073 92.3474C62.9525 92.0261 63.8069 91.8655 64.7708 91.8655C65.9124 91.8655 66.866 92.0637 67.6317 92.4602C68.4041 92.8499 69.0057 93.3899 69.4363 94.0803C69.8738 94.7708 70.1541 95.5569 70.2772 96.4387H68.2982C68.2093 95.8987 68.0316 95.4065 67.765 94.9622C67.5052 94.5178 67.1326 94.1624 66.6473 93.8958C66.1619 93.6223 65.5364 93.4856 64.7708 93.4856C64.0804 93.4856 63.4822 93.6121 62.9764 93.865C62.4705 94.1179 62.0535 94.4802 61.7254 94.9519C61.3973 95.4236 61.1512 95.9944 60.9871 96.6643C60.8299 97.3342 60.7513 98.0896 60.7513 98.9304V100.11C60.7513 100.971 60.8504 101.74 61.0486 102.417C61.2537 103.094 61.5443 103.671 61.9202 104.15C62.2962 104.621 62.744 104.98 63.2635 105.226C63.7899 105.472 64.3709 105.595 65.0067 105.595C65.7108 105.595 66.2816 105.537 66.7191 105.421C67.1566 105.298 67.4984 105.155 67.7444 104.99C67.9905 104.82 68.1785 104.659 68.3084 104.509V101.166H64.8528V99.5662H70.2772ZM78.5053 107.205C77.7328 107.205 77.0322 107.075 76.4033 106.816C75.7812 106.549 75.2446 106.177 74.7934 105.698C74.3491 105.219 74.0073 104.652 73.768 103.996C73.5287 103.34 73.4091 102.622 73.4091 101.843V101.412C73.4091 100.51 73.5424 99.7063 73.809 99.0022C74.0756 98.2913 74.4379 97.6897 74.8959 97.1975C75.3539 96.7053 75.8735 96.3328 76.4545 96.0798C77.0356 95.8269 77.6371 95.7004 78.2592 95.7004C79.0522 95.7004 79.7358 95.8372 80.31 96.1106C80.891 96.384 81.3661 96.7668 81.7353 97.259C82.1044 97.7444 82.3779 98.3186 82.5556 98.9817C82.7333 99.6379 82.8222 100.356 82.8222 101.135V101.986H74.537V100.438H80.9252V100.294C80.8979 99.802 80.7953 99.3235 80.6176 98.8586C80.4467 98.3938 80.1733 98.011 79.7973 97.7102C79.4213 97.4094 78.9086 97.259 78.2592 97.259C77.8285 97.259 77.4321 97.3513 77.0698 97.5359C76.7075 97.7136 76.3964 97.9802 76.1367 98.3357C75.8769 98.6912 75.6752 99.1252 75.5317 99.6379C75.3881 100.151 75.3163 100.742 75.3163 101.412V101.843C75.3163 102.369 75.3881 102.865 75.5317 103.329C75.6821 103.787 75.8974 104.191 76.1777 104.539C76.4648 104.888 76.81 105.161 77.2133 105.36C77.6235 105.558 78.0883 105.657 78.6078 105.657C79.2778 105.657 79.8451 105.52 80.31 105.247C80.7748 104.973 81.1816 104.608 81.5302 104.15L82.6786 105.062C82.4394 105.425 82.1352 105.77 81.766 106.098C81.3969 106.426 80.9423 106.693 80.4023 106.898C79.8691 107.103 79.2368 107.205 78.5053 107.205ZM90.3121 95.9055V97.3616H84.3135V95.9055H90.3121ZM86.3438 93.2087H88.2408V104.252C88.2408 104.628 88.2989 104.912 88.4151 105.103C88.5313 105.295 88.6817 105.421 88.8663 105.483C89.0508 105.544 89.2491 105.575 89.461 105.575C89.6182 105.575 89.7823 105.561 89.9532 105.534C90.1309 105.5 90.2642 105.472 90.3531 105.452L90.3633 107C90.2129 107.048 90.0147 107.093 89.7686 107.134C89.5293 107.181 89.2388 107.205 88.897 107.205C88.4322 107.205 88.0049 107.113 87.6153 106.928C87.2256 106.744 86.9146 106.436 86.6822 106.006C86.4566 105.568 86.3438 104.98 86.3438 104.242V93.2087ZM101.067 95.9055V107H99.16V95.9055H101.067ZM99.0164 92.9626C99.0164 92.655 99.1087 92.3953 99.2933 92.1833C99.4847 91.9714 99.7649 91.8655 100.134 91.8655C100.496 91.8655 100.773 91.9714 100.965 92.1833C101.163 92.3953 101.262 92.655 101.262 92.9626C101.262 93.2566 101.163 93.5095 100.965 93.7214C100.773 93.9265 100.496 94.0291 100.134 94.0291C99.7649 94.0291 99.4847 93.9265 99.2933 93.7214C99.1087 93.5095 99.0164 93.2566 99.0164 92.9626ZM106.64 98.2742V107H104.743V95.9055H106.537L106.64 98.2742ZM106.188 101.032L105.399 101.002C105.406 100.243 105.518 99.5422 105.737 98.8997C105.956 98.2502 106.264 97.6863 106.66 97.2078C107.057 96.7292 107.528 96.3601 108.075 96.1003C108.629 95.8337 109.241 95.7004 109.911 95.7004C110.457 95.7004 110.95 95.7756 111.387 95.926C111.825 96.0696 112.197 96.302 112.505 96.6233C112.819 96.9446 113.059 97.3616 113.223 97.8743C113.387 98.3801 113.469 98.9988 113.469 99.7302V107H111.561V99.7097C111.561 99.1287 111.476 98.6638 111.305 98.3152C111.134 97.9597 110.885 97.7034 110.557 97.5461C110.228 97.3821 109.825 97.3 109.347 97.3C108.875 97.3 108.444 97.3992 108.055 97.5974C107.672 97.7957 107.34 98.0691 107.06 98.4177C106.787 98.7664 106.571 99.1663 106.414 99.6174C106.264 100.062 106.188 100.533 106.188 101.032ZM121.42 105.647C121.871 105.647 122.288 105.554 122.671 105.37C123.054 105.185 123.368 104.932 123.614 104.611C123.86 104.283 124.001 103.91 124.035 103.493H125.839C125.805 104.15 125.583 104.761 125.173 105.329C124.77 105.889 124.24 106.344 123.584 106.693C122.927 107.034 122.206 107.205 121.42 107.205C120.586 107.205 119.858 107.058 119.236 106.764C118.621 106.47 118.108 106.067 117.698 105.554C117.294 105.042 116.99 104.454 116.785 103.791C116.587 103.121 116.488 102.413 116.488 101.668V101.238C116.488 100.492 116.587 99.7883 116.785 99.1252C116.99 98.4553 117.294 97.864 117.698 97.3513C118.108 96.8386 118.621 96.4353 119.236 96.1414C119.858 95.8474 120.586 95.7004 121.42 95.7004C122.288 95.7004 123.047 95.8782 123.696 96.2336C124.346 96.5823 124.855 97.0608 125.224 97.6692C125.6 98.2708 125.805 98.9543 125.839 99.72H124.035C124.001 99.262 123.871 98.8484 123.645 98.4792C123.426 98.1101 123.126 97.8162 122.743 97.5974C122.367 97.3718 121.926 97.259 121.42 97.259C120.839 97.259 120.35 97.3752 119.954 97.6077C119.564 97.8333 119.253 98.1409 119.021 98.5305C118.795 98.9133 118.631 99.3406 118.528 99.8123C118.433 100.277 118.385 100.752 118.385 101.238V101.668C118.385 102.154 118.433 102.632 118.528 103.104C118.624 103.575 118.785 104.003 119.01 104.385C119.243 104.768 119.554 105.076 119.943 105.308C120.34 105.534 120.832 105.647 121.42 105.647ZM135.39 104.437V95.9055H137.298V107H135.483L135.39 104.437ZM135.749 102.099L136.539 102.078C136.539 102.817 136.46 103.5 136.303 104.129C136.152 104.751 135.906 105.291 135.565 105.749C135.223 106.207 134.775 106.566 134.221 106.826C133.668 107.079 132.994 107.205 132.201 107.205C131.661 107.205 131.166 107.127 130.715 106.969C130.27 106.812 129.887 106.57 129.566 106.241C129.245 105.913 128.995 105.486 128.818 104.96C128.647 104.433 128.561 103.801 128.561 103.063V95.9055H130.458V103.083C130.458 103.582 130.513 103.996 130.622 104.324C130.738 104.645 130.892 104.902 131.084 105.093C131.282 105.278 131.501 105.407 131.74 105.483C131.986 105.558 132.239 105.595 132.499 105.595C133.305 105.595 133.944 105.442 134.416 105.134C134.888 104.82 135.226 104.399 135.431 103.873C135.643 103.34 135.749 102.748 135.749 102.099ZM140.809 91.2502H142.716V104.847L142.552 107H140.809V91.2502ZM150.212 101.361V101.576C150.212 102.383 150.116 103.131 149.925 103.822C149.733 104.505 149.453 105.1 149.084 105.606C148.715 106.112 148.263 106.505 147.73 106.785C147.197 107.065 146.585 107.205 145.895 107.205C145.191 107.205 144.572 107.086 144.039 106.846C143.512 106.6 143.068 106.248 142.706 105.79C142.344 105.332 142.053 104.779 141.834 104.129C141.622 103.48 141.475 102.748 141.393 101.935V100.991C141.475 100.171 141.622 99.4363 141.834 98.7869C142.053 98.1375 142.344 97.5837 142.706 97.1257C143.068 96.6609 143.512 96.3088 144.039 96.0696C144.565 95.8235 145.177 95.7004 145.874 95.7004C146.572 95.7004 147.19 95.8372 147.73 96.1106C148.27 96.3772 148.721 96.76 149.084 97.259C149.453 97.7581 149.733 98.3562 149.925 99.0535C150.116 99.7439 150.212 100.513 150.212 101.361ZM148.304 101.576V101.361C148.304 100.807 148.253 100.287 148.151 99.802C148.048 99.3098 147.884 98.8792 147.658 98.51C147.433 98.134 147.136 97.8401 146.766 97.6282C146.397 97.4094 145.943 97.3 145.403 97.3C144.924 97.3 144.507 97.3821 144.152 97.5461C143.803 97.7102 143.506 97.9324 143.26 98.2126C143.013 98.4861 142.812 98.8005 142.655 99.156C142.504 99.5046 142.391 99.8669 142.316 100.243V102.714C142.426 103.193 142.603 103.654 142.849 104.098C143.102 104.536 143.437 104.895 143.854 105.175C144.278 105.455 144.801 105.595 145.423 105.595C145.936 105.595 146.373 105.493 146.736 105.288C147.105 105.076 147.402 104.785 147.628 104.416C147.86 104.047 148.031 103.62 148.14 103.135C148.25 102.649 148.304 102.13 148.304 101.576ZM159.783 105.103V99.3918C159.783 98.9543 159.694 98.575 159.516 98.2537C159.346 97.9255 159.086 97.6726 158.737 97.4949C158.389 97.3171 157.958 97.2283 157.445 97.2283C156.967 97.2283 156.546 97.3103 156.184 97.4744C155.829 97.6384 155.548 97.8538 155.343 98.1204C155.145 98.387 155.046 98.6741 155.046 98.9817H153.149C153.149 98.5852 153.251 98.1921 153.456 97.8025C153.662 97.4128 153.955 97.0608 154.338 96.7463C154.728 96.425 155.193 96.1721 155.733 95.9875C156.28 95.7961 156.888 95.7004 157.558 95.7004C158.365 95.7004 159.076 95.8372 159.691 96.1106C160.313 96.384 160.798 96.7976 161.147 97.3513C161.502 97.8982 161.68 98.5852 161.68 99.4124V104.58C161.68 104.949 161.711 105.343 161.772 105.76C161.841 106.177 161.94 106.535 162.07 106.836V107H160.091C159.995 106.781 159.92 106.491 159.865 106.129C159.81 105.76 159.783 105.418 159.783 105.103ZM160.111 100.274L160.132 101.607H158.214C157.674 101.607 157.192 101.651 156.768 101.74C156.345 101.822 155.989 101.948 155.702 102.119C155.415 102.29 155.196 102.506 155.046 102.765C154.895 103.018 154.82 103.316 154.82 103.657C154.82 104.006 154.899 104.324 155.056 104.611C155.213 104.898 155.449 105.127 155.764 105.298C156.085 105.462 156.478 105.544 156.943 105.544C157.524 105.544 158.037 105.421 158.481 105.175C158.925 104.929 159.277 104.628 159.537 104.273C159.804 103.917 159.947 103.572 159.968 103.237L160.778 104.15C160.73 104.437 160.6 104.755 160.388 105.103C160.176 105.452 159.892 105.787 159.537 106.108C159.188 106.423 158.771 106.686 158.286 106.898C157.808 107.103 157.267 107.205 156.666 107.205C155.914 107.205 155.254 107.058 154.687 106.764C154.126 106.47 153.689 106.077 153.374 105.585C153.067 105.086 152.913 104.529 152.913 103.914C152.913 103.319 153.029 102.796 153.262 102.345C153.494 101.887 153.829 101.508 154.266 101.207C154.704 100.899 155.23 100.667 155.846 100.51C156.461 100.352 157.148 100.274 157.907 100.274H160.111ZM169.939 95.9055V97.3616H163.94V95.9055H169.939ZM165.971 93.2087H167.868V104.252C167.868 104.628 167.926 104.912 168.042 105.103C168.158 105.295 168.309 105.421 168.493 105.483C168.678 105.544 168.876 105.575 169.088 105.575C169.245 105.575 169.409 105.561 169.58 105.534C169.758 105.5 169.891 105.472 169.98 105.452L169.99 107C169.84 107.048 169.642 107.093 169.396 107.134C169.156 107.181 168.866 107.205 168.524 107.205C168.059 107.205 167.632 107.113 167.242 106.928C166.853 106.744 166.542 106.436 166.309 106.006C166.084 105.568 165.971 104.98 165.971 104.242V93.2087ZM177.398 107.205C176.626 107.205 175.925 107.075 175.296 106.816C174.674 106.549 174.137 106.177 173.686 105.698C173.242 105.219 172.9 104.652 172.661 103.996C172.422 103.34 172.302 102.622 172.302 101.843V101.412C172.302 100.51 172.435 99.7063 172.702 99.0022C172.968 98.2913 173.331 97.6897 173.789 97.1975C174.247 96.7053 174.766 96.3328 175.347 96.0798C175.928 95.8269 176.53 95.7004 177.152 95.7004C177.945 95.7004 178.629 95.8372 179.203 96.1106C179.784 96.384 180.259 96.7668 180.628 97.259C180.997 97.7444 181.271 98.3186 181.448 98.9817C181.626 99.6379 181.715 100.356 181.715 101.135V101.986H173.43V100.438H179.818V100.294C179.791 99.802 179.688 99.3235 179.51 98.8586C179.339 98.3938 179.066 98.011 178.69 97.7102C178.314 97.4094 177.801 97.259 177.152 97.259C176.721 97.259 176.325 97.3513 175.963 97.5359C175.6 97.7136 175.289 97.9802 175.029 98.3357C174.77 98.6912 174.568 99.1252 174.424 99.6379C174.281 100.151 174.209 100.742 174.209 101.412V101.843C174.209 102.369 174.281 102.865 174.424 103.329C174.575 103.787 174.79 104.191 175.07 104.539C175.358 104.888 175.703 105.161 176.106 105.36C176.516 105.558 176.981 105.657 177.501 105.657C178.171 105.657 178.738 105.52 179.203 105.247C179.668 104.973 180.074 104.608 180.423 104.15L181.571 105.062C181.332 105.425 181.028 105.77 180.659 106.098C180.29 106.426 179.835 106.693 179.295 106.898C178.762 107.103 178.13 107.205 177.398 107.205ZM191.553 104.847V91.2502H193.46V107H191.717L191.553 104.847ZM184.088 101.576V101.361C184.088 100.513 184.191 99.7439 184.396 99.0535C184.608 98.3562 184.905 97.7581 185.288 97.259C185.677 96.76 186.139 96.3772 186.672 96.1106C187.212 95.8372 187.814 95.7004 188.477 95.7004C189.174 95.7004 189.782 95.8235 190.302 96.0696C190.828 96.3088 191.273 96.6609 191.635 97.1257C192.004 97.5837 192.295 98.1375 192.507 98.7869C192.719 99.4363 192.865 100.171 192.948 100.991V101.935C192.872 102.748 192.725 103.48 192.507 104.129C192.295 104.779 192.004 105.332 191.635 105.79C191.273 106.248 190.828 106.6 190.302 106.846C189.776 107.086 189.16 107.205 188.456 107.205C187.807 107.205 187.212 107.065 186.672 106.785C186.139 106.505 185.677 106.112 185.288 105.606C184.905 105.1 184.608 104.505 184.396 103.822C184.191 103.131 184.088 102.383 184.088 101.576ZM185.995 101.361V101.576C185.995 102.13 186.05 102.649 186.159 103.135C186.276 103.62 186.453 104.047 186.693 104.416C186.932 104.785 187.236 105.076 187.605 105.288C187.974 105.493 188.415 105.595 188.928 105.595C189.557 105.595 190.073 105.462 190.476 105.196C190.886 104.929 191.215 104.577 191.461 104.139C191.707 103.702 191.898 103.227 192.035 102.714V100.243C191.953 99.8669 191.833 99.5046 191.676 99.156C191.526 98.8005 191.327 98.4861 191.081 98.2126C190.842 97.9324 190.545 97.7102 190.189 97.5461C189.841 97.3821 189.427 97.3 188.948 97.3C188.429 97.3 187.981 97.4094 187.605 97.6282C187.236 97.8401 186.932 98.134 186.693 98.51C186.453 98.8792 186.276 99.3098 186.159 99.802C186.05 100.287 185.995 100.807 185.995 101.361ZM202.872 91.2502H204.779V104.847L204.615 107H202.872V91.2502ZM212.275 101.361V101.576C212.275 102.383 212.179 103.131 211.988 103.822C211.796 104.505 211.516 105.1 211.147 105.606C210.778 106.112 210.327 106.505 209.793 106.785C209.26 107.065 208.648 107.205 207.958 107.205C207.254 107.205 206.635 107.086 206.102 106.846C205.576 106.6 205.131 106.248 204.769 105.79C204.407 105.332 204.116 104.779 203.897 104.129C203.686 103.48 203.539 102.748 203.457 101.935V100.991C203.539 100.171 203.686 99.4363 203.897 98.7869C204.116 98.1375 204.407 97.5837 204.769 97.1257C205.131 96.6609 205.576 96.3088 206.102 96.0696C206.628 95.8235 207.24 95.7004 207.938 95.7004C208.635 95.7004 209.253 95.8372 209.793 96.1106C210.333 96.3772 210.785 96.76 211.147 97.259C211.516 97.7581 211.796 98.3562 211.988 99.0535C212.179 99.7439 212.275 100.513 212.275 101.361ZM210.368 101.576V101.361C210.368 100.807 210.316 100.287 210.214 99.802C210.111 99.3098 209.947 98.8792 209.722 98.51C209.496 98.134 209.199 97.8401 208.83 97.6282C208.46 97.4094 208.006 97.3 207.466 97.3C206.987 97.3 206.57 97.3821 206.215 97.5461C205.866 97.7102 205.569 97.9324 205.323 98.2126C205.077 98.4861 204.875 98.8005 204.718 99.156C204.567 99.5046 204.455 99.8669 204.379 100.243V102.714C204.489 103.193 204.667 103.654 204.913 104.098C205.166 104.536 205.5 104.895 205.917 105.175C206.341 105.455 206.864 105.595 207.486 105.595C207.999 105.595 208.437 105.493 208.799 105.288C209.168 105.076 209.465 104.785 209.691 104.416C209.923 104.047 210.094 103.62 210.204 103.135C210.313 102.649 210.368 102.13 210.368 101.576ZM218.298 105.852L221.385 95.9055H223.415L218.965 108.713C218.862 108.986 218.726 109.28 218.555 109.594C218.391 109.916 218.179 110.22 217.919 110.507C217.659 110.794 217.345 111.027 216.976 111.204C216.613 111.389 216.179 111.481 215.673 111.481C215.523 111.481 215.332 111.461 215.099 111.42C214.867 111.379 214.703 111.344 214.607 111.317L214.597 109.779C214.651 109.786 214.737 109.793 214.853 109.8C214.976 109.813 215.062 109.82 215.109 109.82C215.54 109.82 215.906 109.762 216.207 109.646C216.507 109.536 216.76 109.348 216.965 109.082C217.177 108.822 217.359 108.463 217.509 108.005L218.298 105.852ZM216.032 95.9055L218.914 104.519L219.406 106.518L218.042 107.216L213.961 95.9055H216.032ZM236.242 95.9055V97.3616H230.243V95.9055H236.242ZM232.273 93.2087H234.17V104.252C234.17 104.628 234.228 104.912 234.345 105.103C234.461 105.295 234.611 105.421 234.796 105.483C234.98 105.544 235.179 105.575 235.39 105.575C235.548 105.575 235.712 105.561 235.883 105.534C236.06 105.5 236.194 105.472 236.283 105.452L236.293 107C236.142 107.048 235.944 107.093 235.698 107.134C235.459 107.181 235.168 107.205 234.827 107.205C234.362 107.205 233.934 107.113 233.545 106.928C233.155 106.744 232.844 106.436 232.612 106.006C232.386 105.568 232.273 104.98 232.273 104.242V93.2087ZM238.389 101.576V101.34C238.389 100.54 238.505 99.7986 238.738 99.115C238.97 98.4246 239.305 97.8264 239.743 97.3206C240.18 96.8079 240.71 96.4114 241.332 96.1311C241.954 95.844 242.651 95.7004 243.424 95.7004C244.203 95.7004 244.904 95.844 245.526 96.1311C246.155 96.4114 246.688 96.8079 247.125 97.3206C247.57 97.8264 247.908 98.4246 248.141 99.115C248.373 99.7986 248.489 100.54 248.489 101.34V101.576C248.489 102.376 248.373 103.117 248.141 103.801C247.908 104.485 247.57 105.083 247.125 105.595C246.688 106.101 246.158 106.498 245.536 106.785C244.921 107.065 244.224 107.205 243.444 107.205C242.665 107.205 241.964 107.065 241.342 106.785C240.72 106.498 240.187 106.101 239.743 105.595C239.305 105.083 238.97 104.485 238.738 103.801C238.505 103.117 238.389 102.376 238.389 101.576ZM240.286 101.34V101.576C240.286 102.13 240.351 102.653 240.481 103.145C240.611 103.63 240.806 104.061 241.065 104.437C241.332 104.813 241.664 105.11 242.06 105.329C242.457 105.541 242.918 105.647 243.444 105.647C243.964 105.647 244.418 105.541 244.808 105.329C245.205 105.11 245.533 104.813 245.792 104.437C246.052 104.061 246.247 103.63 246.377 103.145C246.514 102.653 246.582 102.13 246.582 101.576V101.34C246.582 100.793 246.514 100.277 246.377 99.7917C246.247 99.2996 246.049 98.8655 245.782 98.4895C245.522 98.1067 245.194 97.8059 244.798 97.5872C244.408 97.3684 243.95 97.259 243.424 97.259C242.904 97.259 242.446 97.3684 242.05 97.5872C241.66 97.8059 241.332 98.1067 241.065 98.4895C240.806 98.8655 240.611 99.2996 240.481 99.7917C240.351 100.277 240.286 100.793 240.286 101.34ZM253.395 98.0383V111.266H251.488V95.9055H253.231L253.395 98.0383ZM260.87 101.361V101.576C260.87 102.383 260.775 103.131 260.583 103.822C260.392 104.505 260.111 105.1 259.742 105.606C259.38 106.112 258.932 106.505 258.399 106.785C257.866 107.065 257.254 107.205 256.564 107.205C255.859 107.205 255.237 107.089 254.697 106.857C254.157 106.624 253.699 106.286 253.323 105.842C252.947 105.397 252.647 104.864 252.421 104.242C252.202 103.62 252.052 102.919 251.97 102.14V100.991C252.052 100.171 252.206 99.4363 252.431 98.7869C252.657 98.1375 252.954 97.5837 253.323 97.1257C253.699 96.6609 254.154 96.3088 254.687 96.0696C255.22 95.8235 255.836 95.7004 256.533 95.7004C257.23 95.7004 257.849 95.8372 258.389 96.1106C258.929 96.3772 259.383 96.76 259.753 97.259C260.122 97.7581 260.399 98.3562 260.583 99.0535C260.775 99.7439 260.87 100.513 260.87 101.361ZM258.963 101.576V101.361C258.963 100.807 258.905 100.287 258.789 99.802C258.672 99.3098 258.491 98.8792 258.245 98.51C258.006 98.134 257.698 97.8401 257.322 97.6282C256.946 97.4094 256.499 97.3 255.979 97.3C255.501 97.3 255.084 97.3821 254.728 97.5461C254.379 97.7102 254.082 97.9324 253.836 98.2126C253.59 98.4861 253.388 98.8005 253.231 99.156C253.081 99.5046 252.968 99.8669 252.893 100.243V102.899C253.029 103.377 253.221 103.828 253.467 104.252C253.713 104.669 254.041 105.008 254.451 105.267C254.861 105.52 255.378 105.647 256 105.647C256.512 105.647 256.953 105.541 257.322 105.329C257.698 105.11 258.006 104.813 258.245 104.437C258.491 104.061 258.672 103.63 258.789 103.145C258.905 102.653 258.963 102.13 258.963 101.576ZM271.646 98.1101V107H269.739V95.9055H271.543L271.646 98.1101ZM271.256 101.032L270.374 101.002C270.381 100.243 270.48 99.5422 270.672 98.8997C270.863 98.2502 271.147 97.6863 271.523 97.2078C271.899 96.7292 272.367 96.3601 272.928 96.1003C273.488 95.8337 274.138 95.7004 274.876 95.7004C275.395 95.7004 275.874 95.7756 276.311 95.926C276.749 96.0696 277.128 96.2986 277.45 96.613C277.771 96.9275 278.02 97.3308 278.198 97.823C278.376 98.3152 278.465 98.9099 278.465 99.6072V107H276.568V99.6995C276.568 99.1184 276.469 98.6536 276.27 98.3049C276.079 97.9563 275.805 97.7034 275.45 97.5461C275.095 97.3821 274.678 97.3 274.199 97.3C273.639 97.3 273.17 97.3992 272.794 97.5974C272.418 97.7957 272.118 98.0691 271.892 98.4177C271.666 98.7664 271.502 99.1663 271.4 99.6174C271.304 100.062 271.256 100.533 271.256 101.032ZM278.444 99.9866L277.173 100.376C277.18 99.7678 277.279 99.1833 277.47 98.6228C277.668 98.0623 277.952 97.5632 278.321 97.1257C278.697 96.6882 279.159 96.343 279.705 96.0901C280.252 95.8303 280.878 95.7004 281.582 95.7004C282.177 95.7004 282.703 95.7791 283.161 95.9363C283.626 96.0935 284.015 96.3362 284.33 96.6643C284.651 96.9856 284.894 97.3992 285.058 97.905C285.222 98.4109 285.304 99.0125 285.304 99.7097V107H283.397V99.6892C283.397 99.0671 283.298 98.5852 283.099 98.2434C282.908 97.8948 282.635 97.6521 282.279 97.5154C281.93 97.3718 281.514 97.3 281.028 97.3C280.611 97.3 280.242 97.3718 279.921 97.5154C279.599 97.6589 279.329 97.8572 279.111 98.1101C278.892 98.3562 278.724 98.6399 278.608 98.9612C278.499 99.2825 278.444 99.6243 278.444 99.9866ZM293.409 107.205C292.637 107.205 291.936 107.075 291.307 106.816C290.685 106.549 290.148 106.177 289.697 105.698C289.253 105.219 288.911 104.652 288.672 103.996C288.433 103.34 288.313 102.622 288.313 101.843V101.412C288.313 100.51 288.446 99.7063 288.713 99.0022C288.979 98.2913 289.342 97.6897 289.8 97.1975C290.258 96.7053 290.777 96.3328 291.358 96.0798C291.939 95.8269 292.541 95.7004 293.163 95.7004C293.956 95.7004 294.64 95.8372 295.214 96.1106C295.795 96.384 296.27 96.7668 296.639 97.259C297.008 97.7444 297.282 98.3186 297.459 98.9817C297.637 99.6379 297.726 100.356 297.726 101.135V101.986H289.441V100.438H295.829V100.294C295.802 99.802 295.699 99.3235 295.521 98.8586C295.351 98.3938 295.077 98.011 294.701 97.7102C294.325 97.4094 293.812 97.259 293.163 97.259C292.732 97.259 292.336 97.3513 291.974 97.5359C291.611 97.7136 291.3 97.9802 291.04 98.3357C290.781 98.6912 290.579 99.1252 290.436 99.6379C290.292 100.151 290.22 100.742 290.22 101.412V101.843C290.22 102.369 290.292 102.865 290.436 103.329C290.586 103.787 290.801 104.191 291.081 104.539C291.369 104.888 291.714 105.161 292.117 105.36C292.527 105.558 292.992 105.657 293.512 105.657C294.182 105.657 294.749 105.52 295.214 105.247C295.679 104.973 296.085 104.608 296.434 104.15L297.582 105.062C297.343 105.425 297.039 105.77 296.67 106.098C296.301 106.426 295.846 106.693 295.306 106.898C294.773 107.103 294.141 107.205 293.409 107.205ZM302.468 98.2742V107H300.571V95.9055H302.365L302.468 98.2742ZM302.017 101.032L301.227 101.002C301.234 100.243 301.347 99.5422 301.566 98.8997C301.784 98.2502 302.092 97.6863 302.488 97.2078C302.885 96.7292 303.357 96.3601 303.903 96.1003C304.457 95.8337 305.069 95.7004 305.739 95.7004C306.286 95.7004 306.778 95.7756 307.215 95.926C307.653 96.0696 308.025 96.302 308.333 96.6233C308.648 96.9446 308.887 97.3616 309.051 97.8743C309.215 98.3801 309.297 98.9988 309.297 99.7302V107H307.39V99.7097C307.39 99.1287 307.304 98.6638 307.133 98.3152C306.962 97.9597 306.713 97.7034 306.385 97.5461C306.057 97.3821 305.653 97.3 305.175 97.3C304.703 97.3 304.273 97.3992 303.883 97.5974C303.5 97.7957 303.169 98.0691 302.888 98.4177C302.615 98.7664 302.399 99.1663 302.242 99.6174C302.092 100.062 302.017 100.533 302.017 101.032ZM317.453 95.9055V97.3616H311.455V95.9055H317.453ZM313.485 93.2087H315.382V104.252C315.382 104.628 315.44 104.912 315.556 105.103C315.673 105.295 315.823 105.421 316.008 105.483C316.192 105.544 316.39 105.575 316.602 105.575C316.759 105.575 316.924 105.561 317.094 105.534C317.272 105.5 317.405 105.472 317.494 105.452L317.505 107C317.354 107.048 317.156 107.093 316.91 107.134C316.671 107.181 316.38 107.205 316.038 107.205C315.573 107.205 315.146 107.113 314.757 106.928C314.367 106.744 314.056 106.436 313.823 106.006C313.598 105.568 313.485 104.98 313.485 104.242V93.2087ZM319.601 101.576V101.34C319.601 100.54 319.717 99.7986 319.95 99.115C320.182 98.4246 320.517 97.8264 320.954 97.3206C321.392 96.8079 321.922 96.4114 322.544 96.1311C323.166 95.844 323.863 95.7004 324.636 95.7004C325.415 95.7004 326.116 95.844 326.738 96.1311C327.367 96.4114 327.9 96.8079 328.337 97.3206C328.782 97.8264 329.12 98.4246 329.352 99.115C329.585 99.7986 329.701 100.54 329.701 101.34V101.576C329.701 102.376 329.585 103.117 329.352 103.801C329.12 104.485 328.782 105.083 328.337 105.595C327.9 106.101 327.37 106.498 326.748 106.785C326.133 107.065 325.435 107.205 324.656 107.205C323.877 107.205 323.176 107.065 322.554 106.785C321.932 106.498 321.399 106.101 320.954 105.595C320.517 105.083 320.182 104.485 319.95 103.801C319.717 103.117 319.601 102.376 319.601 101.576ZM321.498 101.34V101.576C321.498 102.13 321.563 102.653 321.693 103.145C321.823 103.63 322.017 104.061 322.277 104.437C322.544 104.813 322.875 105.11 323.272 105.329C323.668 105.541 324.13 105.647 324.656 105.647C325.176 105.647 325.63 105.541 326.02 105.329C326.416 105.11 326.744 104.813 327.004 104.437C327.264 104.061 327.459 103.63 327.589 103.145C327.725 102.653 327.794 102.13 327.794 101.576V101.34C327.794 100.793 327.725 100.277 327.589 99.7917C327.459 99.2996 327.261 98.8655 326.994 98.4895C326.734 98.1067 326.406 97.8059 326.01 97.5872C325.62 97.3684 325.162 97.259 324.636 97.259C324.116 97.259 323.658 97.3684 323.262 97.5872C322.872 97.8059 322.544 98.1067 322.277 98.4895C322.017 98.8655 321.823 99.2996 321.693 99.7917C321.563 100.277 321.498 100.793 321.498 101.34ZM334.607 97.6487V107H332.71V95.9055H334.556L334.607 97.6487ZM338.073 95.844L338.062 97.6077C337.905 97.5735 337.755 97.553 337.611 97.5461C337.475 97.5325 337.317 97.5256 337.14 97.5256C336.702 97.5256 336.316 97.594 335.981 97.7307C335.646 97.8674 335.362 98.0588 335.13 98.3049C334.897 98.551 334.713 98.845 334.576 99.1868C334.446 99.5217 334.361 99.8909 334.32 100.294L333.787 100.602C333.787 99.9319 333.852 99.303 333.981 98.7151C334.118 98.1272 334.327 97.6077 334.607 97.1565C334.887 96.6985 335.243 96.343 335.673 96.0901C336.111 95.8303 336.63 95.7004 337.232 95.7004C337.369 95.7004 337.526 95.7175 337.704 95.7517C337.881 95.7791 338.004 95.8098 338.073 95.844ZM346.916 104.057C346.916 103.784 346.855 103.531 346.732 103.299C346.615 103.059 346.373 102.844 346.003 102.653C345.641 102.454 345.094 102.283 344.363 102.14C343.748 102.01 343.19 101.856 342.691 101.678C342.199 101.501 341.779 101.285 341.43 101.032C341.088 100.78 340.825 100.482 340.641 100.14C340.456 99.7986 340.364 99.3987 340.364 98.9407C340.364 98.5032 340.46 98.0896 340.651 97.7C340.849 97.3103 341.126 96.9651 341.482 96.6643C341.844 96.3635 342.278 96.1277 342.784 95.9568C343.29 95.7859 343.854 95.7004 344.476 95.7004C345.364 95.7004 346.123 95.8577 346.752 96.1721C347.381 96.4866 347.863 96.907 348.198 97.4333C348.533 97.9529 348.7 98.5305 348.7 99.1663H346.803C346.803 98.8586 346.711 98.5613 346.526 98.2742C346.349 97.9802 346.086 97.7375 345.737 97.5461C345.395 97.3547 344.975 97.259 344.476 97.259C343.949 97.259 343.522 97.3411 343.194 97.5051C342.873 97.6624 342.637 97.864 342.486 98.1101C342.343 98.3562 342.271 98.616 342.271 98.8894C342.271 99.0945 342.305 99.2791 342.374 99.4431C342.449 99.6003 342.579 99.7473 342.763 99.884C342.948 100.014 343.208 100.137 343.543 100.253C343.878 100.369 344.305 100.486 344.824 100.602C345.733 100.807 346.482 101.053 347.07 101.34C347.658 101.627 348.095 101.979 348.382 102.396C348.669 102.813 348.813 103.319 348.813 103.914C348.813 104.399 348.711 104.844 348.505 105.247C348.307 105.65 348.017 105.999 347.634 106.293C347.258 106.58 346.807 106.805 346.28 106.969C345.761 107.127 345.176 107.205 344.527 107.205C343.549 107.205 342.722 107.031 342.045 106.682C341.369 106.334 340.856 105.883 340.507 105.329C340.159 104.775 339.984 104.191 339.984 103.575H341.892C341.919 104.095 342.069 104.509 342.343 104.816C342.616 105.117 342.951 105.332 343.348 105.462C343.744 105.585 344.137 105.647 344.527 105.647C345.046 105.647 345.481 105.578 345.829 105.442C346.185 105.305 346.455 105.117 346.639 104.878C346.824 104.638 346.916 104.365 346.916 104.057ZM65.7728 118.906V130H63.8656V118.906H65.7728ZM63.722 115.963C63.722 115.655 63.8143 115.395 63.9989 115.183C64.1903 114.971 64.4706 114.865 64.8397 114.865C65.202 114.865 65.4789 114.971 65.6703 115.183C65.8685 115.395 65.9677 115.655 65.9677 115.963C65.9677 116.257 65.8685 116.51 65.6703 116.721C65.4789 116.927 65.202 117.029 64.8397 117.029C64.4706 117.029 64.1903 116.927 63.9989 116.721C63.8143 116.51 63.722 116.257 63.722 115.963ZM71.3452 121.274V130H69.4482V118.906H71.2427L71.3452 121.274ZM70.894 124.032L70.1045 124.002C70.1113 123.243 70.2241 122.542 70.4429 121.9C70.6616 121.25 70.9692 120.686 71.3657 120.208C71.7622 119.729 72.2339 119.36 72.7808 119.1C73.3345 118.834 73.9463 118.7 74.6162 118.7C75.1631 118.7 75.6553 118.776 76.0928 118.926C76.5303 119.07 76.9028 119.302 77.2104 119.623C77.5249 119.945 77.7642 120.362 77.9282 120.874C78.0923 121.38 78.1743 121.999 78.1743 122.73V130H76.2671V122.71C76.2671 122.129 76.1816 121.664 76.0107 121.315C75.8398 120.96 75.5903 120.703 75.2622 120.546C74.9341 120.382 74.5308 120.3 74.0522 120.3C73.5806 120.3 73.1499 120.399 72.7602 120.597C72.3774 120.796 72.0459 121.069 71.7656 121.418C71.4922 121.766 71.2769 122.166 71.1196 122.617C70.9692 123.062 70.894 123.533 70.894 124.032ZM92.1286 130.205C91.3562 130.205 90.6555 130.075 90.0266 129.816C89.4045 129.549 88.8679 129.177 88.4167 128.698C87.9724 128.219 87.6306 127.652 87.3913 126.996C87.1521 126.34 87.0325 125.622 87.0325 124.843V124.412C87.0325 123.51 87.1658 122.706 87.4324 122.002C87.699 121.291 88.0613 120.69 88.5193 120.198C88.9773 119.705 89.4968 119.333 90.0779 119.08C90.6589 118.827 91.2605 118.7 91.8826 118.7C92.6755 118.7 93.3591 118.837 93.9333 119.111C94.5144 119.384 94.9895 119.767 95.3586 120.259C95.7278 120.744 96.0012 121.319 96.1789 121.982C96.3567 122.638 96.4455 123.356 96.4455 124.135V124.986H88.1604V123.438H94.5486V123.294C94.5212 122.802 94.4187 122.323 94.241 121.859C94.0701 121.394 93.7966 121.011 93.4206 120.71C93.0447 120.409 92.532 120.259 91.8826 120.259C91.4519 120.259 91.0554 120.351 90.6931 120.536C90.3308 120.714 90.0198 120.98 89.76 121.336C89.5002 121.691 89.2986 122.125 89.155 122.638C89.0115 123.151 88.9397 123.742 88.9397 124.412V124.843C88.9397 125.369 89.0115 125.865 89.155 126.329C89.3054 126.787 89.5207 127.191 89.801 127.539C90.0881 127.888 90.4333 128.161 90.8367 128.36C91.2468 128.558 91.7117 128.657 92.2312 128.657C92.9011 128.657 93.4685 128.52 93.9333 128.247C94.3982 127.973 94.8049 127.608 95.1535 127.15L96.302 128.062C96.0627 128.425 95.7585 128.77 95.3894 129.098C95.0202 129.426 94.5657 129.693 94.0256 129.898C93.4924 130.103 92.8601 130.205 92.1286 130.205ZM100.572 118.906L103.002 122.946L105.463 118.906H107.688L104.058 124.381L107.801 130H105.607L103.043 125.837L100.48 130H98.2752L102.008 124.381L98.388 118.906H100.572ZM114.573 128.647C115.024 128.647 115.441 128.554 115.824 128.37C116.207 128.185 116.521 127.932 116.768 127.611C117.014 127.283 117.154 126.91 117.188 126.493H118.993C118.958 127.15 118.736 127.761 118.326 128.329C117.923 128.889 117.393 129.344 116.737 129.693C116.081 130.034 115.359 130.205 114.573 130.205C113.739 130.205 113.011 130.058 112.389 129.764C111.774 129.47 111.261 129.067 110.851 128.554C110.448 128.042 110.144 127.454 109.938 126.791C109.74 126.121 109.641 125.413 109.641 124.668V124.238C109.641 123.492 109.74 122.788 109.938 122.125C110.144 121.455 110.448 120.864 110.851 120.351C111.261 119.839 111.774 119.435 112.389 119.141C113.011 118.847 113.739 118.7 114.573 118.7C115.441 118.7 116.2 118.878 116.85 119.234C117.499 119.582 118.008 120.061 118.377 120.669C118.753 121.271 118.958 121.954 118.993 122.72H117.188C117.154 122.262 117.024 121.848 116.798 121.479C116.58 121.11 116.279 120.816 115.896 120.597C115.52 120.372 115.079 120.259 114.573 120.259C113.992 120.259 113.503 120.375 113.107 120.608C112.717 120.833 112.406 121.141 112.174 121.531C111.948 121.913 111.784 122.341 111.682 122.812C111.586 123.277 111.538 123.752 111.538 124.238V124.668C111.538 125.154 111.586 125.632 111.682 126.104C111.777 126.575 111.938 127.003 112.164 127.385C112.396 127.768 112.707 128.076 113.097 128.308C113.493 128.534 113.985 128.647 114.573 128.647ZM123.652 114.25V130H121.755V114.25H123.652ZM123.201 124.032L122.412 124.002C122.419 123.243 122.531 122.542 122.75 121.9C122.969 121.25 123.276 120.686 123.673 120.208C124.069 119.729 124.541 119.36 125.088 119.1C125.642 118.834 126.254 118.7 126.923 118.7C127.47 118.7 127.962 118.776 128.4 118.926C128.837 119.07 129.21 119.302 129.518 119.623C129.832 119.945 130.071 120.362 130.235 120.874C130.4 121.38 130.482 121.999 130.482 122.73V130H128.574V122.71C128.574 122.129 128.489 121.664 128.318 121.315C128.147 120.96 127.898 120.703 127.569 120.546C127.241 120.382 126.838 120.3 126.359 120.3C125.888 120.3 125.457 120.399 125.067 120.597C124.685 120.796 124.353 121.069 124.073 121.418C123.799 121.766 123.584 122.166 123.427 122.617C123.276 123.062 123.201 123.533 123.201 124.032ZM140.494 128.103V122.392C140.494 121.954 140.405 121.575 140.227 121.254C140.056 120.926 139.797 120.673 139.448 120.495C139.099 120.317 138.669 120.228 138.156 120.228C137.677 120.228 137.257 120.31 136.895 120.474C136.539 120.638 136.259 120.854 136.054 121.12C135.856 121.387 135.757 121.674 135.757 121.982H133.86C133.86 121.585 133.962 121.192 134.167 120.802C134.372 120.413 134.666 120.061 135.049 119.746C135.439 119.425 135.904 119.172 136.444 118.988C136.99 118.796 137.599 118.7 138.269 118.7C139.075 118.7 139.786 118.837 140.402 119.111C141.024 119.384 141.509 119.798 141.858 120.351C142.213 120.898 142.391 121.585 142.391 122.412V127.58C142.391 127.949 142.422 128.343 142.483 128.76C142.551 129.177 142.651 129.535 142.78 129.836V130H140.801C140.706 129.781 140.631 129.491 140.576 129.129C140.521 128.76 140.494 128.418 140.494 128.103ZM140.822 123.274L140.842 124.607H138.925C138.385 124.607 137.903 124.651 137.479 124.74C137.055 124.822 136.7 124.948 136.413 125.119C136.126 125.29 135.907 125.506 135.757 125.765C135.606 126.018 135.531 126.316 135.531 126.657C135.531 127.006 135.61 127.324 135.767 127.611C135.924 127.898 136.16 128.127 136.474 128.298C136.796 128.462 137.189 128.544 137.654 128.544C138.235 128.544 138.747 128.421 139.192 128.175C139.636 127.929 139.988 127.628 140.248 127.273C140.514 126.917 140.658 126.572 140.678 126.237L141.488 127.15C141.441 127.437 141.311 127.755 141.099 128.103C140.887 128.452 140.603 128.787 140.248 129.108C139.899 129.423 139.482 129.686 138.997 129.898C138.518 130.103 137.978 130.205 137.377 130.205C136.625 130.205 135.965 130.058 135.398 129.764C134.837 129.47 134.4 129.077 134.085 128.585C133.778 128.086 133.624 127.529 133.624 126.914C133.624 126.319 133.74 125.796 133.972 125.345C134.205 124.887 134.54 124.508 134.977 124.207C135.415 123.899 135.941 123.667 136.556 123.51C137.172 123.352 137.859 123.274 138.617 123.274H140.822ZM147.902 121.274V130H146.005V118.906H147.799L147.902 121.274ZM147.451 124.032L146.661 124.002C146.668 123.243 146.781 122.542 146.999 121.9C147.218 121.25 147.526 120.686 147.922 120.208C148.319 119.729 148.79 119.36 149.337 119.1C149.891 118.834 150.503 118.7 151.173 118.7C151.72 118.7 152.212 118.776 152.649 118.926C153.087 119.07 153.459 119.302 153.767 119.623C154.081 119.945 154.321 120.362 154.485 120.874C154.649 121.38 154.731 121.999 154.731 122.73V130H152.824V122.71C152.824 122.129 152.738 121.664 152.567 121.315C152.396 120.96 152.147 120.703 151.819 120.546C151.491 120.382 151.087 120.3 150.609 120.3C150.137 120.3 149.706 120.399 149.317 120.597C148.934 120.796 148.602 121.069 148.322 121.418C148.049 121.766 147.833 122.166 147.676 122.617C147.526 123.062 147.451 123.533 147.451 124.032ZM165.43 118.906H167.153V129.764C167.153 130.742 166.955 131.576 166.558 132.266C166.162 132.957 165.608 133.48 164.897 133.835C164.193 134.198 163.379 134.379 162.456 134.379C162.074 134.379 161.623 134.317 161.103 134.194C160.59 134.078 160.084 133.876 159.585 133.589C159.093 133.309 158.68 132.929 158.345 132.451L159.339 131.323C159.804 131.884 160.29 132.273 160.795 132.492C161.308 132.711 161.814 132.82 162.313 132.82C162.915 132.82 163.434 132.707 163.872 132.482C164.309 132.256 164.647 131.921 164.887 131.477C165.133 131.039 165.256 130.499 165.256 129.857V121.346L165.43 118.906ZM157.791 124.576V124.361C157.791 123.513 157.89 122.744 158.088 122.053C158.293 121.356 158.584 120.758 158.96 120.259C159.343 119.76 159.804 119.377 160.344 119.111C160.884 118.837 161.493 118.7 162.169 118.7C162.867 118.7 163.475 118.823 163.995 119.07C164.521 119.309 164.965 119.661 165.328 120.126C165.697 120.584 165.987 121.137 166.199 121.787C166.411 122.436 166.558 123.171 166.64 123.991V124.935C166.565 125.748 166.418 126.48 166.199 127.129C165.987 127.779 165.697 128.332 165.328 128.79C164.965 129.248 164.521 129.6 163.995 129.846C163.468 130.086 162.853 130.205 162.149 130.205C161.486 130.205 160.884 130.065 160.344 129.785C159.811 129.505 159.353 129.112 158.97 128.606C158.587 128.1 158.293 127.505 158.088 126.822C157.89 126.131 157.791 125.383 157.791 124.576ZM159.688 124.361V124.576C159.688 125.13 159.743 125.649 159.852 126.135C159.968 126.62 160.143 127.047 160.375 127.416C160.614 127.785 160.918 128.076 161.288 128.288C161.657 128.493 162.098 128.595 162.61 128.595C163.239 128.595 163.759 128.462 164.169 128.196C164.579 127.929 164.904 127.577 165.143 127.139C165.389 126.702 165.581 126.227 165.717 125.714V123.243C165.642 122.867 165.526 122.505 165.369 122.156C165.218 121.801 165.02 121.486 164.774 121.213C164.535 120.932 164.237 120.71 163.882 120.546C163.526 120.382 163.109 120.3 162.631 120.3C162.111 120.3 161.664 120.409 161.288 120.628C160.918 120.84 160.614 121.134 160.375 121.51C160.143 121.879 159.968 122.31 159.852 122.802C159.743 123.287 159.688 123.807 159.688 124.361ZM175.268 130.205C174.496 130.205 173.795 130.075 173.166 129.816C172.544 129.549 172.007 129.177 171.556 128.698C171.112 128.219 170.77 127.652 170.531 126.996C170.292 126.34 170.172 125.622 170.172 124.843V124.412C170.172 123.51 170.305 122.706 170.572 122.002C170.838 121.291 171.201 120.69 171.659 120.198C172.117 119.705 172.636 119.333 173.217 119.08C173.798 118.827 174.4 118.7 175.022 118.7C175.815 118.7 176.499 118.837 177.073 119.111C177.654 119.384 178.129 119.767 178.498 120.259C178.867 120.744 179.141 121.319 179.318 121.982C179.496 122.638 179.585 123.356 179.585 124.135V124.986H171.3V123.438H177.688V123.294C177.661 122.802 177.558 122.323 177.38 121.859C177.21 121.394 176.936 121.011 176.56 120.71C176.184 120.409 175.671 120.259 175.022 120.259C174.591 120.259 174.195 120.351 173.833 120.536C173.47 120.714 173.159 120.98 172.899 121.336C172.64 121.691 172.438 122.125 172.295 122.638C172.151 123.151 172.079 123.742 172.079 124.412V124.843C172.079 125.369 172.151 125.865 172.295 126.329C172.445 126.787 172.66 127.191 172.941 127.539C173.228 127.888 173.573 128.161 173.976 128.36C174.386 128.558 174.851 128.657 175.371 128.657C176.041 128.657 176.608 128.52 177.073 128.247C177.538 127.973 177.944 127.608 178.293 127.15L179.441 128.062C179.202 128.425 178.898 128.77 178.529 129.098C178.16 129.426 177.705 129.693 177.165 129.898C176.632 130.103 176 130.205 175.268 130.205ZM191.099 130H189.202V117.737C189.202 116.937 189.346 116.263 189.633 115.717C189.927 115.163 190.347 114.746 190.894 114.466C191.441 114.178 192.09 114.035 192.842 114.035C193.061 114.035 193.28 114.049 193.498 114.076C193.724 114.103 193.943 114.144 194.155 114.199L194.052 115.747C193.909 115.713 193.744 115.689 193.56 115.676C193.382 115.662 193.204 115.655 193.027 115.655C192.623 115.655 192.275 115.737 191.981 115.901C191.694 116.058 191.475 116.291 191.325 116.598C191.174 116.906 191.099 117.285 191.099 117.737V130ZM193.457 118.906V120.362H187.449V118.906H193.457ZM195.697 124.576V124.34C195.697 123.54 195.813 122.799 196.046 122.115C196.278 121.425 196.613 120.826 197.051 120.321C197.488 119.808 198.018 119.411 198.64 119.131C199.262 118.844 199.959 118.7 200.732 118.7C201.511 118.7 202.212 118.844 202.834 119.131C203.463 119.411 203.996 119.808 204.434 120.321C204.878 120.826 205.216 121.425 205.449 122.115C205.681 122.799 205.797 123.54 205.797 124.34V124.576C205.797 125.376 205.681 126.117 205.449 126.801C205.216 127.485 204.878 128.083 204.434 128.595C203.996 129.101 203.466 129.498 202.844 129.785C202.229 130.065 201.532 130.205 200.752 130.205C199.973 130.205 199.272 130.065 198.65 129.785C198.028 129.498 197.495 129.101 197.051 128.595C196.613 128.083 196.278 127.485 196.046 126.801C195.813 126.117 195.697 125.376 195.697 124.576ZM197.594 124.34V124.576C197.594 125.13 197.659 125.653 197.789 126.145C197.919 126.63 198.114 127.061 198.373 127.437C198.64 127.813 198.972 128.11 199.368 128.329C199.765 128.541 200.226 128.647 200.752 128.647C201.272 128.647 201.727 128.541 202.116 128.329C202.513 128.11 202.841 127.813 203.101 127.437C203.36 127.061 203.555 126.63 203.685 126.145C203.822 125.653 203.89 125.13 203.89 124.576V124.34C203.89 123.793 203.822 123.277 203.685 122.792C203.555 122.3 203.357 121.865 203.09 121.49C202.831 121.107 202.502 120.806 202.106 120.587C201.716 120.368 201.258 120.259 200.732 120.259C200.212 120.259 199.754 120.368 199.358 120.587C198.968 120.806 198.64 121.107 198.373 121.49C198.114 121.865 197.919 122.3 197.789 122.792C197.659 123.277 197.594 123.793 197.594 124.34ZM210.703 120.649V130H208.806V118.906H210.652L210.703 120.649ZM214.169 118.844L214.159 120.608C214.002 120.573 213.851 120.553 213.708 120.546C213.571 120.532 213.414 120.526 213.236 120.526C212.798 120.526 212.412 120.594 212.077 120.731C211.742 120.867 211.459 121.059 211.226 121.305C210.994 121.551 210.809 121.845 210.672 122.187C210.543 122.522 210.457 122.891 210.416 123.294L209.883 123.602C209.883 122.932 209.948 122.303 210.078 121.715C210.214 121.127 210.423 120.608 210.703 120.156C210.983 119.698 211.339 119.343 211.77 119.09C212.207 118.83 212.727 118.7 213.328 118.7C213.465 118.7 213.622 118.718 213.8 118.752C213.978 118.779 214.101 118.81 214.169 118.844ZM228.851 127.057C228.851 126.784 228.79 126.531 228.667 126.299C228.551 126.059 228.308 125.844 227.939 125.653C227.576 125.454 227.03 125.283 226.298 125.14C225.683 125.01 225.126 124.856 224.627 124.678C224.135 124.501 223.714 124.285 223.366 124.032C223.024 123.78 222.761 123.482 222.576 123.14C222.391 122.799 222.299 122.399 222.299 121.941C222.299 121.503 222.395 121.09 222.586 120.7C222.784 120.31 223.061 119.965 223.417 119.664C223.779 119.364 224.213 119.128 224.719 118.957C225.225 118.786 225.789 118.7 226.411 118.7C227.3 118.7 228.058 118.858 228.687 119.172C229.316 119.487 229.798 119.907 230.133 120.433C230.468 120.953 230.636 121.531 230.636 122.166H228.739C228.739 121.859 228.646 121.561 228.462 121.274C228.284 120.98 228.021 120.738 227.672 120.546C227.33 120.355 226.91 120.259 226.411 120.259C225.885 120.259 225.457 120.341 225.129 120.505C224.808 120.662 224.572 120.864 224.422 121.11C224.278 121.356 224.206 121.616 224.206 121.889C224.206 122.094 224.241 122.279 224.309 122.443C224.384 122.6 224.514 122.747 224.699 122.884C224.883 123.014 225.143 123.137 225.478 123.253C225.813 123.369 226.24 123.486 226.76 123.602C227.669 123.807 228.417 124.053 229.005 124.34C229.593 124.627 230.031 124.979 230.318 125.396C230.605 125.813 230.748 126.319 230.748 126.914C230.748 127.399 230.646 127.844 230.441 128.247C230.242 128.65 229.952 128.999 229.569 129.293C229.193 129.58 228.742 129.805 228.216 129.969C227.696 130.127 227.112 130.205 226.462 130.205C225.485 130.205 224.658 130.031 223.981 129.682C223.304 129.334 222.791 128.883 222.443 128.329C222.094 127.775 221.92 127.191 221.92 126.575H223.827C223.854 127.095 224.005 127.509 224.278 127.816C224.552 128.117 224.887 128.332 225.283 128.462C225.679 128.585 226.073 128.647 226.462 128.647C226.982 128.647 227.416 128.578 227.764 128.442C228.12 128.305 228.39 128.117 228.575 127.878C228.759 127.638 228.851 127.365 228.851 127.057ZM236.68 128.031L239.53 118.906H240.781L240.535 120.72L237.633 130H236.413L236.68 128.031ZM234.762 118.906L237.192 128.134L237.367 130H236.085L232.865 118.906H234.762ZM243.509 128.062L245.826 118.906H247.713L244.493 130H243.222L243.509 128.062ZM241.058 118.906L243.847 127.878L244.165 130H242.955L239.971 120.7L239.725 118.906H241.058ZM254.895 130.205C254.123 130.205 253.422 130.075 252.793 129.816C252.171 129.549 251.634 129.177 251.183 128.698C250.739 128.219 250.397 127.652 250.158 126.996C249.918 126.34 249.799 125.622 249.799 124.843V124.412C249.799 123.51 249.932 122.706 250.199 122.002C250.465 121.291 250.828 120.69 251.286 120.198C251.744 119.705 252.263 119.333 252.844 119.08C253.425 118.827 254.027 118.7 254.649 118.7C255.442 118.7 256.126 118.837 256.7 119.111C257.281 119.384 257.756 119.767 258.125 120.259C258.494 120.744 258.768 121.319 258.945 121.982C259.123 122.638 259.212 123.356 259.212 124.135V124.986H250.927V123.438H257.315V123.294C257.288 122.802 257.185 122.323 257.007 121.859C256.836 121.394 256.563 121.011 256.187 120.71C255.811 120.409 255.298 120.259 254.649 120.259C254.218 120.259 253.822 120.351 253.46 120.536C253.097 120.714 252.786 120.98 252.526 121.336C252.267 121.691 252.065 122.125 251.921 122.638C251.778 123.151 251.706 123.742 251.706 124.412V124.843C251.706 125.369 251.778 125.865 251.921 126.329C252.072 126.787 252.287 127.191 252.567 127.539C252.855 127.888 253.2 128.161 253.603 128.36C254.013 128.558 254.478 128.657 254.998 128.657C255.668 128.657 256.235 128.52 256.7 128.247C257.165 127.973 257.571 127.608 257.92 127.15L259.068 128.062C258.829 128.425 258.525 128.77 258.156 129.098C257.787 129.426 257.332 129.693 256.792 129.898C256.259 130.103 255.626 130.205 254.895 130.205ZM268.599 128.103V122.392C268.599 121.954 268.51 121.575 268.332 121.254C268.161 120.926 267.902 120.673 267.553 120.495C267.204 120.317 266.774 120.228 266.261 120.228C265.782 120.228 265.362 120.31 265 120.474C264.644 120.638 264.364 120.854 264.159 121.12C263.961 121.387 263.861 121.674 263.861 121.982H261.965C261.965 121.585 262.067 121.192 262.272 120.802C262.477 120.413 262.771 120.061 263.154 119.746C263.544 119.425 264.008 119.172 264.548 118.988C265.095 118.796 265.704 118.7 266.374 118.7C267.18 118.7 267.891 118.837 268.507 119.111C269.129 119.384 269.614 119.798 269.963 120.351C270.318 120.898 270.496 121.585 270.496 122.412V127.58C270.496 127.949 270.527 128.343 270.588 128.76C270.656 129.177 270.756 129.535 270.885 129.836V130H268.906C268.811 129.781 268.736 129.491 268.681 129.129C268.626 128.76 268.599 128.418 268.599 128.103ZM268.927 123.274L268.947 124.607H267.03C266.49 124.607 266.008 124.651 265.584 124.74C265.16 124.822 264.805 124.948 264.518 125.119C264.231 125.29 264.012 125.506 263.861 125.765C263.711 126.018 263.636 126.316 263.636 126.657C263.636 127.006 263.715 127.324 263.872 127.611C264.029 127.898 264.265 128.127 264.579 128.298C264.901 128.462 265.294 128.544 265.758 128.544C266.34 128.544 266.852 128.421 267.297 128.175C267.741 127.929 268.093 127.628 268.353 127.273C268.619 126.917 268.763 126.572 268.783 126.237L269.593 127.15C269.546 127.437 269.416 127.755 269.204 128.103C268.992 128.452 268.708 128.787 268.353 129.108C268.004 129.423 267.587 129.686 267.102 129.898C266.623 130.103 266.083 130.205 265.482 130.205C264.73 130.205 264.07 130.058 263.503 129.764C262.942 129.47 262.505 129.077 262.19 128.585C261.882 128.086 261.729 127.529 261.729 126.914C261.729 126.319 261.845 125.796 262.077 125.345C262.31 124.887 262.645 124.508 263.082 124.207C263.52 123.899 264.046 123.667 264.661 123.51C265.277 123.352 265.964 123.274 266.722 123.274H268.927ZM278.755 118.906V120.362H272.756V118.906H278.755ZM274.786 116.209H276.683V127.252C276.683 127.628 276.741 127.912 276.858 128.103C276.974 128.295 277.124 128.421 277.309 128.483C277.493 128.544 277.692 128.575 277.904 128.575C278.061 128.575 278.225 128.561 278.396 128.534C278.574 128.5 278.707 128.472 278.796 128.452L278.806 130C278.656 130.048 278.457 130.093 278.211 130.134C277.972 130.181 277.681 130.205 277.34 130.205C276.875 130.205 276.448 130.113 276.058 129.928C275.668 129.744 275.357 129.436 275.125 129.006C274.899 128.568 274.786 127.98 274.786 127.242V116.209ZM292.053 130.205C291.28 130.205 290.58 130.075 289.951 129.816C289.329 129.549 288.792 129.177 288.341 128.698C287.896 128.219 287.555 127.652 287.315 126.996C287.076 126.34 286.957 125.622 286.957 124.843V124.412C286.957 123.51 287.09 122.706 287.356 122.002C287.623 121.291 287.985 120.69 288.443 120.198C288.901 119.705 289.421 119.333 290.002 119.08C290.583 118.827 291.185 118.7 291.807 118.7C292.6 118.7 293.283 118.837 293.857 119.111C294.438 119.384 294.914 119.767 295.283 120.259C295.652 120.744 295.925 121.319 296.103 121.982C296.281 122.638 296.37 123.356 296.37 124.135V124.986H288.084V123.438H294.473V123.294C294.445 122.802 294.343 122.323 294.165 121.859C293.994 121.394 293.721 121.011 293.345 120.71C292.969 120.409 292.456 120.259 291.807 120.259C291.376 120.259 290.98 120.351 290.617 120.536C290.255 120.714 289.944 120.98 289.684 121.336C289.424 121.691 289.223 122.125 289.079 122.638C288.936 123.151 288.864 123.742 288.864 124.412V124.843C288.864 125.369 288.936 125.865 289.079 126.329C289.23 126.787 289.445 127.191 289.725 127.539C290.012 127.888 290.357 128.161 290.761 128.36C291.171 128.558 291.636 128.657 292.155 128.657C292.825 128.657 293.393 128.52 293.857 128.247C294.322 127.973 294.729 127.608 295.078 127.15L296.226 128.062C295.987 128.425 295.683 128.77 295.313 129.098C294.944 129.426 294.49 129.693 293.95 129.898C293.417 130.103 292.784 130.205 292.053 130.205ZM306.197 134.266V121.038L306.361 118.906H308.105V134.266H306.197ZM298.743 124.576V124.361C298.743 123.513 298.842 122.744 299.04 122.053C299.238 121.356 299.529 120.758 299.912 120.259C300.295 119.76 300.756 119.377 301.296 119.111C301.843 118.837 302.465 118.7 303.162 118.7C303.86 118.7 304.471 118.823 304.998 119.07C305.531 119.309 305.982 119.661 306.351 120.126C306.727 120.584 307.025 121.137 307.243 121.787C307.462 122.436 307.612 123.171 307.694 123.991V124.935C307.619 125.748 307.472 126.48 307.254 127.129C307.035 127.779 306.737 128.332 306.361 128.79C305.992 129.248 305.538 129.6 304.998 129.846C304.464 130.086 303.846 130.205 303.142 130.205C302.458 130.205 301.843 130.065 301.296 129.785C300.756 129.505 300.295 129.112 299.912 128.606C299.536 128.1 299.245 127.505 299.04 126.822C298.842 126.131 298.743 125.383 298.743 124.576ZM300.65 124.361V124.576C300.65 125.13 300.708 125.653 300.824 126.145C300.941 126.63 301.118 127.061 301.358 127.437C301.604 127.813 301.911 128.11 302.28 128.329C302.656 128.541 303.101 128.647 303.613 128.647C304.242 128.647 304.765 128.51 305.182 128.237C305.606 127.963 305.944 127.604 306.197 127.16C306.45 126.709 306.645 126.227 306.782 125.714V123.243C306.707 122.867 306.587 122.501 306.423 122.146C306.266 121.79 306.061 121.472 305.808 121.192C305.555 120.905 305.247 120.679 304.885 120.515C304.529 120.344 304.112 120.259 303.634 120.259C303.114 120.259 302.667 120.368 302.291 120.587C301.915 120.806 301.604 121.107 301.358 121.49C301.118 121.865 300.941 122.3 300.824 122.792C300.708 123.284 300.65 123.807 300.65 124.361ZM318.568 127.437V118.906H320.475V130H318.66L318.568 127.437ZM318.927 125.099L319.717 125.078C319.717 125.817 319.638 126.5 319.481 127.129C319.33 127.751 319.084 128.291 318.742 128.749C318.401 129.207 317.953 129.566 317.399 129.826C316.845 130.079 316.172 130.205 315.379 130.205C314.839 130.205 314.344 130.127 313.892 129.969C313.448 129.812 313.065 129.57 312.744 129.241C312.423 128.913 312.173 128.486 311.995 127.96C311.824 127.433 311.739 126.801 311.739 126.063V118.906H313.636V126.083C313.636 126.582 313.691 126.996 313.8 127.324C313.916 127.645 314.07 127.902 314.261 128.093C314.46 128.278 314.678 128.407 314.918 128.483C315.164 128.558 315.417 128.595 315.677 128.595C316.483 128.595 317.122 128.442 317.594 128.134C318.066 127.82 318.404 127.399 318.609 126.873C318.821 126.34 318.927 125.748 318.927 125.099ZM326.058 118.906V130H324.151V118.906H326.058ZM324.007 115.963C324.007 115.655 324.099 115.395 324.284 115.183C324.475 114.971 324.756 114.865 325.125 114.865C325.487 114.865 325.764 114.971 325.955 115.183C326.154 115.395 326.253 115.655 326.253 115.963C326.253 116.257 326.154 116.51 325.955 116.721C325.764 116.927 325.487 117.029 325.125 117.029C324.756 117.029 324.475 116.927 324.284 116.721C324.099 116.51 324.007 116.257 324.007 115.963ZM334.378 118.906V120.362H328.38V118.906H334.378ZM330.41 116.209H332.307V127.252C332.307 127.628 332.365 127.912 332.481 128.103C332.598 128.295 332.748 128.421 332.933 128.483C333.117 128.544 333.315 128.575 333.527 128.575C333.685 128.575 333.849 128.561 334.02 128.534C334.197 128.5 334.331 128.472 334.419 128.452L334.43 130C334.279 130.048 334.081 130.093 333.835 130.134C333.596 130.181 333.305 130.205 332.963 130.205C332.499 130.205 332.071 130.113 331.682 129.928C331.292 129.744 330.981 129.436 330.749 129.006C330.523 128.568 330.41 127.98 330.41 127.242V116.209ZM340.351 128.852L343.437 118.906H345.467L341.017 131.713C340.915 131.986 340.778 132.28 340.607 132.594C340.443 132.916 340.231 133.22 339.971 133.507C339.712 133.794 339.397 134.027 339.028 134.204C338.666 134.389 338.232 134.481 337.726 134.481C337.575 134.481 337.384 134.461 337.151 134.42C336.919 134.379 336.755 134.344 336.659 134.317L336.649 132.779C336.704 132.786 336.789 132.793 336.905 132.8C337.028 132.813 337.114 132.82 337.162 132.82C337.592 132.82 337.958 132.762 338.259 132.646C338.56 132.536 338.813 132.348 339.018 132.082C339.23 131.822 339.411 131.463 339.561 131.005L340.351 128.852ZM338.085 118.906L340.966 127.519L341.458 129.518L340.094 130.216L336.013 118.906H338.085Z" fill="#4F5052"/>
<defs>
<filter id="filter0_d_65_384" x="0" y="0.000244141" width="407" height="185" filterUnits="userSpaceOnUse" color-interpolation-filters="sRGB">
<feFlood flood-opacity="0" result="BackgroundImageFix"/>
<feColorMatrix in="SourceAlpha" type="matrix" values="0 0 0 0 0 0 0 0 0 0 0 0 0 0 0 0 0 0 127 0" result="hardAlpha"/>
<feOffset dy="4"/>
<feGaussianBlur stdDeviation="2"/>
<feComposite in2="hardAlpha" operator="out"/>
<feColorMatrix type="matrix" values="0 0 0 0 0 0 0 0 0 0 0 0 0 0 0 0 0 0 0.13 0"/>
<feBlend mode="normal" in2="BackgroundImageFix" result="effect1_dropShadow_65_384"/>
<feBlend mode="normal" in="SourceGraphic" in2="effect1_dropShadow_65_384" result="shape"/>
</filter>
<linearGradient id="paint0_linear_65_384" x1="9.15314" y1="16.3387" x2="405.727" y2="37.5805" gradientUnits="userSpaceOnUse">
<stop offset="0.197139" stop-color="#F6F8FF"/>
<stop offset="0.663491" stop-color="#3CE5A7"/>
<stop offset="1" stop-color="#114DFF"/>
</linearGradient>
<clipPath id="clip0_65_384">
<rect width="21" height="20" fill="white" transform="translate(65 42.0002)"/>
</clipPath>
</defs>
</svg>
