<svg width="407" height="185" viewBox="0 0 407 185" fill="none" xmlns="http://www.w3.org/2000/svg">
<g filter="url(#filter0_d_65_382)">
<rect x="4" y="0.000244141" width="399" height="177" rx="88.5" fill="white"/>
<rect x="5.5" y="1.50024" width="396" height="174" rx="87" stroke="url(#paint0_linear_65_382)" stroke-width="3"/>
</g>
<path d="M163.042 47.9182H158.695V45.176H163.042C163.714 45.176 164.261 45.0667 164.683 44.8479C165.105 44.6213 165.414 44.3088 165.609 43.9104C165.804 43.512 165.902 43.0627 165.902 42.5627C165.902 42.0549 165.804 41.5823 165.609 41.1448C165.414 40.7073 165.105 40.3557 164.683 40.0901C164.261 39.8245 163.714 39.6917 163.042 39.6917H159.914V54.0002H156.398V36.9377H163.042C164.378 36.9377 165.523 37.1799 166.476 37.6643C167.437 38.1409 168.171 38.801 168.679 39.6448C169.187 40.4885 169.441 41.4534 169.441 42.5393C169.441 43.6409 169.187 44.594 168.679 45.3987C168.171 46.2034 167.437 46.8245 166.476 47.262C165.523 47.6995 164.378 47.9182 163.042 47.9182ZM179.079 51.1409V45.4924C179.079 45.0862 179.012 44.7385 178.88 44.4495C178.747 44.1526 178.54 43.9221 178.259 43.7581C177.985 43.594 177.63 43.512 177.192 43.512C176.817 43.512 176.493 43.5784 176.22 43.7112C175.946 43.8362 175.735 44.0198 175.587 44.262C175.438 44.4963 175.364 44.7737 175.364 45.094H171.989C171.989 44.5549 172.114 44.0432 172.364 43.5588C172.614 43.0745 172.977 42.6487 173.454 42.2815C173.93 41.9065 174.497 41.6135 175.153 41.4026C175.817 41.1917 176.559 41.0862 177.38 41.0862C178.364 41.0862 179.239 41.2502 180.005 41.5784C180.77 41.9065 181.372 42.3987 181.809 43.0549C182.255 43.7112 182.477 44.5315 182.477 45.5159V50.9417C182.477 51.637 182.52 52.2073 182.606 52.6526C182.692 53.0901 182.817 53.4729 182.981 53.801V54.0002H179.571C179.407 53.6565 179.282 53.2268 179.196 52.7112C179.118 52.1877 179.079 51.6643 179.079 51.1409ZM179.524 46.2776L179.548 48.1877H177.661C177.216 48.1877 176.829 48.2385 176.501 48.3401C176.173 48.4417 175.903 48.5862 175.692 48.7737C175.481 48.9534 175.325 49.1643 175.223 49.4065C175.13 49.6487 175.083 49.9143 175.083 50.2034C175.083 50.4924 175.149 50.7542 175.282 50.9885C175.415 51.2151 175.606 51.3948 175.856 51.5276C176.106 51.6526 176.399 51.7151 176.735 51.7151C177.243 51.7151 177.684 51.6135 178.059 51.4104C178.434 51.2073 178.723 50.9573 178.927 50.6604C179.137 50.3635 179.247 50.0823 179.255 49.8167L180.145 51.2463C180.02 51.5667 179.848 51.8987 179.63 52.2424C179.419 52.5862 179.149 52.9104 178.821 53.2151C178.493 53.512 178.098 53.7581 177.637 53.9534C177.177 54.1409 176.63 54.2346 175.997 54.2346C175.192 54.2346 174.462 54.0745 173.805 53.7542C173.157 53.426 172.641 52.9768 172.259 52.4065C171.884 51.8284 171.696 51.1721 171.696 50.4377C171.696 49.7737 171.821 49.1838 172.071 48.6682C172.321 48.1526 172.688 47.719 173.173 47.3674C173.665 47.0081 174.278 46.7385 175.012 46.5588C175.747 46.3713 176.598 46.2776 177.567 46.2776H179.524ZM189.174 44.0862V54.0002H185.799V41.3206H188.975L189.174 44.0862ZM192.994 41.2385L192.936 44.3674C192.772 44.344 192.572 44.3245 192.338 44.3088C192.111 44.2854 191.904 44.2737 191.717 44.2737C191.24 44.2737 190.826 44.3362 190.475 44.4612C190.131 44.5784 189.842 44.7542 189.607 44.9885C189.381 45.2229 189.209 45.5081 189.092 45.844C188.982 46.1799 188.92 46.5627 188.904 46.9924L188.225 46.7815C188.225 45.9612 188.307 45.2073 188.471 44.5198C188.635 43.8245 188.873 43.219 189.186 42.7034C189.506 42.1877 189.897 41.7893 190.357 41.5081C190.818 41.2268 191.346 41.0862 191.94 41.0862C192.127 41.0862 192.318 41.1018 192.514 41.1331C192.709 41.1565 192.869 41.1917 192.994 41.2385ZM202.105 41.3206V43.7112H194.722V41.3206H202.105ZM196.55 38.1917H199.925V50.1799C199.925 50.5471 199.972 50.8284 200.066 51.0237C200.167 51.219 200.316 51.3557 200.511 51.4338C200.706 51.5042 200.952 51.5393 201.249 51.5393C201.46 51.5393 201.648 51.5315 201.812 51.5159C201.984 51.4924 202.128 51.469 202.245 51.4456L202.257 53.9299C201.968 54.0237 201.656 54.0979 201.32 54.1526C200.984 54.2073 200.613 54.2346 200.206 54.2346C199.464 54.2346 198.816 54.1135 198.261 53.8713C197.714 53.6213 197.292 53.2229 196.995 52.676C196.699 52.1292 196.55 51.4104 196.55 50.5198V38.1917ZM208.051 44.0276V54.0002H204.676V41.3206H207.84L208.051 44.0276ZM207.559 47.2151H206.645C206.645 46.2776 206.766 45.4338 207.008 44.6838C207.251 43.926 207.59 43.2815 208.028 42.7502C208.465 42.2112 208.985 41.801 209.587 41.5198C210.196 41.2307 210.876 41.0862 211.626 41.0862C212.219 41.0862 212.762 41.1721 213.255 41.344C213.747 41.5159 214.169 41.7893 214.52 42.1643C214.88 42.5393 215.153 43.0354 215.34 43.6526C215.536 44.2698 215.633 45.0237 215.633 45.9143V54.0002H212.235V45.9026C212.235 45.3401 212.157 44.9026 212.001 44.5901C211.844 44.2776 211.614 44.0588 211.309 43.9338C211.012 43.801 210.645 43.7346 210.208 43.7346C209.755 43.7346 209.36 43.8245 209.024 44.0042C208.696 44.1838 208.423 44.4338 208.204 44.7542C207.993 45.0667 207.833 45.4338 207.723 45.8557C207.614 46.2776 207.559 46.7307 207.559 47.2151ZM224.756 54.2346C223.771 54.2346 222.889 54.0784 222.107 53.7659C221.326 53.4456 220.662 53.0042 220.115 52.4417C219.576 51.8792 219.162 51.2268 218.873 50.4846C218.584 49.7346 218.439 48.9377 218.439 48.094V47.6252C218.439 46.6643 218.576 45.7854 218.85 44.9885C219.123 44.1917 219.514 43.5002 220.021 42.9143C220.537 42.3284 221.162 41.8792 221.896 41.5667C222.631 41.2463 223.459 41.0862 224.381 41.0862C225.279 41.0862 226.076 41.2346 226.771 41.5315C227.467 41.8284 228.049 42.2502 228.517 42.7971C228.994 43.344 229.353 44.0002 229.596 44.7659C229.838 45.5237 229.959 46.3674 229.959 47.2971V48.7034H219.881V46.4534H226.642V46.1956C226.642 45.7268 226.557 45.3088 226.385 44.9417C226.221 44.5667 225.971 44.2698 225.635 44.051C225.299 43.8323 224.869 43.7229 224.346 43.7229C223.9 43.7229 223.517 43.8206 223.197 44.0159C222.877 44.2112 222.615 44.4846 222.412 44.8362C222.217 45.1877 222.068 45.6018 221.967 46.0784C221.873 46.5471 221.826 47.0627 221.826 47.6252V48.094C221.826 48.6018 221.896 49.0706 222.037 49.5002C222.185 49.9299 222.392 50.301 222.658 50.6135C222.932 50.926 223.26 51.1682 223.642 51.3401C224.033 51.512 224.475 51.5979 224.967 51.5979C225.576 51.5979 226.142 51.4807 226.666 51.2463C227.197 51.0042 227.654 50.6409 228.037 50.1565L229.678 51.9377C229.412 52.3206 229.049 52.6877 228.588 53.0393C228.135 53.3909 227.588 53.6799 226.947 53.9065C226.307 54.1252 225.576 54.2346 224.756 54.2346ZM235.976 44.0862V54.0002H232.601V41.3206H235.777L235.976 44.0862ZM239.796 41.2385L239.737 44.3674C239.573 44.344 239.374 44.3245 239.14 44.3088C238.913 44.2854 238.706 44.2737 238.519 44.2737C238.042 44.2737 237.628 44.3362 237.277 44.4612C236.933 44.5784 236.644 44.7542 236.409 44.9885C236.183 45.2229 236.011 45.5081 235.894 45.844C235.784 46.1799 235.722 46.5627 235.706 46.9924L235.027 46.7815C235.027 45.9612 235.109 45.2073 235.273 44.5198C235.437 43.8245 235.675 43.219 235.987 42.7034C236.308 42.1877 236.698 41.7893 237.159 41.5081C237.62 41.2268 238.148 41.0862 238.741 41.0862C238.929 41.0862 239.12 41.1018 239.316 41.1331C239.511 41.1565 239.671 41.1917 239.796 41.2385ZM248.965 50.4963C248.965 50.2542 248.895 50.0354 248.754 49.8401C248.614 49.6448 248.352 49.4651 247.969 49.301C247.594 49.1292 247.051 48.9729 246.34 48.8323C245.7 48.6917 245.102 48.5159 244.547 48.3049C244 48.0862 243.524 47.8245 243.118 47.5198C242.719 47.2151 242.407 46.8557 242.18 46.4417C241.954 46.0198 241.84 45.5393 241.84 45.0002C241.84 44.469 241.954 43.969 242.18 43.5002C242.415 43.0315 242.747 42.6174 243.176 42.2581C243.614 41.8909 244.145 41.6057 244.77 41.4026C245.403 41.1917 246.114 41.0862 246.903 41.0862C248.004 41.0862 248.95 41.262 249.739 41.6135C250.536 41.9651 251.145 42.4495 251.567 43.0667C251.997 43.676 252.211 44.3713 252.211 45.1526H248.836C248.836 44.8245 248.766 44.5315 248.625 44.2737C248.493 44.0081 248.282 43.801 247.993 43.6526C247.711 43.4963 247.344 43.4182 246.891 43.4182C246.516 43.4182 246.192 43.4846 245.918 43.6174C245.645 43.7424 245.434 43.9143 245.286 44.1331C245.145 44.344 245.075 44.5784 245.075 44.8362C245.075 45.0315 245.114 45.2073 245.192 45.3635C245.278 45.512 245.415 45.6487 245.602 45.7737C245.79 45.8987 246.032 46.0159 246.329 46.1252C246.633 46.2268 247.008 46.3206 247.454 46.4065C248.368 46.594 249.184 46.8401 249.903 47.1448C250.622 47.4417 251.192 47.8479 251.614 48.3635C252.036 48.8713 252.247 49.5393 252.247 50.3674C252.247 50.9299 252.122 51.4456 251.872 51.9143C251.622 52.3831 251.262 52.7932 250.793 53.1448C250.325 53.4885 249.762 53.7581 249.106 53.9534C248.457 54.1409 247.727 54.2346 246.915 54.2346C245.735 54.2346 244.735 54.0237 243.915 53.6018C243.102 53.1799 242.485 52.6448 242.063 51.9963C241.649 51.3401 241.442 50.6682 241.442 49.9807H244.641C244.657 50.4417 244.774 50.8127 244.993 51.094C245.219 51.3752 245.504 51.5784 245.848 51.7034C246.2 51.8284 246.579 51.8909 246.985 51.8909C247.422 51.8909 247.786 51.8323 248.075 51.7151C248.364 51.5901 248.582 51.426 248.731 51.2229C248.887 51.012 248.965 50.7698 248.965 50.4963Z" fill="#114DFF"/>
<g clip-path="url(#clip0_65_382)">
<path d="M120.101 38.1779C120.181 38.2307 121.513 38.2087 121.749 38.1933C122.516 38.1427 123.912 38.0064 124.642 37.858C125.057 37.7745 125.467 37.4953 125.949 37.437C127.743 37.2215 129.12 38.1405 130.823 38.4142C130.82 38.2691 130.815 38.1108 130.88 37.9789C131.009 37.7217 133.183 36.0651 133.482 36.0156C133.751 35.9717 134.064 36.1102 134.263 36.3004C135.567 38.3989 137.314 40.4083 138.58 42.5079C138.955 43.129 139.259 43.5445 138.667 44.1832C138.499 44.3646 136.855 45.6606 136.662 45.7573C136.307 45.9343 135.944 45.8068 135.702 45.9838C135.616 46.0464 134.622 47.5139 134.602 47.6107C134.547 47.8745 134.947 48.6825 134.908 49.2299C134.824 50.4149 133.845 51.3372 132.659 51.1646C132.529 52.0583 132.055 52.7695 131.173 52.9949C131.014 53.0355 130.68 52.985 130.621 53.0333C130.558 53.0872 130.37 54.0875 129.851 54.4965C129.103 55.0868 128.631 54.7174 127.999 54.9098C127.786 54.9746 127.504 55.4341 127.272 55.5935C126.802 55.9156 126.19 55.9651 125.639 55.8508C125.336 55.7881 124.822 55.3275 124.648 55.3275C124.474 55.3275 123.918 55.8508 123.526 55.9365C121.971 56.2784 121.758 55.2088 121.908 53.8985C120.443 55.0054 119.14 53.9556 119.76 52.2518C118.193 53.5621 117.038 51.6582 117.72 50.1654C116.258 50.7326 115.398 50.2137 115.573 48.5714C115.614 48.1867 115.992 47.5711 115.986 47.492C115.978 47.404 115.218 46.0113 115.154 45.953C115.002 45.8145 114.78 45.9101 114.604 45.8321C114.231 45.6672 112.656 44.4932 112.35 44.181C111.809 43.6258 111.971 43.2147 112.307 42.5969C113.415 40.5611 115.24 38.6077 116.39 36.5565C116.593 36.2542 116.964 35.9761 117.341 36.0014C117.634 36.0211 119.598 37.4282 119.863 37.7074C120.006 37.8591 120.073 38.1581 120.101 38.1768V38.1779ZM123.092 39.0738C122.025 39.2585 120.967 39.3618 119.891 39.2035L115.895 45.267L116.658 46.7544C117.485 46.4312 118.187 45.6782 119.017 46.4806C119.895 47.3293 119.417 48.6209 118.582 49.2849C119.138 49.0441 119.439 48.4802 120.081 48.3439C121.161 48.1141 122.211 49.6113 121.375 50.4929C121.752 50.3973 121.841 50.1533 122.288 50.1544C123.473 50.1566 123.82 51.5405 123.308 52.4694C123.915 52.4353 124.878 52.9762 125.076 53.5731C125.172 53.8644 125.072 54.1403 125.234 54.4008C125.715 55.1802 127.167 54.8284 127.05 54.1887C126.994 53.8853 125.455 53.0432 125.297 52.6893C125.117 52.288 125.247 51.5482 125.772 51.756C126.595 52.1759 128.491 54.6284 129.384 53.4676C129.625 53.1543 129.595 52.7354 129.396 52.3925C128.962 51.9583 126.869 50.6864 126.687 50.272C126.51 49.8675 127.197 49.4684 127.463 49.585L130.388 51.8725C131.283 52.1715 131.891 51.3438 131.436 50.5259L128.562 48.2515C128.322 47.8965 128.454 47.2611 128.937 47.3073C129.928 47.681 131.728 49.8279 132.618 50.0324C133.855 50.316 134.212 48.8221 133.352 48.0746C131.31 46.4136 129.499 44.4558 127.497 42.7519C126.477 41.8835 126.341 41.6494 124.864 41.8198C123.366 41.9923 123.263 43.6698 122.074 44.458C121.541 44.812 119.718 45.6408 119.459 44.7042C119.33 44.2381 120.246 42.3771 120.535 41.8956C121.202 40.7843 122.124 39.8982 123.092 39.0749V39.0738Z" fill="#114DFF"/>
</g>
<path d="M96.1265 80.3933L91.1841 94.0002H89.1641L94.855 79.0706H96.1572L96.1265 80.3933ZM100.269 94.0002L95.3164 80.3933L95.2856 79.0706H96.5879L102.299 94.0002H100.269ZM100.013 88.4734V90.0935H91.625V88.4734H100.013ZM109.082 92.6467C109.533 92.6467 109.95 92.5544 110.333 92.3699C110.715 92.1853 111.03 91.9324 111.276 91.6111C111.522 91.283 111.662 90.9104 111.696 90.4934H113.501C113.467 91.1497 113.245 91.7615 112.835 92.3289C112.431 92.8894 111.901 93.344 111.245 93.6926C110.589 94.0344 109.868 94.2053 109.082 94.2053C108.248 94.2053 107.52 94.0583 106.898 93.7644C106.282 93.4705 105.77 93.0671 105.359 92.5544C104.956 92.0417 104.652 91.4539 104.447 90.7908C104.249 90.1208 104.15 89.4133 104.15 88.6682V88.2375C104.15 87.4924 104.249 86.7883 104.447 86.1252C104.652 85.4553 104.956 84.864 105.359 84.3513C105.77 83.8386 106.282 83.4353 106.898 83.1414C107.52 82.8474 108.248 82.7004 109.082 82.7004C109.95 82.7004 110.709 82.8782 111.358 83.2336C112.007 83.5823 112.517 84.0608 112.886 84.6692C113.262 85.2708 113.467 85.9543 113.501 86.72H111.696C111.662 86.262 111.532 85.8484 111.307 85.4792C111.088 85.1101 110.787 84.8162 110.404 84.5974C110.028 84.3718 109.588 84.259 109.082 84.259C108.501 84.259 108.012 84.3752 107.615 84.6077C107.226 84.8333 106.915 85.1409 106.682 85.5305C106.457 85.9133 106.293 86.3406 106.19 86.8123C106.094 87.2771 106.047 87.7522 106.047 88.2375V88.6682C106.047 89.1536 106.094 89.6321 106.19 90.1038C106.286 90.5754 106.446 91.0027 106.672 91.3855C106.904 91.7683 107.215 92.0759 107.605 92.3083C108.002 92.5339 108.494 92.6467 109.082 92.6467ZM120.704 92.6467C121.155 92.6467 121.572 92.5544 121.955 92.3699C122.338 92.1853 122.652 91.9324 122.898 91.6111C123.144 91.283 123.284 90.9104 123.319 90.4934H125.123C125.089 91.1497 124.867 91.7615 124.457 92.3289C124.053 92.8894 123.524 93.344 122.867 93.6926C122.211 94.0344 121.49 94.2053 120.704 94.2053C119.87 94.2053 119.142 94.0583 118.52 93.7644C117.905 93.4705 117.392 93.0671 116.982 92.5544C116.578 92.0417 116.274 91.4539 116.069 90.7908C115.871 90.1208 115.772 89.4133 115.772 88.6682V88.2375C115.772 87.4924 115.871 86.7883 116.069 86.1252C116.274 85.4553 116.578 84.864 116.982 84.3513C117.392 83.8386 117.905 83.4353 118.52 83.1414C119.142 82.8474 119.87 82.7004 120.704 82.7004C121.572 82.7004 122.331 82.8782 122.98 83.2336C123.63 83.5823 124.139 84.0608 124.508 84.6692C124.884 85.2708 125.089 85.9543 125.123 86.72H123.319C123.284 86.262 123.155 85.8484 122.929 85.4792C122.71 85.1101 122.409 84.8162 122.027 84.5974C121.651 84.3718 121.21 84.259 120.704 84.259C120.123 84.259 119.634 84.3752 119.238 84.6077C118.848 84.8333 118.537 85.1409 118.304 85.5305C118.079 85.9133 117.915 86.3406 117.812 86.8123C117.717 87.2771 117.669 87.7522 117.669 88.2375V88.6682C117.669 89.1536 117.717 89.6321 117.812 90.1038C117.908 90.5754 118.069 91.0027 118.294 91.3855C118.527 91.7683 118.838 92.0759 119.227 92.3083C119.624 92.5339 120.116 92.6467 120.704 92.6467ZM132.49 94.2053C131.718 94.2053 131.017 94.0754 130.388 93.8157C129.766 93.5491 129.229 93.1765 128.778 92.698C128.334 92.2195 127.992 91.6521 127.753 90.9958C127.514 90.3396 127.394 89.6218 127.394 88.8425V88.4119C127.394 87.5095 127.527 86.7063 127.794 86.0022C128.06 85.2913 128.423 84.6897 128.881 84.1975C129.339 83.7053 129.858 83.3328 130.439 83.0798C131.02 82.8269 131.622 82.7004 132.244 82.7004C133.037 82.7004 133.721 82.8372 134.295 83.1106C134.876 83.384 135.351 83.7668 135.72 84.259C136.089 84.7444 136.363 85.3186 136.54 85.9817C136.718 86.6379 136.807 87.3557 136.807 88.135V88.9861H128.522V87.4377H134.91V87.2942C134.883 86.802 134.78 86.3235 134.602 85.8586C134.432 85.3938 134.158 85.011 133.782 84.7102C133.406 84.4094 132.893 84.259 132.244 84.259C131.813 84.259 131.417 84.3513 131.055 84.5359C130.692 84.7136 130.381 84.9802 130.121 85.3357C129.862 85.6912 129.66 86.1252 129.516 86.6379C129.373 87.1506 129.301 87.7419 129.301 88.4119V88.8425C129.301 89.3689 129.373 89.8645 129.516 90.3293C129.667 90.7874 129.882 91.1907 130.162 91.5393C130.45 91.8879 130.795 92.1614 131.198 92.3596C131.608 92.5579 132.073 92.657 132.593 92.657C133.263 92.657 133.83 92.5203 134.295 92.2468C134.76 91.9734 135.166 91.6077 135.515 91.1497L136.663 92.0623C136.424 92.4246 136.12 92.7698 135.751 93.0979C135.382 93.426 134.927 93.6926 134.387 93.8977C133.854 94.1028 133.222 94.2053 132.49 94.2053ZM146.112 91.0574C146.112 90.7839 146.05 90.531 145.927 90.2986C145.811 90.0593 145.568 89.844 145.199 89.6526C144.837 89.4543 144.29 89.2834 143.559 89.1399C142.943 89.01 142.386 88.8562 141.887 88.6785C141.395 88.5007 140.975 88.2854 140.626 88.0325C140.284 87.7795 140.021 87.4822 139.836 87.1404C139.652 86.7986 139.56 86.3987 139.56 85.9407C139.56 85.5032 139.655 85.0896 139.847 84.7C140.045 84.3103 140.322 83.9651 140.677 83.6643C141.04 83.3635 141.474 83.1277 141.979 82.9568C142.485 82.7859 143.049 82.7004 143.671 82.7004C144.56 82.7004 145.319 82.8577 145.948 83.1721C146.577 83.4866 147.059 83.907 147.394 84.4333C147.729 84.9529 147.896 85.5305 147.896 86.1663H145.999C145.999 85.8586 145.907 85.5613 145.722 85.2742C145.544 84.9802 145.281 84.7375 144.933 84.5461C144.591 84.3547 144.17 84.259 143.671 84.259C143.145 84.259 142.718 84.3411 142.39 84.5051C142.068 84.6624 141.833 84.864 141.682 85.1101C141.539 85.3562 141.467 85.616 141.467 85.8894C141.467 86.0945 141.501 86.2791 141.569 86.4431C141.645 86.6003 141.774 86.7473 141.959 86.884C142.144 87.0139 142.403 87.137 142.738 87.2532C143.073 87.3694 143.5 87.4856 144.02 87.6018C144.929 87.8069 145.678 88.053 146.266 88.3401C146.854 88.6272 147.291 88.9792 147.578 89.3962C147.865 89.8132 148.009 90.3191 148.009 90.9138C148.009 91.3992 147.906 91.8435 147.701 92.2468C147.503 92.6501 147.212 92.9988 146.83 93.2927C146.454 93.5798 146.002 93.8054 145.476 93.9695C144.957 94.1267 144.372 94.2053 143.723 94.2053C142.745 94.2053 141.918 94.031 141.241 93.6824C140.564 93.3337 140.052 92.8826 139.703 92.3289C139.354 91.7751 139.18 91.1907 139.18 90.5754H141.087C141.115 91.095 141.265 91.5085 141.539 91.8162C141.812 92.1169 142.147 92.3323 142.543 92.4622C142.94 92.5852 143.333 92.6467 143.723 92.6467C144.242 92.6467 144.676 92.5784 145.025 92.4417C145.38 92.3049 145.65 92.1169 145.835 91.8777C146.02 91.6384 146.112 91.365 146.112 91.0574ZM157.59 91.0574C157.59 90.7839 157.529 90.531 157.406 90.2986C157.29 90.0593 157.047 89.844 156.678 89.6526C156.316 89.4543 155.769 89.2834 155.037 89.1399C154.422 89.01 153.865 88.8562 153.366 88.6785C152.874 88.5007 152.453 88.2854 152.105 88.0325C151.763 87.7795 151.5 87.4822 151.315 87.1404C151.13 86.7986 151.038 86.3987 151.038 85.9407C151.038 85.5032 151.134 85.0896 151.325 84.7C151.524 84.3103 151.8 83.9651 152.156 83.6643C152.518 83.3635 152.952 83.1277 153.458 82.9568C153.964 82.7859 154.528 82.7004 155.15 82.7004C156.039 82.7004 156.797 82.8577 157.426 83.1721C158.055 83.4866 158.537 83.907 158.872 84.4333C159.207 84.9529 159.375 85.5305 159.375 86.1663H157.478C157.478 85.8586 157.385 85.5613 157.201 85.2742C157.023 84.9802 156.76 84.7375 156.411 84.5461C156.069 84.3547 155.649 84.259 155.15 84.259C154.624 84.259 154.196 84.3411 153.868 84.5051C153.547 84.6624 153.311 84.864 153.161 85.1101C153.017 85.3562 152.945 85.616 152.945 85.8894C152.945 86.0945 152.98 86.2791 153.048 86.4431C153.123 86.6003 153.253 86.7473 153.438 86.884C153.622 87.0139 153.882 87.137 154.217 87.2532C154.552 87.3694 154.979 87.4856 155.499 87.6018C156.408 87.8069 157.156 88.053 157.744 88.3401C158.332 88.6272 158.77 88.9792 159.057 89.3962C159.344 89.8132 159.487 90.3191 159.487 90.9138C159.487 91.3992 159.385 91.8435 159.18 92.2468C158.982 92.6501 158.691 92.9988 158.308 93.2927C157.932 93.5798 157.481 93.8054 156.955 93.9695C156.435 94.1267 155.851 94.2053 155.201 94.2053C154.224 94.2053 153.397 94.031 152.72 93.6824C152.043 93.3337 151.53 92.8826 151.182 92.3289C150.833 91.7751 150.659 91.1907 150.659 90.5754H152.566C152.593 91.095 152.744 91.5085 153.017 91.8162C153.291 92.1169 153.626 92.3323 154.022 92.4622C154.419 92.5852 154.812 92.6467 155.201 92.6467C155.721 92.6467 156.155 92.5784 156.504 92.4417C156.859 92.3049 157.129 92.1169 157.314 91.8777C157.498 91.6384 157.59 91.365 157.59 91.0574ZM174.908 91.0574C174.908 90.7839 174.847 90.531 174.723 90.2986C174.607 90.0593 174.365 89.844 173.995 89.6526C173.633 89.4543 173.086 89.2834 172.355 89.1399C171.74 89.01 171.182 88.8562 170.683 88.6785C170.191 88.5007 169.771 88.2854 169.422 88.0325C169.08 87.7795 168.817 87.4822 168.633 87.1404C168.448 86.7986 168.356 86.3987 168.356 85.9407C168.356 85.5032 168.452 85.0896 168.643 84.7C168.841 84.3103 169.118 83.9651 169.473 83.6643C169.836 83.3635 170.27 83.1277 170.776 82.9568C171.282 82.7859 171.846 82.7004 172.468 82.7004C173.356 82.7004 174.115 82.8577 174.744 83.1721C175.373 83.4866 175.855 83.907 176.19 84.4333C176.525 84.9529 176.692 85.5305 176.692 86.1663H174.795C174.795 85.8586 174.703 85.5613 174.518 85.2742C174.341 84.9802 174.077 84.7375 173.729 84.5461C173.387 84.3547 172.967 84.259 172.468 84.259C171.941 84.259 171.514 84.3411 171.186 84.5051C170.865 84.6624 170.629 84.864 170.478 85.1101C170.335 85.3562 170.263 85.616 170.263 85.8894C170.263 86.0945 170.297 86.2791 170.366 86.4431C170.441 86.6003 170.571 86.7473 170.755 86.884C170.94 87.0139 171.2 87.137 171.535 87.2532C171.869 87.3694 172.297 87.4856 172.816 87.6018C173.725 87.8069 174.474 88.053 175.062 88.3401C175.65 88.6272 176.087 88.9792 176.374 89.3962C176.661 89.8132 176.805 90.3191 176.805 90.9138C176.805 91.3992 176.702 91.8435 176.497 92.2468C176.299 92.6501 176.009 92.9988 175.626 93.2927C175.25 93.5798 174.799 93.8054 174.272 93.9695C173.753 94.1267 173.168 94.2053 172.519 94.2053C171.541 94.2053 170.714 94.031 170.037 93.6824C169.361 93.3337 168.848 92.8826 168.499 92.3289C168.151 91.7751 167.976 91.1907 167.976 90.5754H169.884C169.911 91.095 170.061 91.5085 170.335 91.8162C170.608 92.1169 170.943 92.3323 171.34 92.4622C171.736 92.5852 172.129 92.6467 172.519 92.6467C173.038 92.6467 173.473 92.5784 173.821 92.4417C174.177 92.3049 174.447 92.1169 174.631 91.8777C174.816 91.6384 174.908 91.365 174.908 91.0574ZM184.531 94.2053C183.758 94.2053 183.058 94.0754 182.429 93.8157C181.807 93.5491 181.27 93.1765 180.819 92.698C180.374 92.2195 180.033 91.6521 179.793 90.9958C179.554 90.3396 179.435 89.6218 179.435 88.8425V88.4119C179.435 87.5095 179.568 86.7063 179.834 86.0022C180.101 85.2913 180.463 84.6897 180.921 84.1975C181.379 83.7053 181.899 83.3328 182.48 83.0798C183.061 82.8269 183.663 82.7004 184.285 82.7004C185.078 82.7004 185.761 82.8372 186.335 83.1106C186.916 83.384 187.392 83.7668 187.761 84.259C188.13 84.7444 188.403 85.3186 188.581 85.9817C188.759 86.6379 188.848 87.3557 188.848 88.135V88.9861H180.562V87.4377H186.951V87.2942C186.923 86.802 186.821 86.3235 186.643 85.8586C186.472 85.3938 186.199 85.011 185.823 84.7102C185.447 84.4094 184.934 84.259 184.285 84.259C183.854 84.259 183.457 84.3513 183.095 84.5359C182.733 84.7136 182.422 84.9802 182.162 85.3357C181.902 85.6912 181.701 86.1252 181.557 86.6379C181.414 87.1506 181.342 87.7419 181.342 88.4119V88.8425C181.342 89.3689 181.414 89.8645 181.557 90.3293C181.707 90.7874 181.923 91.1907 182.203 91.5393C182.49 91.8879 182.835 92.1614 183.239 92.3596C183.649 92.5579 184.114 92.657 184.633 92.657C185.303 92.657 185.871 92.5203 186.335 92.2468C186.8 91.9734 187.207 91.6077 187.556 91.1497L188.704 92.0623C188.465 92.4246 188.161 92.7698 187.791 93.0979C187.422 93.426 186.968 93.6926 186.428 93.8977C185.895 94.1028 185.262 94.2053 184.531 94.2053ZM193.589 84.6487V94.0002H191.692V82.9055H193.538L193.589 84.6487ZM197.055 82.844L197.045 84.6077C196.888 84.5735 196.737 84.553 196.594 84.5461C196.457 84.5325 196.3 84.5256 196.122 84.5256C195.685 84.5256 195.298 84.594 194.963 84.7307C194.628 84.8674 194.345 85.0588 194.112 85.3049C193.88 85.551 193.695 85.845 193.559 86.1868C193.429 86.5217 193.343 86.8909 193.302 87.2942L192.769 87.6018C192.769 86.9319 192.834 86.303 192.964 85.7151C193.101 85.1272 193.309 84.6077 193.589 84.1565C193.87 83.6985 194.225 83.343 194.656 83.0901C195.093 82.8303 195.613 82.7004 196.214 82.7004C196.351 82.7004 196.508 82.7175 196.686 82.7517C196.864 82.7791 196.987 82.8098 197.055 82.844ZM202.997 92.2878L206.032 82.9055H207.97L203.981 94.0002H202.71L202.997 92.2878ZM200.464 82.9055L203.592 92.3391L203.807 94.0002H202.535L198.516 82.9055H200.464ZM212.486 82.9055V94.0002H210.579V82.9055H212.486ZM210.435 79.9626C210.435 79.655 210.528 79.3953 210.712 79.1833C210.904 78.9714 211.184 78.8655 211.553 78.8655C211.915 78.8655 212.192 78.9714 212.384 79.1833C212.582 79.3953 212.681 79.655 212.681 79.9626C212.681 80.2566 212.582 80.5095 212.384 80.7214C212.192 80.9265 211.915 81.0291 211.553 81.0291C211.184 81.0291 210.904 80.9265 210.712 80.7214C210.528 80.5095 210.435 80.2566 210.435 79.9626ZM220.602 92.6467C221.053 92.6467 221.47 92.5544 221.852 92.3699C222.235 92.1853 222.55 91.9324 222.796 91.6111C223.042 91.283 223.182 90.9104 223.216 90.4934H225.021C224.987 91.1497 224.765 91.7615 224.354 92.3289C223.951 92.8894 223.421 93.344 222.765 93.6926C222.109 94.0344 221.388 94.2053 220.602 94.2053C219.768 94.2053 219.039 94.0583 218.417 93.7644C217.802 93.4705 217.289 93.0671 216.879 92.5544C216.476 92.0417 216.172 91.4539 215.967 90.7908C215.768 90.1208 215.669 89.4133 215.669 88.6682V88.2375C215.669 87.4924 215.768 86.7883 215.967 86.1252C216.172 85.4553 216.476 84.864 216.879 84.3513C217.289 83.8386 217.802 83.4353 218.417 83.1414C219.039 82.8474 219.768 82.7004 220.602 82.7004C221.47 82.7004 222.228 82.8782 222.878 83.2336C223.527 83.5823 224.037 84.0608 224.406 84.6692C224.782 85.2708 224.987 85.9543 225.021 86.72H223.216C223.182 86.262 223.052 85.8484 222.827 85.4792C222.608 85.1101 222.307 84.8162 221.924 84.5974C221.548 84.3718 221.107 84.259 220.602 84.259C220.02 84.259 219.532 84.3752 219.135 84.6077C218.746 84.8333 218.435 85.1409 218.202 85.5305C217.977 85.9133 217.812 86.3406 217.71 86.8123C217.614 87.2771 217.566 87.7522 217.566 88.2375V88.6682C217.566 89.1536 217.614 89.6321 217.71 90.1038C217.806 90.5754 217.966 91.0027 218.192 91.3855C218.424 91.7683 218.735 92.0759 219.125 92.3083C219.521 92.5339 220.014 92.6467 220.602 92.6467ZM232.388 94.2053C231.615 94.2053 230.915 94.0754 230.286 93.8157C229.664 93.5491 229.127 93.1765 228.676 92.698C228.232 92.2195 227.89 91.6521 227.65 90.9958C227.411 90.3396 227.292 89.6218 227.292 88.8425V88.4119C227.292 87.5095 227.425 86.7063 227.691 86.0022C227.958 85.2913 228.32 84.6897 228.778 84.1975C229.236 83.7053 229.756 83.3328 230.337 83.0798C230.918 82.8269 231.52 82.7004 232.142 82.7004C232.935 82.7004 233.618 82.8372 234.192 83.1106C234.773 83.384 235.249 83.7668 235.618 84.259C235.987 84.7444 236.26 85.3186 236.438 85.9817C236.616 86.6379 236.705 87.3557 236.705 88.135V88.9861H228.419V87.4377H234.808V87.2942C234.78 86.802 234.678 86.3235 234.5 85.8586C234.329 85.3938 234.056 85.011 233.68 84.7102C233.304 84.4094 232.791 84.259 232.142 84.259C231.711 84.259 231.315 84.3513 230.952 84.5359C230.59 84.7136 230.279 84.9802 230.019 85.3357C229.759 85.6912 229.558 86.1252 229.414 86.6379C229.271 87.1506 229.199 87.7419 229.199 88.4119V88.8425C229.199 89.3689 229.271 89.8645 229.414 90.3293C229.565 90.7874 229.78 91.1907 230.06 91.5393C230.347 91.8879 230.692 92.1614 231.096 92.3596C231.506 92.5579 231.971 92.657 232.49 92.657C233.16 92.657 233.728 92.5203 234.192 92.2468C234.657 91.9734 235.064 91.6077 235.413 91.1497L236.561 92.0623C236.322 92.4246 236.018 92.7698 235.648 93.0979C235.279 93.426 234.825 93.6926 234.285 93.8977C233.752 94.1028 233.119 94.2053 232.388 94.2053ZM247.285 85.0383V98.2659H245.378V82.9055H247.121L247.285 85.0383ZM254.761 88.3606V88.5759C254.761 89.3826 254.665 90.1311 254.473 90.8215C254.282 91.5051 254.002 92.0999 253.633 92.6057C253.27 93.1116 252.823 93.5046 252.289 93.7849C251.756 94.0652 251.144 94.2053 250.454 94.2053C249.75 94.2053 249.128 94.0891 248.588 93.8567C248.048 93.6243 247.59 93.2859 247.214 92.8416C246.838 92.3972 246.537 91.864 246.311 91.2419C246.093 90.6199 245.942 89.9192 245.86 89.1399V87.9915C245.942 87.1711 246.096 86.4363 246.322 85.7869C246.547 85.1375 246.845 84.5837 247.214 84.1257C247.59 83.6609 248.044 83.3088 248.577 83.0696C249.111 82.8235 249.726 82.7004 250.423 82.7004C251.12 82.7004 251.739 82.8372 252.279 83.1106C252.819 83.3772 253.274 83.76 253.643 84.259C254.012 84.7581 254.289 85.3562 254.473 86.0535C254.665 86.7439 254.761 87.5129 254.761 88.3606ZM252.853 88.5759V88.3606C252.853 87.8069 252.795 87.2874 252.679 86.802C252.563 86.3098 252.382 85.8792 252.136 85.51C251.896 85.134 251.589 84.8401 251.213 84.6282C250.837 84.4094 250.389 84.3 249.869 84.3C249.391 84.3 248.974 84.3821 248.618 84.5461C248.27 84.7102 247.972 84.9324 247.726 85.2126C247.48 85.4861 247.279 85.8005 247.121 86.156C246.971 86.5046 246.858 86.8669 246.783 87.2429V89.8987C246.92 90.3772 247.111 90.8284 247.357 91.2522C247.603 91.6692 247.931 92.0076 248.342 92.2673C248.752 92.5203 249.268 92.6467 249.89 92.6467C250.403 92.6467 250.844 92.5408 251.213 92.3289C251.589 92.1101 251.896 91.8127 252.136 91.4368C252.382 91.0608 252.563 90.6301 252.679 90.1448C252.795 89.6526 252.853 89.1296 252.853 88.5759ZM259.707 84.6487V94.0002H257.81V82.9055H259.656L259.707 84.6487ZM263.173 82.844L263.163 84.6077C263.006 84.5735 262.855 84.553 262.712 84.5461C262.575 84.5325 262.418 84.5256 262.24 84.5256C261.803 84.5256 261.416 84.594 261.081 84.7307C260.747 84.8674 260.463 85.0588 260.23 85.3049C259.998 85.551 259.813 85.845 259.677 86.1868C259.547 86.5217 259.461 86.8909 259.42 87.2942L258.887 87.6018C258.887 86.9319 258.952 86.303 259.082 85.7151C259.219 85.1272 259.427 84.6077 259.707 84.1565C259.988 83.6985 260.343 83.343 260.774 83.0901C261.211 82.8303 261.731 82.7004 262.332 82.7004C262.469 82.7004 262.626 82.7175 262.804 82.7517C262.982 82.7791 263.105 82.8098 263.173 82.844ZM264.849 88.5759V88.3401C264.849 87.5403 264.965 86.7986 265.198 86.115C265.43 85.4246 265.765 84.8264 266.203 84.3206C266.64 83.8079 267.17 83.4114 267.792 83.1311C268.414 82.844 269.111 82.7004 269.884 82.7004C270.663 82.7004 271.364 82.844 271.986 83.1311C272.615 83.4114 273.148 83.8079 273.585 84.3206C274.03 84.8264 274.368 85.4246 274.601 86.115C274.833 86.7986 274.949 87.5403 274.949 88.3401V88.5759C274.949 89.3757 274.833 90.1174 274.601 90.801C274.368 91.4846 274.03 92.0828 273.585 92.5955C273.148 93.1013 272.618 93.4978 271.996 93.7849C271.381 94.0652 270.684 94.2053 269.904 94.2053C269.125 94.2053 268.424 94.0652 267.802 93.7849C267.18 93.4978 266.647 93.1013 266.203 92.5955C265.765 92.0828 265.43 91.4846 265.198 90.801C264.965 90.1174 264.849 89.3757 264.849 88.5759ZM266.746 88.3401V88.5759C266.746 89.1296 266.811 89.6526 266.941 90.1448C267.071 90.6301 267.266 91.0608 267.525 91.4368C267.792 91.8127 268.124 92.1101 268.52 92.3289C268.917 92.5408 269.378 92.6467 269.904 92.6467C270.424 92.6467 270.878 92.5408 271.268 92.3289C271.665 92.1101 271.993 91.8127 272.252 91.4368C272.512 91.0608 272.707 90.6301 272.837 90.1448C272.974 89.6526 273.042 89.1296 273.042 88.5759V88.3401C273.042 87.7932 272.974 87.2771 272.837 86.7917C272.707 86.2996 272.509 85.8655 272.242 85.4895C271.982 85.1067 271.654 84.8059 271.258 84.5872C270.868 84.3684 270.41 84.259 269.884 84.259C269.364 84.259 268.906 84.3684 268.51 84.5872C268.12 84.8059 267.792 85.1067 267.525 85.4895C267.266 85.8655 267.071 86.2996 266.941 86.7917C266.811 87.2771 266.746 87.7932 266.746 88.3401ZM281.168 92.2878L284.203 82.9055H286.141L282.152 94.0002H280.881L281.168 92.2878ZM278.635 82.9055L281.762 92.3391L281.978 94.0002H280.706L276.687 82.9055H278.635ZM290.657 82.9055V94.0002H288.75V82.9055H290.657ZM288.606 79.9626C288.606 79.655 288.699 79.3953 288.883 79.1833C289.074 78.9714 289.355 78.8655 289.724 78.8655C290.086 78.8655 290.363 78.9714 290.554 79.1833C290.753 79.3953 290.852 79.655 290.852 79.9626C290.852 80.2566 290.753 80.5095 290.554 80.7214C290.363 80.9265 290.086 81.0291 289.724 81.0291C289.355 81.0291 289.074 80.9265 288.883 80.7214C288.699 80.5095 288.606 80.2566 288.606 79.9626ZM301.326 91.8469V78.2502H303.233V94.0002H301.49L301.326 91.8469ZM293.861 88.5759V88.3606C293.861 87.5129 293.963 86.7439 294.168 86.0535C294.38 85.3562 294.678 84.7581 295.06 84.259C295.45 83.76 295.912 83.3772 296.445 83.1106C296.985 82.8372 297.586 82.7004 298.249 82.7004C298.947 82.7004 299.555 82.8235 300.075 83.0696C300.601 83.3088 301.045 83.6609 301.408 84.1257C301.777 84.5837 302.067 85.1375 302.279 85.7869C302.491 86.4363 302.638 87.1711 302.72 87.9915V88.9348C302.645 89.7483 302.498 90.4797 302.279 91.1292C302.067 91.7786 301.777 92.3323 301.408 92.7903C301.045 93.2483 300.601 93.6003 300.075 93.8464C299.548 94.0857 298.933 94.2053 298.229 94.2053C297.579 94.2053 296.985 94.0652 296.445 93.7849C295.912 93.5046 295.45 93.1116 295.06 92.6057C294.678 92.0999 294.38 91.5051 294.168 90.8215C293.963 90.1311 293.861 89.3826 293.861 88.5759ZM295.768 88.3606V88.5759C295.768 89.1296 295.823 89.6492 295.932 90.1345C296.048 90.6199 296.226 91.0471 296.465 91.4163C296.704 91.7854 297.009 92.0759 297.378 92.2878C297.747 92.4929 298.188 92.5955 298.701 92.5955C299.329 92.5955 299.846 92.4622 300.249 92.1956C300.659 91.929 300.987 91.5769 301.233 91.1394C301.479 90.7019 301.671 90.2268 301.808 89.7141V87.2429C301.725 86.8669 301.606 86.5046 301.449 86.156C301.298 85.8005 301.1 85.4861 300.854 85.2126C300.615 84.9324 300.317 84.7102 299.962 84.5461C299.613 84.3821 299.2 84.3 298.721 84.3C298.202 84.3 297.754 84.4094 297.378 84.6282C297.009 84.8401 296.704 85.134 296.465 85.51C296.226 85.8792 296.048 86.3098 295.932 86.802C295.823 87.2874 295.768 87.8069 295.768 88.3606ZM311.42 94.2053C310.647 94.2053 309.947 94.0754 309.318 93.8157C308.696 93.5491 308.159 93.1765 307.708 92.698C307.264 92.2195 306.922 91.6521 306.683 90.9958C306.443 90.3396 306.324 89.6218 306.324 88.8425V88.4119C306.324 87.5095 306.457 86.7063 306.724 86.0022C306.99 85.2913 307.353 84.6897 307.811 84.1975C308.269 83.7053 308.788 83.3328 309.369 83.0798C309.95 82.8269 310.552 82.7004 311.174 82.7004C311.967 82.7004 312.65 82.8372 313.225 83.1106C313.806 83.384 314.281 83.7668 314.65 84.259C315.019 84.7444 315.292 85.3186 315.47 85.9817C315.648 86.6379 315.737 87.3557 315.737 88.135V88.9861H307.452V87.4377H313.84V87.2942C313.812 86.802 313.71 86.3235 313.532 85.8586C313.361 85.3938 313.088 85.011 312.712 84.7102C312.336 84.4094 311.823 84.259 311.174 84.259C310.743 84.259 310.347 84.3513 309.984 84.5359C309.622 84.7136 309.311 84.9802 309.051 85.3357C308.792 85.6912 308.59 86.1252 308.446 86.6379C308.303 87.1506 308.231 87.7419 308.231 88.4119V88.8425C308.231 89.3689 308.303 89.8645 308.446 90.3293C308.597 90.7874 308.812 91.1907 309.092 91.5393C309.379 91.8879 309.725 92.1614 310.128 92.3596C310.538 92.5579 311.003 92.657 311.522 92.657C312.192 92.657 312.76 92.5203 313.225 92.2468C313.689 91.9734 314.096 91.6077 314.445 91.1497L315.593 92.0623C315.354 92.4246 315.05 92.7698 314.681 93.0979C314.312 93.426 313.857 93.6926 313.317 93.8977C312.784 94.1028 312.151 94.2053 311.42 94.2053ZM320.479 84.6487V94.0002H318.582V82.9055H320.427L320.479 84.6487ZM323.944 82.844L323.934 84.6077C323.777 84.5735 323.627 84.553 323.483 84.5461C323.346 84.5325 323.189 84.5256 323.011 84.5256C322.574 84.5256 322.188 84.594 321.853 84.7307C321.518 84.8674 321.234 85.0588 321.002 85.3049C320.769 85.551 320.585 85.845 320.448 86.1868C320.318 86.5217 320.233 86.8909 320.192 87.2942L319.658 87.6018C319.658 86.9319 319.723 86.303 319.853 85.7151C319.99 85.1272 320.198 84.6077 320.479 84.1565C320.759 83.6985 321.114 83.343 321.545 83.0901C321.983 82.8303 322.502 82.7004 323.104 82.7004C323.24 82.7004 323.398 82.7175 323.575 82.7517C323.753 82.7791 323.876 82.8098 323.944 82.844ZM332.788 91.0574C332.788 90.7839 332.726 90.531 332.603 90.2986C332.487 90.0593 332.244 89.844 331.875 89.6526C331.513 89.4543 330.966 89.2834 330.235 89.1399C329.619 89.01 329.062 88.8562 328.563 88.6785C328.071 88.5007 327.651 88.2854 327.302 88.0325C326.96 87.7795 326.697 87.4822 326.512 87.1404C326.328 86.7986 326.236 86.3987 326.236 85.9407C326.236 85.5032 326.331 85.0896 326.523 84.7C326.721 84.3103 326.998 83.9651 327.353 83.6643C327.716 83.3635 328.15 83.1277 328.656 82.9568C329.161 82.7859 329.725 82.7004 330.347 82.7004C331.236 82.7004 331.995 82.8577 332.624 83.1721C333.253 83.4866 333.735 83.907 334.07 84.4333C334.405 84.9529 334.572 85.5305 334.572 86.1663H332.675C332.675 85.8586 332.583 85.5613 332.398 85.2742C332.22 84.9802 331.957 84.7375 331.609 84.5461C331.267 84.3547 330.846 84.259 330.347 84.259C329.821 84.259 329.394 84.3411 329.066 84.5051C328.744 84.6624 328.509 84.864 328.358 85.1101C328.215 85.3562 328.143 85.616 328.143 85.8894C328.143 86.0945 328.177 86.2791 328.245 86.4431C328.321 86.6003 328.45 86.7473 328.635 86.884C328.82 87.0139 329.079 87.137 329.414 87.2532C329.749 87.3694 330.177 87.4856 330.696 87.6018C331.605 87.8069 332.354 88.053 332.942 88.3401C333.53 88.6272 333.967 88.9792 334.254 89.3962C334.541 89.8132 334.685 90.3191 334.685 90.9138C334.685 91.3992 334.582 91.8435 334.377 92.2468C334.179 92.6501 333.888 92.9988 333.506 93.2927C333.13 93.5798 332.678 93.8054 332.152 93.9695C331.633 94.1267 331.048 94.2053 330.399 94.2053C329.421 94.2053 328.594 94.031 327.917 93.6824C327.24 93.3337 326.728 92.8826 326.379 92.3289C326.031 91.7751 325.856 91.1907 325.856 90.5754H327.763C327.791 91.095 327.941 91.5085 328.215 91.8162C328.488 92.1169 328.823 92.3323 329.219 92.4622C329.616 92.5852 330.009 92.6467 330.399 92.6467C330.918 92.6467 331.352 92.5784 331.701 92.4417C332.056 92.3049 332.326 92.1169 332.511 91.8777C332.696 91.6384 332.788 91.365 332.788 91.0574ZM339.529 91.7444V93.2722C339.529 93.8943 339.372 94.5505 339.057 95.241C338.743 95.9382 338.302 96.5193 337.735 96.9841L336.658 96.2356C336.877 95.9348 337.061 95.6272 337.212 95.3127C337.362 95.0051 337.475 94.6838 337.55 94.3489C337.632 94.0208 337.673 93.6721 337.673 93.303V91.7444H339.529ZM91.1824 114.057C91.1824 113.784 91.1209 113.531 90.9979 113.299C90.8817 113.059 90.639 112.844 90.2698 112.653C89.9075 112.454 89.3607 112.283 88.6292 112.14C88.014 112.01 87.4568 111.856 86.9578 111.678C86.4656 111.501 86.0452 111.285 85.6966 111.032C85.3548 110.78 85.0916 110.482 84.907 110.14C84.7225 109.799 84.6302 109.399 84.6302 108.941C84.6302 108.503 84.7259 108.09 84.9173 107.7C85.1155 107.31 85.3924 106.965 85.7479 106.664C86.1102 106.364 86.5443 106.128 87.0501 105.957C87.556 105.786 88.1199 105.7 88.742 105.7C89.6307 105.7 90.3895 105.858 91.0184 106.172C91.6473 106.487 92.1292 106.907 92.4642 107.433C92.7991 107.953 92.9666 108.531 92.9666 109.166H91.0696C91.0696 108.859 90.9774 108.561 90.7928 108.274C90.6151 107.98 90.3519 107.738 90.0032 107.546C89.6614 107.355 89.241 107.259 88.742 107.259C88.2156 107.259 87.7884 107.341 87.4603 107.505C87.139 107.662 86.9031 107.864 86.7527 108.11C86.6092 108.356 86.5374 108.616 86.5374 108.889C86.5374 109.094 86.5716 109.279 86.64 109.443C86.7151 109.6 86.845 109.747 87.0296 109.884C87.2142 110.014 87.4739 110.137 87.8089 110.253C88.1439 110.369 88.5711 110.486 89.0906 110.602C89.9998 110.807 90.7484 111.053 91.3362 111.34C91.9241 111.627 92.3616 111.979 92.6487 112.396C92.9359 112.813 93.0794 113.319 93.0794 113.914C93.0794 114.399 92.9769 114.844 92.7718 115.247C92.5735 115.65 92.283 115.999 91.9002 116.293C91.5242 116.58 91.0731 116.805 90.5467 116.969C90.0272 117.127 89.4427 117.205 88.7933 117.205C87.8157 117.205 86.9886 117.031 86.3118 116.682C85.6351 116.334 85.1224 115.883 84.7737 115.329C84.4251 114.775 84.2508 114.191 84.2508 113.575H86.158C86.1854 114.095 86.3358 114.509 86.6092 114.816C86.8826 115.117 87.2176 115.332 87.6141 115.462C88.0106 115.585 88.4036 115.647 88.7933 115.647C89.3128 115.647 89.7469 115.578 90.0955 115.442C90.451 115.305 90.721 115.117 90.9056 114.878C91.0901 114.638 91.1824 114.365 91.1824 114.057ZM102.989 114.437V105.906H104.896V117H103.081L102.989 114.437ZM103.348 112.099L104.138 112.078C104.138 112.817 104.059 113.5 103.902 114.129C103.751 114.751 103.505 115.291 103.164 115.749C102.822 116.207 102.374 116.566 101.82 116.826C101.267 117.079 100.593 117.205 99.8002 117.205C99.2602 117.205 98.7646 117.127 98.3134 116.969C97.8691 116.812 97.4863 116.57 97.165 116.241C96.8437 115.913 96.5942 115.486 96.4164 114.96C96.2455 114.433 96.1601 113.801 96.1601 113.063V105.906H98.0571V113.083C98.0571 113.582 98.1118 113.996 98.2211 114.324C98.3373 114.645 98.4911 114.902 98.6826 115.093C98.8808 115.278 99.0995 115.407 99.3388 115.483C99.5849 115.558 99.8378 115.595 100.098 115.595C100.904 115.595 101.543 115.442 102.015 115.134C102.487 114.82 102.825 114.399 103.03 113.873C103.242 113.34 103.348 112.748 103.348 112.099ZM110.315 108.038V121.266H108.408V105.906H110.151L110.315 108.038ZM117.79 111.361V111.576C117.79 112.383 117.694 113.131 117.503 113.822C117.312 114.505 117.031 115.1 116.662 115.606C116.3 116.112 115.852 116.505 115.319 116.785C114.786 117.065 114.174 117.205 113.483 117.205C112.779 117.205 112.157 117.089 111.617 116.857C111.077 116.624 110.619 116.286 110.243 115.842C109.867 115.397 109.566 114.864 109.341 114.242C109.122 113.62 108.972 112.919 108.89 112.14V110.991C108.972 110.171 109.126 109.436 109.351 108.787C109.577 108.137 109.874 107.584 110.243 107.126C110.619 106.661 111.074 106.309 111.607 106.07C112.14 105.823 112.755 105.7 113.453 105.7C114.15 105.7 114.769 105.837 115.309 106.111C115.849 106.377 116.303 106.76 116.672 107.259C117.042 107.758 117.318 108.356 117.503 109.053C117.694 109.744 117.79 110.513 117.79 111.361ZM115.883 111.576V111.361C115.883 110.807 115.825 110.287 115.709 109.802C115.592 109.31 115.411 108.879 115.165 108.51C114.926 108.134 114.618 107.84 114.242 107.628C113.866 107.409 113.419 107.3 112.899 107.3C112.42 107.3 112.003 107.382 111.648 107.546C111.299 107.71 111.002 107.932 110.756 108.213C110.51 108.486 110.308 108.801 110.151 109.156C110.001 109.505 109.888 109.867 109.813 110.243V112.899C109.949 113.377 110.141 113.828 110.387 114.252C110.633 114.669 110.961 115.008 111.371 115.267C111.781 115.52 112.297 115.647 112.919 115.647C113.432 115.647 113.873 115.541 114.242 115.329C114.618 115.11 114.926 114.813 115.165 114.437C115.411 114.061 115.592 113.63 115.709 113.145C115.825 112.653 115.883 112.13 115.883 111.576ZM122.737 108.038V121.266H120.83V105.906H122.573L122.737 108.038ZM130.212 111.361V111.576C130.212 112.383 130.116 113.131 129.925 113.822C129.734 114.505 129.453 115.1 129.084 115.606C128.722 116.112 128.274 116.505 127.741 116.785C127.208 117.065 126.596 117.205 125.905 117.205C125.201 117.205 124.579 117.089 124.039 116.857C123.499 116.624 123.041 116.286 122.665 115.842C122.289 115.397 121.988 114.864 121.763 114.242C121.544 113.62 121.394 112.919 121.312 112.14V110.991C121.394 110.171 121.548 109.436 121.773 108.787C121.999 108.137 122.296 107.584 122.665 107.126C123.041 106.661 123.496 106.309 124.029 106.07C124.562 105.823 125.177 105.7 125.875 105.7C126.572 105.7 127.191 105.837 127.731 106.111C128.271 106.377 128.725 106.76 129.094 107.259C129.464 107.758 129.74 108.356 129.925 109.053C130.116 109.744 130.212 110.513 130.212 111.361ZM128.305 111.576V111.361C128.305 110.807 128.247 110.287 128.131 109.802C128.014 109.31 127.833 108.879 127.587 108.51C127.348 108.134 127.04 107.84 126.664 107.628C126.288 107.409 125.84 107.3 125.321 107.3C124.842 107.3 124.425 107.382 124.07 107.546C123.721 107.71 123.424 107.932 123.178 108.213C122.932 108.486 122.73 108.801 122.573 109.156C122.423 109.505 122.31 109.867 122.235 110.243V112.899C122.371 113.377 122.563 113.828 122.809 114.252C123.055 114.669 123.383 115.008 123.793 115.267C124.203 115.52 124.719 115.647 125.341 115.647C125.854 115.647 126.295 115.541 126.664 115.329C127.04 115.11 127.348 114.813 127.587 114.437C127.833 114.061 128.014 113.63 128.131 113.145C128.247 112.653 128.305 112.13 128.305 111.576ZM135.323 101.25V117H133.416V101.25H135.323ZM141.059 105.906V117H139.152V105.906H141.059ZM139.009 102.963C139.009 102.655 139.101 102.395 139.286 102.183C139.477 101.971 139.757 101.865 140.126 101.865C140.489 101.865 140.766 101.971 140.957 102.183C141.155 102.395 141.254 102.655 141.254 102.963C141.254 103.257 141.155 103.51 140.957 103.721C140.766 103.927 140.489 104.029 140.126 104.029C139.757 104.029 139.477 103.927 139.286 103.721C139.101 103.51 139.009 103.257 139.009 102.963ZM149.339 117.205C148.566 117.205 147.866 117.075 147.237 116.816C146.615 116.549 146.078 116.177 145.627 115.698C145.183 115.219 144.841 114.652 144.602 113.996C144.362 113.34 144.243 112.622 144.243 111.843V111.412C144.243 110.51 144.376 109.706 144.643 109.002C144.909 108.291 145.272 107.69 145.73 107.198C146.188 106.705 146.707 106.333 147.288 106.08C147.869 105.827 148.471 105.7 149.093 105.7C149.886 105.7 150.569 105.837 151.144 106.111C151.725 106.384 152.2 106.767 152.569 107.259C152.938 107.744 153.211 108.319 153.389 108.982C153.567 109.638 153.656 110.356 153.656 111.135V111.986H145.371V110.438H151.759V110.294C151.731 109.802 151.629 109.323 151.451 108.859C151.28 108.394 151.007 108.011 150.631 107.71C150.255 107.409 149.742 107.259 149.093 107.259C148.662 107.259 148.266 107.351 147.903 107.536C147.541 107.714 147.23 107.98 146.97 108.336C146.71 108.691 146.509 109.125 146.365 109.638C146.222 110.151 146.15 110.742 146.15 111.412V111.843C146.15 112.369 146.222 112.865 146.365 113.329C146.516 113.787 146.731 114.191 147.011 114.539C147.298 114.888 147.644 115.161 148.047 115.36C148.457 115.558 148.922 115.657 149.441 115.657C150.111 115.657 150.679 115.52 151.144 115.247C151.608 114.973 152.015 114.608 152.364 114.15L153.512 115.062C153.273 115.425 152.969 115.77 152.6 116.098C152.23 116.426 151.776 116.693 151.236 116.898C150.703 117.103 150.07 117.205 149.339 117.205ZM158.398 107.649V117H156.501V105.906H158.346L158.398 107.649ZM161.863 105.844L161.853 107.608C161.696 107.573 161.546 107.553 161.402 107.546C161.265 107.532 161.108 107.526 160.93 107.526C160.493 107.526 160.107 107.594 159.772 107.731C159.437 107.867 159.153 108.059 158.921 108.305C158.688 108.551 158.504 108.845 158.367 109.187C158.237 109.522 158.152 109.891 158.111 110.294L157.577 110.602C157.577 109.932 157.642 109.303 157.772 108.715C157.909 108.127 158.117 107.608 158.398 107.156C158.678 106.698 159.033 106.343 159.464 106.09C159.902 105.83 160.421 105.7 161.023 105.7C161.159 105.7 161.317 105.718 161.494 105.752C161.672 105.779 161.795 105.81 161.863 105.844ZM170.707 114.057C170.707 113.784 170.645 113.531 170.522 113.299C170.406 113.059 170.163 112.844 169.794 112.653C169.432 112.454 168.885 112.283 168.154 112.14C167.538 112.01 166.981 111.856 166.482 111.678C165.99 111.501 165.57 111.285 165.221 111.032C164.879 110.78 164.616 110.482 164.431 110.14C164.247 109.799 164.155 109.399 164.155 108.941C164.155 108.503 164.25 108.09 164.442 107.7C164.64 107.31 164.917 106.965 165.272 106.664C165.635 106.364 166.069 106.128 166.574 105.957C167.08 105.786 167.644 105.7 168.266 105.7C169.155 105.7 169.914 105.858 170.543 106.172C171.172 106.487 171.654 106.907 171.989 107.433C172.324 107.953 172.491 108.531 172.491 109.166H170.594C170.594 108.859 170.502 108.561 170.317 108.274C170.139 107.98 169.876 107.738 169.528 107.546C169.186 107.355 168.765 107.259 168.266 107.259C167.74 107.259 167.313 107.341 166.985 107.505C166.663 107.662 166.428 107.864 166.277 108.11C166.134 108.356 166.062 108.616 166.062 108.889C166.062 109.094 166.096 109.279 166.164 109.443C166.24 109.6 166.369 109.747 166.554 109.884C166.739 110.014 166.998 110.137 167.333 110.253C167.668 110.369 168.095 110.486 168.615 110.602C169.524 110.807 170.273 111.053 170.861 111.34C171.449 111.627 171.886 111.979 172.173 112.396C172.46 112.813 172.604 113.319 172.604 113.914C172.604 114.399 172.501 114.844 172.296 115.247C172.098 115.65 171.807 115.999 171.425 116.293C171.049 116.58 170.597 116.805 170.071 116.969C169.552 117.127 168.967 117.205 168.318 117.205C167.34 117.205 166.513 117.031 165.836 116.682C165.159 116.334 164.647 115.883 164.298 115.329C163.949 114.775 163.775 114.191 163.775 113.575H165.682C165.71 114.095 165.86 114.509 166.134 114.816C166.407 115.117 166.742 115.332 167.138 115.462C167.535 115.585 167.928 115.647 168.318 115.647C168.837 115.647 169.271 115.578 169.62 115.442C169.975 115.305 170.245 115.117 170.43 114.878C170.615 114.638 170.707 114.365 170.707 114.057ZM177.448 114.744V116.272C177.448 116.894 177.291 117.551 176.976 118.241C176.662 118.938 176.221 119.519 175.654 119.984L174.577 119.236C174.796 118.935 174.98 118.627 175.131 118.313C175.281 118.005 175.394 117.684 175.469 117.349C175.551 117.021 175.592 116.672 175.592 116.303V114.744H177.448ZM193.33 114.847V101.25H195.237V117H193.494L193.33 114.847ZM185.865 111.576V111.361C185.865 110.513 185.968 109.744 186.173 109.053C186.385 108.356 186.682 107.758 187.065 107.259C187.455 106.76 187.916 106.377 188.449 106.111C188.989 105.837 189.591 105.7 190.254 105.7C190.951 105.7 191.56 105.823 192.079 106.07C192.606 106.309 193.05 106.661 193.412 107.126C193.781 107.584 194.072 108.137 194.284 108.787C194.496 109.436 194.643 110.171 194.725 110.991V111.935C194.65 112.748 194.503 113.48 194.284 114.129C194.072 114.779 193.781 115.332 193.412 115.79C193.05 116.248 192.606 116.6 192.079 116.846C191.553 117.086 190.938 117.205 190.234 117.205C189.584 117.205 188.989 117.065 188.449 116.785C187.916 116.505 187.455 116.112 187.065 115.606C186.682 115.1 186.385 114.505 186.173 113.822C185.968 113.131 185.865 112.383 185.865 111.576ZM187.773 111.361V111.576C187.773 112.13 187.827 112.649 187.937 113.135C188.053 113.62 188.231 114.047 188.47 114.416C188.709 114.785 189.013 115.076 189.382 115.288C189.752 115.493 190.193 115.595 190.705 115.595C191.334 115.595 191.85 115.462 192.254 115.196C192.664 114.929 192.992 114.577 193.238 114.139C193.484 113.702 193.675 113.227 193.812 112.714V110.243C193.73 109.867 193.61 109.505 193.453 109.156C193.303 108.801 193.105 108.486 192.859 108.213C192.619 107.932 192.322 107.71 191.966 107.546C191.618 107.382 191.204 107.3 190.726 107.3C190.206 107.3 189.758 107.409 189.382 107.628C189.013 107.84 188.709 108.134 188.47 108.51C188.231 108.879 188.053 109.31 187.937 109.802C187.827 110.287 187.773 110.807 187.773 111.361ZM200.882 105.906V117H198.974V105.906H200.882ZM198.831 102.963C198.831 102.655 198.923 102.395 199.108 102.183C199.299 101.971 199.579 101.865 199.948 101.865C200.311 101.865 200.588 101.971 200.779 102.183C200.977 102.395 201.076 102.655 201.076 102.963C201.076 103.257 200.977 103.51 200.779 103.721C200.588 103.927 200.311 104.029 199.948 104.029C199.579 104.029 199.299 103.927 199.108 103.721C198.923 103.51 198.831 103.257 198.831 102.963ZM211.017 114.057C211.017 113.784 210.955 113.531 210.832 113.299C210.716 113.059 210.474 112.844 210.104 112.653C209.742 112.454 209.195 112.283 208.464 112.14C207.849 112.01 207.291 111.856 206.792 111.678C206.3 111.501 205.88 111.285 205.531 111.032C205.189 110.78 204.926 110.482 204.742 110.14C204.557 109.799 204.465 109.399 204.465 108.941C204.465 108.503 204.56 108.09 204.752 107.7C204.95 107.31 205.227 106.965 205.582 106.664C205.945 106.364 206.379 106.128 206.885 105.957C207.391 105.786 207.954 105.7 208.577 105.7C209.465 105.7 210.224 105.858 210.853 106.172C211.482 106.487 211.964 106.907 212.299 107.433C212.634 107.953 212.801 108.531 212.801 109.166H210.904C210.904 108.859 210.812 108.561 210.627 108.274C210.45 107.98 210.186 107.738 209.838 107.546C209.496 107.355 209.076 107.259 208.577 107.259C208.05 107.259 207.623 107.341 207.295 107.505C206.974 107.662 206.738 107.864 206.587 108.11C206.444 108.356 206.372 108.616 206.372 108.889C206.372 109.094 206.406 109.279 206.474 109.443C206.55 109.6 206.68 109.747 206.864 109.884C207.049 110.014 207.308 110.137 207.643 110.253C207.978 110.369 208.406 110.486 208.925 110.602C209.834 110.807 210.583 111.053 211.171 111.34C211.759 111.627 212.196 111.979 212.483 112.396C212.77 112.813 212.914 113.319 212.914 113.914C212.914 114.399 212.811 114.844 212.606 115.247C212.408 115.65 212.118 115.999 211.735 116.293C211.359 116.58 210.908 116.805 210.381 116.969C209.862 117.127 209.277 117.205 208.628 117.205C207.65 117.205 206.823 117.031 206.146 116.682C205.47 116.334 204.957 115.883 204.608 115.329C204.26 114.775 204.085 114.191 204.085 113.575H205.993C206.02 114.095 206.17 114.509 206.444 114.816C206.717 115.117 207.052 115.332 207.449 115.462C207.845 115.585 208.238 115.647 208.628 115.647C209.147 115.647 209.581 115.578 209.93 115.442C210.286 115.305 210.556 115.117 210.74 114.878C210.925 114.638 211.017 114.365 211.017 114.057ZM220.681 105.906V107.362H214.682V105.906H220.681ZM216.712 103.209H218.609V114.252C218.609 114.628 218.667 114.912 218.784 115.103C218.9 115.295 219.05 115.421 219.235 115.483C219.419 115.544 219.618 115.575 219.83 115.575C219.987 115.575 220.151 115.561 220.322 115.534C220.5 115.5 220.633 115.472 220.722 115.452L220.732 117C220.582 117.048 220.383 117.093 220.137 117.134C219.898 117.181 219.607 117.205 219.266 117.205C218.801 117.205 218.374 117.113 217.984 116.928C217.594 116.744 217.283 116.436 217.051 116.006C216.825 115.568 216.712 114.98 216.712 114.242V103.209ZM225.433 107.649V117H223.536V105.906H225.381L225.433 107.649ZM228.899 105.844L228.888 107.608C228.731 107.573 228.581 107.553 228.437 107.546C228.3 107.532 228.143 107.526 227.965 107.526C227.528 107.526 227.142 107.594 226.807 107.731C226.472 107.867 226.188 108.059 225.956 108.305C225.723 108.551 225.539 108.845 225.402 109.187C225.272 109.522 225.187 109.891 225.146 110.294L224.612 110.602C224.612 109.932 224.677 109.303 224.807 108.715C224.944 108.127 225.152 107.608 225.433 107.156C225.713 106.698 226.068 106.343 226.499 106.09C226.937 105.83 227.456 105.7 228.058 105.7C228.194 105.7 228.352 105.718 228.529 105.752C228.707 105.779 228.83 105.81 228.899 105.844ZM233.343 105.906V117H231.436V105.906H233.343ZM231.292 102.963C231.292 102.655 231.385 102.395 231.569 102.183C231.76 101.971 232.041 101.865 232.41 101.865C232.772 101.865 233.049 101.971 233.24 102.183C233.439 102.395 233.538 102.655 233.538 102.963C233.538 103.257 233.439 103.51 233.24 103.721C233.049 103.927 232.772 104.029 232.41 104.029C232.041 104.029 231.76 103.927 231.569 103.721C231.385 103.51 231.292 103.257 231.292 102.963ZM237.008 101.25H238.915V114.847L238.751 117H237.008V101.25ZM246.411 111.361V111.576C246.411 112.383 246.315 113.131 246.124 113.822C245.932 114.505 245.652 115.1 245.283 115.606C244.914 116.112 244.463 116.505 243.93 116.785C243.396 117.065 242.785 117.205 242.094 117.205C241.39 117.205 240.771 117.086 240.238 116.846C239.712 116.6 239.267 116.248 238.905 115.79C238.543 115.332 238.252 114.779 238.034 114.129C237.822 113.48 237.675 112.748 237.593 111.935V110.991C237.675 110.171 237.822 109.436 238.034 108.787C238.252 108.137 238.543 107.584 238.905 107.126C239.267 106.661 239.712 106.309 240.238 106.07C240.765 105.823 241.376 105.7 242.074 105.7C242.771 105.7 243.39 105.837 243.93 106.111C244.47 106.377 244.921 106.76 245.283 107.259C245.652 107.758 245.932 108.356 246.124 109.053C246.315 109.744 246.411 110.513 246.411 111.361ZM244.504 111.576V111.361C244.504 110.807 244.452 110.287 244.35 109.802C244.247 109.31 244.083 108.879 243.858 108.51C243.632 108.134 243.335 107.84 242.966 107.628C242.597 107.409 242.142 107.3 241.602 107.3C241.123 107.3 240.706 107.382 240.351 107.546C240.002 107.71 239.705 107.932 239.459 108.213C239.213 108.486 239.011 108.801 238.854 109.156C238.703 109.505 238.591 109.867 238.515 110.243V112.714C238.625 113.193 238.803 113.654 239.049 114.098C239.302 114.536 239.637 114.895 240.054 115.175C240.477 115.455 241 115.595 241.622 115.595C242.135 115.595 242.573 115.493 242.935 115.288C243.304 115.076 243.601 114.785 243.827 114.416C244.059 114.047 244.23 113.62 244.34 113.135C244.449 112.649 244.504 112.13 244.504 111.576ZM256.228 114.437V105.906H258.136V117H256.321L256.228 114.437ZM256.587 112.099L257.377 112.078C257.377 112.817 257.298 113.5 257.141 114.129C256.991 114.751 256.745 115.291 256.403 115.749C256.061 116.207 255.613 116.566 255.06 116.826C254.506 117.079 253.832 117.205 253.04 117.205C252.499 117.205 252.004 117.127 251.553 116.969C251.108 116.812 250.726 116.57 250.404 116.241C250.083 115.913 249.833 115.486 249.656 114.96C249.485 114.433 249.399 113.801 249.399 113.063V105.906H251.296V113.083C251.296 113.582 251.351 113.996 251.46 114.324C251.577 114.645 251.73 114.902 251.922 115.093C252.12 115.278 252.339 115.407 252.578 115.483C252.824 115.558 253.077 115.595 253.337 115.595C254.144 115.595 254.783 115.442 255.254 115.134C255.726 114.82 256.064 114.399 256.27 113.873C256.481 113.34 256.587 112.748 256.587 112.099ZM266.302 105.906V107.362H260.304V105.906H266.302ZM262.334 103.209H264.231V114.252C264.231 114.628 264.289 114.912 264.405 115.103C264.522 115.295 264.672 115.421 264.857 115.483C265.041 115.544 265.239 115.575 265.451 115.575C265.608 115.575 265.773 115.561 265.943 115.534C266.121 115.5 266.254 115.472 266.343 115.452L266.354 117C266.203 117.048 266.005 117.093 265.759 117.134C265.52 117.181 265.229 117.205 264.887 117.205C264.422 117.205 263.995 117.113 263.606 116.928C263.216 116.744 262.905 116.436 262.672 116.006C262.447 115.568 262.334 114.98 262.334 114.242V103.209ZM268.45 111.576V111.34C268.45 110.54 268.566 109.799 268.799 109.115C269.031 108.425 269.366 107.826 269.803 107.321C270.241 106.808 270.771 106.411 271.393 106.131C272.015 105.844 272.712 105.7 273.485 105.7C274.264 105.7 274.965 105.844 275.587 106.131C276.216 106.411 276.749 106.808 277.186 107.321C277.631 107.826 277.969 108.425 278.201 109.115C278.434 109.799 278.55 110.54 278.55 111.34V111.576C278.55 112.376 278.434 113.117 278.201 113.801C277.969 114.485 277.631 115.083 277.186 115.595C276.749 116.101 276.219 116.498 275.597 116.785C274.982 117.065 274.284 117.205 273.505 117.205C272.726 117.205 272.025 117.065 271.403 116.785C270.781 116.498 270.248 116.101 269.803 115.595C269.366 115.083 269.031 114.485 268.799 113.801C268.566 113.117 268.45 112.376 268.45 111.576ZM270.347 111.34V111.576C270.347 112.13 270.412 112.653 270.542 113.145C270.672 113.63 270.866 114.061 271.126 114.437C271.393 114.813 271.724 115.11 272.121 115.329C272.517 115.541 272.979 115.647 273.505 115.647C274.025 115.647 274.479 115.541 274.869 115.329C275.265 115.11 275.593 114.813 275.853 114.437C276.113 114.061 276.308 113.63 276.438 113.145C276.574 112.653 276.643 112.13 276.643 111.576V111.34C276.643 110.793 276.574 110.277 276.438 109.792C276.308 109.3 276.11 108.865 275.843 108.49C275.583 108.107 275.255 107.806 274.859 107.587C274.469 107.368 274.011 107.259 273.485 107.259C272.965 107.259 272.507 107.368 272.111 107.587C271.721 107.806 271.393 108.107 271.126 108.49C270.866 108.865 270.672 109.3 270.542 109.792C270.412 110.277 270.347 110.793 270.347 111.34ZM283.456 107.649V117H281.559V105.906H283.405L283.456 107.649ZM286.922 105.844L286.911 107.608C286.754 107.573 286.604 107.553 286.46 107.546C286.324 107.532 286.166 107.526 285.989 107.526C285.551 107.526 285.165 107.594 284.83 107.731C284.495 107.867 284.211 108.059 283.979 108.305C283.746 108.551 283.562 108.845 283.425 109.187C283.295 109.522 283.21 109.891 283.169 110.294L282.636 110.602C282.636 109.932 282.701 109.303 282.83 108.715C282.967 108.127 283.176 107.608 283.456 107.156C283.736 106.698 284.092 106.343 284.522 106.09C284.96 105.83 285.479 105.7 286.081 105.7C286.218 105.7 286.375 105.718 286.553 105.752C286.73 105.779 286.853 105.81 286.922 105.844ZM295.765 114.057C295.765 113.784 295.704 113.531 295.581 113.299C295.464 113.059 295.222 112.844 294.852 112.653C294.49 112.454 293.943 112.283 293.212 112.14C292.597 112.01 292.04 111.856 291.54 111.678C291.048 111.501 290.628 111.285 290.279 111.032C289.937 110.78 289.674 110.482 289.49 110.14C289.305 109.799 289.213 109.399 289.213 108.941C289.213 108.503 289.309 108.09 289.5 107.7C289.698 107.31 289.975 106.965 290.331 106.664C290.693 106.364 291.127 106.128 291.633 105.957C292.139 105.786 292.703 105.7 293.325 105.7C294.213 105.7 294.972 105.858 295.601 106.172C296.23 106.487 296.712 106.907 297.047 107.433C297.382 107.953 297.549 108.531 297.549 109.166H295.652C295.652 108.859 295.56 108.561 295.375 108.274C295.198 107.98 294.935 107.738 294.586 107.546C294.244 107.355 293.824 107.259 293.325 107.259C292.798 107.259 292.371 107.341 292.043 107.505C291.722 107.662 291.486 107.864 291.335 108.11C291.192 108.356 291.12 108.616 291.12 108.889C291.12 109.094 291.154 109.279 291.223 109.443C291.298 109.6 291.428 109.747 291.612 109.884C291.797 110.014 292.057 110.137 292.392 110.253C292.727 110.369 293.154 110.486 293.673 110.602C294.582 110.807 295.331 111.053 295.919 111.34C296.507 111.627 296.944 111.979 297.231 112.396C297.519 112.813 297.662 113.319 297.662 113.914C297.662 114.399 297.56 114.844 297.354 115.247C297.156 115.65 296.866 115.999 296.483 116.293C296.107 116.58 295.656 116.805 295.129 116.969C294.61 117.127 294.025 117.205 293.376 117.205C292.398 117.205 291.571 117.031 290.894 116.682C290.218 116.334 289.705 115.883 289.356 115.329C289.008 114.775 288.833 114.191 288.833 113.575H290.741C290.768 114.095 290.918 114.509 291.192 114.816C291.465 115.117 291.8 115.332 292.197 115.462C292.593 115.585 292.986 115.647 293.376 115.647C293.895 115.647 294.33 115.578 294.678 115.442C295.034 115.305 295.304 115.117 295.488 114.878C295.673 114.638 295.765 114.365 295.765 114.057ZM302.506 114.744V116.272C302.506 116.894 302.349 117.551 302.035 118.241C301.72 118.938 301.279 119.519 300.712 119.984L299.635 119.236C299.854 118.935 300.039 118.627 300.189 118.313C300.339 118.005 300.452 117.684 300.527 117.349C300.609 117.021 300.65 116.672 300.65 116.303V114.744H302.506ZM317.937 115.103V109.392C317.937 108.954 317.848 108.575 317.671 108.254C317.5 107.926 317.24 107.673 316.891 107.495C316.543 107.317 316.112 107.228 315.599 107.228C315.121 107.228 314.701 107.31 314.338 107.474C313.983 107.638 313.702 107.854 313.497 108.12C313.299 108.387 313.2 108.674 313.2 108.982H311.303C311.303 108.585 311.406 108.192 311.611 107.802C311.816 107.413 312.11 107.061 312.492 106.746C312.882 106.425 313.347 106.172 313.887 105.988C314.434 105.796 315.042 105.7 315.712 105.7C316.519 105.7 317.23 105.837 317.845 106.111C318.467 106.384 318.952 106.798 319.301 107.351C319.657 107.898 319.834 108.585 319.834 109.412V114.58C319.834 114.949 319.865 115.343 319.927 115.76C319.995 116.177 320.094 116.535 320.224 116.836V117H318.245C318.149 116.781 318.074 116.491 318.019 116.129C317.965 115.76 317.937 115.418 317.937 115.103ZM318.265 110.274L318.286 111.607H316.368C315.828 111.607 315.346 111.651 314.923 111.74C314.499 111.822 314.143 111.948 313.856 112.119C313.569 112.29 313.35 112.506 313.2 112.765C313.05 113.018 312.974 113.316 312.974 113.657C312.974 114.006 313.053 114.324 313.21 114.611C313.367 114.898 313.603 115.127 313.918 115.298C314.239 115.462 314.632 115.544 315.097 115.544C315.678 115.544 316.191 115.421 316.635 115.175C317.079 114.929 317.431 114.628 317.691 114.273C317.958 113.917 318.101 113.572 318.122 113.237L318.932 114.15C318.884 114.437 318.754 114.755 318.542 115.103C318.33 115.452 318.047 115.787 317.691 116.108C317.343 116.423 316.926 116.686 316.44 116.898C315.962 117.103 315.422 117.205 314.82 117.205C314.068 117.205 313.409 117.058 312.841 116.764C312.281 116.47 311.843 116.077 311.529 115.585C311.221 115.086 311.067 114.529 311.067 113.914C311.067 113.319 311.183 112.796 311.416 112.345C311.648 111.887 311.983 111.508 312.421 111.207C312.858 110.899 313.385 110.667 314 110.51C314.615 110.352 315.302 110.274 316.061 110.274H318.265ZM325.345 108.274V117H323.448V105.906H325.243L325.345 108.274ZM324.894 111.032L324.104 111.002C324.111 110.243 324.224 109.542 324.443 108.9C324.662 108.25 324.969 107.686 325.366 107.208C325.762 106.729 326.234 106.36 326.781 106.1C327.334 105.834 327.946 105.7 328.616 105.7C329.163 105.7 329.655 105.776 330.093 105.926C330.53 106.07 330.903 106.302 331.21 106.623C331.525 106.945 331.764 107.362 331.928 107.874C332.092 108.38 332.174 108.999 332.174 109.73V117H330.267V109.71C330.267 109.129 330.182 108.664 330.011 108.315C329.84 107.96 329.59 107.703 329.262 107.546C328.934 107.382 328.531 107.3 328.052 107.3C327.581 107.3 327.15 107.399 326.76 107.597C326.377 107.796 326.046 108.069 325.766 108.418C325.492 108.766 325.277 109.166 325.12 109.617C324.969 110.062 324.894 110.533 324.894 111.032ZM342.679 114.847V101.25H344.586V117H342.843L342.679 114.847ZM335.214 111.576V111.361C335.214 110.513 335.316 109.744 335.522 109.053C335.733 108.356 336.031 107.758 336.414 107.259C336.803 106.76 337.265 106.377 337.798 106.111C338.338 105.837 338.94 105.7 339.603 105.7C340.3 105.7 340.908 105.823 341.428 106.07C341.954 106.309 342.398 106.661 342.761 107.126C343.13 107.584 343.42 108.137 343.632 108.787C343.844 109.436 343.991 110.171 344.073 110.991V111.935C343.998 112.748 343.851 113.48 343.632 114.129C343.42 114.779 343.13 115.332 342.761 115.79C342.398 116.248 341.954 116.6 341.428 116.846C340.901 117.086 340.286 117.205 339.582 117.205C338.933 117.205 338.338 117.065 337.798 116.785C337.265 116.505 336.803 116.112 336.414 115.606C336.031 115.1 335.733 114.505 335.522 113.822C335.316 113.131 335.214 112.383 335.214 111.576ZM337.121 111.361V111.576C337.121 112.13 337.176 112.649 337.285 113.135C337.401 113.62 337.579 114.047 337.818 114.416C338.058 114.785 338.362 115.076 338.731 115.288C339.1 115.493 339.541 115.595 340.054 115.595C340.683 115.595 341.199 115.462 341.602 115.196C342.012 114.929 342.34 114.577 342.586 114.139C342.833 113.702 343.024 113.227 343.161 112.714V110.243C343.079 109.867 342.959 109.505 342.802 109.156C342.651 108.801 342.453 108.486 342.207 108.213C341.968 107.932 341.67 107.71 341.315 107.546C340.966 107.382 340.553 107.3 340.074 107.3C339.555 107.3 339.107 107.409 338.731 107.628C338.362 107.84 338.058 108.134 337.818 108.51C337.579 108.879 337.401 109.31 337.285 109.802C337.176 110.287 337.121 110.807 337.121 111.361ZM178.762 138.103V132.392C178.762 131.954 178.673 131.575 178.496 131.254C178.325 130.926 178.065 130.673 177.716 130.495C177.368 130.317 176.937 130.228 176.424 130.228C175.946 130.228 175.525 130.31 175.163 130.474C174.808 130.638 174.527 130.854 174.322 131.12C174.124 131.387 174.025 131.674 174.025 131.982H172.128C172.128 131.585 172.231 131.192 172.436 130.802C172.641 130.413 172.935 130.061 173.317 129.746C173.707 129.425 174.172 129.172 174.712 128.988C175.259 128.796 175.867 128.7 176.537 128.7C177.344 128.7 178.055 128.837 178.67 129.111C179.292 129.384 179.777 129.798 180.126 130.351C180.482 130.898 180.659 131.585 180.659 132.412V137.58C180.659 137.949 180.69 138.343 180.752 138.76C180.82 139.177 180.919 139.535 181.049 139.836V140H179.07C178.974 139.781 178.899 139.491 178.844 139.129C178.79 138.76 178.762 138.418 178.762 138.103ZM179.09 133.274L179.111 134.607H177.193C176.653 134.607 176.171 134.651 175.748 134.74C175.324 134.822 174.968 134.948 174.681 135.119C174.394 135.29 174.175 135.506 174.025 135.765C173.875 136.018 173.799 136.316 173.799 136.657C173.799 137.006 173.878 137.324 174.035 137.611C174.192 137.898 174.428 138.127 174.743 138.298C175.064 138.462 175.457 138.544 175.922 138.544C176.503 138.544 177.016 138.421 177.46 138.175C177.904 137.929 178.256 137.628 178.516 137.273C178.783 136.917 178.926 136.572 178.947 136.237L179.757 137.15C179.709 137.437 179.579 137.755 179.367 138.103C179.155 138.452 178.872 138.787 178.516 139.108C178.168 139.423 177.751 139.686 177.265 139.898C176.787 140.103 176.247 140.205 175.645 140.205C174.893 140.205 174.233 140.058 173.666 139.764C173.106 139.47 172.668 139.077 172.354 138.585C172.046 138.086 171.892 137.529 171.892 136.914C171.892 136.319 172.008 135.796 172.241 135.345C172.473 134.887 172.808 134.508 173.246 134.207C173.683 133.899 174.21 133.667 174.825 133.51C175.44 133.352 176.127 133.274 176.886 133.274H179.09ZM191.461 128.906H193.184V139.764C193.184 140.742 192.986 141.576 192.589 142.266C192.193 142.957 191.639 143.48 190.928 143.835C190.224 144.198 189.41 144.379 188.488 144.379C188.105 144.379 187.654 144.317 187.134 144.194C186.621 144.078 186.115 143.876 185.616 143.589C185.124 143.309 184.711 142.929 184.376 142.451L185.37 141.323C185.835 141.884 186.321 142.273 186.826 142.492C187.339 142.711 187.845 142.82 188.344 142.82C188.946 142.82 189.465 142.707 189.903 142.482C190.34 142.256 190.678 141.921 190.918 141.477C191.164 141.039 191.287 140.499 191.287 139.857V131.346L191.461 128.906ZM183.822 134.576V134.361C183.822 133.513 183.921 132.744 184.119 132.053C184.324 131.356 184.615 130.758 184.991 130.259C185.374 129.76 185.835 129.377 186.375 129.111C186.915 128.837 187.524 128.7 188.2 128.7C188.898 128.7 189.506 128.823 190.026 129.07C190.552 129.309 190.996 129.661 191.359 130.126C191.728 130.584 192.018 131.137 192.23 131.787C192.442 132.436 192.589 133.171 192.671 133.991V134.935C192.596 135.748 192.449 136.48 192.23 137.129C192.018 137.779 191.728 138.332 191.359 138.79C190.996 139.248 190.552 139.6 190.026 139.846C189.499 140.086 188.884 140.205 188.18 140.205C187.517 140.205 186.915 140.065 186.375 139.785C185.842 139.505 185.384 139.112 185.001 138.606C184.618 138.1 184.324 137.505 184.119 136.822C183.921 136.131 183.822 135.383 183.822 134.576ZM185.719 134.361V134.576C185.719 135.13 185.774 135.649 185.883 136.135C185.999 136.62 186.174 137.047 186.406 137.416C186.645 137.785 186.949 138.076 187.319 138.288C187.688 138.493 188.129 138.595 188.641 138.595C189.27 138.595 189.79 138.462 190.2 138.196C190.61 137.929 190.935 137.577 191.174 137.139C191.42 136.702 191.612 136.227 191.748 135.714V133.243C191.673 132.867 191.557 132.505 191.4 132.156C191.249 131.801 191.051 131.486 190.805 131.213C190.566 130.932 190.268 130.71 189.913 130.546C189.557 130.382 189.14 130.3 188.662 130.3C188.142 130.3 187.695 130.409 187.319 130.628C186.949 130.84 186.645 131.134 186.406 131.51C186.174 131.879 185.999 132.31 185.883 132.802C185.774 133.287 185.719 133.807 185.719 134.361ZM201.299 140.205C200.527 140.205 199.826 140.075 199.197 139.816C198.575 139.549 198.038 139.177 197.587 138.698C197.143 138.219 196.801 137.652 196.562 136.996C196.323 136.34 196.203 135.622 196.203 134.843V134.412C196.203 133.51 196.336 132.706 196.603 132.002C196.869 131.291 197.232 130.69 197.69 130.198C198.148 129.705 198.667 129.333 199.248 129.08C199.829 128.827 200.431 128.7 201.053 128.7C201.846 128.7 202.53 128.837 203.104 129.111C203.685 129.384 204.16 129.767 204.529 130.259C204.898 130.744 205.172 131.319 205.349 131.982C205.527 132.638 205.616 133.356 205.616 134.135V134.986H197.331V133.438H203.719V133.294C203.692 132.802 203.589 132.323 203.411 131.859C203.241 131.394 202.967 131.011 202.591 130.71C202.215 130.409 201.702 130.259 201.053 130.259C200.622 130.259 200.226 130.351 199.864 130.536C199.501 130.714 199.19 130.98 198.93 131.336C198.671 131.691 198.469 132.125 198.326 132.638C198.182 133.151 198.11 133.742 198.11 134.412V134.843C198.11 135.369 198.182 135.865 198.326 136.329C198.476 136.787 198.691 137.191 198.971 137.539C199.259 137.888 199.604 138.161 200.007 138.36C200.417 138.558 200.882 138.657 201.402 138.657C202.072 138.657 202.639 138.52 203.104 138.247C203.569 137.973 203.975 137.608 204.324 137.15L205.472 138.062C205.233 138.425 204.929 138.77 204.56 139.098C204.191 139.426 203.736 139.693 203.196 139.898C202.663 140.103 202.031 140.205 201.299 140.205ZM210.358 131.274V140H208.461V128.906H210.255L210.358 131.274ZM209.907 134.032L209.117 134.002C209.124 133.243 209.237 132.542 209.456 131.9C209.674 131.25 209.982 130.686 210.378 130.208C210.775 129.729 211.247 129.36 211.793 129.1C212.347 128.834 212.959 128.7 213.629 128.7C214.176 128.7 214.668 128.776 215.105 128.926C215.543 129.07 215.915 129.302 216.223 129.623C216.538 129.945 216.777 130.362 216.941 130.874C217.105 131.38 217.187 131.999 217.187 132.73V140H215.28V132.71C215.28 132.129 215.194 131.664 215.023 131.315C214.852 130.96 214.603 130.703 214.275 130.546C213.947 130.382 213.543 130.3 213.065 130.3C212.593 130.3 212.163 130.399 211.773 130.597C211.39 130.796 211.059 131.069 210.778 131.418C210.505 131.766 210.289 132.166 210.132 132.617C209.982 133.062 209.907 133.533 209.907 134.032ZM225.138 138.647C225.589 138.647 226.006 138.554 226.389 138.37C226.772 138.185 227.086 137.932 227.333 137.611C227.579 137.283 227.719 136.91 227.753 136.493H229.558C229.523 137.15 229.301 137.761 228.891 138.329C228.488 138.889 227.958 139.344 227.302 139.693C226.646 140.034 225.924 140.205 225.138 140.205C224.304 140.205 223.576 140.058 222.954 139.764C222.339 139.47 221.826 139.067 221.416 138.554C221.013 138.042 220.709 137.454 220.503 136.791C220.305 136.121 220.206 135.413 220.206 134.668V134.238C220.206 133.492 220.305 132.788 220.503 132.125C220.709 131.455 221.013 130.864 221.416 130.351C221.826 129.839 222.339 129.435 222.954 129.141C223.576 128.847 224.304 128.7 225.138 128.7C226.006 128.7 226.765 128.878 227.415 129.234C228.064 129.582 228.573 130.061 228.942 130.669C229.318 131.271 229.523 131.954 229.558 132.72H227.753C227.719 132.262 227.589 131.848 227.363 131.479C227.145 131.11 226.844 130.816 226.461 130.597C226.085 130.372 225.644 130.259 225.138 130.259C224.557 130.259 224.068 130.375 223.672 130.608C223.282 130.833 222.971 131.141 222.739 131.531C222.513 131.913 222.349 132.341 222.247 132.812C222.151 133.277 222.103 133.752 222.103 134.238V134.668C222.103 135.154 222.151 135.632 222.247 136.104C222.342 136.575 222.503 137.003 222.729 137.385C222.961 137.768 223.272 138.076 223.662 138.308C224.058 138.534 224.55 138.647 225.138 138.647ZM234.382 128.906V140H232.474V128.906H234.382ZM232.331 125.963C232.331 125.655 232.423 125.395 232.608 125.183C232.799 124.971 233.079 124.865 233.448 124.865C233.811 124.865 234.088 124.971 234.279 125.183C234.477 125.395 234.576 125.655 234.576 125.963C234.576 126.257 234.477 126.51 234.279 126.721C234.088 126.927 233.811 127.029 233.448 127.029C233.079 127.029 232.799 126.927 232.608 126.721C232.423 126.51 232.331 126.257 232.331 125.963ZM242.661 140.205C241.888 140.205 241.188 140.075 240.559 139.816C239.937 139.549 239.4 139.177 238.949 138.698C238.505 138.219 238.163 137.652 237.924 136.996C237.684 136.34 237.565 135.622 237.565 134.843V134.412C237.565 133.51 237.698 132.706 237.965 132.002C238.231 131.291 238.594 130.69 239.052 130.198C239.51 129.705 240.029 129.333 240.61 129.08C241.191 128.827 241.793 128.7 242.415 128.7C243.208 128.7 243.891 128.837 244.466 129.111C245.047 129.384 245.522 129.767 245.891 130.259C246.26 130.744 246.533 131.319 246.711 131.982C246.889 132.638 246.978 133.356 246.978 134.135V134.986H238.693V133.438H245.081V133.294C245.054 132.802 244.951 132.323 244.773 131.859C244.602 131.394 244.329 131.011 243.953 130.71C243.577 130.409 243.064 130.259 242.415 130.259C241.984 130.259 241.588 130.351 241.225 130.536C240.863 130.714 240.552 130.98 240.292 131.336C240.033 131.691 239.831 132.125 239.687 132.638C239.544 133.151 239.472 133.742 239.472 134.412V134.843C239.472 135.369 239.544 135.865 239.687 136.329C239.838 136.787 240.053 137.191 240.333 137.539C240.62 137.888 240.966 138.161 241.369 138.36C241.779 138.558 242.244 138.657 242.763 138.657C243.433 138.657 244.001 138.52 244.466 138.247C244.93 137.973 245.337 137.608 245.686 137.15L246.834 138.062C246.595 138.425 246.291 138.77 245.922 139.098C245.553 139.426 245.098 139.693 244.558 139.898C244.025 140.103 243.392 140.205 242.661 140.205ZM256.283 137.057C256.283 136.784 256.221 136.531 256.098 136.299C255.982 136.059 255.739 135.844 255.37 135.653C255.008 135.454 254.461 135.283 253.729 135.14C253.114 135.01 252.557 134.856 252.058 134.678C251.566 134.501 251.145 134.285 250.797 134.032C250.455 133.78 250.192 133.482 250.007 133.14C249.823 132.799 249.73 132.399 249.73 131.941C249.73 131.503 249.826 131.09 250.018 130.7C250.216 130.31 250.493 129.965 250.848 129.664C251.21 129.364 251.644 129.128 252.15 128.957C252.656 128.786 253.22 128.7 253.842 128.7C254.731 128.7 255.49 128.858 256.119 129.172C256.747 129.487 257.229 129.907 257.564 130.433C257.899 130.953 258.067 131.531 258.067 132.166H256.17C256.17 131.859 256.078 131.561 255.893 131.274C255.715 130.98 255.452 130.738 255.103 130.546C254.762 130.355 254.341 130.259 253.842 130.259C253.316 130.259 252.889 130.341 252.56 130.505C252.239 130.662 252.003 130.864 251.853 131.11C251.709 131.356 251.638 131.616 251.638 131.889C251.638 132.094 251.672 132.279 251.74 132.443C251.815 132.6 251.945 132.747 252.13 132.884C252.314 133.014 252.574 133.137 252.909 133.253C253.244 133.369 253.671 133.486 254.191 133.602C255.1 133.807 255.849 134.053 256.436 134.34C257.024 134.627 257.462 134.979 257.749 135.396C258.036 135.813 258.18 136.319 258.18 136.914C258.18 137.399 258.077 137.844 257.872 138.247C257.674 138.65 257.383 138.999 257 139.293C256.624 139.58 256.173 139.805 255.647 139.969C255.127 140.127 254.543 140.205 253.893 140.205C252.916 140.205 252.089 140.031 251.412 139.682C250.735 139.334 250.223 138.883 249.874 138.329C249.525 137.775 249.351 137.191 249.351 136.575H251.258C251.286 137.095 251.436 137.509 251.709 137.816C251.983 138.117 252.318 138.332 252.714 138.462C253.111 138.585 253.504 138.647 253.893 138.647C254.413 138.647 254.847 138.578 255.196 138.442C255.551 138.305 255.821 138.117 256.006 137.878C256.19 137.638 256.283 137.365 256.283 137.057Z" fill="#4F5052"/>
<defs>
<filter id="filter0_d_65_382" x="0" y="0.000244141" width="407" height="185" filterUnits="userSpaceOnUse" color-interpolation-filters="sRGB">
<feFlood flood-opacity="0" result="BackgroundImageFix"/>
<feColorMatrix in="SourceAlpha" type="matrix" values="0 0 0 0 0 0 0 0 0 0 0 0 0 0 0 0 0 0 127 0" result="hardAlpha"/>
<feOffset dy="4"/>
<feGaussianBlur stdDeviation="2"/>
<feComposite in2="hardAlpha" operator="out"/>
<feColorMatrix type="matrix" values="0 0 0 0 0 0 0 0 0 0 0 0 0 0 0 0 0 0 0.13 0"/>
<feBlend mode="normal" in2="BackgroundImageFix" result="effect1_dropShadow_65_382"/>
<feBlend mode="normal" in="SourceGraphic" in2="effect1_dropShadow_65_382" result="shape"/>
</filter>
<linearGradient id="paint0_linear_65_382" x1="9.15314" y1="16.3387" x2="405.727" y2="37.5805" gradientUnits="userSpaceOnUse">
<stop offset="0.197139" stop-color="#F6F8FF"/>
<stop offset="0.663491" stop-color="#3CE5A7"/>
<stop offset="1" stop-color="#114DFF"/>
</linearGradient>
<clipPath id="clip0_65_382">
<rect width="27" height="20" fill="white" transform="translate(112 36.0002)"/>
</clipPath>
</defs>
</svg>
