<svg width="408" height="185" viewBox="0 0 408 185" fill="none" xmlns="http://www.w3.org/2000/svg">
<g filter="url(#filter0_d_65_381)">
<rect x="4" width="400" height="177" rx="88.5" fill="white"/>
<rect x="5.5" y="1.5" width="397" height="174" rx="87" stroke="url(#paint0_linear_65_381)" stroke-width="3"/>
</g>
<path d="M61.5892 79.0703H63.5067L68.3978 91.2417L73.2787 79.0703H75.2064L69.1361 94H67.639L61.5892 79.0703ZM60.9637 79.0703H62.6556L62.9325 88.1758V94H60.9637V79.0703ZM74.1298 79.0703H75.8217V94H73.8529V88.1758L74.1298 79.0703ZM86.1826 92.103V86.3916C86.1826 85.9541 86.0937 85.5747 85.916 85.2534C85.7451 84.9253 85.4853 84.6724 85.1367 84.4946C84.7881 84.3169 84.3574 84.228 83.8447 84.228C83.3662 84.228 82.9458 84.3101 82.5835 84.4741C82.228 84.6382 81.9477 84.8535 81.7427 85.1201C81.5444 85.3867 81.4453 85.6738 81.4453 85.9814H79.5483C79.5483 85.585 79.6509 85.1919 79.8559 84.8022C80.061 84.4126 80.355 84.0605 80.7378 83.7461C81.1274 83.4248 81.5923 83.1719 82.1323 82.9873C82.6792 82.7959 83.2876 82.7002 83.9575 82.7002C84.7642 82.7002 85.4751 82.8369 86.0903 83.1104C86.7124 83.3838 87.1977 83.7974 87.5464 84.3511C87.9018 84.8979 88.0796 85.585 88.0796 86.4121V91.5801C88.0796 91.9492 88.1103 92.3423 88.1719 92.7593C88.2402 93.1763 88.3393 93.5352 88.4692 93.8359V94H86.4902C86.3945 93.7812 86.3193 93.4907 86.2646 93.1284C86.21 92.7593 86.1826 92.4175 86.1826 92.103ZM86.5107 87.2734L86.5312 88.6064H84.6138C84.0737 88.6064 83.5918 88.6509 83.168 88.7397C82.7441 88.8218 82.3887 88.9482 82.1016 89.1191C81.8144 89.29 81.5957 89.5054 81.4453 89.7651C81.2949 90.0181 81.2197 90.3154 81.2197 90.6572C81.2197 91.0059 81.2983 91.3237 81.4556 91.6108C81.6128 91.8979 81.8486 92.127 82.1631 92.2979C82.4844 92.4619 82.8774 92.5439 83.3423 92.5439C83.9233 92.5439 84.436 92.4209 84.8804 92.1748C85.3247 91.9287 85.6768 91.6279 85.9365 91.2725C86.2031 90.917 86.3467 90.5718 86.3672 90.2368L87.1772 91.1494C87.1294 91.4365 86.9995 91.7544 86.7876 92.103C86.5757 92.4517 86.292 92.7866 85.9365 93.1079C85.5879 93.4224 85.1709 93.6855 84.6855 93.8975C84.207 94.1025 83.667 94.2051 83.0654 94.2051C82.3135 94.2051 81.6538 94.0581 81.0864 93.7642C80.5259 93.4702 80.0884 93.0771 79.7739 92.585C79.4663 92.0859 79.3125 91.5288 79.3125 90.9136C79.3125 90.3188 79.4287 89.7959 79.6611 89.3447C79.8935 88.8867 80.2285 88.5073 80.666 88.2065C81.1035 87.8989 81.6299 87.6665 82.2451 87.5093C82.8603 87.3521 83.5474 87.2734 84.3061 87.2734H86.5107ZM96.3385 82.9053V84.3613H90.34V82.9053H96.3385ZM92.3702 80.2085H94.2672V91.252C94.2672 91.6279 94.3253 91.9116 94.4415 92.103C94.5577 92.2944 94.7081 92.4209 94.8927 92.4824C95.0773 92.5439 95.2755 92.5747 95.4874 92.5747C95.6446 92.5747 95.8087 92.561 95.9796 92.5337C96.1573 92.4995 96.2906 92.4722 96.3795 92.4517L96.3898 94C96.2394 94.0479 96.0411 94.0923 95.795 94.1333C95.5558 94.1812 95.2653 94.2051 94.9235 94.2051C94.4586 94.2051 94.0314 94.1128 93.6417 93.9282C93.2521 93.7437 92.941 93.436 92.7086 93.0054C92.483 92.5679 92.3702 91.98 92.3702 91.2417V80.2085ZM103.634 92.6465C104.085 92.6465 104.502 92.5542 104.885 92.3696C105.267 92.1851 105.582 91.9321 105.828 91.6108C106.074 91.2827 106.214 90.9102 106.248 90.4932H108.053C108.019 91.1494 107.797 91.7612 107.386 92.3286C106.983 92.8892 106.453 93.3438 105.797 93.6924C105.141 94.0342 104.42 94.2051 103.634 94.2051C102.8 94.2051 102.072 94.0581 101.449 93.7642C100.834 93.4702 100.322 93.0669 99.9114 92.5542C99.508 92.0415 99.2038 91.4536 98.9988 90.7905C98.8005 90.1206 98.7014 89.4131 98.7014 88.668V88.2373C98.7014 87.4922 98.8005 86.7881 98.9988 86.125C99.2038 85.4551 99.508 84.8638 99.9114 84.3511C100.322 83.8384 100.834 83.4351 101.449 83.1411C102.072 82.8472 102.8 82.7002 103.634 82.7002C104.502 82.7002 105.26 82.8779 105.91 83.2334C106.559 83.582 107.069 84.0605 107.438 84.6689C107.814 85.2705 108.019 85.9541 108.053 86.7197H106.248C106.214 86.2617 106.084 85.8481 105.859 85.479C105.64 85.1099 105.339 84.8159 104.956 84.5972C104.58 84.3716 104.139 84.2588 103.634 84.2588C103.052 84.2588 102.564 84.375 102.167 84.6074C101.778 84.833 101.467 85.1406 101.234 85.5303C101.009 85.9131 100.844 86.3403 100.742 86.812C100.646 87.2769 100.598 87.752 100.598 88.2373V88.668C100.598 89.1533 100.646 89.6318 100.742 90.1035C100.838 90.5752 100.998 91.0024 101.224 91.3853C101.456 91.7681 101.767 92.0757 102.157 92.3081C102.553 92.5337 103.046 92.6465 103.634 92.6465ZM112.713 78.25V94H110.816V78.25H112.713ZM112.262 88.0322L111.472 88.0015C111.479 87.2427 111.592 86.542 111.81 85.8994C112.029 85.25 112.337 84.686 112.733 84.2075C113.13 83.729 113.601 83.3599 114.148 83.1001C114.702 82.8335 115.314 82.7002 115.984 82.7002C116.531 82.7002 117.023 82.7754 117.46 82.9258C117.898 83.0693 118.27 83.3018 118.578 83.623C118.892 83.9443 119.132 84.3613 119.296 84.874C119.46 85.3799 119.542 85.9985 119.542 86.73V94H117.635V86.7095C117.635 86.1284 117.549 85.6636 117.378 85.3149C117.207 84.9595 116.958 84.7031 116.63 84.5459C116.302 84.3818 115.898 84.2998 115.42 84.2998C114.948 84.2998 114.517 84.3989 114.128 84.5972C113.745 84.7954 113.413 85.0688 113.133 85.4175C112.86 85.7661 112.644 86.166 112.487 86.6172C112.337 87.0615 112.262 87.5332 112.262 88.0322ZM131.661 92.0312L134.511 82.9053H135.762L135.516 84.7202L132.614 94H131.394L131.661 92.0312ZM129.743 82.9053L132.173 92.1338L132.348 94H131.066L127.846 82.9053H129.743ZM138.49 92.062L140.807 82.9053H142.694L139.474 94H138.203L138.49 92.062ZM136.039 82.9053L138.828 91.8774L139.146 94H137.936L134.952 84.6997L134.706 82.9053H136.039ZM147.333 82.9053V94H145.426V82.9053H147.333ZM145.282 79.9624C145.282 79.6548 145.375 79.395 145.559 79.1831C145.751 78.9712 146.031 78.8652 146.4 78.8652C146.762 78.8652 147.039 78.9712 147.231 79.1831C147.429 79.395 147.528 79.6548 147.528 79.9624C147.528 80.2563 147.429 80.5093 147.231 80.7212C147.039 80.9263 146.762 81.0288 146.4 81.0288C146.031 81.0288 145.751 80.9263 145.559 80.7212C145.375 80.5093 145.282 80.2563 145.282 79.9624ZM155.654 82.9053V84.3613H149.655V82.9053H155.654ZM151.685 80.2085H153.582V91.252C153.582 91.6279 153.64 91.9116 153.757 92.103C153.873 92.2944 154.023 92.4209 154.208 92.4824C154.392 92.5439 154.591 92.5747 154.803 92.5747C154.96 92.5747 155.124 92.561 155.295 92.5337C155.472 92.4995 155.606 92.4722 155.695 92.4517L155.705 94C155.555 94.0479 155.356 94.0923 155.11 94.1333C154.871 94.1812 154.58 94.2051 154.239 94.2051C153.774 94.2051 153.347 94.1128 152.957 93.9282C152.567 93.7437 152.256 93.436 152.024 93.0054C151.798 92.5679 151.685 91.98 151.685 91.2417V80.2085ZM160.406 78.25V94H158.509V78.25H160.406ZM159.955 88.0322L159.165 88.0015C159.172 87.2427 159.285 86.542 159.503 85.8994C159.722 85.25 160.03 84.686 160.426 84.2075C160.823 83.729 161.294 83.3599 161.841 83.1001C162.395 82.8335 163.007 82.7002 163.677 82.7002C164.224 82.7002 164.716 82.7754 165.153 82.9258C165.591 83.0693 165.963 83.3018 166.271 83.623C166.585 83.9443 166.825 84.3613 166.989 84.874C167.153 85.3799 167.235 85.9985 167.235 86.73V94H165.328V86.7095C165.328 86.1284 165.242 85.6636 165.071 85.3149C164.9 84.9595 164.651 84.7031 164.323 84.5459C163.995 84.3818 163.591 84.2998 163.113 84.2998C162.641 84.2998 162.21 84.3989 161.821 84.5972C161.438 84.7954 161.106 85.0688 160.826 85.4175C160.553 85.7661 160.337 86.166 160.18 86.6172C160.03 87.0615 159.955 87.5332 159.955 88.0322ZM180.984 92.6465C181.435 92.6465 181.852 92.5542 182.235 92.3696C182.618 92.1851 182.932 91.9321 183.178 91.6108C183.424 91.2827 183.565 90.9102 183.599 90.4932H185.404C185.369 91.1494 185.147 91.7612 184.737 92.3286C184.334 92.8892 183.804 93.3438 183.148 93.6924C182.491 94.0342 181.77 94.2051 180.984 94.2051C180.15 94.2051 179.422 94.0581 178.8 93.7642C178.185 93.4702 177.672 93.0669 177.262 92.5542C176.859 92.0415 176.554 91.4536 176.349 90.7905C176.151 90.1206 176.052 89.4131 176.052 88.668V88.2373C176.052 87.4922 176.151 86.7881 176.349 86.125C176.554 85.4551 176.859 84.8638 177.262 84.3511C177.672 83.8384 178.185 83.4351 178.8 83.1411C179.422 82.8472 180.15 82.7002 180.984 82.7002C181.852 82.7002 182.611 82.8779 183.26 83.2334C183.91 83.582 184.419 84.0605 184.788 84.6689C185.164 85.2705 185.369 85.9541 185.404 86.7197H183.599C183.565 86.2617 183.435 85.8481 183.209 85.479C182.99 85.1099 182.69 84.8159 182.307 84.5972C181.931 84.3716 181.49 84.2588 180.984 84.2588C180.403 84.2588 179.914 84.375 179.518 84.6074C179.128 84.833 178.817 85.1406 178.585 85.5303C178.359 85.9131 178.195 86.3403 178.092 86.812C177.997 87.2769 177.949 87.752 177.949 88.2373V88.668C177.949 89.1533 177.997 89.6318 178.092 90.1035C178.188 90.5752 178.349 91.0024 178.574 91.3853C178.807 91.7681 179.118 92.0757 179.508 92.3081C179.904 92.5337 180.396 92.6465 180.984 92.6465ZM187.664 88.5757V88.3398C187.664 87.54 187.78 86.7983 188.013 86.1147C188.245 85.4243 188.58 84.8262 189.017 84.3203C189.455 83.8076 189.985 83.4111 190.607 83.1309C191.229 82.8438 191.926 82.7002 192.699 82.7002C193.478 82.7002 194.179 82.8438 194.801 83.1309C195.43 83.4111 195.963 83.8076 196.4 84.3203C196.845 84.8262 197.183 85.4243 197.415 86.1147C197.648 86.7983 197.764 87.54 197.764 88.3398V88.5757C197.764 89.3755 197.648 90.1172 197.415 90.8008C197.183 91.4844 196.845 92.0825 196.4 92.5952C195.963 93.1011 195.433 93.4976 194.811 93.7847C194.196 94.0649 193.498 94.2051 192.719 94.2051C191.94 94.2051 191.239 94.0649 190.617 93.7847C189.995 93.4976 189.462 93.1011 189.017 92.5952C188.58 92.0825 188.245 91.4844 188.013 90.8008C187.78 90.1172 187.664 89.3755 187.664 88.5757ZM189.561 88.3398V88.5757C189.561 89.1294 189.626 89.6523 189.756 90.1445C189.886 90.6299 190.08 91.0605 190.34 91.4365C190.607 91.8125 190.938 92.1099 191.335 92.3286C191.731 92.5405 192.193 92.6465 192.719 92.6465C193.239 92.6465 193.693 92.5405 194.083 92.3286C194.479 92.1099 194.807 91.8125 195.067 91.4365C195.327 91.0605 195.522 90.6299 195.652 90.1445C195.788 89.6523 195.857 89.1294 195.857 88.5757V88.3398C195.857 87.793 195.788 87.2769 195.652 86.7915C195.522 86.2993 195.324 85.8652 195.057 85.4893C194.797 85.1064 194.469 84.8057 194.073 84.5869C193.683 84.3682 193.225 84.2588 192.699 84.2588C192.179 84.2588 191.721 84.3682 191.325 84.5869C190.935 84.8057 190.607 85.1064 190.34 85.4893C190.08 85.8652 189.886 86.2993 189.756 86.7915C189.626 87.2769 189.561 87.793 189.561 88.3398ZM203.603 94H201.706V81.7363C201.706 80.9365 201.85 80.2632 202.137 79.7163C202.431 79.1626 202.851 78.7456 203.398 78.4653C203.945 78.1782 204.594 78.0347 205.346 78.0347C205.565 78.0347 205.784 78.0483 206.002 78.0757C206.228 78.103 206.447 78.144 206.659 78.1987L206.556 79.7471C206.413 79.7129 206.248 79.689 206.064 79.6753C205.886 79.6616 205.708 79.6548 205.531 79.6548C205.127 79.6548 204.779 79.7368 204.485 79.9009C204.198 80.0581 203.979 80.2905 203.829 80.5981C203.678 80.9058 203.603 81.2852 203.603 81.7363V94ZM205.961 82.9053V84.3613H199.953V82.9053H205.961ZM208.201 88.5757V88.3398C208.201 87.54 208.317 86.7983 208.55 86.1147C208.782 85.4243 209.117 84.8262 209.555 84.3203C209.992 83.8076 210.522 83.4111 211.144 83.1309C211.766 82.8438 212.463 82.7002 213.236 82.7002C214.015 82.7002 214.716 82.8438 215.338 83.1309C215.967 83.4111 216.5 83.8076 216.938 84.3203C217.382 84.8262 217.72 85.4243 217.953 86.1147C218.185 86.7983 218.301 87.54 218.301 88.3398V88.5757C218.301 89.3755 218.185 90.1172 217.953 90.8008C217.72 91.4844 217.382 92.0825 216.938 92.5952C216.5 93.1011 215.97 93.4976 215.348 93.7847C214.733 94.0649 214.036 94.2051 213.256 94.2051C212.477 94.2051 211.776 94.0649 211.154 93.7847C210.532 93.4976 209.999 93.1011 209.555 92.5952C209.117 92.0825 208.782 91.4844 208.55 90.8008C208.317 90.1172 208.201 89.3755 208.201 88.5757ZM210.098 88.3398V88.5757C210.098 89.1294 210.163 89.6523 210.293 90.1445C210.423 90.6299 210.618 91.0605 210.878 91.4365C211.144 91.8125 211.476 92.1099 211.872 92.3286C212.269 92.5405 212.73 92.6465 213.256 92.6465C213.776 92.6465 214.231 92.5405 214.62 92.3286C215.017 92.1099 215.345 91.8125 215.605 91.4365C215.864 91.0605 216.059 90.6299 216.189 90.1445C216.326 89.6523 216.394 89.1294 216.394 88.5757V88.3398C216.394 87.793 216.326 87.2769 216.189 86.7915C216.059 86.2993 215.861 85.8652 215.594 85.4893C215.335 85.1064 215.006 84.8057 214.61 84.5869C214.22 84.3682 213.762 84.2588 213.236 84.2588C212.716 84.2588 212.258 84.3682 211.862 84.5869C211.472 84.8057 211.144 85.1064 210.878 85.4893C210.618 85.8652 210.423 86.2993 210.293 86.7915C210.163 87.2769 210.098 87.793 210.098 88.3398ZM228.098 91.4365V82.9053H230.006V94H228.191L228.098 91.4365ZM228.457 89.0986L229.247 89.0781C229.247 89.8164 229.168 90.5 229.011 91.1289C228.861 91.751 228.614 92.291 228.273 92.749C227.931 93.207 227.483 93.5659 226.929 93.8257C226.376 94.0786 225.702 94.2051 224.909 94.2051C224.369 94.2051 223.874 94.1265 223.423 93.9692C222.978 93.812 222.595 93.5693 222.274 93.2412C221.953 92.9131 221.703 92.4858 221.526 91.9595C221.355 91.4331 221.269 90.8008 221.269 90.0625V82.9053H223.166V90.083C223.166 90.582 223.221 90.9956 223.33 91.3237C223.446 91.645 223.6 91.9014 223.792 92.0928C223.99 92.2773 224.209 92.4072 224.448 92.4824C224.694 92.5576 224.947 92.5952 225.207 92.5952C226.013 92.5952 226.653 92.4414 227.124 92.1338C227.596 91.8193 227.934 91.3989 228.139 90.8726C228.351 90.3394 228.457 89.748 228.457 89.0986ZM235.424 85.2739V94H233.527V82.9053H235.322L235.424 85.2739ZM234.973 88.0322L234.183 88.0015C234.19 87.2427 234.303 86.542 234.522 85.8994C234.741 85.25 235.048 84.686 235.445 84.2075C235.841 83.729 236.313 83.3599 236.86 83.1001C237.413 82.8335 238.025 82.7002 238.695 82.7002C239.242 82.7002 239.734 82.7754 240.172 82.9258C240.609 83.0693 240.982 83.3018 241.289 83.623C241.604 83.9443 241.843 84.3613 242.007 84.874C242.171 85.3799 242.253 85.9985 242.253 86.73V94H240.346V86.7095C240.346 86.1284 240.261 85.6636 240.09 85.3149C239.919 84.9595 239.669 84.7031 239.341 84.5459C239.013 84.3818 238.61 84.2998 238.131 84.2998C237.659 84.2998 237.229 84.3989 236.839 84.5972C236.456 84.7954 236.125 85.0688 235.845 85.4175C235.571 85.7661 235.356 86.166 235.199 86.6172C235.048 87.0615 234.973 87.5332 234.973 88.0322ZM252.758 91.8467V78.25H254.665V94H252.922L252.758 91.8467ZM245.293 88.5757V88.3604C245.293 87.5127 245.395 86.7437 245.601 86.0532C245.812 85.356 246.11 84.7578 246.493 84.2588C246.882 83.7598 247.344 83.377 247.877 83.1104C248.417 82.8369 249.018 82.7002 249.682 82.7002C250.379 82.7002 250.987 82.8232 251.507 83.0693C252.033 83.3086 252.477 83.6606 252.84 84.1255C253.209 84.5835 253.499 85.1372 253.711 85.7866C253.923 86.436 254.07 87.1709 254.152 87.9912V88.9346C254.077 89.748 253.93 90.4795 253.711 91.1289C253.499 91.7783 253.209 92.332 252.84 92.79C252.477 93.248 252.033 93.6001 251.507 93.8462C250.98 94.0854 250.365 94.2051 249.661 94.2051C249.012 94.2051 248.417 94.0649 247.877 93.7847C247.344 93.5044 246.882 93.1113 246.493 92.6055C246.11 92.0996 245.812 91.5049 245.601 90.8213C245.395 90.1309 245.293 89.3823 245.293 88.5757ZM247.2 88.3604V88.5757C247.2 89.1294 247.255 89.6489 247.364 90.1343C247.48 90.6196 247.658 91.0469 247.897 91.416C248.137 91.7852 248.441 92.0757 248.81 92.2876C249.179 92.4927 249.62 92.5952 250.133 92.5952C250.762 92.5952 251.278 92.4619 251.681 92.1953C252.091 91.9287 252.419 91.5767 252.665 91.1392C252.912 90.7017 253.103 90.2266 253.24 89.7139V87.2427C253.158 86.8667 253.038 86.5044 252.881 86.1558C252.73 85.8003 252.532 85.4858 252.286 85.2124C252.047 84.9321 251.749 84.71 251.394 84.5459C251.045 84.3818 250.632 84.2998 250.153 84.2998C249.634 84.2998 249.186 84.4092 248.81 84.6279C248.441 84.8398 248.137 85.1338 247.897 85.5098C247.658 85.8789 247.48 86.3096 247.364 86.8018C247.255 87.2871 247.2 87.8066 247.2 88.3604ZM262.852 94.2051C262.08 94.2051 261.379 94.0752 260.75 93.8154C260.128 93.5488 259.591 93.1763 259.14 92.6978C258.696 92.2192 258.354 91.6519 258.115 90.9956C257.876 90.3394 257.756 89.6216 257.756 88.8423V88.4116C257.756 87.5093 257.889 86.7061 258.156 86.002C258.422 85.291 258.785 84.6895 259.243 84.1973C259.701 83.7051 260.22 83.3325 260.801 83.0796C261.382 82.8267 261.984 82.7002 262.606 82.7002C263.399 82.7002 264.083 82.8369 264.657 83.1104C265.238 83.3838 265.713 83.7666 266.082 84.2588C266.451 84.7441 266.725 85.3184 266.902 85.9814C267.08 86.6377 267.169 87.3555 267.169 88.1348V88.9858H258.884V87.4375H265.272V87.2939C265.245 86.8018 265.142 86.3232 264.964 85.8584C264.793 85.3936 264.52 85.0107 264.144 84.71C263.768 84.4092 263.255 84.2588 262.606 84.2588C262.175 84.2588 261.779 84.3511 261.417 84.5356C261.054 84.7134 260.743 84.98 260.483 85.3354C260.224 85.6909 260.022 86.125 259.878 86.6377C259.735 87.1504 259.663 87.7417 259.663 88.4116V88.8423C259.663 89.3687 259.735 89.8643 259.878 90.3291C260.029 90.7871 260.244 91.1904 260.524 91.5391C260.812 91.8877 261.157 92.1611 261.56 92.3594C261.97 92.5576 262.435 92.6567 262.955 92.6567C263.625 92.6567 264.192 92.52 264.657 92.2466C265.122 91.9731 265.528 91.6074 265.877 91.1494L267.025 92.062C266.786 92.4243 266.482 92.7695 266.113 93.0977C265.744 93.4258 265.289 93.6924 264.749 93.8975C264.216 94.1025 263.584 94.2051 262.852 94.2051ZM271.911 84.6484V94H270.014V82.9053H271.86L271.911 84.6484ZM275.377 82.8438L275.366 84.6074C275.209 84.5732 275.059 84.5527 274.915 84.5459C274.778 84.5322 274.621 84.5254 274.444 84.5254C274.006 84.5254 273.62 84.5938 273.285 84.7305C272.95 84.8672 272.666 85.0586 272.434 85.3047C272.201 85.5508 272.017 85.8447 271.88 86.1865C271.75 86.5215 271.665 86.8906 271.624 87.2939L271.09 87.6016C271.09 86.9316 271.155 86.3027 271.285 85.7148C271.422 85.127 271.631 84.6074 271.911 84.1562C272.191 83.6982 272.547 83.3428 272.977 83.0898C273.415 82.8301 273.934 82.7002 274.536 82.7002C274.673 82.7002 274.83 82.7173 275.007 82.7515C275.185 82.7788 275.308 82.8096 275.377 82.8438ZM284.22 91.0571C284.22 90.7837 284.158 90.5308 284.035 90.2983C283.919 90.0591 283.677 89.8438 283.307 89.6523C282.945 89.4541 282.398 89.2832 281.667 89.1396C281.052 89.0098 280.494 88.856 279.995 88.6782C279.503 88.5005 279.083 88.2852 278.734 88.0322C278.392 87.7793 278.129 87.4819 277.945 87.1401C277.76 86.7983 277.668 86.3984 277.668 85.9404C277.668 85.5029 277.763 85.0894 277.955 84.6997C278.153 84.3101 278.43 83.9648 278.785 83.6641C279.148 83.3633 279.582 83.1274 280.088 82.9565C280.594 82.7856 281.158 82.7002 281.78 82.7002C282.668 82.7002 283.427 82.8574 284.056 83.1719C284.685 83.4863 285.167 83.9067 285.502 84.4331C285.837 84.9526 286.004 85.5303 286.004 86.166H284.107C284.107 85.8584 284.015 85.561 283.83 85.2739C283.653 84.98 283.389 84.7373 283.041 84.5459C282.699 84.3545 282.279 84.2588 281.78 84.2588C281.253 84.2588 280.826 84.3408 280.498 84.5049C280.177 84.6621 279.941 84.8638 279.79 85.1099C279.647 85.356 279.575 85.6157 279.575 85.8892C279.575 86.0942 279.609 86.2788 279.678 86.4429C279.753 86.6001 279.883 86.7471 280.067 86.8838C280.252 87.0137 280.512 87.1367 280.846 87.2529C281.181 87.3691 281.609 87.4854 282.128 87.6016C283.037 87.8066 283.786 88.0527 284.374 88.3398C284.962 88.627 285.399 88.979 285.686 89.396C285.973 89.813 286.117 90.3188 286.117 90.9136C286.117 91.3989 286.014 91.8433 285.809 92.2466C285.611 92.6499 285.321 92.9985 284.938 93.2925C284.562 93.5796 284.111 93.8052 283.584 93.9692C283.065 94.1265 282.48 94.2051 281.831 94.2051C280.853 94.2051 280.026 94.0308 279.349 93.6821C278.673 93.3335 278.16 92.8823 277.811 92.3286C277.463 91.7749 277.288 91.1904 277.288 90.5752H279.196C279.223 91.0947 279.373 91.5083 279.647 91.8159C279.92 92.1167 280.255 92.332 280.652 92.4619C281.048 92.585 281.441 92.6465 281.831 92.6465C282.35 92.6465 282.784 92.5781 283.133 92.4414C283.489 92.3047 283.759 92.1167 283.943 91.8774C284.128 91.6382 284.22 91.3647 284.22 91.0571ZM290.961 91.7441V93.272C290.961 93.894 290.804 94.5503 290.49 95.2407C290.175 95.938 289.734 96.519 289.167 96.9839L288.09 96.2354C288.309 95.9346 288.494 95.627 288.644 95.3125C288.794 95.0049 288.907 94.6836 288.982 94.3486C289.064 94.0205 289.105 93.6719 289.105 93.3027V91.7441H290.961ZM304.495 82.9053V84.3613H298.497V82.9053H304.495ZM300.527 80.2085H302.424V91.252C302.424 91.6279 302.482 91.9116 302.598 92.103C302.714 92.2944 302.865 92.4209 303.049 92.4824C303.234 92.5439 303.432 92.5747 303.644 92.5747C303.801 92.5747 303.965 92.561 304.136 92.5337C304.314 92.4995 304.447 92.4722 304.536 92.4517L304.547 94C304.396 94.0479 304.198 94.0923 303.952 94.1333C303.713 94.1812 303.422 94.2051 303.08 94.2051C302.615 94.2051 302.188 94.1128 301.798 93.9282C301.409 93.7437 301.098 93.436 300.865 93.0054C300.64 92.5679 300.527 91.98 300.527 91.2417V80.2085ZM311.954 94.2051C311.182 94.2051 310.481 94.0752 309.852 93.8154C309.23 93.5488 308.694 93.1763 308.242 92.6978C307.798 92.2192 307.456 91.6519 307.217 90.9956C306.978 90.3394 306.858 89.6216 306.858 88.8423V88.4116C306.858 87.5093 306.991 86.7061 307.258 86.002C307.525 85.291 307.887 84.6895 308.345 84.1973C308.803 83.7051 309.323 83.3325 309.904 83.0796C310.485 82.8267 311.086 82.7002 311.708 82.7002C312.501 82.7002 313.185 82.8369 313.759 83.1104C314.34 83.3838 314.815 83.7666 315.184 84.2588C315.553 84.7441 315.827 85.3184 316.005 85.9814C316.182 86.6377 316.271 87.3555 316.271 88.1348V88.9858H307.986V87.4375H314.374V87.2939C314.347 86.8018 314.244 86.3232 314.067 85.8584C313.896 85.3936 313.622 85.0107 313.246 84.71C312.87 84.4092 312.358 84.2588 311.708 84.2588C311.278 84.2588 310.881 84.3511 310.519 84.5356C310.156 84.7134 309.845 84.98 309.586 85.3354C309.326 85.6909 309.124 86.125 308.981 86.6377C308.837 87.1504 308.765 87.7417 308.765 88.4116V88.8423C308.765 89.3687 308.837 89.8643 308.981 90.3291C309.131 90.7871 309.346 91.1904 309.627 91.5391C309.914 91.8877 310.259 92.1611 310.662 92.3594C311.073 92.5576 311.537 92.6567 312.057 92.6567C312.727 92.6567 313.294 92.52 313.759 92.2466C314.224 91.9731 314.631 91.6074 314.979 91.1494L316.128 92.062C315.888 92.4243 315.584 92.7695 315.215 93.0977C314.846 93.4258 314.391 93.6924 313.851 93.8975C313.318 94.1025 312.686 94.2051 311.954 94.2051ZM325.658 92.103V86.3916C325.658 85.9541 325.569 85.5747 325.391 85.2534C325.221 84.9253 324.961 84.6724 324.612 84.4946C324.264 84.3169 323.833 84.228 323.32 84.228C322.842 84.228 322.421 84.3101 322.059 84.4741C321.703 84.6382 321.423 84.8535 321.218 85.1201C321.02 85.3867 320.921 85.6738 320.921 85.9814H319.024C319.024 85.585 319.126 85.1919 319.331 84.8022C319.536 84.4126 319.83 84.0605 320.213 83.7461C320.603 83.4248 321.068 83.1719 321.608 82.9873C322.155 82.7959 322.763 82.7002 323.433 82.7002C324.24 82.7002 324.951 82.8369 325.566 83.1104C326.188 83.3838 326.673 83.7974 327.022 84.3511C327.377 84.8979 327.555 85.585 327.555 86.4121V91.5801C327.555 91.9492 327.586 92.3423 327.647 92.7593C327.716 93.1763 327.815 93.5352 327.945 93.8359V94H325.966C325.87 93.7812 325.795 93.4907 325.74 93.1284C325.685 92.7593 325.658 92.4175 325.658 92.103ZM325.986 87.2734L326.007 88.6064H324.089C323.549 88.6064 323.067 88.6509 322.643 88.7397C322.22 88.8218 321.864 88.9482 321.577 89.1191C321.29 89.29 321.071 89.5054 320.921 89.7651C320.77 90.0181 320.695 90.3154 320.695 90.6572C320.695 91.0059 320.774 91.3237 320.931 91.6108C321.088 91.8979 321.324 92.127 321.639 92.2979C321.96 92.4619 322.353 92.5439 322.818 92.5439C323.399 92.5439 323.911 92.4209 324.356 92.1748C324.8 91.9287 325.152 91.6279 325.412 91.2725C325.679 90.917 325.822 90.5718 325.843 90.2368L326.653 91.1494C326.605 91.4365 326.475 91.7544 326.263 92.103C326.051 92.4517 325.767 92.7866 325.412 93.1079C325.063 93.4224 324.646 93.6855 324.161 93.8975C323.682 94.1025 323.142 94.2051 322.541 94.2051C321.789 94.2051 321.129 94.0581 320.562 93.7642C320.001 93.4702 319.564 93.0771 319.249 92.585C318.942 92.0859 318.788 91.5288 318.788 90.9136C318.788 90.3188 318.904 89.7959 319.137 89.3447C319.369 88.8867 319.704 88.5073 320.141 88.2065C320.579 87.8989 321.105 87.6665 321.721 87.5093C322.336 87.3521 323.023 87.2734 323.782 87.2734H325.986ZM333.056 85.1099V94H331.148V82.9053H332.953L333.056 85.1099ZM332.666 88.0322L331.784 88.0015C331.791 87.2427 331.89 86.542 332.082 85.8994C332.273 85.25 332.557 84.686 332.933 84.2075C333.309 83.729 333.777 83.3599 334.337 83.1001C334.898 82.8335 335.547 82.7002 336.286 82.7002C336.805 82.7002 337.284 82.7754 337.721 82.9258C338.159 83.0693 338.538 83.2983 338.859 83.6128C339.181 83.9272 339.43 84.3306 339.608 84.8228C339.786 85.3149 339.875 85.9097 339.875 86.6069V94H337.978V86.6992C337.978 86.1182 337.878 85.6533 337.68 85.3047C337.489 84.9561 337.215 84.7031 336.86 84.5459C336.504 84.3818 336.087 84.2998 335.609 84.2998C335.048 84.2998 334.58 84.3989 334.204 84.5972C333.828 84.7954 333.527 85.0688 333.302 85.4175C333.076 85.7661 332.912 86.166 332.81 86.6172C332.714 87.0615 332.666 87.5332 332.666 88.0322ZM339.854 86.9863L338.583 87.376C338.589 86.7676 338.688 86.1831 338.88 85.6226C339.078 85.062 339.362 84.563 339.731 84.1255C340.107 83.688 340.568 83.3428 341.115 83.0898C341.662 82.8301 342.288 82.7002 342.992 82.7002C343.586 82.7002 344.113 82.7788 344.571 82.936C345.036 83.0933 345.425 83.3359 345.74 83.6641C346.061 83.9854 346.304 84.3989 346.468 84.9048C346.632 85.4106 346.714 86.0122 346.714 86.7095V94H344.807V86.689C344.807 86.0669 344.708 85.585 344.509 85.2432C344.318 84.8945 344.044 84.6519 343.689 84.5151C343.34 84.3716 342.923 84.2998 342.438 84.2998C342.021 84.2998 341.652 84.3716 341.331 84.5151C341.009 84.6587 340.739 84.8569 340.521 85.1099C340.302 85.356 340.134 85.6396 340.018 85.9609C339.909 86.2822 339.854 86.624 339.854 86.9863ZM47.0225 108.11V117H45.1153V105.905H46.92L47.0225 108.11ZM46.6329 111.032L45.7511 111.001C45.7579 110.243 45.857 109.542 46.0484 108.899C46.2398 108.25 46.5235 107.686 46.8995 107.208C47.2755 106.729 47.7437 106.36 48.3043 106.1C48.8648 105.833 49.5142 105.7 50.2525 105.7C50.772 105.7 51.2506 105.775 51.6881 105.926C52.1256 106.069 52.505 106.298 52.8262 106.613C53.1475 106.927 53.397 107.331 53.5748 107.823C53.7525 108.315 53.8414 108.91 53.8414 109.607V117H51.9444V109.699C51.9444 109.118 51.8453 108.653 51.647 108.305C51.4556 107.956 51.1822 107.703 50.8267 107.546C50.4713 107.382 50.0543 107.3 49.5758 107.3C49.0152 107.3 48.547 107.399 48.171 107.597C47.795 107.795 47.4942 108.069 47.2686 108.417C47.043 108.766 46.879 109.166 46.7764 109.617C46.6807 110.062 46.6329 110.533 46.6329 111.032ZM53.8209 109.986L52.5494 110.376C52.5562 109.768 52.6553 109.183 52.8468 108.623C53.045 108.062 53.3287 107.563 53.6978 107.125C54.0738 106.688 54.5352 106.343 55.0821 106.09C55.629 105.83 56.2545 105.7 56.9586 105.7C57.5533 105.7 58.0797 105.779 58.5377 105.936C59.0025 106.093 59.3922 106.336 59.7066 106.664C60.0279 106.985 60.2706 107.399 60.4346 107.905C60.5987 108.411 60.6807 109.012 60.6807 109.709V117H58.7735V109.689C58.7735 109.067 58.6744 108.585 58.4762 108.243C58.2847 107.895 58.0113 107.652 57.6558 107.515C57.3072 107.372 56.8902 107.3 56.4049 107.3C55.9879 107.3 55.6187 107.372 55.2974 107.515C54.9762 107.659 54.7061 107.857 54.4874 108.11C54.2686 108.356 54.1012 108.64 53.9849 108.961C53.8756 109.282 53.8209 109.624 53.8209 109.986ZM68.7858 117.205C68.0134 117.205 67.3127 117.075 66.6838 116.815C66.0617 116.549 65.5251 116.176 65.0739 115.698C64.6296 115.219 64.2878 114.652 64.0485 113.996C63.8093 113.339 63.6896 112.622 63.6896 111.842V111.412C63.6896 110.509 63.8229 109.706 64.0895 109.002C64.3561 108.291 64.7185 107.689 65.1765 107.197C65.6345 106.705 66.154 106.333 66.7351 106.08C67.3161 105.827 67.9177 105.7 68.5397 105.7C69.3327 105.7 70.0163 105.837 70.5905 106.11C71.1716 106.384 71.6467 106.767 72.0158 107.259C72.385 107.744 72.6584 108.318 72.8361 108.981C73.0139 109.638 73.1027 110.355 73.1027 111.135V111.986H64.8176V110.438H71.2058V110.294C71.1784 109.802 71.0759 109.323 70.8981 108.858C70.7272 108.394 70.4538 108.011 70.0778 107.71C69.7019 107.409 69.1892 107.259 68.5397 107.259C68.1091 107.259 67.7126 107.351 67.3503 107.536C66.988 107.713 66.6769 107.98 66.4172 108.335C66.1574 108.691 65.9558 109.125 65.8122 109.638C65.6686 110.15 65.5969 110.742 65.5969 111.412V111.842C65.5969 112.369 65.6686 112.864 65.8122 113.329C65.9626 113.787 66.1779 114.19 66.4582 114.539C66.7453 114.888 67.0905 115.161 67.4938 115.359C67.904 115.558 68.3688 115.657 68.8884 115.657C69.5583 115.657 70.1257 115.52 70.5905 115.247C71.0554 114.973 71.4621 114.607 71.8107 114.149L72.9592 115.062C72.7199 115.424 72.4157 115.77 72.0466 116.098C71.6774 116.426 71.2228 116.692 70.6828 116.897C70.1496 117.103 69.5173 117.205 68.7858 117.205ZM77.8343 108.11V117H75.9271V105.905H77.7318L77.8343 108.11ZM77.4446 111.032L76.5628 111.001C76.5696 110.243 76.6688 109.542 76.8602 108.899C77.0516 108.25 77.3353 107.686 77.7113 107.208C78.0872 106.729 78.5555 106.36 79.116 106.1C79.6766 105.833 80.326 105.7 81.0643 105.7C81.5838 105.7 82.0623 105.775 82.4998 105.926C82.9373 106.069 83.3167 106.298 83.638 106.613C83.9593 106.927 84.2088 107.331 84.3865 107.823C84.5643 108.315 84.6531 108.91 84.6531 109.607V117H82.7562V109.699C82.7562 109.118 82.6571 108.653 82.4588 108.305C82.2674 107.956 81.994 107.703 81.6385 107.546C81.283 107.382 80.866 107.3 80.3875 107.3C79.827 107.3 79.3587 107.399 78.9827 107.597C78.6068 107.795 78.306 108.069 78.0804 108.417C77.8548 108.766 77.6907 109.166 77.5882 109.617C77.4925 110.062 77.4446 110.533 77.4446 111.032ZM84.6326 109.986L83.3612 110.376C83.368 109.768 83.4671 109.183 83.6585 108.623C83.8568 108.062 84.1404 107.563 84.5096 107.125C84.8856 106.688 85.347 106.343 85.8939 106.09C86.4407 105.83 87.0662 105.7 87.7703 105.7C88.3651 105.7 88.8914 105.779 89.3494 105.936C89.8143 106.093 90.2039 106.336 90.5184 106.664C90.8397 106.985 91.0823 107.399 91.2464 107.905C91.4105 108.411 91.4925 109.012 91.4925 109.709V117H89.5853V109.689C89.5853 109.067 89.4862 108.585 89.2879 108.243C89.0965 107.895 88.8231 107.652 88.4676 107.515C88.119 107.372 87.702 107.3 87.2166 107.3C86.7996 107.3 86.4305 107.372 86.1092 107.515C85.7879 107.659 85.5179 107.857 85.2991 108.11C85.0804 108.356 84.9129 108.64 84.7967 108.961C84.6873 109.282 84.6326 109.624 84.6326 109.986ZM94.9833 101.25H96.8906V114.847L96.7265 117H94.9833V101.25ZM104.386 111.36V111.576C104.386 112.382 104.29 113.131 104.099 113.821C103.908 114.505 103.627 115.1 103.258 115.605C102.889 116.111 102.438 116.504 101.905 116.785C101.372 117.065 100.76 117.205 100.069 117.205C99.3652 117.205 98.7465 117.085 98.2133 116.846C97.687 116.6 97.2426 116.248 96.8803 115.79C96.518 115.332 96.2275 114.778 96.0087 114.129C95.7968 113.479 95.6498 112.748 95.5678 111.935V110.991C95.6498 110.171 95.7968 109.436 96.0087 108.787C96.2275 108.137 96.518 107.583 96.8803 107.125C97.2426 106.661 97.687 106.309 98.2133 106.069C98.7397 105.823 99.3515 105.7 100.049 105.7C100.746 105.7 101.365 105.837 101.905 106.11C102.445 106.377 102.896 106.76 103.258 107.259C103.627 107.758 103.908 108.356 104.099 109.053C104.29 109.744 104.386 110.513 104.386 111.36ZM102.479 111.576V111.36C102.479 110.807 102.428 110.287 102.325 109.802C102.223 109.31 102.059 108.879 101.833 108.51C101.607 108.134 101.31 107.84 100.941 107.628C100.572 107.409 100.117 107.3 99.5771 107.3C99.0986 107.3 98.6816 107.382 98.3261 107.546C97.9775 107.71 97.6801 107.932 97.434 108.212C97.1879 108.486 96.9863 108.8 96.829 109.156C96.6786 109.504 96.5659 109.867 96.4907 110.243V112.714C96.6 113.192 96.7778 113.654 97.0239 114.098C97.2768 114.536 97.6118 114.895 98.0287 115.175C98.4526 115.455 98.9755 115.595 99.5976 115.595C100.11 115.595 100.548 115.493 100.91 115.288C101.279 115.076 101.577 114.785 101.802 114.416C102.035 114.047 102.206 113.62 102.315 113.134C102.424 112.649 102.479 112.129 102.479 111.576ZM112.02 117.205C111.247 117.205 110.546 117.075 109.918 116.815C109.295 116.549 108.759 116.176 108.308 115.698C107.863 115.219 107.522 114.652 107.282 113.996C107.043 113.339 106.923 112.622 106.923 111.842V111.412C106.923 110.509 107.057 109.706 107.323 109.002C107.59 108.291 107.952 107.689 108.41 107.197C108.868 106.705 109.388 106.333 109.969 106.08C110.55 105.827 111.151 105.7 111.773 105.7C112.566 105.7 113.25 105.837 113.824 106.11C114.405 106.384 114.88 106.767 115.25 107.259C115.619 107.744 115.892 108.318 116.07 108.981C116.248 109.638 116.336 110.355 116.336 111.135V111.986H108.051V110.438H114.44V110.294C114.412 109.802 114.31 109.323 114.132 108.858C113.961 108.394 113.688 108.011 113.312 107.71C112.936 107.409 112.423 107.259 111.773 107.259C111.343 107.259 110.946 107.351 110.584 107.536C110.222 107.713 109.911 107.98 109.651 108.335C109.391 108.691 109.19 109.125 109.046 109.638C108.902 110.15 108.831 110.742 108.831 111.412V111.842C108.831 112.369 108.902 112.864 109.046 113.329C109.196 113.787 109.412 114.19 109.692 114.539C109.979 114.888 110.324 115.161 110.728 115.359C111.138 115.558 111.603 115.657 112.122 115.657C112.792 115.657 113.359 115.52 113.824 115.247C114.289 114.973 114.696 114.607 115.044 114.149L116.193 115.062C115.954 115.424 115.649 115.77 115.28 116.098C114.911 116.426 114.457 116.692 113.917 116.897C113.383 117.103 112.751 117.205 112.02 117.205ZM121.078 107.648V117H119.181V105.905H121.027L121.078 107.648ZM124.544 105.844L124.534 107.607C124.377 107.573 124.226 107.553 124.083 107.546C123.946 107.532 123.789 107.525 123.611 107.525C123.174 107.525 122.787 107.594 122.452 107.73C122.117 107.867 121.834 108.059 121.601 108.305C121.369 108.551 121.184 108.845 121.048 109.187C120.918 109.521 120.832 109.891 120.791 110.294L120.258 110.602C120.258 109.932 120.323 109.303 120.453 108.715C120.59 108.127 120.798 107.607 121.078 107.156C121.359 106.698 121.714 106.343 122.145 106.09C122.582 105.83 123.102 105.7 123.703 105.7C123.84 105.7 123.997 105.717 124.175 105.751C124.353 105.779 124.476 105.81 124.544 105.844ZM133.387 114.057C133.387 113.784 133.326 113.531 133.203 113.298C133.087 113.059 132.844 112.844 132.475 112.652C132.113 112.454 131.566 112.283 130.834 112.14C130.219 112.01 129.662 111.856 129.163 111.678C128.671 111.5 128.25 111.285 127.902 111.032C127.56 110.779 127.297 110.482 127.112 110.14C126.928 109.798 126.835 109.398 126.835 108.94C126.835 108.503 126.931 108.089 127.122 107.7C127.321 107.31 127.597 106.965 127.953 106.664C128.315 106.363 128.749 106.127 129.255 105.957C129.761 105.786 130.325 105.7 130.947 105.7C131.836 105.7 132.595 105.857 133.223 106.172C133.852 106.486 134.334 106.907 134.669 107.433C135.004 107.953 135.172 108.53 135.172 109.166H133.275C133.275 108.858 133.182 108.561 132.998 108.274C132.82 107.98 132.557 107.737 132.208 107.546C131.867 107.354 131.446 107.259 130.947 107.259C130.421 107.259 129.993 107.341 129.665 107.505C129.344 107.662 129.108 107.864 128.958 108.11C128.814 108.356 128.742 108.616 128.742 108.889C128.742 109.094 128.777 109.279 128.845 109.443C128.92 109.6 129.05 109.747 129.235 109.884C129.419 110.014 129.679 110.137 130.014 110.253C130.349 110.369 130.776 110.485 131.296 110.602C132.205 110.807 132.953 111.053 133.541 111.34C134.129 111.627 134.567 111.979 134.854 112.396C135.141 112.813 135.284 113.319 135.284 113.914C135.284 114.399 135.182 114.843 134.977 115.247C134.779 115.65 134.488 115.999 134.105 116.292C133.729 116.58 133.278 116.805 132.752 116.969C132.232 117.126 131.648 117.205 130.998 117.205C130.021 117.205 129.194 117.031 128.517 116.682C127.84 116.333 127.327 115.882 126.979 115.329C126.63 114.775 126.456 114.19 126.456 113.575H128.363C128.39 114.095 128.541 114.508 128.814 114.816C129.088 115.117 129.423 115.332 129.819 115.462C130.216 115.585 130.609 115.646 130.998 115.646C131.518 115.646 131.952 115.578 132.301 115.441C132.656 115.305 132.926 115.117 133.111 114.877C133.295 114.638 133.387 114.365 133.387 114.057ZM140.129 114.744V116.272C140.129 116.894 139.972 117.55 139.657 118.241C139.343 118.938 138.902 119.519 138.334 119.984L137.258 119.235C137.476 118.935 137.661 118.627 137.811 118.312C137.962 118.005 138.075 117.684 138.15 117.349C138.232 117.021 138.273 116.672 138.273 116.303V114.744H140.129ZM151.079 105.905V117H149.172V105.905H151.079ZM149.028 102.962C149.028 102.655 149.12 102.395 149.305 102.183C149.496 101.971 149.777 101.865 150.146 101.865C150.508 101.865 150.785 101.971 150.976 102.183C151.174 102.395 151.274 102.655 151.274 102.962C151.274 103.256 151.174 103.509 150.976 103.721C150.785 103.926 150.508 104.029 150.146 104.029C149.777 104.029 149.496 103.926 149.305 103.721C149.12 103.509 149.028 103.256 149.028 102.962ZM156.651 108.274V117H154.754V105.905H156.549L156.651 108.274ZM156.2 111.032L155.41 111.001C155.417 110.243 155.53 109.542 155.749 108.899C155.968 108.25 156.275 107.686 156.672 107.208C157.068 106.729 157.54 106.36 158.087 106.1C158.64 105.833 159.252 105.7 159.922 105.7C160.469 105.7 160.961 105.775 161.399 105.926C161.836 106.069 162.209 106.302 162.516 106.623C162.831 106.944 163.07 107.361 163.234 107.874C163.398 108.38 163.48 108.999 163.48 109.73V117H161.573V109.709C161.573 109.128 161.488 108.664 161.317 108.315C161.146 107.959 160.896 107.703 160.568 107.546C160.24 107.382 159.837 107.3 159.358 107.3C158.887 107.3 158.456 107.399 158.066 107.597C157.683 107.795 157.352 108.069 157.072 108.417C156.798 108.766 156.583 109.166 156.426 109.617C156.275 110.062 156.2 110.533 156.2 111.032ZM171.637 105.905V107.361H165.638V105.905H171.637ZM167.668 103.208H169.565V114.252C169.565 114.628 169.623 114.912 169.74 115.103C169.856 115.294 170.006 115.421 170.191 115.482C170.375 115.544 170.574 115.575 170.786 115.575C170.943 115.575 171.107 115.561 171.278 115.534C171.455 115.5 171.589 115.472 171.678 115.452L171.688 117C171.538 117.048 171.339 117.092 171.093 117.133C170.854 117.181 170.563 117.205 170.222 117.205C169.757 117.205 169.329 117.113 168.94 116.928C168.55 116.744 168.239 116.436 168.007 116.005C167.781 115.568 167.668 114.98 167.668 114.242V103.208ZM179.096 117.205C178.323 117.205 177.623 117.075 176.994 116.815C176.372 116.549 175.835 116.176 175.384 115.698C174.939 115.219 174.598 114.652 174.358 113.996C174.119 113.339 174 112.622 174 111.842V111.412C174 110.509 174.133 109.706 174.399 109.002C174.666 108.291 175.028 107.689 175.486 107.197C175.944 106.705 176.464 106.333 177.045 106.08C177.626 105.827 178.228 105.7 178.85 105.7C179.643 105.7 180.326 105.837 180.9 106.11C181.481 106.384 181.957 106.767 182.326 107.259C182.695 107.744 182.968 108.318 183.146 108.981C183.324 109.638 183.413 110.355 183.413 111.135V111.986H175.127V110.438H181.516V110.294C181.488 109.802 181.386 109.323 181.208 108.858C181.037 108.394 180.764 108.011 180.388 107.71C180.012 107.409 179.499 107.259 178.85 107.259C178.419 107.259 178.022 107.351 177.66 107.536C177.298 107.713 176.987 107.98 176.727 108.335C176.467 108.691 176.266 109.125 176.122 109.638C175.979 110.15 175.907 110.742 175.907 111.412V111.842C175.907 112.369 175.979 112.864 176.122 113.329C176.272 113.787 176.488 114.19 176.768 114.539C177.055 114.888 177.4 115.161 177.804 115.359C178.214 115.558 178.679 115.657 179.198 115.657C179.868 115.657 180.436 115.52 180.9 115.247C181.365 114.973 181.772 114.607 182.121 114.149L183.269 115.062C183.03 115.424 182.726 115.77 182.356 116.098C181.987 116.426 181.533 116.692 180.993 116.897C180.459 117.103 179.827 117.205 179.096 117.205ZM188.154 107.648V117H186.257V105.905H188.103L188.154 107.648ZM191.62 105.844L191.61 107.607C191.453 107.573 191.302 107.553 191.159 107.546C191.022 107.532 190.865 107.525 190.687 107.525C190.25 107.525 189.863 107.594 189.528 107.73C189.193 107.867 188.91 108.059 188.677 108.305C188.445 108.551 188.26 108.845 188.124 109.187C187.994 109.521 187.908 109.891 187.867 110.294L187.334 110.602C187.334 109.932 187.399 109.303 187.529 108.715C187.666 108.127 187.874 107.607 188.154 107.156C188.435 106.698 188.79 106.343 189.221 106.09C189.658 105.83 190.178 105.7 190.779 105.7C190.916 105.7 191.073 105.717 191.251 105.751C191.429 105.779 191.552 105.81 191.62 105.844ZM195.901 108.274V117H194.004V105.905H195.798L195.901 108.274ZM195.449 111.032L194.66 111.001C194.667 110.243 194.78 109.542 194.998 108.899C195.217 108.25 195.525 107.686 195.921 107.208C196.318 106.729 196.789 106.36 197.336 106.1C197.89 105.833 198.502 105.7 199.172 105.7C199.719 105.7 200.211 105.775 200.648 105.926C201.086 106.069 201.458 106.302 201.766 106.623C202.08 106.944 202.32 107.361 202.484 107.874C202.648 108.38 202.73 108.999 202.73 109.73V117H200.823V109.709C200.823 109.128 200.737 108.664 200.566 108.315C200.395 107.959 200.146 107.703 199.818 107.546C199.49 107.382 199.086 107.3 198.608 107.3C198.136 107.3 197.705 107.399 197.316 107.597C196.933 107.795 196.601 108.069 196.321 108.417C196.048 108.766 195.832 109.166 195.675 109.617C195.525 110.062 195.449 110.533 195.449 111.032ZM212.701 114.057C212.701 113.784 212.64 113.531 212.516 113.298C212.4 113.059 212.158 112.844 211.788 112.652C211.426 112.454 210.879 112.283 210.148 112.14C209.533 112.01 208.975 111.856 208.476 111.678C207.984 111.5 207.564 111.285 207.215 111.032C206.873 110.779 206.61 110.482 206.426 110.14C206.241 109.798 206.149 109.398 206.149 108.94C206.149 108.503 206.245 108.089 206.436 107.7C206.634 107.31 206.911 106.965 207.266 106.664C207.629 106.363 208.063 106.127 208.569 105.957C209.075 105.786 209.639 105.7 210.261 105.7C211.149 105.7 211.908 105.857 212.537 106.172C213.166 106.486 213.648 106.907 213.983 107.433C214.318 107.953 214.485 108.53 214.485 109.166H212.588C212.588 108.858 212.496 108.561 212.311 108.274C212.134 107.98 211.87 107.737 211.522 107.546C211.18 107.354 210.76 107.259 210.261 107.259C209.734 107.259 209.307 107.341 208.979 107.505C208.658 107.662 208.422 107.864 208.271 108.11C208.128 108.356 208.056 108.616 208.056 108.889C208.056 109.094 208.09 109.279 208.159 109.443C208.234 109.6 208.364 109.747 208.548 109.884C208.733 110.014 208.993 110.137 209.328 110.253C209.662 110.369 210.09 110.485 210.609 110.602C211.518 110.807 212.267 111.053 212.855 111.34C213.443 111.627 213.88 111.979 214.167 112.396C214.454 112.813 214.598 113.319 214.598 113.914C214.598 114.399 214.495 114.843 214.29 115.247C214.092 115.65 213.802 115.999 213.419 116.292C213.043 116.58 212.592 116.805 212.065 116.969C211.546 117.126 210.961 117.205 210.312 117.205C209.334 117.205 208.507 117.031 207.83 116.682C207.154 116.333 206.641 115.882 206.292 115.329C205.944 114.775 205.769 114.19 205.769 113.575H207.677C207.704 114.095 207.854 114.508 208.128 114.816C208.401 115.117 208.736 115.332 209.133 115.462C209.529 115.585 209.922 115.646 210.312 115.646C210.831 115.646 211.266 115.578 211.614 115.441C211.97 115.305 212.24 115.117 212.424 114.877C212.609 114.638 212.701 114.365 212.701 114.057ZM219.442 114.744V116.272C219.442 116.894 219.285 117.55 218.971 118.241C218.656 118.938 218.215 119.519 217.648 119.984L216.571 119.235C216.79 118.935 216.975 118.627 217.125 118.312C217.275 118.005 217.388 117.684 217.463 117.349C217.545 117.021 217.586 116.672 217.586 116.303V114.744H219.442ZM234.873 115.103V109.392C234.873 108.954 234.784 108.575 234.607 108.253C234.436 107.925 234.176 107.672 233.827 107.495C233.479 107.317 233.048 107.228 232.535 107.228C232.057 107.228 231.636 107.31 231.274 107.474C230.919 107.638 230.638 107.854 230.433 108.12C230.235 108.387 230.136 108.674 230.136 108.981H228.239C228.239 108.585 228.342 108.192 228.547 107.802C228.752 107.413 229.046 107.061 229.428 106.746C229.818 106.425 230.283 106.172 230.823 105.987C231.37 105.796 231.978 105.7 232.648 105.7C233.455 105.7 234.166 105.837 234.781 106.11C235.403 106.384 235.888 106.797 236.237 107.351C236.593 107.898 236.77 108.585 236.77 109.412V114.58C236.77 114.949 236.801 115.342 236.863 115.759C236.931 116.176 237.03 116.535 237.16 116.836V117H235.181C235.085 116.781 235.01 116.491 234.955 116.128C234.901 115.759 234.873 115.417 234.873 115.103ZM235.201 110.273L235.222 111.606H233.304C232.764 111.606 232.282 111.651 231.859 111.74C231.435 111.822 231.079 111.948 230.792 112.119C230.505 112.29 230.286 112.505 230.136 112.765C229.986 113.018 229.91 113.315 229.91 113.657C229.91 114.006 229.989 114.324 230.146 114.611C230.303 114.898 230.539 115.127 230.854 115.298C231.175 115.462 231.568 115.544 232.033 115.544C232.614 115.544 233.127 115.421 233.571 115.175C234.015 114.929 234.367 114.628 234.627 114.272C234.894 113.917 235.037 113.572 235.058 113.237L235.868 114.149C235.82 114.437 235.69 114.754 235.478 115.103C235.266 115.452 234.983 115.787 234.627 116.108C234.279 116.422 233.862 116.686 233.376 116.897C232.898 117.103 232.358 117.205 231.756 117.205C231.004 117.205 230.344 117.058 229.777 116.764C229.217 116.47 228.779 116.077 228.465 115.585C228.157 115.086 228.003 114.529 228.003 113.914C228.003 113.319 228.119 112.796 228.352 112.345C228.584 111.887 228.919 111.507 229.357 111.207C229.794 110.899 230.321 110.667 230.936 110.509C231.551 110.352 232.238 110.273 232.997 110.273H235.201ZM242.281 108.274V117H240.384V105.905H242.179L242.281 108.274ZM241.83 111.032L241.04 111.001C241.047 110.243 241.16 109.542 241.379 108.899C241.598 108.25 241.905 107.686 242.302 107.208C242.698 106.729 243.17 106.36 243.717 106.1C244.27 105.833 244.882 105.7 245.552 105.7C246.099 105.7 246.591 105.775 247.029 105.926C247.466 106.069 247.839 106.302 248.146 106.623C248.461 106.944 248.7 107.361 248.864 107.874C249.028 108.38 249.11 108.999 249.11 109.73V117H247.203V109.709C247.203 109.128 247.118 108.664 246.947 108.315C246.776 107.959 246.526 107.703 246.198 107.546C245.87 107.382 245.467 107.3 244.988 107.3C244.516 107.3 244.086 107.399 243.696 107.597C243.313 107.795 242.982 108.069 242.702 108.417C242.428 108.766 242.213 109.166 242.056 109.617C241.905 110.062 241.83 110.533 241.83 111.032ZM259.615 114.847V101.25H261.522V117H259.779L259.615 114.847ZM252.15 111.576V111.36C252.15 110.513 252.252 109.744 252.458 109.053C252.669 108.356 252.967 107.758 253.35 107.259C253.739 106.76 254.201 106.377 254.734 106.11C255.274 105.837 255.875 105.7 256.539 105.7C257.236 105.7 257.844 105.823 258.364 106.069C258.89 106.309 259.334 106.661 259.697 107.125C260.066 107.583 260.356 108.137 260.568 108.787C260.78 109.436 260.927 110.171 261.009 110.991V111.935C260.934 112.748 260.787 113.479 260.568 114.129C260.356 114.778 260.066 115.332 259.697 115.79C259.334 116.248 258.89 116.6 258.364 116.846C257.837 117.085 257.222 117.205 256.518 117.205C255.869 117.205 255.274 117.065 254.734 116.785C254.201 116.504 253.739 116.111 253.35 115.605C252.967 115.1 252.669 114.505 252.458 113.821C252.252 113.131 252.15 112.382 252.15 111.576ZM254.057 111.36V111.576C254.057 112.129 254.112 112.649 254.221 113.134C254.337 113.62 254.515 114.047 254.754 114.416C254.994 114.785 255.298 115.076 255.667 115.288C256.036 115.493 256.477 115.595 256.99 115.595C257.619 115.595 258.135 115.462 258.538 115.195C258.948 114.929 259.276 114.577 259.522 114.139C259.769 113.702 259.96 113.227 260.097 112.714V110.243C260.015 109.867 259.895 109.504 259.738 109.156C259.587 108.8 259.389 108.486 259.143 108.212C258.904 107.932 258.606 107.71 258.251 107.546C257.902 107.382 257.489 107.3 257.01 107.3C256.491 107.3 256.043 107.409 255.667 107.628C255.298 107.84 254.994 108.134 254.754 108.51C254.515 108.879 254.337 109.31 254.221 109.802C254.112 110.287 254.057 110.807 254.057 111.36ZM273.774 117H271.877V104.736C271.877 103.937 272.021 103.263 272.308 102.716C272.602 102.163 273.022 101.746 273.569 101.465C274.116 101.178 274.765 101.035 275.517 101.035C275.736 101.035 275.955 101.048 276.174 101.076C276.399 101.103 276.618 101.144 276.83 101.199L276.727 102.747C276.584 102.713 276.42 102.689 276.235 102.675C276.057 102.662 275.88 102.655 275.702 102.655C275.299 102.655 274.95 102.737 274.656 102.901C274.369 103.058 274.15 103.291 274 103.598C273.849 103.906 273.774 104.285 273.774 104.736V117ZM276.133 105.905V107.361H270.124V105.905H276.133ZM280.772 107.648V117H278.875V105.905H280.721L280.772 107.648ZM284.238 105.844L284.227 107.607C284.07 107.573 283.92 107.553 283.776 107.546C283.639 107.532 283.482 107.525 283.305 107.525C282.867 107.525 282.481 107.594 282.146 107.73C281.811 107.867 281.527 108.059 281.295 108.305C281.062 108.551 280.878 108.845 280.741 109.187C280.611 109.521 280.526 109.891 280.485 110.294L279.952 110.602C279.952 109.932 280.016 109.303 280.146 108.715C280.283 108.127 280.492 107.607 280.772 107.156C281.052 106.698 281.408 106.343 281.838 106.09C282.276 105.83 282.795 105.7 283.397 105.7C283.534 105.7 283.691 105.717 283.868 105.751C284.046 105.779 284.169 105.81 284.238 105.844ZM292.753 115.103V109.392C292.753 108.954 292.664 108.575 292.486 108.253C292.315 107.925 292.056 107.672 291.707 107.495C291.358 107.317 290.928 107.228 290.415 107.228C289.936 107.228 289.516 107.31 289.154 107.474C288.798 107.638 288.518 107.854 288.313 108.12C288.115 108.387 288.016 108.674 288.016 108.981H286.119C286.119 108.585 286.221 108.192 286.426 107.802C286.631 107.413 286.925 107.061 287.308 106.746C287.698 106.425 288.163 106.172 288.703 105.987C289.249 105.796 289.858 105.7 290.528 105.7C291.334 105.7 292.045 105.837 292.661 106.11C293.283 106.384 293.768 106.797 294.117 107.351C294.472 107.898 294.65 108.585 294.65 109.412V114.58C294.65 114.949 294.681 115.342 294.742 115.759C294.811 116.176 294.91 116.535 295.04 116.836V117H293.061C292.965 116.781 292.89 116.491 292.835 116.128C292.78 115.759 292.753 115.417 292.753 115.103ZM293.081 110.273L293.102 111.606H291.184C290.644 111.606 290.162 111.651 289.738 111.74C289.314 111.822 288.959 111.948 288.672 112.119C288.385 112.29 288.166 112.505 288.016 112.765C287.865 113.018 287.79 113.315 287.79 113.657C287.79 114.006 287.869 114.324 288.026 114.611C288.183 114.898 288.419 115.127 288.733 115.298C289.055 115.462 289.448 115.544 289.913 115.544C290.494 115.544 291.006 115.421 291.451 115.175C291.895 114.929 292.247 114.628 292.507 114.272C292.773 113.917 292.917 113.572 292.937 113.237L293.748 114.149C293.7 114.437 293.57 114.754 293.358 115.103C293.146 115.452 292.862 115.787 292.507 116.108C292.158 116.422 291.741 116.686 291.256 116.897C290.777 117.103 290.237 117.205 289.636 117.205C288.884 117.205 288.224 117.058 287.657 116.764C287.096 116.47 286.659 116.077 286.344 115.585C286.037 115.086 285.883 114.529 285.883 113.914C285.883 113.319 285.999 112.796 286.231 112.345C286.464 111.887 286.799 111.507 287.236 111.207C287.674 110.899 288.2 110.667 288.815 110.509C289.431 110.352 290.118 110.273 290.876 110.273H293.081ZM302.704 115.646C303.155 115.646 303.572 115.554 303.955 115.37C304.337 115.185 304.652 114.932 304.898 114.611C305.144 114.283 305.284 113.91 305.318 113.493H307.123C307.089 114.149 306.867 114.761 306.457 115.329C306.053 115.889 305.523 116.344 304.867 116.692C304.211 117.034 303.49 117.205 302.704 117.205C301.87 117.205 301.142 117.058 300.52 116.764C299.904 116.47 299.392 116.067 298.982 115.554C298.578 115.042 298.274 114.454 298.069 113.791C297.871 113.121 297.772 112.413 297.772 111.668V111.237C297.772 110.492 297.871 109.788 298.069 109.125C298.274 108.455 298.578 107.864 298.982 107.351C299.392 106.838 299.904 106.435 300.52 106.141C301.142 105.847 301.87 105.7 302.704 105.7C303.572 105.7 304.331 105.878 304.98 106.233C305.629 106.582 306.139 107.061 306.508 107.669C306.884 108.271 307.089 108.954 307.123 109.72H305.318C305.284 109.262 305.154 108.848 304.929 108.479C304.71 108.11 304.409 107.816 304.026 107.597C303.65 107.372 303.21 107.259 302.704 107.259C302.123 107.259 301.634 107.375 301.237 107.607C300.848 107.833 300.537 108.141 300.304 108.53C300.079 108.913 299.915 109.34 299.812 109.812C299.716 110.277 299.669 110.752 299.669 111.237V111.668C299.669 112.153 299.716 112.632 299.812 113.104C299.908 113.575 300.068 114.002 300.294 114.385C300.526 114.768 300.837 115.076 301.227 115.308C301.624 115.534 302.116 115.646 302.704 115.646ZM314.531 105.905V107.361H308.532V105.905H314.531ZM310.563 103.208H312.46V114.252C312.46 114.628 312.518 114.912 312.634 115.103C312.75 115.294 312.901 115.421 313.085 115.482C313.27 115.544 313.468 115.575 313.68 115.575C313.837 115.575 314.001 115.561 314.172 115.534C314.35 115.5 314.483 115.472 314.572 115.452L314.582 117C314.432 117.048 314.234 117.092 313.987 117.133C313.748 117.181 313.458 117.205 313.116 117.205C312.651 117.205 312.224 117.113 311.834 116.928C311.445 116.744 311.133 116.436 310.901 116.005C310.675 115.568 310.563 114.98 310.563 114.242V103.208ZM319.447 105.905V117H317.54V105.905H319.447ZM317.396 102.962C317.396 102.655 317.489 102.395 317.673 102.183C317.865 101.971 318.145 101.865 318.514 101.865C318.876 101.865 319.153 101.971 319.345 102.183C319.543 102.395 319.642 102.655 319.642 102.962C319.642 103.256 319.543 103.509 319.345 103.721C319.153 103.926 318.876 104.029 318.514 104.029C318.145 104.029 317.865 103.926 317.673 103.721C317.489 103.509 317.396 103.256 317.396 102.962ZM322.62 111.576V111.34C322.62 110.54 322.736 109.798 322.969 109.115C323.201 108.424 323.536 107.826 323.974 107.32C324.411 106.808 324.941 106.411 325.563 106.131C326.185 105.844 326.882 105.7 327.655 105.7C328.434 105.7 329.135 105.844 329.757 106.131C330.386 106.411 330.919 106.808 331.356 107.32C331.801 107.826 332.139 108.424 332.372 109.115C332.604 109.798 332.72 110.54 332.72 111.34V111.576C332.72 112.375 332.604 113.117 332.372 113.801C332.139 114.484 331.801 115.083 331.356 115.595C330.919 116.101 330.389 116.498 329.767 116.785C329.152 117.065 328.455 117.205 327.675 117.205C326.896 117.205 326.195 117.065 325.573 116.785C324.951 116.498 324.418 116.101 323.974 115.595C323.536 115.083 323.201 114.484 322.969 113.801C322.736 113.117 322.62 112.375 322.62 111.576ZM324.517 111.34V111.576C324.517 112.129 324.582 112.652 324.712 113.145C324.842 113.63 325.037 114.061 325.296 114.437C325.563 114.812 325.894 115.11 326.291 115.329C326.687 115.541 327.149 115.646 327.675 115.646C328.195 115.646 328.649 115.541 329.039 115.329C329.435 115.11 329.764 114.812 330.023 114.437C330.283 114.061 330.478 113.63 330.608 113.145C330.745 112.652 330.813 112.129 330.813 111.576V111.34C330.813 110.793 330.745 110.277 330.608 109.792C330.478 109.299 330.28 108.865 330.013 108.489C329.753 108.106 329.425 107.806 329.029 107.587C328.639 107.368 328.181 107.259 327.655 107.259C327.135 107.259 326.677 107.368 326.281 107.587C325.891 107.806 325.563 108.106 325.296 108.489C325.037 108.865 324.842 109.299 324.712 109.792C324.582 110.277 324.517 110.793 324.517 111.34ZM337.626 108.274V117H335.729V105.905H337.523L337.626 108.274ZM337.175 111.032L336.385 111.001C336.392 110.243 336.505 109.542 336.724 108.899C336.942 108.25 337.25 107.686 337.647 107.208C338.043 106.729 338.515 106.36 339.062 106.1C339.615 105.833 340.227 105.7 340.897 105.7C341.444 105.7 341.936 105.775 342.374 105.926C342.811 106.069 343.184 106.302 343.491 106.623C343.806 106.944 344.045 107.361 344.209 107.874C344.373 108.38 344.455 108.999 344.455 109.73V117H342.548V109.709C342.548 109.128 342.462 108.664 342.292 108.315C342.121 107.959 341.871 107.703 341.543 107.546C341.215 107.382 340.812 107.3 340.333 107.3C339.861 107.3 339.431 107.399 339.041 107.597C338.658 107.795 338.327 108.069 338.046 108.417C337.773 108.766 337.558 109.166 337.4 109.617C337.25 110.062 337.175 110.533 337.175 111.032ZM354.508 115.103V109.392C354.508 108.954 354.42 108.575 354.242 108.253C354.071 107.925 353.811 107.672 353.463 107.495C353.114 107.317 352.683 107.228 352.171 107.228C351.692 107.228 351.272 107.31 350.909 107.474C350.554 107.638 350.274 107.854 350.069 108.12C349.87 108.387 349.771 108.674 349.771 108.981H347.874C347.874 108.585 347.977 108.192 348.182 107.802C348.387 107.413 348.681 107.061 349.064 106.746C349.453 106.425 349.918 106.172 350.458 105.987C351.005 105.796 351.613 105.7 352.283 105.7C353.09 105.7 353.801 105.837 354.416 106.11C355.038 106.384 355.524 106.797 355.872 107.351C356.228 107.898 356.405 108.585 356.405 109.412V114.58C356.405 114.949 356.436 115.342 356.498 115.759C356.566 116.176 356.665 116.535 356.795 116.836V117H354.816C354.72 116.781 354.645 116.491 354.591 116.128C354.536 115.759 354.508 115.417 354.508 115.103ZM354.837 110.273L354.857 111.606H352.94C352.4 111.606 351.918 111.651 351.494 111.74C351.07 111.822 350.715 111.948 350.427 112.119C350.14 112.29 349.922 112.505 349.771 112.765C349.621 113.018 349.546 113.315 349.546 113.657C349.546 114.006 349.624 114.324 349.781 114.611C349.939 114.898 350.174 115.127 350.489 115.298C350.81 115.462 351.203 115.544 351.668 115.544C352.249 115.544 352.762 115.421 353.206 115.175C353.651 114.929 354.003 114.628 354.262 114.272C354.529 113.917 354.673 113.572 354.693 113.237L355.503 114.149C355.455 114.437 355.325 114.754 355.113 115.103C354.902 115.452 354.618 115.787 354.262 116.108C353.914 116.422 353.497 116.686 353.011 116.897C352.533 117.103 351.993 117.205 351.391 117.205C350.639 117.205 349.98 117.058 349.412 116.764C348.852 116.47 348.414 116.077 348.1 115.585C347.792 115.086 347.638 114.529 347.638 113.914C347.638 113.319 347.755 112.796 347.987 112.345C348.219 111.887 348.554 111.507 348.992 111.207C349.429 110.899 349.956 110.667 350.571 110.509C351.186 110.352 351.873 110.273 352.632 110.273H354.837ZM362.08 101.25V117H360.173V101.25H362.08ZM157.604 134.576V134.34C157.604 133.54 157.72 132.798 157.952 132.115C158.185 131.424 158.52 130.826 158.957 130.32C159.395 129.808 159.924 129.411 160.546 129.131C161.168 128.844 161.866 128.7 162.638 128.7C163.417 128.7 164.118 128.844 164.74 129.131C165.369 129.411 165.902 129.808 166.34 130.32C166.784 130.826 167.123 131.424 167.355 132.115C167.587 132.798 167.704 133.54 167.704 134.34V134.576C167.704 135.375 167.587 136.117 167.355 136.801C167.123 137.484 166.784 138.083 166.34 138.595C165.902 139.101 165.373 139.498 164.751 139.785C164.135 140.065 163.438 140.205 162.659 140.205C161.879 140.205 161.179 140.065 160.557 139.785C159.935 139.498 159.401 139.101 158.957 138.595C158.52 138.083 158.185 137.484 157.952 136.801C157.72 136.117 157.604 135.375 157.604 134.576ZM159.501 134.34V134.576C159.501 135.129 159.565 135.652 159.695 136.145C159.825 136.63 160.02 137.061 160.28 137.437C160.546 137.812 160.878 138.11 161.274 138.329C161.671 138.541 162.132 138.646 162.659 138.646C163.178 138.646 163.633 138.541 164.022 138.329C164.419 138.11 164.747 137.812 165.007 137.437C165.267 137.061 165.461 136.63 165.591 136.145C165.728 135.652 165.796 135.129 165.796 134.576V134.34C165.796 133.793 165.728 133.277 165.591 132.792C165.461 132.299 165.263 131.865 164.997 131.489C164.737 131.106 164.409 130.806 164.012 130.587C163.623 130.368 163.165 130.259 162.638 130.259C162.119 130.259 161.661 130.368 161.264 130.587C160.875 130.806 160.546 131.106 160.28 131.489C160.02 131.865 159.825 132.299 159.695 132.792C159.565 133.277 159.501 133.793 159.501 134.34ZM172.61 131.038V144.266H170.702V128.905H172.445L172.61 131.038ZM180.085 134.36V134.576C180.085 135.382 179.989 136.131 179.798 136.821C179.606 137.505 179.326 138.1 178.957 138.605C178.594 139.111 178.147 139.504 177.613 139.785C177.08 140.065 176.468 140.205 175.778 140.205C175.074 140.205 174.452 140.089 173.912 139.856C173.372 139.624 172.914 139.286 172.538 138.841C172.162 138.397 171.861 137.864 171.635 137.242C171.417 136.62 171.266 135.919 171.184 135.14V133.991C171.266 133.171 171.42 132.436 171.646 131.787C171.871 131.137 172.169 130.583 172.538 130.125C172.914 129.661 173.368 129.309 173.902 129.069C174.435 128.823 175.05 128.7 175.747 128.7C176.444 128.7 177.063 128.837 177.603 129.11C178.143 129.377 178.598 129.76 178.967 130.259C179.336 130.758 179.613 131.356 179.798 132.053C179.989 132.744 180.085 133.513 180.085 134.36ZM178.177 134.576V134.36C178.177 133.807 178.119 133.287 178.003 132.802C177.887 132.31 177.706 131.879 177.46 131.51C177.22 131.134 176.913 130.84 176.537 130.628C176.161 130.409 175.713 130.3 175.193 130.3C174.715 130.3 174.298 130.382 173.943 130.546C173.594 130.71 173.297 130.932 173.05 131.212C172.804 131.486 172.603 131.8 172.445 132.156C172.295 132.504 172.182 132.867 172.107 133.243V135.898C172.244 136.377 172.435 136.828 172.681 137.252C172.927 137.669 173.256 138.007 173.666 138.267C174.076 138.52 174.592 138.646 175.214 138.646C175.727 138.646 176.168 138.541 176.537 138.329C176.913 138.11 177.22 137.812 177.46 137.437C177.706 137.061 177.887 136.63 178.003 136.145C178.119 135.652 178.177 135.129 178.177 134.576ZM187.739 140.205C186.966 140.205 186.265 140.075 185.636 139.815C185.014 139.549 184.478 139.176 184.027 138.698C183.582 138.219 183.24 137.652 183.001 136.996C182.762 136.339 182.642 135.622 182.642 134.842V134.412C182.642 133.509 182.776 132.706 183.042 132.002C183.309 131.291 183.671 130.689 184.129 130.197C184.587 129.705 185.107 129.333 185.688 129.08C186.269 128.827 186.87 128.7 187.492 128.7C188.285 128.7 188.969 128.837 189.543 129.11C190.124 129.384 190.599 129.767 190.969 130.259C191.338 130.744 191.611 131.318 191.789 131.981C191.967 132.638 192.055 133.355 192.055 134.135V134.986H183.77V133.438H190.158V133.294C190.131 132.802 190.029 132.323 189.851 131.858C189.68 131.394 189.406 131.011 189.031 130.71C188.655 130.409 188.142 130.259 187.492 130.259C187.062 130.259 186.665 130.351 186.303 130.536C185.941 130.713 185.63 130.98 185.37 131.335C185.11 131.691 184.908 132.125 184.765 132.638C184.621 133.15 184.55 133.742 184.55 134.412V134.842C184.55 135.369 184.621 135.864 184.765 136.329C184.915 136.787 185.131 137.19 185.411 137.539C185.698 137.888 186.043 138.161 186.447 138.359C186.857 138.558 187.322 138.657 187.841 138.657C188.511 138.657 189.078 138.52 189.543 138.247C190.008 137.973 190.415 137.607 190.763 137.149L191.912 138.062C191.673 138.424 191.368 138.77 190.999 139.098C190.63 139.426 190.176 139.692 189.635 139.897C189.102 140.103 188.47 140.205 187.739 140.205ZM196.797 130.648V140H194.9V128.905H196.746L196.797 130.648ZM200.263 128.844L200.253 130.607C200.096 130.573 199.945 130.553 199.802 130.546C199.665 130.532 199.508 130.525 199.33 130.525C198.892 130.525 198.506 130.594 198.171 130.73C197.836 130.867 197.553 131.059 197.32 131.305C197.088 131.551 196.903 131.845 196.766 132.187C196.637 132.521 196.551 132.891 196.51 133.294L195.977 133.602C195.977 132.932 196.042 132.303 196.172 131.715C196.308 131.127 196.517 130.607 196.797 130.156C197.078 129.698 197.433 129.343 197.864 129.09C198.301 128.83 198.821 128.7 199.422 128.7C199.559 128.7 199.716 128.717 199.894 128.751C200.072 128.779 200.195 128.81 200.263 128.844ZM208.778 138.103V132.392C208.778 131.954 208.689 131.575 208.512 131.253C208.341 130.925 208.081 130.672 207.732 130.495C207.384 130.317 206.953 130.228 206.44 130.228C205.962 130.228 205.542 130.31 205.179 130.474C204.824 130.638 204.543 130.854 204.338 131.12C204.14 131.387 204.041 131.674 204.041 131.981H202.144C202.144 131.585 202.247 131.192 202.452 130.802C202.657 130.413 202.951 130.061 203.333 129.746C203.723 129.425 204.188 129.172 204.728 128.987C205.275 128.796 205.883 128.7 206.553 128.7C207.36 128.7 208.071 128.837 208.686 129.11C209.308 129.384 209.793 129.797 210.142 130.351C210.498 130.898 210.675 131.585 210.675 132.412V137.58C210.675 137.949 210.706 138.342 210.768 138.759C210.836 139.176 210.935 139.535 211.065 139.836V140H209.086C208.99 139.781 208.915 139.491 208.86 139.128C208.806 138.759 208.778 138.417 208.778 138.103ZM209.106 133.273L209.127 134.606H207.209C206.669 134.606 206.188 134.651 205.764 134.74C205.34 134.822 204.984 134.948 204.697 135.119C204.41 135.29 204.191 135.505 204.041 135.765C203.891 136.018 203.815 136.315 203.815 136.657C203.815 137.006 203.894 137.324 204.051 137.611C204.208 137.898 204.444 138.127 204.759 138.298C205.08 138.462 205.473 138.544 205.938 138.544C206.519 138.544 207.032 138.421 207.476 138.175C207.92 137.929 208.272 137.628 208.532 137.272C208.799 136.917 208.942 136.572 208.963 136.237L209.773 137.149C209.725 137.437 209.595 137.754 209.383 138.103C209.171 138.452 208.888 138.787 208.532 139.108C208.184 139.422 207.767 139.686 207.281 139.897C206.803 140.103 206.263 140.205 205.661 140.205C204.909 140.205 204.25 140.058 203.682 139.764C203.122 139.47 202.684 139.077 202.37 138.585C202.062 138.086 201.908 137.529 201.908 136.914C201.908 136.319 202.024 135.796 202.257 135.345C202.489 134.887 202.824 134.507 203.262 134.207C203.699 133.899 204.226 133.667 204.841 133.509C205.456 133.352 206.143 133.273 206.902 133.273H209.106ZM218.934 128.905V130.361H212.936V128.905H218.934ZM214.966 126.208H216.863V137.252C216.863 137.628 216.921 137.912 217.037 138.103C217.153 138.294 217.304 138.421 217.488 138.482C217.673 138.544 217.871 138.575 218.083 138.575C218.24 138.575 218.404 138.561 218.575 138.534C218.753 138.5 218.886 138.472 218.975 138.452L218.985 140C218.835 140.048 218.637 140.092 218.391 140.133C218.151 140.181 217.861 140.205 217.519 140.205C217.054 140.205 216.627 140.113 216.237 139.928C215.848 139.744 215.537 139.436 215.304 139.005C215.079 138.568 214.966 137.98 214.966 137.242V126.208ZM221.082 134.576V134.34C221.082 133.54 221.198 132.798 221.43 132.115C221.663 131.424 221.998 130.826 222.435 130.32C222.873 129.808 223.403 129.411 224.025 129.131C224.647 128.844 225.344 128.7 226.116 128.7C226.896 128.7 227.596 128.844 228.218 129.131C228.847 129.411 229.381 129.808 229.818 130.32C230.262 130.826 230.601 131.424 230.833 132.115C231.066 132.798 231.182 133.54 231.182 134.34V134.576C231.182 135.375 231.066 136.117 230.833 136.801C230.601 137.484 230.262 138.083 229.818 138.595C229.381 139.101 228.851 139.498 228.229 139.785C227.614 140.065 226.916 140.205 226.137 140.205C225.358 140.205 224.657 140.065 224.035 139.785C223.413 139.498 222.88 139.101 222.435 138.595C221.998 138.083 221.663 137.484 221.43 136.801C221.198 136.117 221.082 135.375 221.082 134.576ZM222.979 134.34V134.576C222.979 135.129 223.044 135.652 223.174 136.145C223.303 136.63 223.498 137.061 223.758 137.437C224.025 137.812 224.356 138.11 224.753 138.329C225.149 138.541 225.611 138.646 226.137 138.646C226.656 138.646 227.111 138.541 227.501 138.329C227.897 138.11 228.225 137.812 228.485 137.437C228.745 137.061 228.94 136.63 229.07 136.145C229.206 135.652 229.275 135.129 229.275 134.576V134.34C229.275 133.793 229.206 133.277 229.07 132.792C228.94 132.299 228.741 131.865 228.475 131.489C228.215 131.106 227.887 130.806 227.49 130.587C227.101 130.368 226.643 130.259 226.116 130.259C225.597 130.259 225.139 130.368 224.742 130.587C224.353 130.806 224.025 131.106 223.758 131.489C223.498 131.865 223.303 132.299 223.174 132.792C223.044 133.277 222.979 133.793 222.979 134.34ZM236.088 130.648V140H234.191V128.905H236.036L236.088 130.648ZM239.554 128.844L239.543 130.607C239.386 130.573 239.236 130.553 239.092 130.546C238.955 130.532 238.798 130.525 238.62 130.525C238.183 130.525 237.797 130.594 237.462 130.73C237.127 130.867 236.843 131.059 236.611 131.305C236.378 131.551 236.194 131.845 236.057 132.187C235.927 132.521 235.842 132.891 235.801 133.294L235.267 133.602C235.267 132.932 235.332 132.303 235.462 131.715C235.599 131.127 235.807 130.607 236.088 130.156C236.368 129.698 236.723 129.343 237.154 129.09C237.592 128.83 238.111 128.7 238.713 128.7C238.849 128.7 239.007 128.717 239.184 128.751C239.362 128.779 239.485 128.81 239.554 128.844ZM248.397 137.057C248.397 136.784 248.335 136.531 248.212 136.298C248.096 136.059 247.853 135.844 247.484 135.652C247.122 135.454 246.575 135.283 245.844 135.14C245.228 135.01 244.671 134.856 244.172 134.678C243.68 134.5 243.26 134.285 242.911 134.032C242.569 133.779 242.306 133.482 242.122 133.14C241.937 132.798 241.845 132.398 241.845 131.94C241.845 131.503 241.94 131.089 242.132 130.7C242.33 130.31 242.607 129.965 242.962 129.664C243.325 129.363 243.759 129.127 244.265 128.957C244.77 128.786 245.334 128.7 245.957 128.7C246.845 128.7 247.604 128.857 248.233 129.172C248.862 129.486 249.344 129.907 249.679 130.433C250.014 130.953 250.181 131.53 250.181 132.166H248.284C248.284 131.858 248.192 131.561 248.007 131.274C247.83 130.98 247.566 130.737 247.218 130.546C246.876 130.354 246.456 130.259 245.957 130.259C245.43 130.259 245.003 130.341 244.675 130.505C244.353 130.662 244.118 130.864 243.967 131.11C243.824 131.356 243.752 131.616 243.752 131.889C243.752 132.094 243.786 132.279 243.854 132.443C243.93 132.6 244.06 132.747 244.244 132.884C244.429 133.014 244.688 133.137 245.023 133.253C245.358 133.369 245.786 133.485 246.305 133.602C247.214 133.807 247.963 134.053 248.551 134.34C249.139 134.627 249.576 134.979 249.863 135.396C250.15 135.813 250.294 136.319 250.294 136.914C250.294 137.399 250.191 137.843 249.986 138.247C249.788 138.65 249.498 138.999 249.115 139.292C248.739 139.58 248.288 139.805 247.761 139.969C247.242 140.126 246.657 140.205 246.008 140.205C245.03 140.205 244.203 140.031 243.526 139.682C242.85 139.333 242.337 138.882 241.988 138.329C241.64 137.775 241.465 137.19 241.465 136.575H243.373C243.4 137.095 243.55 137.508 243.824 137.816C244.097 138.117 244.432 138.332 244.829 138.462C245.225 138.585 245.618 138.646 246.008 138.646C246.527 138.646 246.961 138.578 247.31 138.441C247.665 138.305 247.936 138.117 248.12 137.877C248.305 137.638 248.397 137.365 248.397 137.057Z" fill="#4F5052"/>
<path d="M173.055 51.918H168.708V49.1758H173.055C173.727 49.1758 174.274 49.0664 174.696 48.8477C175.118 48.6211 175.427 48.3086 175.622 47.9102C175.817 47.5117 175.915 47.0625 175.915 46.5625C175.915 46.0547 175.817 45.582 175.622 45.1445C175.427 44.707 175.118 44.3555 174.696 44.0898C174.274 43.8242 173.727 43.6914 173.055 43.6914H169.927V58H166.411V40.9375H173.055C174.391 40.9375 175.536 41.1797 176.489 41.6641C177.45 42.1406 178.184 42.8008 178.692 43.6445C179.2 44.4883 179.454 45.4531 179.454 46.5391C179.454 47.6406 179.2 48.5938 178.692 49.3984C178.184 50.2031 177.45 50.8242 176.489 51.2617C175.536 51.6992 174.391 51.918 173.055 51.918ZM188.061 58.2344C187.076 58.2344 186.193 58.0781 185.412 57.7656C184.631 57.4453 183.967 57.0039 183.42 56.4414C182.881 55.8789 182.467 55.2266 182.178 54.4844C181.889 53.7344 181.744 52.9375 181.744 52.0938V51.625C181.744 50.6641 181.881 49.7852 182.154 48.9883C182.428 48.1914 182.818 47.5 183.326 46.9141C183.842 46.3281 184.467 45.8789 185.201 45.5664C185.936 45.2461 186.764 45.0859 187.686 45.0859C188.584 45.0859 189.381 45.2344 190.076 45.5312C190.772 45.8281 191.354 46.25 191.822 46.7969C192.299 47.3438 192.658 48 192.9 48.7656C193.143 49.5234 193.264 50.3672 193.264 51.2969V52.7031H183.186V50.4531H189.947V50.1953C189.947 49.7266 189.861 49.3086 189.69 48.9414C189.525 48.5664 189.275 48.2695 188.94 48.0508C188.604 47.832 188.174 47.7227 187.65 47.7227C187.205 47.7227 186.822 47.8203 186.502 48.0156C186.182 48.2109 185.92 48.4844 185.717 48.8359C185.522 49.1875 185.373 49.6016 185.272 50.0781C185.178 50.5469 185.131 51.0625 185.131 51.625V52.0938C185.131 52.6016 185.201 53.0703 185.342 53.5C185.49 53.9297 185.697 54.3008 185.963 54.6133C186.236 54.9258 186.565 55.168 186.947 55.3398C187.338 55.5117 187.779 55.5977 188.272 55.5977C188.881 55.5977 189.447 55.4805 189.971 55.2461C190.502 55.0039 190.959 54.6406 191.342 54.1562L192.982 55.9375C192.717 56.3203 192.354 56.6875 191.893 57.0391C191.44 57.3906 190.893 57.6797 190.252 57.9062C189.611 58.125 188.881 58.2344 188.061 58.2344ZM195.367 51.7891V51.543C195.367 50.6133 195.499 49.7578 195.765 48.9766C196.031 48.1875 196.417 47.5039 196.925 46.9258C197.433 46.3477 198.058 45.8984 198.8 45.5781C199.542 45.25 200.394 45.0859 201.355 45.0859C202.316 45.0859 203.171 45.25 203.921 45.5781C204.671 45.8984 205.3 46.3477 205.808 46.9258C206.324 47.5039 206.714 48.1875 206.98 48.9766C207.245 49.7578 207.378 50.6133 207.378 51.543V51.7891C207.378 52.7109 207.245 53.5664 206.98 54.3555C206.714 55.1367 206.324 55.8203 205.808 56.4062C205.3 56.9844 204.675 57.4336 203.933 57.7539C203.191 58.0742 202.339 58.2344 201.378 58.2344C200.417 58.2344 199.562 58.0742 198.812 57.7539C198.07 57.4336 197.441 56.9844 196.925 56.4062C196.417 55.8203 196.031 55.1367 195.765 54.3555C195.499 53.5664 195.367 52.7109 195.367 51.7891ZM198.742 51.543V51.7891C198.742 52.3203 198.788 52.8164 198.882 53.2773C198.976 53.7383 199.124 54.1445 199.327 54.4961C199.538 54.8398 199.812 55.1094 200.148 55.3047C200.484 55.5 200.894 55.5977 201.378 55.5977C201.847 55.5977 202.249 55.5 202.585 55.3047C202.921 55.1094 203.191 54.8398 203.394 54.4961C203.597 54.1445 203.745 53.7383 203.839 53.2773C203.941 52.8164 203.992 52.3203 203.992 51.7891V51.543C203.992 51.0273 203.941 50.543 203.839 50.0898C203.745 49.6289 203.593 49.2227 203.382 48.8711C203.179 48.5117 202.91 48.2305 202.574 48.0273C202.238 47.8242 201.831 47.7227 201.355 47.7227C200.878 47.7227 200.472 47.8242 200.136 48.0273C199.808 48.2305 199.538 48.5117 199.327 48.8711C199.124 49.2227 198.976 49.6289 198.882 50.0898C198.788 50.543 198.742 51.0273 198.742 51.543ZM213.548 47.7578V62.875H210.173V45.3203H213.301L213.548 47.7578ZM221.575 51.5195V51.7656C221.575 52.6875 221.465 53.543 221.247 54.332C221.036 55.1211 220.723 55.8086 220.309 56.3945C219.895 56.9727 219.38 57.4258 218.762 57.7539C218.153 58.0742 217.45 58.2344 216.653 58.2344C215.88 58.2344 215.208 58.0781 214.637 57.7656C214.067 57.4531 213.587 57.0156 213.196 56.4531C212.813 55.8828 212.505 55.2227 212.27 54.4727C212.036 53.7227 211.856 52.918 211.731 52.0586V51.4141C211.856 50.4922 212.036 49.6484 212.27 48.8828C212.505 48.1094 212.813 47.4414 213.196 46.8789C213.587 46.3086 214.063 45.8672 214.626 45.5547C215.196 45.2422 215.864 45.0859 216.63 45.0859C217.434 45.0859 218.141 45.2383 218.751 45.543C219.368 45.8477 219.883 46.2852 220.298 46.8555C220.719 47.4258 221.036 48.1055 221.247 48.8945C221.465 49.6836 221.575 50.5586 221.575 51.5195ZM218.188 51.7656V51.5195C218.188 50.9805 218.141 50.4844 218.048 50.0312C217.962 49.5703 217.821 49.168 217.626 48.8242C217.438 48.4805 217.188 48.2148 216.876 48.0273C216.571 47.832 216.2 47.7344 215.762 47.7344C215.301 47.7344 214.907 47.8086 214.579 47.957C214.258 48.1055 213.997 48.3203 213.794 48.6016C213.59 48.8828 213.438 49.2188 213.337 49.6094C213.235 50 213.173 50.4414 213.149 50.9336V52.5625C213.188 53.1406 213.298 53.6602 213.477 54.1211C213.657 54.5742 213.934 54.9336 214.309 55.1992C214.684 55.4648 215.176 55.5977 215.786 55.5977C216.231 55.5977 216.606 55.5 216.911 55.3047C217.215 55.1016 217.462 54.8242 217.649 54.4727C217.844 54.1211 217.981 53.7148 218.059 53.2539C218.145 52.793 218.188 52.2969 218.188 51.7656ZM227.955 40V58H224.568V40H227.955ZM237.3 58.2344C236.316 58.2344 235.433 58.0781 234.652 57.7656C233.87 57.4453 233.206 57.0039 232.659 56.4414C232.12 55.8789 231.706 55.2266 231.417 54.4844C231.128 53.7344 230.984 52.9375 230.984 52.0938V51.625C230.984 50.6641 231.12 49.7852 231.394 48.9883C231.667 48.1914 232.058 47.5 232.566 46.9141C233.081 46.3281 233.706 45.8789 234.441 45.5664C235.175 45.2461 236.003 45.0859 236.925 45.0859C237.823 45.0859 238.62 45.2344 239.316 45.5312C240.011 45.8281 240.593 46.25 241.062 46.7969C241.538 47.3438 241.898 48 242.14 48.7656C242.382 49.5234 242.503 50.3672 242.503 51.2969V52.7031H232.425V50.4531H239.187V50.1953C239.187 49.7266 239.101 49.3086 238.929 48.9414C238.765 48.5664 238.515 48.2695 238.179 48.0508C237.843 47.832 237.413 47.7227 236.89 47.7227C236.445 47.7227 236.062 47.8203 235.741 48.0156C235.421 48.2109 235.159 48.4844 234.956 48.8359C234.761 49.1875 234.612 49.6016 234.511 50.0781C234.417 50.5469 234.37 51.0625 234.37 51.625V52.0938C234.37 52.6016 234.441 53.0703 234.581 53.5C234.73 53.9297 234.937 54.3008 235.202 54.6133C235.476 54.9258 235.804 55.168 236.187 55.3398C236.577 55.5117 237.019 55.5977 237.511 55.5977C238.12 55.5977 238.687 55.4805 239.21 55.2461C239.741 55.0039 240.198 54.6406 240.581 54.1562L242.222 55.9375C241.956 56.3203 241.593 56.6875 241.132 57.0391C240.679 57.3906 240.132 57.6797 239.491 57.9062C238.851 58.125 238.12 58.2344 237.3 58.2344Z" fill="#114DFF"/>
<path d="M137.009 58.375C137.164 53.86 139.437 49.5 144.5 49.5C149.563 49.5 151.836 53.86 151.991 58.375C152.001 58.651 151.776 58.875 151.5 58.875H137.5C137.224 58.875 136.999 58.651 137.009 58.375Z" fill="#114DFF"/>
<path d="M148.26 56.5C148.405 52.9239 150.113 49.5 153.875 49.5C157.637 49.5 159.345 52.9239 159.49 56.5C159.501 56.776 159.276 57 159 57H148.75C148.474 57 148.249 56.776 148.26 56.5Z" fill="#114DFF"/>
<path d="M129.51 56.5C129.655 52.9239 131.363 49.5 135.125 49.5C138.887 49.5 140.595 52.9239 140.74 56.5C140.751 56.776 140.526 57 140.25 57H130C129.724 57 129.499 56.776 129.51 56.5Z" fill="#114DFF"/>
<circle cx="144.5" cy="43.875" r="3.75" fill="#114DFF"/>
<circle cx="153.875" cy="43.875" r="3.75" fill="#114DFF"/>
<circle cx="135.125" cy="43.875" r="3.75" fill="#114DFF"/>
<defs>
<filter id="filter0_d_65_381" x="0" y="0" width="408" height="185" filterUnits="userSpaceOnUse" color-interpolation-filters="sRGB">
<feFlood flood-opacity="0" result="BackgroundImageFix"/>
<feColorMatrix in="SourceAlpha" type="matrix" values="0 0 0 0 0 0 0 0 0 0 0 0 0 0 0 0 0 0 127 0" result="hardAlpha"/>
<feOffset dy="4"/>
<feGaussianBlur stdDeviation="2"/>
<feComposite in2="hardAlpha" operator="out"/>
<feColorMatrix type="matrix" values="0 0 0 0 0 0 0 0 0 0 0 0 0 0 0 0 0 0 0.13 0"/>
<feBlend mode="normal" in2="BackgroundImageFix" result="effect1_dropShadow_65_381"/>
<feBlend mode="normal" in="SourceGraphic" in2="effect1_dropShadow_65_381" result="shape"/>
</filter>
<linearGradient id="paint0_linear_65_381" x1="9.16605" y1="16.3385" x2="406.729" y2="37.6865" gradientUnits="userSpaceOnUse">
<stop offset="0.197139" stop-color="#F6F8FF"/>
<stop offset="0.663491" stop-color="#3CE5A7"/>
<stop offset="1" stop-color="#114DFF"/>
</linearGradient>
</defs>
</svg>
