<svg width="215" height="201" viewBox="0 0 215 201" fill="none" xmlns="http://www.w3.org/2000/svg">
<path d="M31.7138 63.1453H27.725V61.5354H31.7138C32.4863 61.5354 33.1117 61.4124 33.5903 61.1663C34.0688 60.9202 34.4174 60.5784 34.6362 60.1409C34.8617 59.7034 34.9745 59.2043 34.9745 58.6438C34.9745 58.1311 34.8617 57.6492 34.6362 57.198C34.4174 56.7468 34.0688 56.3845 33.5903 56.1111C33.1117 55.8308 32.4863 55.6907 31.7138 55.6907H28.1864V69.0002H26.2074V54.0706H31.7138C32.8417 54.0706 33.7953 54.2654 34.5746 54.655C35.3539 55.0447 35.9452 55.5847 36.3486 56.2751C36.7519 56.9587 36.9535 57.7415 36.9535 58.6233C36.9535 59.5803 36.7519 60.3972 36.3486 61.074C35.9452 61.7507 35.3539 62.2668 34.5746 62.6223C33.7953 62.9709 32.8417 63.1453 31.7138 63.1453ZM46.5865 66.4368V57.9055H48.4937V69.0002H46.6788L46.5865 66.4368ZM46.9454 64.0989L47.7349 64.0784C47.7349 64.8167 47.6563 65.5002 47.4991 66.1292C47.3487 66.7512 47.1026 67.2913 46.7608 67.7493C46.419 68.2073 45.9712 68.5662 45.4175 68.8259C44.8638 69.0789 44.1905 69.2053 43.3975 69.2053C42.8575 69.2053 42.3619 69.1267 41.9107 68.9695C41.4664 68.8123 41.0835 68.5696 40.7622 68.2415C40.441 67.9133 40.1914 67.4861 40.0137 66.9597C39.8428 66.4333 39.7574 65.801 39.7574 65.0627V57.9055H41.6543V65.0833C41.6543 65.5823 41.709 65.9958 41.8184 66.324C41.9346 66.6453 42.0884 66.9016 42.2798 67.093C42.4781 67.2776 42.6968 67.4075 42.9361 67.4827C43.1822 67.5579 43.4351 67.5955 43.6949 67.5955C44.5015 67.5955 45.1407 67.4417 45.6123 67.134C46.084 66.8196 46.4224 66.3992 46.6275 65.8728C46.8394 65.3396 46.9454 64.7483 46.9454 64.0989ZM54.0763 53.2502V69.0002H52.1691V53.2502H54.0763ZM59.8128 53.2502V69.0002H57.9055V53.2502H59.8128ZM69.9481 66.0574C69.9481 65.7839 69.8866 65.531 69.7636 65.2986C69.6474 65.0593 69.4047 64.844 69.0355 64.6526C68.6732 64.4543 68.1264 64.2834 67.3949 64.1399C66.7797 64.01 66.2226 63.8562 65.7235 63.6785C65.2313 63.5007 64.8109 63.2854 64.4623 63.0325C64.1205 62.7795 63.8573 62.4822 63.6728 62.1404C63.4882 61.7986 63.3959 61.3987 63.3959 60.9407C63.3959 60.5032 63.4916 60.0896 63.683 59.7C63.8813 59.3103 64.1581 58.9651 64.5136 58.6643C64.8759 58.3635 65.31 58.1277 65.8158 57.9568C66.3217 57.7859 66.8856 57.7004 67.5077 57.7004C68.3964 57.7004 69.1552 57.8577 69.7841 58.1721C70.413 58.4866 70.8949 58.907 71.2299 59.4333C71.5648 59.9529 71.7323 60.5305 71.7323 61.1663H69.8354C69.8354 60.8586 69.7431 60.5613 69.5585 60.2742C69.3808 59.9802 69.1176 59.7375 68.7689 59.5461C68.4272 59.3547 68.0067 59.259 67.5077 59.259C66.9813 59.259 66.5541 59.3411 66.226 59.5051C65.9047 59.6624 65.6688 59.864 65.5185 60.1101C65.3749 60.3562 65.3031 60.616 65.3031 60.8894C65.3031 61.0945 65.3373 61.2791 65.4057 61.4431C65.4809 61.6003 65.6107 61.7473 65.7953 61.884C65.9799 62.0139 66.2397 62.137 66.5746 62.2532C66.9096 62.3694 67.3368 62.4856 67.8563 62.6018C68.7655 62.8069 69.5141 63.053 70.102 63.3401C70.6898 63.6272 71.1273 63.9792 71.4145 64.3962C71.7016 64.8132 71.8451 65.3191 71.8451 65.9138C71.8451 66.3992 71.7426 66.8435 71.5375 67.2468C71.3393 67.6501 71.0487 67.9988 70.6659 68.2927C70.2899 68.5798 69.8388 68.8054 69.3124 68.9695C68.7929 69.1267 68.2084 69.2053 67.559 69.2053C66.5814 69.2053 65.7543 69.031 65.0775 68.6824C64.4008 68.3337 63.8881 67.8826 63.5395 67.3289C63.1908 66.7751 63.0165 66.1907 63.0165 65.5754H64.9237C64.9511 66.095 65.1015 66.5085 65.3749 66.8162C65.6483 67.1169 65.9833 67.3323 66.3798 67.4622C66.7763 67.5852 67.1693 67.6467 67.559 67.6467C68.0785 67.6467 68.5126 67.5784 68.8612 67.4417C69.2167 67.3049 69.4867 67.1169 69.6713 66.8777C69.8559 66.6384 69.9481 66.365 69.9481 66.0574ZM82.8668 53.2502V69.0002H80.9596V53.2502H82.8668ZM88.6033 57.9055V69.0002H86.6961V57.9055H88.6033ZM86.5525 54.9626C86.5525 54.655 86.6448 54.3953 86.8294 54.1833C87.0208 53.9714 87.301 53.8655 87.6702 53.8655C88.0325 53.8655 88.3093 53.9714 88.5007 54.1833C88.699 54.3953 88.7981 54.655 88.7981 54.9626C88.7981 55.2566 88.699 55.5095 88.5007 55.7214C88.3093 55.9265 88.0325 56.0291 87.6702 56.0291C87.301 56.0291 87.0208 55.9265 86.8294 55.7214C86.6448 55.5095 86.5525 55.2566 86.5525 54.9626ZM95.6522 67.2878L98.6874 57.9055H100.625L96.6366 69.0002H95.3651L95.6522 67.2878ZM93.1195 57.9055L96.247 67.3391L96.4623 69.0002H95.1908L91.1713 57.9055H93.1195ZM107.541 69.2053C106.769 69.2053 106.068 69.0754 105.439 68.8157C104.817 68.5491 104.28 68.1765 103.829 67.698C103.385 67.2195 103.043 66.6521 102.804 65.9958C102.564 65.3396 102.445 64.6218 102.445 63.8425V63.4119C102.445 62.5095 102.578 61.7063 102.845 61.0022C103.111 60.2913 103.474 59.6897 103.932 59.1975C104.39 58.7053 104.909 58.3328 105.49 58.0798C106.071 57.8269 106.673 57.7004 107.295 57.7004C108.088 57.7004 108.771 57.8372 109.346 58.1106C109.927 58.384 110.402 58.7668 110.771 59.259C111.14 59.7444 111.414 60.3186 111.591 60.9817C111.769 61.6379 111.858 62.3557 111.858 63.135V63.9861H103.573V62.4377H109.961V62.2942C109.934 61.802 109.831 61.3235 109.653 60.8586C109.482 60.3938 109.209 60.011 108.833 59.7102C108.457 59.4094 107.944 59.259 107.295 59.259C106.864 59.259 106.468 59.3513 106.105 59.5359C105.743 59.7136 105.432 59.9802 105.172 60.3357C104.913 60.6912 104.711 61.1252 104.567 61.6379C104.424 62.1506 104.352 62.7419 104.352 63.4119V63.8425C104.352 64.3689 104.424 64.8645 104.567 65.3293C104.718 65.7874 104.933 66.1907 105.213 66.5393C105.5 66.8879 105.846 67.1614 106.249 67.3596C106.659 67.5579 107.124 67.657 107.644 67.657C108.313 67.657 108.881 67.5203 109.346 67.2468C109.811 66.9734 110.217 66.6077 110.566 66.1497L111.714 67.0623C111.475 67.4246 111.171 67.7698 110.802 68.0979C110.433 68.426 109.978 68.6926 109.438 68.8977C108.905 69.1028 108.272 69.2053 107.541 69.2053ZM127.002 66.0574C127.002 65.7839 126.94 65.531 126.817 65.2986C126.701 65.0593 126.458 64.844 126.089 64.6526C125.727 64.4543 125.18 64.2834 124.448 64.1399C123.833 64.01 123.276 63.8562 122.777 63.6785C122.285 63.5007 121.864 63.2854 121.516 63.0325C121.174 62.7795 120.911 62.4822 120.726 62.1404C120.542 61.7986 120.449 61.3987 120.449 60.9407C120.449 60.5032 120.545 60.0896 120.737 59.7C120.935 59.3103 121.212 58.9651 121.567 58.6643C121.929 58.3635 122.364 58.1277 122.869 57.9568C123.375 57.7859 123.939 57.7004 124.561 57.7004C125.45 57.7004 126.209 57.8577 126.838 58.1721C127.467 58.4866 127.948 58.907 128.283 59.4333C128.618 59.9529 128.786 60.5305 128.786 61.1663H126.889C126.889 60.8586 126.797 60.5613 126.612 60.2742C126.434 59.9802 126.171 59.7375 125.823 59.5461C125.481 59.3547 125.06 59.259 124.561 59.259C124.035 59.259 123.608 59.3411 123.28 59.5051C122.958 59.6624 122.722 59.864 122.572 60.1101C122.428 60.3562 122.357 60.616 122.357 60.8894C122.357 61.0945 122.391 61.2791 122.459 61.4431C122.534 61.6003 122.664 61.7473 122.849 61.884C123.033 62.0139 123.293 62.137 123.628 62.2532C123.963 62.3694 124.39 62.4856 124.91 62.6018C125.819 62.8069 126.568 63.053 127.156 63.3401C127.743 63.6272 128.181 63.9792 128.468 64.3962C128.755 64.8132 128.899 65.3191 128.899 65.9138C128.899 66.3992 128.796 66.8435 128.591 67.2468C128.393 67.6501 128.102 67.9988 127.719 68.2927C127.343 68.5798 126.892 68.8054 126.366 68.9695C125.846 69.1267 125.262 69.2053 124.613 69.2053C123.635 69.2053 122.808 69.031 122.131 68.6824C121.454 68.3337 120.942 67.8826 120.593 67.3289C120.244 66.7751 120.07 66.1907 120.07 65.5754H121.977C122.005 66.095 122.155 66.5085 122.428 66.8162C122.702 67.1169 123.037 67.3323 123.433 67.4622C123.83 67.5852 124.223 67.6467 124.613 67.6467C125.132 67.6467 125.566 67.5784 125.915 67.4417C126.27 67.3049 126.54 67.1169 126.725 66.8777C126.909 66.6384 127.002 66.365 127.002 66.0574ZM136.665 57.9055V59.3616H130.667V57.9055H136.665ZM132.697 55.2087H134.594V66.2522C134.594 66.6282 134.652 66.9119 134.768 67.1033C134.885 67.2947 135.035 67.4211 135.22 67.4827C135.404 67.5442 135.602 67.575 135.814 67.575C135.972 67.575 136.136 67.5613 136.307 67.5339C136.484 67.4998 136.618 67.4724 136.706 67.4519L136.717 69.0002C136.566 69.0481 136.368 69.0925 136.122 69.1335C135.883 69.1814 135.592 69.2053 135.25 69.2053C134.786 69.2053 134.358 69.113 133.969 68.9285C133.579 68.7439 133.268 68.4363 133.036 68.0056C132.81 67.5681 132.697 66.9802 132.697 66.2419V55.2087ZM146.062 67.1033V61.3918C146.062 60.9543 145.974 60.575 145.796 60.2537C145.625 59.9255 145.365 59.6726 145.017 59.4949C144.668 59.3171 144.237 59.2283 143.725 59.2283C143.246 59.2283 142.826 59.3103 142.463 59.4744C142.108 59.6384 141.828 59.8538 141.623 60.1204C141.424 60.387 141.325 60.6741 141.325 60.9817H139.428C139.428 60.5852 139.531 60.1921 139.736 59.8025C139.941 59.4128 140.235 59.0608 140.618 58.7463C141.007 58.425 141.472 58.1721 142.012 57.9875C142.559 57.7961 143.167 57.7004 143.837 57.7004C144.644 57.7004 145.355 57.8372 145.97 58.1106C146.592 58.384 147.078 58.7976 147.426 59.3513C147.782 59.8982 147.959 60.5852 147.959 61.4124V66.5803C147.959 66.9495 147.99 67.3425 148.052 67.7595C148.12 68.1765 148.219 68.5354 148.349 68.8362V69.0002H146.37C146.274 68.7815 146.199 68.491 146.145 68.1287C146.09 67.7595 146.062 67.4177 146.062 67.1033ZM146.391 62.2737L146.411 63.6067H144.494C143.954 63.6067 143.472 63.6511 143.048 63.74C142.624 63.822 142.269 63.9485 141.981 64.1194C141.694 64.2903 141.476 64.5056 141.325 64.7654C141.175 65.0183 141.1 65.3157 141.1 65.6575C141.1 66.0061 141.178 66.324 141.335 66.6111C141.493 66.8982 141.729 67.1272 142.043 67.2981C142.364 67.4622 142.757 67.5442 143.222 67.5442C143.803 67.5442 144.316 67.4211 144.76 67.175C145.205 66.929 145.557 66.6282 145.816 66.2727C146.083 65.9172 146.227 65.572 146.247 65.2371L147.057 66.1497C147.009 66.4368 146.879 66.7546 146.667 67.1033C146.456 67.4519 146.172 67.7869 145.816 68.1082C145.468 68.4226 145.051 68.6858 144.565 68.8977C144.087 69.1028 143.547 69.2053 142.945 69.2053C142.193 69.2053 141.534 69.0583 140.966 68.7644C140.406 68.4705 139.968 68.0774 139.654 67.5852C139.346 67.0862 139.192 66.5291 139.192 65.9138C139.192 65.3191 139.309 64.7961 139.541 64.345C139.773 63.887 140.108 63.5076 140.546 63.2068C140.983 62.8992 141.51 62.6667 142.125 62.5095C142.74 62.3523 143.427 62.2737 144.186 62.2737H146.391ZM153.47 59.6487V69.0002H151.573V57.9055H153.419L153.47 59.6487ZM156.936 57.844L156.926 59.6077C156.769 59.5735 156.618 59.553 156.475 59.5461C156.338 59.5325 156.181 59.5256 156.003 59.5256C155.566 59.5256 155.179 59.594 154.844 59.7307C154.509 59.8674 154.226 60.0588 153.993 60.3049C153.761 60.551 153.576 60.845 153.44 61.1868C153.31 61.5217 153.224 61.8909 153.183 62.2942L152.65 62.6018C152.65 61.9319 152.715 61.303 152.845 60.7151C152.982 60.1272 153.19 59.6077 153.47 59.1565C153.751 58.6985 154.106 58.343 154.537 58.0901C154.974 57.8303 155.494 57.7004 156.095 57.7004C156.232 57.7004 156.389 57.7175 156.567 57.7517C156.745 57.7791 156.868 57.8098 156.936 57.844ZM164.477 57.9055V59.3616H158.479V57.9055H164.477ZM160.509 55.2087H162.406V66.2522C162.406 66.6282 162.464 66.9119 162.58 67.1033C162.697 67.2947 162.847 67.4211 163.031 67.4827C163.216 67.5442 163.414 67.575 163.626 67.575C163.783 67.575 163.947 67.5613 164.118 67.5339C164.296 67.4998 164.429 67.4724 164.518 67.4519L164.529 69.0002C164.378 69.0481 164.18 69.0925 163.934 69.1335C163.695 69.1814 163.404 69.2053 163.062 69.2053C162.597 69.2053 162.17 69.113 161.78 68.9285C161.391 68.7439 161.08 68.4363 160.847 68.0056C160.622 67.5681 160.509 66.9802 160.509 66.2419V55.2087ZM174.12 66.4368V57.9055H176.028V69.0002H174.213L174.12 66.4368ZM174.479 64.0989L175.269 64.0784C175.269 64.8167 175.19 65.5002 175.033 66.1292C174.883 66.7512 174.637 67.2913 174.295 67.7493C173.953 68.2073 173.505 68.5662 172.952 68.8259C172.398 69.0789 171.724 69.2053 170.931 69.2053C170.391 69.2053 169.896 69.1267 169.445 68.9695C169 68.8123 168.618 68.5696 168.296 68.2415C167.975 67.9133 167.725 67.4861 167.548 66.9597C167.377 66.4333 167.291 65.801 167.291 65.0627V57.9055H169.188V65.0833C169.188 65.5823 169.243 65.9958 169.352 66.324C169.469 66.6453 169.622 66.9016 169.814 67.093C170.012 67.2776 170.231 67.4075 170.47 67.4827C170.716 67.5579 170.969 67.5955 171.229 67.5955C172.035 67.5955 172.675 67.4417 173.146 67.134C173.618 66.8196 173.956 66.3992 174.161 65.8728C174.373 65.3396 174.479 64.7483 174.479 64.0989ZM181.446 60.0383V73.2659H179.539V57.9055H181.282L181.446 60.0383ZM188.921 63.3606V63.5759C188.921 64.3826 188.826 65.1311 188.634 65.8215C188.443 66.5051 188.163 67.0999 187.793 67.6057C187.431 68.1116 186.983 68.5046 186.45 68.7849C185.917 69.0652 185.305 69.2053 184.615 69.2053C183.911 69.2053 183.289 69.0891 182.749 68.8567C182.208 68.6243 181.75 68.2859 181.374 67.8416C180.999 67.3972 180.698 66.864 180.472 66.2419C180.253 65.6199 180.103 64.9192 180.021 64.1399V62.9915C180.103 62.1711 180.257 61.4363 180.482 60.7869C180.708 60.1375 181.005 59.5837 181.374 59.1257C181.75 58.6609 182.205 58.3088 182.738 58.0696C183.271 57.8235 183.887 57.7004 184.584 57.7004C185.281 57.7004 185.9 57.8372 186.44 58.1106C186.98 58.3772 187.435 58.76 187.804 59.259C188.173 59.7581 188.45 60.3562 188.634 61.0535C188.826 61.7439 188.921 62.5129 188.921 63.3606ZM187.014 63.5759V63.3606C187.014 62.8069 186.956 62.2874 186.84 61.802C186.724 61.3098 186.542 60.8792 186.296 60.51C186.057 60.134 185.749 59.8401 185.374 59.6282C184.998 59.4094 184.55 59.3 184.03 59.3C183.552 59.3 183.135 59.3821 182.779 59.5461C182.431 59.7102 182.133 59.9324 181.887 60.2126C181.641 60.4861 181.439 60.8005 181.282 61.156C181.132 61.5046 181.019 61.8669 180.944 62.2429V64.8987C181.081 65.3772 181.272 65.8284 181.518 66.2522C181.764 66.6692 182.092 67.0076 182.502 67.2673C182.913 67.5203 183.429 67.6467 184.051 67.6467C184.563 67.6467 185.004 67.5408 185.374 67.3289C185.749 67.1101 186.057 66.8127 186.296 66.4368C186.542 66.0608 186.724 65.6301 186.84 65.1448C186.956 64.6526 187.014 64.1296 187.014 63.5759ZM7.60522 80.9055V92.0002H5.69799V80.9055H7.60522ZM5.55444 77.9626C5.55444 77.655 5.64672 77.3953 5.83129 77.1833C6.0227 76.9714 6.30297 76.8655 6.67211 76.8655C7.03442 76.8655 7.31127 76.9714 7.50268 77.1833C7.70092 77.3953 7.80004 77.655 7.80004 77.9626C7.80004 78.2566 7.70092 78.5095 7.50268 78.7214C7.31127 78.9265 7.03442 79.0291 6.67211 79.0291C6.30297 79.0291 6.0227 78.9265 5.83129 78.7214C5.64672 78.5095 5.55444 78.2566 5.55444 77.9626ZM13.1776 83.2742V92.0002H11.2806V80.9055H13.0751L13.1776 83.2742ZM12.7264 86.0325L11.9369 86.0017C11.9437 85.2429 12.0565 84.5422 12.2753 83.8997C12.494 83.2502 12.8016 82.6863 13.1981 82.2078C13.5946 81.7292 14.0663 81.3601 14.6131 81.1003C15.1669 80.8337 15.7787 80.7004 16.4486 80.7004C16.9955 80.7004 17.4877 80.7756 17.9252 80.926C18.3627 81.0696 18.7352 81.302 19.0428 81.6233C19.3573 81.9446 19.5965 82.3616 19.7606 82.8743C19.9247 83.3801 20.0067 83.9988 20.0067 84.7302V92.0002H18.0995V84.7097C18.0995 84.1287 18.014 83.6638 17.8431 83.3152C17.6722 82.9597 17.4227 82.7034 17.0946 82.5461C16.7665 82.3821 16.3631 82.3 15.8846 82.3C15.413 82.3 14.9823 82.3992 14.5926 82.5974C14.2098 82.7957 13.8783 83.0691 13.598 83.4177C13.3246 83.7664 13.1092 84.1663 12.952 84.6174C12.8016 85.0618 12.7264 85.5334 12.7264 86.0325ZM28.1631 80.9055V82.3616H22.1645V80.9055H28.1631ZM24.1948 78.2087H26.0918V89.2522C26.0918 89.6282 26.1499 89.9119 26.2661 90.1033C26.3823 90.2947 26.5327 90.4211 26.7173 90.4827C26.9018 90.5442 27.1001 90.575 27.312 90.575C27.4692 90.575 27.6333 90.5613 27.8042 90.5339C27.9819 90.4998 28.1152 90.4724 28.2041 90.4519L28.2143 92.0002C28.0639 92.0481 27.8657 92.0925 27.6196 92.1335C27.3804 92.1814 27.0898 92.2053 26.748 92.2053C26.2832 92.2053 25.8559 92.113 25.4663 91.9285C25.0766 91.7439 24.7656 91.4363 24.5332 91.0056C24.3076 90.5681 24.1948 89.9802 24.1948 89.2419V78.2087ZM35.6222 92.2053C34.8497 92.2053 34.149 92.0754 33.5201 91.8157C32.898 91.5491 32.3614 91.1765 31.9103 90.698C31.4659 90.2195 31.1241 89.6521 30.8849 88.9958C30.6456 88.3396 30.526 87.6218 30.526 86.8425V86.4119C30.526 85.5095 30.6593 84.7063 30.9259 84.0022C31.1925 83.2913 31.5548 82.6897 32.0128 82.1975C32.4708 81.7053 32.9903 81.3328 33.5714 81.0798C34.1524 80.8269 34.754 80.7004 35.3761 80.7004C36.169 80.7004 36.8526 80.8372 37.4269 81.1106C38.0079 81.384 38.483 81.7668 38.8521 82.259C39.2213 82.7444 39.4947 83.3186 39.6725 83.9817C39.8502 84.6379 39.9391 85.3557 39.9391 86.135V86.9861H31.6539V85.4377H38.0421V85.2942C38.0147 84.802 37.9122 84.3235 37.7345 83.8586C37.5636 83.3938 37.2901 83.011 36.9142 82.7102C36.5382 82.4094 36.0255 82.259 35.3761 82.259C34.9454 82.259 34.5489 82.3513 34.1866 82.5359C33.8243 82.7136 33.5133 82.9802 33.2535 83.3357C32.9938 83.6912 32.7921 84.1252 32.6485 84.6379C32.505 85.1506 32.4332 85.7419 32.4332 86.4119V86.8425C32.4332 87.3689 32.505 87.8645 32.6485 88.3293C32.7989 88.7874 33.0143 89.1907 33.2945 89.5393C33.5816 89.8879 33.9269 90.1614 34.3302 90.3596C34.7403 90.5579 35.2052 90.657 35.7247 90.657C36.3946 90.657 36.962 90.5203 37.4269 90.2468C37.8917 89.9734 38.2984 89.6077 38.6471 89.1497L39.7955 90.0623C39.5563 90.4246 39.2521 90.7698 38.8829 91.0979C38.5138 91.426 38.0592 91.6926 37.5191 91.8977C36.9859 92.1028 36.3536 92.2053 35.6222 92.2053ZM44.8449 76.2502V92.0002H42.9377V76.2502H44.8449ZM50.5814 76.2502V92.0002H48.6742V76.2502H50.5814ZM56.3178 80.9055V92.0002H54.4106V80.9055H56.3178ZM54.2671 77.9626C54.2671 77.655 54.3593 77.3953 54.5439 77.1833C54.7353 76.9714 55.0156 76.8655 55.3847 76.8655C55.747 76.8655 56.0239 76.9714 56.2153 77.1833C56.4135 77.3953 56.5127 77.655 56.5127 77.9626C56.5127 78.2566 56.4135 78.5095 56.2153 78.7214C56.0239 78.9265 55.747 79.0291 55.3847 79.0291C55.0156 79.0291 54.7353 78.9265 54.5439 78.7214C54.3593 78.5095 54.2671 78.2566 54.2671 77.9626ZM67.1812 80.9055H68.9039V91.7644C68.9039 92.7419 68.7056 93.5759 68.3092 94.2664C67.9127 94.9568 67.359 95.4797 66.648 95.8352C65.9439 96.1975 65.1305 96.3787 64.2076 96.3787C63.8248 96.3787 63.3736 96.3171 62.8541 96.1941C62.3414 96.0779 61.8355 95.8762 61.3365 95.5891C60.8443 95.3088 60.4307 94.9294 60.0958 94.4509L61.0904 93.323C61.5553 93.8835 62.0406 94.2732 62.5465 94.4919C63.0592 94.7107 63.565 94.8201 64.064 94.8201C64.6656 94.8201 65.1851 94.7073 65.6226 94.4817C66.0601 94.2561 66.3985 93.9211 66.6378 93.4768C66.8839 93.0393 67.0069 92.4993 67.0069 91.8567V83.3459L67.1812 80.9055ZM59.5421 86.5759V86.3606C59.5421 85.5129 59.6412 84.7439 59.8394 84.0535C60.0445 83.3562 60.335 82.7581 60.711 82.259C61.0938 81.76 61.5553 81.3772 62.0953 81.1106C62.6353 80.8372 63.2437 80.7004 63.9205 80.7004C64.6178 80.7004 65.2262 80.8235 65.7457 81.0696C66.2721 81.3088 66.7164 81.6609 67.0787 82.1257C67.4478 82.5837 67.7384 83.1375 67.9503 83.7869C68.1622 84.4363 68.3092 85.1711 68.3912 85.9915V86.9348C68.316 87.7483 68.169 88.4797 67.9503 89.1292C67.7384 89.7786 67.4478 90.3323 67.0787 90.7903C66.7164 91.2483 66.2721 91.6003 65.7457 91.8464C65.2193 92.0857 64.6041 92.2053 63.9 92.2053C63.2369 92.2053 62.6353 92.0652 62.0953 91.7849C61.5621 91.5046 61.1041 91.1116 60.7213 90.6057C60.3385 90.0999 60.0445 89.5051 59.8394 88.8215C59.6412 88.1311 59.5421 87.3826 59.5421 86.5759ZM61.439 86.3606V86.5759C61.439 87.1296 61.4937 87.6492 61.6031 88.1345C61.7193 88.6199 61.8936 89.0471 62.1261 89.4163C62.3653 89.7854 62.6695 90.0759 63.0387 90.2878C63.4078 90.4929 63.8487 90.5955 64.3614 90.5955C64.9903 90.5955 65.5098 90.4622 65.92 90.1956C66.3302 89.929 66.6549 89.5769 66.8941 89.1394C67.1402 88.7019 67.3316 88.2268 67.4683 87.7141V85.2429C67.3931 84.8669 67.2769 84.5046 67.1197 84.156C66.9693 83.8005 66.7711 83.4861 66.525 83.2126C66.2857 82.9324 65.9884 82.7102 65.6329 82.5461C65.2774 82.3821 64.8604 82.3 64.3819 82.3C63.8624 82.3 63.4146 82.4094 63.0387 82.6282C62.6695 82.8401 62.3653 83.134 62.1261 83.51C61.8936 83.8792 61.7193 84.3098 61.6031 84.802C61.4937 85.2874 61.439 85.8069 61.439 86.3606ZM77.0192 92.2053C76.2468 92.2053 75.5461 92.0754 74.9172 91.8157C74.2951 91.5491 73.7585 91.1765 73.3073 90.698C72.863 90.2195 72.5212 89.6521 72.2819 88.9958C72.0427 88.3396 71.923 87.6218 71.923 86.8425V86.4119C71.923 85.5095 72.0564 84.7063 72.323 84.0022C72.5896 83.2913 72.9519 82.6897 73.4099 82.1975C73.8679 81.7053 74.3874 81.3328 74.9685 81.0798C75.5495 80.8269 76.1511 80.7004 76.7731 80.7004C77.5661 80.7004 78.2497 80.8372 78.8239 81.1106C79.405 81.384 79.8801 81.7668 80.2492 82.259C80.6184 82.7444 80.8918 83.3186 81.0695 83.9817C81.2473 84.6379 81.3361 85.3557 81.3361 86.135V86.9861H73.051V85.4377H79.4392V85.2942C79.4118 84.802 79.3093 84.3235 79.1315 83.8586C78.9606 83.3938 78.6872 83.011 78.3112 82.7102C77.9353 82.4094 77.4226 82.259 76.7731 82.259C76.3425 82.259 75.946 82.3513 75.5837 82.5359C75.2214 82.7136 74.9104 82.9802 74.6506 83.3357C74.3908 83.6912 74.1892 84.1252 74.0456 84.6379C73.9021 85.1506 73.8303 85.7419 73.8303 86.4119V86.8425C73.8303 87.3689 73.9021 87.8645 74.0456 88.3293C74.196 88.7874 74.4113 89.1907 74.6916 89.5393C74.9787 89.8879 75.3239 90.1614 75.7272 90.3596C76.1374 90.5579 76.6022 90.657 77.1218 90.657C77.7917 90.657 78.3591 90.5203 78.8239 90.2468C79.2888 89.9734 79.6955 89.6077 80.0441 89.1497L81.1926 90.0623C80.9533 90.4246 80.6491 90.7698 80.28 91.0979C79.9108 91.426 79.4563 91.6926 78.9162 91.8977C78.383 92.1028 77.7507 92.2053 77.0192 92.2053ZM86.0779 83.2742V92.0002H84.181V80.9055H85.9754L86.0779 83.2742ZM85.6268 86.0325L84.8372 86.0017C84.8441 85.2429 84.9569 84.5422 85.1756 83.8997C85.3944 83.2502 85.702 82.6863 86.0985 82.2078C86.4949 81.7292 86.9666 81.3601 87.5135 81.1003C88.0672 80.8337 88.679 80.7004 89.3489 80.7004C89.8958 80.7004 90.388 80.7756 90.8255 80.926C91.263 81.0696 91.6356 81.302 91.9432 81.6233C92.2576 81.9446 92.4969 82.3616 92.661 82.8743C92.825 83.3801 92.9071 83.9988 92.9071 84.7302V92.0002H90.9998V84.7097C90.9998 84.1287 90.9144 83.6638 90.7435 83.3152C90.5726 82.9597 90.3231 82.7034 89.9949 82.5461C89.6668 82.3821 89.2635 82.3 88.785 82.3C88.3133 82.3 87.8826 82.3992 87.493 82.5974C87.1102 82.7957 86.7786 83.0691 86.4984 83.4177C86.2249 83.7664 86.0096 84.1663 85.8524 84.6174C85.702 85.0618 85.6268 85.5334 85.6268 86.0325ZM100.858 90.6467C101.31 90.6467 101.727 90.5544 102.109 90.3699C102.492 90.1853 102.807 89.9324 103.053 89.6111C103.299 89.283 103.439 88.9104 103.473 88.4934H105.278C105.244 89.1497 105.021 89.7615 104.611 90.3289C104.208 90.8894 103.678 91.344 103.022 91.6926C102.366 92.0344 101.644 92.2053 100.858 92.2053C100.024 92.2053 99.2963 92.0583 98.6743 91.7644C98.059 91.4705 97.5463 91.0671 97.1362 90.5544C96.7329 90.0417 96.4287 89.4539 96.2236 88.7908C96.0253 88.1208 95.9262 87.4133 95.9262 86.6682V86.2375C95.9262 85.4924 96.0253 84.7883 96.2236 84.1252C96.4287 83.4553 96.7329 82.864 97.1362 82.3513C97.5463 81.8386 98.059 81.4353 98.6743 81.1414C99.2963 80.8474 100.024 80.7004 100.858 80.7004C101.727 80.7004 102.485 80.8782 103.135 81.2336C103.784 81.5823 104.293 82.0608 104.663 82.6692C105.039 83.2708 105.244 83.9543 105.278 84.72H103.473C103.439 84.262 103.309 83.8484 103.083 83.4792C102.865 83.1101 102.564 82.8162 102.181 82.5974C101.805 82.3718 101.364 82.259 100.858 82.259C100.277 82.259 99.7885 82.3752 99.392 82.6077C99.0024 82.8333 98.6914 83.1409 98.4589 83.5305C98.2333 83.9133 98.0693 84.3406 97.9667 84.8123C97.871 85.2771 97.8232 85.7522 97.8232 86.2375V86.6682C97.8232 87.1536 97.871 87.6321 97.9667 88.1038C98.0624 88.5754 98.2231 89.0027 98.4487 89.3855C98.6811 89.7683 98.9921 90.0759 99.3818 90.3083C99.7783 90.5339 100.27 90.6467 100.858 90.6467ZM112.645 92.2053C111.872 92.2053 111.171 92.0754 110.543 91.8157C109.92 91.5491 109.384 91.1765 108.933 90.698C108.488 90.2195 108.147 89.6521 107.907 88.9958C107.668 88.3396 107.548 87.6218 107.548 86.8425V86.4119C107.548 85.5095 107.682 84.7063 107.948 84.0022C108.215 83.2913 108.577 82.6897 109.035 82.1975C109.493 81.7053 110.013 81.3328 110.594 81.0798C111.175 80.8269 111.776 80.7004 112.398 80.7004C113.191 80.7004 113.875 80.8372 114.449 81.1106C115.03 81.384 115.505 81.7668 115.875 82.259C116.244 82.7444 116.517 83.3186 116.695 83.9817C116.873 84.6379 116.961 85.3557 116.961 86.135V86.9861H108.676V85.4377H115.065V85.2942C115.037 84.802 114.935 84.3235 114.757 83.8586C114.586 83.3938 114.313 83.011 113.937 82.7102C113.561 82.4094 113.048 82.259 112.398 82.259C111.968 82.259 111.571 82.3513 111.209 82.5359C110.847 82.7136 110.536 82.9802 110.276 83.3357C110.016 83.6912 109.815 84.1252 109.671 84.6379C109.527 85.1506 109.456 85.7419 109.456 86.4119V86.8425C109.456 87.3689 109.527 87.8645 109.671 88.3293C109.821 88.7874 110.037 89.1907 110.317 89.5393C110.604 89.8879 110.949 90.1614 111.353 90.3596C111.763 90.5579 112.228 90.657 112.747 90.657C113.417 90.657 113.984 90.5203 114.449 90.2468C114.914 89.9734 115.321 89.6077 115.669 89.1497L116.818 90.0623C116.579 90.4246 116.274 90.7698 115.905 91.0979C115.536 91.426 115.082 91.6926 114.542 91.8977C114.008 92.1028 113.376 92.2053 112.645 92.2053ZM132.187 90.1033V84.3918C132.187 83.9543 132.098 83.575 131.921 83.2537C131.75 82.9255 131.49 82.6726 131.141 82.4949C130.793 82.3171 130.362 82.2283 129.849 82.2283C129.371 82.2283 128.95 82.3103 128.588 82.4744C128.233 82.6384 127.952 82.8538 127.747 83.1204C127.549 83.387 127.45 83.6741 127.45 83.9817H125.553C125.553 83.5852 125.656 83.1921 125.861 82.8025C126.066 82.4128 126.36 82.0608 126.742 81.7463C127.132 81.425 127.597 81.1721 128.137 80.9875C128.684 80.7961 129.292 80.7004 129.962 80.7004C130.769 80.7004 131.48 80.8372 132.095 81.1106C132.717 81.384 133.202 81.7976 133.551 82.3513C133.907 82.8982 134.084 83.5852 134.084 84.4124V89.5803C134.084 89.9495 134.115 90.3425 134.177 90.7595C134.245 91.1765 134.344 91.5354 134.474 91.8362V92.0002H132.495C132.399 91.7815 132.324 91.491 132.269 91.1287C132.215 90.7595 132.187 90.4177 132.187 90.1033ZM132.515 85.2737L132.536 86.6067H130.618C130.078 86.6067 129.596 86.6511 129.173 86.74C128.749 86.822 128.393 86.9485 128.106 87.1194C127.819 87.2903 127.6 87.5056 127.45 87.7654C127.3 88.0183 127.224 88.3157 127.224 88.6575C127.224 89.0061 127.303 89.324 127.46 89.6111C127.617 89.8982 127.853 90.1272 128.168 90.2981C128.489 90.4622 128.882 90.5442 129.347 90.5442C129.928 90.5442 130.441 90.4211 130.885 90.175C131.329 89.929 131.681 89.6282 131.941 89.2727C132.208 88.9172 132.351 88.572 132.372 88.2371L133.182 89.1497C133.134 89.4368 133.004 89.7546 132.792 90.1033C132.58 90.4519 132.297 90.7869 131.941 91.1082C131.593 91.4226 131.176 91.6858 130.69 91.8977C130.212 92.1028 129.672 92.2053 129.07 92.2053C128.318 92.2053 127.659 92.0583 127.091 91.7644C126.531 91.4705 126.093 91.0774 125.779 90.5852C125.471 90.0862 125.317 89.5291 125.317 88.9138C125.317 88.3191 125.433 87.7961 125.666 87.345C125.898 86.887 126.233 86.5076 126.671 86.2068C127.108 85.8992 127.635 85.6667 128.25 85.5095C128.865 85.3523 129.552 85.2737 130.311 85.2737H132.515ZM139.595 83.2742V92.0002H137.698V80.9055H139.493L139.595 83.2742ZM139.144 86.0325L138.354 86.0017C138.361 85.2429 138.474 84.5422 138.693 83.8997C138.912 83.2502 139.219 82.6863 139.616 82.2078C140.012 81.7292 140.484 81.3601 141.031 81.1003C141.584 80.8337 142.196 80.7004 142.866 80.7004C143.413 80.7004 143.905 80.7756 144.343 80.926C144.78 81.0696 145.153 81.302 145.46 81.6233C145.775 81.9446 146.014 82.3616 146.178 82.8743C146.342 83.3801 146.424 83.9988 146.424 84.7302V92.0002H144.517V84.7097C144.517 84.1287 144.432 83.6638 144.261 83.3152C144.09 82.9597 143.84 82.7034 143.512 82.5461C143.184 82.3821 142.781 82.3 142.302 82.3C141.831 82.3 141.4 82.3992 141.01 82.5974C140.627 82.7957 140.296 83.0691 140.016 83.4177C139.742 83.7664 139.527 84.1663 139.37 84.6174C139.219 85.0618 139.144 85.5334 139.144 86.0325ZM156.929 89.8469V76.2502H158.836V92.0002H157.093L156.929 89.8469ZM149.464 86.5759V86.3606C149.464 85.5129 149.566 84.7439 149.772 84.0535C149.983 83.3562 150.281 82.7581 150.664 82.259C151.053 81.76 151.515 81.3772 152.048 81.1106C152.588 80.8372 153.189 80.7004 153.853 80.7004C154.55 80.7004 155.158 80.8235 155.678 81.0696C156.204 81.3088 156.648 81.6609 157.011 82.1257C157.38 82.5837 157.67 83.1375 157.882 83.7869C158.094 84.4363 158.241 85.1711 158.323 85.9915V86.9348C158.248 87.7483 158.101 88.4797 157.882 89.1292C157.67 89.7786 157.38 90.3323 157.011 90.7903C156.648 91.2483 156.204 91.6003 155.678 91.8464C155.151 92.0857 154.536 92.2053 153.832 92.2053C153.183 92.2053 152.588 92.0652 152.048 91.7849C151.515 91.5046 151.053 91.1116 150.664 90.6057C150.281 90.0999 149.983 89.5051 149.772 88.8215C149.566 88.1311 149.464 87.3826 149.464 86.5759ZM151.371 86.3606V86.5759C151.371 87.1296 151.426 87.6492 151.535 88.1345C151.651 88.6199 151.829 89.0471 152.068 89.4163C152.308 89.7854 152.612 90.0759 152.981 90.2878C153.35 90.4929 153.791 90.5955 154.304 90.5955C154.933 90.5955 155.449 90.4622 155.852 90.1956C156.262 89.929 156.59 89.5769 156.836 89.1394C157.083 88.7019 157.274 88.2268 157.411 87.7141V85.2429C157.329 84.8669 157.209 84.5046 157.052 84.156C156.901 83.8005 156.703 83.4861 156.457 83.2126C156.218 82.9324 155.92 82.7102 155.565 82.5461C155.216 82.3821 154.803 82.3 154.324 82.3C153.805 82.3 153.357 82.4094 152.981 82.6282C152.612 82.8401 152.308 83.134 152.068 83.51C151.829 83.8792 151.651 84.3098 151.535 84.802C151.426 85.2874 151.371 85.8069 151.371 86.3606ZM175.251 89.8469V76.2502H177.158V92.0002H175.415L175.251 89.8469ZM167.786 86.5759V86.3606C167.786 85.5129 167.889 84.7439 168.094 84.0535C168.306 83.3562 168.603 82.7581 168.986 82.259C169.376 81.76 169.837 81.3772 170.37 81.1106C170.91 80.8372 171.512 80.7004 172.175 80.7004C172.872 80.7004 173.481 80.8235 174 81.0696C174.527 81.3088 174.971 81.6609 175.333 82.1257C175.702 82.5837 175.993 83.1375 176.205 83.7869C176.417 84.4363 176.564 85.1711 176.646 85.9915V86.9348C176.571 87.7483 176.424 88.4797 176.205 89.1292C175.993 89.7786 175.702 90.3323 175.333 90.7903C174.971 91.2483 174.527 91.6003 174 91.8464C173.474 92.0857 172.859 92.2053 172.155 92.2053C171.505 92.2053 170.91 92.0652 170.37 91.7849C169.837 91.5046 169.376 91.1116 168.986 90.6057C168.603 90.0999 168.306 89.5051 168.094 88.8215C167.889 88.1311 167.786 87.3826 167.786 86.5759ZM169.694 86.3606V86.5759C169.694 87.1296 169.748 87.6492 169.858 88.1345C169.974 88.6199 170.152 89.0471 170.391 89.4163C170.63 89.7854 170.934 90.0759 171.303 90.2878C171.673 90.4929 172.114 90.5955 172.626 90.5955C173.255 90.5955 173.771 90.4622 174.175 90.1956C174.585 89.929 174.913 89.5769 175.159 89.1394C175.405 88.7019 175.596 88.2268 175.733 87.7141V85.2429C175.651 84.8669 175.532 84.5046 175.374 84.156C175.224 83.8005 175.026 83.4861 174.78 83.2126C174.54 82.9324 174.243 82.7102 173.887 82.5461C173.539 82.3821 173.125 82.3 172.647 82.3C172.127 82.3 171.679 82.4094 171.303 82.6282C170.934 82.8401 170.63 83.134 170.391 83.51C170.152 83.8792 169.974 84.3098 169.858 84.802C169.748 85.2874 169.694 85.8069 169.694 86.3606ZM187.284 90.1033V84.3918C187.284 83.9543 187.195 83.575 187.017 83.2537C186.846 82.9255 186.586 82.6726 186.238 82.4949C185.889 82.3171 185.458 82.2283 184.946 82.2283C184.467 82.2283 184.047 82.3103 183.684 82.4744C183.329 82.6384 183.049 82.8538 182.844 83.1204C182.645 83.387 182.546 83.6741 182.546 83.9817H180.649C180.649 83.5852 180.752 83.1921 180.957 82.8025C181.162 82.4128 181.456 82.0608 181.839 81.7463C182.228 81.425 182.693 81.1721 183.233 80.9875C183.78 80.7961 184.389 80.7004 185.059 80.7004C185.865 80.7004 186.576 80.8372 187.191 81.1106C187.813 81.384 188.299 81.7976 188.647 82.3513C189.003 82.8982 189.181 83.5852 189.181 84.4124V89.5803C189.181 89.9495 189.211 90.3425 189.273 90.7595C189.341 91.1765 189.44 91.5354 189.57 91.8362V92.0002H187.591C187.496 91.7815 187.42 91.491 187.366 91.1287C187.311 90.7595 187.284 90.4177 187.284 90.1033ZM187.612 85.2737L187.632 86.6067H185.715C185.175 86.6067 184.693 86.6511 184.269 86.74C183.845 86.822 183.49 86.9485 183.203 87.1194C182.915 87.2903 182.697 87.5056 182.546 87.7654C182.396 88.0183 182.321 88.3157 182.321 88.6575C182.321 89.0061 182.399 89.324 182.557 89.6111C182.714 89.8982 182.95 90.1272 183.264 90.2981C183.585 90.4622 183.978 90.5442 184.443 90.5442C185.024 90.5442 185.537 90.4211 185.981 90.175C186.426 89.929 186.778 89.6282 187.038 89.2727C187.304 88.9172 187.448 88.572 187.468 88.2371L188.278 89.1497C188.23 89.4368 188.1 89.7546 187.889 90.1033C187.677 90.4519 187.393 90.7869 187.038 91.1082C186.689 91.4226 186.272 91.6858 185.787 91.8977C185.308 92.1028 184.768 92.2053 184.166 92.2053C183.414 92.2053 182.755 92.0583 182.187 91.7644C181.627 91.4705 181.189 91.0774 180.875 90.5852C180.567 90.0862 180.413 89.5291 180.413 88.9138C180.413 88.3191 180.53 87.7961 180.762 87.345C180.995 86.887 181.329 86.5076 181.767 86.2068C182.204 85.8992 182.731 85.6667 183.346 85.5095C183.961 85.3523 184.648 85.2737 185.407 85.2737H187.612ZM197.439 80.9055V82.3616H191.441V80.9055H197.439ZM193.471 78.2087H195.368V89.2522C195.368 89.6282 195.426 89.9119 195.543 90.1033C195.659 90.2947 195.809 90.4211 195.994 90.4827C196.178 90.5442 196.376 90.575 196.588 90.575C196.746 90.575 196.91 90.5613 197.081 90.5339C197.258 90.4998 197.392 90.4724 197.48 90.4519L197.491 92.0002C197.34 92.0481 197.142 92.0925 196.896 92.1335C196.657 92.1814 196.366 92.2053 196.024 92.2053C195.56 92.2053 195.132 92.113 194.743 91.9285C194.353 91.7439 194.042 91.4363 193.81 91.0056C193.584 90.5681 193.471 89.9802 193.471 89.2419V78.2087ZM206.837 90.1033V84.3918C206.837 83.9543 206.748 83.575 206.57 83.2537C206.399 82.9255 206.139 82.6726 205.791 82.4949C205.442 82.3171 205.011 82.2283 204.499 82.2283C204.02 82.2283 203.6 82.3103 203.237 82.4744C202.882 82.6384 202.602 82.8538 202.397 83.1204C202.198 83.387 202.099 83.6741 202.099 83.9817H200.202C200.202 83.5852 200.305 83.1921 200.51 82.8025C200.715 82.4128 201.009 82.0608 201.392 81.7463C201.781 81.425 202.246 81.1721 202.786 80.9875C203.333 80.7961 203.942 80.7004 204.611 80.7004C205.418 80.7004 206.129 80.8372 206.744 81.1106C207.366 81.384 207.852 81.7976 208.2 82.3513C208.556 82.8982 208.734 83.5852 208.734 84.4124V89.5803C208.734 89.9495 208.764 90.3425 208.826 90.7595C208.894 91.1765 208.993 91.5354 209.123 91.8362V92.0002H207.144C207.048 91.7815 206.973 91.491 206.919 91.1287C206.864 90.7595 206.837 90.4177 206.837 90.1033ZM207.165 85.2737L207.185 86.6067H205.268C204.728 86.6067 204.246 86.6511 203.822 86.74C203.398 86.822 203.043 86.9485 202.756 87.1194C202.468 87.2903 202.25 87.5056 202.099 87.7654C201.949 88.0183 201.874 88.3157 201.874 88.6575C201.874 89.0061 201.952 89.324 202.11 89.6111C202.267 89.8982 202.503 90.1272 202.817 90.2981C203.138 90.4622 203.531 90.5442 203.996 90.5442C204.577 90.5442 205.09 90.4211 205.534 90.175C205.979 89.929 206.331 89.6282 206.59 89.2727C206.857 88.9172 207.001 88.572 207.021 88.2371L207.831 89.1497C207.783 89.4368 207.653 89.7546 207.442 90.1033C207.23 90.4519 206.946 90.7869 206.59 91.1082C206.242 91.4226 205.825 91.6858 205.34 91.8977C204.861 92.1028 204.321 92.2053 203.719 92.2053C202.967 92.2053 202.308 92.0583 201.74 91.7644C201.18 91.4705 200.742 91.0774 200.428 90.5852C200.12 90.0862 199.966 89.5291 199.966 88.9138C199.966 88.3191 200.083 87.7961 200.315 87.345C200.548 86.887 200.882 86.5076 201.32 86.2068C201.757 85.8992 202.284 85.6667 202.899 85.5095C203.514 85.3523 204.201 85.2737 204.96 85.2737H207.165ZM29.1093 103.906V105.362H23.1108V103.906H29.1093ZM25.141 101.209H27.038V112.252C27.038 112.628 27.0961 112.912 27.2123 113.103C27.3285 113.295 27.4789 113.421 27.6635 113.483C27.8481 113.544 28.0463 113.575 28.2582 113.575C28.4155 113.575 28.5795 113.561 28.7504 113.534C28.9281 113.5 29.0614 113.472 29.1503 113.452L29.1606 115C29.0102 115.048 28.8119 115.093 28.5658 115.134C28.3266 115.181 28.0361 115.205 27.6943 115.205C27.2294 115.205 26.8022 115.113 26.4125 114.928C26.0229 114.744 25.7118 114.436 25.4794 114.006C25.2538 113.568 25.141 112.98 25.141 112.242V101.209ZM31.2569 109.576V109.34C31.2569 108.54 31.3731 107.799 31.6055 107.115C31.8379 106.425 32.1729 105.826 32.6104 105.321C33.0479 104.808 33.5777 104.411 34.1997 104.131C34.8218 103.844 35.5191 103.7 36.2915 103.7C37.0708 103.7 37.7715 103.844 38.3936 104.131C39.0225 104.411 39.5557 104.808 39.9932 105.321C40.4375 105.826 40.7759 106.425 41.0083 107.115C41.2408 107.799 41.357 108.54 41.357 109.34V109.576C41.357 110.376 41.2408 111.117 41.0083 111.801C40.7759 112.485 40.4375 113.083 39.9932 113.595C39.5557 114.101 39.0259 114.498 38.4039 114.785C37.7886 115.065 37.0914 115.205 36.3121 115.205C35.5328 115.205 34.8321 115.065 34.21 114.785C33.5879 114.498 33.0547 114.101 32.6104 113.595C32.1729 113.083 31.8379 112.485 31.6055 111.801C31.3731 111.117 31.2569 110.376 31.2569 109.576ZM33.1539 109.34V109.576C33.1539 110.13 33.2188 110.653 33.3487 111.145C33.4786 111.63 33.6734 112.061 33.9331 112.437C34.1997 112.813 34.5313 113.11 34.9278 113.329C35.3243 113.541 35.7857 113.647 36.3121 113.647C36.8316 113.647 37.2862 113.541 37.6758 113.329C38.0723 113.11 38.4004 112.813 38.6602 112.437C38.92 112.061 39.1148 111.63 39.2447 111.145C39.3814 110.653 39.4497 110.13 39.4497 109.576V109.34C39.4497 108.793 39.3814 108.277 39.2447 107.792C39.1148 107.3 38.9165 106.865 38.6499 106.49C38.3902 106.107 38.0621 105.806 37.6656 105.587C37.2759 105.368 36.8179 105.259 36.2915 105.259C35.772 105.259 35.314 105.368 34.9175 105.587C34.5279 105.806 34.1997 106.107 33.9331 106.49C33.6734 106.865 33.4786 107.3 33.3487 107.792C33.2188 108.277 33.1539 108.793 33.1539 109.34ZM52.1018 99.2502V115H50.2049V99.2502H52.1018ZM51.6507 109.032L50.8611 109.002C50.868 108.243 50.9807 107.542 51.1995 106.9C51.4182 106.25 51.7259 105.686 52.1223 105.208C52.5188 104.729 52.9905 104.36 53.5374 104.1C54.0911 103.834 54.7029 103.7 55.3728 103.7C55.9197 103.7 56.4119 103.776 56.8494 103.926C57.2869 104.07 57.6595 104.302 57.9671 104.623C58.2815 104.945 58.5208 105.362 58.6848 105.874C58.8489 106.38 58.9309 106.999 58.9309 107.73V115H57.0237V107.71C57.0237 107.129 56.9383 106.664 56.7674 106.315C56.5965 105.96 56.347 105.703 56.0188 105.546C55.6907 105.382 55.2874 105.3 54.8089 105.3C54.3372 105.3 53.9065 105.399 53.5169 105.597C53.1341 105.796 52.8025 106.069 52.5222 106.418C52.2488 106.766 52.0335 107.166 51.8763 107.617C51.7259 108.062 51.6507 108.533 51.6507 109.032ZM67.0053 115.205C66.2328 115.205 65.5321 115.075 64.9032 114.816C64.2812 114.549 63.7445 114.177 63.2934 113.698C62.849 113.219 62.5072 112.652 62.268 111.996C62.0287 111.34 61.9091 110.622 61.9091 109.843V109.412C61.9091 108.51 62.0424 107.706 62.309 107.002C62.5756 106.291 62.9379 105.69 63.3959 105.198C63.8539 104.705 64.3734 104.333 64.9545 104.08C65.5355 103.827 66.1371 103.7 66.7592 103.7C67.5522 103.7 68.2357 103.837 68.81 104.111C69.391 104.384 69.8661 104.767 70.2353 105.259C70.6044 105.744 70.8778 106.319 71.0556 106.982C71.2333 107.638 71.3222 108.356 71.3222 109.135V109.986H63.037V108.438H69.4252V108.294C69.3979 107.802 69.2953 107.323 69.1176 106.859C68.9467 106.394 68.6732 106.011 68.2973 105.71C67.9213 105.409 67.4086 105.259 66.7592 105.259C66.3285 105.259 65.932 105.351 65.5697 105.536C65.2074 105.714 64.8964 105.98 64.6366 106.336C64.3769 106.691 64.1752 107.125 64.0316 107.638C63.8881 108.151 63.8163 108.742 63.8163 109.412V109.843C63.8163 110.369 63.8881 110.865 64.0316 111.329C64.182 111.787 64.3974 112.191 64.6776 112.539C64.9647 112.888 65.31 113.161 65.7133 113.36C66.1234 113.558 66.5883 113.657 67.1078 113.657C67.7777 113.657 68.3451 113.52 68.81 113.247C69.2748 112.973 69.6815 112.608 70.0302 112.15L71.1786 113.062C70.9394 113.425 70.6352 113.77 70.266 114.098C69.8969 114.426 69.4423 114.693 68.9022 114.898C68.369 115.103 67.7367 115.205 67.0053 115.205ZM76.2281 99.2502V115H74.3208V99.2502H76.2281ZM81.8004 106.038V119.266H79.8932V103.906H81.6364L81.8004 106.038ZM89.2755 109.361V109.576C89.2755 110.383 89.1798 111.131 88.9884 111.822C88.797 112.505 88.5167 113.1 88.1476 113.606C87.7853 114.112 87.3375 114.505 86.8043 114.785C86.2711 115.065 85.6593 115.205 84.9689 115.205C84.2648 115.205 83.6427 115.089 83.1027 114.857C82.5626 114.624 82.1046 114.286 81.7287 113.842C81.3527 113.397 81.0519 112.864 80.8263 112.242C80.6076 111.62 80.4572 110.919 80.3751 110.14V108.991C80.4572 108.171 80.611 107.436 80.8366 106.787C81.0621 106.137 81.3595 105.584 81.7287 105.126C82.1046 104.661 82.5592 104.309 83.0924 104.07C83.6256 103.823 84.2409 103.7 84.9381 103.7C85.6354 103.7 86.254 103.837 86.7941 104.111C87.3341 104.377 87.7887 104.76 88.1579 105.259C88.527 105.758 88.8038 106.356 88.9884 107.053C89.1798 107.744 89.2755 108.513 89.2755 109.361ZM87.3683 109.576V109.361C87.3683 108.807 87.3102 108.287 87.194 107.802C87.0778 107.31 86.8966 106.879 86.6505 106.51C86.4113 106.134 86.1037 105.84 85.7277 105.628C85.3517 105.409 84.9039 105.3 84.3844 105.3C83.9059 105.3 83.4889 105.382 83.1334 105.546C82.7848 105.71 82.4874 105.932 82.2413 106.213C81.9953 106.486 81.7936 106.801 81.6364 107.156C81.486 107.505 81.3732 107.867 81.298 108.243V110.899C81.4347 111.377 81.6261 111.828 81.8722 112.252C82.1183 112.669 82.4464 113.008 82.8566 113.267C83.2667 113.52 83.7829 113.647 84.4049 113.647C84.9176 113.647 85.3585 113.541 85.7277 113.329C86.1037 113.11 86.4113 112.813 86.6505 112.437C86.8966 112.061 87.0778 111.63 87.194 111.145C87.3102 110.653 87.3683 110.13 87.3683 109.576ZM102.604 113.647C103.056 113.647 103.473 113.554 103.855 113.37C104.238 113.185 104.553 112.932 104.799 112.611C105.045 112.283 105.185 111.91 105.219 111.493H107.024C106.99 112.15 106.767 112.761 106.357 113.329C105.954 113.889 105.424 114.344 104.768 114.693C104.112 115.034 103.391 115.205 102.604 115.205C101.77 115.205 101.042 115.058 100.42 114.764C99.8051 114.47 99.2924 114.067 98.8822 113.554C98.4789 113.042 98.1747 112.454 97.9696 111.791C97.7714 111.121 97.6722 110.413 97.6722 109.668V109.238C97.6722 108.492 97.7714 107.788 97.9696 107.125C98.1747 106.455 98.4789 105.864 98.8822 105.351C99.2924 104.839 99.8051 104.435 100.42 104.141C101.042 103.847 101.77 103.7 102.604 103.7C103.473 103.7 104.231 103.878 104.881 104.234C105.53 104.582 106.039 105.061 106.409 105.669C106.785 106.271 106.99 106.954 107.024 107.72H105.219C105.185 107.262 105.055 106.848 104.829 106.479C104.611 106.11 104.31 105.816 103.927 105.597C103.551 105.372 103.11 105.259 102.604 105.259C102.023 105.259 101.535 105.375 101.138 105.608C100.748 105.833 100.437 106.141 100.205 106.531C99.9794 106.913 99.8153 107.341 99.7128 107.812C99.6171 108.277 99.5692 108.752 99.5692 109.238V109.668C99.5692 110.154 99.6171 110.632 99.7128 111.104C99.8085 111.575 99.9691 112.003 100.195 112.385C100.427 112.768 100.738 113.076 101.128 113.308C101.524 113.534 102.016 113.647 102.604 113.647ZM111.684 105.649V115H109.787V103.906H111.632L111.684 105.649ZM115.149 103.844L115.139 105.608C114.982 105.573 114.832 105.553 114.688 105.546C114.551 105.532 114.394 105.526 114.216 105.526C113.779 105.526 113.393 105.594 113.058 105.731C112.723 105.867 112.439 106.059 112.207 106.305C111.974 106.551 111.79 106.845 111.653 107.187C111.523 107.522 111.438 107.891 111.396 108.294L110.863 108.602C110.863 107.932 110.928 107.303 111.058 106.715C111.195 106.127 111.403 105.608 111.684 105.156C111.964 104.698 112.319 104.343 112.75 104.09C113.188 103.83 113.707 103.7 114.309 103.7C114.445 103.7 114.603 103.718 114.78 103.752C114.958 103.779 115.081 103.81 115.149 103.844ZM123.665 113.103V107.392C123.665 106.954 123.576 106.575 123.398 106.254C123.227 105.926 122.967 105.673 122.619 105.495C122.27 105.317 121.839 105.228 121.327 105.228C120.848 105.228 120.428 105.31 120.066 105.474C119.71 105.638 119.43 105.854 119.225 106.12C119.026 106.387 118.927 106.674 118.927 106.982H117.03C117.03 106.585 117.133 106.192 117.338 105.802C117.543 105.413 117.837 105.061 118.22 104.746C118.609 104.425 119.074 104.172 119.614 103.988C120.161 103.796 120.77 103.7 121.44 103.7C122.246 103.7 122.957 103.837 123.572 104.111C124.194 104.384 124.68 104.798 125.028 105.351C125.384 105.898 125.562 106.585 125.562 107.412V112.58C125.562 112.949 125.592 113.343 125.654 113.76C125.722 114.177 125.821 114.535 125.951 114.836V115H123.972C123.877 114.781 123.801 114.491 123.747 114.129C123.692 113.76 123.665 113.418 123.665 113.103ZM123.993 108.274L124.013 109.607H122.096C121.556 109.607 121.074 109.651 120.65 109.74C120.226 109.822 119.871 109.948 119.584 110.119C119.297 110.29 119.078 110.506 118.927 110.765C118.777 111.018 118.702 111.316 118.702 111.657C118.702 112.006 118.78 112.324 118.938 112.611C119.095 112.898 119.331 113.127 119.645 113.298C119.966 113.462 120.359 113.544 120.824 113.544C121.405 113.544 121.918 113.421 122.362 113.175C122.807 112.929 123.159 112.628 123.419 112.273C123.685 111.917 123.829 111.572 123.849 111.237L124.659 112.15C124.611 112.437 124.482 112.755 124.27 113.103C124.058 113.452 123.774 113.787 123.419 114.108C123.07 114.423 122.653 114.686 122.168 114.898C121.689 115.103 121.149 115.205 120.547 115.205C119.796 115.205 119.136 115.058 118.568 114.764C118.008 114.47 117.57 114.077 117.256 113.585C116.948 113.086 116.795 112.529 116.795 111.914C116.795 111.319 116.911 110.796 117.143 110.345C117.376 109.887 117.711 109.508 118.148 109.207C118.586 108.899 119.112 108.667 119.727 108.51C120.342 108.352 121.029 108.274 121.788 108.274H123.993ZM132.006 115H130.109V102.737C130.109 101.937 130.252 101.263 130.539 100.717C130.833 100.163 131.254 99.7458 131.801 99.4656C132.347 99.1785 132.997 99.0349 133.749 99.0349C133.968 99.0349 134.186 99.0486 134.405 99.0759C134.631 99.1033 134.849 99.1443 135.061 99.199L134.959 100.747C134.815 100.713 134.651 100.689 134.467 100.676C134.289 100.662 134.111 100.655 133.933 100.655C133.53 100.655 133.181 100.737 132.887 100.901C132.6 101.058 132.382 101.291 132.231 101.598C132.081 101.906 132.006 102.285 132.006 102.737V115ZM134.364 103.906V105.362H128.355V103.906H134.364ZM141.751 103.906V105.362H135.753V103.906H141.751ZM137.783 101.209H139.68V112.252C139.68 112.628 139.738 112.912 139.854 113.103C139.971 113.295 140.121 113.421 140.306 113.483C140.49 113.544 140.688 113.575 140.9 113.575C141.057 113.575 141.222 113.561 141.392 113.534C141.57 113.5 141.703 113.472 141.792 113.452L141.803 115C141.652 115.048 141.454 115.093 141.208 115.134C140.969 115.181 140.678 115.205 140.336 115.205C139.871 115.205 139.444 115.113 139.055 114.928C138.665 114.744 138.354 114.436 138.121 114.006C137.896 113.568 137.783 112.98 137.783 112.242V101.209ZM153.563 113.852L156.649 103.906H158.679L154.229 116.713C154.127 116.986 153.99 117.28 153.819 117.594C153.655 117.916 153.443 118.22 153.183 118.507C152.923 118.794 152.609 119.027 152.24 119.204C151.878 119.389 151.443 119.481 150.938 119.481C150.787 119.481 150.596 119.461 150.363 119.42C150.131 119.379 149.967 119.344 149.871 119.317L149.861 117.779C149.916 117.786 150.001 117.793 150.117 117.8C150.24 117.813 150.326 117.82 150.374 117.82C150.804 117.82 151.17 117.762 151.471 117.646C151.772 117.536 152.025 117.348 152.23 117.082C152.441 116.822 152.623 116.463 152.773 116.005L153.563 113.852ZM151.296 103.906L154.178 112.519L154.67 114.518L153.306 115.216L149.225 103.906H151.296ZM160.355 109.576V109.34C160.355 108.54 160.471 107.799 160.704 107.115C160.936 106.425 161.271 105.826 161.709 105.321C162.146 104.808 162.676 104.411 163.298 104.131C163.92 103.844 164.617 103.7 165.39 103.7C166.169 103.7 166.87 103.844 167.492 104.131C168.121 104.411 168.654 104.808 169.092 105.321C169.536 105.826 169.874 106.425 170.107 107.115C170.339 107.799 170.455 108.54 170.455 109.34V109.576C170.455 110.376 170.339 111.117 170.107 111.801C169.874 112.485 169.536 113.083 169.092 113.595C168.654 114.101 168.124 114.498 167.502 114.785C166.887 115.065 166.19 115.205 165.41 115.205C164.631 115.205 163.93 115.065 163.308 114.785C162.686 114.498 162.153 114.101 161.709 113.595C161.271 113.083 160.936 112.485 160.704 111.801C160.471 111.117 160.355 110.376 160.355 109.576ZM162.252 109.34V109.576C162.252 110.13 162.317 110.653 162.447 111.145C162.577 111.63 162.772 112.061 163.031 112.437C163.298 112.813 163.63 113.11 164.026 113.329C164.423 113.541 164.884 113.647 165.41 113.647C165.93 113.647 166.384 113.541 166.774 113.329C167.171 113.11 167.499 112.813 167.759 112.437C168.018 112.061 168.213 111.63 168.343 111.145C168.48 110.653 168.548 110.13 168.548 109.576V109.34C168.548 108.793 168.48 108.277 168.343 107.792C168.213 107.3 168.015 106.865 167.748 106.49C167.488 106.107 167.16 105.806 166.764 105.587C166.374 105.368 165.916 105.259 165.39 105.259C164.87 105.259 164.412 105.368 164.016 105.587C163.626 105.806 163.298 106.107 163.031 106.49C162.772 106.865 162.577 107.3 162.447 107.792C162.317 108.277 162.252 108.793 162.252 109.34ZM180.252 112.437V103.906H182.16V115H180.345L180.252 112.437ZM180.611 110.099L181.401 110.078C181.401 110.817 181.322 111.5 181.165 112.129C181.014 112.751 180.768 113.291 180.427 113.749C180.085 114.207 179.637 114.566 179.083 114.826C178.53 115.079 177.856 115.205 177.063 115.205C176.523 115.205 176.028 115.127 175.577 114.969C175.132 114.812 174.749 114.57 174.428 114.241C174.107 113.913 173.857 113.486 173.68 112.96C173.509 112.433 173.423 111.801 173.423 111.063V103.906H175.32V111.083C175.32 111.582 175.375 111.996 175.484 112.324C175.6 112.645 175.754 112.902 175.946 113.093C176.144 113.278 176.363 113.407 176.602 113.483C176.848 113.558 177.101 113.595 177.361 113.595C178.167 113.595 178.806 113.442 179.278 113.134C179.75 112.82 180.088 112.399 180.293 111.873C180.505 111.34 180.611 110.748 180.611 110.099ZM187.578 105.649V115H185.681V103.906H187.527L187.578 105.649ZM191.044 103.844L191.034 105.608C190.876 105.573 190.726 105.553 190.582 105.546C190.446 105.532 190.289 105.526 190.111 105.526C189.673 105.526 189.287 105.594 188.952 105.731C188.617 105.867 188.333 106.059 188.101 106.305C187.869 106.551 187.684 106.845 187.547 107.187C187.417 107.522 187.332 107.891 187.291 108.294L186.758 108.602C186.758 107.932 186.823 107.303 186.953 106.715C187.089 106.127 187.298 105.608 187.578 105.156C187.858 104.698 188.214 104.343 188.645 104.09C189.082 103.83 189.602 103.7 190.203 103.7C190.34 103.7 190.497 103.718 190.675 103.752C190.853 103.779 190.976 103.81 191.044 103.844ZM75.4049 135.057C75.4049 134.784 75.3433 134.531 75.2203 134.299C75.1041 134.059 74.8614 133.844 74.4923 133.653C74.13 133.454 73.5831 133.283 72.8516 133.14C72.2364 133.01 71.6793 132.856 71.1803 132.678C70.6881 132.501 70.2677 132.285 69.919 132.032C69.5772 131.78 69.314 131.482 69.1295 131.14C68.9449 130.799 68.8526 130.399 68.8526 129.941C68.8526 129.503 68.9483 129.09 69.1397 128.7C69.338 128.31 69.6148 127.965 69.9703 127.664C70.3326 127.364 70.7667 127.128 71.2725 126.957C71.7784 126.786 72.3424 126.7 72.9644 126.7C73.8531 126.7 74.6119 126.858 75.2408 127.172C75.8697 127.487 76.3516 127.907 76.6866 128.433C77.0216 128.953 77.189 129.531 77.189 130.166H75.2921C75.2921 129.859 75.1998 129.561 75.0152 129.274C74.8375 128.98 74.5743 128.738 74.2257 128.546C73.8839 128.355 73.4635 128.259 72.9644 128.259C72.4381 128.259 72.0108 128.341 71.6827 128.505C71.3614 128.662 71.1256 128.864 70.9752 129.11C70.8316 129.356 70.7598 129.616 70.7598 129.889C70.7598 130.094 70.794 130.279 70.8624 130.443C70.9376 130.6 71.0675 130.747 71.252 130.884C71.4366 131.014 71.6964 131.137 72.0313 131.253C72.3663 131.369 72.7935 131.486 73.3131 131.602C74.2222 131.807 74.9708 132.053 75.5587 132.34C76.1466 132.627 76.5841 132.979 76.8712 133.396C77.1583 133.813 77.3018 134.319 77.3018 134.914C77.3018 135.399 77.1993 135.844 76.9942 136.247C76.796 136.65 76.5054 136.999 76.1226 137.293C75.7467 137.58 75.2955 137.805 74.7691 137.969C74.2496 138.127 73.6651 138.205 73.0157 138.205C72.0382 138.205 71.211 138.031 70.5343 137.682C69.8575 137.334 69.3448 136.883 68.9962 136.329C68.6475 135.775 68.4732 135.191 68.4732 134.575H70.3804C70.4078 135.095 70.5582 135.509 70.8316 135.816C71.1051 136.117 71.44 136.332 71.8365 136.462C72.233 136.585 72.6261 136.647 73.0157 136.647C73.5352 136.647 73.9693 136.578 74.3179 136.442C74.6734 136.305 74.9434 136.117 75.128 135.878C75.3126 135.638 75.4049 135.365 75.4049 135.057ZM85.0686 126.906V128.362H79.07V126.906H85.0686ZM81.1003 124.209H82.9973V135.252C82.9973 135.628 83.0554 135.912 83.1716 136.103C83.2878 136.295 83.4382 136.421 83.6227 136.483C83.8073 136.544 84.0056 136.575 84.2175 136.575C84.3747 136.575 84.5388 136.561 84.7097 136.534C84.8874 136.5 85.0207 136.472 85.1096 136.452L85.1198 138C84.9694 138.048 84.7712 138.093 84.5251 138.134C84.2858 138.181 83.9953 138.205 83.6535 138.205C83.1887 138.205 82.7614 138.113 82.3718 137.928C81.9821 137.744 81.6711 137.436 81.4387 137.006C81.2131 136.568 81.1003 135.98 81.1003 135.242V124.209ZM89.8206 128.649V138H87.9237V126.906H89.7694L89.8206 128.649ZM93.2864 126.844L93.2762 128.608C93.119 128.573 92.9686 128.553 92.825 128.546C92.6883 128.532 92.5311 128.526 92.3533 128.526C91.9158 128.526 91.5296 128.594 91.1946 128.731C90.8597 128.867 90.576 129.059 90.3436 129.305C90.1112 129.551 89.9266 129.845 89.7899 130.187C89.66 130.522 89.5745 130.891 89.5335 131.294L89.0003 131.602C89.0003 130.932 89.0653 130.303 89.1951 129.715C89.3319 129.127 89.5404 128.608 89.8206 128.156C90.1009 127.698 90.4564 127.343 90.887 127.09C91.3245 126.83 91.8441 126.7 92.4456 126.7C92.5823 126.7 92.7396 126.718 92.9173 126.752C93.095 126.779 93.2181 126.81 93.2864 126.844ZM101.802 136.103V130.392C101.802 129.954 101.713 129.575 101.535 129.254C101.364 128.926 101.104 128.673 100.756 128.495C100.407 128.317 99.9765 128.228 99.4638 128.228C98.9853 128.228 98.5649 128.31 98.2026 128.474C97.8471 128.638 97.5668 128.854 97.3618 129.12C97.1635 129.387 97.0644 129.674 97.0644 129.982H95.1674C95.1674 129.585 95.27 129.192 95.475 128.802C95.6801 128.413 95.9741 128.061 96.3569 127.746C96.7465 127.425 97.2114 127.172 97.7514 126.988C98.2983 126.796 98.9067 126.7 99.5766 126.7C100.383 126.7 101.094 126.837 101.709 127.111C102.331 127.384 102.817 127.798 103.165 128.351C103.521 128.898 103.699 129.585 103.699 130.412V135.58C103.699 135.949 103.729 136.343 103.791 136.76C103.859 137.177 103.958 137.535 104.088 137.836V138H102.109C102.014 137.781 101.938 137.491 101.884 137.129C101.829 136.76 101.802 136.418 101.802 136.103ZM102.13 131.274L102.15 132.607H100.233C99.6928 132.607 99.2109 132.651 98.787 132.74C98.3632 132.822 98.0078 132.948 97.7206 133.119C97.4335 133.29 97.2148 133.506 97.0644 133.765C96.914 134.018 96.8388 134.316 96.8388 134.657C96.8388 135.006 96.9174 135.324 97.0746 135.611C97.2319 135.898 97.4677 136.127 97.7822 136.298C98.1035 136.462 98.4965 136.544 98.9614 136.544C99.5424 136.544 100.055 136.421 100.499 136.175C100.944 135.929 101.296 135.628 101.556 135.273C101.822 134.917 101.966 134.572 101.986 134.237L102.796 135.15C102.748 135.437 102.619 135.755 102.407 136.103C102.195 136.452 101.911 136.787 101.556 137.108C101.207 137.423 100.79 137.686 100.305 137.898C99.8261 138.103 99.2861 138.205 98.6845 138.205C97.9326 138.205 97.2729 138.058 96.7055 137.764C96.145 137.47 95.7075 137.077 95.393 136.585C95.0854 136.086 94.9316 135.529 94.9316 134.914C94.9316 134.319 95.0478 133.796 95.2802 133.345C95.5126 132.887 95.8476 132.508 96.2851 132.207C96.7226 131.899 97.249 131.667 97.8642 131.51C98.4794 131.352 99.1664 131.274 99.9252 131.274H102.13ZM111.958 126.906V128.362H105.959V126.906H111.958ZM107.989 124.209H109.886V135.252C109.886 135.628 109.944 135.912 110.061 136.103C110.177 136.295 110.327 136.421 110.512 136.483C110.696 136.544 110.895 136.575 111.107 136.575C111.264 136.575 111.428 136.561 111.599 136.534C111.776 136.5 111.91 136.472 111.999 136.452L112.009 138C111.858 138.048 111.66 138.093 111.414 138.134C111.175 138.181 110.884 138.205 110.543 138.205C110.078 138.205 109.65 138.113 109.261 137.928C108.871 137.744 108.56 137.436 108.328 137.006C108.102 136.568 107.989 135.98 107.989 135.242V124.209ZM119.417 138.205C118.644 138.205 117.944 138.075 117.315 137.816C116.693 137.549 116.156 137.177 115.705 136.698C115.26 136.219 114.919 135.652 114.679 134.996C114.44 134.34 114.32 133.622 114.32 132.843V132.412C114.32 131.51 114.454 130.706 114.72 130.002C114.987 129.291 115.349 128.69 115.807 128.198C116.265 127.705 116.785 127.333 117.366 127.08C117.947 126.827 118.549 126.7 119.171 126.7C119.964 126.7 120.647 126.837 121.221 127.111C121.802 127.384 122.278 127.767 122.647 128.259C123.016 128.744 123.289 129.319 123.467 129.982C123.645 130.638 123.734 131.356 123.734 132.135V132.986H115.448V131.438H121.837V131.294C121.809 130.802 121.707 130.323 121.529 129.859C121.358 129.394 121.085 129.011 120.709 128.71C120.333 128.409 119.82 128.259 119.171 128.259C118.74 128.259 118.343 128.351 117.981 128.536C117.619 128.714 117.308 128.98 117.048 129.336C116.788 129.691 116.587 130.125 116.443 130.638C116.299 131.151 116.228 131.742 116.228 132.412V132.843C116.228 133.369 116.299 133.865 116.443 134.329C116.593 134.787 116.809 135.191 117.089 135.539C117.376 135.888 117.721 136.161 118.125 136.36C118.535 136.558 119 136.657 119.519 136.657C120.189 136.657 120.757 136.52 121.221 136.247C121.686 135.973 122.093 135.608 122.442 135.15L123.59 136.062C123.351 136.425 123.047 136.77 122.677 137.098C122.308 137.426 121.854 137.693 121.314 137.898C120.78 138.103 120.148 138.205 119.417 138.205ZM133.766 126.906H135.489V137.764C135.489 138.742 135.291 139.576 134.894 140.266C134.498 140.957 133.944 141.48 133.233 141.835C132.529 142.198 131.716 142.379 130.793 142.379C130.41 142.379 129.959 142.317 129.439 142.194C128.927 142.078 128.421 141.876 127.922 141.589C127.429 141.309 127.016 140.929 126.681 140.451L127.676 139.323C128.14 139.884 128.626 140.273 129.132 140.492C129.644 140.711 130.15 140.82 130.649 140.82C131.251 140.82 131.77 140.707 132.208 140.482C132.645 140.256 132.984 139.921 133.223 139.477C133.469 139.039 133.592 138.499 133.592 137.857V129.346L133.766 126.906ZM126.127 132.576V132.361C126.127 131.513 126.226 130.744 126.425 130.053C126.63 129.356 126.92 128.758 127.296 128.259C127.679 127.76 128.14 127.377 128.68 127.111C129.221 126.837 129.829 126.7 130.506 126.7C131.203 126.7 131.811 126.823 132.331 127.07C132.857 127.309 133.302 127.661 133.664 128.126C134.033 128.584 134.324 129.137 134.535 129.787C134.747 130.436 134.894 131.171 134.976 131.991V132.935C134.901 133.748 134.754 134.48 134.535 135.129C134.324 135.779 134.033 136.332 133.664 136.79C133.302 137.248 132.857 137.6 132.331 137.846C131.804 138.086 131.189 138.205 130.485 138.205C129.822 138.205 129.221 138.065 128.68 137.785C128.147 137.505 127.689 137.112 127.306 136.606C126.924 136.1 126.63 135.505 126.425 134.822C126.226 134.131 126.127 133.383 126.127 132.576ZM128.024 132.361V132.576C128.024 133.13 128.079 133.649 128.188 134.135C128.304 134.62 128.479 135.047 128.711 135.416C128.95 135.785 129.255 136.076 129.624 136.288C129.993 136.493 130.434 136.595 130.947 136.595C131.575 136.595 132.095 136.462 132.505 136.196C132.915 135.929 133.24 135.577 133.479 135.139C133.725 134.702 133.917 134.227 134.054 133.714V131.243C133.978 130.867 133.862 130.505 133.705 130.156C133.554 129.801 133.356 129.486 133.11 129.213C132.871 128.932 132.574 128.71 132.218 128.546C131.863 128.382 131.446 128.3 130.967 128.3C130.448 128.3 130 128.409 129.624 128.628C129.255 128.84 128.95 129.134 128.711 129.51C128.479 129.879 128.304 130.31 128.188 130.802C128.079 131.287 128.024 131.807 128.024 132.361ZM142.118 136.852L145.204 126.906H147.234L142.784 139.713C142.682 139.986 142.545 140.28 142.374 140.594C142.21 140.916 141.998 141.22 141.738 141.507C141.478 141.794 141.164 142.027 140.795 142.204C140.433 142.389 139.998 142.481 139.493 142.481C139.342 142.481 139.151 142.461 138.918 142.42C138.686 142.379 138.522 142.344 138.426 142.317L138.416 140.779C138.471 140.786 138.556 140.793 138.672 140.8C138.795 140.813 138.881 140.82 138.929 140.82C139.359 140.82 139.725 140.762 140.026 140.646C140.327 140.536 140.58 140.348 140.785 140.082C140.997 139.822 141.178 139.463 141.328 139.005L142.118 136.852ZM139.851 126.906L142.733 135.519L143.225 137.518L141.861 138.216L137.78 126.906H139.851Z" fill="#363636"/>
<path d="M72.5073 15.9375H78.8706C80.1753 15.9375 81.2964 16.1328 82.2339 16.5234C83.1792 16.9141 83.9058 17.4922 84.4136 18.2578C84.9214 19.0234 85.1753 19.9648 85.1753 21.082C85.1753 21.9961 85.0191 22.7812 84.7066 23.4375C84.4019 24.0859 83.9683 24.6289 83.4058 25.0664C82.8511 25.4961 82.1987 25.8398 81.4487 26.0977L80.3355 26.6836H74.8042L74.7808 23.9414H78.8941C79.5112 23.9414 80.023 23.832 80.4292 23.6133C80.8355 23.3945 81.1402 23.0898 81.3433 22.6992C81.5542 22.3086 81.6597 21.8555 81.6597 21.3398C81.6597 20.793 81.5581 20.3203 81.355 19.9219C81.1519 19.5234 80.8433 19.2188 80.4292 19.0078C80.0152 18.7969 79.4956 18.6914 78.8706 18.6914H76.023V33H72.5073V15.9375ZM82.0464 33L78.1558 25.3945L81.8706 25.3711L85.8081 32.8359V33H82.0464ZM94.2273 33.2344C93.243 33.2344 92.3602 33.0781 91.5789 32.7656C90.7977 32.4453 90.1336 32.0039 89.5867 31.4414C89.0477 30.8789 88.6336 30.2266 88.3445 29.4844C88.0555 28.7344 87.9109 27.9375 87.9109 27.0938V26.625C87.9109 25.6641 88.0477 24.7852 88.3211 23.9883C88.5945 23.1914 88.9852 22.5 89.493 21.9141C90.0086 21.3281 90.6336 20.8789 91.368 20.5664C92.1023 20.2461 92.9305 20.0859 93.8523 20.0859C94.7508 20.0859 95.5477 20.2344 96.243 20.5312C96.9383 20.8281 97.5203 21.25 97.9891 21.7969C98.4656 22.3438 98.825 23 99.0672 23.7656C99.3094 24.5234 99.4305 25.3672 99.4305 26.2969V27.7031H89.3523V25.4531H96.1141V25.1953C96.1141 24.7266 96.0281 24.3086 95.8562 23.9414C95.6922 23.5664 95.4422 23.2695 95.1062 23.0508C94.7703 22.832 94.3406 22.7227 93.8172 22.7227C93.3719 22.7227 92.9891 22.8203 92.6687 23.0156C92.3484 23.2109 92.0867 23.4844 91.8836 23.8359C91.6883 24.1875 91.5398 24.6016 91.4383 25.0781C91.3445 25.5469 91.2977 26.0625 91.2977 26.625V27.0938C91.2977 27.6016 91.368 28.0703 91.5086 28.5C91.657 28.9297 91.8641 29.3008 92.1297 29.6133C92.4031 29.9258 92.7312 30.168 93.1141 30.3398C93.5047 30.5117 93.9461 30.5977 94.4383 30.5977C95.0477 30.5977 95.6141 30.4805 96.1375 30.2461C96.6687 30.0039 97.1258 29.6406 97.5086 29.1562L99.1492 30.9375C98.8836 31.3203 98.5203 31.6875 98.0594 32.0391C97.6062 32.3906 97.0594 32.6797 96.4187 32.9062C95.7781 33.125 95.0477 33.2344 94.2273 33.2344ZM108.928 29.4961C108.928 29.2539 108.857 29.0352 108.717 28.8398C108.576 28.6445 108.315 28.4648 107.932 28.3008C107.557 28.1289 107.014 27.9727 106.303 27.832C105.662 27.6914 105.065 27.5156 104.51 27.3047C103.963 27.0859 103.486 26.8242 103.08 26.5195C102.682 26.2148 102.369 25.8555 102.143 25.4414C101.916 25.0195 101.803 24.5391 101.803 24C101.803 23.4688 101.916 22.9688 102.143 22.5C102.377 22.0312 102.709 21.6172 103.139 21.2578C103.576 20.8906 104.107 20.6055 104.732 20.4023C105.365 20.1914 106.076 20.0859 106.865 20.0859C107.967 20.0859 108.912 20.2617 109.701 20.6133C110.498 20.9648 111.107 21.4492 111.529 22.0664C111.959 22.6758 112.174 23.3711 112.174 24.1523H108.799C108.799 23.8242 108.729 23.5312 108.588 23.2734C108.455 23.0078 108.244 22.8008 107.955 22.6523C107.674 22.4961 107.307 22.418 106.854 22.418C106.479 22.418 106.154 22.4844 105.881 22.6172C105.607 22.7422 105.397 22.9141 105.248 23.1328C105.107 23.3438 105.037 23.5781 105.037 23.8359C105.037 24.0312 105.076 24.207 105.154 24.3633C105.24 24.5117 105.377 24.6484 105.565 24.7734C105.752 24.8984 105.994 25.0156 106.291 25.125C106.596 25.2266 106.971 25.3203 107.416 25.4062C108.33 25.5938 109.147 25.8398 109.865 26.1445C110.584 26.4414 111.154 26.8477 111.576 27.3633C111.998 27.8711 112.209 28.5391 112.209 29.3672C112.209 29.9297 112.084 30.4453 111.834 30.9141C111.584 31.3828 111.225 31.793 110.756 32.1445C110.287 32.4883 109.725 32.7578 109.068 32.9531C108.42 33.1406 107.69 33.2344 106.877 33.2344C105.697 33.2344 104.697 33.0234 103.877 32.6016C103.065 32.1797 102.447 31.6445 102.025 30.9961C101.611 30.3398 101.404 29.668 101.404 28.9805H104.604C104.619 29.4414 104.736 29.8125 104.955 30.0938C105.182 30.375 105.467 30.5781 105.811 30.7031C106.162 30.8281 106.541 30.8906 106.947 30.8906C107.385 30.8906 107.748 30.832 108.037 30.7148C108.326 30.5898 108.545 30.4258 108.693 30.2227C108.85 30.0117 108.928 29.7695 108.928 29.4961ZM120.956 33.2344C119.972 33.2344 119.089 33.0781 118.308 32.7656C117.527 32.4453 116.863 32.0039 116.316 31.4414C115.777 30.8789 115.363 30.2266 115.074 29.4844C114.785 28.7344 114.64 27.9375 114.64 27.0938V26.625C114.64 25.6641 114.777 24.7852 115.05 23.9883C115.324 23.1914 115.714 22.5 116.222 21.9141C116.738 21.3281 117.363 20.8789 118.097 20.5664C118.831 20.2461 119.66 20.0859 120.581 20.0859C121.48 20.0859 122.277 20.2344 122.972 20.5312C123.667 20.8281 124.249 21.25 124.718 21.7969C125.195 22.3438 125.554 23 125.796 23.7656C126.038 24.5234 126.16 25.3672 126.16 26.2969V27.7031H116.081V25.4531H122.843V25.1953C122.843 24.7266 122.757 24.3086 122.585 23.9414C122.421 23.5664 122.171 23.2695 121.835 23.0508C121.499 22.832 121.07 22.7227 120.546 22.7227C120.101 22.7227 119.718 22.8203 119.398 23.0156C119.077 23.2109 118.816 23.4844 118.613 23.8359C118.417 24.1875 118.269 24.6016 118.167 25.0781C118.074 25.5469 118.027 26.0625 118.027 26.625V27.0938C118.027 27.6016 118.097 28.0703 118.238 28.5C118.386 28.9297 118.593 29.3008 118.859 29.6133C119.132 29.9258 119.46 30.168 119.843 30.3398C120.234 30.5117 120.675 30.5977 121.167 30.5977C121.777 30.5977 122.343 30.4805 122.867 30.2461C123.398 30.0039 123.855 29.6406 124.238 29.1562L125.878 30.9375C125.613 31.3203 125.249 31.6875 124.788 32.0391C124.335 32.3906 123.788 32.6797 123.148 32.9062C122.507 33.125 121.777 33.2344 120.956 33.2344ZM135.645 30.1406V24.4922C135.645 24.0859 135.579 23.7383 135.446 23.4492C135.313 23.1523 135.106 22.9219 134.825 22.7578C134.551 22.5938 134.196 22.5117 133.758 22.5117C133.383 22.5117 133.059 22.5781 132.786 22.7109C132.512 22.8359 132.301 23.0195 132.153 23.2617C132.005 23.4961 131.93 23.7734 131.93 24.0938H128.555C128.555 23.5547 128.68 23.043 128.93 22.5586C129.18 22.0742 129.544 21.6484 130.02 21.2812C130.497 20.9062 131.063 20.6133 131.719 20.4023C132.383 20.1914 133.126 20.0859 133.946 20.0859C134.93 20.0859 135.805 20.25 136.571 20.5781C137.337 20.9062 137.938 21.3984 138.376 22.0547C138.821 22.7109 139.044 23.5312 139.044 24.5156V29.9414C139.044 30.6367 139.087 31.207 139.173 31.6523C139.258 32.0898 139.383 32.4727 139.548 32.8008V33H136.137C135.973 32.6562 135.848 32.2266 135.762 31.7109C135.684 31.1875 135.645 30.6641 135.645 30.1406ZM136.09 25.2773L136.114 27.1875H134.227C133.782 27.1875 133.395 27.2383 133.067 27.3398C132.739 27.4414 132.469 27.5859 132.258 27.7734C132.048 27.9531 131.891 28.1641 131.79 28.4062C131.696 28.6484 131.649 28.9141 131.649 29.2031C131.649 29.4922 131.715 29.7539 131.848 29.9883C131.981 30.2148 132.173 30.3945 132.423 30.5273C132.673 30.6523 132.965 30.7148 133.301 30.7148C133.809 30.7148 134.251 30.6133 134.626 30.4102C135.001 30.207 135.29 29.957 135.493 29.6602C135.704 29.3633 135.813 29.082 135.821 28.8164L136.712 30.2461C136.587 30.5664 136.415 30.8984 136.196 31.2422C135.985 31.5859 135.715 31.9102 135.387 32.2148C135.059 32.5117 134.665 32.7578 134.204 32.9531C133.743 33.1406 133.196 33.2344 132.563 33.2344C131.758 33.2344 131.028 33.0742 130.372 32.7539C129.723 32.4258 129.208 31.9766 128.825 31.4062C128.45 30.8281 128.262 30.1719 128.262 29.4375C128.262 28.7734 128.387 28.1836 128.637 27.668C128.887 27.1523 129.255 26.7188 129.739 26.3672C130.231 26.0078 130.844 25.7383 131.579 25.5586C132.313 25.3711 133.165 25.2773 134.133 25.2773H136.09ZM145.74 23.0859V33H142.365V20.3203H145.541L145.74 23.0859ZM149.56 20.2383L149.502 23.3672C149.338 23.3438 149.139 23.3242 148.904 23.3086C148.678 23.2852 148.471 23.2734 148.283 23.2734C147.807 23.2734 147.393 23.3359 147.041 23.4609C146.697 23.5781 146.408 23.7539 146.174 23.9883C145.947 24.2227 145.775 24.5078 145.658 24.8438C145.549 25.1797 145.486 25.5625 145.471 25.9922L144.791 25.7812C144.791 24.9609 144.873 24.207 145.037 23.5195C145.201 22.8242 145.439 22.2188 145.752 21.7031C146.072 21.1875 146.463 20.7891 146.924 20.5078C147.385 20.2266 147.912 20.0859 148.506 20.0859C148.693 20.0859 148.885 20.1016 149.08 20.1328C149.275 20.1562 149.435 20.1914 149.56 20.2383ZM156.878 30.5977C157.292 30.5977 157.659 30.5195 157.98 30.3633C158.3 30.1992 158.55 29.9727 158.73 29.6836C158.917 29.3867 159.015 29.0391 159.023 28.6406H162.198C162.191 29.5312 161.952 30.3242 161.484 31.0195C161.015 31.707 160.386 32.25 159.597 32.6484C158.808 33.0391 157.925 33.2344 156.948 33.2344C155.964 33.2344 155.105 33.0703 154.37 32.7422C153.644 32.4141 153.038 31.9609 152.554 31.3828C152.07 30.7969 151.706 30.1172 151.464 29.3438C151.222 28.5625 151.101 27.7266 151.101 26.8359V26.4961C151.101 25.5977 151.222 24.7617 151.464 23.9883C151.706 23.207 152.07 22.5273 152.554 21.9492C153.038 21.3633 153.644 20.9062 154.37 20.5781C155.097 20.25 155.948 20.0859 156.925 20.0859C157.964 20.0859 158.874 20.2852 159.655 20.6836C160.445 21.082 161.062 21.6523 161.507 22.3945C161.96 23.1289 162.191 24 162.198 25.0078H159.023C159.015 24.5859 158.925 24.2031 158.753 23.8594C158.589 23.5156 158.347 23.2422 158.027 23.0391C157.714 22.8281 157.327 22.7227 156.866 22.7227C156.374 22.7227 155.972 22.8281 155.659 23.0391C155.347 23.2422 155.105 23.5234 154.933 23.8828C154.761 24.2344 154.64 24.6367 154.57 25.0898C154.507 25.5352 154.476 26.0039 154.476 26.4961V26.8359C154.476 27.3281 154.507 27.8008 154.57 28.2539C154.632 28.707 154.749 29.1094 154.921 29.4609C155.101 29.8125 155.347 30.0898 155.659 30.293C155.972 30.4961 156.378 30.5977 156.878 30.5977ZM168.168 15V33H164.793V15H168.168ZM167.688 26.2148H166.762C166.77 25.332 166.887 24.5195 167.114 23.7773C167.34 23.0273 167.665 22.3789 168.086 21.832C168.508 21.2773 169.012 20.8477 169.598 20.543C170.192 20.2383 170.848 20.0859 171.567 20.0859C172.192 20.0859 172.758 20.1758 173.266 20.3555C173.782 20.5273 174.223 20.8086 174.59 21.1992C174.965 21.582 175.254 22.0859 175.458 22.7109C175.661 23.3359 175.762 24.0938 175.762 24.9844V33H172.364V24.9609C172.364 24.3984 172.282 23.957 172.118 23.6367C171.961 23.3086 171.731 23.0781 171.426 22.9453C171.129 22.8047 170.762 22.7344 170.325 22.7344C169.84 22.7344 169.426 22.8242 169.083 23.0039C168.747 23.1836 168.477 23.4336 168.274 23.7539C168.071 24.0664 167.922 24.4336 167.829 24.8555C167.735 25.2773 167.688 25.7305 167.688 26.2148Z" fill="#114DFF"/>
<g clip-path="url(#clip0_21_180)">
<path d="M29.5078 35.8452C28.6541 35.7239 28.3096 34.8732 28.3554 34.0977C28.4342 32.7618 28.764 31.0841 28.9545 29.7188C29.4583 26.0841 30.0263 22.4513 30.5576 18.8202C30.7884 18.1514 31.3234 17.7048 32.0453 17.7048H60.5966C61.5621 17.7894 62.1044 18.5703 61.9835 19.5148L59.9737 33.653L58.1984 31.9018C58.367 31.4516 58.6234 31.0198 58.7425 30.5512C60.2595 24.5148 54.6313 19.1124 48.7301 21.3983C42.8876 23.6622 42.305 32.0139 47.7976 35.0477C48.4022 35.3822 48.9005 35.5126 49.5289 35.7423C49.5912 35.7662 49.7048 35.7625 49.6902 35.8471H29.5078V35.8452Z" fill="url(#paint0_linear_21_180)"/>
<path d="M28 10.6816C28.1081 9.77202 28.9875 9.07742 29.8687 9.00024L38.8295 9.00759C39.1904 9.07742 39.5184 9.2134 39.784 9.4725C40.7184 10.3839 41.7059 12.5302 43.0561 12.7103L57.2274 12.7231C57.832 12.7489 58.4201 13.0466 58.7902 13.528C59.4369 14.3733 59.1071 15.3931 59.2409 16.3744L59.1199 16.4957L32.3421 16.4571C29.964 16.5857 29.5335 17.6974 29.1909 19.818C28.7805 22.3556 28.6229 25.1377 28.1118 27.6276C28.0989 27.6937 28.0953 27.8499 28.0018 27.8426V10.6816H28Z" fill="url(#paint1_linear_21_180)"/>
<path d="M57.4069 32.9657C58.7224 34.2483 60.2888 35.6633 61.509 37.0028C61.923 37.4567 62.1631 37.9032 61.8168 38.4968C61.4797 39.0738 60.6937 39.1638 60.2082 38.7228L55.1681 33.574C55.0124 33.5078 54.5672 33.8569 54.3803 33.9433C49.8862 36.0087 45.0623 32.8941 45.4342 27.8757C45.6852 24.4982 49.0178 21.9698 52.3119 22.3979C56.8573 22.9896 58.9606 28.2799 56.4854 32.0249C56.4891 32.1774 57.2475 32.8132 57.4051 32.9676L57.4069 32.9657ZM55.7086 28.4417C55.7086 26.1024 53.8179 24.2079 51.4874 24.2079C49.157 24.2079 47.2663 26.1043 47.2663 28.4417C47.2663 30.779 49.157 32.6754 51.4874 32.6754C53.8179 32.6754 55.7086 30.779 55.7086 28.4417Z" fill="url(#paint2_linear_21_180)"/>
</g>
<defs>
<linearGradient id="paint0_linear_21_180" x1="60.4443" y1="31.4841" x2="41.9422" y2="7.40462" gradientUnits="userSpaceOnUse">
<stop stop-color="#114DFF"/>
<stop offset="1" stop-color="#3CE5A7"/>
</linearGradient>
<linearGradient id="paint1_linear_21_180" x1="57.7963" y1="23.3114" x2="38.1347" y2="0.437115" gradientUnits="userSpaceOnUse">
<stop stop-color="#114DFF"/>
<stop offset="1" stop-color="#3CE5A7"/>
</linearGradient>
<linearGradient id="paint2_linear_21_180" x1="61.2168" y1="34.9966" x2="44.719" y2="23.4767" gradientUnits="userSpaceOnUse">
<stop stop-color="#114DFF"/>
<stop offset="1" stop-color="#3CE5A7"/>
</linearGradient>
<clipPath id="clip0_21_180">
<rect width="34" height="30" fill="white" transform="translate(28 9.00024)"/>
</clipPath>
</defs>
</svg>
