<svg width="951" height="165" viewBox="0 0 951 165" fill="none" xmlns="http://www.w3.org/2000/svg">
<g filter="url(#filter0_d_138_881)">
<rect x="4" width="943" height="157" rx="78.5" fill="#06288B"/>
</g>
<path d="M235.609 84.3027C235.609 83.8457 235.539 83.4355 235.398 83.0723C235.27 82.6973 235.023 82.3574 234.66 82.0527C234.297 81.7363 233.787 81.4258 233.131 81.1211C232.475 80.8164 231.625 80.5 230.582 80.1719C229.422 79.7969 228.32 79.375 227.277 78.9062C226.246 78.4375 225.332 77.8926 224.535 77.2715C223.75 76.6387 223.129 75.9062 222.672 75.0742C222.227 74.2422 222.004 73.2754 222.004 72.1738C222.004 71.1074 222.238 70.1406 222.707 69.2734C223.176 68.3945 223.832 67.6445 224.676 67.0234C225.52 66.3906 226.516 65.9043 227.664 65.5645C228.824 65.2246 230.096 65.0547 231.479 65.0547C233.365 65.0547 235.012 65.3945 236.418 66.0742C237.824 66.7539 238.914 67.6855 239.688 68.8691C240.473 70.0527 240.865 71.4062 240.865 72.9297H235.627C235.627 72.1797 235.469 71.5234 235.152 70.9609C234.848 70.3867 234.379 69.9355 233.746 69.6074C233.125 69.2793 232.34 69.1152 231.391 69.1152C230.477 69.1152 229.715 69.2559 229.105 69.5371C228.496 69.8066 228.039 70.1758 227.734 70.6445C227.43 71.1016 227.277 71.6172 227.277 72.1914C227.277 72.625 227.383 73.0176 227.594 73.3691C227.816 73.7207 228.145 74.0488 228.578 74.3535C229.012 74.6582 229.545 74.9453 230.178 75.2148C230.811 75.4844 231.543 75.748 232.375 76.0059C233.77 76.4277 234.994 76.9023 236.049 77.4297C237.115 77.957 238.006 78.5488 238.721 79.2051C239.436 79.8613 239.975 80.6055 240.338 81.4375C240.701 82.2695 240.883 83.2129 240.883 84.2676C240.883 85.3809 240.666 86.377 240.232 87.2559C239.799 88.1348 239.172 88.8789 238.352 89.4883C237.531 90.0977 236.553 90.5605 235.416 90.877C234.279 91.1934 233.008 91.3516 231.602 91.3516C230.336 91.3516 229.088 91.1875 227.857 90.8594C226.627 90.5195 225.508 90.0098 224.5 89.3301C223.504 88.6504 222.707 87.7832 222.109 86.7285C221.512 85.6738 221.213 84.4258 221.213 82.9844H226.504C226.504 83.7812 226.627 84.4551 226.873 85.0059C227.119 85.5566 227.465 86.002 227.91 86.3418C228.367 86.6816 228.906 86.9277 229.527 87.0801C230.16 87.2324 230.852 87.3086 231.602 87.3086C232.516 87.3086 233.266 87.1797 233.852 86.9219C234.449 86.6641 234.889 86.3066 235.17 85.8496C235.463 85.3926 235.609 84.877 235.609 84.3027ZM254.549 71.9805V75.5664H243.475V71.9805H254.549ZM246.217 67.2871H251.279V85.2695C251.279 85.8203 251.35 86.2422 251.49 86.5352C251.642 86.8281 251.865 87.0332 252.158 87.1504C252.451 87.2559 252.82 87.3086 253.266 87.3086C253.582 87.3086 253.863 87.2969 254.109 87.2734C254.367 87.2383 254.584 87.2031 254.76 87.168L254.777 90.8945C254.344 91.0352 253.875 91.1465 253.371 91.2285C252.867 91.3105 252.31 91.3516 251.701 91.3516C250.588 91.3516 249.615 91.1699 248.783 90.8066C247.963 90.4316 247.33 89.834 246.885 89.0137C246.439 88.1934 246.217 87.1152 246.217 85.7793V67.2871ZM263.574 76.1289V91H258.512V71.9805H263.275L263.574 76.1289ZM269.305 71.8574L269.217 76.5508C268.971 76.5156 268.672 76.4863 268.32 76.4629C267.98 76.4277 267.67 76.4102 267.389 76.4102C266.674 76.4102 266.053 76.5039 265.525 76.6914C265.01 76.8672 264.576 77.1309 264.224 77.4824C263.885 77.834 263.627 78.2617 263.451 78.7656C263.287 79.2695 263.193 79.8438 263.17 80.4883L262.15 80.1719C262.15 78.9414 262.273 77.8105 262.519 76.7793C262.765 75.7363 263.123 74.8281 263.592 74.0547C264.072 73.2812 264.658 72.6836 265.349 72.2617C266.041 71.8398 266.832 71.6289 267.722 71.6289C268.004 71.6289 268.291 71.6523 268.584 71.6992C268.877 71.7344 269.117 71.7871 269.305 71.8574ZM284.025 86.4473V71.9805H289.088V91H284.324L284.025 86.4473ZM284.588 82.5449L286.082 82.5098C286.082 83.7754 285.935 84.9531 285.642 86.043C285.349 87.1211 284.91 88.0586 284.324 88.8555C283.738 89.6406 283 90.2559 282.109 90.7012C281.219 91.1348 280.17 91.3516 278.963 91.3516C278.037 91.3516 277.181 91.2227 276.396 90.9648C275.623 90.6953 274.955 90.2793 274.392 89.7168C273.842 89.1426 273.408 88.4102 273.092 87.5195C272.787 86.6172 272.635 85.5332 272.635 84.2676V71.9805H277.697V84.3027C277.697 84.8652 277.761 85.3398 277.89 85.7266C278.031 86.1133 278.224 86.4297 278.47 86.6758C278.717 86.9219 279.004 87.0977 279.332 87.2031C279.672 87.3086 280.047 87.3613 280.457 87.3613C281.5 87.3613 282.32 87.1504 282.918 86.7285C283.527 86.3066 283.955 85.7324 284.201 85.0059C284.459 84.2676 284.588 83.4473 284.588 82.5449ZM301.892 87.3965C302.513 87.3965 303.064 87.2793 303.545 87.0449C304.025 86.7988 304.4 86.459 304.67 86.0254C304.951 85.5801 305.097 85.0586 305.109 84.4609H309.873C309.861 85.7969 309.504 86.9863 308.8 88.0293C308.097 89.0605 307.154 89.875 305.97 90.4727C304.787 91.0586 303.463 91.3516 301.998 91.3516C300.521 91.3516 299.232 91.1055 298.131 90.6133C297.041 90.1211 296.132 89.4414 295.406 88.5742C294.679 87.6953 294.134 86.6758 293.771 85.5156C293.408 84.3438 293.226 83.0898 293.226 81.7539V81.2441C293.226 79.8965 293.408 78.6426 293.771 77.4824C294.134 76.3105 294.679 75.291 295.406 74.4238C296.132 73.5449 297.041 72.8594 298.131 72.3672C299.22 71.875 300.498 71.6289 301.963 71.6289C303.521 71.6289 304.886 71.9277 306.058 72.5254C307.242 73.123 308.168 73.9785 308.836 75.0918C309.515 76.1934 309.861 77.5 309.873 79.0117H305.109C305.097 78.3789 304.963 77.8047 304.705 77.2891C304.459 76.7734 304.095 76.3633 303.615 76.0586C303.146 75.7422 302.566 75.584 301.875 75.584C301.136 75.584 300.533 75.7422 300.064 76.0586C299.595 76.3633 299.232 76.7852 298.974 77.3242C298.716 77.8516 298.535 78.4551 298.429 79.1348C298.336 79.8027 298.289 80.5059 298.289 81.2441V81.7539C298.289 82.4922 298.336 83.2012 298.429 83.8809C298.523 84.5605 298.699 85.1641 298.957 85.6914C299.226 86.2188 299.595 86.6348 300.064 86.9395C300.533 87.2441 301.142 87.3965 301.892 87.3965ZM323.205 71.9805V75.5664H312.13V71.9805H323.205ZM314.873 67.2871H319.935V85.2695C319.935 85.8203 320.005 86.2422 320.146 86.5352C320.298 86.8281 320.521 87.0332 320.814 87.1504C321.107 87.2559 321.476 87.3086 321.921 87.3086C322.238 87.3086 322.519 87.2969 322.765 87.2734C323.023 87.2383 323.24 87.2031 323.416 87.168L323.433 90.8945C323 91.0352 322.531 91.1465 322.027 91.2285C321.523 91.3105 320.966 91.3516 320.357 91.3516C319.244 91.3516 318.271 91.1699 317.439 90.8066C316.619 90.4316 315.986 89.834 315.541 89.0137C315.095 88.1934 314.873 87.1152 314.873 85.7793V67.2871ZM338.418 86.4473V71.9805H343.48V91H338.716L338.418 86.4473ZM338.98 82.5449L340.474 82.5098C340.474 83.7754 340.328 84.9531 340.035 86.043C339.742 87.1211 339.302 88.0586 338.716 88.8555C338.13 89.6406 337.392 90.2559 336.501 90.7012C335.611 91.1348 334.562 91.3516 333.355 91.3516C332.429 91.3516 331.574 91.2227 330.789 90.9648C330.015 90.6953 329.347 90.2793 328.785 89.7168C328.234 89.1426 327.8 88.4102 327.484 87.5195C327.179 86.6172 327.027 85.5332 327.027 84.2676V71.9805H332.089V84.3027C332.089 84.8652 332.154 85.3398 332.283 85.7266C332.423 86.1133 332.617 86.4297 332.863 86.6758C333.109 86.9219 333.396 87.0977 333.724 87.2031C334.064 87.3086 334.439 87.3613 334.849 87.3613C335.892 87.3613 336.712 87.1504 337.31 86.7285C337.919 86.3066 338.347 85.7324 338.593 85.0059C338.851 84.2676 338.98 83.4473 338.98 82.5449ZM353.49 76.1289V91H348.427V71.9805H353.191L353.49 76.1289ZM359.22 71.8574L359.132 76.5508C358.886 76.5156 358.587 76.4863 358.236 76.4629C357.896 76.4277 357.585 76.4102 357.304 76.4102C356.589 76.4102 355.968 76.5039 355.441 76.6914C354.925 76.8672 354.492 77.1309 354.14 77.4824C353.8 77.834 353.542 78.2617 353.367 78.7656C353.203 79.2695 353.109 79.8438 353.085 80.4883L352.066 80.1719C352.066 78.9414 352.189 77.8105 352.435 76.7793C352.681 75.7363 353.039 74.8281 353.507 74.0547C353.988 73.2812 354.574 72.6836 355.265 72.2617C355.956 71.8398 356.747 71.6289 357.638 71.6289C357.919 71.6289 358.206 71.6523 358.499 71.6992C358.792 71.7344 359.033 71.7871 359.22 71.8574ZM371.093 91.3516C369.617 91.3516 368.292 91.1172 367.12 90.6484C365.949 90.168 364.952 89.5059 364.132 88.6621C363.324 87.8184 362.702 86.8398 362.269 85.7266C361.835 84.6016 361.619 83.4062 361.619 82.1406V81.4375C361.619 79.9961 361.824 78.6777 362.234 77.4824C362.644 76.2871 363.23 75.25 363.992 74.3711C364.765 73.4922 365.702 72.8184 366.804 72.3496C367.906 71.8691 369.148 71.6289 370.531 71.6289C371.878 71.6289 373.074 71.8516 374.117 72.2969C375.16 72.7422 376.033 73.375 376.736 74.1953C377.451 75.0156 377.99 76 378.353 77.1484C378.716 78.2852 378.898 79.5508 378.898 80.9453V83.0547H363.781V79.6797H373.923V79.293C373.923 78.5898 373.794 77.9629 373.536 77.4121C373.29 76.8496 372.915 76.4043 372.411 76.0762C371.908 75.748 371.263 75.584 370.478 75.584C369.81 75.584 369.236 75.7305 368.755 76.0234C368.275 76.3164 367.882 76.7266 367.577 77.2539C367.285 77.7812 367.062 78.4023 366.91 79.1172C366.769 79.8203 366.699 80.5938 366.699 81.4375V82.1406C366.699 82.9023 366.804 83.6055 367.015 84.25C367.238 84.8945 367.548 85.4512 367.947 85.9199C368.357 86.3887 368.849 86.752 369.423 87.0098C370.009 87.2676 370.671 87.3965 371.41 87.3965C372.324 87.3965 373.173 87.2207 373.958 86.8691C374.755 86.5059 375.441 85.9609 376.015 85.2344L378.476 87.9062C378.077 88.4805 377.533 89.0312 376.841 89.5586C376.161 90.0859 375.341 90.5195 374.38 90.8594C373.419 91.1875 372.324 91.3516 371.093 91.3516ZM394.093 86.8516V64H399.191V91H394.603L394.093 86.8516ZM382.07 81.7188V81.3496C382.07 79.8965 382.234 78.5781 382.562 77.3945C382.89 76.1992 383.37 75.1738 384.003 74.3184C384.636 73.4629 385.415 72.8008 386.341 72.332C387.267 71.8633 388.322 71.6289 389.505 71.6289C390.618 71.6289 391.591 71.8633 392.423 72.332C393.267 72.8008 393.982 73.4688 394.568 74.3359C395.165 75.1914 395.646 76.2051 396.009 77.377C396.372 78.5371 396.636 79.8086 396.8 81.1914V82C396.636 83.3242 396.372 84.5547 396.009 85.6914C395.646 86.8281 395.165 87.8242 394.568 88.6797C393.982 89.5234 393.267 90.1797 392.423 90.6484C391.579 91.1172 390.595 91.3516 389.47 91.3516C388.286 91.3516 387.232 91.1113 386.306 90.6309C385.392 90.1504 384.618 89.4766 383.986 88.6094C383.365 87.7422 382.89 86.7227 382.562 85.5508C382.234 84.3789 382.07 83.1016 382.07 81.7188ZM387.132 81.3496V81.7188C387.132 82.5039 387.191 83.2363 387.308 83.916C387.437 84.5957 387.642 85.1992 387.923 85.7266C388.216 86.2422 388.591 86.6465 389.048 86.9395C389.517 87.2207 390.085 87.3613 390.753 87.3613C391.62 87.3613 392.335 87.168 392.898 86.7812C393.46 86.3828 393.888 85.8379 394.181 85.1465C394.486 84.4551 394.661 83.6582 394.708 82.7559V80.4531C394.673 79.7148 394.568 79.0527 394.392 78.4668C394.228 77.8691 393.982 77.3594 393.654 76.9375C393.337 76.5156 392.939 76.1875 392.458 75.9531C391.99 75.7188 391.433 75.6016 390.788 75.6016C390.132 75.6016 389.57 75.7539 389.101 76.0586C388.632 76.3516 388.251 76.7559 387.958 77.2715C387.677 77.7871 387.466 78.3965 387.325 79.0996C387.197 79.791 387.132 80.541 387.132 81.3496ZM427.911 84.3027C427.911 83.8457 427.841 83.4355 427.7 83.0723C427.571 82.6973 427.325 82.3574 426.962 82.0527C426.599 81.7363 426.089 81.4258 425.433 81.1211C424.776 80.8164 423.927 80.5 422.884 80.1719C421.724 79.7969 420.622 79.375 419.579 78.9062C418.548 78.4375 417.634 77.8926 416.837 77.2715C416.052 76.6387 415.431 75.9062 414.974 75.0742C414.528 74.2422 414.306 73.2754 414.306 72.1738C414.306 71.1074 414.54 70.1406 415.009 69.2734C415.478 68.3945 416.134 67.6445 416.978 67.0234C417.821 66.3906 418.818 65.9043 419.966 65.5645C421.126 65.2246 422.398 65.0547 423.78 65.0547C425.667 65.0547 427.314 65.3945 428.72 66.0742C430.126 66.7539 431.216 67.6855 431.989 68.8691C432.775 70.0527 433.167 71.4062 433.167 72.9297H427.929C427.929 72.1797 427.771 71.5234 427.454 70.9609C427.15 70.3867 426.681 69.9355 426.048 69.6074C425.427 69.2793 424.642 69.1152 423.693 69.1152C422.778 69.1152 422.017 69.2559 421.407 69.5371C420.798 69.8066 420.341 70.1758 420.036 70.6445C419.732 71.1016 419.579 71.6172 419.579 72.1914C419.579 72.625 419.685 73.0176 419.896 73.3691C420.118 73.7207 420.446 74.0488 420.88 74.3535C421.314 74.6582 421.847 74.9453 422.48 75.2148C423.112 75.4844 423.845 75.748 424.677 76.0059C426.071 76.4277 427.296 76.9023 428.351 77.4297C429.417 77.957 430.308 78.5488 431.023 79.2051C431.737 79.8613 432.276 80.6055 432.64 81.4375C433.003 82.2695 433.185 83.2129 433.185 84.2676C433.185 85.3809 432.968 86.377 432.534 87.2559C432.101 88.1348 431.474 88.8789 430.653 89.4883C429.833 90.0977 428.855 90.5605 427.718 90.877C426.581 91.1934 425.31 91.3516 423.903 91.3516C422.638 91.3516 421.39 91.1875 420.159 90.8594C418.929 90.5195 417.81 90.0098 416.802 89.3301C415.806 88.6504 415.009 87.7832 414.411 86.7285C413.814 85.6738 413.515 84.4258 413.515 82.9844H418.806C418.806 83.7812 418.929 84.4551 419.175 85.0059C419.421 85.5566 419.767 86.002 420.212 86.3418C420.669 86.6816 421.208 86.9277 421.829 87.0801C422.462 87.2324 423.153 87.3086 423.903 87.3086C424.818 87.3086 425.568 87.1797 426.153 86.9219C426.751 86.6641 427.191 86.3066 427.472 85.8496C427.765 85.3926 427.911 84.877 427.911 84.3027ZM448.784 86.4473V71.9805H453.847V91H449.083L448.784 86.4473ZM449.347 82.5449L450.841 82.5098C450.841 83.7754 450.694 84.9531 450.401 86.043C450.108 87.1211 449.669 88.0586 449.083 88.8555C448.497 89.6406 447.759 90.2559 446.868 90.7012C445.978 91.1348 444.929 91.3516 443.722 91.3516C442.796 91.3516 441.94 91.2227 441.155 90.9648C440.382 90.6953 439.714 90.2793 439.151 89.7168C438.601 89.1426 438.167 88.4102 437.851 87.5195C437.546 86.6172 437.394 85.5332 437.394 84.2676V71.9805H442.456V84.3027C442.456 84.8652 442.521 85.3398 442.649 85.7266C442.79 86.1133 442.983 86.4297 443.23 86.6758C443.476 86.9219 443.763 87.0977 444.091 87.2031C444.431 87.3086 444.806 87.3613 445.216 87.3613C446.259 87.3613 447.079 87.1504 447.677 86.7285C448.286 86.3066 448.714 85.7324 448.96 85.0059C449.218 84.2676 449.347 83.4473 449.347 82.5449ZM463.856 75.6367V98.3125H458.794V71.9805H463.487L463.856 75.6367ZM475.897 81.2793V81.6484C475.897 83.0312 475.733 84.3145 475.405 85.498C475.089 86.6816 474.62 87.7129 473.999 88.5918C473.378 89.459 472.604 90.1387 471.679 90.6309C470.765 91.1113 469.71 91.3516 468.515 91.3516C467.354 91.3516 466.347 91.1172 465.491 90.6484C464.636 90.1797 463.915 89.5234 463.329 88.6797C462.755 87.8242 462.292 86.834 461.94 85.709C461.589 84.584 461.319 83.377 461.132 82.0879V81.1211C461.319 79.7383 461.589 78.4727 461.94 77.3242C462.292 76.1641 462.755 75.1621 463.329 74.3184C463.915 73.4629 464.63 72.8008 465.474 72.332C466.329 71.8633 467.331 71.6289 468.479 71.6289C469.686 71.6289 470.747 71.8574 471.661 72.3145C472.587 72.7715 473.36 73.4277 473.981 74.2832C474.614 75.1387 475.089 76.1582 475.405 77.3418C475.733 78.5254 475.897 79.8379 475.897 81.2793ZM470.817 81.6484V81.2793C470.817 80.4707 470.747 79.7266 470.606 79.0469C470.477 78.3555 470.267 77.752 469.974 77.2363C469.692 76.7207 469.317 76.3223 468.849 76.041C468.392 75.748 467.835 75.6016 467.179 75.6016C466.487 75.6016 465.895 75.7129 465.403 75.9355C464.923 76.1582 464.53 76.4805 464.226 76.9023C463.921 77.3242 463.692 77.8281 463.54 78.4141C463.388 79 463.294 79.6621 463.259 80.4004V82.8438C463.317 83.7109 463.481 84.4902 463.751 85.1816C464.02 85.8613 464.436 86.4004 464.999 86.7988C465.561 87.1973 466.3 87.3965 467.214 87.3965C467.882 87.3965 468.444 87.25 468.901 86.957C469.358 86.6523 469.727 86.2363 470.009 85.709C470.302 85.1816 470.507 84.5723 470.624 83.8809C470.753 83.1895 470.817 82.4453 470.817 81.6484ZM485.186 75.6367V98.3125H480.124V71.9805H484.817L485.186 75.6367ZM497.227 81.2793V81.6484C497.227 83.0312 497.063 84.3145 496.735 85.498C496.419 86.6816 495.95 87.7129 495.329 88.5918C494.708 89.459 493.934 90.1387 493.009 90.6309C492.095 91.1113 491.04 91.3516 489.845 91.3516C488.684 91.3516 487.677 91.1172 486.821 90.6484C485.966 90.1797 485.245 89.5234 484.659 88.6797C484.085 87.8242 483.622 86.834 483.27 85.709C482.919 84.584 482.649 83.377 482.462 82.0879V81.1211C482.649 79.7383 482.919 78.4727 483.27 77.3242C483.622 76.1641 484.085 75.1621 484.659 74.3184C485.245 73.4629 485.96 72.8008 486.804 72.332C487.659 71.8633 488.661 71.6289 489.809 71.6289C491.016 71.6289 492.077 71.8574 492.991 72.3145C493.917 72.7715 494.69 73.4277 495.311 74.2832C495.944 75.1387 496.419 76.1582 496.735 77.3418C497.063 78.5254 497.227 79.8379 497.227 81.2793ZM492.147 81.6484V81.2793C492.147 80.4707 492.077 79.7266 491.936 79.0469C491.807 78.3555 491.597 77.752 491.304 77.2363C491.022 76.7207 490.647 76.3223 490.179 76.041C489.722 75.748 489.165 75.6016 488.509 75.6016C487.817 75.6016 487.225 75.7129 486.733 75.9355C486.253 76.1582 485.86 76.4805 485.556 76.9023C485.251 77.3242 485.022 77.8281 484.87 78.4141C484.718 79 484.624 79.6621 484.589 80.4004V82.8438C484.647 83.7109 484.811 84.4902 485.081 85.1816C485.35 85.8613 485.766 86.4004 486.329 86.7988C486.891 87.1973 487.63 87.3965 488.544 87.3965C489.212 87.3965 489.774 87.25 490.231 86.957C490.688 86.6523 491.057 86.2363 491.339 85.709C491.632 85.1816 491.837 84.5723 491.954 83.8809C492.083 83.1895 492.147 82.4453 492.147 81.6484ZM500.645 81.6836V81.3145C500.645 79.9199 500.845 78.6367 501.243 77.4648C501.641 76.2812 502.221 75.2559 502.983 74.3887C503.745 73.5215 504.682 72.8477 505.796 72.3672C506.909 71.875 508.186 71.6289 509.628 71.6289C511.069 71.6289 512.352 71.875 513.477 72.3672C514.602 72.8477 515.546 73.5215 516.307 74.3887C517.081 75.2559 517.667 76.2812 518.065 77.4648C518.464 78.6367 518.663 79.9199 518.663 81.3145V81.6836C518.663 83.0664 518.464 84.3496 518.065 85.5332C517.667 86.7051 517.081 87.7305 516.307 88.6094C515.546 89.4766 514.608 90.1504 513.495 90.6309C512.382 91.1113 511.104 91.3516 509.663 91.3516C508.221 91.3516 506.938 91.1113 505.813 90.6309C504.7 90.1504 503.757 89.4766 502.983 88.6094C502.221 87.7305 501.641 86.7051 501.243 85.5332C500.845 84.3496 500.645 83.0664 500.645 81.6836ZM505.708 81.3145V81.6836C505.708 82.4805 505.778 83.2246 505.919 83.916C506.059 84.6074 506.282 85.2168 506.587 85.7441C506.903 86.2598 507.313 86.6641 507.817 86.957C508.321 87.25 508.936 87.3965 509.663 87.3965C510.366 87.3965 510.97 87.25 511.473 86.957C511.977 86.6641 512.382 86.2598 512.686 85.7441C512.991 85.2168 513.214 84.6074 513.354 83.916C513.507 83.2246 513.583 82.4805 513.583 81.6836V81.3145C513.583 80.541 513.507 79.8145 513.354 79.1348C513.214 78.4434 512.985 77.834 512.669 77.3066C512.364 76.7676 511.96 76.3457 511.456 76.041C510.952 75.7363 510.343 75.584 509.628 75.584C508.913 75.584 508.304 75.7363 507.8 76.041C507.307 76.3457 506.903 76.7676 506.587 77.3066C506.282 77.834 506.059 78.4434 505.919 79.1348C505.778 79.8145 505.708 80.541 505.708 81.3145ZM527.917 76.1289V91H522.854V71.9805H527.618L527.917 76.1289ZM533.647 71.8574L533.559 76.5508C533.313 76.5156 533.014 76.4863 532.663 76.4629C532.323 76.4277 532.012 76.4102 531.731 76.4102C531.016 76.4102 530.395 76.5039 529.868 76.6914C529.352 76.8672 528.919 77.1309 528.567 77.4824C528.227 77.834 527.969 78.2617 527.794 78.7656C527.63 79.2695 527.536 79.8438 527.512 80.4883L526.493 80.1719C526.493 78.9414 526.616 77.8105 526.862 76.7793C527.108 75.7363 527.466 74.8281 527.934 74.0547C528.415 73.2812 529.001 72.6836 529.692 72.2617C530.384 71.8398 531.175 71.6289 532.065 71.6289C532.346 71.6289 532.634 71.6523 532.926 71.6992C533.219 71.7344 533.46 71.7871 533.647 71.8574ZM547.313 71.9805V75.5664H536.239V71.9805H547.313ZM538.981 67.2871H544.044V85.2695C544.044 85.8203 544.114 86.2422 544.255 86.5352C544.407 86.8281 544.63 87.0332 544.923 87.1504C545.215 87.2559 545.585 87.3086 546.03 87.3086C546.346 87.3086 546.628 87.2969 546.874 87.2734C547.132 87.2383 547.348 87.2031 547.524 87.168L547.542 90.8945C547.108 91.0352 546.639 91.1465 546.135 91.2285C545.632 91.3105 545.075 91.3516 544.465 91.3516C543.352 91.3516 542.38 91.1699 541.548 90.8066C540.727 90.4316 540.094 89.834 539.649 89.0137C539.204 88.1934 538.981 87.1152 538.981 85.7793V67.2871ZM571.586 86.7109V78.2383C571.586 77.6289 571.487 77.1074 571.288 76.6738C571.088 76.2285 570.778 75.8828 570.356 75.6367C569.946 75.3906 569.413 75.2676 568.756 75.2676C568.194 75.2676 567.707 75.3672 567.297 75.5664C566.887 75.7539 566.571 76.0293 566.348 76.3926C566.125 76.7441 566.014 77.1602 566.014 77.6406H560.952C560.952 76.832 561.139 76.0645 561.514 75.3379C561.889 74.6113 562.434 73.9727 563.149 73.4219C563.864 72.8594 564.713 72.4199 565.698 72.1035C566.694 71.7871 567.807 71.6289 569.038 71.6289C570.514 71.6289 571.827 71.875 572.975 72.3672C574.124 72.8594 575.026 73.5977 575.682 74.582C576.35 75.5664 576.684 76.7969 576.684 78.2734V86.4121C576.684 87.4551 576.749 88.3105 576.877 88.9785C577.006 89.6348 577.194 90.209 577.44 90.7012V91H572.325C572.079 90.4844 571.891 89.8398 571.762 89.0664C571.645 88.2812 571.586 87.4961 571.586 86.7109ZM572.254 79.416L572.29 82.2812H569.459C568.791 82.2812 568.211 82.3574 567.719 82.5098C567.227 82.6621 566.823 82.8789 566.506 83.1602C566.19 83.4297 565.956 83.7461 565.803 84.1094C565.663 84.4727 565.592 84.8711 565.592 85.3047C565.592 85.7383 565.692 86.1309 565.891 86.4824C566.09 86.8223 566.377 87.0918 566.752 87.291C567.127 87.4785 567.567 87.5723 568.071 87.5723C568.832 87.5723 569.495 87.4199 570.057 87.1152C570.62 86.8105 571.053 86.4355 571.358 85.9902C571.674 85.5449 571.838 85.123 571.85 84.7246L573.186 86.8691C572.999 87.3496 572.741 87.8477 572.413 88.3633C572.096 88.8789 571.692 89.3652 571.2 89.8223C570.707 90.2676 570.116 90.6367 569.424 90.9297C568.733 91.2109 567.913 91.3516 566.963 91.3516C565.756 91.3516 564.661 91.1113 563.676 90.6309C562.704 90.1387 561.93 89.4648 561.356 88.6094C560.793 87.7422 560.512 86.7578 560.512 85.6562C560.512 84.6602 560.7 83.7754 561.075 83.002C561.45 82.2285 562 81.5781 562.727 81.0508C563.465 80.5117 564.385 80.1074 565.487 79.8379C566.588 79.5566 567.866 79.416 569.319 79.416H572.254ZM586.623 76.041V91H581.561V71.9805H586.307L586.623 76.041ZM585.885 80.8223H584.514C584.514 79.416 584.696 78.1504 585.059 77.0254C585.422 75.8887 585.932 74.9219 586.588 74.125C587.245 73.3164 588.024 72.7012 588.926 72.2793C589.84 71.8457 590.86 71.6289 591.985 71.6289C592.875 71.6289 593.69 71.7578 594.428 72.0156C595.166 72.2734 595.799 72.6836 596.327 73.2461C596.866 73.8086 597.276 74.5527 597.557 75.4785C597.85 76.4043 597.996 77.5352 597.996 78.8711V91H592.899V78.8535C592.899 78.0098 592.782 77.3535 592.547 76.8848C592.313 76.416 591.967 76.0879 591.51 75.9004C591.065 75.7012 590.514 75.6016 589.858 75.6016C589.178 75.6016 588.586 75.7363 588.082 76.0059C587.59 76.2754 587.18 76.6504 586.852 77.1309C586.536 77.5996 586.295 78.1504 586.131 78.7832C585.967 79.416 585.885 80.0957 585.885 80.8223ZM614.159 86.8516V64H619.256V91H614.668L614.159 86.8516ZM602.135 81.7188V81.3496C602.135 79.8965 602.299 78.5781 602.627 77.3945C602.955 76.1992 603.436 75.1738 604.069 74.3184C604.701 73.4629 605.481 72.8008 606.407 72.332C607.332 71.8633 608.387 71.6289 609.571 71.6289C610.684 71.6289 611.657 71.8633 612.489 72.332C613.332 72.8008 614.047 73.4688 614.633 74.3359C615.231 75.1914 615.711 76.2051 616.075 77.377C616.438 78.5371 616.701 79.8086 616.866 81.1914V82C616.701 83.3242 616.438 84.5547 616.075 85.6914C615.711 86.8281 615.231 87.8242 614.633 88.6797C614.047 89.5234 613.332 90.1797 612.489 90.6484C611.645 91.1172 610.66 91.3516 609.535 91.3516C608.352 91.3516 607.297 91.1113 606.371 90.6309C605.457 90.1504 604.684 89.4766 604.051 88.6094C603.43 87.7422 602.955 86.7227 602.627 85.5508C602.299 84.3789 602.135 83.1016 602.135 81.7188ZM607.198 81.3496V81.7188C607.198 82.5039 607.256 83.2363 607.373 83.916C607.502 84.5957 607.707 85.1992 607.989 85.7266C608.282 86.2422 608.657 86.6465 609.114 86.9395C609.582 87.2207 610.151 87.3613 610.819 87.3613C611.686 87.3613 612.401 87.168 612.963 86.7812C613.526 86.3828 613.953 85.8379 614.246 85.1465C614.551 84.4551 614.727 83.6582 614.774 82.7559V80.4531C614.739 79.7148 614.633 79.0527 614.457 78.4668C614.293 77.8691 614.047 77.3594 613.719 76.9375C613.403 76.5156 613.004 76.1875 612.524 75.9531C612.055 75.7188 611.498 75.6016 610.854 75.6016C610.198 75.6016 609.635 75.7539 609.166 76.0586C608.698 76.3516 608.317 76.7559 608.024 77.2715C607.742 77.7871 607.532 78.3965 607.391 79.0996C607.262 79.791 607.198 80.541 607.198 81.3496ZM637.061 65.4062H641.526L648.1 84.1973L654.674 65.4062H659.139L649.893 91H646.307L637.061 65.4062ZM634.652 65.4062H639.1L639.908 83.7227V91H634.652V65.4062ZM657.1 65.4062H661.565V91H656.291V83.7227L657.1 65.4062ZM675.705 91.3516C674.229 91.3516 672.904 91.1172 671.733 90.6484C670.561 90.168 669.565 89.5059 668.744 88.6621C667.936 87.8184 667.315 86.8398 666.881 85.7266C666.447 84.6016 666.231 83.4062 666.231 82.1406V81.4375C666.231 79.9961 666.436 78.6777 666.846 77.4824C667.256 76.2871 667.842 75.25 668.604 74.3711C669.377 73.4922 670.315 72.8184 671.416 72.3496C672.518 71.8691 673.76 71.6289 675.143 71.6289C676.49 71.6289 677.686 71.8516 678.729 72.2969C679.772 72.7422 680.645 73.375 681.348 74.1953C682.063 75.0156 682.602 76 682.965 77.1484C683.328 78.2852 683.51 79.5508 683.51 80.9453V83.0547H668.393V79.6797H678.535V79.293C678.535 78.5898 678.406 77.9629 678.149 77.4121C677.902 76.8496 677.527 76.4043 677.024 76.0762C676.52 75.748 675.875 75.584 675.09 75.584C674.422 75.584 673.848 75.7305 673.367 76.0234C672.887 76.3164 672.494 76.7266 672.19 77.2539C671.897 77.7812 671.674 78.4023 671.522 79.1172C671.381 79.8203 671.311 80.5938 671.311 81.4375V82.1406C671.311 82.9023 671.416 83.6055 671.627 84.25C671.85 84.8945 672.16 85.4512 672.559 85.9199C672.969 86.3887 673.461 86.752 674.035 87.0098C674.621 87.2676 675.283 87.3965 676.022 87.3965C676.936 87.3965 677.785 87.2207 678.57 86.8691C679.367 86.5059 680.053 85.9609 680.627 85.2344L683.088 87.9062C682.69 88.4805 682.145 89.0312 681.453 89.5586C680.774 90.0859 679.953 90.5195 678.992 90.8594C678.031 91.1875 676.936 91.3516 675.705 91.3516ZM692.43 76.041V91H687.367V71.9805H692.113L692.43 76.041ZM691.691 80.8223H690.32C690.32 79.416 690.502 78.1504 690.865 77.0254C691.229 75.8887 691.738 74.9219 692.395 74.125C693.051 73.3164 693.83 72.7012 694.732 72.2793C695.646 71.8457 696.666 71.6289 697.791 71.6289C698.682 71.6289 699.496 71.7578 700.234 72.0156C700.973 72.2734 701.605 72.6836 702.133 73.2461C702.672 73.8086 703.082 74.5527 703.363 75.4785C703.656 76.4043 703.803 77.5352 703.803 78.8711V91H698.705V78.8535C698.705 78.0098 698.588 77.3535 698.354 76.8848C698.119 76.416 697.773 76.0879 697.316 75.9004C696.871 75.7012 696.32 75.6016 695.664 75.6016C694.984 75.6016 694.393 75.7363 693.889 76.0059C693.396 76.2754 692.986 76.6504 692.658 77.1309C692.342 77.5996 692.102 78.1504 691.938 78.7832C691.773 79.416 691.691 80.0957 691.691 80.8223ZM718.049 71.9805V75.5664H706.975V71.9805H718.049ZM709.717 67.2871H714.779V85.2695C714.779 85.8203 714.85 86.2422 714.99 86.5352C715.142 86.8281 715.365 87.0332 715.658 87.1504C715.951 87.2559 716.32 87.3086 716.766 87.3086C717.082 87.3086 717.363 87.2969 717.609 87.2734C717.867 87.2383 718.084 87.2031 718.26 87.168L718.277 90.8945C717.844 91.0352 717.375 91.1465 716.871 91.2285C716.367 91.3105 715.81 91.3516 715.201 91.3516C714.088 91.3516 713.115 91.1699 712.283 90.8066C711.463 90.4316 710.83 89.834 710.385 89.0137C709.939 88.1934 709.717 87.1152 709.717 85.7793V67.2871ZM720.746 81.6836V81.3145C720.746 79.9199 720.945 78.6367 721.344 77.4648C721.742 76.2812 722.322 75.2559 723.084 74.3887C723.846 73.5215 724.783 72.8477 725.896 72.3672C727.01 71.875 728.287 71.6289 729.728 71.6289C731.17 71.6289 732.453 71.875 733.578 72.3672C734.703 72.8477 735.646 73.5215 736.408 74.3887C737.181 75.2559 737.767 76.2812 738.166 77.4648C738.564 78.6367 738.764 79.9199 738.764 81.3145V81.6836C738.764 83.0664 738.564 84.3496 738.166 85.5332C737.767 86.7051 737.181 87.7305 736.408 88.6094C735.646 89.4766 734.709 90.1504 733.596 90.6309C732.482 91.1113 731.205 91.3516 729.764 91.3516C728.322 91.3516 727.039 91.1113 725.914 90.6309C724.801 90.1504 723.857 89.4766 723.084 88.6094C722.322 87.7305 721.742 86.7051 721.344 85.5332C720.945 84.3496 720.746 83.0664 720.746 81.6836ZM725.808 81.3145V81.6836C725.808 82.4805 725.879 83.2246 726.019 83.916C726.16 84.6074 726.383 85.2168 726.687 85.7441C727.004 86.2598 727.414 86.6641 727.918 86.957C728.422 87.25 729.037 87.3965 729.764 87.3965C730.467 87.3965 731.07 87.25 731.574 86.957C732.078 86.6641 732.482 86.2598 732.787 85.7441C733.092 85.2168 733.314 84.6074 733.455 83.916C733.607 83.2246 733.683 82.4805 733.683 81.6836V81.3145C733.683 80.541 733.607 79.8145 733.455 79.1348C733.314 78.4434 733.086 77.834 732.769 77.3066C732.465 76.7676 732.06 76.3457 731.556 76.041C731.053 75.7363 730.443 75.584 729.728 75.584C729.014 75.584 728.404 75.7363 727.9 76.041C727.408 76.3457 727.004 76.7676 726.687 77.3066C726.383 77.834 726.16 78.4434 726.019 79.1348C725.879 79.8145 725.808 80.541 725.808 81.3145ZM748.017 76.1289V91H742.955V71.9805H747.719L748.017 76.1289ZM753.748 71.8574L753.66 76.5508C753.414 76.5156 753.115 76.4863 752.763 76.4629C752.424 76.4277 752.113 76.4102 751.832 76.4102C751.117 76.4102 750.496 76.5039 749.969 76.6914C749.453 76.8672 749.019 77.1309 748.668 77.4824C748.328 77.834 748.07 78.2617 747.894 78.7656C747.73 79.2695 747.636 79.8438 747.613 80.4883L746.594 80.1719C746.594 78.9414 746.717 77.8105 746.963 76.7793C747.209 75.7363 747.566 74.8281 748.035 74.0547C748.515 73.2812 749.101 72.6836 749.793 72.2617C750.484 71.8398 751.275 71.6289 752.166 71.6289C752.447 71.6289 752.734 71.6523 753.027 71.6992C753.32 71.7344 753.56 71.7871 753.748 71.8574ZM767.502 85.7441C767.502 85.3809 767.396 85.0527 767.185 84.7598C766.974 84.4668 766.582 84.1973 766.008 83.9512C765.445 83.6934 764.631 83.459 763.564 83.248C762.603 83.0371 761.707 82.7734 760.875 82.457C760.054 82.1289 759.34 81.7363 758.73 81.2793C758.133 80.8223 757.664 80.2832 757.324 79.6621C756.984 79.0293 756.814 78.3086 756.814 77.5C756.814 76.7031 756.984 75.9531 757.324 75.25C757.675 74.5469 758.174 73.9258 758.818 73.3867C759.474 72.8359 760.271 72.4082 761.209 72.1035C762.158 71.7871 763.224 71.6289 764.408 71.6289C766.06 71.6289 767.478 71.8926 768.662 72.4199C769.857 72.9473 770.771 73.6738 771.404 74.5996C772.049 75.5137 772.371 76.5566 772.371 77.7285H767.308C767.308 77.2363 767.203 76.7969 766.992 76.4102C766.793 76.0117 766.476 75.7012 766.043 75.4785C765.621 75.2441 765.07 75.127 764.39 75.127C763.828 75.127 763.341 75.2266 762.931 75.4258C762.521 75.6133 762.205 75.8711 761.982 76.1992C761.771 76.5156 761.666 76.8672 761.666 77.2539C761.666 77.5469 761.724 77.8105 761.841 78.0449C761.97 78.2676 762.175 78.4727 762.457 78.6602C762.738 78.8477 763.101 79.0234 763.547 79.1875C764.004 79.3398 764.566 79.4805 765.234 79.6094C766.605 79.8906 767.83 80.2598 768.908 80.7168C769.986 81.1621 770.841 81.7715 771.474 82.5449C772.107 83.3066 772.424 84.3086 772.424 85.5508C772.424 86.3945 772.236 87.168 771.861 87.8711C771.486 88.5742 770.947 89.1895 770.244 89.7168C769.541 90.2324 768.697 90.6367 767.713 90.9297C766.74 91.2109 765.644 91.3516 764.425 91.3516C762.656 91.3516 761.156 91.0352 759.925 90.4023C758.707 89.7695 757.781 88.9668 757.148 87.9941C756.527 87.0098 756.216 86.002 756.216 84.9707H761.015C761.039 85.6621 761.215 86.2188 761.543 86.6406C761.883 87.0625 762.31 87.3672 762.826 87.5547C763.353 87.7422 763.922 87.8359 764.531 87.8359C765.187 87.8359 765.732 87.748 766.166 87.5723C766.599 87.3848 766.927 87.1387 767.15 86.834C767.384 86.5176 767.502 86.1543 767.502 85.7441ZM781.73 64V91H776.668V64H781.73ZM781.009 80.8223H779.621C779.632 79.498 779.808 78.2793 780.148 77.166C780.488 76.041 780.974 75.0684 781.607 74.248C782.24 73.416 782.996 72.7715 783.875 72.3145C784.765 71.8574 785.75 71.6289 786.828 71.6289C787.765 71.6289 788.615 71.7637 789.377 72.0332C790.15 72.291 790.812 72.7129 791.363 73.2988C791.925 73.873 792.359 74.6289 792.664 75.5664C792.968 76.5039 793.121 77.6406 793.121 78.9766V91H788.023V78.9414C788.023 78.0977 787.9 77.4355 787.654 76.9551C787.42 76.4629 787.074 76.1172 786.617 75.918C786.172 75.707 785.621 75.6016 784.964 75.6016C784.238 75.6016 783.617 75.7363 783.101 76.0059C782.597 76.2754 782.193 76.6504 781.888 77.1309C781.584 77.5996 781.361 78.1504 781.22 78.7832C781.08 79.416 781.009 80.0957 781.009 80.8223ZM803.394 71.9805V91H798.314V71.9805H803.394ZM797.998 67.0234C797.998 66.2852 798.255 65.6758 798.771 65.1953C799.287 64.7148 799.978 64.4746 800.845 64.4746C801.701 64.4746 802.386 64.7148 802.902 65.1953C803.429 65.6758 803.693 66.2852 803.693 67.0234C803.693 67.7617 803.429 68.3711 802.902 68.8516C802.386 69.332 801.701 69.5723 800.845 69.5723C799.978 69.5723 799.287 69.332 798.771 68.8516C798.255 68.3711 797.998 67.7617 797.998 67.0234ZM813.72 75.6367V98.3125H808.658V71.9805H813.351L813.72 75.6367ZM825.761 81.2793V81.6484C825.761 83.0312 825.597 84.3145 825.269 85.498C824.953 86.6816 824.484 87.7129 823.863 88.5918C823.242 89.459 822.468 90.1387 821.542 90.6309C820.628 91.1113 819.574 91.3516 818.378 91.3516C817.218 91.3516 816.21 91.1172 815.355 90.6484C814.499 90.1797 813.779 89.5234 813.193 88.6797C812.619 87.8242 812.156 86.834 811.804 85.709C811.453 84.584 811.183 83.377 810.996 82.0879V81.1211C811.183 79.7383 811.453 78.4727 811.804 77.3242C812.156 76.1641 812.619 75.1621 813.193 74.3184C813.779 73.4629 814.494 72.8008 815.337 72.332C816.193 71.8633 817.195 71.6289 818.343 71.6289C819.55 71.6289 820.611 71.8574 821.525 72.3145C822.451 72.7715 823.224 73.4277 823.845 74.2832C824.478 75.1387 824.953 76.1582 825.269 77.3418C825.597 78.5254 825.761 79.8379 825.761 81.2793ZM820.681 81.6484V81.2793C820.681 80.4707 820.611 79.7266 820.47 79.0469C820.341 78.3555 820.13 77.752 819.837 77.2363C819.556 76.7207 819.181 76.3223 818.712 76.041C818.255 75.748 817.699 75.6016 817.042 75.6016C816.351 75.6016 815.759 75.7129 815.267 75.9355C814.787 76.1582 814.394 76.4805 814.089 76.9023C813.785 77.3242 813.556 77.8281 813.404 78.4141C813.251 79 813.158 79.6621 813.122 80.4004V82.8438C813.181 83.7109 813.345 84.4902 813.615 85.1816C813.884 85.8613 814.3 86.4004 814.863 86.7988C815.425 87.1973 816.164 87.3965 817.078 87.3965C817.746 87.3965 818.308 87.25 818.765 86.957C819.222 86.6523 819.591 86.2363 819.872 85.709C820.165 85.1816 820.371 84.5723 820.488 83.8809C820.617 83.1895 820.681 82.4453 820.681 81.6484Z" fill="white"/>
<circle cx="95.5" cy="78.5" r="53.5" fill="#114DFF"/>
<g clip-path="url(#clip0_138_881)">
<path d="M118.35 46.1732L124.647 65.581C124.845 66.2 125.419 66.6089 126.058 66.6089H146.424C150.857 66.6089 152.699 72.2898 149.115 74.8981L132.641 86.8899C132.123 87.2657 131.902 87.9399 132.101 88.5588L138.397 107.967C139.764 112.189 134.946 115.703 131.362 113.095L114.888 101.103C114.37 100.727 113.664 100.727 113.146 101.103L96.672 113.095C93.0884 115.703 88.2587 112.189 89.637 107.967L95.9333 88.5588C96.1317 87.9399 95.9112 87.2767 95.393 86.8899L78.8971 74.9092C75.3134 72.3008 77.1548 66.62 81.5876 66.62H101.954C102.593 66.62 103.167 66.2 103.365 65.5921L109.65 46.1732C111.018 41.9512 116.983 41.9512 118.35 46.1732Z" fill="#3CE5A7"/>
</g>
<defs>
<filter id="filter0_d_138_881" x="0" y="0" width="951" height="165" filterUnits="userSpaceOnUse" color-interpolation-filters="sRGB">
<feFlood flood-opacity="0" result="BackgroundImageFix"/>
<feColorMatrix in="SourceAlpha" type="matrix" values="0 0 0 0 0 0 0 0 0 0 0 0 0 0 0 0 0 0 127 0" result="hardAlpha"/>
<feOffset dy="4"/>
<feGaussianBlur stdDeviation="2"/>
<feComposite in2="hardAlpha" operator="out"/>
<feColorMatrix type="matrix" values="0 0 0 0 0 0 0 0 0 0 0 0 0 0 0 0 0 0 0.13 0"/>
<feBlend mode="normal" in2="BackgroundImageFix" result="effect1_dropShadow_138_881"/>
<feBlend mode="normal" in="SourceGraphic" in2="effect1_dropShadow_138_881" result="shape"/>
</filter>
<clipPath id="clip0_138_881">
<rect width="74" height="71" fill="white" transform="translate(77 43)"/>
</clipPath>
</defs>
</svg>
