<svg width="408" height="245" viewBox="0 0 408 245" fill="none" xmlns="http://www.w3.org/2000/svg">
<g filter="url(#filter0_d_138_1011)">
<rect x="4" y="33" width="400" height="204" rx="102" fill="#06288B"/>
</g>
<path d="M71.4962 129.047C71.4962 128.641 71.4337 128.276 71.3087 127.953C71.1942 127.62 70.9754 127.318 70.6525 127.047C70.3296 126.766 69.8765 126.49 69.2931 126.219C68.7098 125.948 67.9546 125.667 67.0275 125.375C65.9962 125.042 65.0171 124.667 64.09 124.25C63.1733 123.833 62.3608 123.349 61.6525 122.797C60.9546 122.234 60.4025 121.583 59.9962 120.844C59.6004 120.104 59.4025 119.245 59.4025 118.266C59.4025 117.318 59.6108 116.458 60.0275 115.688C60.4442 114.906 61.0275 114.24 61.7775 113.688C62.5275 113.125 63.4129 112.693 64.4337 112.391C65.465 112.089 66.5952 111.938 67.8244 111.938C69.5015 111.938 70.965 112.24 72.215 112.844C73.465 113.448 74.4337 114.276 75.1212 115.328C75.8192 116.38 76.1681 117.583 76.1681 118.938H71.5119C71.5119 118.271 71.3712 117.688 71.09 117.188C70.8192 116.677 70.4025 116.276 69.84 115.984C69.2879 115.693 68.59 115.547 67.7462 115.547C66.9337 115.547 66.2567 115.672 65.715 115.922C65.1733 116.161 64.7671 116.49 64.4962 116.906C64.2254 117.312 64.09 117.771 64.09 118.281C64.09 118.667 64.1837 119.016 64.3712 119.328C64.5692 119.641 64.8608 119.932 65.2462 120.203C65.6317 120.474 66.1056 120.729 66.6681 120.969C67.2306 121.208 67.8817 121.443 68.6212 121.672C69.8608 122.047 70.9494 122.469 71.8869 122.938C72.8348 123.406 73.6265 123.932 74.2619 124.516C74.8973 125.099 75.3765 125.76 75.6994 126.5C76.0223 127.24 76.1837 128.078 76.1837 129.016C76.1837 130.005 75.991 130.891 75.6056 131.672C75.2202 132.453 74.6629 133.115 73.9337 133.656C73.2046 134.198 72.3348 134.609 71.3244 134.891C70.314 135.172 69.1837 135.312 67.9337 135.312C66.8087 135.312 65.6994 135.167 64.6056 134.875C63.5119 134.573 62.5171 134.12 61.6212 133.516C60.7358 132.911 60.0275 132.141 59.4962 131.203C58.965 130.266 58.6994 129.156 58.6994 127.875H63.4025C63.4025 128.583 63.5119 129.182 63.7306 129.672C63.9494 130.161 64.2567 130.557 64.6525 130.859C65.0587 131.161 65.5379 131.38 66.09 131.516C66.6525 131.651 67.2671 131.719 67.9337 131.719C68.7462 131.719 69.4129 131.604 69.9337 131.375C70.465 131.146 70.8556 130.828 71.1056 130.422C71.366 130.016 71.4962 129.557 71.4962 129.047ZM88.3312 118.094V121.281H78.4875V118.094H88.3312ZM80.925 113.922H85.425V129.906C85.425 130.396 85.4875 130.771 85.6125 131.031C85.7479 131.292 85.9458 131.474 86.2062 131.578C86.4667 131.672 86.7948 131.719 87.1906 131.719C87.4719 131.719 87.7219 131.708 87.9406 131.688C88.1698 131.656 88.3625 131.625 88.5187 131.594L88.5344 134.906C88.149 135.031 87.7323 135.13 87.2844 135.203C86.8365 135.276 86.3417 135.312 85.8 135.312C84.8104 135.312 83.9458 135.151 83.2062 134.828C82.4771 134.495 81.9146 133.964 81.5187 133.234C81.1229 132.505 80.925 131.547 80.925 130.359V113.922ZM96.3537 121.781V135H91.8537V118.094H96.0881L96.3537 121.781ZM101.447 117.984L101.369 122.156C101.151 122.125 100.885 122.099 100.572 122.078C100.27 122.047 99.9944 122.031 99.7444 122.031C99.109 122.031 98.5569 122.115 98.0881 122.281C97.6298 122.438 97.2444 122.672 96.9319 122.984C96.6298 123.297 96.4006 123.677 96.2444 124.125C96.0985 124.573 96.0152 125.083 95.9944 125.656L95.0881 125.375C95.0881 124.281 95.1975 123.276 95.4162 122.359C95.635 121.432 95.9527 120.625 96.3694 119.938C96.7965 119.25 97.3173 118.719 97.9319 118.344C98.5465 117.969 99.2496 117.781 100.041 117.781C100.291 117.781 100.546 117.802 100.807 117.844C101.067 117.875 101.281 117.922 101.447 117.984ZM114.533 130.953V118.094H119.033V135H114.798L114.533 130.953ZM115.033 127.484L116.361 127.453C116.361 128.578 116.23 129.625 115.97 130.594C115.71 131.552 115.319 132.385 114.798 133.094C114.277 133.792 113.621 134.339 112.829 134.734C112.038 135.12 111.105 135.312 110.033 135.312C109.21 135.312 108.449 135.198 107.751 134.969C107.064 134.729 106.47 134.359 105.97 133.859C105.48 133.349 105.095 132.698 104.814 131.906C104.543 131.104 104.408 130.141 104.408 129.016V118.094H108.908V129.047C108.908 129.547 108.965 129.969 109.079 130.312C109.204 130.656 109.376 130.938 109.595 131.156C109.814 131.375 110.069 131.531 110.361 131.625C110.663 131.719 110.996 131.766 111.361 131.766C112.288 131.766 113.017 131.578 113.548 131.203C114.09 130.828 114.47 130.318 114.689 129.672C114.918 129.016 115.033 128.286 115.033 127.484ZM130.414 131.797C130.966 131.797 131.456 131.693 131.883 131.484C132.31 131.266 132.644 130.964 132.883 130.578C133.133 130.182 133.263 129.719 133.274 129.188H137.508C137.498 130.375 137.18 131.432 136.555 132.359C135.93 133.276 135.091 134 134.039 134.531C132.987 135.052 131.81 135.312 130.508 135.312C129.196 135.312 128.05 135.094 127.071 134.656C126.102 134.219 125.295 133.615 124.649 132.844C124.003 132.062 123.519 131.156 123.196 130.125C122.873 129.083 122.711 127.969 122.711 126.781V126.328C122.711 125.13 122.873 124.016 123.196 122.984C123.519 121.943 124.003 121.036 124.649 120.266C125.295 119.484 126.102 118.875 127.071 118.438C128.039 118 129.175 117.781 130.477 117.781C131.862 117.781 133.076 118.047 134.117 118.578C135.17 119.109 135.992 119.87 136.586 120.859C137.19 121.839 137.498 123 137.508 124.344H133.274C133.263 123.781 133.144 123.271 132.914 122.812C132.696 122.354 132.373 121.99 131.946 121.719C131.529 121.438 131.013 121.297 130.399 121.297C129.742 121.297 129.206 121.438 128.789 121.719C128.373 121.99 128.05 122.365 127.821 122.844C127.591 123.312 127.43 123.849 127.336 124.453C127.253 125.047 127.211 125.672 127.211 126.328V126.781C127.211 127.438 127.253 128.068 127.336 128.672C127.42 129.276 127.576 129.812 127.805 130.281C128.045 130.75 128.373 131.12 128.789 131.391C129.206 131.661 129.748 131.797 130.414 131.797ZM149.359 118.094V121.281H139.515V118.094H149.359ZM141.952 113.922H146.452V129.906C146.452 130.396 146.515 130.771 146.64 131.031C146.775 131.292 146.973 131.474 147.234 131.578C147.494 131.672 147.822 131.719 148.218 131.719C148.499 131.719 148.749 131.708 148.968 131.688C149.197 131.656 149.39 131.625 149.546 131.594L149.562 134.906C149.176 135.031 148.76 135.13 148.312 135.203C147.864 135.276 147.369 135.312 146.827 135.312C145.838 135.312 144.973 135.151 144.234 134.828C143.505 134.495 142.942 133.964 142.546 133.234C142.15 132.505 141.952 131.547 141.952 130.359V113.922ZM162.881 130.953V118.094H167.381V135H163.147L162.881 130.953ZM163.381 127.484L164.709 127.453C164.709 128.578 164.579 129.625 164.319 130.594C164.058 131.552 163.668 132.385 163.147 133.094C162.626 133.792 161.97 134.339 161.178 134.734C160.386 135.12 159.454 135.312 158.381 135.312C157.558 135.312 156.798 135.198 156.1 134.969C155.413 134.729 154.819 134.359 154.319 133.859C153.829 133.349 153.444 132.698 153.163 131.906C152.892 131.104 152.756 130.141 152.756 129.016V118.094H157.256V129.047C157.256 129.547 157.314 129.969 157.428 130.312C157.553 130.656 157.725 130.938 157.944 131.156C158.163 131.375 158.418 131.531 158.709 131.625C159.011 131.719 159.345 131.766 159.709 131.766C160.636 131.766 161.366 131.578 161.897 131.203C162.439 130.828 162.819 130.318 163.038 129.672C163.267 129.016 163.381 128.286 163.381 127.484ZM176.279 121.781V135H171.779V118.094H176.013L176.279 121.781ZM181.372 117.984L181.294 122.156C181.076 122.125 180.81 122.099 180.497 122.078C180.195 122.047 179.919 122.031 179.669 122.031C179.034 122.031 178.482 122.115 178.013 122.281C177.555 122.438 177.169 122.672 176.857 122.984C176.555 123.297 176.326 123.677 176.169 124.125C176.024 124.573 175.94 125.083 175.919 125.656L175.013 125.375C175.013 124.281 175.122 123.276 175.341 122.359C175.56 121.432 175.878 120.625 176.294 119.938C176.721 119.25 177.242 118.719 177.857 118.344C178.471 117.969 179.175 117.781 179.966 117.781C180.216 117.781 180.471 117.802 180.732 117.844C180.992 117.875 181.206 117.922 181.372 117.984ZM191.926 135.312C190.614 135.312 189.437 135.104 188.395 134.688C187.353 134.26 186.468 133.672 185.739 132.922C185.02 132.172 184.468 131.302 184.082 130.312C183.697 129.312 183.504 128.25 183.504 127.125V126.5C183.504 125.219 183.687 124.047 184.051 122.984C184.416 121.922 184.937 121 185.614 120.219C186.301 119.438 187.135 118.839 188.114 118.422C189.093 117.995 190.197 117.781 191.426 117.781C192.624 117.781 193.687 117.979 194.614 118.375C195.541 118.771 196.317 119.333 196.942 120.062C197.577 120.792 198.056 121.667 198.379 122.688C198.702 123.698 198.864 124.823 198.864 126.062V127.938H185.426V124.938H194.442V124.594C194.442 123.969 194.327 123.411 194.098 122.922C193.879 122.422 193.546 122.026 193.098 121.734C192.65 121.443 192.077 121.297 191.379 121.297C190.786 121.297 190.275 121.427 189.848 121.688C189.421 121.948 189.072 122.312 188.801 122.781C188.541 123.25 188.343 123.802 188.207 124.438C188.082 125.062 188.02 125.75 188.02 126.5V127.125C188.02 127.802 188.114 128.427 188.301 129C188.499 129.573 188.775 130.068 189.129 130.484C189.494 130.901 189.931 131.224 190.442 131.453C190.963 131.682 191.551 131.797 192.207 131.797C193.02 131.797 193.775 131.641 194.473 131.328C195.181 131.005 195.791 130.521 196.301 129.875L198.489 132.25C198.135 132.76 197.65 133.25 197.036 133.719C196.431 134.188 195.702 134.573 194.848 134.875C193.994 135.167 193.02 135.312 191.926 135.312ZM212.371 131.312V111H216.902V135H212.824L212.371 131.312ZM201.683 126.75V126.422C201.683 125.13 201.829 123.958 202.121 122.906C202.412 121.844 202.839 120.932 203.402 120.172C203.964 119.411 204.657 118.823 205.48 118.406C206.303 117.99 207.24 117.781 208.292 117.781C209.282 117.781 210.147 117.99 210.886 118.406C211.636 118.823 212.272 119.417 212.792 120.188C213.324 120.948 213.751 121.849 214.074 122.891C214.397 123.922 214.631 125.052 214.777 126.281V127C214.631 128.177 214.397 129.271 214.074 130.281C213.751 131.292 213.324 132.177 212.792 132.938C212.272 133.688 211.636 134.271 210.886 134.688C210.136 135.104 209.261 135.312 208.261 135.312C207.209 135.312 206.272 135.099 205.449 134.672C204.636 134.245 203.949 133.646 203.386 132.875C202.834 132.104 202.412 131.198 202.121 130.156C201.829 129.115 201.683 127.979 201.683 126.75ZM206.183 126.422V126.75C206.183 127.448 206.235 128.099 206.339 128.703C206.454 129.307 206.636 129.844 206.886 130.312C207.147 130.771 207.48 131.13 207.886 131.391C208.303 131.641 208.808 131.766 209.402 131.766C210.173 131.766 210.808 131.594 211.308 131.25C211.808 130.896 212.188 130.411 212.449 129.797C212.72 129.182 212.876 128.474 212.917 127.672V125.625C212.886 124.969 212.792 124.38 212.636 123.859C212.49 123.328 212.272 122.875 211.98 122.5C211.699 122.125 211.345 121.833 210.917 121.625C210.501 121.417 210.006 121.312 209.433 121.312C208.85 121.312 208.35 121.448 207.933 121.719C207.516 121.979 207.178 122.339 206.917 122.797C206.667 123.255 206.48 123.797 206.355 124.422C206.24 125.036 206.183 125.703 206.183 126.422ZM242.431 129.047C242.431 128.641 242.369 128.276 242.244 127.953C242.129 127.62 241.91 127.318 241.587 127.047C241.265 126.766 240.811 126.49 240.228 126.219C239.645 125.948 238.89 125.667 237.962 125.375C236.931 125.042 235.952 124.667 235.025 124.25C234.108 123.833 233.296 123.349 232.587 122.797C231.89 122.234 231.337 121.583 230.931 120.844C230.535 120.104 230.337 119.245 230.337 118.266C230.337 117.318 230.546 116.458 230.962 115.688C231.379 114.906 231.962 114.24 232.712 113.688C233.462 113.125 234.348 112.693 235.369 112.391C236.4 112.089 237.53 111.938 238.759 111.938C240.436 111.938 241.9 112.24 243.15 112.844C244.4 113.448 245.369 114.276 246.056 115.328C246.754 116.38 247.103 117.583 247.103 118.938H242.447C242.447 118.271 242.306 117.688 242.025 117.188C241.754 116.677 241.337 116.276 240.775 115.984C240.223 115.693 239.525 115.547 238.681 115.547C237.869 115.547 237.192 115.672 236.65 115.922C236.108 116.161 235.702 116.49 235.431 116.906C235.16 117.312 235.025 117.771 235.025 118.281C235.025 118.667 235.119 119.016 235.306 119.328C235.504 119.641 235.796 119.932 236.181 120.203C236.567 120.474 237.041 120.729 237.603 120.969C238.166 121.208 238.817 121.443 239.556 121.672C240.796 122.047 241.884 122.469 242.822 122.938C243.77 123.406 244.561 123.932 245.197 124.516C245.832 125.099 246.311 125.76 246.634 126.5C246.957 127.24 247.119 128.078 247.119 129.016C247.119 130.005 246.926 130.891 246.541 131.672C246.155 132.453 245.598 133.115 244.869 133.656C244.14 134.198 243.27 134.609 242.259 134.891C241.249 135.172 240.119 135.312 238.869 135.312C237.744 135.312 236.634 135.167 235.541 134.875C234.447 134.573 233.452 134.12 232.556 133.516C231.671 132.911 230.962 132.141 230.431 131.203C229.9 130.266 229.634 129.156 229.634 127.875H234.337C234.337 128.583 234.447 129.182 234.666 129.672C234.884 130.161 235.192 130.557 235.587 130.859C235.994 131.161 236.473 131.38 237.025 131.516C237.587 131.651 238.202 131.719 238.869 131.719C239.681 131.719 240.348 131.604 240.869 131.375C241.4 131.146 241.791 130.828 242.041 130.422C242.301 130.016 242.431 129.557 242.431 129.047ZM260.985 130.953V118.094H265.485V135H261.251L260.985 130.953ZM261.485 127.484L262.813 127.453C262.813 128.578 262.683 129.625 262.423 130.594C262.162 131.552 261.771 132.385 261.251 133.094C260.73 133.792 260.074 134.339 259.282 134.734C258.49 135.12 257.558 135.312 256.485 135.312C255.662 135.312 254.902 135.198 254.204 134.969C253.516 134.729 252.923 134.359 252.423 133.859C251.933 133.349 251.548 132.698 251.266 131.906C250.995 131.104 250.86 130.141 250.86 129.016V118.094H255.36V129.047C255.36 129.547 255.417 129.969 255.532 130.312C255.657 130.656 255.829 130.938 256.048 131.156C256.266 131.375 256.521 131.531 256.813 131.625C257.115 131.719 257.449 131.766 257.813 131.766C258.74 131.766 259.469 131.578 260.001 131.203C260.542 130.828 260.923 130.318 261.141 129.672C261.37 129.016 261.485 128.286 261.485 127.484ZM274.383 121.344V141.5H269.883V118.094H274.054L274.383 121.344ZM285.086 126.359V126.688C285.086 127.917 284.94 129.057 284.648 130.109C284.367 131.161 283.95 132.078 283.398 132.859C282.846 133.63 282.159 134.234 281.336 134.672C280.523 135.099 279.586 135.312 278.523 135.312C277.492 135.312 276.596 135.104 275.836 134.688C275.075 134.271 274.435 133.688 273.914 132.938C273.403 132.177 272.992 131.297 272.679 130.297C272.367 129.297 272.127 128.224 271.961 127.078V126.219C272.127 124.99 272.367 123.865 272.679 122.844C272.992 121.812 273.403 120.922 273.914 120.172C274.435 119.411 275.07 118.823 275.82 118.406C276.58 117.99 277.471 117.781 278.492 117.781C279.565 117.781 280.508 117.984 281.32 118.391C282.143 118.797 282.83 119.38 283.383 120.141C283.945 120.901 284.367 121.807 284.648 122.859C284.94 123.911 285.086 125.078 285.086 126.359ZM280.57 126.688V126.359C280.57 125.641 280.508 124.979 280.383 124.375C280.268 123.76 280.08 123.224 279.82 122.766C279.57 122.307 279.237 121.953 278.82 121.703C278.414 121.443 277.919 121.312 277.336 121.312C276.721 121.312 276.195 121.411 275.758 121.609C275.33 121.807 274.981 122.094 274.711 122.469C274.44 122.844 274.237 123.292 274.101 123.812C273.966 124.333 273.883 124.922 273.851 125.578V127.75C273.903 128.521 274.049 129.214 274.289 129.828C274.528 130.432 274.898 130.911 275.398 131.266C275.898 131.62 276.554 131.797 277.367 131.797C277.961 131.797 278.461 131.667 278.867 131.406C279.273 131.135 279.601 130.766 279.851 130.297C280.112 129.828 280.294 129.286 280.398 128.672C280.513 128.057 280.57 127.396 280.57 126.688ZM293.342 121.344V141.5H288.842V118.094H293.014L293.342 121.344ZM304.046 126.359V126.688C304.046 127.917 303.9 129.057 303.608 130.109C303.327 131.161 302.91 132.078 302.358 132.859C301.806 133.63 301.119 134.234 300.296 134.672C299.483 135.099 298.546 135.312 297.483 135.312C296.452 135.312 295.556 135.104 294.796 134.688C294.035 134.271 293.395 133.688 292.874 132.938C292.363 132.177 291.952 131.297 291.639 130.297C291.327 129.297 291.087 128.224 290.921 127.078V126.219C291.087 124.99 291.327 123.865 291.639 122.844C291.952 121.812 292.363 120.922 292.874 120.172C293.395 119.411 294.03 118.823 294.78 118.406C295.54 117.99 296.431 117.781 297.452 117.781C298.525 117.781 299.467 117.984 300.28 118.391C301.103 118.797 301.79 119.38 302.342 120.141C302.905 120.901 303.327 121.807 303.608 122.859C303.9 123.911 304.046 125.078 304.046 126.359ZM299.53 126.688V126.359C299.53 125.641 299.467 124.979 299.342 124.375C299.228 123.76 299.04 123.224 298.78 122.766C298.53 122.307 298.197 121.953 297.78 121.703C297.374 121.443 296.879 121.312 296.296 121.312C295.681 121.312 295.155 121.411 294.717 121.609C294.29 121.807 293.941 122.094 293.671 122.469C293.4 122.844 293.197 123.292 293.061 123.812C292.926 124.333 292.842 124.922 292.811 125.578V127.75C292.863 128.521 293.009 129.214 293.249 129.828C293.488 130.432 293.858 130.911 294.358 131.266C294.858 131.62 295.514 131.797 296.327 131.797C296.921 131.797 297.421 131.667 297.827 131.406C298.233 131.135 298.561 130.766 298.811 130.297C299.072 129.828 299.254 129.286 299.358 128.672C299.473 128.057 299.53 127.396 299.53 126.688ZM307.084 126.719V126.391C307.084 125.151 307.261 124.01 307.615 122.969C307.969 121.917 308.485 121.005 309.162 120.234C309.839 119.464 310.672 118.865 311.662 118.438C312.651 118 313.787 117.781 315.068 117.781C316.349 117.781 317.49 118 318.49 118.438C319.49 118.865 320.329 119.464 321.006 120.234C321.693 121.005 322.214 121.917 322.568 122.969C322.922 124.01 323.099 125.151 323.099 126.391V126.719C323.099 127.948 322.922 129.089 322.568 130.141C322.214 131.182 321.693 132.094 321.006 132.875C320.329 133.646 319.495 134.245 318.506 134.672C317.516 135.099 316.381 135.312 315.099 135.312C313.818 135.312 312.677 135.099 311.677 134.672C310.688 134.245 309.849 133.646 309.162 132.875C308.485 132.094 307.969 131.182 307.615 130.141C307.261 129.089 307.084 127.948 307.084 126.719ZM311.584 126.391V126.719C311.584 127.427 311.646 128.089 311.771 128.703C311.896 129.318 312.094 129.859 312.365 130.328C312.646 130.786 313.011 131.146 313.459 131.406C313.907 131.667 314.454 131.797 315.099 131.797C315.724 131.797 316.261 131.667 316.709 131.406C317.157 131.146 317.516 130.786 317.787 130.328C318.058 129.859 318.256 129.318 318.381 128.703C318.516 128.089 318.584 127.427 318.584 126.719V126.391C318.584 125.703 318.516 125.057 318.381 124.453C318.256 123.839 318.052 123.297 317.771 122.828C317.5 122.349 317.141 121.974 316.693 121.703C316.245 121.432 315.704 121.297 315.068 121.297C314.433 121.297 313.891 121.432 313.443 121.703C313.006 121.974 312.646 122.349 312.365 122.828C312.094 123.297 311.896 123.839 311.771 124.453C311.646 125.057 311.584 125.703 311.584 126.391ZM331.325 121.781V135H326.825V118.094H331.059L331.325 121.781ZM336.419 117.984L336.341 122.156C336.122 122.125 335.856 122.099 335.544 122.078C335.242 122.047 334.966 122.031 334.716 122.031C334.08 122.031 333.528 122.115 333.059 122.281C332.601 122.438 332.216 122.672 331.903 122.984C331.601 123.297 331.372 123.677 331.216 124.125C331.07 124.573 330.986 125.083 330.966 125.656L330.059 125.375C330.059 124.281 330.169 123.276 330.387 122.359C330.606 121.432 330.924 120.625 331.341 119.938C331.768 119.25 332.289 118.719 332.903 118.344C333.518 117.969 334.221 117.781 335.012 117.781C335.262 117.781 335.518 117.802 335.778 117.844C336.039 117.875 336.252 117.922 336.419 117.984ZM348.566 118.094V121.281H338.723V118.094H348.566ZM341.16 113.922H345.66V129.906C345.66 130.396 345.723 130.771 345.848 131.031C345.983 131.292 346.181 131.474 346.441 131.578C346.702 131.672 347.03 131.719 347.426 131.719C347.707 131.719 347.957 131.708 348.176 131.688C348.405 131.656 348.598 131.625 348.754 131.594L348.769 134.906C348.384 135.031 347.967 135.13 347.519 135.203C347.071 135.276 346.577 135.312 346.035 135.312C345.045 135.312 344.181 135.151 343.441 134.828C342.712 134.495 342.15 133.964 341.754 133.234C341.358 132.505 341.16 131.547 341.16 130.359V113.922ZM95.4475 166.188V158.656C95.4475 158.115 95.359 157.651 95.1819 157.266C95.0048 156.87 94.7288 156.562 94.3538 156.344C93.9892 156.125 93.5152 156.016 92.9319 156.016C92.4319 156.016 91.9996 156.104 91.635 156.281C91.2704 156.448 90.9892 156.693 90.7913 157.016C90.5933 157.328 90.4944 157.698 90.4944 158.125H85.9944C85.9944 157.406 86.161 156.724 86.4944 156.078C86.8277 155.432 87.3121 154.865 87.9475 154.375C88.5829 153.875 89.3381 153.484 90.2131 153.203C91.0985 152.922 92.0881 152.781 93.1819 152.781C94.4944 152.781 95.661 153 96.6819 153.438C97.7027 153.875 98.5048 154.531 99.0881 155.406C99.6819 156.281 99.9788 157.375 99.9788 158.688V165.922C99.9788 166.849 100.036 167.609 100.151 168.203C100.265 168.786 100.432 169.297 100.651 169.734V170H96.1038C95.885 169.542 95.7183 168.969 95.6038 168.281C95.4996 167.583 95.4475 166.885 95.4475 166.188ZM96.0413 159.703L96.0725 162.25H93.5569C92.9631 162.25 92.4475 162.318 92.01 162.453C91.5725 162.589 91.2131 162.781 90.9319 163.031C90.6506 163.271 90.4423 163.552 90.3069 163.875C90.1819 164.198 90.1194 164.552 90.1194 164.938C90.1194 165.323 90.2079 165.672 90.385 165.984C90.5621 166.286 90.8173 166.526 91.1506 166.703C91.484 166.87 91.8746 166.953 92.3225 166.953C92.9996 166.953 93.5881 166.818 94.0881 166.547C94.5881 166.276 94.9735 165.943 95.2444 165.547C95.5256 165.151 95.6715 164.776 95.6819 164.422L96.8694 166.328C96.7027 166.755 96.4735 167.198 96.1819 167.656C95.9006 168.115 95.5413 168.547 95.1038 168.953C94.6663 169.349 94.1402 169.677 93.5256 169.938C92.911 170.188 92.1819 170.312 91.3381 170.312C90.2652 170.312 89.2913 170.099 88.4163 169.672C87.5517 169.234 86.8642 168.635 86.3538 167.875C85.8538 167.104 85.6038 166.229 85.6038 165.25C85.6038 164.365 85.7704 163.578 86.1038 162.891C86.4371 162.203 86.9267 161.625 87.5725 161.156C88.2288 160.677 89.0465 160.318 90.0256 160.078C91.0048 159.828 92.1402 159.703 93.4319 159.703H96.0413ZM108.814 156.703V170H104.314V153.094H108.533L108.814 156.703ZM108.158 160.953H106.939C106.939 159.703 107.1 158.578 107.423 157.578C107.746 156.568 108.199 155.708 108.783 155C109.366 154.281 110.059 153.734 110.861 153.359C111.673 152.974 112.579 152.781 113.579 152.781C114.371 152.781 115.095 152.896 115.751 153.125C116.408 153.354 116.97 153.719 117.439 154.219C117.918 154.719 118.283 155.38 118.533 156.203C118.793 157.026 118.923 158.031 118.923 159.219V170H114.392V159.203C114.392 158.453 114.288 157.87 114.079 157.453C113.871 157.036 113.564 156.745 113.158 156.578C112.762 156.401 112.272 156.312 111.689 156.312C111.085 156.312 110.559 156.432 110.111 156.672C109.673 156.911 109.309 157.245 109.017 157.672C108.736 158.089 108.522 158.578 108.376 159.141C108.23 159.703 108.158 160.307 108.158 160.953ZM133.289 166.312V146H137.821V170H133.743L133.289 166.312ZM122.602 161.75V161.422C122.602 160.13 122.748 158.958 123.039 157.906C123.331 156.844 123.758 155.932 124.321 155.172C124.883 154.411 125.576 153.823 126.399 153.406C127.222 152.99 128.159 152.781 129.211 152.781C130.201 152.781 131.065 152.99 131.805 153.406C132.555 153.823 133.19 154.417 133.711 155.188C134.243 155.948 134.67 156.849 134.993 157.891C135.315 158.922 135.55 160.052 135.696 161.281V162C135.55 163.177 135.315 164.271 134.993 165.281C134.67 166.292 134.243 167.177 133.711 167.938C133.19 168.688 132.555 169.271 131.805 169.688C131.055 170.104 130.18 170.312 129.18 170.312C128.128 170.312 127.19 170.099 126.368 169.672C125.555 169.245 124.868 168.646 124.305 167.875C123.753 167.104 123.331 166.198 123.039 165.156C122.748 164.115 122.602 162.979 122.602 161.75ZM127.102 161.422V161.75C127.102 162.448 127.154 163.099 127.258 163.703C127.373 164.307 127.555 164.844 127.805 165.312C128.065 165.771 128.399 166.13 128.805 166.391C129.222 166.641 129.727 166.766 130.321 166.766C131.091 166.766 131.727 166.594 132.227 166.25C132.727 165.896 133.107 165.411 133.368 164.797C133.638 164.182 133.795 163.474 133.836 162.672V160.625C133.805 159.969 133.711 159.38 133.555 158.859C133.409 158.328 133.19 157.875 132.899 157.5C132.618 157.125 132.263 156.833 131.836 156.625C131.42 156.417 130.925 156.312 130.352 156.312C129.769 156.312 129.269 156.448 128.852 156.719C128.435 156.979 128.097 157.339 127.836 157.797C127.586 158.255 127.399 158.797 127.274 159.422C127.159 160.036 127.102 160.703 127.102 161.422ZM153.647 147.25H157.616L163.459 163.953L169.303 147.25H173.272L165.053 170H161.866L153.647 147.25ZM151.506 147.25H155.459L156.178 163.531V170H151.506V147.25ZM171.459 147.25H175.428V170H170.741V163.531L171.459 147.25ZM187.997 170.312C186.685 170.312 185.508 170.104 184.466 169.688C183.425 169.26 182.539 168.672 181.81 167.922C181.091 167.172 180.539 166.302 180.154 165.312C179.768 164.312 179.576 163.25 179.576 162.125V161.5C179.576 160.219 179.758 159.047 180.122 157.984C180.487 156.922 181.008 156 181.685 155.219C182.372 154.438 183.206 153.839 184.185 153.422C185.164 152.995 186.268 152.781 187.497 152.781C188.695 152.781 189.758 152.979 190.685 153.375C191.612 153.771 192.388 154.333 193.013 155.062C193.649 155.792 194.128 156.667 194.451 157.688C194.774 158.698 194.935 159.823 194.935 161.062V162.938H181.497V159.938H190.513V159.594C190.513 158.969 190.399 158.411 190.169 157.922C189.951 157.422 189.617 157.026 189.169 156.734C188.721 156.443 188.149 156.297 187.451 156.297C186.857 156.297 186.346 156.427 185.919 156.688C185.492 156.948 185.143 157.312 184.872 157.781C184.612 158.25 184.414 158.802 184.279 159.438C184.154 160.062 184.091 160.75 184.091 161.5V162.125C184.091 162.802 184.185 163.427 184.372 164C184.57 164.573 184.846 165.068 185.201 165.484C185.565 165.901 186.003 166.224 186.513 166.453C187.034 166.682 187.622 166.797 188.279 166.797C189.091 166.797 189.846 166.641 190.544 166.328C191.253 166.005 191.862 165.521 192.372 164.875L194.56 167.25C194.206 167.76 193.721 168.25 193.107 168.719C192.503 169.188 191.774 169.573 190.919 169.875C190.065 170.167 189.091 170.312 187.997 170.312ZM202.864 156.703V170H198.364V153.094H202.583L202.864 156.703ZM202.208 160.953H200.989C200.989 159.703 201.15 158.578 201.473 157.578C201.796 156.568 202.249 155.708 202.833 155C203.416 154.281 204.109 153.734 204.911 153.359C205.723 152.974 206.629 152.781 207.629 152.781C208.421 152.781 209.145 152.896 209.801 153.125C210.458 153.354 211.02 153.719 211.489 154.219C211.968 154.719 212.333 155.38 212.583 156.203C212.843 157.026 212.973 158.031 212.973 159.219V170H208.442V159.203C208.442 158.453 208.338 157.87 208.129 157.453C207.921 157.036 207.614 156.745 207.208 156.578C206.812 156.401 206.322 156.312 205.739 156.312C205.135 156.312 204.609 156.432 204.161 156.672C203.723 156.911 203.359 157.245 203.067 157.672C202.786 158.089 202.572 158.578 202.426 159.141C202.28 159.703 202.208 160.307 202.208 160.953ZM225.636 153.094V156.281H215.793V153.094H225.636ZM218.23 148.922H222.73V164.906C222.73 165.396 222.793 165.771 222.918 166.031C223.053 166.292 223.251 166.474 223.511 166.578C223.772 166.672 224.1 166.719 224.496 166.719C224.777 166.719 225.027 166.708 225.246 166.688C225.475 166.656 225.668 166.625 225.824 166.594L225.839 169.906C225.454 170.031 225.037 170.13 224.589 170.203C224.141 170.276 223.647 170.312 223.105 170.312C222.115 170.312 221.251 170.151 220.511 169.828C219.782 169.495 219.22 168.964 218.824 168.234C218.428 167.505 218.23 166.547 218.23 165.359V148.922ZM228.034 161.719V161.391C228.034 160.151 228.211 159.01 228.565 157.969C228.919 156.917 229.435 156.005 230.112 155.234C230.789 154.464 231.622 153.865 232.612 153.438C233.601 153 234.737 152.781 236.018 152.781C237.299 152.781 238.44 153 239.44 153.438C240.44 153.865 241.279 154.464 241.956 155.234C242.643 156.005 243.164 156.917 243.518 157.969C243.872 159.01 244.049 160.151 244.049 161.391V161.719C244.049 162.948 243.872 164.089 243.518 165.141C243.164 166.182 242.643 167.094 241.956 167.875C241.279 168.646 240.445 169.245 239.456 169.672C238.466 170.099 237.331 170.312 236.049 170.312C234.768 170.312 233.628 170.099 232.628 169.672C231.638 169.245 230.799 168.646 230.112 167.875C229.435 167.094 228.919 166.182 228.565 165.141C228.211 164.089 228.034 162.948 228.034 161.719ZM232.534 161.391V161.719C232.534 162.427 232.596 163.089 232.721 163.703C232.846 164.318 233.044 164.859 233.315 165.328C233.596 165.786 233.961 166.146 234.409 166.406C234.857 166.667 235.404 166.797 236.049 166.797C236.674 166.797 237.211 166.667 237.659 166.406C238.107 166.146 238.466 165.786 238.737 165.328C239.008 164.859 239.206 164.318 239.331 163.703C239.466 163.089 239.534 162.427 239.534 161.719V161.391C239.534 160.703 239.466 160.057 239.331 159.453C239.206 158.839 239.003 158.297 238.721 157.828C238.45 157.349 238.091 156.974 237.643 156.703C237.195 156.432 236.654 156.297 236.018 156.297C235.383 156.297 234.841 156.432 234.393 156.703C233.956 156.974 233.596 157.349 233.315 157.828C233.044 158.297 232.846 158.839 232.721 159.453C232.596 160.057 232.534 160.703 232.534 161.391ZM252.275 156.781V170H247.775V153.094H252.009L252.275 156.781ZM257.369 152.984L257.291 157.156C257.072 157.125 256.806 157.099 256.494 157.078C256.192 157.047 255.916 157.031 255.666 157.031C255.03 157.031 254.478 157.115 254.009 157.281C253.551 157.438 253.166 157.672 252.853 157.984C252.551 158.297 252.322 158.677 252.166 159.125C252.02 159.573 251.936 160.083 251.916 160.656L251.009 160.375C251.009 159.281 251.119 158.276 251.337 157.359C251.556 156.432 251.874 155.625 252.291 154.938C252.718 154.25 253.239 153.719 253.853 153.344C254.468 152.969 255.171 152.781 255.962 152.781C256.212 152.781 256.468 152.802 256.728 152.844C256.989 152.875 257.202 152.922 257.369 152.984ZM269.594 165.328C269.594 165.005 269.501 164.714 269.313 164.453C269.126 164.193 268.777 163.953 268.266 163.734C267.766 163.505 267.042 163.297 266.094 163.109C265.24 162.922 264.443 162.688 263.704 162.406C262.975 162.115 262.339 161.766 261.798 161.359C261.266 160.953 260.85 160.474 260.548 159.922C260.245 159.359 260.094 158.719 260.094 158C260.094 157.292 260.245 156.625 260.548 156C260.86 155.375 261.303 154.823 261.876 154.344C262.459 153.854 263.167 153.474 264.001 153.203C264.844 152.922 265.792 152.781 266.844 152.781C268.313 152.781 269.574 153.016 270.626 153.484C271.688 153.953 272.501 154.599 273.063 155.422C273.636 156.234 273.923 157.161 273.923 158.203H269.423C269.423 157.766 269.329 157.375 269.141 157.031C268.964 156.677 268.683 156.401 268.298 156.203C267.923 155.995 267.433 155.891 266.829 155.891C266.329 155.891 265.896 155.979 265.532 156.156C265.167 156.323 264.886 156.552 264.688 156.844C264.501 157.125 264.407 157.438 264.407 157.781C264.407 158.042 264.459 158.276 264.563 158.484C264.678 158.682 264.86 158.865 265.11 159.031C265.36 159.198 265.683 159.354 266.079 159.5C266.485 159.635 266.985 159.76 267.579 159.875C268.798 160.125 269.886 160.453 270.844 160.859C271.803 161.255 272.563 161.797 273.126 162.484C273.688 163.161 273.969 164.052 273.969 165.156C273.969 165.906 273.803 166.594 273.469 167.219C273.136 167.844 272.657 168.391 272.032 168.859C271.407 169.318 270.657 169.677 269.782 169.938C268.917 170.188 267.943 170.312 266.86 170.312C265.287 170.312 263.954 170.031 262.86 169.469C261.777 168.906 260.954 168.193 260.391 167.328C259.839 166.453 259.563 165.557 259.563 164.641H263.829C263.85 165.255 264.006 165.75 264.298 166.125C264.6 166.5 264.98 166.771 265.438 166.938C265.907 167.104 266.412 167.188 266.954 167.188C267.537 167.188 268.021 167.109 268.407 166.953C268.792 166.786 269.084 166.568 269.282 166.297C269.49 166.016 269.594 165.693 269.594 165.328ZM282.242 146V170H277.742V146H282.242ZM281.601 160.953H280.367C280.377 159.776 280.534 158.693 280.836 157.703C281.138 156.703 281.57 155.839 282.133 155.109C282.695 154.37 283.367 153.797 284.148 153.391C284.94 152.984 285.815 152.781 286.773 152.781C287.606 152.781 288.362 152.901 289.039 153.141C289.726 153.37 290.315 153.745 290.804 154.266C291.304 154.776 291.69 155.448 291.961 156.281C292.231 157.115 292.367 158.125 292.367 159.312V170H287.836V159.281C287.836 158.531 287.726 157.943 287.508 157.516C287.299 157.078 286.992 156.771 286.586 156.594C286.19 156.406 285.7 156.312 285.117 156.312C284.471 156.312 283.919 156.432 283.461 156.672C283.013 156.911 282.653 157.245 282.383 157.672C282.112 158.089 281.914 158.578 281.789 159.141C281.664 159.703 281.601 160.307 281.601 160.953ZM301.499 153.094V170H296.983V153.094H301.499ZM296.702 148.688C296.702 148.031 296.931 147.49 297.389 147.062C297.848 146.635 298.462 146.422 299.233 146.422C299.994 146.422 300.603 146.635 301.061 147.062C301.53 147.49 301.764 148.031 301.764 148.688C301.764 149.344 301.53 149.885 301.061 150.312C300.603 150.74 299.994 150.953 299.233 150.953C298.462 150.953 297.848 150.74 297.389 150.312C296.931 149.885 296.702 149.344 296.702 148.688ZM310.677 156.344V176.5H306.177V153.094H310.349L310.677 156.344ZM321.381 161.359V161.688C321.381 162.917 321.235 164.057 320.943 165.109C320.662 166.161 320.245 167.078 319.693 167.859C319.141 168.63 318.454 169.234 317.631 169.672C316.818 170.099 315.881 170.312 314.818 170.312C313.787 170.312 312.891 170.104 312.131 169.688C311.37 169.271 310.73 168.688 310.209 167.938C309.698 167.177 309.287 166.297 308.974 165.297C308.662 164.297 308.422 163.224 308.256 162.078V161.219C308.422 159.99 308.662 158.865 308.974 157.844C309.287 156.812 309.698 155.922 310.209 155.172C310.73 154.411 311.365 153.823 312.115 153.406C312.875 152.99 313.766 152.781 314.787 152.781C315.86 152.781 316.802 152.984 317.615 153.391C318.438 153.797 319.125 154.38 319.677 155.141C320.24 155.901 320.662 156.807 320.943 157.859C321.235 158.911 321.381 160.078 321.381 161.359ZM316.865 161.688V161.359C316.865 160.641 316.802 159.979 316.677 159.375C316.563 158.76 316.375 158.224 316.115 157.766C315.865 157.307 315.532 156.953 315.115 156.703C314.709 156.443 314.214 156.312 313.631 156.312C313.016 156.312 312.49 156.411 312.052 156.609C311.625 156.807 311.276 157.094 311.006 157.469C310.735 157.844 310.532 158.292 310.396 158.812C310.261 159.333 310.177 159.922 310.146 160.578V162.75C310.198 163.521 310.344 164.214 310.584 164.828C310.823 165.432 311.193 165.911 311.693 166.266C312.193 166.62 312.849 166.797 313.662 166.797C314.256 166.797 314.756 166.667 315.162 166.406C315.568 166.135 315.896 165.766 316.146 165.297C316.407 164.828 316.589 164.286 316.693 163.672C316.808 163.057 316.865 162.396 316.865 161.688Z" fill="white"/>
<circle cx="206.5" cy="37.5" r="37.5" fill="#114DFF"/>
<path d="M211.057 12.2794L215.482 26.2202C215.621 26.6648 216.024 26.9586 216.473 26.9586H230.785C233.9 26.9586 235.194 31.0392 232.675 32.9128L221.099 41.5266C220.735 41.7965 220.58 42.2808 220.719 42.7254L225.144 56.6662C226.105 59.6989 222.719 62.2235 220.2 60.3499L208.624 51.7361C208.26 51.4662 207.764 51.4662 207.4 51.7361L195.824 60.3499C193.305 62.2235 189.912 59.6989 190.88 56.6662L195.304 42.7254C195.444 42.2808 195.289 41.8045 194.925 41.5266L183.333 32.9207C180.815 31.0471 182.109 26.9665 185.224 26.9665H199.535C199.985 26.9665 200.387 26.6648 200.527 26.2282L204.944 12.2794C205.904 9.24671 210.096 9.24671 211.057 12.2794Z" fill="#3CE5A7"/>
<defs>
<filter id="filter0_d_138_1011" x="0" y="33" width="408" height="212" filterUnits="userSpaceOnUse" color-interpolation-filters="sRGB">
<feFlood flood-opacity="0" result="BackgroundImageFix"/>
<feColorMatrix in="SourceAlpha" type="matrix" values="0 0 0 0 0 0 0 0 0 0 0 0 0 0 0 0 0 0 127 0" result="hardAlpha"/>
<feOffset dy="4"/>
<feGaussianBlur stdDeviation="2"/>
<feComposite in2="hardAlpha" operator="out"/>
<feColorMatrix type="matrix" values="0 0 0 0 0 0 0 0 0 0 0 0 0 0 0 0 0 0 0.13 0"/>
<feBlend mode="normal" in2="BackgroundImageFix" result="effect1_dropShadow_138_1011"/>
<feBlend mode="normal" in="SourceGraphic" in2="effect1_dropShadow_138_1011" result="shape"/>
</filter>
</defs>
</svg>
