<svg width="408" height="185" viewBox="0 0 408 185" fill="none" xmlns="http://www.w3.org/2000/svg">
<g filter="url(#filter0_d_21_199)">
<rect x="4" width="400" height="177" rx="88.5" fill="white"/>
<rect x="5.5" y="1.5" width="397" height="174" rx="87" stroke="url(#paint0_linear_21_199)" stroke-width="3"/>
</g>
<path d="M59.3904 79.0703H61.3591V89.1704C61.3591 90.2915 61.1096 91.2246 60.6106 91.9697C60.1116 92.7148 59.4485 93.2754 58.6214 93.6514C57.801 94.0205 56.909 94.2051 55.9451 94.2051C54.9334 94.2051 54.0173 94.0205 53.197 93.6514C52.3836 93.2754 51.7376 92.7148 51.259 91.9697C50.7874 91.2246 50.5515 90.2915 50.5515 89.1704V79.0703H52.51V89.1704C52.51 89.9497 52.6536 90.5923 52.9407 91.0981C53.2278 91.604 53.6277 91.98 54.1404 92.2261C54.6599 92.4722 55.2615 92.5952 55.9451 92.5952C56.6355 92.5952 57.2371 92.4722 57.7498 92.2261C58.2693 91.98 58.6726 91.604 58.9597 91.0981C59.2468 90.5923 59.3904 89.9497 59.3904 89.1704V79.0703ZM71.2689 91.0571C71.2689 90.7837 71.2074 90.5308 71.0844 90.2983C70.9682 90.0591 70.7255 89.8438 70.3563 89.6523C69.994 89.4541 69.4472 89.2832 68.7157 89.1396C68.1005 89.0098 67.5433 88.856 67.0443 88.6782C66.5521 88.5005 66.1317 88.2852 65.7831 88.0322C65.4413 87.7793 65.1781 87.4819 64.9935 87.1401C64.809 86.7983 64.7167 86.3984 64.7167 85.9404C64.7167 85.5029 64.8124 85.0894 65.0038 84.6997C65.202 84.3101 65.4789 83.9648 65.8344 83.6641C66.1967 83.3633 66.6307 83.1274 67.1366 82.9565C67.6425 82.7856 68.2064 82.7002 68.8285 82.7002C69.7172 82.7002 70.476 82.8574 71.1049 83.1719C71.7338 83.4863 72.2157 83.9067 72.5507 84.4331C72.8856 84.9526 73.0531 85.5303 73.0531 86.166H71.1561C71.1561 85.8584 71.0639 85.561 70.8793 85.2739C70.7015 84.98 70.4384 84.7373 70.0897 84.5459C69.7479 84.3545 69.3275 84.2588 68.8285 84.2588C68.3021 84.2588 67.8749 84.3408 67.5468 84.5049C67.2255 84.6621 66.9896 84.8638 66.8392 85.1099C66.6957 85.356 66.6239 85.6157 66.6239 85.8892C66.6239 86.0942 66.6581 86.2788 66.7265 86.4429C66.8016 86.6001 66.9315 86.7471 67.1161 86.8838C67.3007 87.0137 67.5604 87.1367 67.8954 87.2529C68.2304 87.3691 68.6576 87.4854 69.1771 87.6016C70.0863 87.8066 70.8349 88.0527 71.4227 88.3398C72.0106 88.627 72.4481 88.979 72.7352 89.396C73.0224 89.813 73.1659 90.3188 73.1659 90.9136C73.1659 91.3989 73.0634 91.8433 72.8583 92.2466C72.66 92.6499 72.3695 92.9985 71.9867 93.2925C71.6107 93.5796 71.1596 93.8052 70.6332 93.9692C70.1137 94.1265 69.5292 94.2051 68.8798 94.2051C67.9022 94.2051 67.0751 94.0308 66.3983 93.6821C65.7216 93.3335 65.2089 92.8823 64.8602 92.3286C64.5116 91.7749 64.3373 91.1904 64.3373 90.5752H66.2445C66.2719 91.0947 66.4223 91.5083 66.6957 91.8159C66.9691 92.1167 67.3041 92.332 67.7006 92.4619C68.0971 92.585 68.4901 92.6465 68.8798 92.6465C69.3993 92.6465 69.8334 92.5781 70.182 92.4414C70.5375 92.3047 70.8075 92.1167 70.9921 91.8774C71.1766 91.6382 71.2689 91.3647 71.2689 91.0571ZM80.8916 94.2051C80.1191 94.2051 79.4185 94.0752 78.7896 93.8154C78.1675 93.5488 77.6309 93.1763 77.1797 92.6978C76.7354 92.2192 76.3936 91.6519 76.1543 90.9956C75.915 90.3394 75.7954 89.6216 75.7954 88.8423V88.4116C75.7954 87.5093 75.9287 86.7061 76.1953 86.002C76.4619 85.291 76.8242 84.6895 77.2822 84.1973C77.7402 83.7051 78.2598 83.3325 78.8408 83.0796C79.4219 82.8267 80.0234 82.7002 80.6455 82.7002C81.4385 82.7002 82.1221 82.8369 82.6963 83.1104C83.2774 83.3838 83.7524 83.7666 84.1216 84.2588C84.4907 84.7441 84.7642 85.3184 84.9419 85.9814C85.1196 86.6377 85.2085 87.3555 85.2085 88.1348V88.9858H76.9233V87.4375H83.3115V87.2939C83.2842 86.8018 83.1816 86.3232 83.0039 85.8584C82.833 85.3936 82.5596 85.0107 82.1836 84.71C81.8076 84.4092 81.2949 84.2588 80.6455 84.2588C80.2149 84.2588 79.8184 84.3511 79.4561 84.5356C79.0938 84.7134 78.7827 84.98 78.523 85.3354C78.2632 85.6909 78.0615 86.125 77.918 86.6377C77.7744 87.1504 77.7026 87.7417 77.7026 88.4116V88.8423C77.7026 89.3687 77.7744 89.8643 77.918 90.3291C78.0684 90.7871 78.2837 91.1904 78.564 91.5391C78.8511 91.8877 79.1963 92.1611 79.5996 92.3594C80.0098 92.5576 80.4746 92.6567 80.9941 92.6567C81.6641 92.6567 82.2315 92.52 82.6963 92.2466C83.1611 91.9731 83.5679 91.6074 83.9165 91.1494L85.0649 92.062C84.8257 92.4243 84.5215 92.7695 84.1524 93.0977C83.7832 93.4258 83.3286 93.6924 82.7886 93.8975C82.2554 94.1025 81.6231 94.2051 80.8916 94.2051ZM99.7063 80.3931L94.7639 94H92.7439L98.4348 79.0703H99.7371L99.7063 80.3931ZM103.849 94L98.8962 80.3931L98.8655 79.0703H100.168L105.879 94H103.849ZM103.593 88.4731V90.0933H95.2048V88.4731H103.593ZM110.631 79.0703V94H108.652V79.0703H110.631ZM118.521 86.8735V88.4321H113.517V86.8735H118.521ZM122.904 85.0381V98.2656H120.997V82.9053H122.74L122.904 85.0381ZM130.379 88.3604V88.5757C130.379 89.3823 130.283 90.1309 130.092 90.8213C129.9 91.5049 129.62 92.0996 129.251 92.6055C128.889 93.1113 128.441 93.5044 127.908 93.7847C127.375 94.0649 126.763 94.2051 126.072 94.2051C125.368 94.2051 124.746 94.0889 124.206 93.8564C123.666 93.624 123.208 93.2856 122.832 92.8413C122.456 92.397 122.155 91.8638 121.93 91.2417C121.711 90.6196 121.561 89.9189 121.479 89.1396V87.9912C121.561 87.1709 121.714 86.436 121.94 85.7866C122.166 85.1372 122.463 84.5835 122.832 84.1255C123.208 83.6606 123.663 83.3086 124.196 83.0693C124.729 82.8232 125.344 82.7002 126.042 82.7002C126.739 82.7002 127.358 82.8369 127.898 83.1104C128.438 83.377 128.892 83.7598 129.261 84.2588C129.63 84.7578 129.907 85.356 130.092 86.0532C130.283 86.7437 130.379 87.5127 130.379 88.3604ZM128.472 88.5757V88.3604C128.472 87.8066 128.414 87.2871 128.297 86.8018C128.181 86.3096 128 85.8789 127.754 85.5098C127.515 85.1338 127.207 84.8398 126.831 84.6279C126.455 84.4092 126.007 84.2998 125.488 84.2998C125.009 84.2998 124.592 84.3818 124.237 84.5459C123.888 84.71 123.591 84.9321 123.345 85.2124C123.099 85.4858 122.897 85.8003 122.74 86.1558C122.589 86.5044 122.477 86.8667 122.401 87.2427V89.8984C122.538 90.377 122.73 90.8281 122.976 91.252C123.222 91.6689 123.55 92.0073 123.96 92.2671C124.37 92.52 124.886 92.6465 125.508 92.6465C126.021 92.6465 126.462 92.5405 126.831 92.3286C127.207 92.1099 127.515 91.8125 127.754 91.4365C128 91.0605 128.181 90.6299 128.297 90.1445C128.414 89.6523 128.472 89.1294 128.472 88.5757ZM132.926 88.5757V88.3398C132.926 87.54 133.043 86.7983 133.275 86.1147C133.508 85.4243 133.843 84.8262 134.28 84.3203C134.718 83.8076 135.247 83.4111 135.869 83.1309C136.491 82.8438 137.189 82.7002 137.961 82.7002C138.74 82.7002 139.441 82.8438 140.063 83.1309C140.692 83.4111 141.225 83.8076 141.663 84.3203C142.107 84.8262 142.446 85.4243 142.678 86.1147C142.91 86.7983 143.027 87.54 143.027 88.3398V88.5757C143.027 89.3755 142.91 90.1172 142.678 90.8008C142.446 91.4844 142.107 92.0825 141.663 92.5952C141.225 93.1011 140.696 93.4976 140.073 93.7847C139.458 94.0649 138.761 94.2051 137.982 94.2051C137.202 94.2051 136.502 94.0649 135.88 93.7847C135.258 93.4976 134.724 93.1011 134.28 92.5952C133.843 92.0825 133.508 91.4844 133.275 90.8008C133.043 90.1172 132.926 89.3755 132.926 88.5757ZM134.823 88.3398V88.5757C134.823 89.1294 134.888 89.6523 135.018 90.1445C135.148 90.6299 135.343 91.0605 135.603 91.4365C135.869 91.8125 136.201 92.1099 136.597 92.3286C136.994 92.5405 137.455 92.6465 137.982 92.6465C138.501 92.6465 138.956 92.5405 139.345 92.3286C139.742 92.1099 140.07 91.8125 140.33 91.4365C140.59 91.0605 140.784 90.6299 140.914 90.1445C141.051 89.6523 141.119 89.1294 141.119 88.5757V88.3398C141.119 87.793 141.051 87.2769 140.914 86.7915C140.784 86.2993 140.586 85.8652 140.32 85.4893C140.06 85.1064 139.732 84.8057 139.335 84.5869C138.946 84.3682 138.488 84.2588 137.961 84.2588C137.442 84.2588 136.984 84.3682 136.587 84.5869C136.197 84.8057 135.869 85.1064 135.603 85.4893C135.343 85.8652 135.148 86.2993 135.018 86.7915C134.888 87.2769 134.823 87.793 134.823 88.3398ZM148.845 92.0312L151.696 82.9053H152.947L152.701 84.7202L149.799 94H148.578L148.845 92.0312ZM146.928 82.9053L149.358 92.1338L149.532 94H148.25L145.031 82.9053H146.928ZM155.674 92.062L157.992 82.9053H159.878L156.659 94H155.387L155.674 92.062ZM153.223 82.9053L156.013 91.8774L156.33 94H155.12L152.137 84.6997L151.89 82.9053H153.223ZM167.061 94.2051C166.288 94.2051 165.587 94.0752 164.958 93.8154C164.336 93.5488 163.8 93.1763 163.349 92.6978C162.904 92.2192 162.562 91.6519 162.323 90.9956C162.084 90.3394 161.964 89.6216 161.964 88.8423V88.4116C161.964 87.5093 162.098 86.7061 162.364 86.002C162.631 85.291 162.993 84.6895 163.451 84.1973C163.909 83.7051 164.429 83.3325 165.01 83.0796C165.591 82.8267 166.192 82.7002 166.814 82.7002C167.607 82.7002 168.291 82.8369 168.865 83.1104C169.446 83.3838 169.921 83.7666 170.29 84.2588C170.66 84.7441 170.933 85.3184 171.111 85.9814C171.289 86.6377 171.377 87.3555 171.377 88.1348V88.9858H163.092V87.4375H169.48V87.2939C169.453 86.8018 169.351 86.3232 169.173 85.8584C169.002 85.3936 168.728 85.0107 168.353 84.71C167.977 84.4092 167.464 84.2588 166.814 84.2588C166.384 84.2588 165.987 84.3511 165.625 84.5356C165.263 84.7134 164.952 84.98 164.692 85.3354C164.432 85.6909 164.23 86.125 164.087 86.6377C163.943 87.1504 163.872 87.7417 163.872 88.4116V88.8423C163.872 89.3687 163.943 89.8643 164.087 90.3291C164.237 90.7871 164.453 91.1904 164.733 91.5391C165.02 91.8877 165.365 92.1611 165.769 92.3594C166.179 92.5576 166.644 92.6567 167.163 92.6567C167.833 92.6567 168.4 92.52 168.865 92.2466C169.33 91.9731 169.737 91.6074 170.085 91.1494L171.234 92.062C170.995 92.4243 170.69 92.7695 170.321 93.0977C169.952 93.4258 169.498 93.6924 168.957 93.8975C168.424 94.1025 167.792 94.2051 167.061 94.2051ZM176.119 84.6484V94H174.222V82.9053H176.068L176.119 84.6484ZM179.585 82.8438L179.575 84.6074C179.418 84.5732 179.267 84.5527 179.124 84.5459C178.987 84.5322 178.83 84.5254 178.652 84.5254C178.214 84.5254 177.828 84.5938 177.493 84.7305C177.158 84.8672 176.875 85.0586 176.642 85.3047C176.41 85.5508 176.225 85.8447 176.088 86.1865C175.959 86.5215 175.873 86.8906 175.832 87.2939L175.299 87.6016C175.299 86.9316 175.364 86.3027 175.494 85.7148C175.63 85.127 175.839 84.6074 176.119 84.1562C176.4 83.6982 176.755 83.3428 177.186 83.0898C177.623 82.8301 178.143 82.7002 178.744 82.7002C178.881 82.7002 179.038 82.7173 179.216 82.7515C179.394 82.7788 179.517 82.8096 179.585 82.8438ZM186.367 94.2051C185.595 94.2051 184.894 94.0752 184.265 93.8154C183.643 93.5488 183.107 93.1763 182.655 92.6978C182.211 92.2192 181.869 91.6519 181.63 90.9956C181.391 90.3394 181.271 89.6216 181.271 88.8423V88.4116C181.271 87.5093 181.404 86.7061 181.671 86.002C181.938 85.291 182.3 84.6895 182.758 84.1973C183.216 83.7051 183.736 83.3325 184.317 83.0796C184.898 82.8267 185.499 82.7002 186.121 82.7002C186.914 82.7002 187.598 82.8369 188.172 83.1104C188.753 83.3838 189.228 83.7666 189.597 84.2588C189.967 84.7441 190.24 85.3184 190.418 85.9814C190.595 86.6377 190.684 87.3555 190.684 88.1348V88.9858H182.399V87.4375H188.787V87.2939C188.76 86.8018 188.657 86.3232 188.48 85.8584C188.309 85.3936 188.035 85.0107 187.659 84.71C187.283 84.4092 186.771 84.2588 186.121 84.2588C185.691 84.2588 185.294 84.3511 184.932 84.5356C184.57 84.7134 184.258 84.98 183.999 85.3354C183.739 85.6909 183.537 86.125 183.394 86.6377C183.25 87.1504 183.178 87.7417 183.178 88.4116V88.8423C183.178 89.3687 183.25 89.8643 183.394 90.3291C183.544 90.7871 183.759 91.1904 184.04 91.5391C184.327 91.8877 184.672 92.1611 185.075 92.3594C185.486 92.5576 185.95 92.6567 186.47 92.6567C187.14 92.6567 187.707 92.52 188.172 92.2466C188.637 91.9731 189.044 91.6074 189.392 91.1494L190.541 92.062C190.301 92.4243 189.997 92.7695 189.628 93.0977C189.259 93.4258 188.804 93.6924 188.264 93.8975C187.731 94.1025 187.099 94.2051 186.367 94.2051ZM200.522 91.8467V78.25H202.43V94H200.686L200.522 91.8467ZM193.057 88.5757V88.3604C193.057 87.5127 193.16 86.7437 193.365 86.0532C193.577 85.356 193.874 84.7578 194.257 84.2588C194.647 83.7598 195.108 83.377 195.641 83.1104C196.181 82.8369 196.783 82.7002 197.446 82.7002C198.143 82.7002 198.752 82.8232 199.271 83.0693C199.798 83.3086 200.242 83.6606 200.604 84.1255C200.973 84.5835 201.264 85.1372 201.476 85.7866C201.688 86.436 201.835 87.1709 201.917 87.9912V88.9346C201.842 89.748 201.695 90.4795 201.476 91.1289C201.264 91.7783 200.973 92.332 200.604 92.79C200.242 93.248 199.798 93.6001 199.271 93.8462C198.745 94.0854 198.13 94.2051 197.426 94.2051C196.776 94.2051 196.181 94.0649 195.641 93.7847C195.108 93.5044 194.647 93.1113 194.257 92.6055C193.874 92.0996 193.577 91.5049 193.365 90.8213C193.16 90.1309 193.057 89.3823 193.057 88.5757ZM194.965 88.3604V88.5757C194.965 89.1294 195.019 89.6489 195.129 90.1343C195.245 90.6196 195.423 91.0469 195.662 91.416C195.901 91.7852 196.205 92.0757 196.575 92.2876C196.944 92.4927 197.385 92.5952 197.897 92.5952C198.526 92.5952 199.042 92.4619 199.446 92.1953C199.856 91.9287 200.184 91.5767 200.43 91.1392C200.676 90.7017 200.868 90.2266 201.004 89.7139V87.2427C200.922 86.8667 200.803 86.5044 200.645 86.1558C200.495 85.8003 200.297 85.4858 200.051 85.2124C199.811 84.9321 199.514 84.71 199.159 84.5459C198.81 84.3818 198.396 84.2998 197.918 84.2998C197.398 84.2998 196.951 84.4092 196.575 84.6279C196.205 84.8398 195.901 85.1338 195.662 85.5098C195.423 85.8789 195.245 86.3096 195.129 86.8018C195.019 87.2871 194.965 87.8066 194.965 88.3604ZM220.096 90.2266C220.096 89.8779 220.041 89.5703 219.932 89.3037C219.829 89.0303 219.645 88.7842 219.378 88.5654C219.118 88.3467 218.756 88.1382 218.291 87.9399C217.833 87.7417 217.252 87.54 216.548 87.335C215.81 87.1162 215.143 86.8735 214.548 86.6069C213.954 86.3335 213.444 86.0225 213.021 85.6738C212.597 85.3252 212.272 84.9253 212.046 84.4741C211.821 84.0229 211.708 83.5068 211.708 82.9258C211.708 82.3447 211.828 81.8081 212.067 81.3159C212.306 80.8237 212.648 80.3965 213.092 80.0342C213.544 79.665 214.08 79.3779 214.702 79.1729C215.324 78.9678 216.018 78.8652 216.784 78.8652C217.905 78.8652 218.855 79.0806 219.634 79.5112C220.42 79.9351 221.019 80.4922 221.429 81.1826C221.839 81.8662 222.044 82.5977 222.044 83.377H220.075C220.075 82.8164 219.956 82.3208 219.716 81.8901C219.477 81.4526 219.115 81.1108 218.629 80.8647C218.144 80.6118 217.529 80.4854 216.784 80.4854C216.08 80.4854 215.499 80.5913 215.041 80.8032C214.583 81.0151 214.241 81.3022 214.015 81.6646C213.796 82.0269 213.687 82.4404 213.687 82.9053C213.687 83.2197 213.752 83.5068 213.882 83.7666C214.019 84.0195 214.227 84.2554 214.507 84.4741C214.794 84.6929 215.157 84.8945 215.594 85.0791C216.039 85.2637 216.568 85.4414 217.184 85.6123C218.031 85.8516 218.763 86.1182 219.378 86.4121C219.993 86.7061 220.499 87.0376 220.896 87.4067C221.299 87.769 221.596 88.1826 221.788 88.6475C221.986 89.1055 222.085 89.625 222.085 90.2061C222.085 90.8145 221.962 91.3647 221.716 91.8569C221.47 92.3491 221.118 92.7695 220.66 93.1182C220.202 93.4668 219.651 93.7368 219.009 93.9282C218.373 94.1128 217.662 94.2051 216.876 94.2051C216.186 94.2051 215.505 94.1094 214.836 93.918C214.172 93.7266 213.567 93.4395 213.021 93.0566C212.481 92.6738 212.046 92.2021 211.718 91.6416C211.397 91.0742 211.236 90.418 211.236 89.6729H213.205C213.205 90.1855 213.304 90.6265 213.503 90.9956C213.701 91.3579 213.971 91.6587 214.313 91.8979C214.661 92.1372 215.054 92.3149 215.492 92.4312C215.936 92.5405 216.398 92.5952 216.876 92.5952C217.566 92.5952 218.151 92.4995 218.629 92.3081C219.108 92.1167 219.47 91.8433 219.716 91.4878C219.969 91.1323 220.096 90.7119 220.096 90.2266ZM231.492 92.103V86.3916C231.492 85.9541 231.404 85.5747 231.226 85.2534C231.055 84.9253 230.795 84.6724 230.446 84.4946C230.098 84.3169 229.667 84.228 229.154 84.228C228.676 84.228 228.256 84.3101 227.893 84.4741C227.538 84.6382 227.258 84.8535 227.052 85.1201C226.854 85.3867 226.755 85.6738 226.755 85.9814H224.858C224.858 85.585 224.961 85.1919 225.166 84.8022C225.371 84.4126 225.665 84.0605 226.048 83.7461C226.437 83.4248 226.902 83.1719 227.442 82.9873C227.989 82.7959 228.597 82.7002 229.267 82.7002C230.074 82.7002 230.785 82.8369 231.4 83.1104C232.022 83.3838 232.508 83.7974 232.856 84.3511C233.212 84.8979 233.389 85.585 233.389 86.4121V91.5801C233.389 91.9492 233.42 92.3423 233.482 92.7593C233.55 93.1763 233.649 93.5352 233.779 93.8359V94H231.8C231.704 93.7812 231.629 93.4907 231.574 93.1284C231.52 92.7593 231.492 92.4175 231.492 92.103ZM231.82 87.2734L231.841 88.6064H229.924C229.383 88.6064 228.902 88.6509 228.478 88.7397C228.054 88.8218 227.698 88.9482 227.411 89.1191C227.124 89.29 226.905 89.5054 226.755 89.7651C226.605 90.0181 226.529 90.3154 226.529 90.6572C226.529 91.0059 226.608 91.3237 226.765 91.6108C226.923 91.8979 227.158 92.127 227.473 92.2979C227.794 92.4619 228.187 92.5439 228.652 92.5439C229.233 92.5439 229.746 92.4209 230.19 92.1748C230.634 91.9287 230.987 91.6279 231.246 91.2725C231.513 90.917 231.656 90.5718 231.677 90.2368L232.487 91.1494C232.439 91.4365 232.309 91.7544 232.097 92.103C231.885 92.4517 231.602 92.7866 231.246 93.1079C230.898 93.4224 230.481 93.6855 229.995 93.8975C229.517 94.1025 228.977 94.2051 228.375 94.2051C227.623 94.2051 226.964 94.0581 226.396 93.7642C225.836 93.4702 225.398 93.0771 225.084 92.585C224.776 92.0859 224.622 91.5288 224.622 90.9136C224.622 90.3188 224.738 89.7959 224.971 89.3447C225.203 88.8867 225.538 88.5073 225.976 88.2065C226.413 87.8989 226.94 87.6665 227.555 87.5093C228.17 87.3521 228.857 87.2734 229.616 87.2734H231.82ZM243.545 92.103V86.3916C243.545 85.9541 243.456 85.5747 243.279 85.2534C243.108 84.9253 242.848 84.6724 242.499 84.4946C242.151 84.3169 241.72 84.228 241.207 84.228C240.729 84.228 240.308 84.3101 239.946 84.4741C239.591 84.6382 239.31 84.8535 239.105 85.1201C238.907 85.3867 238.808 85.6738 238.808 85.9814H236.911C236.911 85.585 237.013 85.1919 237.219 84.8022C237.424 84.4126 237.718 84.0605 238.1 83.7461C238.49 83.4248 238.955 83.1719 239.495 82.9873C240.042 82.7959 240.65 82.7002 241.32 82.7002C242.127 82.7002 242.838 82.8369 243.453 83.1104C244.075 83.3838 244.56 83.7974 244.909 84.3511C245.264 84.8979 245.442 85.585 245.442 86.4121V91.5801C245.442 91.9492 245.473 92.3423 245.534 92.7593C245.603 93.1763 245.702 93.5352 245.832 93.8359V94H243.853C243.757 93.7812 243.682 93.4907 243.627 93.1284C243.573 92.7593 243.545 92.4175 243.545 92.103ZM243.873 87.2734L243.894 88.6064H241.976C241.436 88.6064 240.954 88.6509 240.531 88.7397C240.107 88.8218 239.751 88.9482 239.464 89.1191C239.177 89.29 238.958 89.5054 238.808 89.7651C238.658 90.0181 238.582 90.3154 238.582 90.6572C238.582 91.0059 238.661 91.3237 238.818 91.6108C238.975 91.8979 239.211 92.127 239.526 92.2979C239.847 92.4619 240.24 92.5439 240.705 92.5439C241.286 92.5439 241.799 92.4209 242.243 92.1748C242.687 91.9287 243.039 91.6279 243.299 91.2725C243.566 90.917 243.709 90.5718 243.73 90.2368L244.54 91.1494C244.492 91.4365 244.362 91.7544 244.15 92.103C243.938 92.4517 243.655 92.7866 243.299 93.1079C242.951 93.4224 242.534 93.6855 242.048 93.8975C241.57 94.1025 241.03 94.2051 240.428 94.2051C239.676 94.2051 239.016 94.0581 238.449 93.7642C237.888 93.4702 237.451 93.0771 237.137 92.585C236.829 92.0859 236.675 91.5288 236.675 90.9136C236.675 90.3188 236.791 89.7959 237.024 89.3447C237.256 88.8867 237.591 88.5073 238.029 88.2065C238.466 87.8989 238.992 87.6665 239.608 87.5093C240.223 87.3521 240.91 87.2734 241.669 87.2734H243.873ZM257.3 90.2266C257.3 89.8779 257.246 89.5703 257.136 89.3037C257.034 89.0303 256.849 88.7842 256.582 88.5654C256.323 88.3467 255.96 88.1382 255.496 87.9399C255.038 87.7417 254.456 87.54 253.752 87.335C253.014 87.1162 252.348 86.8735 251.753 86.6069C251.158 86.3335 250.649 86.0225 250.225 85.6738C249.801 85.3252 249.476 84.9253 249.251 84.4741C249.025 84.0229 248.913 83.5068 248.913 82.9258C248.913 82.3447 249.032 81.8081 249.271 81.3159C249.511 80.8237 249.852 80.3965 250.297 80.0342C250.748 79.665 251.285 79.3779 251.907 79.1729C252.529 78.9678 253.223 78.8652 253.988 78.8652C255.109 78.8652 256.059 79.0806 256.839 79.5112C257.625 79.9351 258.223 80.4922 258.633 81.1826C259.043 81.8662 259.248 82.5977 259.248 83.377H257.28C257.28 82.8164 257.16 82.3208 256.921 81.8901C256.682 81.4526 256.319 81.1108 255.834 80.8647C255.349 80.6118 254.733 80.4854 253.988 80.4854C253.284 80.4854 252.703 80.5913 252.245 80.8032C251.787 81.0151 251.445 81.3022 251.22 81.6646C251.001 82.0269 250.892 82.4404 250.892 82.9053C250.892 83.2197 250.956 83.5068 251.086 83.7666C251.223 84.0195 251.432 84.2554 251.712 84.4741C251.999 84.6929 252.361 84.8945 252.799 85.0791C253.243 85.2637 253.773 85.4414 254.388 85.6123C255.236 85.8516 255.967 86.1182 256.582 86.4121C257.198 86.7061 257.704 87.0376 258.1 87.4067C258.503 87.769 258.801 88.1826 258.992 88.6475C259.19 89.1055 259.289 89.625 259.289 90.2061C259.289 90.8145 259.166 91.3647 258.92 91.8569C258.674 92.3491 258.322 92.7695 257.864 93.1182C257.406 93.4668 256.856 93.7368 256.213 93.9282C255.578 94.1128 254.867 94.2051 254.08 94.2051C253.39 94.2051 252.71 94.1094 252.04 93.918C251.377 93.7266 250.772 93.4395 250.225 93.0566C249.685 92.6738 249.251 92.2021 248.923 91.6416C248.601 91.0742 248.441 90.418 248.441 89.6729H250.41C250.41 90.1855 250.509 90.6265 250.707 90.9956C250.905 91.3579 251.175 91.6587 251.517 91.8979C251.866 92.1372 252.259 92.3149 252.696 92.4312C253.141 92.5405 253.602 92.5952 254.08 92.5952C254.771 92.5952 255.355 92.4995 255.834 92.3081C256.312 92.1167 256.675 91.8433 256.921 91.4878C257.174 91.1323 257.3 90.7119 257.3 90.2266ZM272.639 82.9053V84.3613H266.64V82.9053H272.639ZM268.671 80.2085H270.568V91.252C270.568 91.6279 270.626 91.9116 270.742 92.103C270.858 92.2944 271.008 92.4209 271.193 92.4824C271.378 92.5439 271.576 92.5747 271.788 92.5747C271.945 92.5747 272.109 92.561 272.28 92.5337C272.458 92.4995 272.591 92.4722 272.68 92.4517L272.69 94C272.54 94.0479 272.341 94.0923 272.095 94.1333C271.856 94.1812 271.566 94.2051 271.224 94.2051C270.759 94.2051 270.332 94.1128 269.942 93.9282C269.552 93.7437 269.241 93.436 269.009 93.0054C268.783 92.5679 268.671 91.98 268.671 91.2417V80.2085ZM274.786 88.5757V88.3398C274.786 87.54 274.903 86.7983 275.135 86.1147C275.367 85.4243 275.702 84.8262 276.14 84.3203C276.577 83.8076 277.107 83.4111 277.729 83.1309C278.351 82.8438 279.049 82.7002 279.821 82.7002C280.6 82.7002 281.301 82.8438 281.923 83.1309C282.552 83.4111 283.085 83.8076 283.523 84.3203C283.967 84.8262 284.305 85.4243 284.538 86.1147C284.77 86.7983 284.887 87.54 284.887 88.3398V88.5757C284.887 89.3755 284.77 90.1172 284.538 90.8008C284.305 91.4844 283.967 92.0825 283.523 92.5952C283.085 93.1011 282.555 93.4976 281.933 93.7847C281.318 94.0649 280.621 94.2051 279.842 94.2051C279.062 94.2051 278.362 94.0649 277.74 93.7847C277.117 93.4976 276.584 93.1011 276.14 92.5952C275.702 92.0825 275.367 91.4844 275.135 90.8008C274.903 90.1172 274.786 89.3755 274.786 88.5757ZM276.683 88.3398V88.5757C276.683 89.1294 276.748 89.6523 276.878 90.1445C277.008 90.6299 277.203 91.0605 277.463 91.4365C277.729 91.8125 278.061 92.1099 278.457 92.3286C278.854 92.5405 279.315 92.6465 279.842 92.6465C280.361 92.6465 280.816 92.5405 281.205 92.3286C281.602 92.1099 281.93 91.8125 282.19 91.4365C282.449 91.0605 282.644 90.6299 282.774 90.1445C282.911 89.6523 282.979 89.1294 282.979 88.5757V88.3398C282.979 87.793 282.911 87.2769 282.774 86.7915C282.644 86.2993 282.446 85.8652 282.179 85.4893C281.92 85.1064 281.592 84.8057 281.195 84.5869C280.805 84.3682 280.347 84.2588 279.821 84.2588C279.302 84.2588 278.844 84.3682 278.447 84.5869C278.057 84.8057 277.729 85.1064 277.463 85.4893C277.203 85.8652 277.008 86.2993 276.878 86.7915C276.748 87.2769 276.683 87.793 276.683 88.3398ZM287.393 88.5757V88.3398C287.393 87.54 287.509 86.7983 287.742 86.1147C287.974 85.4243 288.309 84.8262 288.746 84.3203C289.184 83.8076 289.714 83.4111 290.336 83.1309C290.958 82.8438 291.655 82.7002 292.428 82.7002C293.207 82.7002 293.908 82.8438 294.53 83.1309C295.159 83.4111 295.692 83.8076 296.129 84.3203C296.574 84.8262 296.912 85.4243 297.144 86.1147C297.377 86.7983 297.493 87.54 297.493 88.3398V88.5757C297.493 89.3755 297.377 90.1172 297.144 90.8008C296.912 91.4844 296.574 92.0825 296.129 92.5952C295.692 93.1011 295.162 93.4976 294.54 93.7847C293.925 94.0649 293.227 94.2051 292.448 94.2051C291.669 94.2051 290.968 94.0649 290.346 93.7847C289.724 93.4976 289.191 93.1011 288.746 92.5952C288.309 92.0825 287.974 91.4844 287.742 90.8008C287.509 90.1172 287.393 89.3755 287.393 88.5757ZM289.29 88.3398V88.5757C289.29 89.1294 289.355 89.6523 289.485 90.1445C289.615 90.6299 289.809 91.0605 290.069 91.4365C290.336 91.8125 290.667 92.1099 291.064 92.3286C291.46 92.5405 291.922 92.6465 292.448 92.6465C292.968 92.6465 293.422 92.5405 293.812 92.3286C294.208 92.1099 294.537 91.8125 294.796 91.4365C295.056 91.0605 295.251 90.6299 295.381 90.1445C295.517 89.6523 295.586 89.1294 295.586 88.5757V88.3398C295.586 87.793 295.517 87.2769 295.381 86.7915C295.251 86.2993 295.053 85.8652 294.786 85.4893C294.526 85.1064 294.198 84.8057 293.802 84.5869C293.412 84.3682 292.954 84.2588 292.428 84.2588C291.908 84.2588 291.45 84.3682 291.054 84.5869C290.664 84.8057 290.336 85.1064 290.069 85.4893C289.809 85.8652 289.615 86.2993 289.485 86.7915C289.355 87.2769 289.29 87.793 289.29 88.3398ZM302.563 78.25V94H300.656V78.25H302.563ZM312.698 91.0571C312.698 90.7837 312.637 90.5308 312.514 90.2983C312.398 90.0591 312.155 89.8438 311.786 89.6523C311.423 89.4541 310.877 89.2832 310.145 89.1396C309.53 89.0098 308.973 88.856 308.474 88.6782C307.982 88.5005 307.561 88.2852 307.213 88.0322C306.871 87.7793 306.608 87.4819 306.423 87.1401C306.238 86.7983 306.146 86.3984 306.146 85.9404C306.146 85.5029 306.242 85.0894 306.433 84.6997C306.631 84.3101 306.908 83.9648 307.264 83.6641C307.626 83.3633 308.06 83.1274 308.566 82.9565C309.072 82.7856 309.636 82.7002 310.258 82.7002C311.147 82.7002 311.905 82.8574 312.534 83.1719C313.163 83.4863 313.645 83.9067 313.98 84.4331C314.315 84.9526 314.483 85.5303 314.483 86.166H312.586C312.586 85.8584 312.493 85.561 312.309 85.2739C312.131 84.98 311.868 84.7373 311.519 84.5459C311.177 84.3545 310.757 84.2588 310.258 84.2588C309.732 84.2588 309.304 84.3408 308.976 84.5049C308.655 84.6621 308.419 84.8638 308.269 85.1099C308.125 85.356 308.053 85.6157 308.053 85.8892C308.053 86.0942 308.088 86.2788 308.156 86.4429C308.231 86.6001 308.361 86.7471 308.546 86.8838C308.73 87.0137 308.99 87.1367 309.325 87.2529C309.66 87.3691 310.087 87.4854 310.607 87.6016C311.516 87.8066 312.264 88.0527 312.852 88.3398C313.44 88.627 313.878 88.979 314.165 89.396C314.452 89.813 314.595 90.3188 314.595 90.9136C314.595 91.3989 314.493 91.8433 314.288 92.2466C314.089 92.6499 313.799 92.9985 313.416 93.2925C313.04 93.5796 312.589 93.8052 312.063 93.9692C311.543 94.1265 310.959 94.2051 310.309 94.2051C309.332 94.2051 308.505 94.0308 307.828 93.6821C307.151 93.3335 306.638 92.8823 306.29 92.3286C305.941 91.7749 305.767 91.1904 305.767 90.5752H307.674C307.701 91.0947 307.852 91.5083 308.125 91.8159C308.399 92.1167 308.734 92.332 309.13 92.4619C309.526 92.585 309.92 92.6465 310.309 92.6465C310.829 92.6465 311.263 92.5781 311.611 92.4414C311.967 92.3047 312.237 92.1167 312.422 91.8774C312.606 91.6382 312.698 91.3647 312.698 91.0571ZM330.098 92.103V86.3916C330.098 85.9541 330.009 85.5747 329.831 85.2534C329.661 84.9253 329.401 84.6724 329.052 84.4946C328.703 84.3169 328.273 84.228 327.76 84.228C327.282 84.228 326.861 84.3101 326.499 84.4741C326.143 84.6382 325.863 84.8535 325.658 85.1201C325.46 85.3867 325.361 85.6738 325.361 85.9814H323.464C323.464 85.585 323.566 85.1919 323.771 84.8022C323.976 84.4126 324.27 84.0605 324.653 83.7461C325.043 83.4248 325.508 83.1719 326.048 82.9873C326.595 82.7959 327.203 82.7002 327.873 82.7002C328.68 82.7002 329.391 82.8369 330.006 83.1104C330.628 83.3838 331.113 83.7974 331.462 84.3511C331.817 84.8979 331.995 85.585 331.995 86.4121V91.5801C331.995 91.9492 332.026 92.3423 332.087 92.7593C332.156 93.1763 332.255 93.5352 332.385 93.8359V94H330.406C330.31 93.7812 330.235 93.4907 330.18 93.1284C330.125 92.7593 330.098 92.4175 330.098 92.103ZM330.426 87.2734L330.447 88.6064H328.529C327.989 88.6064 327.507 88.6509 327.083 88.7397C326.66 88.8218 326.304 88.9482 326.017 89.1191C325.73 89.29 325.511 89.5054 325.361 89.7651C325.21 90.0181 325.135 90.3154 325.135 90.6572C325.135 91.0059 325.214 91.3237 325.371 91.6108C325.528 91.8979 325.764 92.127 326.078 92.2979C326.4 92.4619 326.793 92.5439 327.258 92.5439C327.839 92.5439 328.351 92.4209 328.796 92.1748C329.24 91.9287 329.592 91.6279 329.852 91.2725C330.119 90.917 330.262 90.5718 330.283 90.2368L331.093 91.1494C331.045 91.4365 330.915 91.7544 330.703 92.103C330.491 92.4517 330.207 92.7866 329.852 93.1079C329.503 93.4224 329.086 93.6855 328.601 93.8975C328.122 94.1025 327.582 94.2051 326.981 94.2051C326.229 94.2051 325.569 94.0581 325.002 93.7642C324.441 93.4702 324.004 93.0771 323.689 92.585C323.382 92.0859 323.228 91.5288 323.228 90.9136C323.228 90.3188 323.344 89.7959 323.577 89.3447C323.809 88.8867 324.144 88.5073 324.581 88.2065C325.019 87.8989 325.545 87.6665 326.161 87.5093C326.776 87.3521 327.463 87.2734 328.222 87.2734H330.426ZM337.506 85.2739V94H335.609V82.9053H337.403L337.506 85.2739ZM337.055 88.0322L336.265 88.0015C336.272 87.2427 336.385 86.542 336.604 85.8994C336.822 85.25 337.13 84.686 337.526 84.2075C337.923 83.729 338.395 83.3599 338.941 83.1001C339.495 82.8335 340.107 82.7002 340.777 82.7002C341.324 82.7002 341.816 82.7754 342.253 82.9258C342.691 83.0693 343.063 83.3018 343.371 83.623C343.686 83.9443 343.925 84.3613 344.089 84.874C344.253 85.3799 344.335 85.9985 344.335 86.73V94H342.428V86.7095C342.428 86.1284 342.342 85.6636 342.171 85.3149C342 84.9595 341.751 84.7031 341.423 84.5459C341.095 84.3818 340.691 84.2998 340.213 84.2998C339.741 84.2998 339.311 84.3989 338.921 84.5972C338.538 84.7954 338.207 85.0688 337.926 85.4175C337.653 85.7661 337.438 86.166 337.28 86.6172C337.13 87.0615 337.055 87.5332 337.055 88.0322ZM354.839 91.8467V78.25H356.747V94H355.004L354.839 91.8467ZM347.375 88.5757V88.3604C347.375 87.5127 347.477 86.7437 347.682 86.0532C347.894 85.356 348.192 84.7578 348.574 84.2588C348.964 83.7598 349.425 83.377 349.959 83.1104C350.499 82.8369 351.1 82.7002 351.763 82.7002C352.461 82.7002 353.069 82.8232 353.589 83.0693C354.115 83.3086 354.559 83.6606 354.922 84.1255C355.291 84.5835 355.581 85.1372 355.793 85.7866C356.005 86.436 356.152 87.1709 356.234 87.9912V88.9346C356.159 89.748 356.012 90.4795 355.793 91.1289C355.581 91.7783 355.291 92.332 354.922 92.79C354.559 93.248 354.115 93.6001 353.589 93.8462C353.062 94.0854 352.447 94.2051 351.743 94.2051C351.093 94.2051 350.499 94.0649 349.959 93.7847C349.425 93.5044 348.964 93.1113 348.574 92.6055C348.192 92.0996 347.894 91.5049 347.682 90.8213C347.477 90.1309 347.375 89.3823 347.375 88.5757ZM349.282 88.3604V88.5757C349.282 89.1294 349.337 89.6489 349.446 90.1343C349.562 90.6196 349.74 91.0469 349.979 91.416C350.218 91.7852 350.523 92.0757 350.892 92.2876C351.261 92.4927 351.702 92.5952 352.214 92.5952C352.843 92.5952 353.359 92.4619 353.763 92.1953C354.173 91.9287 354.501 91.5767 354.747 91.1392C354.993 90.7017 355.185 90.2266 355.321 89.7139V87.2427C355.239 86.8667 355.12 86.5044 354.963 86.1558C354.812 85.8003 354.614 85.4858 354.368 85.2124C354.129 84.9321 353.831 84.71 353.476 84.5459C353.127 84.3818 352.714 84.2998 352.235 84.2998C351.715 84.2998 351.268 84.4092 350.892 84.6279C350.523 84.8398 350.218 85.1338 349.979 85.5098C349.74 85.8789 349.562 86.3096 349.446 86.8018C349.337 87.2871 349.282 87.8066 349.282 88.3604ZM103.856 103.393L98.9139 117H96.8938L102.585 102.07H103.887L103.856 103.393ZM107.999 117L103.046 103.393L103.015 102.07H104.318L110.029 117H107.999ZM107.742 111.473V113.093H99.3548V111.473H107.742ZM119.559 105.905H121.282V116.764C121.282 117.742 121.084 118.576 120.687 119.266C120.291 119.957 119.737 120.479 119.026 120.835C118.322 121.197 117.509 121.378 116.586 121.378C116.203 121.378 115.752 121.317 115.232 121.194C114.72 121.078 114.214 120.876 113.715 120.589C113.223 120.309 112.809 119.929 112.474 119.451L113.469 118.323C113.934 118.883 114.419 119.273 114.925 119.492C115.437 119.71 115.943 119.82 116.442 119.82C117.044 119.82 117.563 119.707 118.001 119.481C118.438 119.256 118.777 118.921 119.016 118.477C119.262 118.039 119.385 117.499 119.385 116.856V108.346L119.559 105.905ZM111.92 111.576V111.36C111.92 110.513 112.019 109.744 112.218 109.053C112.423 108.356 112.713 107.758 113.089 107.259C113.472 106.76 113.934 106.377 114.474 106.11C115.014 105.837 115.622 105.7 116.299 105.7C116.996 105.7 117.604 105.823 118.124 106.069C118.65 106.309 119.095 106.661 119.457 107.125C119.826 107.583 120.117 108.137 120.329 108.787C120.54 109.436 120.687 110.171 120.769 110.991V111.935C120.694 112.748 120.547 113.479 120.329 114.129C120.117 114.778 119.826 115.332 119.457 115.79C119.095 116.248 118.65 116.6 118.124 116.846C117.598 117.085 116.982 117.205 116.278 117.205C115.615 117.205 115.014 117.065 114.474 116.785C113.94 116.504 113.482 116.111 113.1 115.605C112.717 115.1 112.423 114.505 112.218 113.821C112.019 113.131 111.92 112.382 111.92 111.576ZM113.817 111.36V111.576C113.817 112.129 113.872 112.649 113.981 113.134C114.098 113.62 114.272 114.047 114.504 114.416C114.744 114.785 115.048 115.076 115.417 115.288C115.786 115.493 116.227 115.595 116.74 115.595C117.369 115.595 117.888 115.462 118.298 115.195C118.708 114.929 119.033 114.577 119.272 114.139C119.518 113.702 119.71 113.227 119.847 112.714V110.243C119.771 109.867 119.655 109.504 119.498 109.156C119.348 108.8 119.149 108.486 118.903 108.212C118.664 107.932 118.367 107.71 118.011 107.546C117.656 107.382 117.239 107.3 116.76 107.3C116.241 107.3 115.793 107.409 115.417 107.628C115.048 107.84 114.744 108.134 114.504 108.51C114.272 108.879 114.098 109.31 113.981 109.802C113.872 110.287 113.817 110.807 113.817 111.36ZM129.397 117.205C128.625 117.205 127.924 117.075 127.295 116.815C126.673 116.549 126.137 116.176 125.686 115.698C125.241 115.219 124.899 114.652 124.66 113.996C124.421 113.339 124.301 112.622 124.301 111.842V111.412C124.301 110.509 124.435 109.706 124.701 109.002C124.968 108.291 125.33 107.689 125.788 107.197C126.246 106.705 126.766 106.333 127.347 106.08C127.928 105.827 128.529 105.7 129.151 105.7C129.944 105.7 130.628 105.837 131.202 106.11C131.783 106.384 132.258 106.767 132.627 107.259C132.997 107.744 133.27 108.318 133.448 108.981C133.626 109.638 133.714 110.355 133.714 111.135V111.986H125.429V110.438H131.817V110.294C131.79 109.802 131.688 109.323 131.51 108.858C131.339 108.394 131.065 108.011 130.689 107.71C130.314 107.409 129.801 107.259 129.151 107.259C128.721 107.259 128.324 107.351 127.962 107.536C127.6 107.713 127.289 107.98 127.029 108.335C126.769 108.691 126.567 109.125 126.424 109.638C126.28 110.15 126.209 110.742 126.209 111.412V111.842C126.209 112.369 126.28 112.864 126.424 113.329C126.574 113.787 126.79 114.19 127.07 114.539C127.357 114.888 127.702 115.161 128.106 115.359C128.516 115.558 128.981 115.657 129.5 115.657C130.17 115.657 130.737 115.52 131.202 115.247C131.667 114.973 132.074 114.607 132.422 114.149L133.571 115.062C133.332 115.424 133.027 115.77 132.658 116.098C132.289 116.426 131.835 116.692 131.294 116.897C130.761 117.103 130.129 117.205 129.397 117.205ZM138.456 108.274V117H136.559V105.905H138.354L138.456 108.274ZM138.005 111.032L137.215 111.001C137.222 110.243 137.335 109.542 137.554 108.899C137.773 108.25 138.08 107.686 138.477 107.208C138.873 106.729 139.345 106.36 139.892 106.1C140.445 105.833 141.057 105.7 141.727 105.7C142.274 105.7 142.766 105.775 143.204 105.926C143.641 106.069 144.014 106.302 144.321 106.623C144.636 106.944 144.875 107.361 145.039 107.874C145.203 108.38 145.285 108.999 145.285 109.73V117H143.378V109.709C143.378 109.128 143.293 108.664 143.122 108.315C142.951 107.959 142.701 107.703 142.373 107.546C142.045 107.382 141.642 107.3 141.163 107.3C140.692 107.3 140.261 107.399 139.871 107.597C139.488 107.795 139.157 108.069 138.877 108.417C138.603 108.766 138.388 109.166 138.231 109.617C138.08 110.062 138.005 110.533 138.005 111.032ZM153.442 105.905V107.361H147.443V105.905H153.442ZM149.473 103.208H151.37V114.252C151.37 114.628 151.428 114.912 151.545 115.103C151.661 115.294 151.811 115.421 151.996 115.482C152.18 115.544 152.379 115.575 152.591 115.575C152.748 115.575 152.912 115.561 153.083 115.534C153.261 115.5 153.394 115.472 153.483 115.452L153.493 117C153.343 117.048 153.144 117.092 152.898 117.133C152.659 117.181 152.368 117.205 152.027 117.205C151.562 117.205 151.135 117.113 150.745 116.928C150.355 116.744 150.044 116.436 149.812 116.005C149.586 115.568 149.473 114.98 149.473 114.242V103.208ZM162.757 114.057C162.757 113.784 162.695 113.531 162.572 113.298C162.456 113.059 162.213 112.844 161.844 112.652C161.482 112.454 160.935 112.283 160.204 112.14C159.588 112.01 159.031 111.856 158.532 111.678C158.04 111.5 157.62 111.285 157.271 111.032C156.929 110.779 156.666 110.482 156.481 110.14C156.297 109.798 156.204 109.398 156.204 108.94C156.204 108.503 156.3 108.089 156.492 107.7C156.69 107.31 156.967 106.965 157.322 106.664C157.684 106.363 158.119 106.127 158.624 105.957C159.13 105.786 159.694 105.7 160.316 105.7C161.205 105.7 161.964 105.857 162.593 106.172C163.222 106.486 163.704 106.907 164.038 107.433C164.373 107.953 164.541 108.53 164.541 109.166H162.644C162.644 108.858 162.552 108.561 162.367 108.274C162.189 107.98 161.926 107.737 161.578 107.546C161.236 107.354 160.815 107.259 160.316 107.259C159.79 107.259 159.363 107.341 159.035 107.505C158.713 107.662 158.477 107.864 158.327 108.11C158.183 108.356 158.112 108.616 158.112 108.889C158.112 109.094 158.146 109.279 158.214 109.443C158.289 109.6 158.419 109.747 158.604 109.884C158.788 110.014 159.048 110.137 159.383 110.253C159.718 110.369 160.145 110.485 160.665 110.602C161.574 110.807 162.323 111.053 162.911 111.34C163.498 111.627 163.936 111.979 164.223 112.396C164.51 112.813 164.654 113.319 164.654 113.914C164.654 114.399 164.551 114.843 164.346 115.247C164.148 115.65 163.857 115.999 163.475 116.292C163.099 116.58 162.647 116.805 162.121 116.969C161.601 117.126 161.017 117.205 160.368 117.205C159.39 117.205 158.563 117.031 157.886 116.682C157.209 116.333 156.697 115.882 156.348 115.329C155.999 114.775 155.825 114.19 155.825 113.575H157.732C157.76 114.095 157.91 114.508 158.183 114.816C158.457 115.117 158.792 115.332 159.188 115.462C159.585 115.585 159.978 115.646 160.368 115.646C160.887 115.646 161.321 115.578 161.67 115.441C162.025 115.305 162.295 115.117 162.48 114.877C162.664 114.638 162.757 114.365 162.757 114.057ZM176.444 117H174.548V104.736C174.548 103.937 174.691 103.263 174.978 102.716C175.272 102.163 175.693 101.746 176.239 101.465C176.786 101.178 177.436 101.035 178.188 101.035C178.406 101.035 178.625 101.048 178.844 101.076C179.069 101.103 179.288 101.144 179.5 101.199L179.398 102.747C179.254 102.713 179.09 102.689 178.905 102.675C178.728 102.662 178.55 102.655 178.372 102.655C177.969 102.655 177.62 102.737 177.326 102.901C177.039 103.058 176.82 103.291 176.67 103.598C176.52 103.906 176.444 104.285 176.444 104.736V117ZM178.803 105.905V107.361H172.794V105.905H178.803ZM181.043 111.576V111.34C181.043 110.54 181.159 109.798 181.391 109.115C181.624 108.424 181.959 107.826 182.396 107.32C182.834 106.808 183.364 106.411 183.986 106.131C184.608 105.844 185.305 105.7 186.077 105.7C186.857 105.7 187.557 105.844 188.179 106.131C188.808 106.411 189.342 106.808 189.779 107.32C190.223 107.826 190.562 108.424 190.794 109.115C191.027 109.798 191.143 110.54 191.143 111.34V111.576C191.143 112.375 191.027 113.117 190.794 113.801C190.562 114.484 190.223 115.083 189.779 115.595C189.342 116.101 188.812 116.498 188.19 116.785C187.574 117.065 186.877 117.205 186.098 117.205C185.319 117.205 184.618 117.065 183.996 116.785C183.374 116.498 182.841 116.101 182.396 115.595C181.959 115.083 181.624 114.484 181.391 113.801C181.159 113.117 181.043 112.375 181.043 111.576ZM182.94 111.34V111.576C182.94 112.129 183.005 112.652 183.135 113.145C183.264 113.63 183.459 114.061 183.719 114.437C183.986 114.812 184.317 115.11 184.714 115.329C185.11 115.541 185.572 115.646 186.098 115.646C186.617 115.646 187.072 115.541 187.462 115.329C187.858 115.11 188.186 114.812 188.446 114.437C188.706 114.061 188.901 113.63 189.031 113.145C189.167 112.652 189.236 112.129 189.236 111.576V111.34C189.236 110.793 189.167 110.277 189.031 109.792C188.901 109.299 188.702 108.865 188.436 108.489C188.176 108.106 187.848 107.806 187.451 107.587C187.062 107.368 186.604 107.259 186.077 107.259C185.558 107.259 185.1 107.368 184.703 107.587C184.314 107.806 183.986 108.106 183.719 108.489C183.459 108.865 183.264 109.299 183.135 109.792C183.005 110.277 182.94 110.793 182.94 111.34ZM196.049 107.648V117H194.152V105.905H195.997L196.049 107.648ZM199.515 105.844L199.504 107.607C199.347 107.573 199.197 107.553 199.053 107.546C198.916 107.532 198.759 107.525 198.581 107.525C198.144 107.525 197.758 107.594 197.423 107.73C197.088 107.867 196.804 108.059 196.572 108.305C196.339 108.551 196.155 108.845 196.018 109.187C195.888 109.521 195.803 109.891 195.762 110.294L195.228 110.602C195.228 109.932 195.293 109.303 195.423 108.715C195.56 108.127 195.768 107.607 196.049 107.156C196.329 106.698 196.684 106.343 197.115 106.09C197.553 105.83 198.072 105.7 198.674 105.7C198.81 105.7 198.968 105.717 199.145 105.751C199.323 105.779 199.446 105.81 199.515 105.844ZM207.234 111.576V111.34C207.234 110.54 207.351 109.798 207.583 109.115C207.816 108.424 208.151 107.826 208.588 107.32C209.026 106.808 209.555 106.411 210.177 106.131C210.799 105.844 211.497 105.7 212.269 105.7C213.048 105.7 213.749 105.844 214.371 106.131C215 106.411 215.533 106.808 215.971 107.32C216.415 107.826 216.754 108.424 216.986 109.115C217.218 109.798 217.335 110.54 217.335 111.34V111.576C217.335 112.375 217.218 113.117 216.986 113.801C216.754 114.484 216.415 115.083 215.971 115.595C215.533 116.101 215.004 116.498 214.381 116.785C213.766 117.065 213.069 117.205 212.29 117.205C211.51 117.205 210.81 117.065 210.188 116.785C209.566 116.498 209.032 116.101 208.588 115.595C208.151 115.083 207.816 114.484 207.583 113.801C207.351 113.117 207.234 112.375 207.234 111.576ZM209.131 111.34V111.576C209.131 112.129 209.196 112.652 209.326 113.145C209.456 113.63 209.651 114.061 209.911 114.437C210.177 114.812 210.509 115.11 210.905 115.329C211.302 115.541 211.763 115.646 212.29 115.646C212.809 115.646 213.264 115.541 213.653 115.329C214.05 115.11 214.378 114.812 214.638 114.437C214.898 114.061 215.092 113.63 215.222 113.145C215.359 112.652 215.427 112.129 215.427 111.576V111.34C215.427 110.793 215.359 110.277 215.222 109.792C215.092 109.299 214.894 108.865 214.628 108.489C214.368 108.106 214.04 107.806 213.643 107.587C213.254 107.368 212.796 107.259 212.269 107.259C211.75 107.259 211.292 107.368 210.895 107.587C210.505 107.806 210.177 108.106 209.911 108.489C209.651 108.865 209.456 109.299 209.326 109.792C209.196 110.277 209.131 110.793 209.131 111.34ZM222.24 108.038V121.266H220.333V105.905H222.076L222.24 108.038ZM229.716 111.36V111.576C229.716 112.382 229.62 113.131 229.428 113.821C229.237 114.505 228.957 115.1 228.588 115.605C228.225 116.111 227.778 116.504 227.244 116.785C226.711 117.065 226.099 117.205 225.409 117.205C224.705 117.205 224.083 117.089 223.543 116.856C223.003 116.624 222.545 116.286 222.169 115.841C221.793 115.397 221.492 114.864 221.266 114.242C221.048 113.62 220.897 112.919 220.815 112.14V110.991C220.897 110.171 221.051 109.436 221.277 108.787C221.502 108.137 221.8 107.583 222.169 107.125C222.545 106.661 222.999 106.309 223.532 106.069C224.066 105.823 224.681 105.7 225.378 105.7C226.075 105.7 226.694 105.837 227.234 106.11C227.774 106.377 228.229 106.76 228.598 107.259C228.967 107.758 229.244 108.356 229.428 109.053C229.62 109.744 229.716 110.513 229.716 111.36ZM227.808 111.576V111.36C227.808 110.807 227.75 110.287 227.634 109.802C227.518 109.31 227.337 108.879 227.091 108.51C226.851 108.134 226.544 107.84 226.168 107.628C225.792 107.409 225.344 107.3 224.824 107.3C224.346 107.3 223.929 107.382 223.573 107.546C223.225 107.71 222.927 107.932 222.681 108.212C222.435 108.486 222.234 108.8 222.076 109.156C221.926 109.504 221.813 109.867 221.738 110.243V112.898C221.875 113.377 222.066 113.828 222.312 114.252C222.558 114.669 222.886 115.007 223.297 115.267C223.707 115.52 224.223 115.646 224.845 115.646C225.358 115.646 225.799 115.541 226.168 115.329C226.544 115.11 226.851 114.812 227.091 114.437C227.337 114.061 227.518 113.63 227.634 113.145C227.75 112.652 227.808 112.129 227.808 111.576ZM237.369 117.205C236.597 117.205 235.896 117.075 235.267 116.815C234.645 116.549 234.109 116.176 233.658 115.698C233.213 115.219 232.871 114.652 232.632 113.996C232.393 113.339 232.273 112.622 232.273 111.842V111.412C232.273 110.509 232.407 109.706 232.673 109.002C232.94 108.291 233.302 107.689 233.76 107.197C234.218 106.705 234.738 106.333 235.319 106.08C235.9 105.827 236.501 105.7 237.123 105.7C237.916 105.7 238.6 105.837 239.174 106.11C239.755 106.384 240.23 106.767 240.599 107.259C240.969 107.744 241.242 108.318 241.42 108.981C241.598 109.638 241.686 110.355 241.686 111.135V111.986H233.401V110.438H239.789V110.294C239.762 109.802 239.66 109.323 239.482 108.858C239.311 108.394 239.037 108.011 238.661 107.71C238.286 107.409 237.773 107.259 237.123 107.259C236.693 107.259 236.296 107.351 235.934 107.536C235.572 107.713 235.261 107.98 235.001 108.335C234.741 108.691 234.539 109.125 234.396 109.638C234.252 110.15 234.181 110.742 234.181 111.412V111.842C234.181 112.369 234.252 112.864 234.396 113.329C234.546 113.787 234.762 114.19 235.042 114.539C235.329 114.888 235.674 115.161 236.077 115.359C236.488 115.558 236.952 115.657 237.472 115.657C238.142 115.657 238.709 115.52 239.174 115.247C239.639 114.973 240.046 114.607 240.394 114.149L241.543 115.062C241.304 115.424 240.999 115.77 240.63 116.098C240.261 116.426 239.807 116.692 239.266 116.897C238.733 117.103 238.101 117.205 237.369 117.205ZM246.428 107.648V117H244.531V105.905H246.377L246.428 107.648ZM249.894 105.844L249.884 107.607C249.727 107.573 249.576 107.553 249.433 107.546C249.296 107.532 249.139 107.525 248.961 107.525C248.523 107.525 248.137 107.594 247.802 107.73C247.467 107.867 247.184 108.059 246.951 108.305C246.719 108.551 246.534 108.845 246.397 109.187C246.268 109.521 246.182 109.891 246.141 110.294L245.608 110.602C245.608 109.932 245.673 109.303 245.803 108.715C245.939 108.127 246.148 107.607 246.428 107.156C246.708 106.698 247.064 106.343 247.495 106.09C247.932 105.83 248.452 105.7 249.053 105.7C249.19 105.7 249.347 105.717 249.525 105.751C249.703 105.779 249.826 105.81 249.894 105.844ZM258.409 115.103V109.392C258.409 108.954 258.32 108.575 258.143 108.253C257.972 107.925 257.712 107.672 257.363 107.495C257.015 107.317 256.584 107.228 256.071 107.228C255.593 107.228 255.172 107.31 254.81 107.474C254.455 107.638 254.174 107.854 253.969 108.12C253.771 108.387 253.672 108.674 253.672 108.981H251.775C251.775 108.585 251.878 108.192 252.083 107.802C252.288 107.413 252.582 107.061 252.964 106.746C253.354 106.425 253.819 106.172 254.359 105.987C254.906 105.796 255.514 105.7 256.184 105.7C256.991 105.7 257.702 105.837 258.317 106.11C258.939 106.384 259.424 106.797 259.773 107.351C260.129 107.898 260.306 108.585 260.306 109.412V114.58C260.306 114.949 260.337 115.342 260.399 115.759C260.467 116.176 260.566 116.535 260.696 116.836V117H258.717C258.621 116.781 258.546 116.491 258.491 116.128C258.437 115.759 258.409 115.417 258.409 115.103ZM258.737 110.273L258.758 111.606H256.84C256.3 111.606 255.818 111.651 255.395 111.74C254.971 111.822 254.615 111.948 254.328 112.119C254.041 112.29 253.822 112.505 253.672 112.765C253.522 113.018 253.446 113.315 253.446 113.657C253.446 114.006 253.525 114.324 253.682 114.611C253.839 114.898 254.075 115.127 254.39 115.298C254.711 115.462 255.104 115.544 255.569 115.544C256.15 115.544 256.663 115.421 257.107 115.175C257.551 114.929 257.903 114.628 258.163 114.272C258.43 113.917 258.573 113.572 258.594 113.237L259.404 114.149C259.356 114.437 259.226 114.754 259.014 115.103C258.802 115.452 258.519 115.787 258.163 116.108C257.815 116.422 257.398 116.686 256.912 116.897C256.434 117.103 255.894 117.205 255.292 117.205C254.54 117.205 253.88 117.058 253.313 116.764C252.753 116.47 252.315 116.077 252.001 115.585C251.693 115.086 251.539 114.529 251.539 113.914C251.539 113.319 251.655 112.796 251.888 112.345C252.12 111.887 252.455 111.507 252.893 111.207C253.33 110.899 253.857 110.667 254.472 110.509C255.087 110.352 255.774 110.273 256.533 110.273H258.737ZM268.565 105.905V107.361H262.567V105.905H268.565ZM264.597 103.208H266.494V114.252C266.494 114.628 266.552 114.912 266.668 115.103C266.784 115.294 266.935 115.421 267.119 115.482C267.304 115.544 267.502 115.575 267.714 115.575C267.871 115.575 268.035 115.561 268.206 115.534C268.384 115.5 268.517 115.472 268.606 115.452L268.616 117C268.466 117.048 268.268 117.092 268.022 117.133C267.782 117.181 267.492 117.205 267.15 117.205C266.685 117.205 266.258 117.113 265.868 116.928C265.479 116.744 265.168 116.436 264.935 116.005C264.71 115.568 264.597 114.98 264.597 114.242V103.208ZM273.481 105.905V117H271.574V105.905H273.481ZM271.431 102.962C271.431 102.655 271.523 102.395 271.707 102.183C271.899 101.971 272.179 101.865 272.548 101.865C272.91 101.865 273.187 101.971 273.379 102.183C273.577 102.395 273.676 102.655 273.676 102.962C273.676 103.256 273.577 103.509 273.379 103.721C273.187 103.926 272.91 104.029 272.548 104.029C272.179 104.029 271.899 103.926 271.707 103.721C271.523 103.509 271.431 103.256 271.431 102.962ZM276.654 111.576V111.34C276.654 110.54 276.77 109.798 277.003 109.115C277.235 108.424 277.57 107.826 278.008 107.32C278.445 106.808 278.975 106.411 279.597 106.131C280.219 105.844 280.916 105.7 281.689 105.7C282.468 105.7 283.169 105.844 283.791 106.131C284.42 106.411 284.953 106.808 285.391 107.32C285.835 107.826 286.173 108.424 286.406 109.115C286.638 109.798 286.754 110.54 286.754 111.34V111.576C286.754 112.375 286.638 113.117 286.406 113.801C286.173 114.484 285.835 115.083 285.391 115.595C284.953 116.101 284.423 116.498 283.801 116.785C283.186 117.065 282.489 117.205 281.709 117.205C280.93 117.205 280.229 117.065 279.607 116.785C278.985 116.498 278.452 116.101 278.008 115.595C277.57 115.083 277.235 114.484 277.003 113.801C276.77 113.117 276.654 112.375 276.654 111.576ZM278.551 111.34V111.576C278.551 112.129 278.616 112.652 278.746 113.145C278.876 113.63 279.071 114.061 279.331 114.437C279.597 114.812 279.929 115.11 280.325 115.329C280.722 115.541 281.183 115.646 281.709 115.646C282.229 115.646 282.684 115.541 283.073 115.329C283.47 115.11 283.798 114.812 284.058 114.437C284.317 114.061 284.512 113.63 284.642 113.145C284.779 112.652 284.847 112.129 284.847 111.576V111.34C284.847 110.793 284.779 110.277 284.642 109.792C284.512 109.299 284.314 108.865 284.047 108.489C283.788 108.106 283.459 107.806 283.063 107.587C282.673 107.368 282.215 107.259 281.689 107.259C281.169 107.259 280.711 107.368 280.315 107.587C279.925 107.806 279.597 108.106 279.331 108.489C279.071 108.865 278.876 109.299 278.746 109.792C278.616 110.277 278.551 110.793 278.551 111.34ZM291.66 108.274V117H289.763V105.905H291.558L291.66 108.274ZM291.209 111.032L290.419 111.001C290.426 110.243 290.539 109.542 290.758 108.899C290.977 108.25 291.284 107.686 291.681 107.208C292.077 106.729 292.549 106.36 293.096 106.1C293.649 105.833 294.261 105.7 294.931 105.7C295.478 105.7 295.97 105.775 296.408 105.926C296.845 106.069 297.218 106.302 297.525 106.623C297.84 106.944 298.079 107.361 298.243 107.874C298.407 108.38 298.489 108.999 298.489 109.73V117H296.582V109.709C296.582 109.128 296.497 108.664 296.326 108.315C296.155 107.959 295.905 107.703 295.577 107.546C295.249 107.382 294.846 107.3 294.367 107.3C293.896 107.3 293.465 107.399 293.075 107.597C292.692 107.795 292.361 108.069 292.081 108.417C291.807 108.766 291.592 109.166 291.435 109.617C291.284 110.062 291.209 110.533 291.209 111.032ZM308.461 114.057C308.461 113.784 308.399 113.531 308.276 113.298C308.16 113.059 307.917 112.844 307.548 112.652C307.186 112.454 306.639 112.283 305.907 112.14C305.292 112.01 304.735 111.856 304.236 111.678C303.744 111.5 303.323 111.285 302.975 111.032C302.633 110.779 302.37 110.482 302.185 110.14C302.001 109.798 301.908 109.398 301.908 108.94C301.908 108.503 302.004 108.089 302.195 107.7C302.394 107.31 302.671 106.965 303.026 106.664C303.388 106.363 303.822 106.127 304.328 105.957C304.834 105.786 305.398 105.7 306.02 105.7C306.909 105.7 307.668 105.857 308.297 106.172C308.925 106.486 309.407 106.907 309.742 107.433C310.077 107.953 310.245 108.53 310.245 109.166H308.348C308.348 108.858 308.256 108.561 308.071 108.274C307.893 107.98 307.63 107.737 307.281 107.546C306.94 107.354 306.519 107.259 306.02 107.259C305.494 107.259 305.067 107.341 304.738 107.505C304.417 107.662 304.181 107.864 304.031 108.11C303.887 108.356 303.816 108.616 303.816 108.889C303.816 109.094 303.85 109.279 303.918 109.443C303.993 109.6 304.123 109.747 304.308 109.884C304.492 110.014 304.752 110.137 305.087 110.253C305.422 110.369 305.849 110.485 306.369 110.602C307.278 110.807 308.027 111.053 308.614 111.34C309.202 111.627 309.64 111.979 309.927 112.396C310.214 112.813 310.358 113.319 310.358 113.914C310.358 114.399 310.255 114.843 310.05 115.247C309.852 115.65 309.561 115.999 309.178 116.292C308.802 116.58 308.351 116.805 307.825 116.969C307.305 117.126 306.721 117.205 306.071 117.205C305.094 117.205 304.267 117.031 303.59 116.682C302.913 116.333 302.401 115.882 302.052 115.329C301.703 114.775 301.529 114.19 301.529 113.575H303.436C303.464 114.095 303.614 114.508 303.887 114.816C304.161 115.117 304.496 115.332 304.892 115.462C305.289 115.585 305.682 115.646 306.071 115.646C306.591 115.646 307.025 115.578 307.374 115.441C307.729 115.305 307.999 115.117 308.184 114.877C308.368 114.638 308.461 114.365 308.461 114.057Z" fill="#4F5052"/>
<path d="M182.404 40.9375V58H178.9V40.9375H182.404ZM187.654 40.9375V43.6914H173.732V40.9375H187.654ZM187.589 51.7891V51.543C187.589 50.6133 187.721 49.7578 187.987 48.9766C188.253 48.1875 188.639 47.5039 189.147 46.9258C189.655 46.3477 190.28 45.8984 191.022 45.5781C191.764 45.25 192.616 45.0859 193.577 45.0859C194.538 45.0859 195.393 45.25 196.143 45.5781C196.893 45.8984 197.522 46.3477 198.03 46.9258C198.546 47.5039 198.936 48.1875 199.202 48.9766C199.467 49.7578 199.6 50.6133 199.6 51.543V51.7891C199.6 52.7109 199.467 53.5664 199.202 54.3555C198.936 55.1367 198.546 55.8203 198.03 56.4062C197.522 56.9844 196.897 57.4336 196.155 57.7539C195.413 58.0742 194.561 58.2344 193.6 58.2344C192.639 58.2344 191.784 58.0742 191.034 57.7539C190.292 57.4336 189.663 56.9844 189.147 56.4062C188.639 55.8203 188.253 55.1367 187.987 54.3555C187.721 53.5664 187.589 52.7109 187.589 51.7891ZM190.964 51.543V51.7891C190.964 52.3203 191.01 52.8164 191.104 53.2773C191.198 53.7383 191.346 54.1445 191.55 54.4961C191.76 54.8398 192.034 55.1094 192.37 55.3047C192.706 55.5 193.116 55.5977 193.6 55.5977C194.069 55.5977 194.471 55.5 194.807 55.3047C195.143 55.1094 195.413 54.8398 195.616 54.4961C195.819 54.1445 195.967 53.7383 196.061 53.2773C196.163 52.8164 196.214 52.3203 196.214 51.7891V51.543C196.214 51.0273 196.163 50.543 196.061 50.0898C195.967 49.6289 195.815 49.2227 195.604 48.8711C195.401 48.5117 195.132 48.2305 194.796 48.0273C194.46 47.8242 194.053 47.7227 193.577 47.7227C193.1 47.7227 192.694 47.8242 192.358 48.0273C192.03 48.2305 191.76 48.5117 191.55 48.8711C191.346 49.2227 191.198 49.6289 191.104 50.0898C191.01 50.543 190.964 51.0273 190.964 51.543ZM201.855 51.7891V51.543C201.855 50.6133 201.988 49.7578 202.254 48.9766C202.52 48.1875 202.906 47.5039 203.414 46.9258C203.922 46.3477 204.547 45.8984 205.289 45.5781C206.031 45.25 206.883 45.0859 207.844 45.0859C208.805 45.0859 209.66 45.25 210.41 45.5781C211.16 45.8984 211.789 46.3477 212.297 46.9258C212.812 47.5039 213.203 48.1875 213.469 48.9766C213.734 49.7578 213.867 50.6133 213.867 51.543V51.7891C213.867 52.7109 213.734 53.5664 213.469 54.3555C213.203 55.1367 212.812 55.8203 212.297 56.4062C211.789 56.9844 211.164 57.4336 210.422 57.7539C209.68 58.0742 208.828 58.2344 207.867 58.2344C206.906 58.2344 206.051 58.0742 205.301 57.7539C204.559 57.4336 203.93 56.9844 203.414 56.4062C202.906 55.8203 202.52 55.1367 202.254 54.3555C201.988 53.5664 201.855 52.7109 201.855 51.7891ZM205.23 51.543V51.7891C205.23 52.3203 205.277 52.8164 205.371 53.2773C205.465 53.7383 205.613 54.1445 205.816 54.4961C206.027 54.8398 206.301 55.1094 206.637 55.3047C206.973 55.5 207.383 55.5977 207.867 55.5977C208.336 55.5977 208.738 55.5 209.074 55.3047C209.41 55.1094 209.68 54.8398 209.883 54.4961C210.086 54.1445 210.234 53.7383 210.328 53.2773C210.43 52.8164 210.48 52.3203 210.48 51.7891V51.543C210.48 51.0273 210.43 50.543 210.328 50.0898C210.234 49.6289 210.082 49.2227 209.871 48.8711C209.668 48.5117 209.398 48.2305 209.062 48.0273C208.727 47.8242 208.32 47.7227 207.844 47.7227C207.367 47.7227 206.961 47.8242 206.625 48.0273C206.297 48.2305 206.027 48.5117 205.816 48.8711C205.613 49.2227 205.465 49.6289 205.371 50.0898C205.277 50.543 205.23 51.0273 205.23 51.543ZM220.224 40V58H216.837V40H220.224ZM230.588 54.4961C230.588 54.2539 230.518 54.0352 230.378 53.8398C230.237 53.6445 229.975 53.4648 229.592 53.3008C229.217 53.1289 228.674 52.9727 227.963 52.832C227.323 52.6914 226.725 52.5156 226.17 52.3047C225.624 52.0859 225.147 51.8242 224.741 51.5195C224.342 51.2148 224.03 50.8555 223.803 50.4414C223.577 50.0195 223.463 49.5391 223.463 49C223.463 48.4688 223.577 47.9688 223.803 47.5C224.038 47.0312 224.37 46.6172 224.799 46.2578C225.237 45.8906 225.768 45.6055 226.393 45.4023C227.026 45.1914 227.737 45.0859 228.526 45.0859C229.628 45.0859 230.573 45.2617 231.362 45.6133C232.159 45.9648 232.768 46.4492 233.19 47.0664C233.62 47.6758 233.835 48.3711 233.835 49.1523H230.46C230.46 48.8242 230.389 48.5312 230.249 48.2734C230.116 48.0078 229.905 47.8008 229.616 47.6523C229.335 47.4961 228.967 47.418 228.514 47.418C228.139 47.418 227.815 47.4844 227.542 47.6172C227.268 47.7422 227.057 47.9141 226.909 48.1328C226.768 48.3438 226.698 48.5781 226.698 48.8359C226.698 49.0312 226.737 49.207 226.815 49.3633C226.901 49.5117 227.038 49.6484 227.225 49.7734C227.413 49.8984 227.655 50.0156 227.952 50.125C228.256 50.2266 228.631 50.3203 229.077 50.4062C229.991 50.5938 230.807 50.8398 231.526 51.1445C232.245 51.4414 232.815 51.8477 233.237 52.3633C233.659 52.8711 233.87 53.5391 233.87 54.3672C233.87 54.9297 233.745 55.4453 233.495 55.9141C233.245 56.3828 232.885 56.793 232.417 57.1445C231.948 57.4883 231.385 57.7578 230.729 57.9531C230.081 58.1406 229.35 58.2344 228.538 58.2344C227.358 58.2344 226.358 58.0234 225.538 57.6016C224.725 57.1797 224.108 56.6445 223.686 55.9961C223.272 55.3398 223.065 54.668 223.065 53.9805H226.264C226.28 54.4414 226.397 54.8125 226.616 55.0938C226.842 55.375 227.128 55.5781 227.471 55.7031C227.823 55.8281 228.202 55.8906 228.608 55.8906C229.045 55.8906 229.409 55.832 229.698 55.7148C229.987 55.5898 230.206 55.4258 230.354 55.2227C230.51 55.0117 230.588 54.7695 230.588 54.4961Z" fill="#114DFF"/>
<g clip-path="url(#clip0_21_199)">
<path d="M156.7 39.0176C156.988 38.992 158.088 38.9258 157.972 39.4414L155.894 42.0741C155.679 42.4856 155.719 42.9482 155.956 43.3428C156.083 43.553 157.569 44.8455 157.807 44.9779C159.292 45.806 160.345 42.8731 161.349 42.1801C161.833 42.0397 161.931 42.9146 161.967 43.2801C162.318 46.8664 159.82 49.7578 156.241 49.3905L150.236 58.4241C148.13 61.9617 143.531 58.9291 145.464 55.3958L152.537 46.7472C152.608 46.5238 152.236 45.6348 152.171 45.2746C151.629 42.2595 153.678 39.2878 156.7 39.0176Z" fill="#114DFF"/>
</g>
<defs>
<filter id="filter0_d_21_199" x="0" y="0" width="408" height="185" filterUnits="userSpaceOnUse" color-interpolation-filters="sRGB">
<feFlood flood-opacity="0" result="BackgroundImageFix"/>
<feColorMatrix in="SourceAlpha" type="matrix" values="0 0 0 0 0 0 0 0 0 0 0 0 0 0 0 0 0 0 127 0" result="hardAlpha"/>
<feOffset dy="4"/>
<feGaussianBlur stdDeviation="2"/>
<feComposite in2="hardAlpha" operator="out"/>
<feColorMatrix type="matrix" values="0 0 0 0 0 0 0 0 0 0 0 0 0 0 0 0 0 0 0.13 0"/>
<feBlend mode="normal" in2="BackgroundImageFix" result="effect1_dropShadow_21_199"/>
<feBlend mode="normal" in="SourceGraphic" in2="effect1_dropShadow_21_199" result="shape"/>
</filter>
<linearGradient id="paint0_linear_21_199" x1="9.16605" y1="16.3385" x2="406.729" y2="37.6865" gradientUnits="userSpaceOnUse">
<stop offset="0.197139" stop-color="#F6F8FF"/>
<stop offset="0.663491" stop-color="#3CE5A7"/>
<stop offset="1" stop-color="#114DFF"/>
</linearGradient>
<clipPath id="clip0_21_199">
<rect width="17" height="21" fill="white" transform="translate(145 39)"/>
</clipPath>
</defs>
</svg>
