<svg width="389" height="49" viewBox="0 0 389 49" fill="none" xmlns="http://www.w3.org/2000/svg">
<path d="M14.5625 42.3125L23.625 2.5H28.8438L30.9062 7.4375L21.25 48H15.5312L14.5625 42.3125ZM11.0312 2.5L18.625 42.5L17.3125 48H10.8125L0.9375 2.5H11.0312ZM37.375 42.2812L44.875 2.5H54.9375L45.0625 48H38.625L37.375 42.2812ZM32.25 2.5L41.4375 42.5312L40.375 48H34.6875L24.875 7.40625L27.0312 2.5H32.25ZM68.6562 0V48H58.9062V0H68.6562ZM67.375 29.9062L64.9375 29.9688C64.9375 27.5938 65.2292 25.4167 65.8125 23.4375C66.4167 21.4375 67.2708 19.6979 68.375 18.2188C69.4792 16.7396 70.8021 15.5938 72.3438 14.7812C73.9062 13.9688 75.625 13.5625 77.5 13.5625C79.1667 13.5625 80.6875 13.8021 82.0625 14.2812C83.4375 14.7604 84.625 15.5208 85.625 16.5625C86.625 17.6042 87.3958 18.9688 87.9375 20.6562C88.4792 22.3438 88.75 24.3958 88.75 26.8125V48H78.9375V26.75C78.9375 25.3125 78.7292 24.1875 78.3125 23.375C77.9167 22.5625 77.3333 21.9896 76.5625 21.6562C75.8125 21.3229 74.8958 21.1562 73.8125 21.1562C72.5417 21.1562 71.4896 21.3854 70.6562 21.8438C69.8229 22.2812 69.1667 22.8958 68.6875 23.6875C68.2083 24.4792 67.8646 25.4062 67.6562 26.4688C67.4688 27.5312 67.375 28.6771 67.375 29.9062ZM113.031 39.9375V25.4375C113.031 24.4167 112.875 23.5417 112.562 22.8125C112.25 22.0833 111.76 21.5104 111.094 21.0938C110.427 20.6771 109.562 20.4688 108.5 20.4688C107.604 20.4688 106.823 20.625 106.156 20.9375C105.51 21.25 105.01 21.6979 104.656 22.2812C104.323 22.8646 104.156 23.5833 104.156 24.4375H94.4062C94.4062 22.9167 94.75 21.5 95.4375 20.1875C96.125 18.875 97.1042 17.7188 98.375 16.7188C99.6667 15.7188 101.208 14.9479 103 14.4062C104.792 13.8438 106.802 13.5625 109.031 13.5625C111.677 13.5625 114.031 14.0104 116.094 14.9062C118.177 15.7812 119.823 17.1042 121.031 18.875C122.24 20.625 122.844 22.8333 122.844 25.5V39.6562C122.844 41.6979 122.958 43.3021 123.188 44.4688C123.438 45.6146 123.792 46.6146 124.25 47.4688V48H114.406C113.948 47.0208 113.604 45.8125 113.375 44.375C113.146 42.9167 113.031 41.4375 113.031 39.9375ZM114.25 27.375L114.312 32.75H109.469C108.385 32.75 107.448 32.8854 106.656 33.1562C105.885 33.4271 105.26 33.8021 104.781 34.2812C104.302 34.7396 103.948 35.2812 103.719 35.9062C103.51 36.5104 103.406 37.1771 103.406 37.9062C103.406 38.5938 103.573 39.2188 103.906 39.7812C104.24 40.3229 104.698 40.75 105.281 41.0625C105.865 41.375 106.542 41.5312 107.312 41.5312C108.583 41.5312 109.667 41.2812 110.562 40.7812C111.479 40.2812 112.188 39.6771 112.688 38.9688C113.188 38.2396 113.438 37.5625 113.438 36.9375L115.781 41C115.406 41.8333 114.948 42.6979 114.406 43.5938C113.865 44.4688 113.177 45.2917 112.344 46.0625C111.51 46.8125 110.5 47.4271 109.312 47.9062C108.146 48.3854 106.74 48.625 105.094 48.625C102.969 48.625 101.042 48.1979 99.3125 47.3438C97.5833 46.4688 96.1979 45.2708 95.1562 43.75C94.1354 42.2292 93.625 40.4792 93.625 38.5C93.625 36.7292 93.9479 35.1562 94.5938 33.7812C95.2396 32.4062 96.2083 31.2396 97.5 30.2812C98.8125 29.3229 100.458 28.6042 102.438 28.125C104.417 27.625 106.729 27.375 109.375 27.375H114.25ZM146.438 14.1875V21.0312H126.375V14.1875H146.438ZM130.969 5.8125H140.75V37.4062C140.75 38.3438 140.865 39.0625 141.094 39.5625C141.323 40.0625 141.698 40.4167 142.219 40.625C142.74 40.8125 143.406 40.9062 144.219 40.9062C144.802 40.9062 145.302 40.8854 145.719 40.8438C146.135 40.8021 146.521 40.75 146.875 40.6875V47.75C146.042 48.0208 145.156 48.2292 144.219 48.375C143.281 48.5417 142.26 48.625 141.156 48.625C139.052 48.625 137.229 48.2812 135.688 47.5938C134.167 46.9062 133 45.8229 132.188 44.3438C131.375 42.8438 130.969 40.8958 130.969 38.5V5.8125ZM174.844 2.5L183.75 22.75L192.719 2.5H203.719L188.938 31.5625V48H178.594V31.5625L163.781 2.5H174.844ZM203.531 31.4375V30.7812C203.531 28.3021 203.885 26.0208 204.594 23.9375C205.302 21.8333 206.344 20.0104 207.719 18.4688C209.094 16.9271 210.781 15.7292 212.781 14.875C214.781 14 217.073 13.5625 219.656 13.5625C222.281 13.5625 224.594 14 226.594 14.875C228.615 15.7292 230.312 16.9271 231.688 18.4688C233.062 20.0104 234.104 21.8333 234.812 23.9375C235.521 26.0208 235.875 28.3021 235.875 30.7812V31.4375C235.875 33.8958 235.521 36.1771 234.812 38.2812C234.104 40.3646 233.062 42.1875 231.688 43.75C230.312 45.2917 228.625 46.4896 226.625 47.3438C224.625 48.1979 222.323 48.625 219.719 48.625C217.135 48.625 214.833 48.1979 212.812 47.3438C210.792 46.4896 209.094 45.2917 207.719 43.75C206.344 42.1875 205.302 40.3646 204.594 38.2812C203.885 36.1771 203.531 33.8958 203.531 31.4375ZM213.312 30.7812V31.4375C213.312 32.7708 213.417 34.0208 213.625 35.1875C213.854 36.3542 214.219 37.375 214.719 38.25C215.219 39.125 215.875 39.8125 216.688 40.3125C217.521 40.7917 218.531 41.0312 219.719 41.0312C220.906 41.0312 221.906 40.7917 222.719 40.3125C223.531 39.8125 224.188 39.125 224.688 38.25C225.188 37.375 225.542 36.3542 225.75 35.1875C225.979 34.0208 226.094 32.7708 226.094 31.4375V30.7812C226.094 29.4688 225.979 28.2396 225.75 27.0938C225.542 25.9271 225.188 24.8958 224.688 24C224.188 23.1042 223.521 22.4062 222.688 21.9062C221.875 21.4062 220.865 21.1562 219.656 21.1562C218.49 21.1562 217.5 21.4062 216.688 21.9062C215.875 22.4062 215.219 23.1042 214.719 24C214.219 24.8958 213.854 25.9271 213.625 27.0938C213.417 28.2396 213.312 29.4688 213.312 30.7812ZM260.844 39.8438V14.1875H270.656V48H261.469L260.844 39.8438ZM261.875 32.9375L264.562 32.875C264.562 35.1458 264.292 37.2396 263.75 39.1562C263.229 41.0729 262.438 42.7396 261.375 44.1562C260.333 45.5729 259.031 46.6771 257.469 47.4688C255.927 48.2396 254.125 48.625 252.062 48.625C250.396 48.625 248.865 48.3958 247.469 47.9375C246.094 47.4583 244.906 46.7188 243.906 45.7188C242.906 44.6979 242.135 43.3958 241.594 41.8125C241.052 40.2083 240.781 38.2917 240.781 36.0625V14.1875H250.531V36.125C250.531 37 250.635 37.75 250.844 38.375C251.073 38.9792 251.375 39.4792 251.75 39.875C252.146 40.2708 252.625 40.5625 253.188 40.75C253.771 40.9375 254.406 41.0312 255.094 41.0312C256.823 41.0312 258.177 40.6771 259.156 39.9688C260.156 39.2396 260.854 38.2708 261.25 37.0625C261.667 35.8333 261.875 34.4583 261.875 32.9375Z" fill="white"/>
<path d="M330.094 23.9688V42.3125C329.344 43.1667 328.198 44.0833 326.656 45.0625C325.135 46.0417 323.188 46.8854 320.812 47.5938C318.438 48.2812 315.604 48.625 312.312 48.625C309.333 48.625 306.625 48.1458 304.188 47.1875C301.75 46.2083 299.656 44.7812 297.906 42.9062C296.156 41.0104 294.802 38.6979 293.844 35.9688C292.906 33.2396 292.438 30.1146 292.438 26.5938V23.9062C292.438 20.3854 292.906 17.2604 293.844 14.5312C294.781 11.8021 296.104 9.5 297.812 7.625C299.521 5.72917 301.552 4.29167 303.906 3.3125C306.26 2.33333 308.865 1.84375 311.719 1.84375C315.781 1.84375 319.104 2.5 321.688 3.8125C324.271 5.10417 326.229 6.89583 327.562 9.1875C328.917 11.4792 329.75 14.1146 330.062 17.0938H320.25C320.042 15.5729 319.625 14.2604 319 13.1562C318.396 12.0521 317.531 11.2083 316.406 10.625C315.281 10.0208 313.823 9.71875 312.031 9.71875C310.594 9.71875 309.292 10.0208 308.125 10.625C306.979 11.2083 306.01 12.0938 305.219 13.2812C304.427 14.4688 303.823 15.9479 303.406 17.7188C302.99 19.4688 302.781 21.5104 302.781 23.8438V26.5938C302.781 28.9271 302.99 30.9792 303.406 32.75C303.844 34.5208 304.479 36 305.312 37.1875C306.146 38.3542 307.198 39.2396 308.469 39.8438C309.76 40.4479 311.26 40.75 312.969 40.75C314.302 40.75 315.427 40.6458 316.344 40.4375C317.26 40.2083 318.01 39.9271 318.594 39.5938C319.177 39.2396 319.615 38.9167 319.906 38.625V31.0625H311.812V23.9688H330.094ZM352.5 48.625C349.812 48.625 347.406 48.1979 345.281 47.3438C343.156 46.4896 341.354 45.3125 339.875 43.8125C338.417 42.2917 337.302 40.5417 336.531 38.5625C335.76 36.5833 335.375 34.4688 335.375 32.2188V31.0312C335.375 28.5104 335.729 26.1875 336.438 24.0625C337.146 21.9375 338.177 20.0938 339.531 18.5312C340.906 16.9479 342.594 15.7292 344.594 14.875C346.594 14 348.875 13.5625 351.438 13.5625C353.833 13.5625 355.969 13.9583 357.844 14.75C359.719 15.5208 361.302 16.6354 362.594 18.0938C363.885 19.5312 364.865 21.2708 365.531 23.3125C366.219 25.3333 366.562 27.6042 366.562 30.125V34.125H339.312V27.8438H357V27.0938C357 25.9062 356.781 24.8646 356.344 23.9688C355.927 23.0729 355.302 22.3854 354.469 21.9062C353.656 21.4062 352.625 21.1562 351.375 21.1562C350.188 21.1562 349.198 21.4062 348.406 21.9062C347.615 22.4062 346.979 23.1146 346.5 24.0312C346.042 24.9271 345.708 25.9792 345.5 27.1875C345.292 28.375 345.188 29.6562 345.188 31.0312V32.2188C345.188 33.5312 345.365 34.7292 345.719 35.8125C346.073 36.8958 346.594 37.8229 347.281 38.5938C347.969 39.3646 348.802 39.9688 349.781 40.4062C350.76 40.8438 351.875 41.0625 353.125 41.0625C354.667 41.0625 356.135 40.7708 357.531 40.1875C358.927 39.5833 360.135 38.6458 361.156 37.375L365.719 42.5938C365.031 43.5938 364.062 44.5625 362.812 45.5C361.583 46.4167 360.104 47.1667 358.375 47.75C356.646 48.3333 354.688 48.625 352.5 48.625ZM388.5 14.1875V21.0312H368.438V14.1875H388.5ZM373.031 5.8125H382.812V37.4062C382.812 38.3438 382.927 39.0625 383.156 39.5625C383.385 40.0625 383.76 40.4167 384.281 40.625C384.802 40.8125 385.469 40.9062 386.281 40.9062C386.865 40.9062 387.365 40.8854 387.781 40.8438C388.198 40.8021 388.583 40.75 388.938 40.6875V47.75C388.104 48.0208 387.219 48.2292 386.281 48.375C385.344 48.5417 384.323 48.625 383.219 48.625C381.115 48.625 379.292 48.2812 377.75 47.5938C376.229 46.9062 375.062 45.8229 374.25 44.3438C373.438 42.8438 373.031 40.8958 373.031 38.5V5.8125Z" fill="#3CE5A7"/>
</svg>
