<svg width="586" height="506" viewBox="0 0 586 506" fill="none" xmlns="http://www.w3.org/2000/svg">
<g filter="url(#filter0_d_21_123)">
<rect x="1.5" y="-1.5" width="1533" height="471" rx="235.5" transform="matrix(1 0 0 -1 -966 483)" fill="url(#paint0_linear_21_123)" fill-opacity="0.79" stroke="url(#paint1_linear_21_123)" stroke-width="3"/>
<mask id="mask0_21_123" style="mask-type:alpha" maskUnits="userSpaceOnUse" x="-966" y="12" width="1536" height="474">
<rect width="1536" height="474" rx="237" transform="matrix(1 0 0 -1 -966 486)" fill="#F6F8FF"/>
</mask>
<g mask="url(#mask0_21_123)">
<g filter="url(#filter1_f_21_123)">
<path d="M-750.681 392.613C-855.153 421.488 -930.025 503.569 -954.402 541C-1179.02 500.895 -1105.89 75.7857 -1014.47 -16.4551C-947.696 -83.8374 168.68 -184.895 398.52 -180.884C628.361 -176.874 654.479 392.613 597.019 356.518C539.559 320.424 90.3253 324.435 -74.2192 332.456C-238.764 340.477 -620.09 356.518 -750.681 392.613Z" fill="#F6F8FF"/>
</g>
</g>
<path d="M279.287 235.586L286.083 206.875H289.88L290.747 211.656L283.505 241H279.427L279.287 235.586ZM275.794 206.875L281.419 235.586L280.951 241H276.404L268.833 206.875H275.794ZM296.724 235.469L302.279 206.875H309.24L301.693 241H297.146L296.724 235.469ZM292.013 206.875L298.857 235.703L298.669 241H294.591L287.302 211.633L288.24 206.875H292.013ZM320.664 205V241H313.914V205H320.664ZM319.703 227.43H317.852C317.867 225.664 318.102 224.039 318.555 222.555C319.008 221.055 319.656 219.758 320.5 218.664C321.344 217.555 322.352 216.695 323.523 216.086C324.711 215.477 326.023 215.172 327.461 215.172C328.711 215.172 329.844 215.352 330.859 215.711C331.891 216.055 332.773 216.617 333.508 217.398C334.258 218.164 334.836 219.172 335.242 220.422C335.648 221.672 335.852 223.188 335.852 224.969V241H329.055V224.922C329.055 223.797 328.891 222.914 328.562 222.273C328.25 221.617 327.789 221.156 327.18 220.891C326.586 220.609 325.852 220.469 324.977 220.469C324.008 220.469 323.18 220.648 322.492 221.008C321.82 221.367 321.281 221.867 320.875 222.508C320.469 223.133 320.172 223.867 319.984 224.711C319.797 225.555 319.703 226.461 319.703 227.43ZM349.948 238.141L356.674 215.641H363.917L353.721 244.82C353.503 245.461 353.206 246.148 352.831 246.883C352.471 247.617 351.979 248.312 351.354 248.969C350.745 249.641 349.971 250.188 349.034 250.609C348.112 251.031 346.979 251.242 345.635 251.242C344.995 251.242 344.471 251.203 344.065 251.125C343.659 251.047 343.174 250.938 342.612 250.797V245.852C342.784 245.852 342.963 245.852 343.151 245.852C343.338 245.867 343.518 245.875 343.69 245.875C344.581 245.875 345.307 245.773 345.87 245.57C346.432 245.367 346.885 245.055 347.229 244.633C347.573 244.227 347.846 243.695 348.049 243.039L349.948 238.141ZM347.135 215.641L352.643 234.016L353.604 241.164L349.01 241.656L339.893 215.641H347.135ZM230.147 283.586L236.944 254.875H240.741L241.608 259.656L234.366 289H230.288L230.147 283.586ZM226.655 254.875L232.28 283.586L231.812 289H227.265L219.694 254.875H226.655ZM247.585 283.469L253.14 254.875H260.101L252.554 289H248.007L247.585 283.469ZM242.874 254.875L249.718 283.703L249.53 289H245.452L238.163 259.633L239.101 254.875H242.874ZM275.861 289.469C273.892 289.469 272.127 289.156 270.564 288.531C269.002 287.891 267.673 287.008 266.58 285.883C265.502 284.758 264.673 283.453 264.095 281.969C263.517 280.469 263.228 278.875 263.228 277.188V276.25C263.228 274.328 263.502 272.57 264.048 270.977C264.595 269.383 265.377 268 266.392 266.828C267.423 265.656 268.673 264.758 270.142 264.133C271.611 263.492 273.267 263.172 275.111 263.172C276.908 263.172 278.502 263.469 279.892 264.062C281.283 264.656 282.447 265.5 283.384 266.594C284.337 267.688 285.056 269 285.541 270.531C286.025 272.047 286.267 273.734 286.267 275.594V278.406H266.111V273.906H279.634V273.391C279.634 272.453 279.462 271.617 279.119 270.883C278.791 270.133 278.291 269.539 277.619 269.102C276.947 268.664 276.087 268.445 275.041 268.445C274.15 268.445 273.384 268.641 272.744 269.031C272.103 269.422 271.58 269.969 271.173 270.672C270.783 271.375 270.486 272.203 270.283 273.156C270.095 274.094 270.002 275.125 270.002 276.25V277.188C270.002 278.203 270.142 279.141 270.423 280C270.72 280.859 271.134 281.602 271.666 282.227C272.212 282.852 272.869 283.336 273.634 283.68C274.416 284.023 275.298 284.195 276.283 284.195C277.502 284.195 278.634 283.961 279.681 283.492C280.744 283.008 281.658 282.281 282.423 281.312L285.705 284.875C285.173 285.641 284.447 286.375 283.525 287.078C282.619 287.781 281.525 288.359 280.244 288.812C278.962 289.25 277.502 289.469 275.861 289.469ZM328.264 283.516V289H310.1V283.516H328.264ZM312.397 254.875V289H305.366V254.875H312.397ZM325.897 268.773V274.117H310.1V268.773H325.897ZM328.241 254.875V260.383H310.1V254.875H328.241ZM338.822 263.641L343.017 271.352L347.329 263.641H354.525L347.353 276.039L354.853 289H347.634L343.064 280.844L338.493 289H331.275L338.775 276.039L331.603 263.641H338.822ZM366.371 263.641V289H359.597V263.641H366.371ZM359.176 257.031C359.176 256.047 359.519 255.234 360.207 254.594C360.894 253.953 361.816 253.633 362.972 253.633C364.113 253.633 365.027 253.953 365.715 254.594C366.418 255.234 366.769 256.047 366.769 257.031C366.769 258.016 366.418 258.828 365.715 259.469C365.027 260.109 364.113 260.43 362.972 260.43C361.816 260.43 360.894 260.109 360.207 259.469C359.519 258.828 359.176 258.016 359.176 257.031ZM387.1 281.992C387.1 281.508 386.959 281.07 386.678 280.68C386.397 280.289 385.873 279.93 385.108 279.602C384.358 279.258 383.272 278.945 381.85 278.664C380.569 278.383 379.373 278.031 378.264 277.609C377.17 277.172 376.217 276.648 375.405 276.039C374.608 275.43 373.983 274.711 373.53 273.883C373.077 273.039 372.85 272.078 372.85 271C372.85 269.938 373.077 268.938 373.53 268C373.998 267.062 374.662 266.234 375.522 265.516C376.397 264.781 377.459 264.211 378.709 263.805C379.975 263.383 381.397 263.172 382.975 263.172C385.178 263.172 387.069 263.523 388.647 264.227C390.241 264.93 391.459 265.898 392.303 267.133C393.162 268.352 393.592 269.742 393.592 271.305H386.842C386.842 270.648 386.702 270.062 386.42 269.547C386.155 269.016 385.733 268.602 385.155 268.305C384.592 267.992 383.858 267.836 382.952 267.836C382.202 267.836 381.553 267.969 381.006 268.234C380.459 268.484 380.037 268.828 379.741 269.266C379.459 269.688 379.319 270.156 379.319 270.672C379.319 271.062 379.397 271.414 379.553 271.727C379.725 272.023 379.998 272.297 380.373 272.547C380.748 272.797 381.233 273.031 381.827 273.25C382.436 273.453 383.186 273.641 384.077 273.812C385.905 274.188 387.537 274.68 388.975 275.289C390.412 275.883 391.553 276.695 392.397 277.727C393.241 278.742 393.662 280.078 393.662 281.734C393.662 282.859 393.412 283.891 392.912 284.828C392.412 285.766 391.694 286.586 390.756 287.289C389.819 287.977 388.694 288.516 387.381 288.906C386.084 289.281 384.623 289.469 382.998 289.469C380.639 289.469 378.639 289.047 376.998 288.203C375.373 287.359 374.139 286.289 373.295 284.992C372.467 283.68 372.053 282.336 372.053 280.961H378.452C378.483 281.883 378.717 282.625 379.155 283.188C379.608 283.75 380.178 284.156 380.866 284.406C381.569 284.656 382.327 284.781 383.139 284.781C384.014 284.781 384.741 284.664 385.319 284.43C385.897 284.18 386.334 283.852 386.631 283.445C386.944 283.023 387.1 282.539 387.1 281.992ZM411.907 263.641V268.422H397.142V263.641H411.907ZM400.798 257.383H407.548V281.359C407.548 282.094 407.642 282.656 407.829 283.047C408.032 283.438 408.329 283.711 408.72 283.867C409.11 284.008 409.602 284.078 410.196 284.078C410.618 284.078 410.993 284.062 411.321 284.031C411.665 283.984 411.954 283.938 412.188 283.891L412.212 288.859C411.634 289.047 411.009 289.195 410.337 289.305C409.665 289.414 408.923 289.469 408.11 289.469C406.626 289.469 405.329 289.227 404.22 288.742C403.126 288.242 402.282 287.445 401.688 286.352C401.095 285.258 400.798 283.82 400.798 282.039V257.383Z" fill="#114DFF"/>
</g>
<defs>
<filter id="filter0_d_21_123" x="-981.8" y="0.2" width="1567.6" height="505.6" filterUnits="userSpaceOnUse" color-interpolation-filters="sRGB">
<feFlood flood-opacity="0" result="BackgroundImageFix"/>
<feColorMatrix in="SourceAlpha" type="matrix" values="0 0 0 0 0 0 0 0 0 0 0 0 0 0 0 0 0 0 127 0" result="hardAlpha"/>
<feOffset dy="4"/>
<feGaussianBlur stdDeviation="7.9"/>
<feComposite in2="hardAlpha" operator="out"/>
<feColorMatrix type="matrix" values="0 0 0 0 0 0 0 0 0 0 0 0 0 0 0 0 0 0 0.12 0"/>
<feBlend mode="normal" in2="BackgroundImageFix" result="effect1_dropShadow_21_123"/>
<feBlend mode="normal" in="SourceGraphic" in2="effect1_dropShadow_21_123" result="shape"/>
</filter>
<filter id="filter1_f_21_123" x="-1189.2" y="-267.2" width="1898.4" height="894.4" filterUnits="userSpaceOnUse" color-interpolation-filters="sRGB">
<feFlood flood-opacity="0" result="BackgroundImageFix"/>
<feBlend mode="normal" in="SourceGraphic" in2="BackgroundImageFix" result="shape"/>
<feGaussianBlur stdDeviation="43.1" result="effect1_foregroundBlur_21_123"/>
</filter>
<linearGradient id="paint0_linear_21_123" x1="-107.102" y1="237" x2="1188" y2="911.141" gradientUnits="userSpaceOnUse">
<stop offset="0.110599" stop-color="#F6F8FF"/>
<stop offset="0.403872" stop-color="#F6F8FF"/>
<stop offset="0.639452" stop-color="#99EED3"/>
<stop offset="0.77407" stop-color="#3CE5A7"/>
<stop offset="1" stop-color="#114DFF"/>
</linearGradient>
<linearGradient id="paint1_linear_21_123" x1="26.1224" y1="31.1842" x2="1541.82" y2="176.164" gradientUnits="userSpaceOnUse">
<stop offset="0.230793" stop-color="white"/>
<stop offset="0.461565" stop-color="#F6F8FF"/>
<stop offset="0.701953" stop-color="#3CE5A7"/>
<stop offset="1" stop-color="#114DFF" stop-opacity="0"/>
</linearGradient>
</defs>
</svg>
