<svg width="386" height="60" viewBox="0 0 386 60" fill="none" xmlns="http://www.w3.org/2000/svg">
<path d="M11.75 0.5L20.6562 20.75L29.625 0.5H40.625L25.8438 29.5625V46H15.5V29.5625L0.6875 0.5H11.75ZM40.4375 29.4375V28.7812C40.4375 26.3021 40.7917 24.0208 41.5 21.9375C42.2083 19.8333 43.25 18.0104 44.625 16.4688C46 14.9271 47.6875 13.7292 49.6875 12.875C51.6875 12 53.9792 11.5625 56.5625 11.5625C59.1875 11.5625 61.5 12 63.5 12.875C65.5208 13.7292 67.2188 14.9271 68.5938 16.4688C69.9688 18.0104 71.0104 19.8333 71.7188 21.9375C72.4271 24.0208 72.7812 26.3021 72.7812 28.7812V29.4375C72.7812 31.8958 72.4271 34.1771 71.7188 36.2812C71.0104 38.3646 69.9688 40.1875 68.5938 41.75C67.2188 43.2917 65.5312 44.4896 63.5312 45.3438C61.5312 46.1979 59.2292 46.625 56.625 46.625C54.0417 46.625 51.7396 46.1979 49.7188 45.3438C47.6979 44.4896 46 43.2917 44.625 41.75C43.25 40.1875 42.2083 38.3646 41.5 36.2812C40.7917 34.1771 40.4375 31.8958 40.4375 29.4375ZM50.2188 28.7812V29.4375C50.2188 30.7708 50.3229 32.0208 50.5312 33.1875C50.7604 34.3542 51.125 35.375 51.625 36.25C52.125 37.125 52.7812 37.8125 53.5938 38.3125C54.4271 38.7917 55.4375 39.0312 56.625 39.0312C57.8125 39.0312 58.8125 38.7917 59.625 38.3125C60.4375 37.8125 61.0938 37.125 61.5938 36.25C62.0938 35.375 62.4479 34.3542 62.6562 33.1875C62.8854 32.0208 63 30.7708 63 29.4375V28.7812C63 27.4688 62.8854 26.2396 62.6562 25.0938C62.4479 23.9271 62.0938 22.8958 61.5938 22C61.0938 21.1042 60.4271 20.4062 59.5938 19.9062C58.7812 19.4062 57.7708 19.1562 56.5625 19.1562C55.3958 19.1562 54.4062 19.4062 53.5938 19.9062C52.7812 20.4062 52.125 21.1042 51.625 22C51.125 22.8958 50.7604 23.9271 50.5312 25.0938C50.3229 26.2396 50.2188 27.4688 50.2188 28.7812ZM97.75 37.8438V12.1875H107.562V46H98.375L97.75 37.8438ZM98.7812 30.9375L101.469 30.875C101.469 33.1458 101.198 35.2396 100.656 37.1562C100.135 39.0729 99.3438 40.7396 98.2812 42.1562C97.2396 43.5729 95.9375 44.6771 94.375 45.4688C92.8333 46.2396 91.0312 46.625 88.9688 46.625C87.3021 46.625 85.7708 46.3958 84.375 45.9375C83 45.4583 81.8125 44.7188 80.8125 43.7188C79.8125 42.6979 79.0417 41.3958 78.5 39.8125C77.9583 38.2083 77.6875 36.2917 77.6875 34.0625V12.1875H87.4375V34.125C87.4375 35 87.5417 35.75 87.75 36.375C87.9792 36.9792 88.2812 37.4792 88.6562 37.875C89.0521 38.2708 89.5312 38.5625 90.0938 38.75C90.6771 38.9375 91.3125 39.0312 92 39.0312C93.7292 39.0312 95.0833 38.6771 96.0625 37.9688C97.0625 37.2396 97.7604 36.2708 98.1562 35.0625C98.5729 33.8333 98.7812 32.4583 98.7812 30.9375ZM123.688 20.0625V46H113.938V12.1875H123.094L123.688 20.0625ZM133.781 11.9375L133.625 21.0312C133.208 20.9688 132.667 20.9167 132 20.875C131.333 20.8125 130.76 20.7812 130.281 20.7812C129.031 20.7812 127.948 20.9375 127.031 21.25C126.135 21.5417 125.385 21.9792 124.781 22.5625C124.198 23.1458 123.76 23.875 123.469 24.75C123.177 25.6042 123.031 26.5938 123.031 27.7188L121.188 26.8125C121.188 24.5833 121.406 22.5417 121.844 20.6875C122.281 18.8333 122.917 17.2292 123.75 15.875C124.583 14.5 125.604 13.4375 126.812 12.6875C128.021 11.9375 129.396 11.5625 130.938 11.5625C131.438 11.5625 131.948 11.5938 132.469 11.6562C132.99 11.7188 133.427 11.8125 133.781 11.9375Z" fill="white"/>
<path d="M172.5 31.875V0.5H182.625V31.875C182.625 34.9167 181.938 37.5417 180.562 39.75C179.208 41.9375 177.365 43.6354 175.031 44.8438C172.719 46.0312 170.104 46.625 167.188 46.625C164.188 46.625 161.521 46.125 159.188 45.125C156.854 44.1042 155.021 42.5521 153.688 40.4688C152.375 38.3646 151.719 35.6875 151.719 32.4375H161.906C161.906 34.0417 162.104 35.3125 162.5 36.25C162.917 37.1667 163.521 37.8125 164.312 38.1875C165.104 38.5625 166.062 38.75 167.188 38.75C168.271 38.75 169.208 38.4896 170 37.9688C170.792 37.4271 171.406 36.6458 171.844 35.625C172.281 34.5833 172.5 33.3333 172.5 31.875ZM188.188 29.4375V28.7812C188.188 26.3021 188.542 24.0208 189.25 21.9375C189.958 19.8333 191 18.0104 192.375 16.4688C193.75 14.9271 195.438 13.7292 197.438 12.875C199.438 12 201.729 11.5625 204.312 11.5625C206.938 11.5625 209.25 12 211.25 12.875C213.271 13.7292 214.969 14.9271 216.344 16.4688C217.719 18.0104 218.76 19.8333 219.469 21.9375C220.177 24.0208 220.531 26.3021 220.531 28.7812V29.4375C220.531 31.8958 220.177 34.1771 219.469 36.2812C218.76 38.3646 217.719 40.1875 216.344 41.75C214.969 43.2917 213.281 44.4896 211.281 45.3438C209.281 46.1979 206.979 46.625 204.375 46.625C201.792 46.625 199.49 46.1979 197.469 45.3438C195.448 44.4896 193.75 43.2917 192.375 41.75C191 40.1875 189.958 38.3646 189.25 36.2812C188.542 34.1771 188.188 31.8958 188.188 29.4375ZM197.969 28.7812V29.4375C197.969 30.7708 198.073 32.0208 198.281 33.1875C198.51 34.3542 198.875 35.375 199.375 36.25C199.875 37.125 200.531 37.8125 201.344 38.3125C202.177 38.7917 203.188 39.0312 204.375 39.0312C205.562 39.0312 206.562 38.7917 207.375 38.3125C208.188 37.8125 208.844 37.125 209.344 36.25C209.844 35.375 210.198 34.3542 210.406 33.1875C210.635 32.0208 210.75 30.7708 210.75 29.4375V28.7812C210.75 27.4688 210.635 26.2396 210.406 25.0938C210.198 23.9271 209.844 22.8958 209.344 22C208.844 21.1042 208.177 20.4062 207.344 19.9062C206.531 19.4062 205.521 19.1562 204.312 19.1562C203.146 19.1562 202.156 19.4062 201.344 19.9062C200.531 20.4062 199.875 21.1042 199.375 22C198.875 22.8958 198.51 23.9271 198.281 25.0938C198.073 26.2396 197.969 27.4688 197.969 28.7812ZM245.5 37.8438V12.1875H255.312V46H246.125L245.5 37.8438ZM246.531 30.9375L249.219 30.875C249.219 33.1458 248.948 35.2396 248.406 37.1562C247.885 39.0729 247.094 40.7396 246.031 42.1562C244.99 43.5729 243.688 44.6771 242.125 45.4688C240.583 46.2396 238.781 46.625 236.719 46.625C235.052 46.625 233.521 46.3958 232.125 45.9375C230.75 45.4583 229.562 44.7188 228.562 43.7188C227.562 42.6979 226.792 41.3958 226.25 39.8125C225.708 38.2083 225.438 36.2917 225.438 34.0625V12.1875H235.188V34.125C235.188 35 235.292 35.75 235.5 36.375C235.729 36.9792 236.031 37.4792 236.406 37.875C236.802 38.2708 237.281 38.5625 237.844 38.75C238.427 38.9375 239.062 39.0312 239.75 39.0312C241.479 39.0312 242.833 38.6771 243.812 37.9688C244.812 37.2396 245.51 36.2708 245.906 35.0625C246.323 33.8333 246.531 32.4583 246.531 30.9375ZM271.438 20.0625V46H261.688V12.1875H270.844L271.438 20.0625ZM281.531 11.9375L281.375 21.0312C280.958 20.9688 280.417 20.9167 279.75 20.875C279.083 20.8125 278.51 20.7812 278.031 20.7812C276.781 20.7812 275.698 20.9375 274.781 21.25C273.885 21.5417 273.135 21.9792 272.531 22.5625C271.948 23.1458 271.51 23.875 271.219 24.75C270.927 25.6042 270.781 26.5938 270.781 27.7188L268.938 26.8125C268.938 24.5833 269.156 22.5417 269.594 20.6875C270.031 18.8333 270.667 17.2292 271.5 15.875C272.333 14.5 273.354 13.4375 274.562 12.6875C275.771 11.9375 277.146 11.5625 278.688 11.5625C279.188 11.5625 279.698 11.5938 280.219 11.6562C280.74 11.7188 281.177 11.8125 281.531 11.9375ZM295.094 19.4062V46H285.312V12.1875H294.5L295.094 19.4062ZM293.812 27.9062L291.375 27.9688C291.375 25.4271 291.688 23.1458 292.312 21.125C292.938 19.1042 293.823 17.3854 294.969 15.9688C296.135 14.5312 297.521 13.4375 299.125 12.6875C300.75 11.9375 302.542 11.5625 304.5 11.5625C306.083 11.5625 307.531 11.7917 308.844 12.25C310.156 12.7083 311.281 13.4479 312.219 14.4688C313.177 15.4688 313.906 16.8021 314.406 18.4688C314.906 20.1146 315.156 22.1458 315.156 24.5625V46H305.344V24.5312C305.344 23.1146 305.146 22.0208 304.75 21.25C304.354 20.4792 303.771 19.9375 303 19.625C302.25 19.3125 301.333 19.1562 300.25 19.1562C299.104 19.1562 298.125 19.3854 297.312 19.8438C296.5 20.2812 295.833 20.8958 295.312 21.6875C294.792 22.4792 294.406 23.4062 294.156 24.4688C293.927 25.5312 293.812 26.6771 293.812 27.9062ZM337.469 46.625C334.781 46.625 332.375 46.1979 330.25 45.3438C328.125 44.4896 326.323 43.3125 324.844 41.8125C323.385 40.2917 322.271 38.5417 321.5 36.5625C320.729 34.5833 320.344 32.4688 320.344 30.2188V29.0312C320.344 26.5104 320.698 24.1875 321.406 22.0625C322.115 19.9375 323.146 18.0938 324.5 16.5312C325.875 14.9479 327.562 13.7292 329.562 12.875C331.562 12 333.844 11.5625 336.406 11.5625C338.802 11.5625 340.938 11.9583 342.812 12.75C344.688 13.5208 346.271 14.6354 347.562 16.0938C348.854 17.5312 349.833 19.2708 350.5 21.3125C351.188 23.3333 351.531 25.6042 351.531 28.125V32.125H324.281V25.8438H341.969V25.0938C341.969 23.9062 341.75 22.8646 341.312 21.9688C340.896 21.0729 340.271 20.3854 339.438 19.9062C338.625 19.4062 337.594 19.1562 336.344 19.1562C335.156 19.1562 334.167 19.4062 333.375 19.9062C332.583 20.4062 331.948 21.1146 331.469 22.0312C331.01 22.9271 330.677 23.9792 330.469 25.1875C330.26 26.375 330.156 27.6562 330.156 29.0312V30.2188C330.156 31.5312 330.333 32.7292 330.688 33.8125C331.042 34.8958 331.562 35.8229 332.25 36.5938C332.938 37.3646 333.771 37.9688 334.75 38.4062C335.729 38.8438 336.844 39.0625 338.094 39.0625C339.635 39.0625 341.104 38.7708 342.5 38.1875C343.896 37.5833 345.104 36.6458 346.125 35.375L350.688 40.5938C350 41.5938 349.031 42.5625 347.781 43.5C346.552 44.4167 345.073 45.1667 343.344 45.75C341.615 46.3333 339.656 46.625 337.469 46.625ZM366.031 42.0938L374.875 12.1875H385.375L371.781 51.0625C371.49 51.9167 371.094 52.8333 370.594 53.8125C370.115 54.7917 369.458 55.7292 368.625 56.625C367.812 57.5208 366.771 58.25 365.5 58.8125C364.229 59.375 362.667 59.6562 360.812 59.6562C359.875 59.6562 359.146 59.6042 358.625 59.5C358.125 59.4167 357.458 59.2708 356.625 59.0625L356.594 51.9688C356.865 51.9688 357.104 51.9688 357.312 51.9688C357.542 51.9896 357.771 52 358 52C359.167 52 360.104 51.875 360.812 51.625C361.542 51.375 362.104 51 362.5 50.5C362.917 50.0208 363.25 49.4062 363.5 48.6562L366.031 42.0938ZM363.062 12.1875L370.062 36.25L371.25 46.5938L364.656 46.9375L352.562 12.1875H363.062Z" fill="#3CE5A7"/>
</svg>
