<?xml version="1.0" encoding="UTF-8"?>
<svg id="Layer_2" data-name="Layer 2" xmlns="http://www.w3.org/2000/svg" xmlns:xlink="http://www.w3.org/1999/xlink" viewBox="0 0 283.87 80.72">
  <defs>
    <style>
      .cls-1 {
        fill: url(#linear-gradient-3);
      }

      .cls-2 {
        fill: url(#linear-gradient-2);
      }

      .cls-3 {
        fill: #231f20;
      }

      .cls-4 {
        fill: url(#linear-gradient);
      }
    </style>
    <linearGradient id="linear-gradient" x1="-28.09" y1="-27.53" x2="88.24" y2="109.13" gradientUnits="userSpaceOnUse">
      <stop offset=".21" stop-color="#3ce5a7"/>
      <stop offset=".8" stop-color="#114dff"/>
    </linearGradient>
    <linearGradient id="linear-gradient-2" x1="-19.98" y1="-34.44" x2="96.35" y2="102.22" gradientUnits="userSpaceOnUse">
      <stop offset=".2" stop-color="#3ce5a7"/>
      <stop offset=".8" stop-color="#114dff"/>
    </linearGradient>
    <linearGradient id="linear-gradient-3" x1=".07" y1="-51.5" x2="116.4" y2="85.16" gradientUnits="userSpaceOnUse">
      <stop offset=".2" stop-color="#3ce5a7"/>
      <stop offset=".82" stop-color="#114dff"/>
    </linearGradient>
  </defs>
  <g id="Layer_1-2" data-name="Layer 1">
    <g>
      <g>
        <path class="cls-3" d="M123.12,18.61h-4.41c-1.27-2.63-3.73-4.38-7.42-4.38-5.16,0-8.28,3.76-8.28,8.55s3.11,8.55,8.28,8.55c3.69,0,6.16-1.74,7.42-4.38h4.41c-1.44,4.55-5.75,8.28-11.8,8.28-7.69,0-12.76-5.54-12.76-12.45s5.06-12.45,12.76-12.45c6.05,0,10.36,3.73,11.8,8.27Z"/>
        <path class="cls-3" d="M125.89,26.23c0-4.65,3.49-8.96,9.37-8.96s9.37,4.31,9.37,8.96-3.49,8.92-9.37,8.92-9.37-4.31-9.37-8.92ZM130.09,26.23c0,2.77,1.85,5.33,5.16,5.33s5.16-2.56,5.16-5.33-1.85-5.37-5.16-5.37-5.16,2.6-5.16,5.37Z"/>
        <path class="cls-3" d="M148.62,34.75V10.81h15.52v3.9h-11.08v6.36h10.77v3.86h-10.77v9.81h-4.45Z"/>
        <path class="cls-3" d="M166.54,26.23c0-4.65,3.49-8.96,9.37-8.96s9.37,4.31,9.37,8.96-3.49,8.92-9.37,8.92-9.37-4.31-9.37-8.92ZM170.74,26.23c0,2.77,1.85,5.33,5.16,5.33s5.16-2.56,5.16-5.33-1.85-5.37-5.16-5.37-5.16,2.6-5.16,5.37Z"/>
        <path class="cls-3" d="M200.56,17.68h4.31v17.06h-4.14v-2.87c-.85,1.95-2.97,3.28-5.64,3.28-4.1,0-6.33-3.01-6.33-7.21v-10.26h4.31v9.57c0,2.46.96,4.21,3.59,4.21,2.46,0,3.9-1.71,3.9-4.17v-9.61Z"/>
        <path class="cls-3" d="M213.89,34.75h-4.31v-17.06h4.17v2.91c.79-1.98,3.01-3.32,5.68-3.32,4.1,0,6.39,3.01,6.39,7.25v10.22h-4.31v-9.51c0-2.43-1.09-4.21-3.66-4.21-2.36,0-3.97,1.71-3.97,4.17v9.54Z"/>
        <path class="cls-3" d="M243.97,9.79h4.31v24.96h-4.14v-2.94c-.99,1.74-3.25,3.35-6.22,3.35-5.06,0-8.62-4.04-8.62-8.92s3.56-8.96,8.62-8.96c2.97,0,5.2,1.54,6.05,3.35v-10.84ZM238.74,31.6c2.84,0,5.23-2.09,5.23-5.37s-2.39-5.4-5.23-5.4c-3.08,0-5.13,2.43-5.13,5.4s2.05,5.37,5.13,5.37Z"/>
        <path class="cls-3" d="M256.18,27.67c.27,2.56,1.91,4.31,4.96,4.31,2.09,0,3.69-.92,4.51-2.22h4c-1.16,3.04-4.45,5.4-8.51,5.4-5.81,0-9.2-3.86-9.2-8.96s3.73-8.92,8.99-8.92,8.96,3.73,8.96,8.99v1.4h-13.71ZM256.14,24.83h9.64c-.27-2.63-2.02-4.48-4.79-4.48s-4.51,1.71-4.86,4.48Z"/>
        <path class="cls-3" d="M283.87,21.82h-.92c-3.45,0-5.06,2.02-5.06,5.33v7.59h-4.31v-17.06h4.17v3.69c.82-2.7,3.11-3.83,6.12-3.83v4.27Z"/>
      </g>
      <g>
        <path class="cls-3" d="M123.12,54.8h-4.41c-1.27-2.63-3.73-4.38-7.42-4.38-5.16,0-8.27,3.76-8.27,8.55s3.11,8.55,8.27,8.55c3.69,0,6.16-1.74,7.42-4.38h4.41c-1.44,4.55-5.75,8.28-11.8,8.28-7.69,0-12.75-5.54-12.75-12.45s5.06-12.45,12.75-12.45c6.05,0,10.36,3.73,11.8,8.27Z"/>
        <path class="cls-3" d="M129.24,45.94c1.47,0,2.56,1.13,2.56,2.53s-1.09,2.53-2.56,2.53-2.56-1.09-2.56-2.53,1.13-2.53,2.56-2.53ZM127.08,70.94v-17.06h4.31v17.06h-4.31Z"/>
        <path class="cls-3" d="M146.54,58.01h-.92c-3.45,0-5.06,2.02-5.06,5.33v7.59h-4.31v-17.06h4.17v3.69c.82-2.7,3.11-3.83,6.12-3.83v4.27Z"/>
        <path class="cls-3" d="M166.33,59.96h-4.17c-.72-1.57-2.19-2.91-4.72-2.91-3.25,0-5.06,2.5-5.06,5.37s1.81,5.33,5.06,5.33c2.53,0,4-1.26,4.72-2.91h4.17c-.89,3.56-4.21,6.5-8.86,6.5-5.68,0-9.37-3.9-9.37-8.92s3.69-8.96,9.37-8.96c4.65,0,7.97,2.94,8.86,6.5Z"/>
        <path class="cls-3" d="M169.92,70.94v-24.96h4.31v24.96h-4.31Z"/>
        <path class="cls-3" d="M182.13,63.86c.27,2.56,1.91,4.31,4.96,4.31,2.09,0,3.69-.92,4.51-2.22h4c-1.16,3.04-4.45,5.4-8.51,5.4-5.81,0-9.2-3.86-9.2-8.96s3.73-8.92,8.99-8.92,8.96,3.73,8.96,8.99v1.4h-13.71ZM182.09,61.02h9.64c-.27-2.63-2.02-4.48-4.79-4.48s-4.51,1.71-4.86,4.48Z"/>
      </g>
    </g>
    <g>
      <path class="cls-4" d="M0,40.36c0,21.42,16.65,38.95,37.72,40.36V0C16.65,1.4,0,18.93,0,40.36Z"/>
      <path class="cls-2" d="M43.18,43.01v37.71c20.19-1.35,36.33-17.5,37.63-37.71h-37.63Z"/>
      <rect class="cls-1" x="43.18" y="4.85" width="37.55" height="32.7"/>
    </g>
  </g>
</svg>