<?xml version="1.0" encoding="UTF-8"?>
<svg id="Layer_2" data-name="Layer 2" xmlns="http://www.w3.org/2000/svg" viewBox="0 0 193.05 50.19">
  <defs>
    <style>
      .cls-1 {
        fill: #1c1c1c;
      }
    </style>
  </defs>
  <g id="Layer_1-2" data-name="Layer 1">
    <g>
      <g>
        <path class="cls-1" d="M80.49,9.7h-3.09c-.89-1.84-2.61-3.06-5.2-3.06-3.62,0-5.79,2.63-5.79,5.99s2.18,5.99,5.79,5.99c2.59,0,4.31-1.22,5.2-3.06h3.09c-1.01,3.18-4.02,5.79-8.26,5.79-5.39,0-8.93-3.88-8.93-8.72s3.54-8.71,8.93-8.71c4.24,0,7.25,2.61,8.26,5.79Z"/>
        <path class="cls-1" d="M82.43,15.04c0-3.26,2.44-6.27,6.56-6.27s6.56,3.02,6.56,6.27-2.44,6.25-6.56,6.25-6.56-3.02-6.56-6.25ZM85.38,15.04c0,1.94,1.29,3.73,3.62,3.73s3.62-1.8,3.62-3.73-1.29-3.76-3.62-3.76-3.62,1.82-3.62,3.76Z"/>
        <path class="cls-1" d="M98.35,21V4.24h10.87v2.73h-7.76v4.45h7.54v2.71h-7.54v6.87h-3.11Z"/>
        <path class="cls-1" d="M110.89,15.04c0-3.26,2.44-6.27,6.56-6.27s6.56,3.02,6.56,6.27-2.44,6.25-6.56,6.25-6.56-3.02-6.56-6.25ZM113.84,15.04c0,1.94,1.29,3.73,3.62,3.73s3.62-1.8,3.62-3.73-1.29-3.76-3.62-3.76-3.62,1.82-3.62,3.76Z"/>
        <path class="cls-1" d="M134.71,9.05h3.02v11.95h-2.9v-2.01c-.6,1.36-2.08,2.3-3.95,2.3-2.87,0-4.43-2.11-4.43-5.05v-7.18h3.02v6.7c0,1.72.67,2.94,2.51,2.94,1.72,0,2.73-1.2,2.73-2.92v-6.73Z"/>
        <path class="cls-1" d="M144.05,21h-3.02v-11.95h2.92v2.03c.55-1.39,2.11-2.32,3.97-2.32,2.87,0,4.48,2.11,4.48,5.08v7.16h-3.02v-6.66c0-1.7-.77-2.94-2.56-2.94-1.65,0-2.78,1.2-2.78,2.92v6.68Z"/>
        <path class="cls-1" d="M165.11,3.52h3.02v17.48h-2.9v-2.06c-.69,1.22-2.27,2.35-4.36,2.35-3.54,0-6.03-2.83-6.03-6.25s2.49-6.27,6.03-6.27c2.08,0,3.64,1.08,4.24,2.35V3.52ZM161.45,18.79c1.99,0,3.66-1.46,3.66-3.76s-1.68-3.78-3.66-3.78c-2.16,0-3.59,1.7-3.59,3.78s1.44,3.76,3.59,3.76Z"/>
        <path class="cls-1" d="M173.66,16.04c.19,1.8,1.34,3.02,3.47,3.02,1.46,0,2.59-.65,3.16-1.56h2.8c-.81,2.13-3.11,3.78-5.96,3.78-4.07,0-6.44-2.71-6.44-6.27s2.61-6.25,6.3-6.25,6.27,2.61,6.27,6.3v.98h-9.6ZM173.63,14.05h6.75c-.19-1.84-1.41-3.14-3.35-3.14s-3.16,1.2-3.4,3.14Z"/>
        <path class="cls-1" d="M193.05,11.95h-.65c-2.42,0-3.54,1.41-3.54,3.73v5.32h-3.02v-11.95h2.92v2.59c.57-1.89,2.18-2.68,4.29-2.68v2.99Z"/>
      </g>
      <g>
        <path class="cls-1" d="M80.49,35.04h-3.09c-.89-1.84-2.61-3.06-5.2-3.06-3.62,0-5.79,2.63-5.79,5.99s2.18,5.99,5.79,5.99c2.59,0,4.31-1.22,5.2-3.06h3.09c-1.01,3.18-4.02,5.79-8.26,5.79-5.39,0-8.93-3.88-8.93-8.72s3.54-8.71,8.93-8.71c4.24,0,7.25,2.61,8.26,5.79Z"/>
        <path class="cls-1" d="M84.78,28.84c1.03,0,1.8.79,1.8,1.77s-.77,1.77-1.8,1.77-1.8-.77-1.8-1.77.79-1.77,1.8-1.77ZM83.27,46.34v-11.95h3.02v11.95h-3.02Z"/>
        <path class="cls-1" d="M96.89,37.29h-.65c-2.42,0-3.54,1.41-3.54,3.73v5.32h-3.02v-11.95h2.92v2.59c.57-1.89,2.18-2.68,4.29-2.68v2.99Z"/>
        <path class="cls-1" d="M110.75,38.65h-2.92c-.5-1.1-1.53-2.04-3.3-2.04-2.27,0-3.54,1.75-3.54,3.76s1.27,3.73,3.54,3.73c1.77,0,2.8-.89,3.3-2.03h2.92c-.62,2.49-2.94,4.55-6.2,4.55-3.97,0-6.56-2.73-6.56-6.25s2.59-6.27,6.56-6.27c3.26,0,5.58,2.06,6.2,4.55Z"/>
        <path class="cls-1" d="M113.26,46.34v-17.48h3.02v17.48h-3.02Z"/>
        <path class="cls-1" d="M121.81,41.38c.19,1.8,1.34,3.02,3.47,3.02,1.46,0,2.59-.65,3.16-1.56h2.8c-.81,2.13-3.11,3.78-5.96,3.78-4.07,0-6.44-2.71-6.44-6.27s2.61-6.25,6.3-6.25,6.27,2.61,6.27,6.3v.98h-9.6ZM121.78,39.39h6.75c-.19-1.84-1.41-3.14-3.35-3.14s-3.16,1.2-3.4,3.14Z"/>
      </g>
    </g>
    <g>
      <path d="M23.46,0C10.36.87,0,11.77,0,25.1s10.36,24.22,23.46,25.1V0Z"/>
      <path d="M26.85,26.74v23.45c12.56-.84,22.59-10.88,23.4-23.45h-23.4Z"/>
      <rect x="26.85" y="3.01" width="23.35" height="20.34"/>
    </g>
  </g>
</svg>