<?xml version="1.0" encoding="UTF-8"?>
<svg id="Layer_2" data-name="Layer 2" xmlns="http://www.w3.org/2000/svg" viewBox="0 0 147.54 24.89">
  <defs>
    <style>
      .cls-1 {
        fill: #231f20;
      }
    </style>
  </defs>
  <g id="Layer_1-2" data-name="Layer 1">
    <g>
      <path d="M142.25.98h-.95v3.12c0,.18-.04.31-.12.4s-.18.13-.31.13-.23-.04-.31-.13c-.08-.09-.12-.22-.12-.4V.98h-.95c-.15,0-.26-.03-.33-.1s-.11-.15-.11-.26.04-.2.11-.26.18-.1.33-.1h2.77c.15,0,.26.03.34.1.07.07.11.15.11.26s-.04.19-.11.26-.19.1-.33.1Z"/>
      <path d="M144.88,3.91l-.69-2.74v2.96c0,.16-.04.29-.11.37-.07.08-.17.12-.29.12s-.21-.04-.29-.12-.11-.2-.11-.37V.74c0-.19.05-.31.15-.38s.23-.1.4-.1h.27c.16,0,.28.01.35.04.07.03.13.08.16.16s.08.2.12.37l.62,2.35.62-2.35c.04-.17.08-.3.12-.37s.09-.13.16-.16c.07-.03.19-.04.35-.04h.27c.17,0,.3.03.4.1s.15.19.15.38v3.4c0,.16-.04.29-.11.37-.07.08-.17.12-.29.12-.12,0-.21-.04-.28-.12s-.11-.21-.11-.37V1.17l-.69,2.74c-.04.18-.08.31-.11.39s-.08.16-.16.23-.18.1-.32.1c-.1,0-.19-.02-.26-.07s-.12-.1-.16-.17-.07-.14-.09-.23c-.02-.08-.05-.17-.07-.26Z"/>
    </g>
    <g>
      <path class="cls-1" d="M8.1,17.54h-3.66v6.87H0V.48h10.53c5.09,0,8.69,3.8,8.69,8.51,0,3.76-2.29,6.94-5.78,8.1l6.84,7.32h-5.88l-6.29-6.87ZM9.95,13.71c2.94,0,4.82-2.09,4.82-4.72s-1.88-4.68-4.82-4.68h-5.51v9.4h5.51Z"/>
      <path class="cls-1" d="M46.12,24.42h-4.75l-1.61-4.17h-11.08l-1.61,4.17h-4.75L32.55.48h3.35l10.22,23.94ZM34.22,5.71l-4.17,10.87h8.34l-4.17-10.87Z"/>
      <path class="cls-1" d="M71.59,8.28h-4.41c-1.27-2.63-3.73-4.38-7.42-4.38-5.16,0-8.28,3.76-8.28,8.55s3.11,8.55,8.28,8.55c3.69,0,6.15-1.74,7.42-4.38h4.41c-1.44,4.55-5.75,8.27-11.8,8.27-7.69,0-12.75-5.54-12.75-12.45S52.1,0,59.8,0c6.05,0,10.36,3.73,11.8,8.28Z"/>
      <path class="cls-1" d="M75.66.48h16v3.9h-11.56v5.95h11.25v3.86h-11.25v6.33h11.7v3.9h-16.14V.48Z"/>
      <path class="cls-1" d="M126.05,24.42h-4.75l-1.61-4.17h-11.08l-1.61,4.17h-4.75L112.48.48h3.35l10.22,23.94ZM114.16,5.71l-4.17,10.87h8.34l-4.17-10.87Z"/>
      <path class="cls-1" d="M129.74.48h4.45v23.94h-4.45V.48Z"/>
    </g>
  </g>
</svg>